<?xml version="1.0" encoding="utf-8"?>
<!-- Generator: Adobe Illustrator 16.0.0, SVG Export Plug-In . SVG Version: 6.00 Build 0)  -->
<!DOCTYPE svg PUBLIC "-//W3C//DTD SVG 1.1//EN" "http://www.w3.org/Graphics/SVG/1.1/DTD/svg11.dtd">
<svg version="1.1" id="Layer_1" xmlns="http://www.w3.org/2000/svg" xmlns:xlink="http://www.w3.org/1999/xlink" x="0px" y="0px"
	 width="135px" height="112px" viewBox="0 0 135 112" enable-background="new 0 0 135 112" xml:space="preserve">
<path fill-rule="evenodd" clip-rule="evenodd" fill="#9262F4" d="M20.794,41.291c4.243-15.265,13.539-26.273,28.152-32.387
	c14.609-6.111,28.962-4.971,42.796,2.725c0.508,0.283,1.01,0.573,1.518,0.86c2.215,0.781,3.846,2.439,5.688,3.785
	c0.371,0.318,0.82,0.59,0.734,1.189c-0.268,0.648-0.869,0.902-1.438,1.174c-6.553,3.13-13.393,5.192-20.678,5.687
	c-1.527,0.103-3.057,0.225-4.58,0.377c-4.234,0.424-7.126,2.978-9.64,6.107c-0.765,0.951-1.61,1.821-2.472,2.681
	c-2.131,2.128-4.707,3.183-7.71,3.169c-6.16-0.028-12.236,0.704-18.249,2.004c-3.983,0.861-7.877,2.072-11.821,3.089
	c-0.563,0.145-1.125,0.313-1.712,0.312C20.866,42.06,20.544,41.887,20.794,41.291z"/>
<path fill-rule="evenodd" clip-rule="evenodd" fill="#9262F4" d="M19.493,57.838c-0.258-1.994-0.304-3.997-0.196-6.003
	c0.378-0.5,0.933-0.657,1.508-0.791c9.179-2.14,18.456-3.641,27.845-4.522c7.059-0.663,14.121-1.006,21.208-0.906
	c4.484,0.063,8.211-1.38,11.072-5.056c3.873-4.977,9.275-7.554,15.252-9.089c3.955-1.016,8.004-1.469,12.041-1.992
	c0.475-0.062,0.949-0.04,1.408,0.132c0.568,0.257,0.846,0.772,1.111,1.289c1.652,3.199,2.906,6.553,3.881,10.013
	c0.17,0.6,0.373,1.231-0.068,1.823c-1.688,0.95-3.578,0.777-5.395,0.898c-2.207,0.148-4.424,0.114-6.641,0.269
	c-4.543,0.318-8.039,2.339-10.768,5.875c-0.582,0.753-1.172,1.5-1.736,2.265c-2.697,3.667-6.391,5.771-10.723,6.872
	c-3.293,0.839-6.66,1.206-10.043,1.245c-11.125,0.13-22.126,1.369-33.043,3.464c-4.362,0.838-8.696,1.786-12.981,2.957
	c-0.658,0.18-1.32,0.403-2.025,0.268c-0.992-0.624-0.893-1.715-1.142-2.66C19.813,62.076,18.929,60.021,19.493,57.838z"/>
<path fill-rule="evenodd" clip-rule="evenodd" fill="#90CCF1" d="M19.493,57.838c0.328,2.121,0.656,4.242,0.984,6.363
	c-1.282,2.518-3.285,4.526-4.848,6.85c-3.292,4.897-6.237,9.965-7.922,15.659c-0.735,2.483-1.337,5.012-0.884,7.655
	c0.501,2.92,2.188,4.901,4.864,6.003c3.084,1.27,6.352,1.645,9.652,1.43c8.305-0.537,16.264-2.656,24.059-5.466
	c13.042-4.86,25.394-11.084,37.081-18.653c9.096-5.889,17.57-12.524,25.121-20.316c2.93-2.813,5.773-5.707,8.334-8.869
	c3.678-4.713,7.215-9.51,9.805-14.943c1.471-3.084,2.643-6.285,2.869-9.674c0.447-6.73-2.686-9.586-8.412-10.104
	c-6.359-0.575-12.498,0.707-18.645,2.003c-0.98,0.207-1.947,0.477-2.926,0.689c-1.789-1.326-3.578-2.651-5.367-3.977
	c5.92-1.542,11.855-3.051,17.943-3.748c4.939-0.565,9.896-0.838,14.682,1.038c4.631,1.814,7.504,5.98,7.723,11
	c0.225,5.153-1.145,9.936-3.234,14.546c-3.35,7.383-8.014,13.898-13.408,19.908c-0.613,0.684-1.094,1.402-1.396,2.257
	c-5.471,5.653-11.188,11.036-17.396,15.884c-7.262,5.67-14.988,10.625-22.98,15.188c-6.52,3.724-13.243,7.031-20.166,9.938
	c-0.782,0.329-1.591,0.563-2.393,0.825c-3.095,1.051-6.186,2.113-9.286,3.148c-7.993,2.672-16.129,4.624-24.62,4.538
	c-2.96-0.029-5.882-0.539-8.673-1.596c-6.256-2.369-9.605-8.709-8.458-15.482c1.547-9.13,6.102-16.789,11.404-24.113
	C15.011,63.037,17.223,60.414,19.493,57.838z"/>
<path fill-rule="evenodd" clip-rule="evenodd" fill="#CFB9F9" d="M109.736,29.908c-4.213,0.234-8.369,0.848-12.479,1.819
	c-3.93,0.929-7.697,2.21-11.07,4.513c-1.99,1.359-3.711,3.025-5.162,4.894c-2.611,3.358-6.031,4.832-10.158,4.907
	c-2.699,0.05-5.398-0.033-8.095,0.043c-6.535,0.186-13.04,0.746-19.539,1.488c-8.075,0.92-16.024,2.474-23.937,4.263
	c-0.097-3.599,0.442-7.108,1.498-10.544c0.431,0.966,1.115,0.267,1.594,0.153c5.019-1.198,9.938-2.781,15.025-3.729
	c4.777-0.89,9.587-1.592,14.432-1.427c4.768,0.163,8.169-1.897,10.946-5.505c2.575-3.344,5.628-6.034,10.05-6.533
	c2.668-0.3,5.355-0.414,8.018-0.74c6.402-0.782,12.408-2.859,18.146-5.757c0.217-0.11,0.367-0.356,0.547-0.539
	c0.57-0.324,0.895,0.134,1.211,0.434c3.465,3.273,6.406,6.964,8.793,11.093C109.762,29.096,110.023,29.466,109.736,29.908z"/>
<path fill-rule="evenodd" clip-rule="evenodd" fill="#9262F4" d="M52.63,99.324c0.586-0.785,1.546-0.876,2.355-1.217
	c10.583-4.468,20.633-9.921,30.307-16.108c10.543-6.746,20.164-14.599,28.854-23.602c0.369-0.384,0.576-1.199,1.42-0.907
	c-1.592,21.79-19.053,40.469-40.561,43.572C67.381,102.161,59.959,101.568,52.63,99.324z"/>
<path fill-rule="evenodd" clip-rule="evenodd" fill="#F88B95" d="M57.361,17.807c0,2.537,0,2.537-2.941,2.536
	c-2.142,0-2.142,0-2.14-3.02c0.001-2.064,0.001-2.08,3.099-2.057C57.707,15.283,57.322,14.956,57.361,17.807z"/>
<path fill-rule="evenodd" clip-rule="evenodd" fill="#F88B95" d="M44.583,27.965c-2.467,0-2.467,0-2.467-2.852
	c0-2.233,0.001-2.257,3.089-2.223c2.386,0.027,1.975-0.436,1.982,3.002C47.193,28.338,47.537,27.921,44.583,27.965z"/>
<path fill-rule="evenodd" clip-rule="evenodd" fill="#CFB9F9" d="M114.547,42.579c0.584,1.444,0.795,2.971,0.932,4.503
	c0.063,0.682,0.041,1.355,0.617,1.852c-2.613,2.993-5.205,6.007-8.246,8.589c-0.898,0.656-1.844,1.229-2.854,1.702
	c-2.777,1.297-4.986,3.369-7.238,5.372c-1.387,1.233-2.801,2.432-4.338,3.462c-3.102,2.076-6.488,3.198-10.281,3.258
	c-4.184,0.065-8.344-0.381-12.521-0.355c-1.855,0.012-3.695,0.248-5.523,0.497c-3.767,0.514-7.163,1.962-9.899,4.637
	c-3.014,2.946-6.6,3.485-10.569,2.994c-3.525-0.438-6.981-1.227-10.47-1.845c-2.815-0.497-5.651-0.969-8.468,0.042
	c-0.66,0.025-0.879-0.497-1.118-0.946c-1.351-2.545-2.628-5.124-3.436-7.906c-0.168-0.579-0.514-1.19,0.058-1.756
	c7.146-2.06,14.405-3.603,21.753-4.715c9.131-1.383,18.307-2.157,27.554-2.327c5-0.092,9.986-0.801,14.439-3.508
	c2.654-1.613,4.502-3.97,6.289-6.391c2.834-3.843,6.51-5.92,11.346-6.3c3.264-0.256,6.553,0.094,9.789-0.531
	C113.086,42.768,113.818,42.687,114.547,42.579z"/>
<path fill-rule="evenodd" clip-rule="evenodd" fill="#9262F4" d="M45.673,96.538c-4.264-2.427-8.315-5.13-11.819-8.614
	c-3.233-3.216-5.984-6.781-8.258-10.725c0.045-0.701,0.591-0.574,1.045-0.668c4.075-0.837,7.954,0.409,11.875,1.124
	c3.061,0.56,6.111,1.106,9.241,1.145c2.578,0.031,4.773-0.841,6.603-2.584c3.604-3.43,7.889-4.992,12.823-5.466
	c4.672-0.448,9.299-0.037,13.92,0.178c6.521,0.302,11.68-2.246,16.242-6.542c3.092-2.913,6.369-5.546,10.504-6.864
	c-2.924,3.5-6.404,6.424-9.885,9.319C86.42,76.443,73.672,84.153,60.126,90.565C55.413,92.797,50.661,94.96,45.673,96.538z"/>
<path fill-rule="evenodd" clip-rule="evenodd" fill="#F88B95" d="M62.343,83.867c-2.442,0-2.442,0-2.441-2.878
	c0-2.205,0-2.205,2.957-2.205c2.127,0.002,2.127,0.002,2.125,3.037C64.983,83.867,64.983,83.867,62.343,83.867z"/>
<path fill-rule="evenodd" clip-rule="evenodd" fill="#F88B95" d="M52.28,86.481c0,2.468,0,2.468-2.852,2.467
	c-2.232,0-2.257,0-2.222-3.089c0.027-2.387-0.436-1.976,3.002-1.982C52.652,83.872,52.236,83.527,52.28,86.481z"/>
</svg>
