<?xml version="1.0" encoding="utf-8"?>
<!-- Generator: Adobe Illustrator 16.0.0, SVG Export Plug-In . SVG Version: 6.00 Build 0)  -->
<!DOCTYPE svg PUBLIC "-//W3C//DTD SVG 1.1//EN" "http://www.w3.org/Graphics/SVG/1.1/DTD/svg11.dtd">
<svg version="1.1" id="Layer_1" xmlns="http://www.w3.org/2000/svg" xmlns:xlink="http://www.w3.org/1999/xlink" x="0px" y="0px"
	 width="328px" height="414px" viewBox="0 0 328 414" enable-background="new 0 0 328 414" xml:space="preserve">
<path fill-rule="evenodd" clip-rule="evenodd" fill="#FAD489" d="M312.338,212.47c-1.375,7.96-0.811,16.32-4.898,23.72
	c-4.16,3.291,1.052,13.451-9.079,12.381c-5.958-9.862-7.128-20.8-7.468-32.014c-0.204-6.726,1.487-13.732-2.311-20.058
	c-0.979-1.77-1.505-3.671-1.6-5.681c0.041-1.272,0.309-2.514,0.761-3.709c2.463-3.498,5.226-6.731,8.845-9.133
	c0.592-0.102,1.189-0.194,1.777-0.293c1.181,0.268,2.129,0.89,2.802,1.907c1.712,4.582,1.943,10.061,7.451,12.386
	c1.703,2.514,1.446,5.637,2.609,8.319C311.951,204.324,310.367,208.559,312.338,212.47z"/>
<path fill-rule="evenodd" clip-rule="evenodd" fill="#D09D64" d="M23.469,228.15c-0.028-15.606-0.056-31.213-0.084-46.819
	c2.292-1.163,6.395,2.192,7.104-2.889c0.613-2.142,1.346-4.189,3.368-5.423c1.079-0.329,2.142-0.255,3.188,0.133
	c2.434,1.57,4.997,1.555,7.643,0.541c5.488-1.992,9.221-0.388,10.941,5.326c0.195,9.291-7.334,14.196-12.467,20.001
	c-2.414,2.728,0.116,4.742-1.466,6.565c-2.225,3.435-5.293,5.331-9.441,5.303c-5.616-2.894-2.509-7.333-2.221-10.817
	c-2.946,4.732,0.538,10.224-0.371,15.395C28.854,220.067,30.334,226.322,23.469,228.15z"/>
<path fill-rule="evenodd" clip-rule="evenodd" fill="#FCE098" d="M255.369,92.37c7.959,7.723,18.193,13.182,23.452,23.589
	c2.584,4.38,0.105,6.14-3.722,7.205c-2.71,0.212-5.126-0.736-7.469-1.922c-7.31-4.768-13.938,2.343-21.049,1.242
	c-2.803-1.19-3.516-3.488-3.348-6.267c0.778-4.171,2.511-8.064,1.86-12.616C244.025,96.118,247.667,92.204,255.369,92.37z"/>
<path fill-rule="evenodd" clip-rule="evenodd" fill="#E5B66F" d="M283.208,290.86c-6.117,6.808-8.771,16.529-17.661,21.007
	c-5.062,0.157-10.756,2.202-13.501-4.526c2.036-4.107,5.425-5.152,9.344-4.367c-4.683-8.671-12.275-16.267-12.422-27.324
	c6.13-5.158,10.913-1.318,15.557,2.488c3.492,2.866,5.542,7.642,10.87,7.988c1.725,0.025,3.428,0.191,5.08,0.716
	C282.198,287.625,283.03,289.022,283.208,290.86z"/>
<path fill-rule="evenodd" clip-rule="evenodd" fill="#BA7B3F" d="M69.962,311.88c-4.973-1.599-5.343-6.8-7.993-10.217
	c-4.305-6.895-0.55-14.01-0.604-21.037c0.287-2.126,0.706-4.234,1.538-6.19c1.461-3.439,2.301-7.929,7.157-7.814
	c4.753,0.115,5.527,4.597,7.099,7.996c1.513,5.168,1.599,10.634,3.237,15.782c0.616,3.799,0.745,7.593-0.407,11.322
	c-1.295,2.71-4.908,4.228-4.175,8.031C74.295,311.66,72.614,313.116,69.962,311.88z"/>
<path fill-rule="evenodd" clip-rule="evenodd" fill="#B26F37" d="M174.355,345.379c-6.087,0.023-12.174,0.043-18.262,0.066
	c-0.791-1.41,0.1-2.438,0.728-3.495c-1.319-3.021-7.084-1.652-6.453-6.527c1.657-2.417,6.848-1.41,6.05-6.244
	c1.537-0.972,3.215-1.29,4.987-1.249c16.001,2.233,16.969,1.445,14.564-11.899c0.31-1.359,1.106-2.271,2.397-2.776
	c6.231-0.446,8.151,3.829,9.582,8.663c0.255,4.11,2.564,6.624,5.787,9.128c5.08,3.944,5.697,9.041,1.468,14.293
	c-0.903,0.013-1.805,0.025-2.706,0.036c-5.425-3.511-11.696-1.649-17.523-2.637C173.612,342.508,175.184,344.599,174.355,345.379z"
	/>
<path fill-rule="evenodd" clip-rule="evenodd" fill="#F7C68F" d="M132.276,66.127c0.861-0.862,1.723-1.724,2.584-2.583
	c7.399-1.729,15.031-1.155,22.485-2.287c5.141,0.092,10.305-0.372,15.42,0.479c1.372,0.4,2.722,0.882,4.041,1.44
	c1.298,6.323-4.31,6.007-7.591,7.939c-8.454,3.312-18.458-1.82-26.298,4.862c-1.925,1.887-3.783,3.847-6.186,5.163
	c-5.339,2.287-10.912,1.856-16.49,1.461c-2.051-0.319-3.944-1.028-5.571-2.343c-3.051-11.733,7.461-8.776,12.598-11.634
	C128.91,67.759,131.764,69.306,132.276,66.127z"/>
<path fill-rule="evenodd" clip-rule="evenodd" fill="#D19248" d="M244.466,327.32c-5.206,7.105-14.497,6.061-21.026,10.524
	c-0.981,0.862-2.031,0.951-3.15,0.278c-5.326-4.153-8.992-9.383-10.429-16.065c2.938-4.862-4.449-9.339-0.556-14.26
	c3.546-1.856,7.233-1.681,10.975-0.831c2.952,0.82,5.844,1.805,8.356,3.636c3.028,3.381-1.128,6.262-0.64,9.461
	c1.713,5.023,5.277,4.085,8.945,2.767c1.518-0.768,3.079-1.341,4.815-1.229C244.044,322.851,244.724,324.864,244.466,327.32z"/>
<path fill-rule="evenodd" clip-rule="evenodd" fill="#CC9960" d="M23.469,228.15c5.428-8.72,1.168-19.278,5.371-28.65
	c3.948,2.682,0.037,8.473,4.492,10.522c2.318,1.93,2.672,4.543,2.581,7.317c-1.687,6.354-1.86,12.699,0.209,19.027
	c0.477,2.649,0.681,5.318,0.742,8.006c-2.221,4.888,5.875,12.295-3.721,15.387C28.303,249.717,23.37,239.705,23.469,228.15z"/>
<path fill-rule="evenodd" clip-rule="evenodd" fill="#9F6030" d="M150.888,335.311c2.362,3.455,6.011,2.366,9.289,2.695
	c1.763,0.178,4.93-0.755,3.906,2.738c-0.663,2.264-3.377,2.164-5.493,2.34c-9.37,2.784-19.412-2.988-28.59,2.244
	c-1.7,0.021-3.401,0.041-5.102,0.061c-0.916-2.439-0.127-5.114-1.05-7.574c2.195-6.767,5.295-12.445,13.829-11.708
	C142.375,328.743,148.335,329.587,150.888,335.311z"/>
<path fill-rule="evenodd" clip-rule="evenodd" fill="#E4C290" d="M52.222,116.229c8.998-10.186,15.794-22.903,30.504-26.519
	c0.39,0.484,0.78,0.969,1.175,1.451c0.252,1.236,0.287,2.478,0.106,3.728c-1.401,14.89-13.481,18.275-24.541,22.786
	C56.83,118.313,54.304,118.366,52.222,116.229z"/>
<path fill-rule="evenodd" clip-rule="evenodd" fill="#E1A85C" d="M244.466,327.32c-2.063-1.068-2.12-3.034-2.226-4.978
	c-2.084-3.842-0.839-8.156-1.746-12.182c0.413-4.454,2.782-7.142,7.197-7.99c2.742,0.293,5.61,0.451,5.029,4.475
	c3.294,4.153,9.203,1.879,12.827,5.222C258.239,316.635,253.502,324.908,244.466,327.32z"/>
<path fill-rule="evenodd" clip-rule="evenodd" fill="#F5C276" d="M283.208,290.86c-0.638-0.844-1.276-1.686-1.915-2.529
	c-3.589-3.187-8.205-5.491-9.312-10.823c-0.314-1.892-0.052-3.669,1.089-5.26c1.604-1.145,3.351-1.349,5.21-0.772
	c0.919-0.089,1.453,2.358,2.138,0.768c0.304-0.704-1.82-2.351-2.502-3.802c-0.345-1.149-0.361-2.317-0.111-3.487
	c1.122-2.229,2.905-3.463,5.429-3.56c2.577,0.796,4.594,2.792,7.265,3.427c2.604,0.91,5.226,1.815,5.691,5.102
	C294.119,278.301,288.013,284.178,283.208,290.86z"/>
<path fill-rule="evenodd" clip-rule="evenodd" fill="#F9DF9F" d="M231.871,76.759c2.594,1.767,5.188,3.531,7.781,5.295
	c2.588,5.609,0.393,8.021-5.361,8.072c-3.012-1.303-6.047-2.677-7.601,1.938c-0.683,1.655-1.564,3.136-3.089,4.151
	c-1.839,0.683-3.597,0.551-5.283-0.459c-1.306-1.382-1.97-3.064-2.333-4.888c-0.311-4.133-1.593-7.962-3.724-11.529
	c-0.551-1.833-0.424-3.6,0.505-5.293c2.379-2.611,5.597-2.244,8.656-2.442c0.873,0.816,1.746,1.629,2.619,2.445
	C225.989,76.868,228.894,76.919,231.871,76.759z"/>
<path fill-rule="evenodd" clip-rule="evenodd" fill="#FCDFA1" d="M255.369,92.37c-4.571,3.419-10.525,5.844-6.587,13.758
	c1.931,3.878-0.898,7.266-3.922,9.915c-1.061,0.813-2.147,0.893-3.263,0.128c-6.946-10.739-5.234-21.284,0.76-31.728
	C246.694,87.087,251.033,89.729,255.369,92.37z"/>
<path fill-rule="evenodd" clip-rule="evenodd" fill="#B97843" d="M195.204,345.338c-0.142-5.604,1.732-11.771-7.133-13.353
	c-4.819-0.858-2.758-6.197-3.218-9.703c0.865-0.872,1.923-1.285,3.143-1.309c5.359,2.19,9.951,5.844,15.303,8.06
	c2.195,1.91,3.327,4.485,4.411,7.083c0.888,2.463,2.448,4.633,3.269,7.139C206.313,348.443,200.48,344.787,195.204,345.338z"/>
<path fill-rule="evenodd" clip-rule="evenodd" fill="#FCDB96" d="M242.357,84.443c-2.886,10.52-2.189,21.05-0.105,31.584
	c-8.303-4.258-15.349-9.607-17.022-19.614c1.06-2.855,2.974-5.201,4.646-7.697c1.221-1.397,2.53-2.549,4.527-1.356
	c5.565,2.007,4.461-2.585,5.25-5.303C240.554,82.853,241.456,83.648,242.357,84.443z"/>
<path fill-rule="evenodd" clip-rule="evenodd" fill="#F8DF94" d="M273.492,121.295c3.446-0.109,5.222-1.889,5.329-5.336
	c5.187,7.866,12.205,14.49,15.881,23.383c1.287,2.251,1.263,4.678,0.967,7.146c-0.677,1.091-1.638,1.744-2.929,1.895
	c-1.887-0.24-3.408-1.188-4.772-2.44c-3.138-3.424-5.514-7.404-8.057-11.261c-1.411-4.309-6.3-6.086-7.666-10.443
	C272.198,123.063,272.639,122.091,273.492,121.295z"/>
<path fill-rule="evenodd" clip-rule="evenodd" fill="#FEECA4" d="M310.033,199.709c-2.938-1.958-2.417-5.061-2.627-7.924
	c-4.274-3.355-3.83-9.497-7.725-13.077l-0.009-0.01c-0.3-7.889-5.586-15.792,0.069-23.663c10.708,12.157,9.752,27.781,12.573,42.283
	C311.848,198.394,311.087,199.191,310.033,199.709z"/>
<path fill-rule="evenodd" clip-rule="evenodd" fill="#ECC589" d="M82.726,89.711c4.792-8.273,13.83-10.721,21.208-15.446
	c4.1-2.593,5.756-0.329,6.707,3.36c0.059,2.557-0.769,4.913-1.656,7.254c-1.505,3.419-3.603,6.167-7.696,6.568
	c-1.152-0.087-2.232-0.431-3.252-0.949c-4.862-2.634-9.958,4.378-14.766-0.321L82.726,89.711z"/>
<path fill-rule="evenodd" clip-rule="evenodd" fill="#A25522" d="M100.968,332.901c-4.764-2.868-10.192-4.905-12.914-10.329
	c0.831-8.365,6.531-7.855,12.501-6.873c4.324,4.448,8.709,8.877,9.298,15.572C107.563,335.456,104.324,334.497,100.968,332.901z"/>
<path fill-rule="evenodd" clip-rule="evenodd" fill="#F2DEA4" d="M221.423,71.604c-1.887,3.11-5,2.593-7.91,2.674
	c-5.56,1.463-10.167-4.597-15.87-1.966c-2.454,0.056-4.905,0.033-7.359-0.12c-3.153-0.484-7.099-0.385-7.968-4.125
	c-0.638-2.738,2.359-3.799,4.713-4.561c1.101-0.556,2.128-1.231,3.063-2.042C200.607,64.617,211.632,66.203,221.423,71.604z"/>
<path fill-rule="evenodd" clip-rule="evenodd" fill="#FCC788" d="M296.189,269.923c-2.312-0.823-4.622-1.649-6.933-2.476
	c-4.07-5.943-4.215-12.327-2.137-18.956c8.854-8.221,9.423,1.892,12.807,5.795c0.567,1.871,1.009,3.804,2.187,5.44
	C300.139,263.126,298.164,266.524,296.189,269.923z"/>
<path fill-rule="evenodd" clip-rule="evenodd" fill="#C38C53" d="M48.886,286.085c-5.952-3.745-6.937-10.484-9.728-16.137
	c0.447-3.794,1.416-7.067,6.36-6.363c3.971,3.696,2.15-3.045,4.406-2.461c2.756-0.632,4.653,0.497,5.956,2.868
	c0.667,1.668,0.841,3.394,0.581,5.153c-0.362,3.269-3.843,4.893-4.271,8.125c0.094,2.005,0.741,3.978,0.252,5.997
	C51.687,284.749,50.554,285.759,48.886,286.085z"/>
<path fill-rule="evenodd" clip-rule="evenodd" fill="#B3793E" d="M69.962,311.88c1.717-0.885,3.435-1.77,5.152-2.654
	c1.631-1.833,3.513-3.267,5.982-3.784c3.767-0.025,7.188,0.929,10.01,3.563c1.081,1.537,1.352,3.22,0.872,5.027
	c-1.793,2.846-4.754,4.761-6.308,7.814C78.357,321.798,73.526,317.838,69.962,311.88z"/>
<path fill-rule="evenodd" clip-rule="evenodd" fill="#F7D18D" d="M299.742,155.035c-1.597,7.883,5.894,15.792-0.069,23.663
	c-0.866,0.005-1.733,0.01-2.602,0.013c-2.38-1.92-2.969-4.661-3.459-7.453c0.334-8.021-6.229-15.604-1.589-23.913
	c0.803,0.031,1.605,0.049,2.41,0.051c5.333-1.614,2.938,3.893,4.934,5.354C299.459,153.518,299.584,154.277,299.742,155.035z"/>
<path fill-rule="evenodd" clip-rule="evenodd" fill="#F4C78F" d="M109.084,79.443c-0.085-3.35-1.82-5.059-5.15-5.178
	c4.504-6.063,12.606-3.773,18.007-7.756c3.671-1.736,5.71,0.997,8.038,2.939c-4.221,4.911-13.828,1.402-15.674,10.025
	c-0.375,0.347-0.748,0.691-1.123,1.038C111.601,80.981,110.195,80.772,109.084,79.443z"/>
<path fill-rule="evenodd" clip-rule="evenodd" fill="#DFA661" d="M31.27,155.292c-0.537-4.426,2.005-7.542,4.535-10.665
	c6.12-0.245,5.943,5.056,7.686,8.687c0.097,7.662,1.895,15.974-7.459,20.14l-0.139-0.043c-1.382-1.288-2.223-2.868-2.59-4.707
	C32.071,164.32,34.509,159.382,31.27,155.292z"/>
<path fill-rule="evenodd" clip-rule="evenodd" fill="#CB8C56" d="M46.422,264.856c-3.907-0.42-4.999,3.175-7.264,5.092
	c-2.005-3.396-4.011-6.792-6.016-10.188c4.723-5.203-1.876-10.591,0.259-15.835c2.707-1.323,4.445,0.268,6.134,2.019
	c0.926,1.456,1.445,3.067,1.781,4.737c0.502,2.58,1.109,5.136,2.624,7.369C45.032,260.219,48.12,261.683,46.422,264.856z"/>
<path fill-rule="evenodd" clip-rule="evenodd" fill="#E0B480" d="M41.271,152.674c-1.823-2.683-3.645-5.365-5.466-8.047
	c1.12-2.519,2.239-5.038,3.359-7.557c2.979-1.315,6.141-1.708,9.359-1.864c1.108,0.087,2.135,0.423,3.095,0.982
	c0.728,0.877,1.044,1.894,1.02,3.026c-0.409,1.629-1.257,3.039-2.19,4.406c-2.282,3.052-3.285,6.947-6.234,9.574
	C43.112,153.716,42.136,153.51,41.271,152.674z"/>
<path fill-rule="evenodd" clip-rule="evenodd" fill="#9C6021" d="M130,345.328c0.891-5.64,5.33-4.962,9.047-4.663
	c6.539,0.527,13.034,1.586,19.544,2.422c-0.834,0.785-1.667,1.57-2.499,2.358C147.396,345.407,138.698,345.366,130,345.328z"/>
<path fill-rule="evenodd" clip-rule="evenodd" fill="#E7B967" d="M52.222,116.229c2.43-0.071,4.858-0.143,7.288-0.214
	c2.464-0.954,3.159,0.709,3.762,2.537c0.025,3.743,1.223,7.896-3.466,10.02c-4.543,0.479-9.764,2.473-10.863-4.809
	C48.697,120.671,50.579,118.501,52.222,116.229z"/>
<path fill-rule="evenodd" clip-rule="evenodd" fill="#857555" d="M124.788,340.481c2.806,1.575,0.387,3.266,0.11,4.907
	c-6.073-5.491-16.49-1.664-21.278-9.918c2.191-2.014,5.283-1.336,7.731-2.598C117.781,331.968,122.334,334.372,124.788,340.481z"/>
<path fill-rule="evenodd" clip-rule="evenodd" fill="#CC8136" d="M48.886,286.085c0.923-0.984,1.846-1.971,2.77-2.958
	c2.24-2.188,4.763-2.314,7.486-1.021c1.125,0.91,1.745,2.085,1.869,3.528c-0.004,4.655,1.667,10.749-6.907,8.067
	C50.82,292.222,48.812,289.866,48.886,286.085z"/>
<path fill-rule="evenodd" clip-rule="evenodd" fill="#9C561D" d="M174.355,345.379c-0.32-1.688-4.432-4.148-1.831-4.275
	c6.745-0.332,14.842-3.812,19.974,4.271C186.451,345.376,180.403,345.376,174.355,345.379z"/>
<path fill-rule="evenodd" clip-rule="evenodd" fill="#C78B4F" d="M33.311,178.68c-0.7,10.65-4.96,7.97-9.927,2.652
	c-2.065-5.706,3.216-10.099,2.774-15.517C34.042,167.046,28.243,175.883,33.311,178.68z"/>
<path fill-rule="evenodd" clip-rule="evenodd" fill="#B18654" d="M54.104,293.701c7.027-0.847,4.984-6.334,5.402-10.561
	c1.734-1.38,3.459-1.568,5.172,0.033c-0.904,6.162-1.807,12.327-2.709,18.489C56.408,301.913,56.606,296.475,54.104,293.701z"/>
<path fill-rule="evenodd" clip-rule="evenodd" fill="#BF7F46" d="M33.311,178.68c-3.614,1.66-5.348,0.836-5.211-3.47
	c0.102-3.215,0.894-6.726-1.941-9.396c0.85-1.805,1.699-3.61,2.549-5.416c5.265-0.079,3.587,6.055,6.907,7.715
	c0.093,1.767,0.186,3.531,0.279,5.295C33.869,174.598,33.448,176.569,33.311,178.68z"/>
<path fill-rule="evenodd" clip-rule="evenodd" fill="#BD6810" d="M35.614,168.114c-8.993,3.419-2.039-7.44-6.907-7.713
	c0.854-1.703,1.708-3.404,2.563-5.107C41.477,156.6,34.107,163.861,35.614,168.114z"/>
<path fill-rule="evenodd" clip-rule="evenodd" fill="#E1DBA0" d="M302.113,259.727c-0.829-0.907-1.659-1.814-2.487-2.725
	c-1.589-2.606-2.051-5.196,0.107-7.754c4.004-3.506,2.771-10.104,7.707-13.059C308.492,244.677,303.433,251.777,302.113,259.727z"/>
<path fill-rule="evenodd" clip-rule="evenodd" fill="#E4AF7D" d="M48.943,123.764c3.637,4.484,8.702,2.124,13.146,2.743
	c0.696,0.826,0.987,1.777,0.882,2.855c-0.426,1.54-1.186,2.907-2.175,4.156c-1.135,1.216-2.517,1.858-4.201,1.792
	c-2.579-0.484-5.103-1.18-7.572-2.096c-2.005-0.864-3.515-2.297-4.675-4.123C44.762,126.352,46.748,124.967,48.943,123.764z"/>
<path fill-rule="evenodd" clip-rule="evenodd" fill="#B48746" d="M210.979,343.255c-3.475-0.196-5.266-1.971-5.17-5.512
	c5.17-3.713,10.34-5.459,15.519-0.016c0.702,0.074,1.406,0.112,2.112,0.12C220.633,342.75,215.73,342.832,210.979,343.255z"/>
<path fill-rule="evenodd" clip-rule="evenodd" fill="#ECDAB2" d="M158.647,63.769c-7.928-0.074-15.855-0.148-23.784-0.225
	c6.596-4.023,14.234-3.289,21.406-4.688c1.076,0.925,2.54,1.343,3.386,2.575C159.873,62.448,159.563,63.238,158.647,63.769z"/>
<path fill-rule="evenodd" clip-rule="evenodd" fill="#B87538" d="M111.75,335.222c-2.71,0.084-5.42,0.165-8.129,0.249
	c-0.883-0.856-1.767-1.713-2.652-2.569c2.879-0.339,6.116,0.339,7.997-2.82c-0.746-2.526,0.826-3.533,2.802-4.286
	c3.676-0.565,6.467,0.729,8.323,3.973C120.403,336.305,113.914,332.46,111.75,335.222z"/>
<path fill-rule="evenodd" clip-rule="evenodd" fill="#D6B779" d="M44.349,129.092c2.018,0.089,3.755,0.678,4.714,2.651
	c1.527,1.719,1.514,3.439,0.011,5.163c-3.271,2.058-6.564,2.81-9.912,0.163C40.892,134.411,42.621,131.751,44.349,129.092z"/>
<path fill-rule="evenodd" clip-rule="evenodd" fill="#A56328" d="M85.671,321.846c-0.171-3.755,0.083-7.223,5.067-7.488
	c2.817-2.409,6.022-3.123,9.605-2.21c2.022,0.688,3.617,1.815,4.05,4.082c-0.726,1.476-1.784,1.771-3.172,0.882
	c-5.218-0.176-9.858,1.038-13.167,5.461C87.237,322.399,86.443,322.157,85.671,321.846z"/>
<path fill-rule="evenodd" clip-rule="evenodd" fill="#FAE3B6" d="M190.092,61.463c-0.047,0.795-0.074,1.591-0.079,2.389
	c-4.357,1.586-8.716,2.863-13.089,0.046c-0.84-0.061-1.681-0.11-2.523-0.14c-0.313-0.454-0.625-0.91-0.938-1.364
	c0.395-0.387,0.789-0.772,1.185-1.157C179.84,58.287,184.957,60.484,190.092,61.463z"/>
<path fill-rule="evenodd" clip-rule="evenodd" fill="#DFC48C" d="M158.646,61.354c-0.793-0.834-1.586-1.667-2.377-2.499
	c6.155,0.568,12.791-2.591,18.378,2.381c0.001,0-0.525-0.133-0.525-0.133C168.997,63.371,163.832,63.026,158.646,61.354z"/>
<path fill-rule="evenodd" clip-rule="evenodd" fill="#C6A871" d="M129.978,69.449c-2.68-0.981-5.358-1.963-8.038-2.942
	c3.219-6.265,6.967,1.802,10.336-0.38C135.508,70,130.958,68.49,129.978,69.449z"/>
<path fill-rule="evenodd" clip-rule="evenodd" fill="#ACB59D" d="M310.033,199.709c0.763-0.798,1.523-1.596,2.285-2.392
	c0.006,5.051,0.015,10.102,0.021,15.152C308.409,208.788,311.051,203.918,310.033,199.709z"/>
<path fill-rule="evenodd" clip-rule="evenodd" fill="#FAE99F" d="M231.871,76.759c-4.461,4.454-6.911,3.09-7.829-2.708
	C226.803,74.52,230.034,73.625,231.871,76.759z"/>
<path fill-rule="evenodd" clip-rule="evenodd" fill="#F2F1C1" d="M299.367,152.75c-1.645-1.785-3.289-3.569-4.934-5.354
	c0.088-2.685,0.177-5.367,0.267-8.052C298.34,143.087,300.206,147.447,299.367,152.75z"/>
<path fill-rule="evenodd" clip-rule="evenodd" fill="#FDCB81" d="M299.733,249.248c-0.036,2.585-0.07,5.171-0.107,7.756
	c-4.438-2.496-3.582-10.272-10.382-10.415c-5.379-4.133-7.887-9.393-6.401-16.233c4.441-6.733,2.486-14.324,2.838-21.613
	c0.297-5.01-0.727-10.346,3.569-14.349c4.607,0.492,5.481,3.692,5.154,7.468C293.001,218.022,296.215,233.649,299.733,249.248z"/>
<path fill-rule="evenodd" clip-rule="evenodd" fill="#FED090" d="M289.25,194.393c-0.008,5.214-0.014,10.425-0.021,15.639
	c-1.546,1.515-3.249,1.415-5.034,0.503c-3.771-2.846-2.408-9.564-8.239-10.875c-3.835-2.081-8.18-4.141-7.562-9.329
	c0.435-3.646,4.228-3.694,7.146-4.304c2.737-0.281,5.469-0.237,8.193,0.194c2.085,0.39,3.82,1.476,5.437,2.787
	C289.198,190.803,289.224,192.598,289.25,194.393z"/>
<path fill-rule="evenodd" clip-rule="evenodd" fill="#F7D18D" d="M299.682,178.708c7.42,1.497,7.45,7.358,7.726,13.077
	C294.755,193.378,301.613,183.447,299.682,178.708z"/>
<path fill-rule="evenodd" clip-rule="evenodd" fill="#ECA76B" d="M289.171,189.008c-1.717,0.013-3.436,0.025-5.152,0.038
	c-1.982-2.182-3.019-4.742-3.097-7.689c-0.051-2.843,0.43-5.545,2.176-7.886c3.617-2.325,6.168-1.183,7.952,2.453
	c1.269,3.855-0.126,7.253-1.867,10.588C289.167,187.346,289.163,188.177,289.171,189.008z"/>
<path fill-rule="evenodd" clip-rule="evenodd" fill="#EEBD69" d="M289.183,186.512c-2.944-2.619,0.917-5.188,0.056-7.794
	c3.492-1.721,1.53-8.867,7.792-7.835c0.015,2.608,0.028,5.219,0.041,7.828C295.172,182.05,294.4,186.53,289.183,186.512z"/>
<path fill-rule="evenodd" clip-rule="evenodd" fill="#D09D6A" d="M54.254,178.726c-2.746-3.776-6.428-3.834-10.429-2.628
	c-4.397-5.362-0.183-8.784,2.789-12.496c0.825-0.854,1.772-1.56,2.78-2.175c3.153-1.415,6.192-2.975,7.682-6.42
	c1.719-2.927,4.142-4.459,7.64-3.873c4.32,1.364,8.403,3.113,11.16,6.983c1.892,8.1-4.528,9.332-9.613,11.675
	c-1.61,0.579-3.283,0.986-4.925,1.42c-3.709,0.579-4.244,4.046-5.863,6.527C55.073,178.073,54.664,178.399,54.254,178.726z"/>
<path fill-rule="evenodd" clip-rule="evenodd" fill="#CC965F" d="M41.207,204.795c-8.766-9.382,5.886-9.597,6.572-15.889
	c0.315-2.891,6.391-5.242,6.476-10.181l0.005-0.025c1.431-1.476,3.143-1.663,5.023-1.106c2.726,1.524,4.819,3.689,6.425,6.349
	c0.862,8.977-10.702,10.721-11.063,19.01c-2.895,2.688-6.224,4.194-10.264,3.771C43.137,206.392,42.07,205.762,41.207,204.795z"/>
<path fill-rule="evenodd" clip-rule="evenodd" fill="#CFA573" d="M49.031,163.038c-0.182,4.972-6.953,7.317-5.206,13.059
	c-4.339,4.255-6.822,3.029-7.795-2.644c3.757-6.42,5.265-13.409,5.241-20.779c0.849-0.023,1.698-0.031,2.546-0.023
	C47.044,155.366,47.647,159.397,49.031,163.038z"/>
<path fill-rule="evenodd" clip-rule="evenodd" fill="#CC884D" d="M41.207,204.795c0.876,0.015,1.75,0.031,2.625,0.046
	c1.336,2.083,6.295,0.434,5.197,5.033c-2.085,2.79-5.719,2.759-8.321,4.603c-1.665,1.3-2.946,3.034-4.741,4.188
	c-1.144,0.337-2.036,0-2.678-0.999c0.015-2.547,0.029-5.094,0.044-7.644C35.957,208.281,38.582,206.537,41.207,204.795z"/>
<path fill-rule="evenodd" clip-rule="evenodd" fill="#FCD290" d="M226.567,95.167c2.006,9.375,12.07,12.694,15.684,20.861
	c0.87,0.005,1.739,0.01,2.609,0.015c0.044,2.178,0.526,4.133,2.654,5.255c1.499,1.55,1.738,3.417,1.383,5.436
	c-1.808,3.853-2.372,7.748-1.807,12.113c0.592,4.571,0.653,9.678-6.317,9.727c-4.104-3.819-7.712-8.136-11.675-12.128
	c-2.879-4.903-1.599-10.92-9.267-14.76c-7.104-3.557-10.907-13.661-15.042-21.578c-1.224-2.343-0.53-5.022,2.104-6.646
	c4.311-1.92,8.255-1.356,11.845,1.68c1.736,0,3.474,0,5.211,0C224.83,94.251,225.703,94.216,226.567,95.167z"/>
<path fill-rule="evenodd" clip-rule="evenodd" fill="#F9BB6C" d="M247.437,126.492c0.025-1.731,0.051-3.462,0.078-5.194
	c6.719-2.646,12.938-9.326,20.822-2.585c-0.404,0.428-0.809,0.854-1.21,1.29c-3.633,1.815-8.103,2.445-9.776,6.986
	c-4.346,7.233-3.093,14.808,1.172,20.884c6.017,8.569,9.114,18.656,15.382,26.973c3.637,4.829,4.656,9.25-1.948,12.493
	c-16.584-6.649-22.111-21.555-25.134-36.832C245.353,143.072,242.664,134.327,247.437,126.492z"/>
<path fill-rule="evenodd" clip-rule="evenodd" fill="#EBA34A" d="M273.492,121.295c-0.001,0.872-0.001,1.741-0.001,2.611
	c-6.736,8.536,4.726,13.725,3.903,21.188c-0.146,1.32-0.746,2.394-1.735,3.266c-1.931,0.829-3.838,0.739-5.745-0.089
	c-6.297-4.072-8.545-10.341-10.07-17.322c-1.622-7.432,0.77-11.371,8.396-11.993l0.097-0.242
	C270.056,119.574,271.773,120.436,273.492,121.295z"/>
<path fill-rule="evenodd" clip-rule="evenodd" fill="#E2AE69" d="M252.721,306.646c-1.136-2.104-3.09-2.578-5.255-2.632
	c-9.293-7.103-18.425-14.397-26.758-22.638c-0.072-2.553,8.096-1.981,2.503-6.675c0.274-2.007,1.509-3.182,3.205-3.988
	c1.668-0.654,3.411-0.95,5.185-1.061c4.325-0.385,8.837,0.671,12.909-1.675c2.799-1.706,4.948-4.059,6.754-6.77
	c0.964-1.486,2.054-2.848,3.427-3.987c1.88-1.084,3.511-1.005,4.733,1.01c3.463,9.293-3.48,12.891-9.345,17.077
	c4.868,9.563,9.738,19.125,14.646,28.763C260.722,304.93,256.721,305.788,252.721,306.646z"/>
<path fill-rule="evenodd" clip-rule="evenodd" fill="#ECB870" d="M250.079,275.308c1.829-6.363,10.562-9.706,7.9-18.038
	c-1.439-9.212,1.365-18.026,2.525-26.998c4.188-1.561,6.315,0.611,7.665,4.207c1.903,10.976-2.581,23.257,6.678,32.755
	c0.492,2.037,0.189,3.891-1.282,5.466c0.003,1.744,0.009,3.488,0.013,5.232c1.668,3.276,2.559,6.743,2.598,10.425
	c-7.022,5.229-8.775-2.569-11.229-5.469C260.799,277.982,256.5,275.002,250.079,275.308z"/>
<path fill-rule="evenodd" clip-rule="evenodd" fill="#EEBD65" d="M276.176,288.356c-3.822-2.738-2.238-6.822-2.598-10.425
	c2.766,3.322,7.318,5.32,7.716,10.399C279.587,288.339,277.882,288.349,276.176,288.356z"/>
<path fill-rule="evenodd" clip-rule="evenodd" fill="#BD7D44" d="M64.679,283.174c-1.725-0.011-3.449-0.023-5.172-0.033
	l-0.033,0.007c-1.331-1.445-2.313-3.072-2.646-5.043c-0.367-2.569-0.047-5.076,0.699-7.542c1.269-3.495,3.234-6.57,5.735-9.309
	c3.404-2.648,3.66-7.269,6.407-10.346c1.021-0.712,2.13-1.219,3.323-1.565c3.128-0.635,6.169-0.505,9.046,1.027
	c2.71,7.689-3.399,14.296-2.689,21.761c-0.902,1.714-2.264,2.822-4.195,3.175c-1.592-2.282-3.185-4.562-5.288-7.575
	C66.31,272.797,64.587,277.648,64.679,283.174z"/>
<path fill-rule="evenodd" clip-rule="evenodd" fill="#B66B35" d="M75.155,275.306c0.867-0.875,1.735-1.749,2.603-2.624
	c0.934,0.719,1.641,1.614,2.139,2.677c1.397,4.284,2.319,8.804,5.966,11.974c5.708,6.188,15.298,3.386,21.168,9.16
	c-0.104,3.338-2.585,4.23-5.149,5.059c-10.911,3.026-20.012,1.897-24.128-10.575C74.639,286.126,75.095,280.683,75.155,275.306z"/>
<path fill-rule="evenodd" clip-rule="evenodd" fill="#BA733D" d="M77.754,290.976c6.248,7.396,13.78,10.935,23.525,7.842
	c2.148,1.681,4.847,3.197,1.878,6.39c-3.728,2.254-7.776,2.287-11.909,1.714c-3.333-0.321-6.683-0.566-9.922-1.52
	c-1.415,0.106-2.604-0.362-3.568-1.402C77.757,299.656,77.755,295.317,77.754,290.976z"/>
<path fill-rule="evenodd" clip-rule="evenodd" fill="#AE7844" d="M77.758,303.999c0.876,0.007,1.75,0.013,2.625,0.021
	c0.895,0.573,1.193,1.146,0.899,1.726c-0.294,0.576-0.59,0.867-0.89,0.867c-1.144,2.113-3.106,2.572-5.277,2.613
	C73.779,306.362,73.202,303.881,77.758,303.999z"/>
<path fill-rule="evenodd" clip-rule="evenodd" fill="#A7561F" d="M161.303,330.089c-1.762,0.025-3.525,0.054-5.288,0.079
	c-8.37,1.356-11.88-3.148-12.901-10.683c0.182-3.878,1.786-6.963,5.09-9.1c3.964-1.94,8.235-1.961,12.51-1.977
	c4.178,0.052,8.383-0.063,12.402,1.431c2.019,0.936,3.349,2.445,3.827,4.65c0.028,0.852,0.065,1.703,0.107,2.555
	C170.337,319.625,164.954,323.812,161.303,330.089z"/>
<path fill-rule="evenodd" clip-rule="evenodd" fill="#9F541F" d="M161.303,330.089c0.833-9.681,4.86-15.499,15.746-13.044
	c4.99,2.813,7.343,7.392,3.381,11.685C175.06,334.551,167.995,333.812,161.303,330.089z"/>
<path fill-rule="evenodd" clip-rule="evenodd" fill="#D59246" d="M145.415,319.886c0.461,6.596,6.224,7.725,10.6,10.282
	c3.039,6.45-2.028,4.816-5.127,5.143c-4.24-2.789-10.683-1.887-13.063-7.794c-0.982-1.119-1.55-2.42-1.708-3.901
	C137.377,317.787,140.476,316.543,145.415,319.886z"/>
<path fill-rule="evenodd" clip-rule="evenodd" fill="#C07D42" d="M176.943,314.49c-0.888-0.847-1.774-1.692-2.662-2.539
	c2.086-8.753,8.271-3.807,12.965-3.896c1.748,0.783,3.092,2.018,4.064,3.664c1.021,2.363,1.158,4.763,0.251,7.197
	c-0.821,1.806-2.605,2.438-4.14,3.379c-0.856,0-1.713-0.003-2.568-0.013C184.508,317.358,181.971,314.661,176.943,314.49z"/>
<path fill-rule="evenodd" clip-rule="evenodd" fill="#FCD38D" d="M176.924,63.898c4.362-0.015,8.727-0.031,13.089-0.046
	c-1.891,1.354-3.78,2.71-5.67,4.064c1.885,0.38,3.771,0.757,5.656,1.137c2.38,3.177,6.306,2.246,9.409,3.516
	c4.433,2.858,9.931,3.546,14.116,6.907c6.981,0.877,4.738,6.349,5.212,10.466c-3.771,5.416-12.057-0.862-15.297,5.92
	c0.226,6.649-2.987,7.208-7.592,3.927c-3.068-2.185-4.507-5.925-6.807-8.868c-0.952-1.499-1.692-3.113-2.421-4.719
	c-3.332-5.696-9.749-2.438-14.204-4.865c-2.941-1.306-5.147-3.373-6.521-6.303c-0.914-3.062,1.168-4.513,3.225-5.979
	C171.722,67.338,174.322,65.617,176.924,63.898z"/>
<path fill-rule="evenodd" clip-rule="evenodd" fill="#F0CF8B" d="M169.12,69.056c-0.872,1.736-1.743,3.473-2.615,5.209
	c-5.152,4.995-11.626,3.146-17.695,3.437c-3.177-0.229-6.225-0.783-8.396-3.455C148.472,64.156,159.617,71.155,169.12,69.056z"/>
<path fill-rule="evenodd" clip-rule="evenodd" fill="#E4BD93" d="M114.304,79.474c1.725,0.01,3.451,0.021,5.176,0.031
	c3.594,4.523,10.431,0.668,13.95,5.402c1.011,3.098-0.127,5.295-2.843,6.851c-3.339,1.466-6.841,1.581-10.398,1.3
	c-2.155-0.232-4.165-0.875-5.965-2.114c-1.554-1.596-2.229-3.557-2.339-5.744c0.075-2.19,0.996-4.026,2.409-5.653L114.304,79.474z"
	/>
<path fill-rule="evenodd" clip-rule="evenodd" fill="#ECC277" d="M132.562,84.754c-4.607-1.137-11.348,3.047-13.081-5.25
	c6.106-0.008,12.214-0.013,18.321-0.021c0.347,0.461,0.693,0.923,1.042,1.384c0.377,1.851-0.143,3.389-1.603,4.6
	C135.53,86.233,133.935,86.22,132.562,84.754z"/>
<path fill-rule="evenodd" clip-rule="evenodd" fill="#E1CB92" d="M140.414,74.247c2.619,0.008,5.237,0.016,7.857,0.023
	c1.658,2.05,1.472,4.066-0.108,6.063c-3.66,2.331-7.084,1.811-10.33-0.856l-0.029,0.008
	C137.849,77.327,138.323,75.384,140.414,74.247z"/>
<path fill-rule="evenodd" clip-rule="evenodd" fill="#F2D8A1" d="M158.646,61.354c5.159-0.084,10.32-0.166,15.476-0.25
	c0.092,0.885,0.185,1.77,0.278,2.654c-5.251,0.002-10.502,0.007-15.753,0.01C158.669,62.963,158.669,62.157,158.646,61.354z"/>
<path fill-rule="evenodd" clip-rule="evenodd" fill="#CE8E53" d="M221.345,309.246c-4.347,0.008-8.694,0.013-13.041,0.018
	c-1.18,0.739-2.329,0.698-3.457-0.115c-11.817-16.889-21.158-35.5-38.242-48.557c-10.68-8.164-16.886-20.79-25.187-31.346
	c-2.208-2.805-3.659-5.991-1.218-9.533c2.107-1.654,4.567-2.096,7.154-2.098c11.996,2.488,17.798,12.391,25.072,20.697
	c6.65,7.593,11.06,17.192,20.088,22.672c0.95,0.78,1.715,1.713,2.358,2.751c4.112,9.087,10.013,17.087,16.91,24.061
	C217.887,293.966,220.872,300.886,221.345,309.246z"/>
<path fill-rule="evenodd" clip-rule="evenodd" fill="#D6995C" d="M221.345,309.246c-5.957-17.126-22.921-27.139-28.697-44.384
	c3.667,1.855,4.932-5.076,8.835-2.41c4.609,6.247,10.653,11.186,15.54,17.164c0.703,0.956,1.248,2.005,1.664,3.113
	c4.67,5.91,3.508,15.964,13.083,18.388c8.535,2.279,4.707,7.063,2.335,11.563c-1.752,0.75-3.387,0.76-4.788-0.739
	C226.425,311.736,223.266,312.323,221.345,309.246z"/>
<path fill-rule="evenodd" clip-rule="evenodd" fill="#B36821" d="M229.316,311.94c1.687-0.14,3.373-0.28,5.059-0.421
	c2.632-2.026,5.266-1.808,7.899-0.002c4.896,3.623,1.631,7.221-0.034,10.825c-0.937,0.793-1.875,1.589-2.813,2.382
	c-7,3.979-10.829-1.719-15.434-5.056C223.439,315.49,227.609,314.562,229.316,311.94z"/>
<path fill-rule="evenodd" clip-rule="evenodd" fill="#DCAC61" d="M221.327,337.728c-5.175,0.008-10.348,0.013-15.52,0.018
	c-0.88-2.542-1.761-5.078-2.642-7.618c-0.252-2.241,0.475-4.166,1.887-5.877c1.703-1.438,3.657-2.101,5.894-1.868
	C214.406,327.496,217.866,332.613,221.327,337.728z"/>
<path fill-rule="evenodd" clip-rule="evenodd" fill="#C48C44" d="M210.946,322.382c-1.132,2.088-3.125,2.45-5.221,2.607
	c-2.271-1.157-3.496-3.248-4.775-5.303c-1.308-3.751-6.158-6.825-2.287-11.599c2.588-1.124,4.948-0.856,7.021,1.152
	c0.874,0.008,1.747,0.016,2.62,0.023C212.185,313.032,219.578,316.092,210.946,322.382z"/>
<path fill-rule="evenodd" clip-rule="evenodd" fill="#C07C3C" d="M223.994,319.669c6.277-1.762,9.104,6.993,15.436,5.058
	C232.097,329.717,226.454,329.551,223.994,319.669z"/>
<path fill-rule="evenodd" clip-rule="evenodd" fill="#BD6429" d="M38.464,246.729c-1.688-0.937-3.375-1.869-5.063-2.805
	c-0.019-2.591-0.04-5.181-0.06-7.771c1.596-1.861,3.045-3.878,5.285-5.081c4.604-2.629,8.583-2.116,11.773,2.355
	c1.22,2.445,1.468,5.008,0.935,7.659c-0.352,1.239-0.958,2.358-1.784,3.348C45.773,244.756,41.92,244.786,38.464,246.729z"/>
<path fill-rule="evenodd" clip-rule="evenodd" fill="#BC621C" d="M38.606,233.515c-1.134,2.116-3.099,2.575-5.264,2.639
	c-3.396-6.152-3.295-12.313-0.052-18.484c0.831,0.022,1.661,0,2.49-0.072c3.018,2.012,3.878,5.228,4.733,8.452
	C40.939,228.806,40.318,231.302,38.606,233.515z"/>
<path fill-rule="evenodd" clip-rule="evenodd" fill="#A16630" d="M137.743,324.88c0.026,0.88,0.053,1.757,0.082,2.637
	c-8.037,0.611-10.011,7.317-13.037,12.967c-4.163-2.208-7.647-6.104-13.04-5.26c2.597-1.698,5.194-3.394,7.789-5.089
	c1.122-4.046,4.95-5.67,7.542-8.394C132.616,315.918,135.675,318.778,137.743,324.88z"/>
<path fill-rule="evenodd" clip-rule="evenodd" fill="#E1B77F" d="M119.516,89.968c3.48-0.005,6.96-0.008,10.442-0.013
	c1.52,1.351,1.943,3.072,1.692,5.02c-6.261,7.713-14.087,12.769-24.078,14.138c-9.594,7.496-22.359,5.418-32.645,10.877
	c-4.512,1.649-8.941,2.547-12.862-1.339c-0.852-0.877-1.703-1.756-2.555-2.636c1.439-1.499,2.821-4.232,4.327-4.301
	c12.361-0.576,15.318-10.17,19.07-19.104c5.72,1.897,10.069-4.268,15.738-2.68l0.011,0.02c2.426,3.542,5.811,0.834,8.708,1.308
	C111.486,91.455,115.871,94.274,119.516,89.968z"/>
<path fill-rule="evenodd" clip-rule="evenodd" fill="#F8C177" d="M98.645,89.93c-4.971,2.509-9.265,8.992-15.738,2.68
	c0.062-0.821,0.181-1.634,0.361-2.435c4.71,0.416,7.908-2.83,11.769-4.594C99.711,83.444,100.179,86.177,98.645,89.93z"/>
<path fill-rule="evenodd" clip-rule="evenodd" fill="#DAA560" d="M242.274,311.518c-2.632,0.002-5.266,0.005-7.898,0.005
	c-4.633-1.211,5.344-7.43-2.576-7.509c-4.295-7.656-10.256-14.061-15.67-20.876c-0.007-0.836-0.015-1.675-0.023-2.512
	c1.731-1.458,3.472-1.458,5.218-0.03c10.388,5.938,20.669,11.993,26.142,23.418C244.155,305.421,242.304,307.838,242.274,311.518z"
	/>
<path fill-rule="evenodd" clip-rule="evenodd" fill="#F5C27C" d="M273.56,267.455c-14.198-7.547-6.183-20.64-7.818-31.319
	c2.75-1.866,3.352-7.173,8.453-5.278c2.633,3.427,3.717,7.817,6.84,10.959c3.194,6.488,8.634,12.658,2.967,20.422
	c-1.732,0.877-3.466,1.757-5.199,2.634C276.243,264.084,275.253,266.483,273.56,267.455z"/>
<path fill-rule="evenodd" clip-rule="evenodd" fill="#F7CC74" d="M284.001,262.238c1.646-7.81-4.27-13.725-5.226-20.881
	c-3.531-6.655-4.201-13.457-1.084-20.466c1.962-1.953,4.188-2.073,6.594-0.946c2.893,3.718,2.415,7.36-0.249,10.953
	c1.735,5.229,3.472,10.461,5.208,15.69c0.004,6.953,0.008,13.905,0.013,20.858C285.838,267.394,284.107,265.635,284.001,262.238z"/>
<path fill-rule="evenodd" clip-rule="evenodd" fill="#EBC381" d="M273.56,267.455c0.784-3.042-1.899-7.976,2.709-8.725
	c3.21-0.521,2.091,3.821,2.533,6.142c0.001,0.875,0.003,1.747,0.003,2.621c1.482,1.736,1.481,3.47-0.015,5.201
	c-1.741,0-3.483,0.003-5.225,0.005C273.563,270.95,273.562,269.201,273.56,267.455z"/>
<path fill-rule="evenodd" clip-rule="evenodd" fill="#EDC572" d="M278.79,272.694c0.006-1.733,0.01-3.468,0.015-5.201
	c2.715,2.322,5.431,4.646,8.272,7.075C283.395,276.947,279.878,279.808,278.79,272.694z"/>
<path fill-rule="evenodd" clip-rule="evenodd" fill="#FAD89A" d="M213.524,79.477c-5.876,0.232-11.825,0.683-15.66-5.211
	c-1.552-1.736-1.552-3.475-0.016-5.216c6.03-0.678,11.485,0.362,15.664,5.229C213.517,76.009,213.521,77.743,213.524,79.477z"/>
<path fill-rule="evenodd" clip-rule="evenodd" fill="#FDCEA3" d="M200.464,95.154c3.87-9.523,12.176-3.498,18.272-5.211
	c0,1.734,0,3.465,0.002,5.199c-4.354,0.018-8.707,0.038-13.061,0.056C203.927,96.725,202.189,96.636,200.464,95.154z"/>
<path fill-rule="evenodd" clip-rule="evenodd" fill="#FEDBAB" d="M234.402,87.36c-0.869,0.862-1.738,1.724-2.607,2.585
	c-2.615,2.116-5.226,2.121-7.831-0.015C225.835,82.536,229.813,83.707,234.402,87.36z"/>
<path fill-rule="evenodd" clip-rule="evenodd" fill="#F6E18E" d="M223.964,89.93c2.609,0.005,5.22,0.01,7.831,0.015
	c-0.082,3.404-1.843,5.125-5.228,5.219c-0.873-0.005-1.745-0.013-2.618-0.023C223.954,93.405,223.958,91.667,223.964,89.93z"/>
<path fill-rule="evenodd" clip-rule="evenodd" fill="#C17E4F" d="M203.07,319.687c2.131,1.145,2.567,3.136,2.655,5.303
	c-0.121,2.078-0.58,3.988-2.561,5.138c-6.926,0.765-11.504-3.192-15.743-7.832c0.87-0.875,1.74-1.752,2.61-2.629
	C194.384,316.214,198.729,316.236,203.07,319.687z"/>
<path fill-rule="evenodd" clip-rule="evenodd" fill="#E19A42" d="M276.184,144.77c-2.771-4.576-5.746-9.046-8.264-13.76
	c-3.307-6.19,0.446-7.289,5.571-7.103c3.317,2.973,9.246,3.773,8.441,10.166C282.241,138.834,285.21,145.027,276.184,144.77z"/>
<path fill-rule="evenodd" clip-rule="evenodd" fill="#E9A35A" d="M297.03,170.883c-3.374,1.838-2.097,8.304-7.792,7.835
	c-0.085-3.391-1.809-5.15-5.216-5.227c-3.13-3.995,0.79-7.047,1.383-10.553c0.855-5.138-0.117-10.454,1.545-15.507
	c0.513-1.288,1.353-2.308,2.505-3.067c0.855,0.992,1.71,1.986,2.566,2.98C293.693,155.19,295.361,163.035,297.03,170.883z"/>
<path fill-rule="evenodd" clip-rule="evenodd" fill="#E79A4B" d="M289.455,144.364c-0.081,1.007-0.163,2.017-0.244,3.024
	c-4.849,4.217-0.607,11.111-4.588,15.591c-5.714,1.586-5.721-3.852-8.021-6.489c-1.494-2.97-3.122-5.94-0.432-9.104
	c0.004-0.872,0.008-1.744,0.013-2.616c6.466-1.119,2.74-7.712,5.747-10.695C286.168,136.241,286.941,140.938,289.455,144.364z"/>
<path fill-rule="evenodd" clip-rule="evenodd" fill="#E3C385" d="M106.459,92.556c-3.363,1.413-7.194,4.232-7.803-2.606
	c3.775-0.048,6.396-1.805,7.845-5.295c2.611-2.068,5.213-2.068,7.806,0.033c0.008,1.741,0.014,3.483,0.021,5.224
	C112.359,92.745,109.325,92.4,106.459,92.556z"/>
<path fill-rule="evenodd" clip-rule="evenodd" fill="#E3C2A6" d="M114.307,84.688c-2.602-0.01-5.204-0.021-7.807-0.033
	c0.044-2.142,0.492-4.084,2.584-5.211c1.736,0.033,3.474,0.069,5.21,0.104C114.298,81.261,114.303,82.975,114.307,84.688z"/>
<path fill-rule="evenodd" clip-rule="evenodd" fill="#AA571A" d="M101.222,317.111c0.868-0.051,1.738-0.1,2.607-0.15
	c0.935-0.768,1.962-0.967,3.105-0.522c0.961,0.632,1.828,1.374,2.615,2.213c1.91,2.649,5.353,4.941,2.173,8.84
	c-0.918,0.864-1.837,1.726-2.756,2.59C105.587,326.231,100.314,323.516,101.222,317.111z"/>
<path fill-rule="evenodd" clip-rule="evenodd" fill="#FECEA5" d="M197.849,69.049c0.006,1.739,0.011,3.478,0.015,5.216
	c-3.813,0.059-7.62,0.112-7.864-5.211C192.616,69.051,195.233,69.049,197.849,69.049z"/>
<path fill-rule="evenodd" clip-rule="evenodd" fill="#BF7A42" d="M41.262,259.59c-0.886-2.591-1.771-5.182-2.657-7.771
	c2.551-2.471,5.587-2.901,8.907-2.154c5.107,3.562,11.261,2.832,16.947,4.062c2.699,4.576-1.688,6.509-3.5,9.413
	c-1.95,1.659-3.945,3.164-6.694,1.73c-1.119-2.113-3.072-2.569-5.227-2.626C46.923,259.962,43.824,260.561,41.262,259.59z"/>
<path fill-rule="evenodd" clip-rule="evenodd" fill="#B78756" d="M59.499,270.163c-0.01,2.574-0.022,5.152-0.032,7.728
	c-3.463,2.911-6.938,2.302-10.42,0.035c-3.858-6.343,4.481-4.581,5.228-7.867C56.048,268.516,57.786,268.709,59.499,270.163z"/>
<path fill-rule="evenodd" clip-rule="evenodd" fill="#CA9664" d="M59.499,270.163c-1.742-0.036-3.483-0.069-5.224-0.103
	c-0.003-1.731-0.006-3.462-0.01-5.191c1.732-0.902,3.465-1.802,5.196-2.705c1.776-1.343,3.534-1.596,5.264,0.082
	C62.983,264.885,61.24,267.523,59.499,270.163z"/>
<path fill-rule="evenodd" clip-rule="evenodd" fill="#C08248" d="M49.047,277.926c3.473-0.01,6.946-0.022,10.42-0.035
	c0.003,1.752,0.004,3.503,0.007,5.257c-2.606-0.007-5.211-0.013-7.817-0.021C50.786,281.394,49.916,279.66,49.047,277.926z"/>
<path fill-rule="evenodd" clip-rule="evenodd" fill="#BE874E" d="M41.262,259.59c3.38-1.426,7.186-4.101,7.776,2.653
	c-0.663,1.079,1.298,4.786-2.616,2.613C44.701,263.101,42.981,261.346,41.262,259.59z"/>
<path fill-rule="evenodd" clip-rule="evenodd" fill="#AA7330" d="M101.239,314.439c-3.5-0.025-7-0.054-10.5-0.079
	c0.022-1.708,0.045-3.414,0.068-5.12c0.553-0.477,1.106-0.956,1.658-1.44C97.561,307.143,103.618,305.22,101.239,314.439z"/>
<path fill-rule="evenodd" clip-rule="evenodd" fill="#AE762B" d="M80.392,306.612c-0.014-0.864-0.017-1.729-0.009-2.593
	c3.478,0.005,6.956,0.01,10.433,0.015c1.538,1.739,1.536,3.476-0.005,5.209l-0.003-0.003
	C87.011,309.651,83.624,308.44,80.392,306.612z"/>
<path fill-rule="evenodd" clip-rule="evenodd" fill="#C27238" d="M49.038,251.806c-3.478,0.005-6.955,0.008-10.433,0.013
	c-0.046-1.698-0.092-3.396-0.139-5.092c2.786-3.758,6.474-4.041,10.572-2.741c3.985,1.41,6.962,3.442,5.19,8.406
	C52.359,253.444,50.625,253.274,49.038,251.806z"/>
<path fill-rule="evenodd" clip-rule="evenodd" fill="#D08848" d="M64.62,152.482c-3.319,0.204-5.042,1.958-5.139,5.291
	c-3.11,2.328-5.447,0.882-7.599-1.54c-3.872-5.484-3.511-11.037-0.232-16.628c0.103-0.839,0.182-1.681,0.238-2.524
	c0.996-0.739,2.017-0.739,3.063-0.117c2.161,2.478,2.396,6.14,5.112,8.276c1.677,1.377,3.556,2.514,4.964,4.202
	C65.465,150.532,65.326,151.547,64.62,152.482z"/>
<path fill-rule="evenodd" clip-rule="evenodd" fill="#C9AC82" d="M49.031,163.038c-6.944-0.849-4.733-6.295-5.215-10.387
	c0.413-4.133,1.778-7.794,5.192-10.433c2.535,3.898,0.471,8.628,2.295,12.656c0.514,3.072-0.16,5.813-2.256,8.161L49.031,163.038z"
	/>
<path fill-rule="evenodd" clip-rule="evenodd" fill="#D39A60" d="M49.181,155.114c-0.058-4.299-0.113-8.598-0.171-12.896
	c0.879-0.872,1.759-1.744,2.64-2.616c-0.148,5.385-0.375,10.783,2.457,15.698C52.406,156.789,50.764,156.723,49.181,155.114z"/>
<path fill-rule="evenodd" clip-rule="evenodd" fill="#E0AE95" d="M54.457,137.376c-0.852-0.158-1.709-0.258-2.571-0.296
	c-0.936-0.056-1.874-0.115-2.811-0.173c-0.004-1.721-0.007-3.442-0.011-5.163c2.964-0.002,6.047-0.367,7.996,2.672
	c0.503,0.586,0.708,1.201,0.613,1.841c-0.098,0.652-0.22,0.979-0.367,0.981C56.385,137.875,55.436,137.95,54.457,137.376z"/>
<path fill-rule="evenodd" clip-rule="evenodd" fill="#DEAE77" d="M62.065,118.651c4.41-0.632,9.418,1.752,13.086-2.605
	c7.458,1.265,5.065,6.881,5.09,11.445c-0.793,3.281-1.874,6.486-2.954,9.688c-1.369,2.991-2.092,7.348-5.856,7.442
	c-4.124,0.104-4.224-4.574-5.595-7.496c-1.254-2.672-2.841-5.191-3.745-8.026c-0.001-0.864-0.001-1.729-0.001-2.593
	C61.372,123.891,57.908,121.283,62.065,118.651z"/>
<path fill-rule="evenodd" clip-rule="evenodd" fill="#D3A06A" d="M62.091,129.1c7.826,1.201,6.819,8.159,8.647,13.544
	c1.558-2.02,2.985-3.871,4.412-5.724c3.875,0.176,8.714-2.131,10.308,3.98c0.704,2.282,1.224,4.602,1.288,7.009
	c-0.945,5.599-5.827,7.088-9.879,9.454c-0.57,0.158-1.145,0.309-1.718,0.457c-4.187-0.441-7.878-1.856-10.527-5.334
	c0.004-0.841-0.014-1.68-0.054-2.517c-1.551-5.994-0.534-12.682-4.849-17.929C60.509,131.061,61.299,130.079,62.091,129.1z"/>
<path fill-rule="evenodd" clip-rule="evenodd" fill="#BD7D3C" d="M59.718,132.04c10.292,3.628,8.528,10.52,4.851,17.929
	c-2.131-0.025-4.022-0.52-5.099-2.605c-3.241-2.899-1.577-7.085-2.757-10.525c0.15-0.803,0.264-1.611,0.344-2.422
	C57.945,133.623,58.831,132.833,59.718,132.04z"/>
<path fill-rule="evenodd" clip-rule="evenodd" fill="#A86334" d="M111.723,327.491c0.407-4.014-3.613-5.082-5.178-7.784
	c5.192-3.218,10.222-6.632,13.806-11.771c4.51-2.563,9.471-2.091,14.351-2.224c4.375,0.147,8.839-0.209,12.795,2.277
	c1.334,1.058,1.591,2.34,0.771,3.834c-0.948,2.688-1.898,5.372-2.85,8.063c-3.952-0.472-7.282,0.007-7.674,4.994
	c-2.607-0.505-4.425-8.612-7.843-0.933c-2.069,4.65-7.222,3.623-10.363,6.188C116.933,329.253,114.329,328.373,111.723,327.491z"/>
<path fill-rule="evenodd" clip-rule="evenodd" fill="#AD6C39" d="M90.811,309.243c0.001-1.736,0.004-3.473,0.005-5.209
	c4.357-0.018,8.714-0.035,13.071-0.054c0.516-0.296,1.031-0.589,1.549-0.882c1.183,0.364,2.089,1.071,2.693,2.162
	c0.73,1.695,1.012,3.476,1.014,5.311c-0.138,2.476-0.532,4.854-2.69,6.494c-0.873-0.033-1.748-0.066-2.624-0.102
	c-0.863-0.842-1.728-1.684-2.59-2.524C100.383,307.451,94.898,309.751,90.811,309.243z"/>
<path fill-rule="evenodd" clip-rule="evenodd" fill="#FEC98D" d="M284.036,230.898c-0.016-3.47-0.029-6.94-0.045-10.41
	c-2.502-2.71-2.874-5.739-1.35-9.051c0.452-0.472,0.91-0.941,1.369-1.41c1.74,0.003,3.479,0.005,5.219,0.005
	C287.011,216.868,294.451,226.105,284.036,230.898z"/>
<path fill-rule="evenodd" clip-rule="evenodd" fill="#FCCA84" d="M247.437,126.492c-0.748,24.122,5.202,45.319,26.171,59.962
	c2.325-0.541,3.195,0.347,2.611,2.662c-2.03,0.464-4.062,0.931-6.092,1.397c1.178,4.434,4.421,6.114,8.648,6.479
	c3.234,3.546,2.625,7.776,2.138,11.985c-1.169,3.297-2.745,6.219-6.594,6.971c-7.319-3.924-12.861-12.151-13.88-17.944
	c-2.266-12.883-11.566-19.9-17.808-29.392c-3.269-4.969-3.584-10.609-4.764-16.101c-0.104-1.95,0.288-3.73,1.758-5.135
	c6.294-0.928,5.861-5.265,4.204-9.396C241.785,132.883,242.164,129.051,247.437,126.492z"/>
<path fill-rule="evenodd" clip-rule="evenodd" fill="#F8B461" d="M276.219,189.115c-0.87-0.887-1.741-1.774-2.611-2.662
	c-1.219-12.46-8.939-21.912-15.193-31.924c-6.193-9.913-10.389-19.583-3.102-30.657c2.705-0.768,4.659,0.92,4.483,3.019
	c-1.132,13.506,8.698,21.769,14.77,31.814c2.114,4.278,3.208,8.99,5.518,13.194c1.547,3.006,1.318,6.751,3.885,9.344
	c0.017,2.601,0.033,5.204,0.05,7.802C281.418,189.069,278.818,189.092,276.219,189.115z"/>
<path fill-rule="evenodd" clip-rule="evenodd" fill="#F6D385" d="M278.789,210.032c-0.005-4.347-0.009-8.694-0.014-13.041
	c8.413,1.667,4.093,8.449,5.235,13.036l-0.014,0.008C282.259,211.596,280.524,211.417,278.789,210.032z"/>
<path fill-rule="evenodd" clip-rule="evenodd" fill="#EBA753" d="M283.968,181.245c-3.5-1.413-5.15-4.056-5.188-7.776
	c-2.33-5.408-3.541-10.915-1.482-16.715c0.499-0.525,1.003-1.045,1.507-1.568c1.734,2.613,3.471,5.224,5.206,7.837
	c2.998-1.647,3.731,1.208,5.193,2.613c-1.555,2.733-5.639,3.796-5.184,7.855C284.003,176.077,283.985,178.659,283.968,181.245z"/>
<path fill-rule="evenodd" clip-rule="evenodd" fill="#CC9766" d="M64.704,168.259c3.146-3.816,11.036-2.886,10.444-10.44l0,0
	c4.091-5.566,11.871-1.833,16.331-6.497c2.551-0.541,4.544,0.385,6.16,2.318c2.778,6.95,10.17,6.466,15.387,9.492
	c7.54,4.342,11.883,11.812,17.6,17.947c0.278,1.242,0.101,2.407-0.586,3.488c-8.694,4.403-14.52-4.86-22.338-4.673
	c-1.197-0.373-2.153-1.089-2.922-2.068c-7.48-10.012-14.495-10.759-27.356-3.439c-4.286,2.44-7.938,8.964-14.236,3.299
	C61.633,174.203,62.241,171.079,64.704,168.259z"/>
<path fill-rule="evenodd" clip-rule="evenodd" fill="#D29559" d="M64.704,168.259c0.002,3.478,0.006,6.956,0.009,10.431
	c1.564,1.749,1.378,3.49-0.014,5.229c-3.417-0.086-5.135-1.866-5.242-5.254c-2.771-3.468-2.755-6.933,0-10.4
	C61.206,168.262,62.955,168.262,64.704,168.259z"/>
<path fill-rule="evenodd" clip-rule="evenodd" fill="#E3AB71" d="M49.181,155.114c1.643,0.061,3.287,0.122,4.928,0.186
	c1.256,1.983,3.201,2.476,5.372,2.476c-1.939,4.806-5.948,5.505-10.436,5.26C49.091,160.394,49.136,157.755,49.181,155.114z"/>
<path fill-rule="evenodd" clip-rule="evenodd" fill="#C39F77" d="M59.457,168.265c0,3.467,0,6.935,0,10.4
	c-1.732,0.013-3.465,0.023-5.198,0.036C54.747,174.603,52.481,169.131,59.457,168.265z"/>
<path fill-rule="evenodd" clip-rule="evenodd" fill="#C78C59" d="M106.487,178.692c0.867,0.002,1.735,0.005,2.602,0.008
	c6.884,3.235,15.437,4.439,17.13,14.023c-0.275,4.271,5.819,8.554,0.033,12.845c-5.066-0.219-8.108-4.688-12.58-6.042
	c-12.808-3.878-25.187-5.114-35.978,5.433c-4.263,4.167-8.951,8.128-15.527,8.253c-4.027,0.146-8.05,0.272-11.786-1.637
	c-0.493-0.464-0.981-0.938-1.471-1.41c-1.693-1.774-3.386-3.549-5.079-5.324c3.475-0.882,6.949-1.764,10.424-2.646
	c10.879-10.958,24.038-19.112,35.897-28.877C96.639,167.979,102.026,173.739,106.487,178.692z"/>
<path fill-rule="evenodd" clip-rule="evenodd" fill="#C8915F" d="M106.487,178.692c-10.301-7.906-17.901-2.501-24.77,5.255
	c-7.569,8.549-17.268,13.735-27.462,18.248c-5.601-11.282,8.999-11.02,10.443-18.276c0.005-1.741,0.009-3.485,0.014-5.229
	c7.947-3.019,13.184-10.601,22.09-12.325C98.087,164.18,105.201,168.211,106.487,178.692z"/>
<path fill-rule="evenodd" clip-rule="evenodd" fill="#B35916" d="M38.589,225.71c-3.131-1.942-2.457-5.204-2.807-8.11
	c0.183-2.06,0.592-4,2.688-5.035c4.625-2.68,8.808-0.248,13.09,1.114c3.55,2.799,7.034,5.678,9.501,9.565
	c1.721,4.253,2.111,8.784,2.793,13.264c-0.042,2.794-0.777,5.147-3.872,5.958c-2.979,0.049-4.449-1.841-5.492-4.272
	c-1.206-4.389-2.776-8.588-6.478-11.586C45.202,222.859,41.933,223.905,38.589,225.71z"/>
<path fill-rule="evenodd" clip-rule="evenodd" fill="#B26629" d="M51.503,215.323c-4.345-0.921-8.688-1.839-13.033-2.759
	c2.81-3.718,6.827-2.188,10.441-2.399c-0.001,0,0.038-0.03,0.038-0.03C50.624,211.458,53.126,212.376,51.503,215.323z"/>
<path fill-rule="evenodd" clip-rule="evenodd" fill="#F9C88B" d="M200.464,95.154c1.738,0.015,3.477,0.028,5.214,0.043
	c3.111,9.981,10.911,17.125,16.487,25.476c5.629,8.432,7.261,7.343,9.626,16.259c-1.59,2.422,0.494,6.841-3.191,7.766
	c-4.696,1.181-6.437-3.169-8.726-6.142c-4.486-5.257-6.825-11.861-10.882-17.393c-3.252-3.817-6.153-7.93-9.854-11.359
	c-3.016-3.47-6.723-5.953-10.97-7.71c-1.061-0.658-1.942-1.489-2.702-2.473c-1.248-3.34-5.586-6.305-2.304-10.214
	c1.737-2.07,4.685-1.527,6.84,0.528c5.628-0.217,4.645,5.42,7.113,7.993c1.106,1.155,2.563,2.718,4.036,0.852
	C201.651,98.147,200.733,96.396,200.464,95.154z"/>
<path fill-rule="evenodd" clip-rule="evenodd" fill="#F6C889" d="M221.353,136.93c3.479,5.076,6.958,8.029,10.438,0.002
	c7.178,0.054,8.909,4.197,7.835,10.443c0.001,1.739,0.002,3.48,0.004,5.222c1.772,6.249,0.776,10.869-6.818,11.621
	c-6.433-5.727-10.311-13.441-15.58-20.093C216.966,140.792,215.769,136.912,221.353,136.93z"/>
<path fill-rule="evenodd" clip-rule="evenodd" fill="#F5AA55" d="M273.558,160.435c-12.944-8.763-14.938-22.99-18.245-36.562
	c2.644-6.017,7.837-5.339,12.929-4.921c-9.201,3.488-5.387,10.788-4.065,16.491c0.989,4.271,4.436,7.973,6.786,11.927
	c3.656,2.299,4.969,5.701,4.664,9.875C275.256,158.512,274.548,159.565,273.558,160.435z"/>
<path fill-rule="evenodd" clip-rule="evenodd" fill="#EBA753" d="M273.565,157.809c0.407-3.796-0.835-7.182-2.604-10.438
	c1.736,0.005,3.473,0.01,5.209,0.015c0.878,2.601,1.755,5.199,2.634,7.799l-0.023,0.031
	C277.311,156.618,276.561,159.474,273.565,157.809z"/>
<path fill-rule="evenodd" clip-rule="evenodd" fill="#F2B56F" d="M226.571,272.689c-0.861,0.867-1.724,1.731-2.584,2.596
	c-10.846,1.532-15.002-6.489-19.222-13.903c-2.529-4.444-3.039-9.867-5.904-14.272c-0.771-1.902-1.163-3.884-1.252-5.934
	c0.064-3.566,0.711-6.876,4.087-8.924c1.289-0.524,2.633-0.719,4.016-0.602c1.353,0.24,2.55,0.826,3.59,1.727
	c5.329,7.718,9.83,15.966,14.74,23.959C226.857,261.917,230.384,266.822,226.571,272.689z"/>
<path fill-rule="evenodd" clip-rule="evenodd" fill="#DB8D41" d="M255.329,259.646c-0.809,0.918-1.617,1.838-2.425,2.756
	c-4.438,3.162-9.336,3.697-14.53,2.578c-12.797-10.928-22.866-23.459-23.862-41.245c1.725-3.379,4.37-5.115,8.253-4.598
	c1.226,0.426,2.271,1.15,3.124,2.127c6.875,12.781,9.811,28.415,25.229,35.077C252.808,257.08,254.121,258.297,255.329,259.646z"/>
<path fill-rule="evenodd" clip-rule="evenodd" fill="#E4A15C" d="M216.215,223.138c1.563,15.892,13.478,26.281,20.787,39.118
	c2.597,3.771,7.564,4.363,10.424,7.782c-4.54,4.815-10.404,1.822-15.621,2.646c-6.694-14.793-17.326-27.457-23.102-42.763
	C209.457,225.718,210.655,222.003,216.215,223.138z"/>
<path fill-rule="evenodd" clip-rule="evenodd" fill="#FCC685" d="M200.56,246.65c2.986,1.387,4.672,3.646,5.081,6.983
	c1.37,11.205,8.703,17.421,18.347,21.651c1.91,1.3,4.781,1.371,5.445,4.263c-2.701,0.35-5.404,0.698-8.106,1.048
	c-1.74,0.01-3.479,0.021-5.22,0.03c-6.719-4.844-14.215-9.018-15.747-18.321c-3.451-3.557-3.287-7.794-2.308-12.194
	C198.537,248.705,199.379,247.555,200.56,246.65z"/>
<path fill-rule="evenodd" clip-rule="evenodd" fill="#ECA962" d="M210.891,230.924c3.749,11.05,13.558,18.521,17.253,29.858
	c1.274,3.909,2.496,7.912,3.66,11.902c-1.744,0.002-3.488,0.005-5.232,0.005c-1.533-11.279-9.188-19.518-14.688-28.752
	c-2.03-3.409-3.878-6.402-3.587-10.4C207.607,231.125,208.528,230.31,210.891,230.924z"/>
<path fill-rule="evenodd" clip-rule="evenodd" fill="#C68035" d="M255.329,259.646c-1.744-0.011-3.488-0.023-5.232-0.033
	c-1.971-4.772,1.396-8.302,2.821-12.281c1.227-2.415,1.147-5.023,1.067-7.639c0.525-3.903,0.786-7.873,3.114-11.279
	c0.994-0.753,2.093-0.934,3.289-0.628c0.65,0.638,0.905,1.306,0.77,2.01c-0.139,0.721-0.303,1.081-0.495,1.081
	c3.705,9.265,1.328,17.908-2.684,26.391C257.096,258.06,256.212,258.853,255.329,259.646z"/>
<path fill-rule="evenodd" clip-rule="evenodd" fill="#D59051" d="M247.426,270.038c-5.6,0.255-11.206,0.518-10.424-7.782
	c5.3,0.049,10.598,0.095,15.899,0.144C252.987,266.315,249.136,267.409,247.426,270.038z"/>
<path fill-rule="evenodd" clip-rule="evenodd" fill="#F6C682" d="M260.663,230.876c-0.19-0.778-0.291-1.565-0.303-2.369
	c-2.004-2.317-4.218-4.5-4.947-7.644c-1.465-4.962-3.649-9.475-8.245-12.297c-3.706-2.274-4.934-4.505-0.634-7.47
	c2.414-1.667-1.479-1.64-0.971-2.915c-3.048-10.968-3.957-22.86-14.255-30.499c-1.416-1.05-0.542-3.167,0.491-4.648
	c6.19-0.793,6.922-5.683,7.83-10.438c4.292,14.375,17.784,24.216,21.872,36.957c3.059,9.536,12.061,15.532,12.065,25.7
	c1.604,1.563,2.442,3.46,2.49,5.701c-0.103,3.508,0.668,7.235-2.502,9.972c-2.699,1.594-3.766,5.64-7.814,5.209
	C265.651,232.834,263.994,231.046,260.663,230.876z"/>
<path fill-rule="evenodd" clip-rule="evenodd" fill="#BB7741" d="M77.771,275.395c-0.003-0.905-0.009-1.811-0.013-2.713
	c-0.822-7.601-1.964-15.28,5.222-20.876c10.814-15.663,14.604-16.483,33.325-7.198c4.668,2.318,9.234,4.783,12.338,9.212
	c1.357,2.494,1.832,5.196,1.887,7.998c0.005,2.683-0.448,5.26-1.902,7.57c-7.851,3.166-13.768-5.89-21.685-3.392
	c-3.063,0.97-8.88-3.026-6.159,5.538c1.095,3.444-4.725,3.674-7.958,4.357C87.802,275.759,82.714,277.615,77.771,275.395z"/>
<path fill-rule="evenodd" clip-rule="evenodd" fill="#BD7C47" d="M127.359,254.421c-1.512-0.772-3.147-1.369-4.518-2.343
	c-13.243-9.391-26.473-14.673-39.862-0.272c-3.481,0-6.963,0-10.443,0c-1.105-4.775,3.451-6.481,5.395-9.503
	c12.209-18.981,21.9-24.086,44.825-6.384c2.684,2.427,5.586,4.686,6.942,8.237c0.854,2.213,1.503,4.475,1.279,6.897
	C130.425,252.871,129.225,254.003,127.359,254.421z"/>
<path fill-rule="evenodd" clip-rule="evenodd" fill="#BF7F4B" d="M122.139,238.751c-4.986-2.195-8.797-6.04-13.976-8.421
	c-14.421-6.632-20.717,2.848-26.301,11.909c-2.636,4.275-5.957,6.654-9.326,9.566c-0.87,0.002-1.739,0.002-2.608,0.002
	c-3.104-3.161-2.931-6.7-1.219-10.423c3.156-3.424,6.752-6.271,9.208-10.558c11.329-19.765,33.49-19.82,45.792-0.388
	C124.547,233.466,124.529,236.337,122.139,238.751z"/>
<path fill-rule="evenodd" clip-rule="evenodd" fill="#C2844D" d="M69.926,241.362c0,3.482,0.001,6.966,0.002,10.445
	c-0.506,4.093,1.781,9.577-5.205,10.438c-1.753-0.028-3.508-0.054-5.263-0.082c1.739-2.588,3.477-5.176,5.214-7.763
	c-0.897-1.016-1.632-2.137-2.218-3.361c-1.545-4.153-0.088-7.992,1.221-11.853c1.423-2.57,3.272-4.309,6.512-3.333
	C71.407,237.752,71.486,239.598,69.926,241.362z"/>
<path fill-rule="evenodd" clip-rule="evenodd" fill="#A85720" d="M77.771,275.395c4.809-3.292,10.261-2.854,15.663-2.705
	c4.203,2.271,9.529,2.621,12.395,7.215c2.852,3.871,4.024,8.021,2.078,12.677c-0.73,1.16-1.804,1.688-3.159,1.678
	c-6.969-3.031-15.033-2.045-21.787-5.892C78.825,285.004,77.646,280.461,77.771,275.395z"/>
<path fill-rule="evenodd" clip-rule="evenodd" fill="#AA5821" d="M82.96,288.367c8.211-0.038,16.71-1.372,23.463,5.186
	c0.627,0.859,0.631,1.698-0.082,2.514C97.628,296.291,88.957,296.386,82.96,288.367z"/>
<path fill-rule="evenodd" clip-rule="evenodd" fill="#C57F4A" d="M106.342,296.066c0.083-0.836,0.111-1.672,0.083-2.514
	c-0.001,0,0.142,0.143,0.142,0.143c5.42-0.309,4.279,3.483,4.162,6.647c-0.771,1.979-2.181,3.218-4.273,3.653
	c-0.856-0.005-1.712-0.01-2.568-0.016c-0.868-1.721-1.738-3.441-2.607-5.163C103.407,298.711,105.365,298.293,106.342,296.066z"/>
<path fill-rule="evenodd" clip-rule="evenodd" fill="#BD7A3E" d="M127.361,270.081c0.001-2.61,0.002-5.222,0.004-7.832
	c5.417-4.159,8.132-0.019,11.692,3.309c10.312,9.636,19.063,20.721,29.061,30.657c3.913,3.891,8.012,6.157,13.221,6.991
	c2.78,1.241,6.688,1.371,6.045,6.029c-3.788,3.692-9.724-2.976-13.103,2.713c-4.305-0.135-8.608-0.272-12.912-0.41
	c-3.474-8.552-9.255-14.91-17.419-19.352c-7.76-4.22-10.632-13.088-16.974-18.732C126.428,272.253,126.56,271.126,127.361,270.081z"
	/>
<path fill-rule="evenodd" clip-rule="evenodd" fill="#B8743B" d="M127.363,272.691c0.427,0.046,1.003-0.071,1.26,0.161
	c10.663,9.701,21.228,19.51,31.971,29.119c3.521,3.151,0.576,6.392,0.775,9.571c-4.368,0.092-8.734,0.187-13.102,0.283
	c-0.018-0.856-0.036-1.711-0.051-2.565c-1.555-1.803-3.642-3.034-5.233-4.806c-6.184-8.791-13.61-16.754-17.973-26.781
	C125.138,275.7,125.777,273.972,127.363,272.691z"/>
<path fill-rule="evenodd" clip-rule="evenodd" fill="#C48346" d="M187.384,309.235c-1.861-3.08-4.946-2.506-7.803-2.615
	c-14.468-12.738-24.814-29.369-39.556-41.86c-4.235-3.59-8.845-6.976-10.051-12.952c-0.868-1.741-1.736-3.482-2.604-5.224
	c9.688-3.43,14.3,5.877,21.563,8.546c18.407,8.766,29.692,25.361,43.197,39.488c3.739,3.911,5.525,8.713,2.446,14.087
	c-1.079,1.69-2.553,2.813-4.563,3.151C189.137,310.982,188.261,310.107,187.384,309.235z"/>
<path fill-rule="evenodd" clip-rule="evenodd" fill="#C4843F" d="M190.013,311.856c0.878-0.874,1.755-1.751,2.633-2.629
	c1.739-1.558,3.474-1.369,5.202,0.021c1.479,3.61,5.611,5.895,5.223,10.438c-4.347-0.005-8.692-0.013-13.038-0.021
	C190.025,317.063,190.02,314.46,190.013,311.856z"/>
<path fill-rule="evenodd" clip-rule="evenodd" fill="#F0CB87" d="M190.003,89.935c-13.048-0.025,2.512,7.572-2.578,9.668
	c-2.769,3.098-5.344,0.637-7.986-0.255c-1.54-0.908-2.909-2.042-4.264-3.21c-0.971-0.727-1.947-1.428-2.989-2.044
	c-8.032-2.356-17.087,1.749-24.57-3.947c-1.001-2.116-0.886-4.156,0.368-6.139c1.784-1.54,3.905-2.223,6.182-2.547
	c8.377-1.16,16.671,0.801,25.023,0.663c3.805,0.064,7.703-0.252,10.831,2.619C190.014,86.473,190.009,88.204,190.003,89.935z"/>
<path fill-rule="evenodd" clip-rule="evenodd" fill="#F7C984" d="M148.274,79.479c-0.001-1.736-0.003-3.473-0.005-5.208
	c6.08,0,12.158-0.003,18.236-0.005c2.498,0.987,4.243,2.726,5.241,5.219c-0.91,1.106-2.058,1.846-3.439,2.223
	c-5.532,0.548-11.065,0.548-16.602,0.005C150.315,81.343,149.173,80.599,148.274,79.479z"/>
<path fill-rule="evenodd" clip-rule="evenodd" fill="#FCCC9C" d="M169.146,79.515c0.866-0.013,1.733-0.023,2.601-0.03
	c6.088,1.759,14.44-4.347,18.273,5.257c-3.484-0.016-6.969-0.028-10.451-0.043C177.051,81.044,169.9,86.71,169.146,79.515z"/>
<path fill-rule="evenodd" clip-rule="evenodd" fill="#E6BA89" d="M148.267,89.917c9.513,1.384,19.564-3.014,28.676,2.674
	c-7.104,5.933-16.013,1.889-23.745,4.337c-1.288,0.436-2.609,0.724-3.947,0.943c-1.326,0.268-2.669,0.393-4.018,0.454
	c-3.354,0.125-6.71,0.168-10.053-0.316c-2.043-0.385-3.772-1.351-5.203-2.858c-0.006-1.731-0.013-3.465-0.019-5.196
	c2.089-1.122,2.577-3.047,2.604-5.201c1.753-0.013,3.507-0.028,5.26-0.041c0.544,0.146,1.087,0.288,1.636,0.421
	C142.458,86.605,145.913,87.25,148.267,89.917z"/>
<path fill-rule="evenodd" clip-rule="evenodd" fill="#EDB67C" d="M106.459,92.556c1.88-3.09,4.991-2.519,7.868-2.644
	c1.73,0.018,3.458,0.036,5.188,0.056C116.598,98.074,111.688,96.118,106.459,92.556z"/>
<path fill-rule="evenodd" clip-rule="evenodd" fill="#ECC297" d="M148.274,79.479c0.866,0.013,1.731,0.023,2.597,0.031
	c1.402,1.461,4.221,2.208,2.616,5.186c-1.751,0.015-3.502,0.028-5.253,0.043c-3.489,2.748-6.966,2.761-10.429-0.046l0.018,0.02
	c0.004-1.744,0.006-3.49,0.01-5.234C141.313,79.479,144.794,79.479,148.274,79.479z"/>
<path fill-rule="evenodd" clip-rule="evenodd" fill="#C9894E" d="M197.848,309.248c-1.733-0.008-3.469-0.013-5.202-0.021
	c2.617-6.19-0.369-10.8-4.465-14.887c-12.899-12.873-24.148-27.525-39.933-37.313c-7.58-9.679-14.381-19.839-19.363-31.149
	c0.468-2.735,1.657-5.027,4.028-6.605c2.736-1.073,5.299-1.061,7.496,1.208c11.152,21.004,28.146,37.033,44.544,53.771
	c9.479,9.679,17.045,21.417,20.73,34.988C203.072,309.243,200.46,309.246,197.848,309.248z"/>
<path fill-rule="evenodd" clip-rule="evenodd" fill="#D3945A" d="M192.604,262.262c-5.4,0.229-7.561-2.306-11.319-6.828
	c-10.173-12.246-16.614-28.556-33.034-34.961c-2.567-2.853-3.359-6.249-3.057-9.981c0.209-2.137,0.866-4.115,2.129-5.867
	c10.454-5.007,17.127,2.152,21.675,8.924c7.461,11.101,16.941,20.83,22.812,33.012C193.176,251.734,196.22,256.836,192.604,262.262z
	"/>
<path fill-rule="evenodd" clip-rule="evenodd" fill="#CB8D57" d="M148.24,210.037c0.004,3.479,0.008,6.958,0.01,10.436
	c-2.613,0.003-5.227,0.006-7.841,0.008c-2.608-0.002-5.217-0.002-7.826-0.005c-12.38-1.673-8.902-8.633-5.223-15.662
	c1.642-4.107-5.646-5.989-2.608-10.446c6.27-2.068,10.611,1.351,14.017,5.69C141.641,203.722,144.763,207.014,148.24,210.037z"/>
<path fill-rule="evenodd" clip-rule="evenodd" fill="#D49E63" d="M192.604,262.262c-0.809-5.234-3.513-10.158-2.581-15.681
	c5.347-6.509,6.686,2.165,10.176,2.688c0.055,4.345,0.108,8.689,0.162,13.036c-2.307,1.654-3.905,5.438-7.713,2.558
	C192.637,263.995,192.621,263.128,192.604,262.262z"/>
<path fill-rule="evenodd" clip-rule="evenodd" fill="#D49F5E" d="M216.13,283.138c6.275,6.17,17.856,8.357,15.67,20.876
	C217.058,304.2,222.158,289.491,216.13,283.138z"/>
<path fill-rule="evenodd" clip-rule="evenodd" fill="#B25D25" d="M38.589,225.71c0.389-3.646,1.333-7.314,5.854-6.854
	c3.507,0.357,4.398,3.644,4.6,6.846c2.063,2.619,2.3,5.234-0.023,7.843c-3.464-2.409-6.936-2.394-10.414-0.03
	C38.601,230.914,38.596,228.313,38.589,225.71z"/>
<path fill-rule="evenodd" clip-rule="evenodd" fill="#C16929" d="M56.863,236.153c0.067,2.146,0.537,4.092,2.618,5.231
	c2.784,3.246,3.003,6.711,0.897,10.38c-2.027,1.657-4.066,1.616-6.115,0.038c-1.741-2.605-3.483-5.211-5.226-7.817
	c0.008-0.89,0.014-1.779,0.022-2.672C51.752,239.733,52.017,234.48,56.863,236.153z"/>
<path fill-rule="evenodd" clip-rule="evenodd" fill="#BE5E1B" d="M56.863,236.153c-2.704,1.565-3.743,5.647-7.803,5.16
	c-0.013-2.59-0.025-5.181-0.038-7.769c0.006-2.616,0.014-5.229,0.021-7.843C55.241,226.498,55.964,231.391,56.863,236.153z"/>
<path fill-rule="evenodd" clip-rule="evenodd" fill="#DBB17D" d="M77.757,129.1c-0.636-4.398,1.743-9.397-2.607-13.054
	c10.147-4.373,22.606-1.813,31.333-10.443c5.516,6.142,3.679,13.482,3.391,20.578c-0.318,5.219-0.649,10.443-3.852,14.917
	c-0.853,0.995-1.926,1.645-3.193,1.958c-1.295-0.156-2.315-0.783-3.053-1.861c-2.39-13.806-11.671-11.769-21.203-9.24
	c-0.247,0.066-0.695-0.406-0.969-0.701C77.072,130.683,77.15,129.941,77.757,129.1z"/>
<path fill-rule="evenodd" clip-rule="evenodd" fill="#E4B279" d="M106.518,126.558c-0.011-6.986-0.023-13.969-0.034-20.955
	c9.952,1.285,15.366-7.634,23.493-10.451c1.752,0.018,3.503,0.036,5.255,0.053c1.673,4.694-1.982,7.417-3.953,10.767
	c-2.853,2.677-5.372,5.666-7.859,8.689c-1.19,1.239-2.542,2.267-4.031,3.116c-4.538,1.652-6.578,5.966-9.7,9.138
	C108.548,127.511,107.497,127.356,106.518,126.558z"/>
<path fill-rule="evenodd" clip-rule="evenodd" fill="#FEC486" d="M273.556,230.927c0.006-3.485,0.011-6.974,0.015-10.461
	c1.745-1.553,3.486-1.377,5.224,0.013c-0.006,6.958-0.013,13.918-0.019,20.879C271.79,240.506,274.068,235.019,273.556,230.927z"/>
<path fill-rule="evenodd" clip-rule="evenodd" fill="#FDCA7F" d="M278.794,220.479c-1.741-0.006-3.482-0.011-5.224-0.013
	c0-1.739-0.002-3.476-0.003-5.212c1.74-1.741,3.481-3.482,5.222-5.222c1.736,0,3.472,0.003,5.208,0.003
	c-0.002,3.485-0.004,6.968-0.006,10.453C282.259,220.486,280.526,220.48,278.794,220.479z"/>
<path fill-rule="evenodd" clip-rule="evenodd" fill="#E6993B" d="M289.204,165.636c-1.731-0.869-3.462-1.741-5.193-2.613
	c1.759-5.201-4.22-12.98,5.2-15.634C289.208,153.472,289.207,159.553,289.204,165.636z"/>
<path fill-rule="evenodd" clip-rule="evenodd" fill="#A6692B" d="M106.453,317.065c0.009-2.604,0.018-5.209,0.027-7.812
	c3.522-3.119,7.394-3.46,11.564-1.464c0.495,0.481,0.986,0.972,1.479,1.464c1.705,10.971-5.481,10.907-12.979,10.453
	C106.514,318.827,106.483,317.945,106.453,317.065z"/>
<path fill-rule="evenodd" clip-rule="evenodd" fill="#BE743A" d="M54.263,251.803c1.739-0.005,3.478-0.01,5.215-0.018
	c1.708-1.53,3.423-1.524,5.146-0.025c0.017,0.879,0.033,1.762,0.05,2.642c-5.435,0.474-11.729,6.126-15.637-2.596
	C50.78,251.806,52.522,251.803,54.263,251.803z"/>
<path fill-rule="evenodd" clip-rule="evenodd" fill="#CD7021" d="M56.712,136.838c8.152,1.614,0.636,7.333,2.757,10.525
	c-6.858-0.727-4.838-5.913-5.014-9.989C55.176,137.06,55.927,136.879,56.712,136.838z"/>
<path fill-rule="evenodd" clip-rule="evenodd" fill="#D6AB78" d="M77.757,129.1c4.778,2.851,6.211-4.686,13.206-2.883
	c11.174,2.878,10.648,8.222,10.289,15.935c-3.526,2.973-9.899,2.453-10.742,0.647c-2.779-5.956-5.425,1.713-7.515-0.678
	c-0.323-2.108,0.024-4.479-3.466-1.92c-3.515,2.578-3.905-0.816-4.379-3.281C75.23,134.051,74.689,130.974,77.757,129.1z"/>
<path fill-rule="evenodd" clip-rule="evenodd" fill="#D0A370" d="M82.995,142.121c6.096-6.047,12.17-0.036,18.256,0.031l0.002,0.002
	c2.958,2.871,5.438,5.9,3.529,10.423c-2.373,2.68-5.063,4.316-8.751,2.634c-1.121-2.106-3.063-2.56-5.214-2.603
	c-4.913,1.423-3.533-3.442-5.228-5.232C83.48,146.238,83.027,144.283,82.995,142.121z"/>
<path fill-rule="evenodd" clip-rule="evenodd" fill="#D09D6A" d="M85.589,147.375c1.743,1.744,3.485,3.488,5.228,5.232
	c-2.217,10.78-11.345,0.772-15.669,5.211C75.136,150.846,84.599,153.344,85.589,147.375z"/>
<path fill-rule="evenodd" clip-rule="evenodd" fill="#AD6532" d="M106.455,303.996c0.867-0.864,1.734-1.731,2.601-2.598
	c1.997-2.109,1.293-6.418,5.488-6.747c8.712,0.549,15.205,5.332,21.176,11.119c0.536,1.26,0.328,2.412-0.52,3.468
	c-5.226,0.005-10.452,0.01-15.678,0.016l0.006-0.006c-3.296-4.342-9.68-0.991-13.02-5.224L106.455,303.996z"/>
<path fill-rule="evenodd" clip-rule="evenodd" fill="#A9712F" d="M135.2,309.238c-0.005-0.869-0.008-1.739-0.01-2.611
	c-0.7-2.529,0.854-3.63,2.83-4.472c2.839-0.64,5.325,0.191,7.609,1.846c2.115,1.138,2.571,3.091,2.588,5.26
	C143.877,309.254,139.539,309.246,135.2,309.238z"/>
<path fill-rule="evenodd" clip-rule="evenodd" fill="#AA643E" d="M106.509,304.024c4.593,1.108,11.337-3.142,13.02,5.224
	c-4.35,0-8.699,0.003-13.049,0.006C106.49,307.51,106.499,305.766,106.509,304.024z"/>
<path fill-rule="evenodd" clip-rule="evenodd" fill="#EFAD60" d="M273.565,157.809c1.738-0.864,3.478-1.729,5.216-2.593
	c0,6.086,0,12.169-0.001,18.252c-4.149-3.381-5.359-7.937-5.222-13.034C273.56,159.56,273.563,158.683,273.565,157.809z"/>
<path fill-rule="evenodd" clip-rule="evenodd" fill="#FCCE97" d="M129.942,181.449c-9.325-1.517-10.144-12.761-18.105-15.836
	c-1.518-2.052-3.132-4.023-4.891-5.879c-3.009-5.326-2.072-11.05-1.673-16.718c7.76-5.359,11.388,0.645,13.305,6.063
	c4.28,12.093,12.556,20.41,22.629,27.467c3.119,1.907,7.169,2.712,8.338,6.955c0.055,1.323-0.297,2.529-0.994,3.648
	c-1.64,1.229-3.507,1.64-5.515,1.576C137.807,187.866,132.772,186.635,129.942,181.449z"/>
<path fill-rule="evenodd" clip-rule="evenodd" fill="#CC925C" d="M148.24,210.037c-4.552-0.219-9.472,1.081-10.717-6.035
	c-1.147-6.55-8.36-6.565-12.771-9.635c-0.886-9.554-11.9-8.985-15.663-15.667c8.344-3.792,12.993,7.113,20.854,5.242
	c6.084,5.397,15.238,6.43,19.85,13.946c0.798,2.598,0.414,4.934-1.536,6.915C148.251,206.547,148.246,208.294,148.24,210.037z"/>
<path fill-rule="evenodd" clip-rule="evenodd" fill="#D59F69" d="M148.257,196.966c-6.65-3.572-15.493-4.064-18.313-13.023
	c0.009-0.832,0.009-1.665-0.001-2.496c4.376,1.683,8.754,3.36,13.13,5.041c3.911,3.577,8.609-1.558,12.607,1.122
	c2.336,1.336,3.796,3.226,3.75,6.043c-0.833,1.81-2.416,2.605-4.209,3.115C152.923,197.415,150.593,197.284,148.257,196.966z"/>
<path fill-rule="evenodd" clip-rule="evenodd" fill="#D09D6A" d="M109.191,160.386c0.881,1.741,1.763,3.483,2.646,5.227
	c-4.88-4.056-15.163,0.097-15.805-10.402c2.604-0.867,5.21-1.736,7.814-2.603C106.04,154.917,106.908,158.138,109.191,160.386z"/>
<path fill-rule="evenodd" clip-rule="evenodd" fill="#C48752" d="M127.359,204.813c1.767,5.211-4.219,13.011,5.223,15.662
	c-0.05,2.152-0.509,4.098-2.612,5.222c-0.872,0.928-1.953,1.393-3.215,1.461c-4.274-0.571-6.578-3.783-9.191-6.695
	c-13.141-14.643-16.009-14.826-30.464-2.723c-2.065,1.729-3.437,3.847-4.959,5.92c-2.864,3.979-9.013,4.4-10.586,9.785
	c-0.305,1.046-0.859,1.936-1.632,2.692c-1.739,0.872-3.478,1.741-5.218,2.613c-1.54-0.16-1.746-1.738-2.691-2.531
	c-4.119-3.613-1.833-8.572-2.704-12.868c-1.653-4.977-0.756-9.418,2.781-13.309c4.327,0.629,6.869-2.129,9.946-4.582
	C93.677,188.203,105.816,188.159,127.359,204.813z"/>
<path fill-rule="evenodd" clip-rule="evenodd" fill="#CC884D" d="M62.091,210.043c0.32,4.693-0.2,9.214-2.779,13.306
	c-2.886-2.398-7.541-3.079-7.807-8.028c-0.852-1.729-1.702-3.457-2.553-5.188C53.33,210.104,57.71,210.073,62.091,210.043z"/>
<path fill-rule="evenodd" clip-rule="evenodd" fill="#B36931" d="M62.014,236.22c0.897,0.844,1.795,1.688,2.691,2.531
	c-0.025,4.337-0.052,8.674-0.079,13.009c-1.717,0.01-3.432,0.018-5.147,0.025c0.001-3.468,0.001-6.936,0.002-10.402
	C61.528,240.253,61.979,238.338,62.014,236.22z"/>
<path fill-rule="evenodd" clip-rule="evenodd" fill="#C57A3C" d="M180.027,97.559c2.465,0.686,4.932,1.369,7.398,2.05
	c0.864,0.332,1.73,0.666,2.596,1c2.268,4.926,9.38,7.587,6.884,14.757c-5.304,4.204-11.459,3.345-17.437,2.651
	c-4.845-0.563-13.073-15.104-10.793-19.17C171.629,93.581,176.018,96.154,180.027,97.559z"/>
<path fill-rule="evenodd" clip-rule="evenodd" fill="#C17E41" d="M197.849,113.438c-5.846-2.302-7.355-7.251-7.827-12.832
	c5.329-0.041,8.039,3.562,10.484,7.534c3.337,5.295,8.245,9.775,8.657,16.605c-4.659,5.923-7.58,1.966-10.547-1.841
	C197.358,119.834,196.059,116.757,197.849,113.438z"/>
<path fill-rule="evenodd" clip-rule="evenodd" fill="#F1C181" d="M221.353,136.93c-3.069,1.876-2.514,4.961-2.608,7.83
	c-0.476,0.265-0.949,0.527-1.428,0.795c-1.127-0.127-2.063-0.62-2.821-1.461c-1.37-1.765-2.348-3.733-3.012-5.864
	c-0.851-3.786-1.238-7.646-1.882-11.473c-0.016-1.143-0.075-2.274-0.199-3.406c-0.435-1.826,0.012-3.381,1.397-4.65
	C214.317,124.776,217.834,130.854,221.353,136.93z"/>
<path fill-rule="evenodd" clip-rule="evenodd" fill="#CD8C51" d="M210.8,118.7c0.025,1.729,0.052,3.459,0.078,5.191
	c-0.859,1.206-1.731,1.272-2.617,0.028c-2.586-5.26-5.171-10.52-7.757-15.779C205.604,110.034,207.101,115.439,210.8,118.7z"/>
<path fill-rule="evenodd" clip-rule="evenodd" fill="#F1C181" d="M231.8,163.035c11.479,9.5,16.6,21.726,15.661,36.549
	c-5.067,3.289-6.818-0.856-8.689-4.084c-2.375-4.095-6.3-6.968-8.502-11.17c-0.878-1.808-1.428-3.72-1.804-5.688
	c-0.452-6.825-5.894-10.971-8.9-16.415c-3.186-5.767-5.781-11.384-0.83-17.46l0.009-0.007
	C226.39,148.5,230.974,154.425,231.8,163.035z"/>
<path fill-rule="evenodd" clip-rule="evenodd" fill="#D89C60" d="M148.257,196.966c1.125-2.099,3.069-2.545,5.211-2.593
	c12.783,4.543,22.992,13.044,33.221,21.532c9.76,5.688,9.385,16.846,13.745,25.455c0.04,1.765,0.081,3.526,0.123,5.291
	c-0.117,0.872-0.235,1.743-0.356,2.618c-5.021,5.265-5.441-6.887-10.179-2.688c-9.084-6.455-14.389-16.601-19.888-25.333
	c-5.82-9.239-11.61-14.833-21.878-16.445C148.257,202.19,148.257,199.576,148.257,196.966z"/>
<path fill-rule="evenodd" clip-rule="evenodd" fill="#E1B070" d="M210.891,230.924c-0.864,0.872-1.73,1.744-2.595,2.613
	c-0.87-0.008-1.742-0.015-2.613-0.025c-2.941-3.243-0.972-6.33,0.271-9.467c5.977-15.083,1.285-23.533-14.862-26.763
	c-1.257-0.252-2.503-0.518-3.733-0.938c-6.385-4.809-3.778-7.746,2.072-10.03c23.588-1.92,27.524,0.393,35.445,20.769
	c2.651,2.144-5.235,6.997,2.072,8.005c0.633,2.858-0.677,4.432-3.344,5.109c-2.464,0.979-4.927,1.961-7.39,2.94
	C212.632,224.496,210.937,227.146,210.891,230.924z"/>
<path fill-rule="evenodd" clip-rule="evenodd" fill="#DCA266" d="M200.435,241.359c-9.808-4.775-5.375-19.025-15.636-23.497
	c-2.228-6.379-12.896-8.687-8.753-18.135c5.687-3.708,10.965,2.042,16.572,0.708c9.637,6.675,13.683,19.515,10.448,33.071
	C200.011,235.394,200.582,238.499,200.435,241.359z"/>
<path fill-rule="evenodd" clip-rule="evenodd" fill="#DEAB6A" d="M203.066,233.507c-3.237-10.899-0.744-24.188-13.047-31.312
	c-2.28-2.611-2.055-5.219,0.007-7.825c18.47,0.489,26.993,14.65,18.624,30.751c-1.355,2.605-1.996,5.584-2.968,8.391
	C204.811,233.51,203.938,233.51,203.066,233.507z"/>
<path fill-rule="evenodd" clip-rule="evenodd" fill="#D2752F" d="M255.271,246.581c-1.726,4.345-3.45,8.689-5.175,13.031
	c-16.163-6.854-20.089-22.432-26.057-36.552c9.975-2.919,9.297,7.776,14.335,11.168
	C240.381,243.287,251.349,240.136,255.271,246.581z"/>
<path fill-rule="evenodd" clip-rule="evenodd" fill="#C47020" d="M237.021,236.128c-6.754-1.945-4.992-12.354-12.984-13.067
	c-0.142-0.953-0.284-1.906-0.431-2.86c1.081-1.608,2.165-3.213,3.248-4.818c1.332-1.755,3.201-2.527,5.284-2.917
	c4.137-0.26,8.236-0.38,10.766,3.854c-0.012,5.166-2.935,9.74-3.063,14.9C239.424,233.157,238.646,234.889,237.021,236.128z"/>
<path fill-rule="evenodd" clip-rule="evenodd" fill="#C6631A" d="M237.031,230.911c-0.067-5.186-0.702-10.604,5.443-13.232
	c1.372-1.407,3.075-1.861,4.983-1.746c2.51,0.364,4.567,1.616,6.423,3.271c1.35,3.019,5.626,4.775,3.991,9.107
	c0.217,4.563-0.016,9.038-2.6,13.047C247.884,240.159,242.554,235.365,237.031,230.911z"/>
<path fill-rule="evenodd" clip-rule="evenodd" fill="#CC6A1E" d="M237.031,230.911c7.496,1.01,13.916,3.898,18.241,10.446
	c2.692,1.741,2.682,3.482-0.002,5.224c-8.13,0.09-15.932-0.396-18.249-10.453C237.025,234.389,237.029,232.65,237.031,230.911z"/>
<path fill-rule="evenodd" clip-rule="evenodd" fill="#E9AC66" d="M257.872,228.311c-1.746-2.605-3.491-5.209-5.237-7.814
	c1.742-1.397,3.481-1.586,5.217,0.013c0.838,2.664,1.674,5.331,2.51,7.998C259.533,228.418,258.703,228.352,257.872,228.311z"/>
<path fill-rule="evenodd" clip-rule="evenodd" fill="#EFBE7B" d="M257.852,220.509c-1.738-0.005-3.478-0.01-5.217-0.013
	c-1.692-1.005-3.384-2.007-5.076-3.011c-2.609-1.181-4.746-3.091-7.146-4.603c-7.644-4.444-11.719-18.171-8.616-28.961
	c7.813,2.628,8.381,12.503,15.665,15.662C246.597,208.707,260.077,210.708,257.852,220.509z"/>
<path fill-rule="evenodd" clip-rule="evenodd" fill="#C07D42" d="M129.974,251.808c19.654,11.456,28.873,33.573,47.296,46.335
	c2.709,1.876,2.299,5.431,2.311,8.479c-11.037-1.983-16.243-11.45-23.56-18.253c-9.467-8.799-15.587-21.278-28.656-26.12
	c-0.001-2.611-0.002-5.22-0.005-7.828C128.231,253.549,129.102,252.678,129.974,251.808z"/>
<path fill-rule="evenodd" clip-rule="evenodd" fill="#B6733D" d="M127.363,272.691c-0.001,1.742-0.002,3.483-0.004,5.225
	c-7.978-0.477-15.969-1.078-23.483,2.616c-3.48-2.613-6.962-5.229-10.443-7.843c0.924-1.448,7.219,2.881,3.599-3.172
	c-1.122-1.874-4.533-2.121-5.373-6.436c12.913-0.27,25.474-3.737,35.702,6.999C127.362,270.95,127.362,271.822,127.363,272.691z"/>
<path fill-rule="evenodd" clip-rule="evenodd" fill="#C4834B" d="M127.359,225.7c0.87,0,1.74,0,2.611-0.003
	c7.035,9.896,16.202,18.543,18.277,31.33c-8.256-0.891-12.625-9.549-20.878-10.443c0.415-4.052-3.633-5.125-5.23-7.833
	c0-2.61,0-5.219-0.001-7.829C120.598,225.898,125.669,227.489,127.359,225.7z"/>
<path fill-rule="evenodd" clip-rule="evenodd" fill="#C2834E" d="M127.359,225.7c-1.74,1.741-3.48,3.479-5.221,5.222
	c-5.85-5.278-10.284-11.231-20.334-10.979c-11.048,0.275-18.198,2.703-21.557,13.653c-1.461,4.763-4.25,8.685-10.321,7.767
	c-0.001-1.741-0.003-3.483-0.003-5.225c0-0.869,0.001-1.738,0.001-2.608c2.682-4.278,8.167-5.757,10.442-10.442
	c2.231-7.629,9.065-12.241,14.453-16.104c9.555-6.853,16.617,2.552,22.979,8.485C121.14,218.586,122.679,223.627,127.359,225.7z"/>
<path fill-rule="evenodd" clip-rule="evenodd" fill="#B36E39" d="M103.876,280.532c6.62-11.716,15.006-7.58,23.483-2.616
	c6.09,8.694,12.18,17.389,18.27,26.085c-2.607,0.003-5.213,0.008-7.82,0.013c-3.991-3.758-7.094-8.223-12.223-11.072
	c-5.646-3.137-8.534-1.352-11.281,3.242c-1.749,1.739-3.5,3.479-5.249,5.215c-0.06-2.817,0.584-5.864-2.491-7.705
	C106.77,289.083,106.407,284.586,103.876,280.532z"/>
<path fill-rule="evenodd" clip-rule="evenodd" fill="#CA7E40" d="M197.849,113.438c0.872,2.608,1.744,5.219,2.616,7.827
	c0.646,10.219-3.837,12.32-13.287,9.673c-10.454-2.929-22.877-1.767-26.532-15.851c-0.384-6.932-1.796-14.01,2.809-20.246
	c4.618-1.372,9.226-1.622,13.814,0.13c0.918,0.862,1.836,1.726,2.756,2.588c-3.029,1.461-8.106-2.42-9.393,3.598
	c7.555,1.04-4.204,17.11,11.036,13.577C186.356,113.646,192.456,114.74,197.849,113.438z"/>
<path fill-rule="evenodd" clip-rule="evenodd" fill="#F7C498" d="M153.487,84.696c-0.872-1.729-1.744-3.458-2.616-5.186
	c6.091,0.002,12.182,0.002,18.274,0.005c2.246,4.197,8.183,0.974,10.423,5.184C170.874,84.696,162.18,84.696,153.487,84.696z"/>
<path fill-rule="evenodd" clip-rule="evenodd" fill="#D28F4F" d="M177.269,94.971c-4.433,0.086-8.865,0.173-13.298,0.26
	c-4.417,3.203-8.813,3.927-13.172-0.104c8.29-5.216,17.454-1.451,26.144-2.534C177.007,93.39,177.115,94.183,177.269,94.971z"/>
<path fill-rule="evenodd" clip-rule="evenodd" fill="#F1C278" d="M137.804,84.693c3.476,0.015,6.953,0.03,10.429,0.046
	c0.011,1.726,0.021,3.452,0.033,5.178C144.141,89.453,138.658,91.707,137.804,84.693z"/>
<path fill-rule="evenodd" clip-rule="evenodd" fill="#E4A764" d="M129.96,105.605c-0.351-4.536,3.723-6.828,5.271-10.4
	c3.477,0.002,6.953,0.005,10.428,0.01c1.198,6.956,3.371,13.73,3.862,20.831c-0.41,2.509-1.228,4.9-1.952,7.328
	c-4.249,9.551,4.834,19.754-1.424,29.201c-3.785,1.292-4.736-1.647-6.069-4.036c-4.742-10.706-6.361-22.439-10.932-33.211
	C127.736,112.005,127.249,108.639,129.96,105.605z"/>
<path fill-rule="evenodd" clip-rule="evenodd" fill="#D28F4F" d="M148.233,116.071c-2.133-6.797-7.685-13.169-2.574-20.858
	c0.871,0.031,1.741,0.061,2.612,0.092c11.208,6.395,9.655,18.661,13.194,28.599c0.631,4.209,0.813,8.411-0.315,12.577
	c-0.463,1.377-1.247,2.542-2.328,3.508C147.1,135.647,147.736,125.829,148.233,116.071z"/>
<path fill-rule="evenodd" clip-rule="evenodd" fill="#D58D47" d="M158.697,123.878c-3.949-9.352-4.285-20.025-10.425-28.576
	c0.835-0.173,1.678-0.232,2.527-0.176c4.39,0.036,8.781,0.069,13.171,0.104c-0.02,6.938-0.039,13.878-0.059,20.815
	C160.73,117.695,165.451,124.607,158.697,123.878z"/>
<path fill-rule="evenodd" clip-rule="evenodd" fill="#F7C78D" d="M140.416,178.703c-11.495-5.813-20.055-14.273-23.545-26.982
	c-1.538-5.599-4.611-9-10.512-9.543c-0.833,0.89-1.638,0.824-2.422-0.066c0.861-5.186,1.721-10.369,2.582-15.553
	c0.854-0.051,1.708-0.086,2.564-0.107c5.197-6.438,7.786-1.501,10.224,2.532c5.041,8.342,9.236,17.098,11.862,26.529
	c0.742,4.798,3.948,8.25,6.527,12.078C139.931,170.909,143.793,173.96,140.416,178.703z"/>
<path fill-rule="evenodd" clip-rule="evenodd" fill="#D6AB78" d="M103.936,142.11c0.809,0.033,1.617,0.056,2.425,0.066
	c-0.71,6.328,1.238,12.241,2.829,18.209c-3.581-1.356-5.268-4.016-5.343-7.779c-0.865-3.485-1.729-6.968-2.593-10.454
	C102.147,142.139,103.042,142.123,103.936,142.11z"/>
<path fill-rule="evenodd" clip-rule="evenodd" fill="#F2BC7D" d="M129.976,157.816c-4.362-8.962-9.191-17.735-12.886-26.962
	c-1.791-4.47-3.176-6.792-8.008-4.401c0.927-6.04,2.835-11.091,10.452-10.41c6.925,5.344,7.678,15.196,14.9,20.336
	c2.784,3.192,3.784,7.004,3.959,11.122c0.107,2.124-0.07,4.217-0.572,6.29C136.351,157.354,134.681,160.562,129.976,157.816z"/>
<path fill-rule="evenodd" clip-rule="evenodd" fill="#EBB06B" d="M135.208,147.36c0.386-3.794-0.846-7.18-2.636-10.423
	c-2.854-8.108-10.47-14.104-10.425-23.498c1.885-3.33,2.678-7.748,7.813-7.835c4.353,13.914,8.703,27.824,13.054,41.737
	C140.417,149.5,137.815,149.494,135.208,147.36z"/>
<path fill-rule="evenodd" clip-rule="evenodd" fill="#F2B772" d="M122.147,113.44c3.306,7.907,12.9,13.023,10.425,23.498
	c-9.275-3.888-10.056-13.077-13.039-20.895C120.404,115.176,121.276,114.307,122.147,113.44z"/>
<path fill-rule="evenodd" clip-rule="evenodd" fill="#B06C34" d="M114.306,296.184c0.209-3.78,0.417-7.564,0.773-14.025
	c7.519,9.707,23.23,6.426,22.73,21.855c-0.873,0.872-1.747,1.744-2.62,2.616C128.228,303.147,121.267,299.667,114.306,296.184z"/>
<path fill-rule="evenodd" clip-rule="evenodd" fill="#E9BA84" d="M129.976,157.816c3.386-0.087,5.127-1.826,5.226-5.209
	c4.95-0.811,5.46,3.432,6.636,6.305c7.064,17.238,11.874,19.943,36.351,16.351c5.775-0.849,11.044-5.416,17.359-2.277
	c1.261,1.762,1.395,3.669,0.764,5.691c-1.735,3.123-4.091,5.629-7.23,7.376c-10.684,4.403-21.242,10.125-33.012,3.167
	c-4.374-0.716-9.391,1.64-12.998-2.733c1.72,0,3.437,0.002,5.155,0.002c6.542-2.685,13.352-0.449,19.117-1.173
	c-5.706-1.147-12.6,1.535-19.062-1.443c-2.621-1.723-5.243-3.447-7.866-5.17C140.154,170.133,128.702,167.155,129.976,157.816z"/>
<path fill-rule="evenodd" clip-rule="evenodd" fill="#FAC790" d="M148.282,183.873c5.937,0,11.874,0,17.81,0
	c0.016,0.872,0.031,1.744,0.046,2.619c-5.97,0-11.939,0-17.911-0.002C148.246,185.617,148.264,184.745,148.282,183.873z"/>
<path fill-rule="evenodd" clip-rule="evenodd" fill="#DBA770" d="M156.069,189.22c11.765,1.104,22.798-2.48,33.952-5.285
	c1.386,1.736,1.563,3.475,0.003,5.214c-1.358,0.668-3.693,1.125-3.893,2.045c-0.611,2.828,1.99,2.794,3.895,3.177
	c-0.002,2.608-0.005,5.216-0.007,7.825c-5.916,6.986-8.285-3.819-13.051-2.601c-7.677,3.801-12.313-3.021-18.271-5.229
	C157.822,192.649,156.945,190.933,156.069,189.22z"/>
<path fill-rule="evenodd" clip-rule="evenodd" fill="#D79E66" d="M158.698,194.365c7.173-2.042,11.943,4.311,18.271,5.229
	c-2.013,8.07,7.859,11.047,7.83,18.268c-10.443-7.83-20.887-15.66-31.33-23.49C155.211,194.37,156.956,194.368,158.698,194.365z"/>
<path fill-rule="evenodd" clip-rule="evenodd" fill="#C2844D" d="M80.366,223.087c-0.753,6.208-4.235,9.688-10.442,10.442
	C67.34,223.984,76.835,226.516,80.366,223.087z"/>
<path fill-rule="evenodd" clip-rule="evenodd" fill="#C98646" d="M158.697,123.878c1.738-2.611,3.477-5.222,5.214-7.833
	c4.755,10.729,15.004,8.452,23.677,11.027c7.658,2.272,10.82,1.208,12.877-5.808c1.957,2.771,3.331,7.254,7.796,2.654
	c0.871-0.01,1.745-0.018,2.617-0.028c0.181,0.78,0.253,1.573,0.22,2.374c0.417,7.034-2.952,12.259-9.569,13.248
	c-14.346,2.146-28.906,3.954-42.822-2.606C158.703,132.562,158.7,128.22,158.697,123.878z"/>
<path fill-rule="evenodd" clip-rule="evenodd" fill="#CD8C51" d="M158.706,136.907c9.37,0.296,18.738,0.739,28.11,0.849
	c9.885,0.115,19.723-0.196,24.28-11.491c4.01,3.807,1.908,8.873,2.75,13.332c0.678,1.201,0.687,2.422,0.123,3.669
	c-0.64,2.703-1.871,5.013-4.271,6.578c-13.537,3.99-27.196,4.497-40.836,0.795c-5.481-1.487-10.909-3.633-10.17-11.101
	C158.697,138.661,158.702,137.784,158.706,136.907z"/>
<path fill-rule="evenodd" clip-rule="evenodd" fill="#E9B87D" d="M213.501,142.144c0.028-0.862,0.142-1.71,0.343-2.547
	c0.777,1.716,1.553,3.432,2.327,5.147c-1.693,12.424,10.125,21.399,8.634,33.777c-3.566,3.503-7.717,2.371-11.833,1.497
	c-5.84-1.297-11.978,1.222-17.729-1.328c0.001-1.734,0.002-3.467,0.004-5.201c-0.801-6.004,5.181-5.204,7.768-7.81
	c3.688-2.348,4.394-6.244,5.197-10.091C209.553,150.932,212.407,146.886,213.501,142.144z"/>
<path fill-rule="evenodd" clip-rule="evenodd" fill="#EFBD7F" d="M223.962,178.698c-3.493-11.111-10.435-21.432-7.791-33.954
	c0.854,0.01,1.709,0.021,2.564,0.023c-1.573,8.709,2.462,15.571,7.697,21.756c3.086,3.646,6.06,7.019,5.354,12.188
	C229.175,180.758,226.566,180.987,223.962,178.698z"/>
<path fill-rule="evenodd" clip-rule="evenodd" fill="#E9B777" d="M223.962,178.698c2.608,0.005,5.217,0.01,7.825,0.013
	c0.002,1.739,0.006,3.475,0.009,5.211c-0.007,4.196-0.384,8.368,3.62,11.483c1.538,1.196,3.322,4.941,3.113,5.102
	c-9.601,7.46,3.973,7.718,3.694,12.121c-3.01,2.838-7.396-0.196-10.451,2.447c-1.641,0.103-3.281,0.204-4.919,0.307
	c-2.766,0.507-5.531,1.015-8.515,1.563c-0.724-4.546,4.889-3.799,5.615-6.927c-2.133-9.11-3.079-18.521-12.133-24.576
	c-4.124-2.759-2.399-6.835,1.7-9.35C216.774,177.872,220.162,179.111,223.962,178.698z"/>
<path fill-rule="evenodd" clip-rule="evenodd" fill="#E4B278" d="M213.521,176.092c-0.864,2.636-3.738,5.584,0.275,7.766
	c10.861,5.902,12.247,15.318,10.157,26.16c-6.24-15.199-15.662-25.224-33.93-20.869c0-1.739-0.002-3.475-0.003-5.214
	c0.079-3.401,1.827-5.143,5.221-5.245C200.946,175.092,207.331,176.273,213.521,176.092z"/>
<path fill-rule="evenodd" clip-rule="evenodd" fill="#DE9F5C" d="M231.772,215.075c2.843-3.554,6.865-2.07,10.451-2.447
	c1.778,1.619,3.556,3.24,5.334,4.859c-1.695,0.063-3.391,0.13-5.084,0.194C239.502,214.369,235.354,215.889,231.772,215.075z"/>
<path fill-rule="evenodd" clip-rule="evenodd" fill="#D69E66" d="M213.501,142.144c1.005,5.528-1.748,10.428-2.614,15.642
	c-2.068,2.759-3.692,5.92-6.917,7.639c-16.698,8.062-33.482,10.147-50.264,0.39c-4.954-2.881-9.242-6.484-8.073-13.248
	c2.121-10.428-7.379-20.846-0.024-31.279c2.137,1.642,3.77,3.96,4.16,6.377c1.544,9.574,2.941,19.425,14.435,21.909
	c15.646,3.376,31.697,10.556,46.653-2.233C210.946,145.206,211.414,143.263,213.501,142.144z"/>
<path fill-rule="evenodd" clip-rule="evenodd" fill="#E0AF79" d="M145.633,152.566c10.799,18.74,31.907,18.191,50.308,13.217
	c3.198-0.867,6.168-2.878,9.735-2.769c1.521,1.747,1.464,3.493,0.01,5.242c-3.48,1.744-6.96,3.488-10.439,5.232
	c-9.648,0.699-17.521,7.381-28.246,6.109c-19.928-2.369-21.938-2.863-28.838-21.537c-0.71-1.92-1.962-3.641-2.961-5.454
	c0.002-1.749,0.005-3.498,0.007-5.247c2.602-0.005,5.204-0.01,7.807-0.018C143.087,149.484,143.514,151.45,145.633,152.566z"/>
<path fill-rule="evenodd" clip-rule="evenodd" fill="#D29459" d="M210.855,147.34c-4.236,8.179-10.859,10.958-20.062,10.678
	c-11.306-0.344-21.719-4.457-32.594-6.463c-6.668-1.231-8.989-8.462-9.938-15.196c-0.712-5.048-1.755-10.048-2.653-15.071
	c0.082-2.139,0.505-4.104,2.625-5.219c4.114,7.544,2.687,17.557,10.458,23.469c4.149,9.112,13.544,10.122,20.852,9.818
	C189.922,148.923,200.625,150.624,210.855,147.34z"/>
<path fill-rule="evenodd" clip-rule="evenodd" fill="#E4B278" d="M205.686,168.257c-0.003-1.747-0.006-3.493-0.008-5.242
	c1.736-1.741,3.473-3.485,5.209-5.229C210.507,161.949,209.081,165.593,205.686,168.257z"/>
</svg>
