<?xml version="1.0" encoding="utf-8"?>
<!-- Generator: Adobe Illustrator 16.0.0, SVG Export Plug-In . SVG Version: 6.00 Build 0)  -->
<!DOCTYPE svg PUBLIC "-//W3C//DTD SVG 1.1//EN" "http://www.w3.org/Graphics/SVG/1.1/DTD/svg11.dtd">
<svg version="1.1" id="Layer_1" xmlns="http://www.w3.org/2000/svg" xmlns:xlink="http://www.w3.org/1999/xlink" x="0px" y="0px"
	 width="364px" height="350px" viewBox="0 0 364 350" enable-background="new 0 0 364 350" xml:space="preserve">
<linearGradient id="SVGID_1_" gradientUnits="userSpaceOnUse" x1="233.3086" y1="109.96" x2="49.3078" y2="-254.5413" gradientTransform="matrix(1 0 0 -1 -47.6602 180.04)">
	<stop  offset="0" style="stop-color:#7575BF"/>
	<stop  offset="1" style="stop-color:#7575DE"/>
</linearGradient>
<path fill="url(#SVGID_1_)" d="M347.814,78.179c2.112-3.577,10.269-17.587,14.082-24.146l-141.701-6.707L-6,116.633v232.512
	l10.562-3.131c38.726-14.308,105.617-48.289,112.217-51.867c6.601-3.578,7.921-6.707,20.683-26.828
	c10.209-16.098,15.989-21.313,17.603-21.91c23.235-12.877,33.445-18.481,35.645-19.674c5.281-2.861,26.257-18.78,36.086-26.381
	c2.2-0.895,21.123-39.349,22.442-42.479c1.057-2.504,3.962-4.024,5.281-4.471c3.961-1.193,14.17-3.935,23.323-5.366
	c9.154-1.431,13.203-3.279,14.083-4.024c9.976-13.712,30.101-41.674,30.805-43.82C323.611,96.511,345.174,82.65,347.814,78.179z"/>
<path fill="#9797FF" d="M254.421,20.994c-14.677-5.337-35.349-7.857-43.851-8.451c-8.949,0.148-28.637,0.445-35.796,0.445
	c-7.159,0-11.932-1.186-13.424-1.779c-21.836-7.828-44-10.674-52.352-11.119C79.645-0.622,20.103,3.055-5.999,4.982v124.979
	c0,6.226,81.259,15.589,90.635,4.427c1.148-1.367,3.125-4.911,0.646-9.765c-1.79-2.965-3.042-9.073,6.265-9.784
	c9.307-0.712,18.793-5.338,22.373-7.561c7.905-4.3,23.983-13.076,25.057-13.788c1.343-0.889,4.027,0,12.529,1.779
	c6.802,1.423,9.397,1.186,9.844,0.889c5.221-3.261,16.377-10.318,19.241-12.453c2.864-2.135,6.563-0.89,8.054,0
	c18.973,7.828,29.98,10.378,33.112,10.674c3.282-1.927,11.276-7.294,17.005-13.343c5.727-6.049,9.844-5.782,11.186-4.893
	c4.475,1.482,15.303,4.981,22.82,7.116c9.396,2.668,14.355,1.123,22.158,1.123c2.864,0,3.794-2.458,3.794-3.347v-7.116
	c-0.357-9.251,3.796-9.111,8.262-8.29c9.666,1.779,21.568,0.58,27.088-0.161c37.228-7.828,31.62-16.604,24.162-20.015
	c-21.03-6.227-25.952-8.895-33.112-12.009c-7.159-3.113-5.369-2.668-13.871-4.003c-6.801-1.067-14.766-1.63-17.898-1.779
	C286.489,27.666,269.098,26.331,254.421,20.994z"/>
</svg>
