<?xml version="1.0" encoding="utf-8"?>
<!-- Generator: Adobe Illustrator 16.0.0, SVG Export Plug-In . SVG Version: 6.00 Build 0)  -->
<!DOCTYPE svg PUBLIC "-//W3C//DTD SVG 1.1//EN" "http://www.w3.org/Graphics/SVG/1.1/DTD/svg11.dtd">
<svg version="1.1" id="Layer_1" xmlns="http://www.w3.org/2000/svg" xmlns:xlink="http://www.w3.org/1999/xlink" x="0px" y="0px"
	 width="1920px" height="350px" viewBox="0 0 1920 350" enable-background="new 0 0 1920 350" xml:space="preserve">
<path fill="#383838" d="M-5,7c0,0,41,5,85,38c0,0,81,59,123,73c0,0,71,22,126,43c0,0,12,11,44,11c0,0,152,13,270,7c0,0,190-8,312-28
	c0,0,122-16,187-22c0,0,217-14,367-19c0,0,112-6,190,1c0,0,118,7,154,0c0,0,66-8,70-9s0,248,0,248H-5V7z"/>
<path fill-rule="evenodd" clip-rule="evenodd" d="M1459.617,355.533c-0.459,0-0.92,0-1.381,0c-0.688-0.103-0.342-1.556-1.458-1.109
	c-0.23,0.006-0.451-0.01-0.677-0.034c-1.734,0.34-3.473,0.5-5.231,0.333c-1.289-0.12-2.207-0.842-1.6-2.1
	c1.349-2.8,2.12-5.672,2.078-8.776c-0.006-0.371,0.291-0.691,0.665-0.858c0.99,1.162,0.195,2.52,0.455,3.682
	c0.133-1.293-0.146-2.688,0.128-4.063c0.003-0.009-0.069-0.049-0.106-0.044c-0.152,0.012-0.282,0.085-0.394,0.207
	c-0.666-0.193-0.693-0.726-0.68-1.277c0.274-0.948,0.242-1.906,0.016-2.851c-0.037-0.153,0.577-0.993-0.38-0.503
	c-0.574-0.309-0.588-0.83-0.552-1.377c0.102-2.575-0.305-5.009-1.987-7.082c-1.196-0.888-1.835-2.296-2.996-3.216
	c-0.913-1.127-2.227-1.793-3.26-2.784c-0.64-0.771-1.416-1.219-2.455-1.055c-0.627-0.05-1.171-0.249-1.478-0.854
	c-0.261-1.049-1.053-0.22-1.554-0.43c-1.457-0.24-2.747-0.854-3.906-1.753c-0.211-1.3-1.218-0.396-1.805-0.648
	c-0.636-0.045-1.177-0.259-1.497-0.855c-0.267-0.772-0.965-0.797-1.607-0.918c-0.204-0.01-0.401-0.051-0.597-0.109
	c-0.09-0.046-0.18-0.094-0.272-0.139c-0.569-0.423-1.141-0.842-1.816-1.089c-1.076-0.648-2.094-1.364-2.751-2.477
	c-0.587-1.185-1.746-1.97-2.267-3.201c-0.087-0.181-0.16-0.367-0.226-0.554c-0.192-0.692-0.652-1.173-1.248-1.543
	c-0.679-0.466-1.281-1.017-1.833-1.626c-1.098-1.486-2.064-3.065-3.139-4.572c-0.319-0.524-0.665-1.034-1.022-1.533
	c-0.914-1.633-2.311-3-2.681-4.928c-0.007-1.224-0.552-2.187-1.433-2.989c-0.529-0.514-0.955-1.108-1.382-1.705
	c-1.21-1.872-2.454-3.715-4.066-5.271c-1.061-0.815-1.849-1.909-2.856-2.78c-1.282-1.201-3.11-1.543-4.383-2.756
	c-1.31-1.284-3.065-0.283-4.509-0.872c-0.165-0.069-0.262-0.147-0.315-0.166c0.026,0.072,0.047,0.143,0.077,0.22
	c0.026,0.195,0.003,0.386-0.06,0.572c-0.261,0.456-0.713,0.628-1.17,0.785c-0.556,1.431-1.182,2.789-2.94,3.046
	c-0.158,0.118-0.315,0.233-0.459,0.365c-0.573,0.828-1.167,1.634-2.111,2.08c-0.261,0.175-0.543,0.294-0.861,0.315
	c-0.852-0.025-1.686-0.012-2.166,0.876c-0.115,0.314-0.207,0.635-0.305,0.955c-0.186,4.038-0.109,8.064,0.229,12.087
	c0.043,0.98-0.986,1.969,0.021,2.95c0.802,0.919,0.359,2.162,0.842,3.162c0.362,1.44,0.977,2.829,0.887,4.359
	c-0.416,2.181,0.39,4.119,1.209,6.052c0.139,0.155,0.257,0.327,0.356,0.508c0.078,0.19,0.109,0.391,0.111,0.594
	c-0.175,0.9-0.088,1.729,0.639,2.39c0.141,0.149,0.258,0.315,0.36,0.493c0.394,0.961,0.793,1.923,0.854,2.976
	c-0.147,0.93-0.137,1.816,0.655,2.502c0.158,0.15,0.295,0.312,0.43,0.48c0.774,1.142,1.614,2.261,1.835,3.666
	c0.141,0.88-0.1,1.671-0.826,2.256c-1.093,0.244-1.136,1.237-1.442,2.042c-0.05,0.196-0.112,0.39-0.174,0.583
	c-0.285,1.087-0.204,2.253-0.695,3.296c-0.149,0.387-0.359,0.736-0.606,1.067c-0.174,0.243-0.349,0.489-0.489,0.752
	c-0.29,0.779-0.349,1.543,0.089,2.29c0.271,0.31,0.576,0.589,0.837,0.908c0.265,0.367,0.408,0.771,0.375,1.229
	c-0.168,1.345-0.157,2.687,0.103,4.026c0.013,0.376-0.074,0.728-0.269,1.056c-1.568,2.023-3.796,1.791-5.97,1.74
	c-2.173-0.744-3.802-2.446-5.88-3.371c-0.686-2.108,0.606-3.893,0.951-5.833c0.149-0.208,0.355-0.299,0.61-0.277
	c0.326,0.332,0.481,0.681,0.338,0.835c-0.262-1.19-0.494-2.623-0.378-4.063c0-0.22,0.021-0.438,0.053-0.655
	c0.079-0.421,0.203-0.819,0.561-1.095c0.982-0.518,0.06-1.197,0.138-1.793c-0.06-0.305-0.058-0.608-0.01-0.915
	c-0.05-0.675,0.569-1.576-0.644-1.85c-0.987-1.336-1.358-2.891-1.616-4.486c0.21-2.142-0.59-4.047-1.402-5.949
	c-0.131-0.164-0.239-0.341-0.331-0.53c-0.067-0.199-0.093-0.406-0.093-0.616c0.136-0.865-0.14-1.624-0.595-2.339
	c-0.171-0.27-0.28-0.56-0.288-0.881c0.219-1.502-0.529-2.789-0.931-4.151c-0.077-0.194-0.135-0.395-0.185-0.596
	c-0.289-0.813-0.057-1.8-0.842-2.445c-0.374-0.249-0.443-0.615-0.419-1.023c0.078-0.804,0.256-1.63-0.522-2.238
	c-0.396-0.222-0.512-0.604-0.593-1.006c-0.054-0.307-0.074-0.617-0.09-0.928c-0.084-1.258-0.481-2.398-1.277-3.393
	c-0.33-0.439-0.479-0.944-0.533-1.481c-0.098-1.249-0.413-2.42-1.202-3.426c-0.199-0.249-0.356-0.515-0.462-0.814
	c-0.092-0.291-0.139-0.593-0.163-0.896c-0.061-0.762-0.126-1.52-0.937-1.918c-2.02-0.34-3.668,0.791-5.453,1.353
	c-2.053,0.438-2.233,2.084-2.402,3.737c-0.22,4.846-0.394,9.685,0.101,14.518c0.15,0.214,0.271,0.444,0.366,0.688
	c0.379,1.119,0.226,2.286,0.28,3.434c-0.021,0.736,0.036,1.467,0.278,2.176c0.316,2.403,0.906,4.771,0.936,7.21
	c-0.134,0.813-0.538,1.633,0.024,2.444c0.391,0.647,0.562,1.368,0.7,2.097c0.034,0.212,0.039,0.423,0.03,0.635
	c0.282,2.25,0.76,4.496-0.021,6.739c-0.187,0.974,0.098,1.836,0.616,2.647c0.92,1.92,0.528,3.699-0.58,5.397
	c-1.571,2.543-3.261,4.904-6.805,4.381c-2.1-0.529-4.299,0.063-6.391-0.561c-1.104-0.407-1.562-1.334-1.903-2.358
	c-0.421-1.483-1.193-3.016,0.537-4.224c0.508-0.364,1.025-0.719,1.594-0.987c0.566-0.213,0.996-0.57,1.188-1.17
	c0.153-0.387,0.322-0.766,0.521-1.13c0.212-0.394,0.45-0.766,0.693-1.135c0.911-1.896,0.103-3.97,0.612-5.902
	c0.392-2.645,0.641-5.276-0.534-7.812c-0.92-1.841-1.108-3.9-1.735-5.827c-0.646-2.095-1.063-4.251-1.716-6.343
	c-0.085-0.325-0.103-0.655-0.067-0.988c0.152-0.97,0.388-1.954-0.41-2.788c-0.383-0.224-0.477-0.58-0.457-0.99
	c0.072-0.492,0.091-0.965-0.445-1.238c-0.517-0.289-0.843-0.763-1.196-1.211c-0.121-0.153-0.229-0.312-0.332-0.476
	c-0.333-0.615-0.848-1.059-1.369-1.504c-0.783-0.906-1.031-2.228-2.202-2.831c-0.436-0.801-1.022-1.498-1.557-2.23
	c-0.689-1.127-1.819-1.943-2.291-3.223c-0.177-0.695-0.526-1.254-1.224-1.537c-0.47-0.211-0.915-0.451-1.257-0.846
	c-0.459-0.677-0.975-1.307-1.574-1.862c-0.62-0.622-0.997-1.362-1.09-2.24c-0.248-1.083-0.457-2.187-1.607-2.741
	c-0.19-0.083-0.353-0.201-0.498-0.349c-0.726-1.001-2.651-1.056-2.31-2.902c0.107-0.817,0.586-1.688-0.377-2.333
	c-0.521-0.27-1.062-0.492-1.605-0.706c-1.18-0.154-1.715-1.025-2.196-1.959c-0.768-0.673-1.339-1.517-2.034-2.245
	c-0.346-0.097-0.695-0.141-1.049-0.153c-0.22,0.088-0.703-0.132-0.501,0.454c-0.005,0.196-0.068,0.358-0.2,0.502
	c-0.175,0.114-0.357,0.193-0.556,0.248c-0.767,0.126-1.519,0.149-2.216-0.258c-1.134-1.15-0.825-3.465-3.033-3.74
	c-1.098-0.646-2.676-0.563-3.189-2.095c0.116-0.994,0.251-1.995-0.609-2.78c-0.6-1.014-1.589-1.678-2.313-2.573
	c-0.479-0.8-1.387-1.014-2.087-1.512c-0.657-0.463-0.904-1.241-1.406-1.813c-0.625-0.431-0.792,0.217-1.123,0.479
	c-1.673,0.792-1.993,0.52-1.82-1.557c0.491-1.437,0.054-2.922,0.237-4.187c-0.035-0.496-0.491-0.038-0.229-0.193
	c0.398,1.322,0.145,2.669,0.15,4.004c-0.135,0.196-0.318,0.292-0.561,0.267c-0.94-0.836-0.627-1.97-0.654-2.998
	c-0.021-0.9-0.085-1.685-1.161-1.897c-1.273-0.584-0.805-1.972-1.35-2.893c-0.322-0.275-0.453-0.626-0.417-1.041
	c-0.126-0.389,0.535-0.802-0.049-1.161c-1.305,0.572-2.194,2.109-3.917,1.628c-0.83-2.216,0.613-3.782,1.558-5.492
	c0.174-1.14-0.283-1.985-1.213-2.611c-0.465-0.258-0.778-0.66-1.064-1.094c-0.233-0.365-0.378-0.76-0.414-1.194
	c-0.454-1.483,0.166-2.989,0.123-3.994c0.039,0.087,0.156,0.637-0.456,1.077c-1.534-0.983-0.467-2.729-1.173-3.954
	c-0.628-1.511-1.834-2.852-1.386-4.679c0.107-0.439,0.374-0.775,0.703-1.064c0.354-0.423,0.683-0.845-0.058-1.225
	c-0.548-0.146-1.052-0.348-1.287-0.92c-0.452-0.798-1.248-0.355-1.875-0.519c-0.785-0.313-0.995-1.044-1.264-1.734
	c-0.223-0.702-0.483-1.396-0.635-2.12c-0.028-0.21-0.029-0.422-0.012-0.632c-0.026-1.846-0.423-3.694-0.015-5.537
	c-0.026-0.199-0.032-0.399-0.029-0.599c0.152-0.893-0.692-1.617-0.438-2.528c0.128-0.395,0.434-0.647,0.724-0.911
	c0.455-0.499,0.442-1.038,0.146-1.6c-0.135-0.132-0.271-0.264-0.412-0.387c-0.553-0.398-1.155-0.752-1.354-1.473
	c-0.681-1.249-1.69-2.418-1.003-4.006c0.07-1.524-0.86-2.625-1.602-3.808c-0.246-0.889,0.674-1.384,0.727-2.173
	c0.019-0.198,0.052-0.394,0.087-0.586c0.167-0.688,0.113-1.406,0.296-2.093c0.069-0.2,0.169-0.381,0.298-0.549
	c1.834-0.885,0.774-2.59,1.1-3.901c0.42-1.652-0.235-3.102-0.871-4.552c-0.13-0.165-0.232-0.346-0.319-0.536
	c-0.058-0.198-0.075-0.402-0.066-0.608c0.201-1.034-0.068-1.959-0.676-2.803c-0.364-0.51-0.586-1.092-0.845-1.654
	c-0.379-0.874-0.761-1.747-0.81-2.718c0.141-1.817-0.775-3.346-1.361-4.966c-0.461-0.571,0-1.615-0.993-1.916
	c-0.672-0.432-0.769-1.122-0.838-1.826c0.063-0.713,0.105-1.412-0.798-1.657c-0.78-0.222-1.529-0.489-1.878-1.321
	c-0.042-0.196-0.045-0.393-0.012-0.591c0.131-0.562,0.352-1.107,0.343-1.699c0.003-0.195,0.027-0.386,0.061-0.577
	c0.152-0.655,0.186-1.329,0.309-1.988c0.144-0.589-0.005-1.089-0.465-1.493c-0.156-0.128-0.295-0.265-0.433-0.409
	c-0.913-1.12-1.345-2.535-2.265-3.65c-0.725-1.186-1.491-2.337-2.547-3.266c-1.53-1.317-1.51-2.915-0.8-4.608
	c0.674-1.606,2.146-1.834,3.62-1.976c2.951-0.284,2.961-0.27,1.664-2.924c-0.868-1.782-1.241-3.498,0.529-4.994
	c0.422-0.537,0.93-0.961,1.598-1.166c0.896-0.165,1.521-0.665,1.852-1.52c0.145-0.266,0.331-0.499,0.557-0.701
	c0.774-0.491,1.098-1.324,1.55-2.062c0.314-0.292,0.681-0.477,1.108-0.529c0.611,0.068,0.947,0.424,1.058,1.013
	c-0.148,1.204,0.118,2.184,1.413,2.609c1.365,0.566,2.155,1.81,3.218,2.736c0.564,0.602,1.205,1.15,1.421,2
	c1.235,2.782,3.794,4.37,5.823,6.432c1.868,1.876,3.347,4.18,5.864,5.344c0.205,0.024,0.401,0.08,0.594,0.154
	c0.731,0.389,1.175,1.106,1.825,1.586c1.672,0.332,3.291,0.898,4.996,1.077c1.472,0.398,2.297,1.528,3.065,2.721
	c0.399,0.856,0.762,1.746,1.826,1.993c1.059,0.603,1.342,1.762,1.939,2.697c0.59,0.739,0.981,1.585,1.326,2.456
	c0.704,2.91,3.335,4.048,5.321,5.776c0.472,0.528,1.143,0.847,1.551,1.444c0.419,0.88,1.105,1.344,2.095,1.329
	c1.654,0.479,2.75,1.764,4.023,2.793c0.13,0.164,0.223,0.347,0.289,0.544c0.403,1.253,1.724,2.13,1.504,3.644
	c-0.254,1.271-1.124,1.862-2.312,2.106c-1.823,0.476-0.689,1.479-0.406,2.322c0.82,0.895,1.563,1.865,2.524,2.625
	c0.421,0.323,0.779,0.689,0.905,1.227c0.02,0.774,0.463,1.303,1.033,1.755c0.497,0.395,0.921,0.84,1.075,1.481
	c0.299,0.687,0.183,1.705,1.364,1.678c1.398,0.137,2.736,0.509,4.06,0.961c0.195,0.107,0.371,0.242,0.532,0.394
	c0.796,0.76,1.352,1.659,1.492,2.763c0.145,1.138,0.837,1.547,1.9,1.515c1.134,0.043,2.266-0.026,3.395,0.069
	c1.193,0.101,2.024,0.58,2.021,1.931c-0.011,0.232-0.063,0.461-0.149,0.67c-0.066,0.145-0.172,0.242-0.316,0.242
	c-0.167,0.004-0.129,0.263-0.068,0.244c1.694-0.541,3.376-0.314,5.063,0.029c0.444,0.104,0.686,0.406,0.803,0.824
	c0.214,0.797,0.785,0.517,1.296,0.416c0.532-0.106,1.054-0.095,1.563,0.104c1.502,0.783,2.18,2.416,3.5,3.39
	c0.795,1.189,2.143,0.83,3.246,1.154c1.275,0.355,2.582,0.111,3.87,0.181c1.166,0.092,2.377-0.193,3.478,0.415
	c1.235,1.539,2.935,1.87,4.781,1.809c0.631-0.017,1.222,0.172,1.813,0.356c0.472,0.169,0.949,0.321,1.418,0.505
	c0.454,0.213,0.878,0.468,1.101,0.951c0.523,0.88,1.436,0.524,2.188,0.674c0.312,0.012,0.616,0.063,0.911,0.164
	c0.434,1.065,1.878,0.404,2.365,1.375c0.101,0.873,0.91,0.748,1.445,1.009c0.583,0.218,1.163,0.441,1.602,0.908
	c1.374,1.334,2.801,2.542,4.92,2.209c1.009-0.089,1.942,0.193,2.865,0.55c0.637,0.616,1.357,0.24,2.059,0.16
	c3.925,0.023,7.842-0.027,11.719-0.716c1.31,0.195,2.631,0.435,3.807-0.472c0.171-0.143,0.354-0.26,0.548-0.368
	c0.794-0.371,1.633-0.6,2.502-0.718c0.428-0.056,0.841-0.171,1.247-0.31c1.26-0.298,2.418-1.069,3.796-0.824
	c0.201,0.064,0.392,0.159,0.57,0.269c1.229,0.71,2.535,0.405,3.829,0.285c0.201-0.052,0.405-0.081,0.613-0.094
	c0.433-0.003,0.807,0.172,1.16,0.4c1.064,0.743,2.226,0.813,3.446,0.501c1.051,0.061,2.11,0.082,3.011,0.747
	c0.263,1.184,1.211,0.622,1.89,0.739c0.654,0.04,1.189,0.296,1.55,0.866c0.468,0.854,1.318,0.884,2.133,0.982
	c0.532,0.034,0.764,1.052,1.497,0.457c0.303,0.068,0.549,0.234,0.774,0.436c0.916,0.934,2.175,1.001,3.336,1.303
	c0.956,0.3,1.896,0.207,2.832-0.093c4.214-0.629,7.563,1.015,10.412,3.962c0.339,1.294,1.15,1.84,2.487,1.561
	c2.318,0.309,4.634,0.622,6.937,1.011c0.993,0.741,0.907,1.754,0.373,2.608c-0.797,1.276-0.003,1.74,0.886,2.253
	c0.509,0.451,0.856,1.125,1.652,1.179c0.207,0.02,0.405,0.067,0.602,0.136c0.979,0.52,1.636,1.285,1.83,2.403
	c0.141,0.881,0.256,1.774,1.233,2.181c0.782,0.508,1.556,1.02,2.301,1.573c1.92,0.876,3.054,2.754,4.852,3.781
	c1.342,0.641,2.519,1.473,3.271,2.799c0.477,0.781,1.231,1.248,1.972,1.732c0.166,0.112,0.315,0.242,0.46,0.384
	c0.338,0.358,0.727,0.638,1.224,0.735c0.294,0.095,0.534,0.269,0.751,0.484c0.504,0.563,1.119,0.869,1.886,0.833
	c0.195,0.016,0.385,0.063,0.563,0.145c0.453,0.309,0.842,0.74,1.44,0.795c0.598,0.138,1.114,0.394,1.422,0.96
	c0.63,0.974,1.551,1.324,2.669,1.256c0.652-0.029,1.234,0.209,1.821,0.45c0.854,0.366,1.776,0.607,2.457,1.299
	c0.629,0.904,1.488,0.732,2.363,0.505c1.118-0.039,2.183,0.236,3.246,0.533c0.21,0.092,0.403,0.206,0.589,0.337
	c1.825,0.819,3.738,0.315,5.613,0.368c2.783,0.076,5.591-0.475,8.346,0.321c0.028,0.009,0.059,0.005,0.088,0.009
	c-0.012-0.076-0.021-0.151-0.035-0.227c0.006-0.219,0.068-0.419,0.186-0.603c0.92-0.536,1.995-0.619,2.961-1.021
	c0.821-0.001,1.549-0.266,2.193-0.774c0.164-0.113,0.342-0.203,0.524-0.284c0.557-0.192,1.079-0.447,1.525-0.842
	c0.313-0.246,0.65-0.447,1.021-0.592c0.834-0.277,1.619-0.635,2.162-1.374c0.636-0.998,1.519-1.74,2.469-2.415
	c1.287-1.085,2.197-0.709,2.862,0.718c0.554,1.183,0.894,2.44,1.393,3.643c0.779,2.026-0.638,2.915-1.987,3.841
	c-0.959,0.62-2.234,0.732-2.894,1.826c-0.072,1.136-0.362,2.211-0.794,3.252c-0.14,0.283-0.336,0.515-0.579,0.71
	c-0.155,0.115-0.325,0.211-0.499,0.297c-0.537,0.223-0.896,0.564-0.813,1.21c-0.006,0.415-0.187,0.741-0.484,1.014
	c-0.65,0.613-1.515,0.901-2.188,1.479c-0.149,0.141-0.308,0.265-0.472,0.385c-1.1,0.514-1.176,1.591-1.419,2.57
	c-0.668,0.593,0.349,0.851,0.269,1.331c0.012,0.205-0.055,0.385-0.185,0.542c-0.285,0.25-0.609,0.421-0.988,0.49
	c-0.207,0.035-0.438-0.111-0.622,0.087c0.261-0.026,0.366,0.136,0.424,0.357c-0.039,0.221-0.154,0.382-0.343,0.497
	c-0.419,0.187-0.849,0.178-1.287,0.099c-2.471-0.391-4.87-0.33-7.056,1.096c-0.107,0.309-0.246,0.601-0.421,0.877
	c-0.271,0.372-0.636,0.594-1.085,0.689c-1.526,0.195-2.992,0.489-4.078,1.751c-0.988,1.152-2.081,0.455-3.141,0.095
	c-1.221-0.455-2.443-1.146-3.593,0.148c-0.161,0.128-0.344,0.215-0.548,0.256c-0.661-0.041-1.103,0.568-1.739,0.596
	c-0.436,0.014-0.796-0.159-1.105-0.451c-0.75-0.806-1.584-1.46-2.748-1.527c-0.296-0.082-0.555-0.239-0.814-0.4
	c-1.984-1.243-2.104-1.184-2.38,1.17c-0.449,1.366-1.527,1.018-2.515,0.928c-0.775-0.109-1.457-0.428-2.046-0.939
	c-0.584-0.598-1.313-0.868-2.13-0.941c-0.399-0.074-0.763-0.223-1.079-0.48c-0.503-0.483-1.105-0.712-1.804-0.698
	c-0.841-0.187-1.36-0.828-1.957-1.365c-0.923-0.926-1.937-1.701-3.286-1.883c-1.297,0.268-2.242-0.232-3.29-1.036
	c-2.155-1.652-4.331-3.333-6.936-4.277c-0.88-0.311-1.231,0.048-1.271,0.929c-0.065,1.521,0.534,2.742,1.588,3.781
	c0.304,0.317,0.493,0.696,0.598,1.119c0.19,1.267,0.728,2.315,1.876,2.979c0.255,0.169,0.464,0.378,0.584,0.661
	c0.063,0.686,0.378,1.255,0.851,1.746c0.127,0.155,0.234,0.323,0.333,0.497c0.359,0.735,0.737,1.45,1.586,1.741
	c0.382,0.189,0.724,0.433,0.995,0.767c0.726,1.028,1.349,2.137,2.274,3.015c0.365,0.382,0.728,0.766,0.99,1.23
	c0.244,1.072,1.403,1.509,1.762,2.504c0.203,1.318,1.07,1.823,2.304,1.877c1.378,0.449,2.841-0.148,4.214,0.352
	c0.192,0.081,0.368,0.186,0.536,0.306c0.666,0.524,1.571,0.551,2.245,1.061c0.459,0.342,0.809,0.783,1.171,1.219
	c0.976,1.07,0.985,2.394,0.991,3.721c0.023,1.156-0.122,2.319,0.166,3.464c0.064,0.331,0.073,0.663,0.029,0.996
	c-0.512,1.938-0.074,3.623,1.348,5.044c0.644,0.443,0.945,1.057,0.912,1.832c-0.187,0.782-0.108,1.5,0.499,2.096
	c0.331,0.371,0.62,0.77,0.852,1.207c0.229,0.451,0.405,0.918,0.412,1.433c-0.095,0.609,0.06,1.128,0.56,1.521
	c0.508,0.505,0.943,1.056,1.209,1.729c0.063,0.198,0.093,0.405,0.106,0.61c0.03,1.049,0.729,1.704,1.387,2.381
	c0.926,1.083,1.738,2.258,2.712,3.307c0.371,0.61,0.816,1.188,0.94,1.924c0.028,0.714,0.198,1.354,0.919,1.696
	c0.629,0.358,1.006,0.966,1.481,1.479c0.595,0.85,1.241,1.663,1.908,2.46c0.884,1.259,1.945,2.361,3.153,3.287
	c1.216,0.93,1.828,2.01,1.43,3.546c-0.431,1.524-0.362,3.046,0.057,4.563c0.01,0.036,0.078,0.084,0.113,0.081
	c0.069-0.006,0.139-0.048,0.211-0.073c0.924,0.62,1.224,1.607,1.56,2.582c0.204,1.536,0.063,2.972-1.187,4.084
	c-0.839,0.487-1.762,0.642-2.713,0.674c-1.98-0.084-3.809,0.359-5.414,1.586c-2.912,1.158-3.421,0.94-4.54-1.937
	c-0.138-0.707-0.149-1.419-0.084-2.134c0.091-1.373,1.501-2.189,1.51-3.6c0.336-1.141,0.625-2.266-0.842-2.878
	c-2.226-2.505-4.315-5.104-5.839-8.107c-0.063-0.671-0.182-1.306-0.969-1.52c-0.572-0.27-0.822-0.812-1.128-1.312
	c-0.411-0.67-0.84-1.334-1.331-1.951c-1.052-1.391-2.152-2.747-3.114-4.206c-0.932-1.927-2.307-3.553-3.571-5.251
	c-0.479-0.65-0.936-1.316-1.333-2.023c-0.077-0.189-0.122-0.389-0.143-0.594c0.005-0.696-0.422-1.12-0.948-1.475
	c-0.418-0.292-0.771-0.652-1.059-1.076c-0.592-1.04-1.517-1.835-2.13-2.859c-0.46-0.897-1.168-1.59-1.913-2.244
	c-1.247-1.307-2.814-2.164-4.317-3.111c-0.312-0.261-0.563-0.574-0.808-0.893c-0.432-0.694-1.084-0.594-1.744-0.478
	c-2.385-0.399-4.799-0.65-7.081-1.515c-1.113-0.361-2.421-0.22-3.276-1.245c-0.142-0.315,0.362-0.397,0.263-0.703
	c-1.373,0.702-2.53-0.549-3.841-0.419c-0.322-0.009-0.644-0.036-0.963-0.079c-0.553-0.074-1.052-0.29-1.53-0.556
	c-0.942-0.483-1.942-0.85-2.862-1.38c-1.09,0.088-2.723-1.636-3.054,0.936c-0.442,2.017,0.585,3.675,1.314,5.406
	c0.751,1.996,0.613,4.389,2.62,5.816c0.395,0.145,0.764,0.337,1.083,0.613c1.02,1.221,2.261,2.216,3.4,3.316
	c0.76,0.856,1.764,1.173,2.849,1.344c0.893,0.14,1.652,0.448,1.586,1.575c-0.259,1.9-0.223,3.802-0.033,5.703
	c0.051,0.485-0.03,0.965-0.091,1.44c-0.068,1.07,0.014,2.149-0.212,3.208c-0.59,1.733-0.079,3.341,0.582,4.931
	c0.577,1.152,0.56,2.447,0.873,3.659c0.048,1.062,0.52,2.045,0.579,3.108c0.004,0.082-0.13,0.268,0.096,0.295
	c0.03-0.243,0.16-0.397,0.409-0.442c0.793,0.363,0.716,1.053,0.658,1.736c-0.31,1.466-0.731,2.955,0.825,4.045
	c0.501,0.55,0.672,1.119,0.093,1.717c-0.026,0.38-0.713-0.538-0.561,0.288c0.098,0.524-0.045,1.059-0.059,1.589
	c-0.133,0.753-0.582,1.328-1.062,1.888C1460.618,353.538,1460.762,355.013,1459.617,355.533z"/>
</svg>
