<?xml version="1.0" encoding="utf-8"?>
<!-- Generator: Adobe Illustrator 16.0.0, SVG Export Plug-In . SVG Version: 6.00 Build 0)  -->
<!DOCTYPE svg PUBLIC "-//W3C//DTD SVG 1.1//EN" "http://www.w3.org/Graphics/SVG/1.1/DTD/svg11.dtd">
<svg version="1.1" id="Layer_1" xmlns="http://www.w3.org/2000/svg" xmlns:xlink="http://www.w3.org/1999/xlink" x="0px" y="0px"
	 width="1920px" height="1080px" viewBox="0 0 1920 1080" enable-background="new 0 0 1920 1080" xml:space="preserve">
<g>
	<defs>
		<rect id="SVGID_1_" width="1920" height="1080"/>
	</defs>
	<clipPath id="SVGID_2_">
		<use xlink:href="#SVGID_1_"  overflow="visible"/>
	</clipPath>
	<g clip-path="url(#SVGID_2_)">
		<path fill="#9797FF" d="M-3369.35,925.835c-403.76-46.754-1439.33-60.122-1906.65-60.961V1080h7192V752.5
			c-136.92,128.135-670.33,255.85-1675.621,195.391C-1016.23,872.32-1862.34,943.874-2024.5,960.5S-2864.65,984.276-3369.35,925.835
			z"/>
		<path fill="#7575BF" d="M1348.22,794.046c-4.38-0.673-9.96-10.376-12.2-15.143l8.41-13.04l174.141-16.404l95.91,18.928
			l5.039,40.381c-23.409,9.395-71.76,28.183-77.81,28.183c-7.57,0-8-6.311-9.26-8.413c-1.261-2.104-5.04-1.262-6.73-0.841
			c-1.68,0.42-3.78,8.833-7.149,7.992c-2.69-0.674-3.36,0-3.36,0.42c-0.68,4.375-1.69,5.469-2.11,5.469h-1.68
			c-0.67,0-0.56-4.487-0.42-6.73c0.42-11.777-2.52-8.834-4.21-10.096c-1.68-1.261-5.04,0.421-5.46,3.786
			c-0.34,2.692-0.7,3.365-0.84,3.365c-2.36,1.01-3.23,3.786-3.37,5.048h-2.101c-0.42,0-0.84-2.945-2.949-4.207
			c-1.681-1.009-2.381-3.505-2.521-4.627c-2.1-11.777-7.989-16.825-8.83-23.134c-0.68-5.049-2.25-5.188-2.95-4.628
			c-0.42,1.543-2.189,4.964-5.89,6.31c-4.62,1.683-1.68,6.31-4.2,7.992c-2.02,1.346-2.81,0.561-2.949,0
			c-0.841-9.253-2.521-7.15-5.051-11.777c-2.01-3.702-5.04-10.796-6.31-13.881c-1-6.057-2.94-4.206-3.78-2.524
			c0,1.823-0.76,5.469-3.79,5.469s-3.22,1.963-2.939,2.944c-1.011,6.73-3.23,11.218-4.21,12.619c-0.84,0.42-2.771,1.009-3.78,0
			c-1.01-1.01-4.07-10.796-5.47-15.563c-2.021-2.355-3.931-0.981-4.631,0c-5.89,7.571-15.14,16.825-18.51,19.349
			c-2.689,2.019-7.01,1.963-8.83,1.683c-1.399-0.28-3.779-1.767-2.1-5.468c1.68-3.702,1.54-5.749,1.26-6.31
			c-1.68-1.683-2.1-4.907-2.1-6.31c-0.34-9.086-2.391-8.833-3.37-7.57c-2.24,2.804-7.4,8.833-10.09,10.515
			c-3.37,2.103-3.79,2.103-5.05,0c-1.261-2.104,0-3.785-5.051-5.047c-5.05-1.262-5.05-5.889-6.729-8.413
			c-1.34-2.02-4.771-0.841-6.311,0C1356.49,787.876,1352.59,794.719,1348.22,794.046z"/>
		<path fill="#9797FF" d="M1280.92,903.828c-83.29-1.262-106.84,4.206-141.33,9.254c-19.63,3.649-61.92,11.283-74.029,12.629
			c-12.121,1.346-22.16,33.369-23.561,40.38l874.49-12.619v-20.199c1.12-72.349,7.63-230.772,0.42-233.028
			c-6.73-2.104-22.3-2.524-31.55-2.944H1720.89c-6.05,0-14.02-3.085-17.239-4.628c-7.57-1.262-24.57-3.028-31.971,0
			c-7.399,3.029-18.51,3.506-23.13,3.366l-74.88-1.684c-19.77-1.12-63.17-2.354-78.65,1.684
			c-15.479,4.038-23.279,4.206-25.239,3.785c-28.46,1.822-95.74,7.992-137.13,18.087c-51.73,12.619-53.84,19.349-60.57,22.294
			c-5.38,2.354-9.25,8.833-10.51,11.777c-3.65,7.291-5.551,23.219,15.979,28.603c21.54,5.384,53.28,2.243,66.46,0
			c38.7-10.768,117.641-12.899,152.271-12.619c8.689-0.28,25.909-0.336,25.239,1.684c-0.84,2.523-0.84,1.682-7.149,4.206
			c-5.05,2.019-5.75,4.205-5.47,5.048c0,5.468,12.619,5.047,21.029,5.468c4.49-0.141,16.07,0.589,26.5,4.627
			c10.431,4.038,33.51,5.328,43.74,5.468c2.67,1.542,5.891,5.974-2.52,11.357c-10.521,6.729-55.101,29.863-87.07,35.753
			c-25.57,4.711-70.67,20.61-90.44,29.022c-13.029,5.749-37.43,14.723-53.409,15.564c-17.69,0.931-57.631,8.412-64.78,12.198
			C1296.23,901.388,1285.26,903.407,1280.92,903.828z"/>
	</g>
</g>
</svg>
