<?xml version="1.0" encoding="utf-8"?>
<!-- Generator: Adobe Illustrator 16.0.0, SVG Export Plug-In . SVG Version: 6.00 Build 0)  -->
<!DOCTYPE svg PUBLIC "-//W3C//DTD SVG 1.1//EN" "http://www.w3.org/Graphics/SVG/1.1/DTD/svg11.dtd">
<svg version="1.1" id="Layer_1" xmlns="http://www.w3.org/2000/svg" xmlns:xlink="http://www.w3.org/1999/xlink" x="0px" y="0px"
	 width="1920px" height="1080px" viewBox="0 0 1920 1080" enable-background="new 0 0 1920 1080" xml:space="preserve">
<g>
	<defs>
		<rect id="SVGID_1_" width="1920" height="1080"/>
	</defs>
	<clipPath id="SVGID_2_">
		<use xlink:href="#SVGID_1_"  overflow="visible"/>
	</clipPath>
	<g clip-path="url(#SVGID_2_)">
		<g opacity="0.8">
			
				<linearGradient id="SVGID_3_" gradientUnits="userSpaceOnUse" x1="935.6079" y1="-120.3701" x2="930.108" y2="-92.8706" gradientTransform="matrix(1 0 0 -1 -47.6602 910.04)">
				<stop  offset="0" style="stop-color:#B78051"/>
				<stop  offset="1" style="stop-color:#895527"/>
			</linearGradient>
			<path fill="url(#SVGID_3_)" d="M848.241,1013.76c-3.183-1.87-6.681-5.41-8.032-6.939v-3.2l75.487-19.106
				c2.755,1.819,8.032,5.505,7.096,5.692c-1.17,0.234-3.353,3.744-5.147,7.175c-1.435,2.749-5.017,6.499-6.628,8.029
				c-9.357,7.1-8.109,5.77-15.519,9.75c-7.408,3.979-13.257,5.62-17.313,5.93c-4.055,0.311-9.436-0.31-13.412-1.25
				C860.796,1018.9,852.218,1016.1,848.241,1013.76z"/>
			
				<linearGradient id="SVGID_4_" gradientUnits="userSpaceOnUse" x1="933.9932" y1="-34.3765" x2="931.1614" y2="-54.875" gradientTransform="matrix(1 0 0 -1 -47.6602 910.04)">
				<stop  offset="0" style="stop-color:#B78051"/>
				<stop  offset="1" style="stop-color:#895527"/>
			</linearGradient>
			<path fill="url(#SVGID_4_)" d="M842.625,957.686c-0.063,0.438-0.754,1.015-1.092,1.248l78.918,18.015l4.679-3.587
				c-3.431-0.624-6.55-10.841-13.646-15.676s-21.134-13.179-32.128-13.646c-10.996-0.468-19.185,3.353-26.358,6.161
				C845.822,953.007,842.703,957.14,842.625,957.686z"/>
			<path fill="none" stroke="#744215" stroke-width="0.6872" stroke-linecap="round" d="M855.175,951.564
				c-1.508,1.144-4.554,3.759-4.679,5.068"/>
			<path fill="none" stroke="#744215" stroke-width="0.6872" stroke-linecap="round" d="M855.042,1014.38
				c-1.507-1.15-4.554-3.76-4.679-5.07"/>
			<path fill="none" stroke="#744215" stroke-width="0.6872" stroke-linecap="round" d="M859.846,952.201
				c-0.881,0.758-2.675,2.955-2.799,5.682 M865.212,950.876c-0.7,0.378-2.146,1.818-2.333,4.545 M874.076,947.277
				c-1.425,0.916-4.619,3.825-5.987,8.144 M879.053,948.319c-2.592,1.673-7.932,5.928-8.554,9.563 M884.341,949.266
				c-0.778,1.61-4.666,1.8-6.999,8.617"/>
			<path fill="none" stroke="#744215" stroke-width="0.6872" stroke-linecap="round" d="M859.713,1013.74
				c-0.881-0.761-2.675-2.96-2.799-5.681 M865.079,1015.06c-0.7-0.369-2.146-1.81-2.333-4.539 M873.944,1018.66
				c-1.427-0.91-4.619-3.82-5.988-8.14 M878.92,1017.62c-2.592-1.67-7.931-5.93-8.553-9.561 M884.208,1016.67
				c-0.778-1.61-4.666-1.8-6.999-8.61"/>
			<path fill="none" stroke="#744215" stroke-width="0.6872" stroke-linecap="round" d="M891.688,955.559
				c-1.145,0.196-3.813,1.155-5.324,3.43 M896.97,957.185c-0.794-0.034-2.774,0.454-4.34,2.695 M906.422,958.665
				c-1.693,0.051-5.929,0.901-9.326,3.898 M910.152,962.121c-3.083,0.099-9.852,0.997-12.258,3.794 M914.197,965.655
				c-1.495,0.979-4.926-0.86-10.437,3.784"/>
			<path fill="none" stroke="#744215" stroke-width="0.6872" stroke-linecap="round" d="M891.556,1010.38
				c-1.146-0.2-3.814-1.15-5.325-3.43 M896.838,1008.75c-0.795,0.04-2.775-0.45-4.341-2.69 M906.29,1007.271
				c-1.694-0.051-5.93-0.9-9.326-3.891 M910.019,1003.82c-3.083-0.101-9.851-1-12.257-3.8 M914.065,1000.28
				c-1.496-0.977-4.927,0.859-10.438-3.779"/>
			
				<linearGradient id="SVGID_5_" gradientUnits="userSpaceOnUse" x1="913.1089" y1="-30.3213" x2="949.1085" y2="-111.8205" gradientTransform="matrix(1 0 0 -1 -47.6602 910.04)">
				<stop  offset="0" style="stop-color:#854C19"/>
				<stop  offset="1" style="stop-color:#5A330F"/>
			</linearGradient>
			<path fill="url(#SVGID_5_)" d="M829.759,968.682c-1.622,2.184-9.981,8.761-13.959,11.775c-0.936,0.715-0.806,1.962-0.624,2.496
				c-1.793,1.48-0.39,5.069,1.794,6.55c1.747,1.187,2.808,2.366,3.119,2.808c1.81,2.745,3.821,4.107,4.602,4.445
				c0.884,0.208,2.932,1.045,4.055,2.729c1.404,2.104,5.042,4.524,6.94,5.225c2.105,0.78,2.729,2.03,4.367,2.73
				c28.385,9.199,45.697,1.09,56.459-3.2c10.762-4.287,19.105-10.526,22.304-13.1c3.196-2.572,9.124,0,11.774,1.17
				c2.651,1.169,7.174,3.588,11.619,4.835c3.556,0.998,4.653,0.779,4.757,0.546c0.676-1.352,2.138-4.32,2.574-5.381
				c0.436-1.061,0.182-1.638,0-1.794c-0.182-0.233-0.437-0.717,0-0.779c0.436-0.063,0.961-0.391,1.169-0.546
				c1.248-1.481,1.56-5.692,1.326-6.628c-0.188-0.749-0.962-1.093-1.326-1.171c-0.728-0.182-1.84-0.686-0.468-1.247
				c1.373-0.562,1.508-1.741,1.403-2.262c-0.546-3.977-2.416-10.996-4.366-11.307c-1.949-0.313-7.175,0.545-11.932,2.885
				c-3.806,1.871-8.396,3.379-10.216,3.899c-1.934,0.749-3.353,0.312-3.821,0c-5.225-3.64-18.606-11.791-30.335-15.285
				c-14.66-4.367-24.253-3.899-33.143-3.354c-7.111,0.438-13.828,2.989-16.298,4.211
				C837.557,961.508,831.786,965.953,829.759,968.682z"/>
			<path fill="none" stroke="#B78051" stroke-width="0.859" stroke-linecap="round" d="M844.42,982.484
				c2.443-1.769,7.985-5.272,10.606-5.147c2.62,0.125,4.808,0.988,5.224,1.248c0.624,2.184-1.793,2.496-3.041,4.289
				c-1.203,1.73-0.858,1.238-3.197,3.431c-1.822,1.709-2.418,2.106-6.785,1.482"/>
			<path fill="#B78051" d="M816.581,980.768c-1.56,0.063-1.378,1.171-1.092,1.717c-2.495,0.935-1.3,2.625-0.391,3.353
				c7.252,4.289,6.94,7.096,9.826,7.954c2.309,0.686,1.504-1.559,0.937-2.885C825.393,989.814,818.53,980.69,816.581,980.768z"/>
			<path fill="none" stroke="#744215" stroke-width="0.6872" stroke-linecap="round" d="M815.489,982.484
				c-0.286-0.546-0.468-1.654,1.092-1.717c1.949-0.077,8.812,9.047,9.28,10.139c0.567,1.326,1.372,3.57-0.937,2.885
				c-2.886-0.858-2.574-3.665-9.826-7.954C814.189,985.109,812.994,983.419,815.489,982.484z M815.489,982.484
				c1.664,1.272,4.367,3.509,5.692,5.459c0.767,1.126,2.618,2.897,3.347,3.626"/>
			<path fill="none" stroke="#B78051" stroke-width="0.859" stroke-linecap="round" d="M836.076,985.76
				c0.104,1.43,0.108,4.772-0.702,6.706c-1.013,2.418-2.729,2.106-3.587,2.34c-0.858,0.234-2.027,0.156-3.197,1.169"/>
			<path fill="none" stroke="#B78051" stroke-width="0.859" stroke-linecap="round" d="M839.118,977.182
				c0.91,1.3,2.838,4.772,3.274,8.267c0.547,4.367-1.949,8.656-4.289,10.449c-2.339,1.794-2.416,1.794-5.068,2.808"/>
			<path fill="#3E2107" d="M830.396,974.367c-0.66-0.827-2.247-0.123-2.325,0.501c0,0.249-0.156,0.518,0,0.908
				c0.284,0.228,1.2,0.228,1.625,0.228l0,0C830.17,976.004,831.021,975.147,830.396,974.367z"/>
			<path fill="#3E2107" d="M834.879,973.506c-0.661-0.827-2.49-0.468-2.568,0.156c0,0.25-0.154,0.653,0.002,1.043
				c0.468,0.39,0.546,0.312,1.014,0.39S835.333,974.074,834.879,973.506z"/>
		</g>
	</g>
</g>
<path fill-rule="evenodd" clip-rule="evenodd" fill="#975A42" d="M872.097,1051.546c-5.78,0.265-11.464-0.256-16.981-2.11
	c-2.69-1.58-5.382-3.16-8.073-4.739c-1.676,0.154-2.895-0.919-4.271-1.575c-2.516-1.369-4.644-3.294-6.999-4.869
	c-0.334-0.134-0.684-0.2-1.041-0.129c-0.842,0.993-0.485,2.663-2.267,3.466c-1.941-1.326-1.404-3.6-1.754-5.525
	c0.228-1.319-0.183-2.362-1.358-3.068c-1.757-1.567-3.505-3.14-5.568-4.312c-2.607-5.011-7.505-8.9-7.458-15.212
	c0.023-0.449,0.098-0.894,0.203-1.33c-0.302-1.214,2.012-2.793-0.538-3.694c-1.781-2.31-1.727-5.245-2.71-7.825
	c-0.498-1.797-1.106-3.563-1.485-5.391c-0.339-1.561-0.839-3.07-1.473-4.538c-0.672-1.706-1.737-3.282-1.755-5.209
	c0.335-1.856,0.171-3.695-0.214-5.53c-0.019-2.547,0.926-4.924,1.278-7.406c0.303-2.504-0.896-4.836-0.823-7.308
	c0.052-1.782-0.172-3.666,1.594-4.892c2.485,0.596,1.72,2.893,2.241,4.458c1.653,4.969,5.172,6.323,9.666,3.585
	c7.112-4.333,12.132-16.796,10.302-24.993c-0.893-3.996-4.188-4.254-7.096-5.266c-0.421-0.273-0.684-0.659-0.793-1.148
	c1.022-3.712,4.727-4.797,7.123-7.157c1.738-1.71,3.862-3.033,5.602-4.783c1.066-0.914,2.281-1.621,3.412-2.448
	c4.426-3.068,8.938-5.993,13.856-8.235c3.228-1.504,6.795-2.112,9.952-3.805c1.954-1.098,3.91-2.186,5.903-3.215
	c4.715-2.078,9.344-0.994,13.961,0.373c6.639,1.797,13.567,1.865,20.259,3.341c3.508-0.905,6.216,0.306,9.515,1.88
	c3.38,1.612,6.703,4.317,10.861,4.278c0.451-0.07,0.861,0.027,1.234,0.285c1.327,1.689,0.425,4.339,2.476,5.715
	c1.118,0.667,2.02,1.602,3.036,2.39c2.583,0.789,4.317,2.836,6.442,4.309c2.771,2.112,4.747,4.905,6.658,7.757
	c0.822,1.115,1.419,2.383,2.356,3.423c3.171,4.5,5.047,9.58,6.67,14.78c0.467,2.565,1.291,5.089,0.937,7.753
	c-0.726,5.524-0.926,11.051-0.038,16.573c0.969,0.883,1.293,2.038,1.422,3.28c0.099,1.714,0.056,3.429,0.049,5.139
	c0.131,2.503,0.008,4.987-0.677,7.419c-0.96,2.978-1.199,6.053-1.228,9.158c-0.219,0.396-0.497,0.748-0.82,1.063
	c-2.493,2.179-1.938,5.786-3.835,8.241c-1.019,1.93-1.923,3.903-2.417,6.043c-1.058,1.345-2.06,2.727-2.718,4.328
	c-0.966,1.769-1.763,3.636-3.077,5.198c-3.463,3.741-7.176,7.198-11.432,10.037c-3.23,1.217-5.407,4.25-8.823,5.15
	c-2.147,0.659-3.942,2.555-6.476,1.871c-4.922,1.422-9.844,2.845-14.767,4.267c-0.96,1.107-2.207,1.199-3.535,1.014
	c-1.916-0.573-3.84-0.705-5.775-0.054c-1.293,0.134-2.581,0.244-3.428-1.059c-0.093-0.274-0.211-0.537-0.354-0.789
	c-3.963-0.686-7.924-0.769-11.884,0.022C874.143,1050.866,873.12,1051.206,872.097,1051.546z"/>
<path fill-rule="evenodd" clip-rule="evenodd" fill="#7B4139" d="M875.165,1050.526c3.959-1.726,7.921-1.56,11.885-0.022
	C883.088,1050.512,879.126,1050.519,875.165,1050.526z"/>
<path fill-rule="evenodd" clip-rule="evenodd" fill="#7A433B" d="M829.833,1041.788c-0.885-0.104-1.77-0.207-2.654-0.311
	c-3.504-3.3-6.728-6.835-9.265-10.952c-3.843-2.76-3.595-7.234-4.691-11.152c-0.24-3.102-0.22-6.075,3.651-7.045
	c0.646,4.661,2.62,8.715,5.771,12.164c1.084,1.187,1.577,2.445,1.476,3.998c0.063,0.628,0.164,1.254,0.146,1.893
	c0.072,1.07,0.025,2.173,1.011,2.913c0.334,0.23,0.648,0.49,0.955,0.757c0.563,0.553,1.083,1.157,1.744,1.618
	c0.368,0.206,0.714,0.433,1.066,0.662c1.721,1.097,2.318,2.622,1.765,4.59C830.607,1041.352,830.288,1041.646,829.833,1041.788z"/>
<path fill-rule="evenodd" clip-rule="evenodd" fill="#AD5E3F" d="M861.542,1035.5c-11.27,1.517-19.843-2.505-25.422-12.504
	c-4.885-8.755-3.688-17.871-1.23-26.947c4.209-15.538,19.479-17.536,33.856-15.021c12.659,2.213,19.887,11.214,21.248,24.813
	c0.355,3.55,1.573,6.986,0.661,10.797c-3.184,13.303-9.67,18.663-23.621,18.858C865.204,1035.522,863.373,1035.5,861.542,1035.5z"/>
<path fill-rule="evenodd" clip-rule="evenodd" fill="#AD5E3F" d="M925.637,981.5c-17.111-0.006-25.532-7.108-25.53-21.535
	c0.001-12.731,11.588-24.038,24.83-24.229c11.634-0.169,22.984,11.125,23.166,23.052C948.289,971.014,937.913,981.504,925.637,981.5
	z"/>
<path fill-rule="evenodd" clip-rule="evenodd" fill="#643A3B" d="M824.893,937.452c7.668,0.308,9.186,1.91,9.21,9.577
	c0.03,9.411-3.502,17.172-11.308,22.46c-5.826,3.947-11.196,0.887-11.618-6.157c-0.06-0.991-0.106-1.983-0.159-2.975
	c-1.678-1.933-1.004-4.041-0.283-6.03c1.908-5.265,4.18-10.344,8.451-14.218C820.955,938.945,822.001,936.204,824.893,937.452z"/>
<path fill-rule="evenodd" clip-rule="evenodd" fill="#AD5E3F" d="M924.084,1036.475c0.165,0.021,0.363-0.01,0.488,0.072
	c0.245,0.162,0.448,0.387,0.669,0.585c-4.293,2.28-12.627,0.542-16.416-3.425c-3.488-3.652-3.673-9.033-0.307-14.193
	c5.353-8.204,12.829-12.351,22.731-10.983c9.817,1.355,11.983,7.952,8.954,16.337c-1.15,3.182-2.906,6.852-7.153,7.626
	c0-3.46,3.406-5.234,4.108-8.344c0.677-1.192,0.731-2.501,0.693-3.824c-1.115-5.409-3.393-6.835-9.639-6.012
	c-5.953,1.577-10.909,4.405-13.258,10.519c-1.846,6.251-0.374,8.833,5.98,10.375
	C922.059,1035.479,923.249,1035.516,924.084,1036.475z"/>
<path fill-rule="evenodd" clip-rule="evenodd" fill="#7A4039" d="M928.081,1013.422c6.201-2.034,10.589,0.782,11.023,7.075
	c-0.837,1.231-0.483,2.739-0.941,4.058c-0.863,3.188-3.067,5.512-5.111,7.938c-2.99,1.327-5.979,2.654-8.968,3.981
	c-9.703,0.088-13.156-4.06-10.016-12.026c1.067,0.688,1.349,1.862,1.78,2.93c1.305,3.225,3.85,3.889,6.941,3.368
	c3.604-0.607,6.536-2.446,8.874-5.192c4.11-4.827,3.401-7.85-2.36-10.43C928.567,1014.795,927.675,1014.573,928.081,1013.422z"/>
<path fill-rule="evenodd" clip-rule="evenodd" fill="#AD5E3F" d="M883.465,916.503c2.417,0.53,5.417,0.634,7.922,2.575
	c4.043,3.133,4.351,7.546,0.664,10.968c-5.479,5.088-14.477,5.846-20.132,1.226c-2.648-2.164-3.999-5.234-1.48-8.711
	C872.992,919.037,877.915,916.572,883.465,916.503z"/>
<path fill-rule="evenodd" clip-rule="evenodd" fill="#79433B" d="M918.049,911.659c1.303,1.524,2.961,2.45,4.897,2.906
	c1.055,0.734,2.697,1.039,2.158,2.942c-0.057,1.545-0.281,3.774-2.132,1.345c-3.291-4.319-9.813-2.438-12.867-7.336
	c-0.817-1.312-3.266,1.846-5.339,0.886c0.28-0.604,0.561-1.207,0.841-1.811c2.229-4.107,5.559-1.673,8.521-1.447
	C915.722,909.533,917.152,910.183,918.049,911.659z"/>
<path fill-rule="evenodd" clip-rule="evenodd" fill="#AD5E3F" d="M901.373,989.153c-1.485-0.556-4.952,0.955-4.952-2.407
	c0-2.827,3.452-3.042,5.494-3.021c2.438,0.024,6.423,0.317,6.277,3.313C908.071,989.509,904.278,989.056,901.373,989.153z"/>
<path fill-rule="evenodd" clip-rule="evenodd" fill="#74413B" d="M833.139,1043.458c-1.102-0.557-2.203-1.113-3.305-1.67
	c-0.001,0,0.281-0.295,0.281-0.295c1.253-1.72-0.094-3.681,0.507-5.461c0.158-0.176,0.317-0.352,0.477-0.527
	c1.849,1.244,0.442,3.391,1.33,4.899c2.067-0.516-1.381-4.772,2.685-3.9c-0.667,0.656-0.509,1.491-0.496,2.294
	c0.037-0.794-0.098-1.624,0.481-2.306c2.66,1.951,5.32,3.903,7.98,5.854C839.869,1043.644,836.508,1043.583,833.139,1043.458z"/>
<path fill-rule="evenodd" clip-rule="evenodd" fill="#AD5E3F" d="M854.923,929.486c0.45,0.047,1.481-0.011,2.393,0.291
	c1.014,0.336,2.478,0.542,2.325,2.07c-0.11,1.114-1.165,1.502-2.188,1.663c-1.121,0.176-2.399,0.722-3.344,0.377
	c-1.92-0.699-5.615,0.945-5.499-2.147C848.705,929.178,852.115,929.538,854.923,929.486z"/>
<path fill-rule="evenodd" clip-rule="evenodd" fill="#6D3E3B" d="M954.269,1015.529c-0.446,4.506-2.924,5.982-7.177,4.813
	c-1.071-2.538,0.718-4.127,1.956-5.899c1.763-0.554,3.343-2.317,5.418-0.818C954.757,1014.297,954.688,1014.932,954.269,1015.529z"
	/>
<path fill-rule="evenodd" clip-rule="evenodd" fill="#79413A" d="M954.089,1005.503c-1.557-3.523-0.592-6.794,0.997-10.004
	c1.825-0.621,2.932,0.275,3.759,1.771c0.438,1.21,0.408,2.439,0.141,3.678c-0.218,0.923-0.519,1.825-0.76,2.745
	c-0.27,0.926-0.64,1.787-1.542,2.287c-0.688,0.276-1.38,0.283-2.069,0.001C954.438,1005.822,954.264,1005.662,954.089,1005.503z"/>
<path fill-rule="evenodd" clip-rule="evenodd" fill="#7A423A" d="M954.313,1013.569c-1.843-0.235-3.123,2.902-5.264,0.874
	c1.817-2.763,0.636-6.879,4.029-8.93c0.47,0.758,0.95,1.503,1.809,1.881c0.583,0.287,1.131,0.625,1.511,1.178
	c0.29,1.124-0.031,2.193-0.281,3.272C955.795,1012.712,955.491,1013.603,954.313,1013.569z"/>
<path fill-rule="evenodd" clip-rule="evenodd" fill="#AD5E3F" d="M888.746,972.191c-0.56,1.773-2.022,2.154-3.499,2.214
	c-1.505,0.061-3.326-0.27-3.588-1.927c-0.275-1.744,1.46-1.915,2.807-1.949C886.081,970.489,887.834,970.231,888.746,972.191z"/>
<path fill-rule="evenodd" clip-rule="evenodd" fill="#77413A" d="M826.215,1034.577c-0.409-0.05-0.818-0.1-1.228-0.149
	c-1.293-1.381-0.799-3.445-1.876-4.908c0.337-0.344,0.674-0.687,1.01-1.029c3.235-0.52,4.08,2.537,5.987,4.004
	c0.533,0.893,0.042,1.518-0.547,2.116c-0.173,0.087-0.353,0.175-0.524,0.264c-0.188,0.013-0.384,0.024-0.57,0.041
	c-0.448,0.031-0.822-0.7-1.342-0.137c-0.171,0.047-0.336,0.088-0.506,0.129C826.481,1034.798,826.349,1034.688,826.215,1034.577z"/>
<path fill-rule="evenodd" clip-rule="evenodd" fill="#79443D" d="M955.202,989.242c1.76,1.038,3.024,2.553,4.094,4.255
	c0.827,1.699,1.409,3.328-1.154,4.063c-1.019-0.687-2.037-1.374-3.056-2.062C955.124,993.414,955.163,991.328,955.202,989.242z"/>
<path fill-rule="evenodd" clip-rule="evenodd" fill="#AD5E3F" d="M845.712,974.156c-0.078,1.64-1.576,1.466-2.516,1.653
	c-1.509,0.302-3.117-0.166-3.37-1.876c-0.159-1.074,1.176-1.37,2.168-1.401C843.452,972.487,844.977,972.381,845.712,974.156z"/>
<path fill-rule="evenodd" clip-rule="evenodd" fill="#7B4139" d="M954.265,968.477c-0.044,3.988-0.088,7.977-0.132,11.965
	c-1.921-5.6-1.323-11.228-0.202-16.863C954.042,965.211,954.153,966.844,954.265,968.477z"/>
<path fill-rule="evenodd" clip-rule="evenodd" fill="#AD5E3F" d="M901.486,1009.913c-0.239,1.215-1.147,1.524-2.179,1.53
	c-1.148,0.006-2.492-0.028-2.492-1.596c-0.001-0.92,0.997-1.213,1.84-1.282C899.839,1008.468,900.974,1008.567,901.486,1009.913z"/>
<path fill-rule="evenodd" clip-rule="evenodd" fill="#AD5E3F" d="M856.911,946.662c-0.041,1.251-0.639,1.716-1.564,1.75
	c-1.176,0.044-2.497-0.01-2.512-1.561c-0.009-0.886,0.977-1.21,1.845-1.278C855.734,945.489,856.611,945.723,856.911,946.662z"/>
<path fill-rule="evenodd" clip-rule="evenodd" fill="#AD5E3F" d="M857.714,970.865c-0.42,1.009-1.149,1.571-2.27,1.503
	c-0.908-0.056-1.781-0.564-1.677-1.42c0.137-1.114,1.214-1.408,2.271-1.391C856.917,969.573,857.653,969.789,857.714,970.865z"/>
<path fill-rule="evenodd" clip-rule="evenodd" fill="#AD5E3F" d="M911.32,920.644c1.154,0.049,1.664,0.561,1.585,1.561
	c-0.063,0.801-0.646,1.107-1.347,1.14c-0.925,0.044-1.759-0.43-1.79-1.31C909.736,921.134,910.576,920.708,911.32,920.644z"/>
<path fill-rule="evenodd" clip-rule="evenodd" fill="#AD5E3F" d="M842.194,966.685c1.474-1.556,2.701-1.26,4.509-0.712
	C845.342,967.617,844.131,967.812,842.194,966.685z"/>
<path fill-rule="evenodd" clip-rule="evenodd" fill="#AD5E3F" d="M896.387,1024.623c0.012,0.845-0.668,1.095-1.256,1.245
	c-1.048,0.27-2.021-0.031-2.268-1.169c-0.054-0.246,0.888-0.898,1.454-1.046C895.161,1023.433,895.953,1023.752,896.387,1024.623z"
	/>
<path fill-rule="evenodd" clip-rule="evenodd" fill="#AD5E3F" d="M903.674,927.867c-1.429,1.93-2.664,1.911-4.209,0.846
	C900.429,926.904,901.844,927.57,903.674,927.867z"/>
<path fill-rule="evenodd" clip-rule="evenodd" fill="#AD5E3F" d="M829.518,984.93c-1.402,1.372-2.538,1.297-3.573,0.216
	c-0.132-0.138,0.112-0.938,0.383-1.105C827.519,983.305,828.393,984.157,829.518,984.93z"/>
<path fill-rule="evenodd" clip-rule="evenodd" fill="#763F39" d="M829.105,1034.502c0.335-0.67,0.669-1.339,1.003-2.008
	c1.613,0.582,1.781,1.639,0.991,3.011c-0.001,0,0.012-0.012,0.012-0.012c-0.595,0.718-1.081,1.693-2.284,0.955
	C828.448,1035.732,828.53,1035.081,829.105,1034.502z"/>
<path fill-rule="evenodd" clip-rule="evenodd" fill="#AD5E3F" d="M872.696,955.601c-0.281,0.219-0.645,0.728-0.952,0.695
	c-0.603-0.063-1.463-0.27-1.698-0.7c-0.499-0.914,0.393-1.001,1.02-1.039C871.73,954.517,872.38,954.619,872.696,955.601z"/>
<path fill-rule="evenodd" clip-rule="evenodd" fill="#AD5E3F" d="M856.141,964.809c-0.382,0.141-0.961,0.513-1.551,0.528
	c-0.722,0.021-1.338-0.552-0.837-1.236c0.292-0.397,1.165-0.464,1.785-0.493C855.986,963.587,856.569,963.78,856.141,964.809z"/>
<path fill-rule="evenodd" clip-rule="evenodd" fill="#AD5E3F" d="M913.417,1005.779c-0.742,1.109-1.545,1.486-2.547,1.305
	c-0.147-0.026-0.376-0.583-0.29-0.757C911.122,1005.234,912.071,1005.5,913.417,1005.779z"/>
<path fill-rule="evenodd" clip-rule="evenodd" fill="#AD5E3F" d="M899.953,913.803c-2.204,0.887-3.454,0.816-4.826,0.399
	C896.364,912.9,897.691,913.642,899.953,913.803z"/>
<path fill-rule="evenodd" clip-rule="evenodd" fill="#AD5E3F" d="M870.391,1039.632c0.588-1.446,2.12-1.428,2.48-0.94
	c1.263,1.706-0.358,1.218-1.182,1.2C871.274,1039.883,870.862,1039.73,870.391,1039.632z"/>
<path fill-rule="evenodd" clip-rule="evenodd" fill="#915540" d="M954.104,1008.5c-1.613-0.559-1.784-1.612-1.026-2.986
	c0.337-0.004,0.675-0.008,1.012-0.012c-0.001,0.001,0.12,0.011,0.12,0.011C955.74,1006.563,955.562,1007.554,954.104,1008.5z"/>
<path fill-rule="evenodd" clip-rule="evenodd" fill="#AD5E3F" d="M899.019,977.536c-0.574,0.386-0.91,0.777-1.27,0.8
	c-0.285,0.017-0.599-0.418-0.899-0.652c0.323-0.297,0.608-0.746,0.983-0.84C898.094,976.778,898.477,977.199,899.019,977.536z"/>
<path fill-rule="evenodd" clip-rule="evenodd" fill="#AD5E3F" d="M879.369,977.62c0.413,0.452,0.703,0.77,0.993,1.087
	c-0.301,0.229-0.639,0.674-0.896,0.632c-0.347-0.058-0.632-0.489-0.943-0.761C878.778,978.289,879.033,978.001,879.369,977.62z"/>
<path fill-rule="evenodd" clip-rule="evenodd" fill="#AD5E3F" d="M886.864,1038.575c-0.433-0.329-0.738-0.562-1.044-0.795
	c0.301-0.31,0.559-0.777,0.917-0.876c0.248-0.067,0.635,0.378,0.959,0.594C887.449,1037.818,887.201,1038.14,886.864,1038.575z"/>
<path fill-rule="evenodd" clip-rule="evenodd" fill="#7E443A" d="M808.892,984.527c0.132-1.323,0.263-2.646,0.395-3.969
	c1.253,1.595,1.175,3.214,0.092,4.853C809.216,985.116,809.054,984.821,808.892,984.527z"/>
<path fill-rule="evenodd" clip-rule="evenodd" fill="#7B4139" d="M816.894,1012.471c0.045-1.278,0.09-2.557,0.135-3.835
	C819.013,1009.985,818.271,1011.239,816.894,1012.471z"/>
<path fill-rule="evenodd" clip-rule="evenodd" fill="#7B4139" d="M896.058,1051.335c-1.628-0.003-3.256-0.005-4.883-0.008
	C892.805,1050.082,894.432,1050.091,896.058,1051.335z"/>
<path fill-rule="evenodd" clip-rule="evenodd" fill="#975A42" d="M823.111,1029.52c1.511,1.298,2.109,2.945,1.878,4.908
	C821.84,1033.756,823.604,1031.206,823.111,1029.52z"/>
<path fill-rule="evenodd" clip-rule="evenodd" fill="#975A42" d="M829.104,1036.501c0.669-0.336,1.339-0.672,2.008-1.008
	c-0.363,1.994,0.806,4.243-0.996,6c0.238-2.038-0.234-3.788-2.025-5.004c0.17-0.124,0.341-0.249,0.511-0.374
	C828.769,1036.244,828.937,1036.372,829.104,1036.501z"/>
<path fill-rule="evenodd" clip-rule="evenodd" fill="#975A42" d="M826.215,1034.577c0.301-0.037,0.602-0.064,0.904-0.082
	c0.569,0.681,0.579,1.348-0.054,1.996C826.291,1036.071,826.135,1035.376,826.215,1034.577z"/>
<path fill-rule="evenodd" clip-rule="evenodd" fill="#6D3D3A" d="M827.065,1036.491c0.018-0.665,0.035-1.331,0.053-1.996
	c0.001,0-0.021,0.017-0.021,0.017c0.342-0.28,0.682-0.277,1.021,0.008l-0.018-0.021c0.606,0.664,0.594,1.332,0.018,2.006
	c0,0-0.028-0.014-0.028-0.015C827.748,1036.49,827.406,1036.491,827.065,1036.491z"/>
<path fill-rule="evenodd" clip-rule="evenodd" fill="#5F393C" d="M874.146,990.464c4.025,0.474,7.104,2.357,8.981,6.03
	c2.146,6.037,3.037,12.204,1.819,18.563c-1.569,8.195-6.83,13.243-15.025,14.491c-9.671,1.473-18.759-2.347-22.911-9.628
	c-3.633-6.371-2.369-15.095,3.077-21.33C856.531,991.212,864.007,986.901,874.146,990.464z"/>
<path fill-rule="evenodd" clip-rule="evenodd" fill="#7A4139" d="M874.146,990.464c-3.106-0.225-6.292-1.005-9.303-0.571
	c-9.185,1.321-20.855,14.475-18.368,24.896c1.431,5.992,5.076,9.46,10.184,11.953c6.814,3.325,13.938,2.753,20.046-0.842
	c6.581-3.874,7.894-11.17,7.792-18.369c-0.053-3.685-0.888-7.357-1.369-11.036c7.726,11.483,2.407,33.744-10.677,36.463
	c-2.5,0.52-4.921,0.415-7.386,0.503c-1.959-0.764-3.922-0.724-5.889-0.029c-8.034-2.432-15.114-6.091-16.684-15.345
	c-1.82-10.737,3.515-18.624,11.491-24.712C859.907,988.852,866.676,986.191,874.146,990.464z"/>
<path fill-rule="evenodd" clip-rule="evenodd" fill="#5F393C" d="M859.176,1033.431c1.971-1.429,3.934-1.428,5.889,0.029
	C863.102,1033.45,861.139,1033.44,859.176,1033.431z"/>
<path fill-rule="evenodd" clip-rule="evenodd" fill="#5F393C" d="M913.173,966.467c0.33-5.655-1.09-11.408,0.945-16.969
	c1.693-3.179,4.085-5.61,7.417-7.098c4.064-1.813,7.761-1.316,11.176,1.543c7.151,5.989,9.284,14.17,6.03,22.877
	c-1.793,4.796-5.043,7.778-10.17,8.478c-5.238,0.716-9.461-1.078-12.662-5.322C915.017,968.794,914.543,967.277,913.173,966.467z"/>
<path fill-rule="evenodd" clip-rule="evenodd" fill="#7A4139" d="M913.173,966.467c3.752,1.961,5.524,6.387,10.259,7.38
	c5.574,1.169,10.822-0.645,13.348-5.682c4.305-8.583,2.395-17.391-5.075-23.54c-3.412-2.809-6.873-2.607-10.658-0.656
	c-2.724,1.404-4.628,3.681-6.928,5.529c2.795-8.92,13.048-13.367,20.867-9.052c4.731,2.611,10.715,16.344,9.418,21.601
	c-0.119,0.482-0.176,0.98-0.292,1.464c-2.228,9.266-6.207,13.799-12.743,14.526C923.31,978.934,917.079,974.972,913.173,966.467z"/>
<path fill-rule="evenodd" clip-rule="evenodd" fill="#5F393C" d="M928.081,1013.422c2.771,1.397,7.311,0.746,7.69,4.96
	c0.354,3.934-1.781,7.371-4.96,9.841c-1.804,1.4-3.648,2.666-5.972,3.396c-6.029,1.896-10.681-0.125-10.771-7.17
	C916.317,1017.696,921.411,1014.557,928.081,1013.422z"/>
<path fill-rule="evenodd" clip-rule="evenodd" fill="#643A3B" d="M938.163,1024.555c-0.954-1.646-0.138-2.882,0.941-4.058
	C939.076,1021.916,939.5,1023.439,938.163,1024.555z"/>
<path fill-rule="evenodd" clip-rule="evenodd" fill="#5F393C" d="M891.124,926.504c-4.651,5.387-9.302,6.188-16.982,2.928
	c-2.166-3.573-0.614-5.909,2.569-7.689C883.207,918.109,889.966,920.345,891.124,926.504z"/>
<path fill-rule="evenodd" clip-rule="evenodd" fill="#794039" d="M891.124,926.504c-3.157-5.503-11.038-6.747-15.741-2.564
	c-1.799,1.6-1.111,3.602-1.241,5.492c-3.499-3.434-3.404-6.543,0.737-9.035c4.338-2.609,9.181-2.823,13.858-0.985
	C891.999,920.692,893.199,923.174,891.124,926.504z"/>
<path fill-rule="evenodd" clip-rule="evenodd" fill="#975A42" d="M835.099,1036.492c0,1.296,0,2.592,0,4.532
	c-1.417-2.024-1.235-3.31,0.015-4.521L835.099,1036.492z"/>
<path fill-rule="evenodd" clip-rule="evenodd" fill="#643A3B" d="M956.297,1005.581c-0.144,0.964-0.287,1.927-0.432,2.891
	c-0.587,0.009-1.174,0.019-1.761,0.028c0.606-0.977,0.669-1.971,0.104-2.987C954.905,1005.536,955.602,1005.559,956.297,1005.581z"
	/>
<path fill-rule="evenodd" clip-rule="evenodd" fill="#975A42" d="M828.118,1036.504c-0.006-0.668-0.012-1.337-0.018-2.005
	c0.335,0.001,0.67,0.001,1.006,0.003c-0.001,0.666-0.002,1.332-0.003,1.999l-0.492-0.001L828.118,1036.504z"/>
<path fill-rule="evenodd" clip-rule="evenodd" fill="#975A42" d="M828.118,1034.52c-0.341-0.003-0.681-0.005-1.021-0.008
	C827.442,1033.829,827.782,1033.797,828.118,1034.52z"/>
</svg>
