<?xml version="1.0" encoding="utf-8"?>
<!-- Generator: Adobe Illustrator 16.0.0, SVG Export Plug-In . SVG Version: 6.00 Build 0)  -->
<!DOCTYPE svg PUBLIC "-//W3C//DTD SVG 1.1//EN" "http://www.w3.org/Graphics/SVG/1.1/DTD/svg11.dtd">
<svg version="1.1" id="Layer_1" xmlns="http://www.w3.org/2000/svg" xmlns:xlink="http://www.w3.org/1999/xlink" x="0px" y="0px"
	 width="1920px" height="1080px" viewBox="0 0 1920 1080" enable-background="new 0 0 1920 1080" xml:space="preserve">
<path fill="#F7F7F7" d="M177,559c-2.761,0-5,2.239-5,5v39c0,2.761,2.239,5,5,5h144.375l11.367,12.991
	c1.824,2.085,5.258,0.795,5.258-1.976V603v-5v-34c0-2.761-2.239-5-5-5H177z"/>
<g>
	<path d="M190.704,573.797c0.192-0.036,0.348-0.096,0.348-0.24c0-0.061-0.036-0.145-0.108-0.24
		c-0.108-0.084-0.156-0.144-0.156-0.191c0-0.036,0.048-0.061,0.156-0.061c0.36,0,0.792,0.204,0.792,0.385
		c0,0.131-0.144,0.252-0.168,0.396c1.392,0.323,2.003,1.187,2.003,2.063c0,1.079-0.959,2.135-2.519,2.135
		c-1.655,0-2.626-1.007-2.626-2.135C188.425,574.972,189.145,574.036,190.704,573.797z M189.181,575.907
		c0,0.815,0.611,1.619,1.835,1.619c1.199,0,1.799-0.804,1.799-1.619c0-0.804-0.6-1.631-1.799-1.631
		C189.792,574.276,189.181,575.104,189.181,575.907z M191.651,580.045c-0.012-0.228-0.288-0.336-0.899-0.516
		c-0.132-0.036-0.228-0.084-0.228-0.145c0-0.059,0.108-0.119,0.384-0.167c0.551,0,1.043,0.048,1.271,0.083
		c0.216,0.049,0.264,0.121,0.264,0.229c0,0.084-0.024,0.18-0.036,0.313c0,0.527,0,1.234,0.012,1.654
		c0.012,0.275,0.168,0.384,0.588,0.408l2.171-0.024c0.899-0.071,0.468-0.348,1.535-0.348c0.396,0,0.899,0.048,0.899,0.407
		c0,0.145-0.12,0.265-0.324,0.265h-4.33c-0.804-0.013-1.248-0.204-1.295-0.804L191.651,580.045z M195.706,572.945
		c0-0.133-0.312-0.348-1.032-0.66c-0.18-0.06-0.276-0.132-0.276-0.18c0-0.072,0.144-0.12,0.432-0.132c0.048,0,1.691,0.204,1.691,0.6
		c0,0.084-0.048,0.18-0.048,0.3l-0.012,3.766c0.168-0.012,0.36,0,0.54-0.023c0.552-0.108,0.3-0.336,1.224-0.336
		c0.24,0,0.684,0,0.684,0.324c0,0.155-0.132,0.299-0.348,0.299l-2.111,0.049c-0.012,2.17-0.083,2.71-0.204,3.046
		c-0.108,0.228-0.24,0.407-0.348,0.407c-0.108,0-0.18-0.144-0.192-0.539V572.945z"/>
	<path d="M201.289,574.12c0-0.228-0.492-0.384-0.948-0.516c-0.12-0.036-0.252-0.084-0.252-0.155c0-0.061,0.096-0.121,0.372-0.192
		c1.427,0.071,1.583,0.216,1.583,0.407c0,0.061-0.012,0.121-0.012,0.192v2.782c-0.012,0.18,0.048,0.276,0.384,0.276
		c0.456,0,2.339-0.468,3.61-1.188c0.108-0.048,0.192-0.072,0.24-0.072c0.024,0,0.036,0,0.036,0.024c0,0.035-0.06,0.107-0.204,0.228
		c-1.475,0.995-3.826,1.739-4.222,1.739c-0.348,0-0.503-0.611-0.552-0.863L201.289,574.12z M206.302,578.714
		c0.12-0.024,0.192-0.108,0.192-0.204c0-0.072-0.036-0.156-0.12-0.228c-0.084-0.072-0.12-0.132-0.12-0.168
		c0-0.048,0.036-0.06,0.108-0.06c0.216,0,0.731,0.191,0.731,0.359c0,0.096-0.084,0.191-0.108,0.348
		c1.331,0.216,1.943,1.056,1.943,1.907c0,1.007-0.864,2.026-2.363,2.026c-1.571,0-2.411-1.02-2.411-2.026
		c0-0.876,0.647-1.751,2.027-1.919L206.302,578.714z M204.827,580.645c0,0.792,0.587,1.571,1.763,1.571
		c1.08,0,1.619-0.779,1.619-1.571c0-0.779-0.54-1.559-1.619-1.559C205.415,579.086,204.827,579.865,204.827,580.645z
		 M208.245,572.885c-0.012-0.119-0.504-0.42-1.067-0.672c-0.12-0.035-0.336-0.107-0.336-0.18c0-0.084,0.3-0.156,0.372-0.156
		c0.251,0,1.859,0.24,1.859,0.624c0,0.108-0.072,0.216-0.084,0.372l-0.024,3.322c0,2.015-0.156,2.375-0.396,2.711
		c-0.048,0.071-0.096,0.096-0.132,0.096c-0.12,0-0.192-0.276-0.192-0.744v-1.415c-0.552,0.013-1.091,0.06-1.487,0.084
		c-0.216,0.048-0.24,0.144-0.396,0.144c-0.216,0-1.056-0.371-1.056-0.479c0-0.048,0.072-0.06,0.204-0.06
		c0.12,0,0.684,0.023,0.815,0.023c0.563,0,1.151-0.035,1.919-0.084v-2.074c-0.72,0.012-1.248,0.048-1.535,0.072
		c-0.288,0.035-0.3,0.155-0.456,0.155c-0.18,0-0.971-0.3-0.971-0.491c0-0.037,0.048-0.061,0.156-0.061
		c0.06,0,0.132,0.012,0.228,0.023c0.276,0.013,0.504,0.013,0.731,0.013c0.588,0,1.067-0.024,1.847-0.06V572.885z"/>
	<path d="M212.222,583.487c0.6-0.54,0.815-0.815,0.815-1.199c0-0.181-0.072-0.3-0.24-0.3c-0.18,0-0.444-0.229-0.444-0.576
		c0-0.324,0.288-0.6,0.587-0.6c0.36,0,0.684,0.229,0.684,0.779c0,0.96-0.6,1.523-1.271,2.039L212.222,583.487z"/>
	<path d="M225.154,576.891c-0.132,1.151-0.972,2.027-2.542,2.027c-1.775,0-2.771-1.104-2.771-2.303c0-1.02,0.744-2.027,2.279-2.243
		c0.216-0.048,0.432-0.108,0.432-0.323c0-0.072-0.036-0.156-0.084-0.229c-0.072-0.072-0.12-0.144-0.12-0.191
		c0-0.036,0.036-0.072,0.12-0.072c0.336,0,0.755,0.336,0.755,0.455c0,0.097-0.144,0.181-0.24,0.336
		c1.463,0.324,2.111,1.128,2.183,2.184L225.154,576.891z M220.597,576.65c0,0.9,0.66,1.8,2.003,1.8c1.248,0,1.883-0.899,1.883-1.8
		c0-0.898-0.635-1.799-1.883-1.799C221.256,574.852,220.597,575.752,220.597,576.65z M227.721,572.98
		c-0.024-0.275-0.527-0.6-1.043-0.791c-0.192-0.048-0.419-0.132-0.419-0.216c0-0.108,0.372-0.144,0.432-0.144
		c0.168,0,1.847,0.203,1.847,0.611c0,0.107-0.072,0.228-0.072,0.384l-0.012,7.495c-0.024,1.691-0.156,2.34-0.408,2.688
		c-0.048,0.06-0.096,0.096-0.132,0.096c-0.12,0-0.192-0.288-0.192-0.744v-4.413c-0.288,0.036-0.719,0.06-1.103,0.084
		c-0.216,0.06-0.24,0.144-0.396,0.144c-0.192,0-1.067-0.324-1.067-0.491c0-0.036,0.048-0.048,0.156-0.048
		c0.048,0,0.108,0,0.192,0.012c0.216,0,0.42,0.012,0.612,0.012c0.6,0,1.127-0.035,1.607-0.084v-2.158
		c-0.503,0.012-0.923,0.047-1.127,0.06c-0.276,0.036-0.3,0.155-0.443,0.155c-0.192,0-0.984-0.335-0.984-0.491
		c0-0.036,0.048-0.06,0.156-0.06c0.06,0,0.132,0.012,0.228,0.023c0.336,0.012,0.6,0.012,0.828,0.012
		c0.468,0,0.792-0.012,1.343-0.047V572.98z"/>
	<path d="M234.024,574.204c-0.432,0.072-0.528,0.204-0.731,0.204c-0.3,0-1.248-0.492-1.248-0.647c0-0.048,0.06-0.072,0.156-0.072
		c0.072,0,0.168,0.013,0.276,0.036c0.611,0.096,1.343,0.12,2.159,0.12c0.479,0,0.995-0.013,1.523-0.013
		c0.336-0.035,0.288-0.119,0.636-0.119c0.06,0,0.132,0.012,0.228,0.012c0.396,0.023,0.516,0.096,0.516,0.191
		c0,0.108-0.168,0.24-0.252,0.348c-1.067,2.76-2.59,4.534-5.289,6.357c-0.216,0.132-0.36,0.18-0.432,0.18
		c-0.024,0-0.048-0.012-0.048-0.036c0-0.048,0.096-0.155,0.3-0.3c2.063-1.583,4.054-4.054,4.677-6.345L234.024,574.204z
		 M239.733,572.98c-0.024-0.228-0.384-0.516-1.067-0.814c-0.168-0.061-0.264-0.133-0.264-0.192c0-0.072,0.12-0.132,0.396-0.156
		c0.755,0.12,1.175,0.288,1.463,0.384c0.18,0.072,0.216,0.156,0.216,0.264c0,0.096-0.036,0.192-0.036,0.324l-0.012,7.064
		c0,2.207-0.072,2.506-0.288,2.962c-0.084,0.144-0.168,0.216-0.24,0.216c-0.096,0-0.168-0.144-0.168-0.516V572.98z"/>
	<path d="M251.913,577.179c0.516-0.072,0.384-0.252,1.056-0.252c0.432,0,1.139,0,1.139,0.372c0,0.144-0.144,0.287-0.372,0.287
		c-0.24,0-1.355-0.023-1.607-0.023c-2.458,0-5.061,0.145-6.224,0.24c-0.504,0.084-0.588,0.252-0.852,0.252
		c-0.312,0-1.619-0.54-1.619-0.721c0-0.047,0.048-0.071,0.132-0.071c0.06,0,0.144,0.012,0.24,0.036
		c0.468,0.084,1.223,0.119,2.159,0.119c1.487,0,3.43-0.084,5.373-0.191L251.913,577.179z M245.664,573.353
		c-0.06-0.132-0.479-0.288-0.839-0.407c-0.12-0.036-0.252-0.084-0.252-0.145c0-0.06,0.108-0.119,0.432-0.168
		c1.295,0.084,1.463,0.156,1.463,0.336c0,0.061-0.024,0.133-0.024,0.217v1.799c0.024,0.432,0.108,0.432,0.828,0.432
		c0.936,0,2.243-0.049,3.142-0.108c0.492-0.084,0.348-0.336,1.164-0.336c0.3,0,0.875,0,0.875,0.324c0,0.144-0.168,0.288-0.492,0.288
		c-1.487,0.06-3.754,0.107-5.049,0.119c-0.912,0-1.175-0.348-1.2-0.707L245.664,573.353z M245.904,580.129
		c-0.024-0.216-0.3-0.348-0.9-0.516c-0.144-0.036-0.228-0.084-0.228-0.132c0-0.06,0.108-0.12,0.372-0.181
		c0.563,0,1.043,0.049,1.283,0.084c0.216,0.049,0.264,0.121,0.264,0.229c0,0.084-0.036,0.18-0.048,0.313
		c0,0.539,0,1.211,0.012,1.654c0.024,0.252,0.168,0.359,0.576,0.384l2.579-0.024c0.875-0.06,0.468-0.323,1.523-0.323
		c0.288,0,0.924,0,0.924,0.396c0,0.133-0.12,0.264-0.336,0.264h-4.726c-0.803-0.012-1.247-0.203-1.283-0.814L245.904,580.129z"/>
	<path d="M265.162,575.571c-0.12,1.151-0.984,1.991-2.543,1.991c-1.619,0-2.446-1.08-2.446-2.111c0-0.911,0.647-1.811,1.979-2.026
		l0.072-0.024c0.228-0.012,0.335-0.132,0.335-0.275c0-0.061-0.012-0.12-0.048-0.18c-0.096-0.072-0.156-0.145-0.156-0.204
		c0-0.036,0.048-0.072,0.144-0.072c0.312,0,0.719,0.216,0.719,0.396c0,0.133-0.144,0.24-0.18,0.36
		c1.427,0.192,2.075,1.02,2.111,1.787L265.162,575.571z M260.892,575.488c0,0.803,0.576,1.594,1.715,1.594
		c1.247,0,1.883-0.791,1.883-1.594c0-0.805-0.636-1.619-1.883-1.619C261.468,573.869,260.892,574.684,260.892,575.488z
		 M263.567,579.373c-0.42,0.024-0.492,0.192-0.732,0.192c-0.312,0-1.151-0.444-1.151-0.552c0-0.048,0.06-0.061,0.204-0.061
		c0.072,0,0.168,0,0.276,0.013c0.503,0.048,1.043,0.071,1.643,0.071c0.804,0,1.715-0.035,2.747-0.096
		c0.803-0.048,0.684-0.264,1.283-0.264c0.096,0,0.216,0.012,0.372,0.023c0.492,0.037,0.696,0.217,0.696,0.36
		c0,0.108-0.12,0.204-0.324,0.216l-3.059,0.023c0.276,0.301,0.36,0.42,0.36,0.492s-0.06,0.12-0.12,0.24
		c1.799,1.319,1.727,0.803,2.422,1.355c0.48,0.479,0.804,0.803,0.804,1.079c0,0.12-0.072,0.252-0.228,0.252
		c-0.108,0-0.264-0.084-0.576-0.323c-0.624-0.528-1.631-1.416-2.603-2.076c-1.763,1.992-3.886,2.723-4.162,2.723
		c-0.036,0-0.06-0.012-0.06-0.023c0-0.048,0.132-0.145,0.384-0.288c2.063-1.163,3.286-2.675,3.286-3.095
		c0-0.18-0.12-0.311-0.228-0.323L263.567,579.373z M267.681,572.957c0-0.216-0.372-0.492-1.043-0.744
		c-0.204-0.071-0.312-0.144-0.312-0.203c0-0.072,0.144-0.12,0.432-0.145c0.06,0,1.727,0.217,1.727,0.588
		c0,0.084-0.048,0.191-0.048,0.348v3.43c0,0.504-0.048,1.225-0.192,1.656c-0.108,0.275-0.24,0.42-0.348,0.42
		s-0.192-0.168-0.192-0.553L267.681,572.957z"/>
	<path d="M275.591,574.828c0.983-0.061,0.432-0.324,1.739-0.359c0.54,0.012,0.768,0.191,0.768,0.348c0,0.023,0,0.264-0.468,0.264
		c-0.768,0.035-2.579,0.084-4.042,0.144c-0.396,0.084-0.48,0.228-0.72,0.228c-0.3,0-1.271-0.443-1.271-0.611
		c0-0.036,0.048-0.061,0.156-0.061c0.048,0,0.12,0,0.192,0.013c0.6,0.06,1.211,0.084,1.775,0.084
		C273.996,574.876,275.291,574.828,275.591,574.828z M274.463,576.123c0.18-0.023,0.384-0.048,0.384-0.252
		c0-0.06-0.024-0.119-0.084-0.18c-0.084-0.072-0.132-0.132-0.132-0.168c0-0.035,0.048-0.061,0.132-0.061
		c0.348,0,0.684,0.229,0.684,0.373c0,0.107-0.12,0.203-0.156,0.312c1.295,0.204,1.907,1.031,1.907,1.847
		c0,0.947-0.803,1.895-2.267,1.895c-1.535,0-2.351-0.947-2.351-1.906C272.581,577.154,273.18,576.339,274.463,576.123z
		 M274.427,573.664c-0.36,0-1.235-0.659-1.235-0.779c0-0.035,0.036-0.06,0.144-0.06c0.048,0,0.12,0.012,0.216,0.024
		c0.864,0.18,1.595,0.18,2.471,0.18c0.3,0.012,0.48,0.156,0.48,0.299c0,0.156-0.228,0.313-0.768,0.324L274.427,573.664z
		 M273.288,577.934c0,0.708,0.552,1.428,1.643,1.428c1.043,0,1.559-0.72,1.559-1.428c0-0.719-0.516-1.438-1.559-1.438
		C273.84,576.495,273.288,577.215,273.288,577.934z M279.716,572.873c-0.024-0.156-0.624-0.443-1.067-0.672
		c-0.144-0.048-0.384-0.144-0.384-0.228s0.3-0.144,0.396-0.144c0.372,0,1.188,0.228,1.439,0.323c0.348,0.12,0.432,0.216,0.432,0.336
		c0,0.096-0.072,0.216-0.072,0.372l-0.012,7.76c0,2.41-0.516,2.506-0.54,2.506c-0.12,0-0.192-0.275-0.192-0.743v-3.515
		c-0.384,0.013-0.755,0.024-1.139,0.072c-0.24,0.061-0.264,0.168-0.396,0.168c-0.168,0-0.899-0.336-0.899-0.492
		c0-0.035,0.048-0.059,0.144-0.059c0.06,0,0.3,0.012,0.36,0.012c0.684,0,1.391-0.049,1.931-0.061v-2.171
		c-0.54,0.024-0.852,0.024-1.187,0.072c-0.264,0.036-0.288,0.144-0.432,0.144c-0.192,0-0.983-0.324-0.983-0.479
		c0-0.048,0.06-0.06,0.168-0.06c0.06,0,0.132,0,0.228,0.012c0.24,0.012,0.444,0.012,0.624,0.012c0.624,0,1.043-0.035,1.583-0.035
		V572.873z"/>
	<path d="M288.454,573.797c0.192-0.024,0.084-0.072,0.456-0.072c0.611,0,0.755,0.036,0.755,0.145c0,0.107-0.192,0.251-0.3,0.395
		c-0.372,0.6-0.996,1.464-1.403,1.932c0.276,0.228,0.708,0.552,0.899,0.684c0.492,0.3,0.552-0.036,1.248,0.924
		c0.156,0.203,0.228,0.383,0.228,0.516c0,0.144-0.084,0.24-0.204,0.24c-0.096,0-0.216-0.061-0.348-0.192
		c-0.324-0.265-1.02-1.067-2.039-1.968c-1.043,1.008-2.099,1.871-3.862,2.723c-0.12,0.061-0.216,0.084-0.276,0.084
		c-0.036,0-0.06-0.023-0.06-0.047c0-0.049,0.072-0.121,0.24-0.217c1.619-0.947,3.778-2.77,4.761-4.797
		c-0.6,0.012-2.051,0.084-2.591,0.132c-0.312,0.06-0.36,0.18-0.516,0.18c-0.228,0-1.211-0.503-1.211-0.636
		c0-0.048,0.06-0.072,0.168-0.072c0.06,0,0.132,0.013,0.216,0.024c0.468,0.084,1.056,0.12,1.667,0.12
		C287.087,573.893,287.71,573.845,288.454,573.797z M287.207,580.201c-0.024-0.24-0.3-0.348-0.912-0.54
		c-0.132-0.024-0.216-0.071-0.216-0.132s0.096-0.12,0.372-0.168c0.552,0,1.056,0.048,1.295,0.084
		c0.204,0.048,0.252,0.107,0.252,0.216c0,0.072-0.036,0.181-0.036,0.324c0,0.527,0,1.175,0.012,1.618
		c0,0.265,0.156,0.373,0.576,0.396l2.506-0.023c0.9-0.061,0.468-0.336,1.547-0.336c0.384,0,0.888,0.035,0.888,0.407
		c0,0.132-0.108,0.265-0.324,0.265h-4.665c-0.792-0.013-1.248-0.205-1.284-0.816L287.207,580.201z M291.692,573.041
		c-0.024-0.156-0.503-0.492-1.007-0.695c-0.204-0.072-0.3-0.145-0.3-0.204c0-0.072,0.144-0.108,0.432-0.12
		c0.564,0.061,1.032,0.204,1.235,0.288c0.348,0.108,0.432,0.191,0.432,0.312c0,0.084-0.048,0.191-0.048,0.348l-0.012,5.037
		c0,0.516-0.048,1.188-0.191,1.68c-0.108,0.275-0.24,0.42-0.348,0.42s-0.192-0.168-0.192-0.553V573.041z"/>
	<path d="M307.725,572.945c0-0.264-0.468-0.564-1.031-0.804c-0.12-0.048-0.348-0.12-0.348-0.192c0-0.048,0.096-0.096,0.348-0.144
		c0.072,0,1.871,0.18,1.871,0.624c0,0.096-0.06,0.215-0.06,0.371l-0.048,3.287c-0.024,1.187-0.156,1.643-0.3,1.895
		c-0.096,0.132-0.168,0.191-0.228,0.191c-0.144,0-0.204-0.312-0.204-0.743v-0.924c-0.528,0.036-0.768,0.06-1.151,0.084
		c-0.216,0.048-0.252,0.156-0.408,0.156c-0.216,0-0.875-0.312-0.983-0.42c-0.012,0.516-0.048,0.888-0.108,1.007
		c-0.108,0.229-0.252,0.42-0.372,0.42c-0.096,0-0.18-0.155-0.192-0.551l-3.034,0.047c-0.12,0.457-0.324,0.721-0.48,0.721
		c-0.108,0-0.192-0.145-0.192-0.456c-0.012-0.216-0.024-2.831-0.036-3.395c0-0.167,0-0.288-0.816-0.563
		c-0.144-0.036-0.228-0.084-0.228-0.145c0-0.071,0.108-0.131,0.384-0.18c1.223,0.061,1.415,0.168,1.415,0.324
		c0,0.072-0.036,0.156-0.036,0.24v0.947l3.022-0.061v-1.15c-0.024-0.181-0.276-0.324-0.72-0.504
		c-0.156-0.036-0.264-0.108-0.264-0.168c0-0.061,0.12-0.12,0.42-0.145c1.163,0.133,1.331,0.24,1.331,0.42
		c0,0.084-0.024,0.168-0.024,0.288c0,0.216,0,0.456-0.012,0.72c0.072,0,0.168,0,0.312,0.023c0.276,0.012,0.504,0.012,0.708,0.012
		c0.552,0,0.912-0.023,1.463-0.06V572.945z M301.488,575.068v1.834l3.022-0.047v-1.859L301.488,575.068z M303.143,580.992
		c-0.024-0.131-0.252-0.215-0.636-0.312c-0.12-0.036-0.228-0.071-0.228-0.12c0-0.023,0.132-0.156,0.54-0.156
		c0.503,0,1.043,0.084,1.175,0.145c1.104,0,1.775,0,2.915-0.048c0.276-0.024,0.396-0.06,0.635-0.108
		c0.024-0.191,0.072-0.852,0.108-1.451c-0.768,0-2.386,0.072-3.55,0.12c-0.348,0.072-0.408,0.204-0.612,0.204
		c-0.251,0-1.175-0.396-1.175-0.54c0-0.036,0.06-0.06,0.192-0.06c0.048,0,0.108,0,0.18,0.012c0.408,0.036,0.983,0.061,1.643,0.061
		c0.971,0,2.111-0.049,3.058-0.108c0.228-0.036,0.204-0.084,0.456-0.084c0.072,0,0.156,0,0.275,0.013
		c0.36,0.023,0.468,0.083,0.468,0.18c0,0.084-0.12,0.203-0.168,0.323c-0.156,0.36-0.335,0.864-0.419,1.271
		c0.324,0.06,0.492,0.18,0.492,0.276c0,0.096-0.144,0.168-0.408,0.168c-0.912,0.023-2.699,0.059-3.982,0.071
		c-0.12,0.071-0.216,0.048-0.216,0.192v1.043c0.012,0.229,0.12,0.275,0.3,0.275c0.24,0,0.6,0.012,1.02,0.012
		c0.611,0,1.343-0.012,2.063-0.023c0.72-0.084,0.492-0.312,1.235-0.312c0.324,0,0.924,0,0.924,0.348
		c0,0.144-0.144,0.276-0.408,0.276h-4.81c-0.875,0-1.067-0.313-1.067-0.66V580.992z M307.725,574.469
		c-0.492,0.012-0.936,0.047-1.14,0.071c-0.275,0.036-0.3,0.155-0.456,0.155c-0.108,0-0.3-0.059-0.708-0.251
		c-0.084-0.06-0.144-0.097-0.18-0.12c0,0.623-0.024,1.319-0.06,1.883c0.216,0,0.551,0.012,0.768,0.012
		c0.6,0,1.199-0.023,1.775-0.084V574.469z"/>
	<path d="M189.229,588.725c-0.12-0.229-0.348-0.324-0.84-0.48c-0.096-0.023-0.204-0.072-0.204-0.132c0-0.048,0.096-0.12,0.396-0.168
		c0.444,0,1.008,0.084,1.368,0.181c0.983-0.013,1.751-0.024,2.698-0.097c0.3-0.012,0.108-0.084,0.66-0.084
		c0.384,0,0.66,0.024,0.66,0.144c0,0.121-0.264,0.301-0.288,0.48l-0.54,2.771c0.348,0.084,0.564,0.204,0.564,0.3
		c0,0.084-0.156,0.144-0.516,0.144c-0.6,0-2.47,0.048-3.178,0.084c-0.036,0.276-0.12,0.624-0.324,0.647
		c-0.156,0-0.228-0.252-0.276-1.031L189.229,588.725z M190.188,588.424c-0.12,0.061-0.192,0.024-0.204,0.24l0.06,2.879
		c1.643,0,2.135-0.024,2.687-0.18c0.036-0.541,0.108-1.979,0.132-3.011L190.188,588.424z M194.266,593.174
		c0-0.096-0.06-0.216-0.156-0.313c-0.072-0.047-0.108-0.107-0.108-0.155s0.048-0.084,0.144-0.084c0.24,0,0.792,0.239,0.792,0.407
		c0,0.108-0.132,0.204-0.18,0.348c1.332,0.24,1.955,1.092,1.955,1.92c0,0.971-0.84,1.942-2.363,1.942
		c-1.511,0-2.291-0.972-2.291-1.931c0-0.863,0.647-1.751,2.027-1.943C194.206,593.354,194.266,593.27,194.266,593.174z
		 M192.707,595.236c0,0.72,0.563,1.451,1.679,1.451c1.127,0,1.679-0.731,1.679-1.451c0-0.743-0.551-1.475-1.679-1.475
		C193.271,593.762,192.707,594.493,192.707,595.236z M196.245,587.404c0-0.264-0.468-0.563-1.031-0.814
		c-0.12-0.037-0.348-0.108-0.348-0.181c0-0.084,0.312-0.144,0.384-0.144c0.348,0,1.164,0.18,1.416,0.275
		c0.335,0.12,0.408,0.229,0.408,0.348c0,0.108-0.048,0.217-0.048,0.36l-0.048,3.67c-0.012,1.619-0.108,1.835-0.288,2.171
		c-0.096,0.18-0.18,0.252-0.252,0.252c-0.12,0-0.192-0.275-0.192-0.684v-1.463c-0.36,0.035-0.768,0.06-1.151,0.084
		c-0.216,0.047-0.252,0.144-0.396,0.144c-0.216,0-1.019-0.36-1.019-0.468c0-0.036,0.072-0.061,0.204-0.061
		c0.084,0,0.492,0.012,0.588,0.012c0.6,0,1.199-0.023,1.775-0.084v-1.799c-0.492,0.013-0.864,0.061-1.08,0.072
		c-0.264,0.036-0.276,0.145-0.444,0.145c-0.18,0-1.043-0.288-1.043-0.492c0-0.036,0.048-0.048,0.132-0.048
		c0.06,0,0.144,0,0.252,0.024c0.3,0.012,0.527,0.012,0.731,0.012c0.552,0,0.839-0.024,1.451-0.061V587.404z"/>
	<path d="M207.741,591.639c-1.667,0.66-3.646,1.247-5.229,1.547c-0.312,0.084-0.336,0.216-0.516,0.216
		c-0.24,0-1.811-0.587-1.811-0.804c0-0.035,0.072-0.06,0.18-0.06c0.06,0,0.132,0,0.204,0.012c0.42,0.06,0.912,0.097,1.391,0.097
		c0.588,0,1.164-0.049,1.583-0.156c-0.036-0.204-0.036-0.72-0.036-1.463c-1.295-0.097-1.979-0.912-1.979-1.715
		c0-0.732,0.576-1.477,1.799-1.656c0.168-0.023,0.408-0.06,0.408-0.252c0-0.047-0.024-0.107-0.084-0.18
		c-0.084-0.072-0.12-0.132-0.12-0.168c0-0.047,0.036-0.072,0.132-0.072c0.288,0,0.671,0.205,0.671,0.36
		c0,0.097-0.083,0.181-0.096,0.3c1.188,0.229,1.715,0.972,1.715,1.691c0,0.719-0.576,1.535-1.715,1.667
		c0,0.768-0.012,0.983-0.012,1.354c0.6-0.107,2.507-0.527,3.514-0.923v-4.054c-0.024-0.168-0.54-0.504-1.055-0.695
		c-0.18-0.072-0.324-0.145-0.324-0.217c0-0.06,0.132-0.119,0.468-0.144c0.516,0.06,0.947,0.204,1.403,0.349
		c0.24,0.107,0.288,0.168,0.288,0.264c0,0.084-0.036,0.203-0.036,0.383v3.623c0.252-0.013,0.612-0.024,0.708-0.049
		c0.516-0.072,0.276-0.287,0.996-0.287c0.18,0,0.744,0,0.744,0.323c0,0.132-0.156,0.276-0.432,0.288
		c-0.264,0.012-1.476,0.023-2.015,0.023l-0.024,0.708c-0.012,0.852-0.252,1.403-0.456,1.511c-0.18,0-0.24-0.168-0.264-0.491V591.639
		z M202.212,589.324c0,0.707,0.6,1.259,1.631,1.259c0.984,0,1.487-0.611,1.487-1.235c-0.012-0.623-0.503-1.247-1.511-1.247
		C202.752,588.101,202.212,588.712,202.212,589.324z M206.074,593.293c0-0.071-0.024-0.131-0.072-0.18
		c-0.096-0.071-0.132-0.144-0.132-0.191c0-0.036,0.024-0.061,0.084-0.061c0.06,0,0.708,0.156,0.708,0.36
		c0,0.096-0.108,0.204-0.144,0.36c1.295,0.215,1.895,1.031,1.895,1.834c0,0.863-0.744,1.823-2.219,1.823
		c-1.5,0-2.315-0.911-2.315-1.847c0-0.791,0.612-1.607,1.919-1.823C205.99,593.533,206.074,593.414,206.074,593.293z
		 M204.551,595.332c0,0.696,0.551,1.392,1.655,1.392c1.02,0,1.547-0.695,1.547-1.392c0-0.695-0.528-1.402-1.547-1.402
		C205.103,593.93,204.551,594.637,204.551,595.332z"/>
	<path d="M212.065,592.178c1.224-0.923,2.603-2.194,3.382-3.957c0.012-0.036,0.084-0.24,0.084-0.252c0-0.12-0.192-0.336-0.624-0.636
		c-0.18-0.108-0.24-0.181-0.24-0.24c0-0.071,0.108-0.108,0.252-0.108c0.096,0,0.204,0.025,0.288,0.049
		c0.216,0.072,1.307,0.552,1.307,0.852c0,0.191-0.48,0.971-0.815,1.486c0.108,0.229,0.587,0.805,0.887,1.032
		c0.324,0.288,0.468-0.048,1.08,1.212c0.072,0.119,0.096,0.215,0.096,0.311c0,0.168-0.12,0.276-0.264,0.276
		c-0.12,0-0.252-0.071-0.348-0.216c-0.564-0.756-1.235-1.667-1.703-2.326c-1.199,1.559-3.322,2.794-3.526,2.794
		c-0.036,0-0.048-0.013-0.048-0.036C211.874,592.37,211.934,592.274,212.065,592.178z M218.266,593.174
		c0-0.096-0.06-0.216-0.156-0.313c-0.072-0.047-0.108-0.107-0.108-0.155s0.048-0.084,0.144-0.084c0.24,0,0.792,0.239,0.792,0.407
		c0,0.108-0.132,0.204-0.18,0.348c1.332,0.24,1.955,1.092,1.955,1.92c0,0.971-0.84,1.942-2.363,1.942
		c-1.511,0-2.291-0.972-2.291-1.931c0-0.863,0.647-1.751,2.027-1.943C218.206,593.354,218.266,593.27,218.266,593.174z
		 M216.707,595.236c0,0.72,0.563,1.451,1.679,1.451c1.127,0,1.679-0.731,1.679-1.451c0-0.743-0.551-1.475-1.679-1.475
		C217.271,593.762,216.707,594.493,216.707,595.236z M220.197,589.66c-0.612,0.023-0.996,0.084-1.308,0.096
		c-0.3,0.023-0.384,0.144-0.587,0.144c-0.264,0-0.983-0.312-0.983-0.444c0-0.047,0.084-0.071,0.216-0.071
		c0.084,0,0.492,0.012,0.587,0.012c0.612,0,1.511-0.036,2.075-0.096v-2.003c-0.024-0.264-0.612-0.563-1.043-0.744
		c-0.18-0.06-0.3-0.131-0.3-0.203c0-0.061,0.108-0.12,0.408-0.145c0.132,0,1.727,0.276,1.727,0.6c0,0.072-0.036,0.156-0.036,0.301
		l-0.012,4.438c-0.012,0.6-0.072,1.271-0.312,1.654c-0.072,0.12-0.144,0.192-0.216,0.192c-0.12,0-0.216-0.216-0.216-0.815V589.66z"
		/>
	<path d="M229.667,591.291c-0.132,1.15-0.972,2.026-2.542,2.026c-1.775,0-2.771-1.103-2.771-2.303c0-1.019,0.744-2.026,2.279-2.243
		c0.216-0.047,0.432-0.107,0.432-0.323c0-0.071-0.036-0.155-0.084-0.228c-0.072-0.072-0.12-0.145-0.12-0.192
		c0-0.036,0.036-0.071,0.12-0.071c0.336,0,0.755,0.336,0.755,0.455c0,0.096-0.144,0.18-0.24,0.336
		c1.463,0.324,2.111,1.127,2.183,2.183L229.667,591.291z M225.109,591.051c0,0.899,0.66,1.799,2.003,1.799
		c1.248,0,1.883-0.899,1.883-1.799s-0.635-1.799-1.883-1.799C225.769,589.252,225.109,590.151,225.109,591.051z M232.245,587.381
		c-0.024-0.229-0.384-0.516-1.067-0.815c-0.168-0.06-0.264-0.132-0.264-0.192c0-0.072,0.12-0.131,0.396-0.156
		c0.755,0.121,1.175,0.289,1.463,0.385c0.18,0.072,0.216,0.156,0.216,0.264c0,0.096-0.036,0.191-0.036,0.324l-0.012,7.063
		c0,2.207-0.072,2.507-0.288,2.962c-0.084,0.145-0.168,0.217-0.24,0.217c-0.096,0-0.168-0.145-0.168-0.516V587.381z"/>
	<path d="M238.608,589.048c0.216-0.036,0.396-0.168,0.396-0.372c0-0.072-0.024-0.156-0.072-0.252
		c-0.072-0.084-0.108-0.155-0.108-0.203c0-0.061,0.036-0.084,0.12-0.084c0.288,0,0.732,0.312,0.732,0.491
		c0,0.132-0.168,0.252-0.312,0.468c1.391,0.264,2.039,1.199,2.039,2.135c0,1.115-0.912,2.23-2.567,2.23
		c-1.571,0-2.519-1.031-2.519-2.23C236.317,590.26,237.037,589.287,238.608,589.048z M237.037,591.267
		c0,0.852,0.611,1.703,1.823,1.703c1.235,0,1.847-0.852,1.847-1.703s-0.612-1.703-1.847-1.703
		C237.648,589.563,237.037,590.415,237.037,591.267z M243.706,587.404c-0.024-0.252-0.576-0.6-1.032-0.779
		c-0.192-0.06-0.3-0.132-0.3-0.191c0-0.072,0.132-0.12,0.444-0.133c0.12,0,1.703,0.265,1.703,0.612c0,0.097-0.048,0.216-0.048,0.396
		l-0.012,2.986c0.144-0.012,0.324-0.023,0.588-0.035c0.432-0.072,0.275-0.288,1.055-0.288c0.276,0,0.768,0,0.768,0.323
		c0,0.145-0.132,0.276-0.36,0.276l-2.051,0.048l0.012,2.782c0.096,0,0.335-0.012,0.516-0.012c0.456-0.097,0.228-0.276,1.271-0.276
		c0.516,0,0.588,0.252,0.588,0.336c0,0.145-0.144,0.288-0.384,0.288l-2.003,0.024l-0.012,1.811
		c-0.024,1.188-0.312,1.823-0.516,1.823c-0.12,0-0.228-0.181-0.228-0.636V587.404z"/>
	<path d="M249.648,595.872c0,0.36-0.204,0.696-0.659,0.696c-0.456,0-0.66-0.336-0.66-0.696c0-0.348,0.204-0.671,0.66-0.671
		C249.445,595.201,249.648,595.524,249.648,595.872z"/>
</g>
</svg>
