<?xml version="1.0" encoding="utf-8"?>
<!-- Generator: Adobe Illustrator 16.0.0, SVG Export Plug-In . SVG Version: 6.00 Build 0)  -->
<!DOCTYPE svg PUBLIC "-//W3C//DTD SVG 1.1//EN" "http://www.w3.org/Graphics/SVG/1.1/DTD/svg11.dtd">
<svg version="1.1" id="Layer_1" xmlns="http://www.w3.org/2000/svg" xmlns:xlink="http://www.w3.org/1999/xlink" x="0px" y="0px"
	 width="1920px" height="1080px" viewBox="0 0 1920 1080" enable-background="new 0 0 1920 1080" xml:space="preserve">
<path fill-rule="evenodd" clip-rule="evenodd" fill="#F7CA54" d="M774.2,568.157c4.847,21.685,18.702,33.541,40.179,37.428
	c-21.801,3.98-35.695,16.103-40.188,38.372c-1.752-10.3-6.078-19.024-13.59-26.047c-7.558-7.065-16.755-10.56-26.869-12.301
	c9.887-1.757,19.024-5.127,26.549-12.002C767.813,586.724,772.155,578.09,774.2,568.157z"/>
<path fill-rule="evenodd" clip-rule="evenodd" fill="#F7CA54" d="M921.513,1396.677c29.056-6.007,46.982-23.38,53.455-53.057
	c6.582,30.64,25.46,47.854,55.595,54.071c-29.984,6.396-49.23,23.384-55.627,54.494c-2.315-10.922-5.928-20.564-12.309-29
	c-10.855-14.354-25.798-21.569-43.044-24.813C919.012,1396.425,920.987,1397.376,921.513,1396.677z"/>
<path fill-rule="evenodd" clip-rule="evenodd" fill="#F7CA54" d="M976.592,1612.425c-5.264-21.2-19.476-32.468-42.063-36.54
	c22.574-4.108,36.854-15.646,42.762-37.293c5.938,20.419,19.096,32.806,40.084,37.105c-19.775,4.915-33.759,15.612-38.969,35.762
	C977.946,1612.056,977.705,1613.059,976.592,1612.425z"/>
<path fill-rule="evenodd" clip-rule="evenodd" fill="#F9D77F" d="M921.513,1396.677c-0.644,0.565-1.286,1.131-1.93,1.696
	c-0.779,0-1.56,0-2.72,0C918.383,1396.718,919.892,1396.524,921.513,1396.677z"/>
<path fill-rule="evenodd" clip-rule="evenodd" fill="#FADF98" d="M976.592,1612.425c0.604-0.322,1.209-0.644,1.813-0.966
	c0.051,1.248,0.338,2.959-1.143,3.181C976.125,1614.81,976.657,1613.255,976.592,1612.425z"/>
</svg>
