<?xml version="1.0" encoding="utf-8"?>
<!-- Generator: Adobe Illustrator 16.0.0, SVG Export Plug-In . SVG Version: 6.00 Build 0)  -->
<!DOCTYPE svg PUBLIC "-//W3C//DTD SVG 1.1//EN" "http://www.w3.org/Graphics/SVG/1.1/DTD/svg11.dtd">
<svg version="1.1" id="Layer_1" xmlns="http://www.w3.org/2000/svg" xmlns:xlink="http://www.w3.org/1999/xlink" x="0px" y="0px"
	 width="1920px" height="396px" viewBox="0 0 1920 396" enable-background="new 0 0 1920 396" xml:space="preserve">
<path fill="#6B7181" d="M1357,40.994c0,0,15.15-10.11,26-12c10.85-1.89,21-4,27.24-4.06c6.62-0.06,22.529-6.44,22.529-6.44
	s16.801-12.5,37.149-10.59c20.351,1.91,24.41,3.78,35.26-3.78c10.852-7.56,51.54-3.79,65.11,3.78c13.57,7.57,23,17,47.47,15.14
	c24.472-1.86,43.4,11.35,43.4,11.35l29.84,24.6h-354L1357,40.994z"/>
<path fill="#6B7081" d="M684.001,57.779c0,0,2.65-11.9-15.87-15.86c-18.52-3.96-22.479-2.65-38.35-5.29
	c-15.871-2.64-4,1.32-23.8-7.94c-19.802-9.26-21.19-10.58-38.382-9.26c-17.188,1.32-19.84,5.29-39.67,1.33s-28.93,2.54-35.71,9.24
	c-8.22,8.15-17.35,4.47-33.22,3.15s-33,8-33,8s-10.67,3.74-12,13C412.67,63.409,684.001,57.779,684.001,57.779z"/>
<path fill="#606572" d="M1181.7,37.372c0,0,17.63-8.14,28.479-9.5c10.852-1.36,17.642,0,23.062,2.71s22.529-4.61,22.529-4.61
	s16.801-8.95,37.149-7.59c20.349,1.36,23.88,1.48,35.26-2.72c20.82-7.66,53.82-1.66,63.82,6.34c11.41,9.12,24.34,8.58,48.76,7.23
	c14.91-0.742,29.78,2.047,43.4,8.14l29.84,17.63h-354L1181.7,37.372z"/>
<path fill="#8068BA" d="M1920,55H0v341h1920V55z"/>
</svg>
