<?xml version="1.0" standalone="no"?>
<!DOCTYPE svg PUBLIC "-//W3C//DTD SVG 20010904//EN"
 "http://www.w3.org/TR/2001/REC-SVG-20010904/DTD/svg10.dtd">
<svg version="1.0" xmlns="http://www.w3.org/2000/svg"
 width="500.000000pt" height="500.000000pt" viewBox="0 0 500.000000 500.000000"
 preserveAspectRatio="xMidYMid meet">

<g transform="translate(0.000000,500.000000) scale(0.100000,-0.100000)"
fill="#000000" stroke="none">
<path d="M2428 4133 c6 -2 18 -2 25 0 6 3 1 5 -13 5 -14 0 -19 -2 -12 -5z"/>
<path d="M2568 4133 c7 -3 16 -2 19 1 4 3 -2 6 -13 5 -11 0 -14 -3 -6 -6z"/>
<path d="M2708 4123 c7 -3 16 -2 19 1 4 3 -2 6 -13 5 -11 0 -14 -3 -6 -6z"/>
<path d="M2758 4113 c7 -3 16 -2 19 1 4 3 -2 6 -13 5 -11 0 -14 -3 -6 -6z"/>
<path d="M2828 4103 c7 -3 16 -2 19 1 4 3 -2 6 -13 5 -11 0 -14 -3 -6 -6z"/>
<path d="M1860 4016 c-31 -12 -110 -52 -206 -106 -86 -49 -220 -155 -315 -250
-252 -254 -410 -568 -469 -935 -13 -78 -16 -318 -6 -410 26 -225 93 -426 216
-648 186 -336 523 -610 911 -742 53 -18 114 -35 135 -37 22 -3 31 -3 21 -1 -9
3 -15 7 -13 11 2 4 -12 8 -33 9 -20 1 -61 12 -91 23 l-55 20 48 -6 c47 -5 59
3 34 25 -8 6 -18 7 -22 3 -5 -4 -5 1 -2 11 4 10 7 21 7 24 0 3 6 1 13 -5 16
-13 77 -21 83 -10 3 5 10 6 15 3 5 -4 9 -1 9 5 0 7 7 10 15 7 8 -4 17 -2 21 4
3 6 11 3 19 -8 8 -10 9 -20 4 -24 -5 -3 10 -10 35 -16 36 -8 43 -7 39 4 -3 7
0 13 7 13 7 0 10 7 6 16 -3 8 -2 12 4 9 6 -3 10 1 10 11 0 12 -6 15 -23 12
-17 -3 -23 0 -24 14 -1 10 2 18 8 18 5 0 9 5 9 11 0 5 -5 7 -10 4 -13 -8 -13
8 0 21 8 8 6 15 -5 24 -14 12 -18 11 -26 -1 -5 -9 -9 -10 -9 -2 0 6 5 15 12
19 8 5 6 10 -8 15 -18 6 -17 8 6 17 l25 11 -24 0 c-17 1 -21 5 -17 17 3 8 2
12 -4 9 -6 -3 -10 -1 -10 5 0 6 -4 8 -10 5 -10 -6 -15 9 -10 30 1 5 -1 7 -5 3
-4 -4 -18 -3 -31 2 -16 7 -24 6 -24 -1 0 -8 -4 -8 -13 -1 -7 6 -24 8 -37 5
-14 -4 -21 -2 -17 3 3 6 -10 11 -31 11 -25 1 -42 -5 -54 -19 -12 -14 -23 -18
-35 -13 -13 5 -14 9 -5 12 10 4 8 8 -5 18 -24 18 -10 30 17 15 17 -9 25 -9 34
0 8 8 6 9 -9 4 -18 -7 -18 -6 -7 9 13 15 16 15 37 1 33 -21 30 -21 54 0 17 16
27 18 54 10 21 -6 40 -6 55 1 32 14 27 28 -8 20 -17 -4 -30 -2 -30 3 0 5 -12
8 -26 6 -30 -3 -82 13 -105 32 -9 8 -19 11 -22 8 -4 -4 -13 -2 -20 4 -8 7 -17
9 -20 5 -4 -3 -7 -2 -7 4 0 5 16 10 36 11 20 1 34 -1 31 -5 -4 -3 -2 -12 4
-20 10 -11 14 -10 25 4 12 17 13 17 14 1 0 -10 10 -23 23 -29 18 -9 20 -9 10
2 -18 19 -16 34 2 19 13 -11 18 -11 28 0 9 9 9 11 0 6 -6 -3 -24 5 -39 19 -15
14 -34 25 -42 25 -12 0 -13 3 -4 12 8 8 15 8 24 1 18 -14 79 -13 102 3 18 12
18 14 2 20 -10 4 -15 13 -12 21 7 18 -14 41 -34 36 -13 -4 -13 -3 -1 5 12 9
12 14 -3 36 -9 14 -13 26 -10 26 4 0 -1 9 -11 20 -10 11 -16 23 -13 26 3 3 15
-7 26 -23 26 -36 94 -73 100 -55 3 9 11 8 33 -5 23 -14 31 -15 41 -4 11 10 9
12 -6 9 -10 -1 -21 3 -23 10 -7 18 42 15 57 -3 16 -19 44 -19 59 -1 12 14 5
46 -10 46 -15 0 -10 18 8 24 9 4 21 2 27 -4 16 -16 24 -12 28 13 2 12 8 21 13
19 6 -2 9 -10 7 -18 -4 -22 19 -17 25 6 3 11 10 20 15 20 6 0 5 7 -2 15 -8 9
-8 15 -2 15 6 0 5 12 -4 30 -9 16 -13 34 -9 40 8 13 -21 13 -45 0 -15 -8 -17
-6 -13 10 4 13 14 20 32 21 17 1 20 3 8 6 -9 2 -15 9 -11 14 3 5 -2 12 -10 15
-20 8 -21 58 -1 74 8 7 12 17 8 23 -3 5 -1 7 5 3 6 -3 13 -2 16 3 7 11 -34 42
-46 35 -4 -3 -8 0 -8 5 0 6 -4 11 -10 11 -5 0 -10 -7 -10 -15 0 -8 -6 -15 -13
-15 -23 0 -14 38 10 43 13 2 23 0 23 -5 0 -5 4 -7 9 -3 6 3 19 -4 29 -15 l20
-21 4 28 c2 15 -1 38 -8 51 -10 20 -13 21 -24 7 -20 -24 -47 -18 -70 15 -19
27 -20 31 -6 46 9 8 16 19 16 24 0 16 -44 40 -53 31 -12 -12 -41 15 -32 29 3
5 2 10 -4 10 -6 0 -8 7 -5 15 4 10 0 15 -11 15 -11 0 -15 5 -11 15 4 11 -2 15
-21 15 -23 0 -25 -3 -19 -32 6 -32 6 -33 -9 -10 -9 12 -14 26 -11 31 3 5 -2
15 -11 22 -15 13 -16 11 -9 -13 4 -17 2 -28 -4 -28 -5 0 -10 -4 -10 -10 0 -15
33 -50 42 -44 4 3 8 0 8 -5 0 -6 -4 -11 -9 -11 -13 0 -23 -34 -15 -54 3 -9 11
-16 16 -16 6 0 5 6 -2 15 -7 8 -8 15 -2 15 10 0 26 -33 41 -88 6 -21 6 -30 0
-26 -6 3 -15 -8 -22 -25 -14 -39 -28 -40 -21 -2 5 23 1 34 -20 52 -30 26 -33
39 -8 39 14 0 15 2 2 9 -8 6 -18 7 -22 5 -4 -3 -8 -1 -8 4 0 5 -10 7 -23 5
-17 -3 -26 2 -36 21 -8 14 -18 23 -22 20 -5 -3 -8 10 -7 28 1 18 -2 41 -6 50
-5 10 -3 31 3 48 12 35 5 60 -15 60 -8 0 -14 6 -14 13 0 6 -12 23 -27 37 l-26
25 6 -50 c4 -27 3 -43 -1 -35 -10 22 -32 23 -49 3 -13 -17 -13 -16 -4 4 14 29
14 33 -4 33 -8 0 -15 4 -15 9 0 5 -3 17 -6 26 -5 12 -2 16 11 13 26 -4 30 18
4 25 -15 4 -20 11 -15 22 3 9 2 13 -4 10 -5 -3 -9 -18 -9 -33 -1 -62 -3 -72
-12 -72 -5 0 -9 11 -9 25 0 16 -5 23 -13 19 -9 -3 -13 5 -12 23 0 15 -6 28
-12 29 -7 1 -20 2 -28 3 -8 0 -15 8 -15 17 0 8 4 13 9 9 5 -3 12 -1 16 4 3 6
12 8 19 5 8 -3 17 0 22 7 4 8 3 10 -4 5 -7 -4 -19 -3 -27 2 -14 7 -13 12 6 36
l22 28 -21 -6 c-13 -5 -22 -3 -22 3 0 7 -8 7 -26 1 -31 -12 -34 -12 -34 -1 0
5 10 11 22 13 34 5 32 24 -2 22 -16 -1 -28 2 -25 6 8 14 -6 40 -22 40 -13 0
-13 3 -3 15 10 12 8 16 -11 24 -24 9 -24 9 9 21 l33 12 -22 19 c-12 10 -26 16
-30 13 -5 -3 -9 2 -9 10 0 9 6 13 15 10 8 -3 21 1 30 9 20 21 19 30 -4 22 -11
-3 -22 -1 -26 5 -4 6 7 10 29 10 20 0 36 -4 36 -10 0 -5 7 -10 16 -10 8 0 13
3 11 8 -8 13 13 54 25 49 7 -2 21 0 31 5 13 7 17 5 17 -9 0 -10 13 -26 29 -36
25 -15 30 -15 35 -2 3 8 12 12 21 9 21 -9 20 22 -2 36 -15 10 -15 11 -2 6 23
-7 30 55 13 114 -7 24 -11 46 -9 48 7 8 25 -9 20 -19 -4 -5 -1 -9 5 -9 8 0 11
-23 10 -72 -1 -40 -2 -82 -1 -93 2 -19 2 -19 15 -2 8 10 19 16 26 15 7 -2 15
3 17 10 3 7 -5 12 -22 12 -22 0 -24 3 -16 19 6 10 7 21 4 25 -3 3 -1 6 6 6 7
0 11 -7 8 -15 -4 -8 -2 -17 2 -20 5 -2 11 10 14 28 5 35 -11 80 -24 71 -13 -8
-10 9 5 29 18 23 25 22 19 -3 -4 -13 0 -20 10 -20 11 0 14 -10 11 -41 l-4 -41
36 32 c20 17 42 29 50 26 9 -3 14 1 14 13 0 10 3 21 7 25 11 11 11 76 0 69 -7
-4 -8 1 -3 12 5 15 4 16 -9 5 -9 -7 -18 -10 -22 -7 -3 4 -12 2 -20 -5 -11 -8
-12 -7 -8 5 4 8 2 18 -3 21 -14 8 -3 46 14 46 16 0 29 60 19 89 -4 15 -1 23
10 27 9 4 21 16 26 28 8 18 9 17 5 -8 -7 -52 11 -71 40 -41 11 11 21 12 40 5
33 -13 33 -13 29 8 -2 10 1 25 7 33 8 11 9 10 4 -3 -6 -21 5 -23 22 -6 18 18
15 24 -28 43 -22 10 -37 22 -34 27 3 4 9 6 14 3 5 -3 12 0 16 7 4 7 4 10 -1 6
-14 -13 -47 12 -40 30 5 13 3 14 -6 5 -17 -17 -42 6 -26 25 17 22 -9 40 -34
24 -12 -8 -18 -9 -15 -4 3 6 -1 12 -9 16 -19 7 -19 -8 0 -27 11 -12 12 -17 2
-20 -9 -4 -8 -6 2 -6 8 -1 20 7 27 17 12 16 13 15 8 -4 -4 -15 2 -29 17 -43
25 -23 15 -30 -10 -7 -14 12 -19 11 -35 -5 -19 -19 -19 -19 10 -19 22 0 26 -3
14 -10 -8 -5 -31 -9 -50 -9 -19 1 -27 3 -17 6 9 2 17 9 17 14 0 5 -8 13 -17
16 -10 4 -24 13 -32 20 -11 12 -9 13 12 8 14 -4 28 -2 31 4 4 6 -1 11 -11 11
-11 0 -14 3 -7 8 5 4 10 26 9 50 -1 23 2 45 7 48 11 7 10 54 -2 54 -5 0 -12
11 -16 25 -3 14 -14 29 -23 35 -13 7 -14 12 -4 29 10 16 9 20 -3 25 -26 10
-39 7 -61 -14 -12 -10 -33 -22 -47 -26 -15 -3 -41 -25 -60 -47 -32 -39 -35
-40 -51 -23 -20 20 -59 17 -117 -8 -29 -12 -39 -24 -47 -53 -14 -49 -14 -66 2
-82 10 -11 9 -13 -3 -9 -8 3 -27 -3 -42 -14 -32 -22 -52 -16 -42 14 4 14 2 18
-5 14 -6 -4 -11 -15 -11 -25 0 -28 -34 -63 -48 -49 -9 9 -17 7 -32 -7 -12 -11
-20 -13 -20 -6 0 7 -5 9 -12 5 -7 -4 -8 -3 -4 5 4 6 11 9 15 7 4 -3 7 11 6 32
-2 24 3 41 13 48 12 9 13 16 6 25 -13 18 -16 59 -3 59 5 0 9 7 9 15 0 8 5 15
10 15 6 0 10 -5 10 -12 0 -9 3 -9 12 0 7 7 19 12 29 12 25 0 71 61 64 87 -8
32 26 52 81 48 40 -3 44 -1 39 16 -4 11 -2 19 4 19 6 0 11 -4 11 -9 0 -13 23
-8 51 11 19 13 22 19 12 29 -11 11 -13 11 -13 -1 0 -9 -6 -8 -22 6 -12 10 -19
14 -15 9 3 -6 -3 -11 -13 -11 -10 0 -16 4 -14 8 8 12 -11 9 -24 -4 -7 -7 -12
-9 -12 -4 0 4 -7 0 -16 -9 -13 -13 -19 -14 -25 -4 -6 10 -13 6 -29 -14 -13
-16 -31 -27 -45 -27 -13 0 -29 -8 -35 -17 -11 -17 -11 -17 -6 0 6 19 -5 16
-35 -10 -9 -8 -27 -15 -40 -16 -13 0 -27 -6 -31 -12 -5 -6 -8 -3 -8 7 0 10 11
25 24 33 16 11 22 22 19 36 -4 14 4 31 26 53 17 18 29 35 26 38 -10 10 154
113 264 167 124 61 144 74 71 47z m-341 -219 c-2 -1 -15 -11 -29 -22 l-25 -20
19 23 c11 12 24 22 29 22 6 0 8 -1 6 -3z m481 -186 c0 -9 -33 -21 -57 -21 -22
0 -14 18 10 23 39 8 47 7 47 -2z m60 -52 c0 -14 -17 -10 -23 5 -4 10 -1 13 9
9 7 -3 14 -9 14 -14z m-30 -33 c0 -3 -4 -8 -10 -11 -5 -3 -10 -1 -10 4 0 6 5
11 10 11 6 0 10 -2 10 -4z m40 -42 c0 -8 -5 -12 -10 -9 -6 4 -8 11 -5 16 9 14
15 11 15 -7z m-485 -141 c-1 -20 -10 -26 -27 -21 -15 5 -2 38 15 38 8 0 13 -8
12 -17z m595 -43 c0 -5 -7 -10 -16 -10 -8 0 -12 5 -9 10 3 6 10 10 16 10 5 0
9 -4 9 -10z m-630 -22 c0 7 5 12 12 12 8 0 7 -5 -3 -15 -14 -14 -19 -14 -43
-1 -17 9 -23 16 -14 19 7 2 21 -2 31 -11 11 -10 17 -11 17 -4z m-20 -32 c0 -3
-4 -8 -10 -11 -5 -3 -10 -1 -10 4 0 6 5 11 10 11 6 0 10 -2 10 -4z m464 -106
c6 -34 6 -35 -10 -12 -9 13 -13 30 -10 39 8 20 12 16 20 -27z m-394 -10 c0 -5
-5 -10 -11 -10 -5 0 -7 5 -4 10 3 6 8 10 11 10 2 0 4 -4 4 -10z m399 -77 c0
-34 -1 -36 -11 -16 -6 12 -8 29 -5 37 11 27 17 18 16 -21z m-399 17 c0 -5 -4
-10 -10 -10 -5 0 -10 5 -10 10 0 6 5 10 10 10 6 0 10 -4 10 -10z m174 -16 c3
-8 2 -12 -4 -9 -6 3 -10 10 -10 16 0 14 7 11 14 -7z m126 2 c0 -3 -4 -8 -10
-11 -5 -3 -10 -1 -10 4 0 6 5 11 10 11 6 0 10 -2 10 -4z m215 -44 c-8 -8 -25
10 -19 20 4 6 9 5 15 -3 4 -7 6 -15 4 -17z m-790 -2 c7 -21 0 -40 -14 -40 -5
0 -8 13 -7 30 1 34 12 39 21 10z m775 -30 c0 -5 -8 -10 -17 -10 -15 0 -16 2
-3 10 19 12 20 12 20 0z m-389 -10 c2 -15 6 -30 9 -32 7 -8 6 -48 -1 -48 -5 0
-9 7 -9 15 0 9 -7 18 -15 21 -23 9 -18 54 7 54 4 0 9 -4 9 -10z m103 -22 c-4
-6 -10 -5 -15 3 -14 22 -10 33 6 19 8 -7 12 -17 9 -22z m-500 2 c36 -13 33
-25 -14 -48 -43 -21 -52 -16 -20 13 23 21 28 44 5 25 -13 -11 -14 -10 -9 4 7
19 6 19 38 6z m596 -35 c0 -8 -7 -15 -15 -15 -8 0 -15 7 -15 15 0 8 7 15 15
15 8 0 15 -7 15 -15z m-133 -6 c-14 -8 -22 -8 -30 0 -8 8 -3 11 19 11 25 -1
27 -2 11 -11z m-94 -36 c-3 -7 -10 -13 -15 -13 -6 0 -7 7 -4 16 3 9 6 21 6 27
0 7 4 7 9 -2 5 -8 7 -20 4 -28z m157 -5 c0 -5 -9 -4 -20 2 -11 6 -20 18 -20
27 0 14 2 14 20 -2 11 -10 20 -22 20 -27z m-128 -10 c-7 -7 -12 -8 -12 -2 0
14 12 26 19 19 2 -3 -1 -11 -7 -17z m148 -39 c0 -6 -4 -7 -10 -4 -5 3 -10 11
-10 16 0 6 5 7 10 4 6 -3 10 -11 10 -16z m-354 -126 c-10 -10 -19 5 -10 18 6
11 8 11 12 0 2 -7 1 -15 -2 -18z m134 19 c0 -4 -9 -8 -20 -9 -11 -1 -20 2 -20
8 0 5 9 9 20 9 11 0 20 -4 20 -8z m-90 -68 c0 -8 -4 -12 -10 -9 -5 3 -10 10
-10 16 0 5 5 9 10 9 6 0 10 -7 10 -16z m10 -34 c0 -5 -4 -10 -10 -10 -5 0 -10
5 -10 10 0 6 5 10 10 10 6 0 10 -4 10 -10z m-66 -17 c-6 -2 -9 -15 -6 -30 4
-19 1 -24 -9 -21 -8 3 -14 18 -14 35 0 25 3 29 20 25 11 -3 15 -7 9 -9z m186
-9 c0 -8 -4 -12 -10 -9 -5 3 -10 10 -10 16 0 5 5 9 10 9 6 0 10 -7 10 -16z
m-141 -5 c8 12 11 12 24 0 18 -18 15 -139 -3 -139 -4 0 -6 -15 -4 -34 1 -19
-4 -43 -12 -53 -13 -17 -14 -16 -8 8 3 15 1 30 -5 33 -6 4 -11 16 -11 27 0 11
-7 22 -15 25 -8 4 -12 10 -9 15 3 5 -1 9 -10 9 -8 0 -16 -6 -18 -12 -3 -8 -9
-4 -17 10 -9 17 -9 27 -2 36 6 7 7 17 3 21 -4 5 -1 5 6 1 7 -4 10 -10 8 -14
-2 -4 2 -13 9 -19 11 -10 13 -8 12 15 -1 18 2 26 12 24 8 -2 11 3 8 13 -4 8
-4 22 0 31 5 13 7 13 14 2 8 -11 11 -11 18 1z m101 -19 c0 -5 -4 -10 -10 -10
-5 0 -10 5 -10 10 0 6 5 10 10 10 6 0 10 -4 10 -10z m110 -63 c0 -24 -21 -36
-47 -26 -14 5 -29 7 -34 3 -5 -3 -9 0 -9 7 0 7 10 9 30 6 22 -5 30 -3 30 8 0
8 7 15 15 15 8 0 15 -6 15 -13z m-140 -7 c0 -5 -5 -10 -11 -10 -5 0 -7 5 -4
10 3 6 8 10 11 10 2 0 4 -4 4 -10z m-708 -39 c-5 -3 -8 -21 -6 -40 2 -18 0
-40 -5 -49 -7 -13 -9 -11 -9 8 0 14 -1 42 -2 62 -2 46 9 68 23 43 6 -11 6 -20
-1 -24z m829 -9 c-7 -2 -18 1 -23 6 -8 8 -4 9 13 5 13 -4 18 -8 10 -11z m-738
-132 c-7 -8 -22 24 -16 34 4 5 10 1 13 -10 4 -10 6 -21 3 -24z m742 30 c3 -5
1 -10 -4 -10 -6 0 -11 5 -11 10 0 6 2 10 4 10 3 0 8 -4 11 -10z m65 -30 c0 -5
-7 -10 -15 -10 -8 0 -15 5 -15 10 0 6 7 10 15 10 8 0 15 -4 15 -10z m205 -30
c3 -5 1 -10 -4 -10 -6 0 -11 5 -11 10 0 6 2 10 4 10 3 0 8 -4 11 -10z m-1061
-16 c9 -24 7 -27 -9 -10 -17 17 -19 26 -6 26 5 0 12 -7 15 -16z m836 -24 c0
-5 -4 -10 -10 -10 -5 0 -10 5 -10 10 0 6 5 10 10 10 6 0 10 -4 10 -10z m-790
-19 c0 -5 -6 -14 -14 -20 -12 -10 -13 -8 -9 8 5 21 23 30 23 12z m725 -1 c3
-5 1 -10 -4 -10 -6 0 -11 5 -11 10 0 6 2 10 4 10 3 0 8 -4 11 -10z m275 -18
c-5 -2 -10 -10 -10 -18 0 -8 -5 -14 -11 -14 -6 0 -9 6 -6 14 3 8 -1 17 -9 20
-8 3 -14 10 -14 15 0 5 13 4 30 -2 17 -7 26 -13 20 -15z m-210 -43 c0 -5 -4
-9 -10 -9 -5 0 -10 7 -10 16 0 8 5 12 10 9 6 -3 10 -10 10 -16z m39 0 c-8 -17
-8 -23 2 -30 9 -5 10 -14 3 -31 -6 -13 -9 -38 -8 -55 1 -18 -2 -33 -6 -33 -13
0 -18 24 -13 53 5 25 3 27 -24 21 -24 -5 -29 -2 -29 14 0 12 5 18 13 15 7 -3
13 0 13 6 0 6 4 11 10 11 5 0 7 -7 4 -15 -5 -11 -2 -13 10 -9 9 3 13 10 10 16
-8 13 4 58 17 58 6 0 6 -8 -2 -21z m-835 -15 c3 -8 2 -12 -4 -9 -6 3 -10 10
-10 16 0 14 7 11 14 -7z m1346 -26 c0 -6 -6 -5 -15 2 -8 7 -15 14 -15 16 0 2
7 1 15 -2 8 -4 15 -11 15 -16z m-1240 -58 c12 -8 12 -10 1 -10 -9 0 -11 -7 -8
-22 6 -22 6 -22 -8 -4 -27 35 -17 57 15 36z m1170 -10 c0 -5 -5 -10 -11 -10
-5 0 -7 5 -4 10 3 6 8 10 11 10 2 0 4 -4 4 -10z m-140 -82 c0 -13 -18 -19 -25
-8 -5 8 -12 7 -23 -2 -15 -12 -15 -11 -4 4 13 16 52 21 52 6z m185 2 c3 -5 1
-10 -4 -10 -6 0 -11 5 -11 10 0 6 2 10 4 10 3 0 8 -4 11 -10z m-336 -32 c0
-13 2 -36 3 -52 2 -16 -2 -31 -9 -33 -7 -3 -13 2 -13 11 0 9 -7 16 -16 16 -9
0 -14 6 -11 13 2 6 9 11 15 10 6 -2 9 4 6 12 -4 9 -1 22 6 30 16 20 17 19 19
-7z m418 -5 c-3 -3 -11 -2 -17 2 -9 6 -9 10 1 16 14 8 27 -7 16 -18z m-825 -5
c-7 -7 -12 -8 -12 -2 0 6 3 14 7 17 3 4 9 5 12 2 2 -3 -1 -11 -7 -17z m348 -2
c0 -11 -19 -15 -25 -6 -3 5 1 10 9 10 9 0 16 -2 16 -4z m-697 -68 c-2 -5 -8
-8 -13 -8 -10 0 -40 57 -33 64 7 7 52 -47 46 -56z m672 22 c3 -5 1 -10 -4 -10
-6 0 -11 5 -11 10 0 6 2 10 4 10 3 0 8 -4 11 -10z m245 -4 c0 -3 -4 -8 -10
-11 -5 -3 -10 -1 -10 4 0 6 5 11 10 11 6 0 10 -2 10 -4z m-540 -21 c10 -12 10
-15 -4 -15 -9 0 -16 7 -16 15 0 8 2 15 4 15 2 0 9 -7 16 -15z m110 5 c0 -5 -5
-10 -11 -10 -5 0 -7 5 -4 10 3 6 8 10 11 10 2 0 4 -4 4 -10z m220 -10 c0 -5
-7 -10 -15 -10 -8 0 -15 5 -15 10 0 6 7 10 15 10 8 0 15 -4 15 -10z m26 -47
c-7 -7 -26 7 -26 19 0 6 6 6 15 -2 9 -7 13 -15 11 -17z m-376 -3 c0 -5 -4 -10
-10 -10 -5 0 -10 5 -10 10 0 6 5 10 10 10 6 0 10 -4 10 -10z m44 -6 c3 -8 2
-12 -4 -9 -6 3 -10 10 -10 16 0 14 7 11 14 -7z m429 -18 c20 -16 23 -36 4 -36
-22 0 -51 26 -43 38 9 15 17 15 39 -2z m-503 -12 c0 -8 -4 -12 -10 -9 -5 3
-10 10 -10 16 0 5 5 9 10 9 6 0 10 -7 10 -16z m260 -4 c8 -5 11 -12 8 -16 -4
-3 -14 1 -23 10 -18 17 -9 21 15 6z m125 -12 c6 -4 2 -8 -7 -8 -10 0 -18 7
-18 17 0 9 3 12 8 7 4 -5 12 -12 17 -16z m-431 -4 c17 -7 22 -34 6 -34 -5 0
-10 5 -10 10 0 6 -7 10 -15 10 -8 0 -15 5 -15 10 0 11 11 13 34 4z m366 2 c0
-3 -4 -8 -10 -11 -5 -3 -10 -1 -10 4 0 6 5 11 10 11 6 0 10 -2 10 -4z m348
-21 c-3 -3 -9 2 -12 12 -6 14 -5 15 5 6 7 -7 10 -15 7 -18z m-1012 -75 c8 0
14 5 14 10 0 6 5 10 10 10 6 0 9 -3 8 -7 -2 -5 1 -9 6 -10 5 -1 13 -7 17 -15
12 -19 12 8 0 31 -7 13 -5 17 10 17 14 0 17 -5 13 -18 -3 -12 0 -18 10 -18 9
0 16 -4 16 -9 0 -5 9 -11 20 -14 11 -3 20 -11 20 -17 0 -7 -7 -10 -15 -6 -18
6 -20 -5 -4 -21 6 -6 13 -26 15 -44 2 -18 10 -37 17 -42 9 -6 8 -7 -3 -4 -8 2
-21 14 -27 28 -8 14 -13 18 -13 9 0 -10 -9 -6 -25 13 -14 16 -29 26 -34 22 -5
-3 -12 7 -16 23 -3 17 -18 35 -38 47 -41 24 -57 40 -57 57 0 7 10 1 21 -14 11
-16 27 -28 35 -28z m835 13 l24 -27 -32 23 c-33 23 -40 31 -25 31 5 0 19 -12
33 -27z m-911 -23 c0 -5 -2 -10 -4 -10 -3 0 -8 5 -11 10 -3 6 -1 10 4 10 6 0
11 -4 11 -10z m306 -32 c4 -6 -4 -8 -23 -4 -23 5 -32 3 -36 -8 -4 -9 -12 -16
-19 -15 -10 0 -10 2 0 6 6 2 9 9 6 14 -3 6 -3 16 0 24 4 11 11 12 36 4 16 -6
33 -16 36 -21z m105 3 c13 -11 21 -22 17 -26 -8 -8 -58 23 -58 36 0 14 16 10
41 -10z m414 -10 c13 -16 15 -21 5 -16 -29 16 -40 27 -34 37 3 5 7 8 8 6 0 -2
10 -14 21 -27z m355 5 c0 -2 -7 -7 -16 -10 -8 -3 -12 -2 -9 4 6 10 25 14 25 6z
m-916 -41 c-4 -8 -8 -15 -10 -15 -2 0 -4 7 -4 15 0 8 4 15 10 15 5 0 7 -7 4
-15z m56 1 c-7 -7 -14 -6 -21 1 -9 9 -7 12 9 10 14 -1 18 -5 12 -11z m81 -16
c13 -10 20 -19 16 -20 -5 0 -15 7 -23 15 -9 8 -20 15 -25 15 -17 0 -9 -19 25
-54 18 -20 31 -37 29 -39 -2 -3 9 -4 24 -3 15 0 31 5 35 11 4 5 8 0 8 -12 0
-12 5 -25 10 -28 22 -14 8 -23 -27 -18 -38 6 -81 28 -75 39 2 3 -12 24 -32 45
-29 33 -33 43 -23 54 17 20 31 18 58 -5z m389 -42 c0 -5 -10 -8 -22 -7 -13 0
-17 3 -10 6 10 4 10 8 0 21 -12 14 -11 14 10 1 12 -8 22 -17 22 -21z m-446 -4
c4 -10 1 -14 -6 -12 -15 5 -23 28 -10 28 5 0 13 -7 16 -16z m103 1 c8 -9 13
-19 9 -22 -3 -4 -13 2 -21 13 -9 12 -14 14 -15 6 0 -7 -5 -10 -11 -6 -8 4 -7
9 2 15 18 11 18 11 36 -6z m489 7 c-10 -9 -76 -12 -76 -3 0 5 18 9 40 9 23 0
39 -3 36 -6z m-416 -12 c0 -5 -4 -10 -10 -10 -5 0 -10 5 -10 10 0 6 5 10 10
10 6 0 10 -4 10 -10z m-140 -29 c0 -5 -7 -11 -14 -14 -10 -4 -13 -1 -9 9 6 15
23 19 23 5z m375 -1 c-3 -5 -12 -10 -18 -10 -7 0 -6 4 3 10 19 12 23 12 15 0z
m-228 -24 c0 -8 -6 -12 -14 -9 -7 3 -10 9 -7 14 8 14 21 11 21 -5z m288 4 c3
-5 1 -10 -4 -10 -6 0 -11 5 -11 10 0 6 2 10 4 10 3 0 8 -4 11 -10z m-30 -10
c3 -5 1 -10 -4 -10 -6 0 -11 5 -11 10 0 6 2 10 4 10 3 0 8 -4 11 -10z m-225
-30 c8 -5 11 -10 5 -10 -5 0 -17 5 -25 10 -8 5 -10 10 -5 10 6 0 17 -5 25 -10z
m205 -50 c3 -5 1 -10 -4 -10 -6 0 -11 5 -11 10 0 6 2 10 4 10 3 0 8 -4 11 -10z
m60 0 c3 -5 1 -10 -4 -10 -6 0 -11 5 -11 10 0 6 2 10 4 10 3 0 8 -4 11 -10z
m-288 -15 c9 -25 -4 -29 -17 -6 -7 15 -7 21 0 21 6 0 13 -7 17 -15z m343 -6
c12 -8 11 -9 -6 -4 -13 3 -28 0 -37 -10 -10 -9 -18 -11 -22 -5 -3 5 -11 10
-16 10 -6 0 -3 -7 5 -16 22 -21 20 -27 -4 -14 -30 16 -26 44 5 38 14 -3 28 -1
31 3 7 12 26 11 44 -2z m-115 -9 c3 -5 1 -10 -4 -10 -6 0 -11 5 -11 10 0 6 2
10 4 10 3 0 8 -4 11 -10z m-347 -22 c-6 -16 -21 -14 -24 4 -1 11 3 15 12 11 8
-3 13 -10 12 -15z m157 2 c3 -5 1 -10 -4 -10 -6 0 -11 5 -11 10 0 6 2 10 4 10
3 0 8 -4 11 -10z m145 0 c0 -5 -2 -10 -4 -10 -3 0 -8 5 -11 10 -3 6 -1 10 4
10 6 0 11 -4 11 -10z m197 -6 c-3 -3 -12 -4 -19 -1 -8 3 -5 6 6 6 11 1 17 -2
13 -5z m-472 -14 c3 -5 1 -10 -4 -10 -6 0 -11 5 -11 10 0 6 2 10 4 10 3 0 8
-4 11 -10z m240 -30 c3 -5 1 -10 -4 -10 -6 0 -11 5 -11 10 0 6 2 10 4 10 3 0
8 -4 11 -10z m90 0 c13 -6 15 -9 5 -9 -8 0 -22 4 -30 9 -18 12 -2 12 25 0z
m-355 -10 c0 -5 -2 -10 -4 -10 -3 0 -8 5 -11 10 -3 6 -1 10 4 10 6 0 11 -4 11
-10z m530 -48 c0 -32 59 -20 60 12 0 5 -7 2 -17 -5 -15 -13 -15 -12 -4 8 14
28 41 20 41 -13 0 -14 -10 -30 -26 -40 -18 -12 -22 -19 -13 -25 7 -4 17 -5 21
-3 10 7 10 -7 -1 -24 -6 -11 -14 -6 -30 17 -12 17 -29 31 -37 31 -9 0 -12 5
-8 12 5 8 2 9 -11 5 -17 -7 -17 -6 0 19 9 15 12 23 5 19 -20 -12 -59 4 -57 24
1 19 2 19 39 0 22 -11 38 -27 38 -37z m30 38 c0 -5 -4 -10 -10 -10 -5 0 -10 5
-10 10 0 6 5 10 10 10 6 0 10 -4 10 -10z m110 -67 c-1 -25 -19 -35 -46 -25
l-29 10 28 1 c15 1 27 6 27 11 0 6 5 10 10 10 6 0 10 -3 10 -7z m-40 -43 c0
-5 -4 -10 -10 -10 -5 0 -10 5 -10 10 0 6 5 10 10 10 6 0 10 -4 10 -10z m-459
-57 c13 -15 12 -15 -11 -3 -34 17 -36 20 -18 20 9 0 22 -7 29 -17z m480 -16
c-10 -9 -11 -8 -5 6 3 10 9 15 12 12 3 -3 0 -11 -7 -18z m-51 -1 c0 -3 -4 -8
-10 -11 -5 -3 -10 -1 -10 4 0 6 5 11 10 11 6 0 10 -2 10 -4z m-206 -91 c11 -8
15 -15 10 -15 -6 0 -19 7 -30 15 -10 8 -14 14 -9 14 6 0 19 -6 29 -14z"/>
<path d="M1535 2559 c-4 -6 -5 -13 -2 -16 7 -7 27 6 27 18 0 12 -17 12 -25 -2z"/>
<path d="M3117 4007 c40 -35 103 -61 115 -49 5 5 -16 20 -54 37 -94 40 -96 41
-61 12z"/>
<path d="M3320 3916 c0 -2 7 -7 16 -10 8 -3 12 -2 9 4 -6 10 -25 14 -25 6z"/>
<path d="M3370 3886 c0 -2 7 -7 16 -10 8 -3 12 -2 9 4 -6 10 -25 14 -25 6z"/>
<path d="M2006 3845 c4 -8 10 -12 15 -9 11 6 2 24 -11 24 -5 0 -7 -7 -4 -15z"/>
<path d="M2204 3844 c4 -9 1 -23 -5 -30 -9 -11 -6 -14 20 -14 17 0 31 4 31 10
0 5 -7 7 -15 4 -8 -4 -15 -1 -15 5 0 6 12 14 28 18 l27 7 -25 7 c-42 12 -53
10 -46 -7z"/>
<path d="M1815 3830 c-3 -5 -1 -10 4 -10 6 0 11 5 11 10 0 6 -2 10 -4 10 -3 0
-8 -4 -11 -10z"/>
<path d="M1950 3830 c0 -5 5 -10 10 -10 6 0 10 -9 10 -20 0 -11 -4 -20 -10
-20 -5 0 -10 6 -10 14 0 20 -19 31 -33 17 -7 -7 -14 -7 -24 0 -9 8 -13 8 -13
0 0 -6 5 -11 11 -11 6 0 9 -6 6 -14 -4 -10 0 -12 14 -9 12 4 25 -1 33 -12 10
-14 17 -15 31 -8 21 12 30 64 12 75 -17 11 -37 10 -37 -2z"/>
<path d="M2161 3826 c-9 -11 -9 -16 1 -22 7 -4 10 -4 6 1 -4 4 -3 14 3 22 6 7
9 13 6 13 -2 0 -10 -6 -16 -14z"/>
<path d="M3480 3817 c0 -3 17 -17 37 -33 20 -15 33 -23 29 -16 -8 13 -66 56
-66 49z"/>
<path d="M1829 3793 c-13 -15 -12 -15 9 -4 23 12 28 21 13 21 -5 0 -15 -7 -22
-17z"/>
<path d="M2030 3795 c0 -2 9 -9 20 -15 16 -9 20 -8 20 5 0 8 -9 15 -20 15 -11
0 -20 -2 -20 -5z"/>
<path d="M1775 3780 c-3 -5 -2 -10 4 -10 5 0 13 5 16 10 3 6 2 10 -4 10 -5 0
-13 -4 -16 -10z"/>
<path d="M2005 3750 c-3 -5 1 -10 9 -10 9 0 16 5 16 10 0 6 -4 10 -9 10 -6 0
-13 -4 -16 -10z"/>
<path d="M3565 3740 c3 -5 8 -10 11 -10 2 0 4 5 4 10 0 6 -5 10 -11 10 -5 0
-7 -4 -4 -10z"/>
<path d="M3590 3727 c0 -2 15 -16 33 -33 l32 -29 -29 33 c-28 30 -36 37 -36
29z"/>
<path d="M2135 3707 c-10 -8 -15 -19 -11 -25 10 -17 41 -15 57 4 10 13 10 17
-2 25 -19 12 -22 11 -44 -4z"/>
<path d="M1940 3700 c-13 -8 -12 -10 3 -10 9 0 17 5 17 10 0 12 -1 12 -20 0z"/>
<path d="M1670 3639 c0 -5 5 -7 10 -4 6 3 10 8 10 11 0 2 -4 4 -10 4 -5 0 -10
-5 -10 -11z"/>
<path d="M2067 3631 c-3 -12 -1 -21 3 -21 14 0 19 15 11 29 -6 9 -10 7 -14 -8z"/>
<path d="M2169 3636 c10 -12 8 -15 -11 -19 -22 -4 -22 -4 2 -5 14 0 34 3 44 7
18 7 16 9 -13 19 -28 10 -31 10 -22 -2z"/>
<path d="M2105 3630 c-4 -6 -1 -18 6 -26 10 -13 10 -17 -2 -25 -10 -6 -10 -9
-1 -9 6 0 11 -3 11 -7 -7 -42 25 -65 46 -36 8 10 17 14 22 10 11 -12 -26 -37
-53 -37 -12 0 -24 -7 -28 -15 -7 -19 20 -46 39 -38 9 3 22 0 30 -7 19 -16 34
-5 28 20 -4 15 -9 17 -23 10 -13 -7 -21 -7 -25 0 -3 5 3 10 13 10 11 0 25 7
32 15 7 8 17 12 23 8 6 -3 7 -1 3 5 -4 6 -14 8 -23 5 -11 -4 -14 -2 -9 5 9 15
-12 54 -25 47 -5 -4 -7 -10 -4 -15 3 -5 0 -12 -6 -15 -6 -4 -13 2 -16 14 -3
12 -10 21 -15 21 -6 0 -6 6 1 14 10 11 8 17 -6 25 -16 9 -16 12 -3 21 9 6 10
10 3 10 -6 0 -15 -5 -18 -10z m90 -180 c3 -6 -1 -7 -9 -4 -18 7 -21 14 -7 14
6 0 13 -4 16 -10z"/>
<path d="M3680 3637 c0 -2 15 -16 33 -33 l32 -29 -29 33 c-28 30 -36 37 -36
29z"/>
<path d="M2218 3558 c5 -5 16 -8 23 -6 8 3 3 7 -10 11 -17 4 -21 3 -13 -5z"/>
<path d="M1493 3458 c4 -15 3 -30 -3 -33 -6 -3 -9 -19 -8 -35 2 -23 5 -27 18
-20 9 5 22 16 30 24 10 13 10 16 -3 16 -8 0 -17 -6 -20 -12 -2 -7 -8 -10 -12
-6 -12 12 5 28 31 28 13 0 24 4 24 10 0 5 -7 7 -15 4 -8 -4 -15 -1 -15 6 0 6
-8 19 -17 28 -15 16 -16 15 -10 -10z"/>
<path d="M2685 3440 c-3 -6 1 -7 9 -4 18 7 21 14 7 14 -6 0 -13 -4 -16 -10z"/>
<path d="M2272 3330 c0 -14 2 -19 5 -12 2 6 2 18 0 25 -3 6 -5 1 -5 -13z"/>
<path d="M2697 3328 c-15 -5 -25 -14 -21 -19 9 -16 33 -10 44 11 6 11 9 20 8
19 -2 0 -15 -5 -31 -11z"/>
<path d="M3022 3298 c5 -15 28 -23 28 -10 0 5 -7 13 -16 16 -10 4 -14 1 -12
-6z"/>
<path d="M3067 3286 c-17 -26 -13 -36 14 -36 19 0 35 33 24 50 -10 16 -22 12
-38 -14z m33 5 c0 -6 -4 -13 -10 -16 -5 -3 -10 1 -10 9 0 9 5 16 10 16 6 0 10
-4 10 -9z"/>
<path d="M3785 3250 c3 -5 8 -10 11 -10 2 0 4 5 4 10 0 6 -5 10 -11 10 -5 0
-7 -4 -4 -10z"/>
<path d="M2111 3191 c-1 -52 0 -53 17 -38 27 25 33 21 28 -17 -3 -28 -1 -34
11 -29 12 5 12 7 2 14 -10 6 -8 13 10 28 14 12 21 27 18 36 -4 8 -3 14 1 14
18 -3 22 2 10 15 -11 12 -15 12 -30 -1 -20 -18 -55 -9 -61 15 -3 9 -5 -7 -6
-37z"/>
<path d="M3770 3221 c0 -12 6 -24 13 -26 8 -4 11 -24 10 -61 -3 -55 -2 -56 22
-52 20 4 23 3 14 -8 -6 -7 -8 -18 -4 -24 3 -5 3 -15 -1 -21 -4 -8 -9 -7 -15 2
-4 7 -12 10 -16 5 -4 -5 -2 -11 5 -13 6 -3 12 -14 13 -26 1 -20 2 -20 9 3 4
14 8 21 9 16 1 -5 9 -2 18 5 15 13 16 12 11 -8 -4 -13 -3 -25 2 -28 13 -8 22
63 11 84 -6 10 -8 21 -4 24 3 4 -2 18 -11 31 -21 33 -20 43 2 24 36 -31 41
-29 24 13 -9 23 -18 37 -20 30 -7 -20 -25 -12 -19 9 3 14 -1 24 -15 31 -18 10
-19 8 -13 -13 3 -12 3 -18 -2 -13 -4 6 -16 16 -25 24 -16 12 -18 11 -18 -8z"/>
<path d="M3970 3213 c0 -12 4 -24 9 -27 4 -3 19 -34 31 -68 23 -64 49 -106 35
-58 -15 52 -75 174 -75 153z"/>
<path d="M3100 3199 c0 -8 5 -21 10 -29 8 -12 9 -10 7 7 -4 26 -17 43 -17 22z"/>
<path d="M2625 3190 c-3 -5 -1 -10 4 -10 6 0 11 5 11 10 0 6 -2 10 -4 10 -3 0
-8 -4 -11 -10z"/>
<path d="M2660 3170 c-9 -6 -10 -10 -3 -10 6 0 15 5 18 10 8 12 4 12 -15 0z"/>
<path d="M2430 3155 c0 -5 5 -17 11 -25 8 -11 12 -12 16 -2 2 6 9 10 14 6 5
-3 9 0 9 6 0 7 -7 9 -17 6 -9 -4 -20 -1 -25 6 -4 7 -8 9 -8 3z"/>
<path d="M2616 3145 c4 -8 14 -15 23 -15 10 0 23 -11 29 -24 8 -17 17 -23 30
-19 23 6 39 -14 23 -30 -8 -8 -19 -3 -41 18 -31 30 -38 28 -19 -7 6 -11 7 -18
1 -14 -5 3 -15 19 -22 36 -15 36 -25 38 -28 6 -1 -13 5 -27 13 -30 8 -3 15
-18 15 -33 0 -22 2 -25 10 -13 9 13 12 13 24 -3 19 -25 56 -15 49 13 -3 11 -1
20 5 20 5 0 14 17 19 37 7 29 5 42 -6 55 -14 16 -17 16 -42 1 -25 -15 -29 -15
-53 0 -31 21 -37 21 -30 2z m89 -35 c-3 -5 -10 -10 -16 -10 -5 0 -9 5 -9 10 0
6 7 10 16 10 8 0 12 -4 9 -10z"/>
<path d="M3148 3143 c9 -16 9 -22 -1 -26 -6 -2 -9 -7 -5 -11 7 -9 48 15 48 28
0 5 -3 6 -7 3 -3 -4 -15 1 -26 10 -19 17 -20 17 -9 -4z"/>
<path d="M2420 3100 c0 -5 5 -10 11 -10 5 0 7 5 4 10 -3 6 -8 10 -11 10 -2 0
-4 -4 -4 -10z"/>
<path d="M3750 3100 c0 -13 18 -22 24 -11 3 5 -1 11 -9 15 -8 3 -15 1 -15 -4z"/>
<path d="M2160 3090 c-8 -26 -7 -41 2 -32 6 6 8 16 5 24 -3 7 -6 11 -7 8z"/>
<path d="M3140 3075 c0 -8 4 -15 10 -15 5 0 7 7 4 15 -4 8 -8 15 -10 15 -2 0
-4 -7 -4 -15z"/>
<path d="M3726 3081 c-4 -6 -2 -11 5 -11 6 0 9 -8 6 -20 -3 -11 -1 -20 3 -20
16 0 18 15 6 39 -9 15 -16 20 -20 12z"/>
<path d="M2178 3048 c-7 -13 -13 -25 -13 -28 0 -3 -7 -15 -14 -28 -7 -13 -10
-30 -7 -38 3 -7 -3 -18 -13 -24 -10 -5 -21 -19 -24 -31 -5 -20 -4 -19 23 6 15
15 32 25 36 23 5 -1 10 6 12 17 5 23 22 45 22 27 0 -7 5 -12 11 -12 5 0 7 5 4
10 -3 6 1 10 9 10 20 0 20 -7 -3 -50 -14 -26 -16 -39 -9 -56 10 -22 38 -23 38
-2 0 6 -7 8 -15 4 -26 -10 -1 26 34 49 17 11 32 27 33 35 3 11 5 12 11 3 5 -7
-1 -21 -13 -33 -21 -21 -25 -30 -12 -30 4 0 17 15 28 33 22 33 22 34 3 46 -11
6 -24 9 -29 6 -6 -4 -10 -1 -10 5 0 8 11 9 33 5 30 -7 31 -6 12 9 -26 20 -59
20 -75 1 -17 -21 -24 -12 -10 14 8 17 8 21 -4 21 -8 0 -21 7 -30 15 -13 14
-16 13 -28 -7z m-8 -89 c0 -6 -4 -7 -10 -4 -5 3 -10 11 -10 16 0 6 5 7 10 4 6
-3 10 -11 10 -16z"/>
<path d="M2740 3035 c1 -15 23 -40 40 -47 18 -7 45 18 30 27 -6 3 -10 1 -10
-4 0 -6 -5 -11 -11 -11 -6 0 -8 7 -5 16 4 11 2 15 -8 11 -7 -3 -19 0 -25 6 -6
6 -11 7 -11 2z"/>
<path d="M3074 3029 c-3 -6 -25 -19 -49 -29 -24 -10 -46 -23 -49 -29 -10 -16
10 -13 28 4 19 19 30 19 23 0 -4 -8 -2 -17 3 -20 6 -4 10 0 10 8 0 11 8 13 33
8 40 -8 45 -42 7 -52 -14 -4 -19 -7 -12 -8 6 -1 12 -7 12 -13 -1 -7 -9 -3 -19
10 -11 12 -24 22 -30 22 -13 0 -43 -69 -35 -81 3 -5 0 -9 -7 -9 -7 0 -10 -3
-6 -6 11 -11 -23 -36 -41 -30 -14 5 -13 3 2 -9 11 -8 27 -15 36 -15 12 0 15
-10 14 -50 -2 -27 2 -50 7 -50 5 0 9 -6 9 -14 0 -7 8 -20 18 -27 15 -12 16
-12 5 2 -7 9 -10 19 -5 23 4 4 -1 12 -11 17 -22 13 -13 29 17 29 12 0 27 5 34
12 9 9 12 9 12 0 0 -7 4 -12 10 -12 5 0 7 7 4 15 -7 18 12 20 20 3 3 -7 4 1 3
17 -2 26 1 30 22 27 14 -1 32 -9 40 -16 14 -12 18 -12 29 0 7 8 12 24 10 36
-3 20 -4 21 -20 5 -16 -16 -17 -16 -27 0 -9 16 -12 16 -21 3 -7 -11 -9 -2 -5
33 4 45 0 52 -27 48 -14 -2 -8 16 9 30 15 12 16 12 10 -3 -4 -12 -2 -15 8 -12
7 3 15 -2 17 -12 3 -15 4 -15 16 -2 10 13 10 18 0 29 -7 8 -14 22 -16 31 -2
13 2 16 15 11 15 -5 16 -3 6 7 -10 11 -16 11 -31 -3 -23 -21 -36 -22 -28 -1 4
10 -4 19 -24 28 -17 7 -27 16 -23 19 7 8 14 37 8 37 -2 0 -7 -5 -11 -11z m26
-159 c0 -5 -4 -10 -10 -10 -5 0 -10 5 -10 10 0 6 5 10 10 10 6 0 10 -4 10 -10z
m-32 -40 c-3 -35 -2 -35 -22 -15 -13 14 -15 13 -13 -5 1 -11 5 -20 9 -20 4 0
8 -5 8 -10 0 -6 -11 -3 -24 6 l-25 16 26 29 c33 37 44 37 41 -1z"/>
<path d="M3210 3003 c0 -7 -7 -10 -17 -6 -14 4 -14 2 2 -9 22 -17 77 -30 69
-17 -3 5 -10 9 -16 9 -6 0 -17 8 -24 18 -8 10 -13 12 -14 5z"/>
<path d="M3445 2998 c-4 -10 -14 -18 -22 -18 -9 0 -13 -7 -11 -17 2 -10 9 -17
14 -16 6 1 11 -4 11 -10 0 -14 -35 -15 -55 -3 -7 4 -10 12 -7 17 9 13 -9 11
-23 -3 -9 -9 -12 -9 -12 1 0 7 -4 9 -10 6 -5 -3 -10 -1 -10 4 0 6 -5 11 -11
11 -6 0 -8 -9 -4 -22 7 -23 7 -23 -9 -3 -15 19 -15 18 -9 -14 4 -24 2 -37 -9
-45 -24 -18 -43 -59 -29 -64 9 -3 8 -11 -4 -28 -8 -13 -11 -24 -5 -24 5 0 10
-5 10 -11 0 -6 -6 -9 -14 -6 -18 7 -44 -21 -29 -31 13 -9 38 -54 35 -64 -1 -5
1 -7 6 -7 19 3 21 -3 7 -25 -11 -16 -13 -26 -6 -31 7 -3 11 3 11 14 0 25 20
28 21 4 0 -15 2 -15 9 2 5 11 9 27 9 35 0 9 -4 8 -9 -5 -7 -16 -9 -17 -9 -3
-1 9 -7 19 -13 22 -10 5 -10 7 -1 12 7 3 9 12 6 20 -3 8 0 14 6 14 6 0 11 5
11 11 0 6 -9 9 -20 6 -18 -5 -19 -3 -5 16 9 12 12 31 9 46 -6 24 -6 25 8 7 13
-17 15 -17 21 -3 3 9 2 19 -4 22 -5 4 0 14 12 24 20 16 20 18 5 33 -19 20 -22
43 -3 31 6 -4 15 -8 19 -8 10 0 22 -15 12 -15 -5 0 -9 -19 -10 -42 0 -23 -6
-44 -12 -46 -18 -6 -15 -39 4 -46 20 -8 24 -8 23 2 -1 4 -1 14 0 22 1 13 2 13
11 0 8 -12 10 -11 10 7 0 12 -6 23 -12 26 -7 2 -10 8 -6 12 4 4 16 -2 26 -15
l18 -22 30 26 c19 18 25 29 17 33 -7 2 -13 9 -13 14 0 5 9 4 19 -3 15 -9 17
-17 10 -36 -6 -14 -5 -30 1 -40 5 -9 10 -12 11 -7 6 38 4 72 -4 83 -5 7 -7 16
-3 20 4 4 13 -1 20 -11 7 -9 19 -17 26 -17 9 0 8 5 -3 18 -20 22 -22 38 -4 45
9 4 8 6 -2 6 -11 1 -11 4 -1 16 10 12 10 15 -2 15 -14 0 -30 24 -41 60 -4 12
-6 12 -12 -2z m-43 -170 c-6 -23 -25 -9 -27 21 -1 15 2 17 15 8 10 -6 15 -18
12 -29z m-137 -48 c3 -5 1 -10 -4 -10 -6 0 -11 5 -11 10 0 6 2 10 4 10 3 0 8
-4 11 -10z"/>
<path d="M2626 2990 c-13 -4 -16 -9 -8 -14 7 -4 19 -3 28 2 21 12 5 22 -20 12z"/>
<path d="M3360 2980 c0 -5 5 -10 11 -10 5 0 7 5 4 10 -3 6 -8 10 -11 10 -2 0
-4 -4 -4 -10z"/>
<path d="M2896 2971 c-3 -5 1 -11 9 -15 8 -3 15 -1 15 4 0 13 -18 22 -24 11z"/>
<path d="M3840 2970 c0 -5 5 -10 11 -10 5 0 7 5 4 10 -3 6 -8 10 -11 10 -2 0
-4 -4 -4 -10z"/>
<path d="M2554 2952 c11 -12 19 -13 27 -5 7 7 3 12 -16 15 -25 5 -25 4 -11
-10z"/>
<path d="M2190 2939 c0 -5 5 -7 10 -4 6 3 10 8 10 11 0 2 -4 4 -10 4 -5 0 -10
-5 -10 -11z"/>
<path d="M2654 2941 c4 -5 1 -11 -6 -13 -7 -3 -5 -7 6 -11 10 -4 15 -3 11 3
-8 13 11 13 38 -1 21 -10 21 -9 -2 10 -23 21 -57 29 -47 12z"/>
<path d="M3240 2941 c0 -5 5 -13 10 -16 6 -3 10 -2 10 4 0 5 -4 13 -10 16 -5
3 -10 2 -10 -4z"/>
<path d="M2756 2932 c-3 -5 1 -9 9 -9 8 0 15 4 15 9 0 4 -4 8 -9 8 -6 0 -12
-4 -15 -8z"/>
<path d="M3526 2932 c-3 -5 -3 -17 0 -25 3 -8 1 -18 -5 -22 -6 -3 -11 -11 -11
-17 0 -6 3 -8 7 -5 3 4 12 -1 20 -11 12 -15 13 -14 7 10 -5 23 -2 27 26 33 24
5 29 10 19 16 -9 5 -15 4 -18 -3 -2 -6 -11 -1 -21 12 -10 14 -20 19 -24 12z"/>
<path d="M2076 2914 c-9 -8 -16 -12 -16 -7 0 4 -7 -5 -15 -21 -23 -44 -18 -53
13 -20 40 41 56 87 18 48z"/>
<path d="M3205 2920 c3 -5 8 -10 11 -10 2 0 4 5 4 10 0 6 -5 10 -11 10 -5 0
-7 -4 -4 -10z"/>
<path d="M3967 2903 c-4 -3 -7 -20 -6 -37 l1 -31 9 34 c10 33 8 47 -4 34z"/>
<path d="M2136 2891 c-3 -5 1 -11 9 -14 9 -4 12 -1 8 9 -6 16 -10 17 -17 5z"/>
<path d="M3205 2891 c-3 -5 -1 -12 5 -16 5 -3 10 1 10 9 0 18 -6 21 -15 7z"/>
<path d="M3916 2887 c3 -10 9 -15 12 -12 3 3 0 11 -7 18 -10 9 -11 8 -5 -6z"/>
<path d="M4007 2879 c4 -13 8 -18 11 -10 2 7 -1 18 -6 23 -8 8 -9 4 -5 -13z"/>
<path d="M2521 2866 c-10 -12 -8 -13 8 -9 12 3 21 9 21 14 0 14 -16 11 -29 -5z"/>
<path d="M2580 2870 c0 -5 6 -7 14 -4 8 3 17 1 21 -5 3 -6 11 -11 17 -11 7 0
6 6 -2 15 -14 17 -50 20 -50 5z"/>
<path d="M2766 2871 c-3 -5 3 -11 14 -14 11 -3 18 -1 15 3 -3 5 1 11 7 13 7 3
3 6 -9 6 -12 1 -24 -3 -27 -8z"/>
<path d="M2457 2853 c-11 -10 -8 -25 2 -18 6 3 14 -3 20 -12 6 -10 10 -13 10
-8 0 16 -25 45 -32 38z"/>
<path d="M2567 2833 c-2 -4 -1 -17 3 -27 6 -19 7 -19 14 -1 7 19 -8 44 -17 28z"/>
<path d="M2650 2836 c0 -2 7 -9 15 -16 13 -11 14 -10 9 4 -5 14 -24 23 -24 12z"/>
<path d="M3970 2821 c0 -6 4 -13 10 -16 6 -3 7 1 4 9 -7 18 -14 21 -14 7z"/>
<path d="M2256 2805 c-19 -15 -19 -15 2 -15 29 0 39 -25 18 -45 -17 -18 -20
-26 -8 -23 4 0 18 -4 32 -10 19 -8 21 -11 7 -11 -11 -1 -15 -5 -11 -13 5 -8 2
-9 -9 -5 -22 8 -47 -2 -47 -19 0 -8 -5 -14 -11 -14 -5 0 -7 -5 -4 -10 4 -6 11
-8 16 -5 5 4 9 1 9 -4 0 -6 -7 -11 -16 -11 -9 0 -14 -6 -11 -12 2 -7 13 -13
24 -13 30 0 36 -10 7 -11 -48 -3 -55 -11 -48 -49 4 -24 3 -35 -6 -35 -7 0 -2
-9 11 -20 l24 -20 -27 6 c-22 5 -28 2 -28 -10 0 -17 -15 -22 -24 -7 -3 5 -21
5 -41 1 -30 -7 -34 -6 -24 6 6 8 23 14 38 14 36 0 47 10 49 48 2 27 -1 32 -20
32 -21 0 -21 0 -2 -16 19 -15 19 -16 -1 -9 -32 11 -115 13 -115 3 0 -5 -4 -6
-10 -3 -21 13 -9 -13 13 -28 12 -8 19 -18 15 -22 -4 -4 -14 -2 -23 5 -21 18
-32 4 -13 -17 21 -25 35 -68 18 -58 -8 5 -11 4 -6 -3 4 -6 14 -8 23 -5 12 5
15 2 10 -10 -4 -10 0 -20 11 -26 9 -5 18 -22 19 -38 2 -15 3 -34 5 -40 2 -15
18 -18 18 -3 0 17 28 11 39 -7 5 -10 13 -14 17 -10 4 4 3 12 -4 19 -8 8 -7 14
2 23 18 18 64 16 69 -4 3 -10 5 -8 6 7 0 12 6 22 12 22 5 0 7 5 4 10 -3 6 -2
10 4 10 7 0 7 8 1 24 -5 15 -5 27 3 35 10 10 -1 16 -25 12 -4 0 -5 6 -2 14 4
8 10 15 16 15 5 0 7 -4 4 -9 -3 -5 1 -12 10 -15 13 -5 14 -9 4 -21 -10 -12 -9
-15 4 -15 9 0 16 5 16 10 0 6 7 10 16 10 13 0 15 7 11 30 -4 18 -2 30 4 30 6
0 7 5 4 10 -3 6 -2 10 4 10 5 0 13 -4 16 -10 3 -5 1 -10 -4 -10 -6 0 -11 -4
-11 -10 0 -5 6 -10 14 -10 8 0 22 -10 30 -22 l16 -22 0 27 c0 15 4 27 9 27 6
0 9 8 8 19 -1 12 -7 17 -18 14 -9 -3 -20 0 -23 6 -4 5 -13 8 -20 5 -8 -3 -17
-1 -20 5 -4 5 4 13 16 17 l23 7 -25 9 c-14 5 -20 12 -15 16 14 10 15 61 1 56
-18 -6 -39 13 -33 30 5 11 14 14 36 10 24 -5 29 -3 28 12 -2 12 8 20 31 26 33
9 41 22 20 32 -10 5 -10 7 0 12 6 3 12 15 12 26 0 17 -4 20 -30 14 -22 -4 -32
-1 -36 9 -4 8 -11 15 -17 15 -6 0 -7 -3 -4 -7 7 -7 -22 -32 -38 -33 -5 0 -3 4
5 10 12 8 12 10 -3 16 -9 3 -17 12 -17 20 0 18 -10 17 -34 -1z m69 -65 c3 -5
1 -10 -4 -10 -6 0 -11 5 -11 10 0 6 2 10 4 10 3 0 8 -4 11 -10z m-55 -268 c0
-5 -7 -9 -15 -9 -8 0 -12 4 -9 9 3 4 9 8 15 8 5 0 9 -4 9 -8z m45 -40 c-8 -9
-25 20 -18 31 3 5 10 2 15 -7 6 -10 7 -20 3 -24z m-115 -1 c0 -12 -20 -25 -27
-18 -7 7 6 27 18 27 5 0 9 -4 9 -9z m40 -66 c-6 -8 -5 -16 3 -24 7 -8 -1 -7
-20 3 -33 17 -45 30 -18 20 14 -6 20 7 16 30 -1 5 5 4 14 -4 10 -9 12 -16 5
-25z m-70 -45 c0 -10 -41 -21 -52 -14 -5 3 -6 8 -4 12 6 10 56 12 56 2z"/>
<path d="M2602 2813 c-10 -4 -10 -8 -1 -19 8 -10 8 -14 1 -14 -7 0 -9 -8 -5
-17 4 -12 -4 -9 -24 10 -19 17 -33 24 -37 18 -4 -5 -13 -8 -21 -4 -11 4 -13 1
-9 -11 7 -19 21 -21 27 -3 2 6 8 8 13 4 5 -5 1 -13 -9 -18 -23 -14 -21 -26 6
-35 12 -3 30 -13 40 -22 13 -12 20 -13 29 -4 9 9 8 12 -5 12 -9 0 -17 7 -17
16 0 14 3 14 15 4 8 -7 15 -9 15 -4 0 5 4 4 8 -2 10 -16 52 -28 52 -15 0 6 7
11 15 11 26 0 16 32 -20 66 -33 33 -46 38 -73 27z"/>
<path d="M3496 2804 c-9 -25 -7 -36 7 -32 6 3 13 14 13 26 1 26 -11 29 -20 6z"/>
<path d="M4112 2790 c0 -19 2 -27 5 -17 2 9 2 25 0 35 -3 9 -5 1 -5 -18z"/>
<path d="M2170 2798 c0 -4 4 -8 9 -8 5 0 11 -6 14 -12 2 -7 3 -5 2 4 -2 9 2
19 9 22 6 2 1 3 -11 3 -13 -1 -23 -5 -23 -9z"/>
<path d="M2215 2790 c-3 -5 -1 -10 4 -10 6 0 11 5 11 10 0 6 -2 10 -4 10 -3 0
-8 -4 -11 -10z"/>
<path d="M2460 2779 c0 -8 7 -23 15 -33 15 -19 15 -19 15 1 0 11 -7 26 -15 33
-12 10 -15 10 -15 -1z"/>
<path d="M2750 2781 c0 -5 5 -13 10 -16 6 -3 10 -2 10 4 0 5 -4 13 -10 16 -5
3 -10 2 -10 -4z"/>
<path d="M3764 2776 c3 -10 1 -25 -5 -33 -9 -10 -9 -19 1 -38 11 -20 16 -23
28 -12 13 10 14 8 7 -12 -5 -16 -4 -21 4 -17 7 5 9 0 3 -16 -19 -58 3 -83 28
-31 l15 32 18 -22 c19 -23 20 -21 17 37 -1 21 4 42 10 46 8 5 7 9 -4 13 -12 5
-16 0 -16 -16 -1 -21 -2 -21 -21 6 -11 15 -27 27 -34 27 -8 0 -24 12 -36 28
-14 17 -20 20 -15 8z m26 -46 c0 -17 -2 -19 -14 -8 -14 13 -12 28 5 28 5 0 9
-9 9 -20z m51 -36 c5 -15 7 -29 4 -32 -3 -3 -5 0 -5 6 0 7 -9 21 -20 32 -16
16 -17 20 -5 20 9 0 20 -12 26 -26z"/>
<path d="M3392 2768 c-8 -8 -8 -17 -1 -30 12 -23 6 -23 -17 0 -17 16 -18 16
-11 0 4 -12 2 -18 -7 -18 -17 0 -38 -24 -29 -33 3 -4 12 1 18 10 7 9 26 17 41
18 16 0 30 6 30 13 1 6 2 19 3 27 0 8 7 12 16 9 8 -4 15 -2 15 3 0 13 -45 14
-58 1z"/>
<path d="M2780 2740 c0 -5 5 -10 11 -10 5 0 7 5 4 10 -3 6 -8 10 -11 10 -2 0
-4 -4 -4 -10z"/>
<path d="M3970 2733 c0 -12 5 -25 10 -28 13 -8 13 15 0 35 -8 12 -10 11 -10
-7z"/>
<path d="M4123 2715 c0 -22 2 -30 4 -17 2 12 2 30 0 40 -3 9 -5 -1 -4 -23z"/>
<path d="M1740 2722 c0 -12 19 -26 26 -19 2 2 -2 10 -11 17 -9 8 -15 8 -15 2z"/>
<path d="M3164 2703 c-4 -16 -8 -31 -9 -35 -2 -5 -3 -14 -4 -22 0 -7 -10 -16
-22 -19 -17 -5 -19 -9 -9 -26 6 -12 15 -21 21 -21 6 0 7 5 3 12 -5 8 -2 9 9 5
10 -3 17 -2 17 2 0 5 -4 11 -9 13 -5 2 -4 14 1 28 6 15 12 20 15 13 3 -7 9
-13 14 -13 14 0 11 38 -3 43 -10 4 -10 8 1 15 7 5 10 15 7 21 -12 19 -23 12
-32 -16z"/>
<path d="M1790 2716 c0 -2 7 -7 16 -10 8 -3 12 -2 9 4 -6 10 -25 14 -25 6z"/>
<path d="M3020 2696 c0 -9 30 -14 35 -6 4 6 -3 10 -14 10 -12 0 -21 -2 -21 -4z"/>
<path d="M3392 2687 c-8 -9 -8 -17 0 -27 8 -13 9 -12 5 1 -3 9 0 22 6 28 6 6
8 11 5 11 -3 0 -10 -6 -16 -13z"/>
<path d="M3500 2685 c0 -8 9 -19 20 -25 16 -9 18 -8 14 5 -4 8 -10 15 -16 15
-5 0 -6 5 -3 10 3 6 1 10 -4 10 -6 0 -11 -7 -11 -15z"/>
<path d="M3745 2690 c3 -5 8 -10 11 -10 2 0 4 5 4 10 0 6 -5 10 -11 10 -5 0
-7 -4 -4 -10z"/>
<path d="M3310 2655 c0 -8 4 -15 10 -15 5 0 7 7 4 15 -4 8 -8 15 -10 15 -2 0
-4 -7 -4 -15z"/>
<path d="M3647 2656 c-4 -10 -5 -21 -2 -24 9 -9 17 6 13 25 -3 17 -4 17 -11
-1z"/>
<path d="M4133 2630 c0 -25 2 -35 4 -22 2 12 2 32 0 45 -2 12 -4 2 -4 -23z"/>
<path d="M3724 2623 c1 -43 8 -53 23 -30 13 20 12 37 -2 37 -8 0 -15 8 -18 18
-2 9 -3 -2 -3 -25z"/>
<path d="M3445 2640 c-3 -6 1 -7 9 -4 18 7 21 14 7 14 -6 0 -13 -4 -16 -10z"/>
<path d="M3490 2635 c-20 -24 -6 -28 15 -5 10 11 13 20 8 20 -6 0 -16 -7 -23
-15z"/>
<path d="M3202 2628 c2 -6 10 -14 16 -16 7 -2 10 2 6 12 -7 18 -28 22 -22 4z"/>
<path d="M3055 2621 c-6 -11 9 -23 19 -14 9 9 7 23 -3 23 -6 0 -12 -4 -16 -9z"/>
<path d="M3530 2620 c0 -5 9 -14 20 -20 11 -6 20 -9 20 -8 0 2 -9 11 -20 21
-11 9 -20 13 -20 7z"/>
<path d="M3610 2611 c0 -6 4 -12 8 -15 5 -3 9 1 9 9 0 8 -4 15 -9 15 -4 0 -8
-4 -8 -9z"/>
<path d="M3080 2595 c0 -8 -6 -15 -12 -16 -7 0 -2 -5 11 -10 29 -11 32 -9 24
19 -6 25 -23 30 -23 7z"/>
<path d="M3684 2585 c8 -8 17 -15 20 -15 3 0 3 7 0 15 -4 8 -13 15 -21 15 -12
0 -12 -2 1 -15z"/>
<path d="M3752 2588 c-16 -16 -16 -81 1 -75 6 2 11 14 9 25 -2 12 1 22 5 22 5
0 9 9 10 20 2 23 -7 26 -25 8z"/>
<path d="M2085 2580 c-3 -5 2 -10 12 -11 16 0 16 -1 -2 -9 -19 -8 -19 -9 1 -9
21 -1 39 21 27 33 -10 9 -31 7 -38 -4z"/>
<path d="M3315 2579 c-11 -16 -1 -19 13 -3 7 8 8 14 3 14 -5 0 -13 -5 -16 -11z"/>
<path d="M4142 2550 c0 -19 2 -27 5 -17 2 9 2 25 0 35 -3 9 -5 1 -5 -18z"/>
<path d="M3126 2558 c3 -4 0 -8 -6 -8 -6 0 -8 -5 -5 -10 4 -6 13 -4 23 6 10
11 17 13 20 5 2 -6 9 -11 15 -11 8 0 7 4 -1 12 -13 13 -54 19 -46 6z"/>
<path d="M1880 2540 c0 -5 5 -10 11 -10 5 0 7 5 4 10 -3 6 -8 10 -11 10 -2 0
-4 -4 -4 -10z"/>
<path d="M1980 2540 c0 -5 5 -10 10 -10 6 0 10 5 10 10 0 6 -4 10 -10 10 -5 0
-10 -4 -10 -10z"/>
<path d="M3810 2528 c0 -9 7 -19 16 -22 15 -6 15 -4 3 11 -7 10 -15 20 -16 22
-2 2 -3 -3 -3 -11z"/>
<path d="M3250 2508 c0 -19 2 -20 10 -8 13 19 13 30 0 30 -5 0 -10 -10 -10
-22z"/>
<path d="M1856 2494 c-9 -24 -7 -27 9 -10 17 17 19 26 6 26 -5 0 -12 -7 -15
-16z"/>
<path d="M1980 2500 c0 -5 5 -10 10 -10 6 0 10 5 10 10 0 6 -4 10 -10 10 -5 0
-10 -4 -10 -10z"/>
<path d="M3783 2477 c0 -41 23 -46 29 -6 4 24 -7 39 -26 39 -2 0 -3 -15 -3
-33z"/>
<path d="M2450 2491 c0 -6 4 -13 10 -16 6 -3 7 1 4 9 -7 18 -14 21 -14 7z"/>
<path d="M1956 2479 c3 -6 2 -14 -4 -18 -6 -4 -5 -11 4 -19 12 -11 14 -8 14
18 0 16 -5 30 -11 30 -5 0 -7 -5 -3 -11z"/>
<path d="M1990 2460 c0 -5 5 -10 11 -10 5 0 7 5 4 10 -3 6 -8 10 -11 10 -2 0
-4 -4 -4 -10z"/>
<path d="M2438 2452 c-3 -10 5 -30 18 -45 20 -24 26 -26 48 -15 20 9 23 14 15
25 -15 17 -30 17 -23 -1 4 -9 0 -14 -11 -12 -20 3 -35 25 -28 42 2 6 0 15 -5
18 -5 3 -12 -2 -14 -12z"/>
<path d="M3745 2450 c3 -5 8 -10 11 -10 2 0 4 5 4 10 0 6 -5 10 -11 10 -5 0
-7 -4 -4 -10z"/>
<path d="M3666 2428 c3 -4 12 -8 20 -8 8 0 14 4 14 8 0 4 -9 8 -19 8 -11 0
-17 -4 -15 -8z"/>
<path d="M3715 2415 c0 -25 9 -33 19 -16 3 4 0 16 -7 25 -11 14 -12 13 -12 -9z"/>
<path d="M3825 2430 c3 -5 8 -10 11 -10 2 0 4 5 4 10 0 6 -5 10 -11 10 -5 0
-7 -4 -4 -10z"/>
<path d="M1976 2415 c-4 -11 0 -14 17 -11 12 3 24 5 27 5 6 2 -23 21 -31 21
-4 0 -9 -7 -13 -15z"/>
<path d="M3772 2418 c-14 -14 -16 -38 -3 -38 6 0 13 5 16 10 5 8 11 7 21 -1 8
-6 17 -9 21 -5 3 3 0 6 -7 6 -7 0 -10 3 -7 7 7 7 -11 33 -22 33 -4 0 -12 -5
-19 -12z"/>
<path d="M2437 2389 c7 -7 15 -10 18 -7 3 3 -2 9 -12 12 -14 6 -15 5 -6 -5z"/>
<path d="M3730 2375 c0 -5 5 -17 10 -25 5 -8 10 -10 10 -5 0 6 -5 17 -10 25
-5 8 -10 11 -10 5z"/>
<path d="M2215 2290 c3 -5 8 -10 11 -10 2 0 4 5 4 10 0 6 -5 10 -11 10 -5 0
-7 -4 -4 -10z"/>
<path d="M2080 2149 c0 -5 5 -7 10 -4 6 3 10 8 10 11 0 2 -4 4 -10 4 -5 0 -10
-5 -10 -11z"/>
<path d="M2056 2121 c-3 -5 1 -14 8 -20 12 -10 13 -8 9 8 -6 23 -9 25 -17 12z"/>
<path d="M3537 2063 c-12 -11 -8 -23 8 -23 8 0 15 7 15 15 0 16 -12 20 -23 8z"/>
<path d="M3470 2040 c0 -5 5 -10 11 -10 5 0 7 5 4 10 -3 6 -8 10 -11 10 -2 0
-4 -4 -4 -10z"/>
<path d="M3965 1750 c-9 -16 -13 -30 -11 -30 3 0 12 14 21 30 9 17 13 30 11
30 -3 0 -12 -13 -21 -30z"/>
<path d="M2446 1751 c-3 -5 1 -14 9 -21 10 -9 15 -9 15 -1 0 6 -5 11 -11 11
-5 0 -7 5 -4 10 3 6 4 10 1 10 -3 0 -7 -4 -10 -9z"/>
<path d="M3885 1610 c-27 -43 -52 -77 -56 -75 -4 3 -13 -3 -20 -13 -12 -15
-12 -16 2 -5 9 7 18 11 21 8 5 -6 64 80 92 133 30 58 10 34 -39 -48z"/>
<path d="M2345 1610 c3 -5 8 -10 11 -10 2 0 4 5 4 10 0 6 -5 10 -11 10 -5 0
-7 -4 -4 -10z"/>
<path d="M3800 1485 c-7 -9 -15 -13 -17 -11 -5 5 -68 -63 -68 -73 0 -8 -193
-200 -235 -234 -19 -16 -28 -25 -20 -21 30 15 157 124 221 191 67 69 145 163
136 163 -2 0 -10 -7 -17 -15z m-20 -28 c0 -2 -15 -16 -32 -33 l-33 -29 29 33
c28 30 36 37 36 29z"/>
<path d="M2180 1410 c0 -5 5 -10 11 -10 5 0 7 5 4 10 -3 6 -8 10 -11 10 -2 0
-4 -4 -4 -10z"/>
<path d="M2121 1394 c0 -11 3 -14 6 -6 3 7 2 16 -1 19 -3 4 -6 -2 -5 -13z"/>
<path d="M2110 1360 c0 -5 5 -10 11 -10 5 0 7 5 4 10 -3 6 -8 10 -11 10 -2 0
-4 -4 -4 -10z"/>
<path d="M2200 1359 c0 -5 5 -7 10 -4 6 3 10 8 10 11 0 2 -4 4 -10 4 -5 0 -10
-5 -10 -11z"/>
<path d="M3620 1340 c-9 -6 -10 -10 -3 -10 6 0 15 5 18 10 8 12 4 12 -15 0z"/>
<path d="M3352 1086 c-29 -18 -56 -37 -60 -41 -11 -13 91 45 108 61 21 21 11
16 -48 -20z"/>
<path d="M2386 1025 c-3 -8 -1 -15 4 -15 6 0 10 7 10 15 0 8 -2 15 -4 15 -2 0
-6 -7 -10 -15z"/>
<path d="M3260 1030 c-9 -6 -10 -10 -3 -10 6 0 15 5 18 10 8 12 4 12 -15 0z"/>
<path d="M3195 999 c-22 -10 -34 -19 -27 -19 15 0 72 28 72 35 0 6 3 7 -45
-16z"/>
<path d="M3120 970 c-8 -5 -10 -10 -5 -10 6 0 17 5 25 10 8 5 11 10 5 10 -5 0
-17 -5 -25 -10z"/>
<path d="M2064 959 c-5 -8 6 -9 35 -4 37 6 41 5 41 -15 0 -12 4 -19 9 -15 5 3
12 1 16 -5 3 -5 11 -10 17 -10 7 0 -1 14 -17 30 -30 31 -87 42 -101 19z"/>
<path d="M3080 950 c-9 -6 -10 -10 -3 -10 6 0 15 5 18 10 8 12 4 12 -15 0z"/>
<path d="M2198 873 c7 -3 16 -2 19 1 4 3 -2 6 -13 5 -11 0 -14 -3 -6 -6z"/>
<path d="M2248 863 c7 -3 16 -2 19 1 4 3 -2 6 -13 5 -11 0 -14 -3 -6 -6z"/>
</g>
</svg>
