<?xml version="1.0" encoding="utf-8"?>
<!-- Generator: Adobe Illustrator 16.0.0, SVG Export Plug-In . SVG Version: 6.00 Build 0)  -->
<!DOCTYPE svg PUBLIC "-//W3C//DTD SVG 1.1//EN" "http://www.w3.org/Graphics/SVG/1.1/DTD/svg11.dtd">
<svg version="1.1" id="Layer_1" xmlns="http://www.w3.org/2000/svg" xmlns:xlink="http://www.w3.org/1999/xlink" x="0px" y="0px"
	 width="1920px" height="1080px" viewBox="0 0 1920 1080" enable-background="new 0 0 1920 1080" xml:space="preserve">
<g>
	<defs>
		<rect id="SVGID_1_" width="1920" height="1080"/>
	</defs>
	<clipPath id="SVGID_2_">
		<use xlink:href="#SVGID_1_"  overflow="visible"/>
	</clipPath>
	<g clip-path="url(#SVGID_2_)">
		<path fill="#FFFFFF" d="M1439.2,838.218c0.91-2.391,4.09-5.441,4.479-5.87c0.431-0.463,0.79-0.862,2.07-1.873
			c0.5-0.395,0.57-0.296,0.5-0.524c-0.55-1.225-0.17-2.348,0.12-2.813c1.04-1.316,2.25-1.718,3.12-1.934
			c2.12-0.525,3.67-0.329,5.04,0.525c1.37,0.856,0.93,1.056,2.399,0.3c1.15-0.593,4.721-2.786,7.28-2.788
			c2.57-0.003,4.39,1.857,5.12,3.15c0.67,1.188,0.6,1.251,0.8,1.152c1.92-0.696,2.86-1.101,3.82-2.646
			c0.77-1.236,1.91-1.406,2.38-1.337c1.15,0.206,3.63,1.299,4.33,4.016c0.89,3.396,0.71,4.079-0.04,5.437
			c-0.61,1.087-1.49,1.197-2.58,1.144c-3.21-0.69-3.44-0.609-3.86-0.623c-1.91-0.065-2.029-0.029-1.84,0.544
			c0.12,0.346,0.521,1.361,0.69,2.824c0.17,1.462-0.66,2.171-1.101,2.342c-2.09,0.998-4.529,1.451-6.68,0.972
			c-1.46-0.324-1.18-0.282-1.79-0.101c-0.979,0.291-4.75,1.531-5.399,1.598c-0.65,0.067-0.051,0.646,0.22,1.448
			c0.27,0.803-0.16,1.101-0.38,1.25c-0.33,0.224-1.49,0.787-3.461,0.142c-1.22-0.396-1.609-0.629-1.829-0.596
			c-2.69,0.419-3.95,0.288-6.471,0.025c-3.489-0.366-5.29-1.418-6.029-1.872C1439.189,841.374,1438.28,840.608,1439.2,838.218z"/>
		
			<linearGradient id="SVGID_3_" gradientUnits="userSpaceOnUse" x1="1523.0449" y1="86.3569" x2="1526.1947" y2="75.734" gradientTransform="matrix(1 0 0 -1 -47.6602 910.04)">
			<stop  offset="0" style="stop-color:#E59E75"/>
			<stop  offset="1" style="stop-color:#CF7C4C"/>
		</linearGradient>
		<path fill="url(#SVGID_3_)" d="M1478.03,834.157c-3.2-0.691-3.431-0.609-3.851-0.624c0.521-0.873,1.381-2.034,0.971-3.829
			s-1.49-3.595-1.971-3.83c0.41-0.375,0.71-0.888,0.771-0.976c0.77-1.237,1.91-1.406,2.38-1.337c1.15,0.206,3.63,1.299,4.33,4.016
			c0.88,3.396,0.71,4.079-0.04,5.437C1480.01,834.101,1479.13,834.211,1478.03,834.157z"/>
		
			<linearGradient id="SVGID_4_" gradientUnits="userSpaceOnUse" x1="1510.6328" y1="86.7095" x2="1515.7332" y2="69.4915" gradientTransform="matrix(1 0 0 -1 -47.6602 910.04)">
			<stop  offset="0" style="stop-color:#E59E75"/>
			<stop  offset="1" style="stop-color:#CF7C4C"/>
		</linearGradient>
		<path fill="url(#SVGID_4_)" d="M1465.25,840.215c-1.46-0.324-1.18-0.282-1.79-0.1c0.31-0.606,0.49-2.636,0.64-3.606
			c0.351-1.744,0.08-4.941-2.92-8.216c-1.76-1.918-3.09-2.324-3.71-2.561c1.15-0.593,4.181-2.488,6.74-2.491
			c2.57-0.002,4.39,1.858,5.12,3.15c0.67,1.189,0.25,0.42,0.92,1.609c0.311,0.54,1.9,5.504,2.09,6.077
			c0.12,0.346,0.521,1.361,0.69,2.823c0.17,1.463-0.66,2.171-1.101,2.343C1469.84,840.241,1467.4,840.694,1465.25,840.215z"/>
		
			<linearGradient id="SVGID_5_" gradientUnits="userSpaceOnUse" x1="1498.2012" y1="85.1582" x2="1504.141" y2="65.1105" gradientTransform="matrix(1 0 0 -1 -47.6602 910.04)">
			<stop  offset="0" style="stop-color:#E69E75"/>
			<stop  offset="1" style="stop-color:#C97B4F"/>
		</linearGradient>
		<path fill="url(#SVGID_5_)" d="M1454.439,844.551c-1.22-0.396-1.609-0.628-1.829-0.596c-1.23,0.173-2.271,0.25-2.63,0.266
			c-0.19-0.572-0.051-1.75,0.289-2.733c1.58-4.883,1.021-6.068,0.431-7.067c-0.63-1.073-1.561-1.933-1.99-2.309
			c-1.29-1.007-2.5-1.483-2.96-1.637c0.5-0.396,0.57-0.296,0.5-0.525c-0.55-1.225-0.17-2.348,0.12-2.813
			c1.04-1.315,2.25-1.718,3.12-1.934c2.12-0.525,3.67-0.329,5.04,0.526s1.069,0.871,1.8,0.594c1.43-0.551,4.93,10.81,2.83,15.116
			c-0.43,0.136-0.811,0.242-1.1,0.272c-0.65,0.067-0.051,0.646,0.22,1.448c0.27,0.802-0.16,1.1-0.38,1.249
			C1457.57,844.633,1456.41,845.196,1454.439,844.551z"/>
		
			<linearGradient id="SVGID_6_" gradientUnits="userSpaceOnUse" x1="1489.7422" y1="77.2153" x2="1493.1115" y2="65.8538" gradientTransform="matrix(1 0 0 -1 -47.6602 910.04)">
			<stop  offset="0" style="stop-color:#E59E75"/>
			<stop  offset="1" style="stop-color:#CF7C4C"/>
		</linearGradient>
		<path fill="url(#SVGID_6_)" d="M1439.2,838.217c0.92-2.39,4.09-5.441,4.489-5.869c2.19,0.359,3.621,1.337,3.99,1.833
			c1.69,2.274,0.67,5.227,0.08,6.283c-1.33,2.391-1.63,2.843-1.609,3.516c-3.5-0.365-5.301-1.416-6.04-1.87
			C1439.189,841.374,1438.28,840.608,1439.2,838.217z"/>
		<path fill="#8D583A" d="M1443.13,837.589c-0.069,0.395-0.399,1.131-1.19,0.926C1440.96,838.259,1441.61,836.729,1443.13,837.589z"
			/>
		<path fill="none" stroke="#B87B58" stroke-width="0.6252" d="M1446.12,843.978v-0.38c-0.03-0.495,1.51-2.717,2.02-4.003
			c0.511-1.286,0.86-3.029-0.21-4.983c-0.85-1.563-2.41-1.556-3.99-2.224l-0.199-0.192"/>
		<path fill="none" stroke="#B87B58" stroke-width="0.6252" d="M1449.98,844.222c-0.041-0.114,0.02-1.521,0.529-2.807
			s0.83-3.525,0.7-5.504c-0.13-1.979-1.42-2.986-2.14-3.528c-0.79-0.593-2.19-1.412-3.03-1.753l-0.2-0.193"/>
		<path fill="none" stroke="#B87B58" stroke-width="0.6252" d="M1456.45,826.289c0.28,0.422,1.53,1.313,2.87,7.223
			c1.1,4.836-0.33,7.034-0.021,7.951"/>
		<path fill="none" stroke="#B87B58" stroke-width="0.6252" d="M1469.98,827.578c0.439,0.501,1.34,2.376,2.34,6.117"/>
		<path fill="none" stroke="#B87B58" stroke-width="0.6252" d="M1457.47,825.729c0.24,0.309,1.75,0.927,2.54,1.52
			c0.37,0.271,1.65,1.278,3.24,3.961c1.26,2.148,1.03,4.781,0.76,5.829l-0.5,2.921l0.04,0.115"/>
		<path fill="none" stroke="#B87B58" stroke-width="0.6252" d="M1473.18,825.874c0.2,0.193,0.65,0.628,1.23,1.652
			c0.67,1.188,1.07,1.953,0.84,3.662c-0.2,1.494-0.88,1.774-0.93,2.421"/>
	</g>
</g>
<path fill-rule="evenodd" clip-rule="evenodd" fill="#F4E189" d="M2309.406,516.942c-0.724-1.229-1.447-2.459-2.172-3.688
	c-0.186-0.815-0.656-1.637,0.038-2.438c1.461-0.569,1.764,1.051,2.725,1.432c0.758,0.539,1.354,1.229,1.86,2.003
	c0.527,0.959,0.928,1.99,1.615,2.862c0.342,0.7,1.218,0.938,1.486,1.703c0.17,0.565,0.117,1.09-0.268,1.559
	c-1.829,0.494-2.79-0.965-4.032-1.792C2310.241,518.035,2309.824,517.489,2309.406,516.942z"/>
<path fill-rule="evenodd" clip-rule="evenodd" fill="#F9E685" d="M2328.044,521.476c-0.053,0.16-0.124,0.312-0.214,0.455
	c-1.41,1.246-2.979,0.003-4.472,0.274c-1.333,0.243-2.736-0.19-4.077,0.257c-0.119-0.345-0.239-0.69-0.359-1.035
	c0.364-0.4,0.835-0.282,0.993-0.281c-0.68,0.062-1.668-0.214-2.622,0.166l0.014,0.179c-0.929-0.085-2.014,0.183-2.426-1.072
	c0.191-0.7,0.375-1.406,1.187-1.666c0.569-0.178,1.14,0.002,1.709-0.01c2.303,0.537,4.617,0.563,6.941,0.15
	c0.661,0.056,1.337-0.243,1.989,0.067c0.305,0.25,0.429,0.582,0.415,0.963C2326.879,520.762,2327.969,520.821,2328.044,521.476z"/>
<path fill-rule="evenodd" clip-rule="evenodd" fill="#FADD8B" d="M2326.767,520.292c-0.005-0.344-0.01-0.688-0.015-1.032
	c0.072-0.502,0.407-0.821,0.775-1.121c0.188-0.149,0.393-0.269,0.609-0.369c0.521-0.364,1.054-0.666,1.7-0.286
	c0.632,0.542,0.883,1.239,0.84,2.058c-0.102,0.837-0.584,1.4-1.302,1.792c-0.116,0.048-0.234,0.096-0.352,0.143
	c-0.197-0.035-0.394-0.069-0.591-0.104C2328.01,520.807,2327.146,520.924,2326.767,520.292z"/>
<path fill-rule="evenodd" clip-rule="evenodd" fill="#F9D87C" d="M2326.767,520.292c0.792-0.005,1.528,0.077,1.666,1.081
	l-0.174,0.128l-0.215-0.024c-0.667-0.116-1.335-0.231-1.813-0.785C2326.409,520.558,2326.588,520.425,2326.767,520.292z"/>
<path fill-rule="evenodd" clip-rule="evenodd" fill="#F8FD94" d="M2317.293,521.313c0.595-0.535,1.328-0.479,2.042-0.445
	c0.193,0.01,0.379,0.184,0.568,0.283c-0.327,0.092-0.654,0.185-0.981,0.277C2318.379,521.389,2317.836,521.351,2317.293,521.313z"/>
<path fill-rule="evenodd" clip-rule="evenodd" fill="#FEE086" d="M2333.461,519.877c-0.66-0.339-1.095,0.415-1.698,0.351
	c-0.532-0.229-1.247,0.167-1.657-0.484c-0.183-0.683-0.366-1.365-0.55-2.048c0.424-2.895,2.367-4.837,4.258-6.816
	c0.205-0.143,0.423-0.267,0.641-0.385c0.572-0.484,0.521-0.998,0.073-1.532c-0.299-0.4-0.574-0.812-0.787-1.264
	c-1.104-3.229-2.054-6.55-5.136-8.601c-0.415-0.651-0.931-1.247-1.147-2.011c-0.089-1.007-0.784-1.6-1.462-2.24
	c-1.083-1.023-0.854-1.92,0.386-2.639c0.764-0.321,1.633-0.4,2.277-1.001c1.512-0.784,3.313-0.915,4.654-2.084
	c0.675-0.415,1.38-0.747,2.184-0.809c0.896-0.151,1.739-0.594,2.68-0.52c0.779,0.103,1.493-0.145,2.201-0.431
	c0.928-0.196,1.86-0.182,2.795-0.075c0.255,0.066,0.491,0.178,0.708,0.328c0.192,0.179,0.323,0.397,0.387,0.651
	c-0.046,0.643,0.151,1.168,0.749,1.496c0.392,0.326,0.781,0.651,0.907,1.178c0.068,0.659-0.293,1.2-0.602,1.799
	c2.832-0.338,4.385,0.952,5.374,4.353c-0.031,0.259-0.107,0.506-0.214,0.743c-0.839,0.982-1.823,1.911-0.067,3.019
	c0.534,0.338,0.64,1.09,0.584,1.768c-0.282,1.19-1.619,1.176-2.245,1.978c-1.608,0.532-1.698,2.355-2.8,3.304
	c-0.17,0.009-0.285,0.091-0.341,0.241c0.101-0.109,0.217-0.188,0.379-0.197c0.349,0.127,0.496,0.395,0.537,0.742
	c0.079,0.861-1.195,0.996-1.006,1.917c0.062,0.846-0.143,1.642-0.4,2.427c-0.187,0.226-0.372,0.452-0.559,0.678
	c-0.495,0.455-0.718,1.319-1.659,1.104c-0.554,0.359-1.107,0.718-1.66,1.078C2339.325,518.542,2336.706,519.822,2333.461,519.877z"
	/>
<path fill-rule="evenodd" clip-rule="evenodd" fill="#F5B376" d="M2356.318,502.081c-0.176,1.714-2.264,1.385-2.849,2.664
	c-0.501,0.856-1.177,1.414-2.239,1.313c-0.787-0.038-1.511-0.197-1.889-1.003c-0.283-1.586,1.557-1.491,1.991-2.511
	c1.927-0.769,2.969-3.359,5.583-2.719C2357.48,500.778,2356.456,501.312,2356.318,502.081z"/>
<path fill-rule="evenodd" clip-rule="evenodd" fill="#F3A26E" d="M2356.318,502.081c0.162-0.79,0.324-1.579,0.486-2.368
	c0.021-0.123,0.042-0.245,0.062-0.369c0.391-0.728,1.049-1.006,1.803-1.092c0.329-0.015,0.383-0.215,0.286-0.518
	c-0.129-1.434,0.839-1.437,1.827-1.419c0.255,0.055,0.492,0.149,0.718,0.28c0.683,0.504,1.052,1.156,0.934,2.029
	c-0.053,0.164-0.096,0.331-0.13,0.5c-0.338,1.066-1.14,1.313-2.14,1.213c-0.58,0.338-1.161,0.677-1.741,1.015
	C2357.592,501.218,2356.946,501.623,2356.318,502.081z"/>
<path fill-rule="evenodd" clip-rule="evenodd" fill="#FDCD6D" d="M2345.122,513.035c-1.344-0.87-0.038-1.75-0.011-2.625
	c0.724-0.808,1.661-1.224,2.692-1.469c0.773-0.08,1.529-0.081,2.178,0.446c0.548,0.685,0.204,1.076-0.452,1.364
	C2348.06,511.511,2346.591,512.273,2345.122,513.035z"/>
<path fill-rule="evenodd" clip-rule="evenodd" fill="#E97F52" d="M2382.948,483.645c-0.191-0.049-0.383-0.098-0.573-0.147
	c-0.772-0.258-2.146,0.713-2.175-1.064c0.63-0.744,1.611-0.419,2.369-0.779c0.841,0.112,1.692-0.401,2.527,0.049
	c0.251,0.216,0.296,0.468,0.136,0.758C2384.875,483.636,2383.503,482.852,2382.948,483.645z"/>
<path fill-rule="evenodd" clip-rule="evenodd" fill="#F9FC90" d="M2306.233,505.29c0.313-0.07,0.524-0.216,0.425-0.586
	c-0.173-0.328-0.084-0.553,0.268-0.674c0.914,0.243,1.1,0.956,1.141,1.762c-0.001,0.628-0.092,1.226-0.568,1.694
	c-0.696,0.378-1.134,0.034-1.487-0.539C2305.942,506.376,2305.682,505.778,2306.233,505.29z"/>
<path fill-rule="evenodd" clip-rule="evenodd" fill="#FCE97F" d="M2306.097,508.032c0.062-0.362,0.122-0.725,0.183-1.087
	c0.338,0.182,0.675,0.362,1.013,0.544c0.75-0.408-0.151-1.433,0.681-1.813c0.455,0.019,0.751,0.275,0.98,0.639
	c0.327,0.665,0.235,1.414,0.438,2.104c0.134,1.541,1.454,3.04,0.167,4.63c-0.999-0.411-1.26-1.391-1.713-2.223
	c-0.521-0.446-1.044,0.376-1.566-0.001c-0.064-0.73-0.128-1.46-0.193-2.191C2306.089,508.435,2306.093,508.233,2306.097,508.032z"/>
<path fill-rule="evenodd" clip-rule="evenodd" fill="#FDF68F" d="M2306.278,510.826c0.522-0.59,1.046-1.23,1.566,0.001
	c-0.717,0.679-0.507,1.593-0.61,2.426c-0.346-0.447-0.69-0.896-1.036-1.343C2306.226,511.549,2306.252,511.188,2306.278,510.826z"/>
<path fill-rule="evenodd" clip-rule="evenodd" fill="#E592AC" d="M2328.43,518.55c-0.182,0.023-0.363,0.052-0.544,0.087
	c-1.104-0.126-1.989,0.335-2.784,1.037c-2.606,1.011-5.209,0.667-7.811-0.024c-1.061-1.594-3.286-0.745-4.449-2.122
	c-1.295-0.531-1.151-1.839-1.543-2.858c-0.118-2.575-2.636-4.359-2.329-7.075c0.154-2.658,1.801-3.131,4.028-2.76
	c0.235,0.125,0.434,0.297,0.589,0.516c0.171,0.357,0.196,0.731,0.12,1.115c-0.033,0.354-0.044,0.714-0.048,1.072
	c0.009,0.456,0.143,0.899,0.181,1.351c0.042,0.304,0.068,0.613,0.158,0.903c0.438,0.425,0.894,0.301,1.356,0.052
	c0.763-0.34,1.524-0.67,1.866-1.521c0.152-0.206,0.336-0.376,0.546-0.522c1.252-0.438,2.469-0.589,3.527,0.458
	c0.374,0.484,0.846,0.739,1.486,0.603c1.635,0.069,2.752,0.863,3.102,2.46c0.331,1.509-0.523,2.348-1.895,2.77
	c-0.727,0.104-1.352-0.123-1.898-0.584c-0.273-0.153-0.44-0.683-0.799-0.463c-0.311,0.19-0.035,0.644-0.038,0.977
	c0.874,1.781,2.146,0.171,3.198,0.377C2329.201,513.589,2329.228,513.617,2328.43,518.55z"/>
<path fill-rule="evenodd" clip-rule="evenodd" fill="#E68FAB" d="M2309.518,507.497c-0.113,1.333,0.186,2.402,1.245,3.42
	c1.003,0.963,1.437,2.349,0.535,3.752c-0.58-0.54-1.16-1.08-1.741-1.62c-0.329-1.502-0.659-3.005-0.989-4.507
	C2308.839,508.152,2308.441,507.156,2309.518,507.497z"/>
<path fill-rule="evenodd" clip-rule="evenodd" fill="#E384BB" d="M2312.842,517.527c1.395,0.894,3.822-0.377,4.449,2.123
	c-0.354-0.167-0.708-0.332-1.063-0.498c-0.516-0.359-1.242,0.154-1.707-0.413C2313.72,518.67,2312.882,518.651,2312.842,517.527z"/>
<path fill-rule="evenodd" clip-rule="evenodd" fill="#F9DE83" d="M2314.521,518.74c0.646-0.181,1.238-0.138,1.707,0.413
	c-0.402,0.388-0.805,0.776-1.207,1.164c-0.175-0.007-0.341-0.049-0.498-0.126C2314.522,519.706,2314.521,519.223,2314.521,518.74z"
	/>
<path fill-rule="evenodd" clip-rule="evenodd" fill="#E192AB" d="M2325.102,519.673c0.568-1.313,1.369-2.001,2.784-1.037
	c-0.378,0.207-0.755,0.415-1.134,0.622C2326.202,519.397,2325.651,519.535,2325.102,519.673z"/>
<path fill-rule="evenodd" clip-rule="evenodd" fill="#E491AB" d="M2323.972,513.643c0.597-0.707,1.834-1.127,1.123-2.429
	c-0.599-1.096-1.321-1.987-2.78-1.493c-0.188-0.142-0.343-0.313-0.458-0.519c-0.124-0.433-0.223-0.873-0.33-1.308
	c-0.068-0.607-0.618-0.849-0.966-1.251c-0.148-0.201-0.244-0.421-0.295-0.666c0.269-4.05,1.474-5.587,7.083-3.939
	c0.123,0.049,0.253,0.193,0.375,0.194c0.095,0,0.072-0.208-0.086-0.354c-2.756-2.025-5.628-3.13-8.992-1.501
	c-0.63,0.305-1.485,0.536-1.939-0.338c-0.334-0.644,0.014-1.269,0.438-1.768c0.787-0.923,1.783-2.003,2.937-1.843
	c3.021,0.418,6.227,0.257,8.896,2.167c3.949,1.69,4.576,5.417,5.498,8.963c-0.388,1.241,0.752,2.442,0.1,3.69
	c-2.121,1.799-2.99,4.573-5.019,6.446c-0.375,0.286-0.75,0.571-1.126,0.855c-0.436-1.307-1.423-2.54-0.206-4.067
	c-1.439,0.312-2.563,0.555-3.688,0.799C2323.934,514.878,2323.345,514.469,2323.972,513.643z"/>
<path fill-rule="evenodd" clip-rule="evenodd" fill="#EEEB88" d="M2330.105,519.744c0.603-0.009,1.205-0.021,1.657,0.484
	c-0.933,0.355-1.866,0.711-2.799,1.067C2329.023,520.542,2329.736,520.269,2330.105,519.744z"/>
<path fill-rule="evenodd" clip-rule="evenodd" fill="#E390A9" d="M2328.977,498.595c-2.257-0.301-4.729-0.124-6.72-1.017
	c-2.879-1.291-3.64,0.786-5.046,2.033c5.332-1.713,9.002-1.027,11.225,2.268c-0.194,0.545-0.478,0.924-1.135,0.608
	c-1.444-0.468-2.624,0.319-3.752,0.97c-0.5-0.666,0.546-1.038,0.021-1.576c-2.418,0.562-2.126,2.889-2.928,4.5
	c-0.766,0.309-1.627-0.479-2.361,0.213c-0.119,0.04-0.237,0.071-0.355,0.108c-0.244,0.031-0.484,0.008-0.721-0.06
	c-0.51-0.227-0.944-0.637-1.548-0.649c-0.348,0-0.689-0.032-1.027-0.107c-0.228-0.067-0.433-0.177-0.618-0.317
	c-0.145-0.169-0.222-0.369-0.231-0.591c0.048-0.261,0.136-0.517,0.199-0.736c-0.014,0.04-0.017-0.087-0.027-0.057
	c-0.011,0.03-0.005,0.107-0.013,0.134c-0.05,0.135-0.095,0.241-0.15,0.362c-0.062,0.157-0.117,0.3-0.174,0.448
	c-0.002,0.006-0.202,0.141-0.202,0.141c-1.567,0.272-3.554-0.189-3.896,2.227c-0.317,0.349-0.635,0.698-0.951,1.046
	c-0.047-0.713-0.096-1.425-0.144-2.137c-0.085-1.654,0.109-3.245,1.029-4.679c1.377-1.748,2.489-3.722,4.307-5.096
	c0.458-0.049,0.859,0.043,1.098,0.444c-0.018-0.034,0.093,0.075,0.093,0.075s0.021-0.151,0.024-0.181
	c0.302-0.781,0.943-1.163,1.607-1.531c0.242-0.102,0.492-0.165,0.751-0.205c1.979-0.108,3.951-0.349,5.936-0.242
	c0.516,0.012,1.033,0.011,1.541,0.116c0.953,0.282,1.787,0.838,2.713,1.188c0.208,0.139,0.369,0.322,0.491,0.54
	C2328.334,497.422,2328.655,498.009,2328.977,498.595z"/>
<path fill-rule="evenodd" clip-rule="evenodd" fill="#FCD585" d="M2351.788,503.023c-0.737,0.569-1.474,1.139-2.211,1.708
	c-0.183,0.191-0.407,0.271-0.669,0.255c-0.377-0.153-0.656-0.36-0.45-0.831c0.108-1.4,1.671-0.859,2.224-1.667
	c-0.52-1.597,0.264-2.135,1.541-2.181c-0.921-0.307-2.391,0.932-3.178-0.509c-0.553-1.011,0.778-1.504,1.083-2.318l0.001,0
	c1.699-1.749,0.94-3.459-0.037-5.205c-0.498-0.889-1.649-1.565-1.055-2.868c0.9-0.706,1.894-1.09,3.056-0.9
	c3.818,1.654,6.026,5.954,4.901,9.524c-0.129,0.229-0.291,0.431-0.474,0.617C2355.125,500.305,2353.222,501.41,2351.788,503.023z"/>
<path fill-rule="evenodd" clip-rule="evenodd" fill="#FCDA85" d="M2349.018,489.71c1.378,1.085,2.37,2.419,2.953,4.105
	c0.664,1.923,0.251,3.187-1.842,3.667c0.113-2.013-2.374-2.302-2.73-4.12c-0.103-0.522-1.1,0.025-1.635,0.369
	c-0.771,0.495-1.76,1.174-2.369,0.125c-0.571-0.985,0.9-1.102,1.281-1.754c0.27-0.464,0.667-0.854,1.008-1.277
	c0.133-0.682,0.484-1.226,1.04-1.642c0.742-0.391,1.489-0.747,2.313-0.197C2349.212,489.231,2349.205,489.473,2349.018,489.71z"/>
<path fill-rule="evenodd" clip-rule="evenodd" fill="#FCDA85" d="M2348.458,504.157c0.192,0.188,0.385,0.377,0.577,0.566
	c0.34,0.586,0.825,1.074,1.129,1.685c-0.074,0.181-0.061,0.356,0.038,0.524c0.094,0.505-0.099,0.742-0.624,0.667
	c-0.367-0.028-0.735-0.056-1.102-0.084c-0.873-0.028-1.028,0.844-1.563,1.242c-0.235,0.083-0.455,0.051-0.657-0.094
	c-0.192-0.204-0.387-0.407-0.579-0.611C2346.209,506.472,2345.446,503.967,2348.458,504.157z"/>
<path fill-rule="evenodd" clip-rule="evenodd" fill="#F9DE83" d="M2326.768,492.477c-0.813,0.724-1.136,1.328,0.057,2.111
	c0.701,0.461,2.15,0.801,1.188,2.249c0.001,0-0.213,0.102-0.213,0.102c-0.695-0.378-1.45-0.619-2.164-0.955
	c-0.422-0.789-1.257-0.424-1.875-0.672c-0.677-0.456-1.068-1.069-1.061-1.906c0.971-1.327,2.282-1.604,3.804-1.226
	C2326.592,492.277,2326.681,492.377,2326.768,492.477z"/>
<path fill-rule="evenodd" clip-rule="evenodd" fill="#FCDA85" d="M2350.128,497.483c0.128,0.83-0.921,1.343-0.621,2.248
	c0.917,0.51,1.956-0.482,2.892,0.283c-0.259,1.028-1.853,1.182-1.717,2.477c-0.249-0.376-0.418-0.972-0.758-1.094
	C2345.578,499.833,2348.9,498.718,2350.128,497.483z"/>
<path fill-rule="evenodd" clip-rule="evenodd" fill="#EEE989" d="M2331.215,490.155c0.738-0.116,1.477-0.233,2.214-0.349
	c-1.04,1.635-3.032,1.271-4.446,2.122c-0.67,0.442-1.406,0.368-2.145,0.277c-0.582-0.047-1.184,0.092-1.744-0.178
	c-0.227-1.574,1.256-1.304,1.986-1.847c0.827-0.238,1.703-0.2,2.532-0.438C2330.196,489.688,2330.74,489.789,2331.215,490.155z"/>
<path fill-rule="evenodd" clip-rule="evenodd" fill="#FEC66A" d="M2343.993,488.064c1.575-0.928,3.302-0.505,4.975-0.553
	c-0.113,1.577-2.057,1.182-2.54,2.358c-0.352,0.382-0.768,0.607-1.307,0.517c-0.449-0.563-0.927-1.109-1.134-1.824
	C2343.994,488.396,2343.996,488.23,2343.993,488.064z"/>
<path fill-rule="evenodd" clip-rule="evenodd" fill="#D077A0" d="M2334.574,511.249c-0.48-1.219-1.98-2.409-0.1-3.691
	c0.246,0.355,0.491,0.709,0.736,1.063c0.498,0.978,0.562,1.909-0.299,2.739C2334.801,511.318,2334.688,511.282,2334.574,511.249z"/>
<path fill-rule="evenodd" clip-rule="evenodd" fill="#F2B270" d="M2343.987,488.562c0.976,0.123,1.185,0.797,1.175,1.631
	c-0.133,0.289-0.321,0.317-0.56,0.121c-0.485-0.619-1.802,0.13-1.859-1.012C2342.715,488.739,2343.454,488.632,2343.987,488.562z"/>
<path fill-rule="evenodd" clip-rule="evenodd" fill="#FEEA8A" d="M2334.912,511.36c0.099-0.913,0.198-1.826,0.299-2.739
	C2337.08,509.75,2335.805,510.534,2334.912,511.36z"/>
<path fill-rule="evenodd" clip-rule="evenodd" fill="#FCEF8E" d="M2344.603,490.313c0.187-0.04,0.372-0.08,0.559-0.12
	c0.353-0.171,0.705-0.342,1.058-0.512c0.26-0.281,0.442-0.237,0.548,0.13c-0.082,0.636-0.472,0.943-1.083,1.013
	C2345.323,490.655,2344.963,490.484,2344.603,490.313z"/>
<path fill-rule="evenodd" clip-rule="evenodd" fill="#FCDA85" d="M2345.695,508.048c-0.458,0.48-0.922,0.911-1.829,0.833
	C2344.266,507.96,2345.024,508.11,2345.695,508.048z"/>
<path fill-rule="evenodd" clip-rule="evenodd" fill="#FCDA85" d="M2346.977,502.852c-0.211,0.193-0.365,0.394-0.568,0.49
	c-0.087,0.042-0.277-0.136-0.421-0.215c0.148-0.177,0.271-0.394,0.457-0.512C2346.519,502.566,2346.731,502.735,2346.977,502.852z"
	/>
<path fill-rule="evenodd" clip-rule="evenodd" fill="#F9DC7D" d="M2326.776,491.926c0.735,0,1.471,0.001,2.206,0.002
	c-0.598,0.75-1.319,0.997-2.215,0.549l-0.003-0.003C2326.411,492.284,2326.415,492.101,2326.776,491.926z"/>
<path fill-rule="evenodd" clip-rule="evenodd" fill="#F69B66" d="M2372.431,490.279c-0.037,0.145-0.064,0.29-0.081,0.438
	c-0.717,1.351-2.14,1.346-3.353,1.744c-0.722,0.206-1.444,0.413-2.165,0.618c0.539-2.674-0.62-4.453-2.923-5.686
	c-0.627-0.336-0.57-1.071-0.624-1.698c0.117-0.368,0.283-0.66,0.75-0.46c1.569,0.932,2.715-0.629,4.124-0.711
	c0.979-0.057,1.947-0.317,2.919-0.486c0.527-0.3,1.006-0.309,1.393,0.228c0.111,1.293-1.548,1.106-1.761,2.12
	C2371.208,487.721,2372.273,488.801,2372.431,490.279z"/>
<path fill-rule="evenodd" clip-rule="evenodd" fill="#F2895C" d="M2372.369,484.676c-0.431-0.213-0.861-0.426-1.291-0.64
	c0.073-0.151,0.157-0.295,0.252-0.434c0.322-0.357,0.791-0.283,1.191-0.409c1.403-0.381,2.852-0.494,4.279-0.74
	c1.005-0.048,2.032-0.697,3.005,0.115c0.255,1.642-0.996,1.674-2.047,1.922C2375.975,484.894,2374.198,485.573,2372.369,484.676z"/>
<path fill-rule="evenodd" clip-rule="evenodd" fill="#F8AB72" d="M2360.702,486.437c0.859-0.478,1.782-0.683,2.762-0.65
	c0.853,0.965,4.364,3.132,5.119,3.112c-0.593,1.412-1.172,2.796-1.751,4.179c-0.188,0.356-0.376,0.711-0.563,1.067
	c-0.57,1.676-1.905,2.041-3.466,2.024c-2.204-1.206-1.539-2.375,0.042-3.537c2.227-0.806,0.879-1.48-0.091-2.165
	C2362.573,488.87,2359.96,488.504,2360.702,486.437z"/>
<path fill-rule="evenodd" clip-rule="evenodd" fill="#EBA166" d="M2364.723,498.034c-0.07,0.175-0.141,0.351-0.211,0.525
	c-0.692,0.021-1.385,0.043-2.078,0.064c-0.396-0.556-0.793-1.111-1.189-1.667c1.45,0.576,2.945-0.97,4.386,0.096
	C2365.327,497.38,2365.025,497.708,2364.723,498.034z"/>
<path fill-rule="evenodd" clip-rule="evenodd" fill="#FBC981" d="M2351.788,503.023c0.991-2.104,2.787-3.49,4.461-4.983
	c0.823,0.342,1.11,0.861,0.549,1.661c0,0,0.007,0.011,0.007,0.012C2355.133,500.816,2353.46,501.92,2351.788,503.023z"/>
<path fill-rule="evenodd" clip-rule="evenodd" fill="#FEC66C" d="M2350.164,506.407c-1.004-0.142-1.178-0.838-1.129-1.685
	c0.181,0.003,0.361,0.006,0.542,0.01c0.446,0.542,1.073,0.538,1.692,0.559C2350.901,505.663,2350.532,506.036,2350.164,506.407z"/>
<path fill-rule="evenodd" clip-rule="evenodd" fill="#F9BC7D" d="M2356.798,499.701c-0.183-0.554-0.366-1.107-0.549-1.661l-0.001,0
	c0.915-0.583,1.127-1.605,1.554-2.495c2.134-0.755,2.028-2.697,2.343-4.42c-0.789,0.251-1.574,0.461-2.288-0.189
	c-0.26-0.538-0.054-0.963,0.319-1.335c0.933-0.178,0.165-0.472,0.028-0.735c-0.138-0.596,0.095-1.051,0.511-1.438
	c0.11-0.172,0.181-0.36,0.197-0.567c0.515-0.486,1.147-0.476,1.79-0.423c0.416,1.459,3.097,1.595,2.226,3.807
	c1.047,0.758,1.496,1.634,0.551,2.787c-1.059,0.705-2.263,1.378-0.575,2.674c-0.474,0.54-1.435,0.403-1.704,1.226
	c-0.629,0.238-2.033-0.658-1.617,1.107c-0.063,0.309-0.247,0.493-0.558,0.551C2358.282,498.959,2357.54,499.33,2356.798,499.701z"/>
<path fill-rule="evenodd" clip-rule="evenodd" fill="#F19B63" d="M2359.024,498.588c0.186-0.184,0.371-0.367,0.558-0.551
	c0.346,0.064,0.788,0.042,0.836,0.497c0.013,0.12-0.39,0.27-0.585,0.426C2359.307,499.379,2359.06,499.221,2359.024,498.588z"/>
<path fill-rule="evenodd" clip-rule="evenodd" fill="#F07551" d="M2380.725,484.771l-0.249-0.07l-0.258,0.009
	c-0.345,0.279-0.724,0.467-1.181,0.458c-0.789-0.274-1.802-0.32-1.637-1.582c0.86-0.072,1.896,0.238,2.205-1.022
	c0.094-0.354,0.284-0.418,0.572-0.193l-0.024,0.174c0.74,0.318,1.48,0.635,2.222,0.953
	C2381.825,483.922,2381.274,484.347,2380.725,484.771z"/>
<path fill-rule="evenodd" clip-rule="evenodd" fill="#EFDF82" d="M2347.867,508.547c-0.357-0.019-0.715-0.037-1.072-0.055
	c0.262-0.84,0.396-1.899,1.682-0.977C2348.273,507.859,2348.07,508.204,2347.867,508.547z"/>
<path fill-rule="evenodd" clip-rule="evenodd" fill="#F78E60" d="M2372.431,490.279c-0.769-0.094-1.858-0.489-1.705-1.096
	c0.486-1.91-0.451-1.688-1.645-1.067c-0.151-1.253,1.216-1.383,1.072-2.314c0.858-0.783,1.893-0.925,2.992-0.827
	c0.385,1.73,2.203,2.197,3.079,3.495l0.066,0.165C2375.004,489.183,2373.718,489.731,2372.431,490.279z"/>
<path fill-rule="evenodd" clip-rule="evenodd" fill="#FBE181" d="M2314,496.936c-1.154,1.792-2.332,3.565-3.898,5.037
	c-0.82-0.226-1.128-0.819-1.16-1.61c0.513-1.86,2.007-2.879,3.42-3.968c0.347-0.015,0.693-0.031,1.041-0.046
	c0.196-0.19,0.414-0.22,0.654-0.089C2314.184,496.497,2314.158,496.721,2314,496.936z"/>
<path fill-rule="evenodd" clip-rule="evenodd" fill="#FCF197" d="M2314.182,496.481c-0.26-0.044-0.521-0.089-0.78-0.133
	c0.561-0.388,1.121-0.776,1.682-1.163c0.376-0.116,0.751-0.232,1.127-0.348c0.458,0.129,0.624,0.421,0.49,0.88l0.045,0.185
	C2315.921,496.229,2315.213,497.072,2314.182,496.481z"/>
<path fill-rule="evenodd" clip-rule="evenodd" fill="#FAE982" d="M2307.843,500.816c0.683,0.157,1.124-0.351,1.657-0.603
	c0.2,0.586,0.4,1.172,0.602,1.759c-0.56,1.478-1.119,2.956-1.679,4.433c-0.192-0.191-0.385-0.383-0.578-0.576
	c-0.174,0.356-0.353,0.359-0.536,0.007c-0.018-0.595,0-1.201-0.479-1.664c-0.172-0.607,0.726-1.012,0.315-1.663
	C2307.378,501.946,2307.61,501.381,2307.843,500.816z"/>
<path fill-rule="evenodd" clip-rule="evenodd" fill="#EED886" d="M2307.309,505.837c0.179-0.006,0.357-0.008,0.537-0.007
	c-0.007,0.733-0.002,1.467-0.027,2.2c-0.008,0.235-0.104,0.575-0.399,0.252c-0.151-0.165-0.092-0.522-0.127-0.793
	C2307.298,506.938,2307.304,506.388,2307.309,505.837z"/>
<path fill-rule="evenodd" clip-rule="evenodd" fill="#CE749D" d="M2323.972,513.643c0.188,0.546,0.376,1.093,0.563,1.64
	c-1.254-0.209-2.123,1.296-3.602,0.614c-1.283-0.592-0.938-1.02-0.266-1.706c0.276-0.774,0.745-1.263,1.646-1.109
	C2322.867,513.269,2323.42,513.456,2323.972,513.643z"/>
<path fill-rule="evenodd" clip-rule="evenodd" fill="#E08CA8" d="M2322.314,513.082c-0.549,0.369-1.098,0.739-1.646,1.109
	c-0.114-0.249-0.273-0.486-0.335-0.747c-0.203-0.863-0.69-2.059,0.465-2.343C2322.228,510.749,2322.233,512.076,2322.314,513.082z"
	/>
<path fill-rule="evenodd" clip-rule="evenodd" fill="#E59CB9" d="M2317.765,508.378c0.273,1.672-1.338,1.699-2.13,2.442
	c-0.964,0.009-1.885-0.195-2.778-0.543c0.047-0.484,0.216-0.899,0.653-1.165c0.231-0.331,0.542-0.553,0.926-0.673
	c0.496-0.121,1-0.175,1.51-0.126C2316.552,508.31,2317.169,508.061,2317.765,508.378z"/>
<path fill-rule="evenodd" clip-rule="evenodd" fill="#E390A9" d="M2321.201,508.608c-1.012-0.823-2.341,0.266-3.352-0.558
	c-0.473-0.475-0.51-0.988-0.132-1.537l0.169-0.147c2.074-0.355,3.424,0.392,3.678,2.037
	C2321.443,508.473,2321.322,508.54,2321.201,508.608z"/>
<path fill-rule="evenodd" clip-rule="evenodd" fill="#DD4037" d="M2317.718,506.514c0.044,0.513,0.088,1.025,0.132,1.537
	c-0.076,0.097-0.104,0.207-0.084,0.328c-0.459,0.373-0.865,0.859-1.563,0.699c-0.677-0.592-1.111-1.267-0.759-2.212
	c0.472-0.664,1.123-0.769,1.864-0.599C2317.428,506.376,2317.565,506.458,2317.718,506.514z"/>
<path fill-rule="evenodd" clip-rule="evenodd" fill="#DA4237" d="M2314.489,509.063c-0.327,0.016-0.653,0.033-0.98,0.049
	c-0.08-0.611-1.251-0.748-0.71-1.63c0.179-0.176,0.394-0.282,0.641-0.328c0.251,0.021,0.481,0.101,0.695,0.237
	C2314.605,507.873,2314.885,508.396,2314.489,509.063z"/>
<path fill-rule="evenodd" clip-rule="evenodd" fill="#E78FA4" d="M2312.856,510.277c0.972-0.051,1.91,0.064,2.778,0.543
	C2314.561,511.395,2313.6,511.393,2312.856,510.277z"/>
<path fill-rule="evenodd" clip-rule="evenodd" fill="#E390A9" d="M2322.313,509.164c0,0.185,0,0.371,0.001,0.557
	c-0.447,0.439-1.008,0.361-1.377,0.041c-0.141-0.121,0.162-0.753,0.264-1.153l0,0
	C2321.828,508.279,2322.01,508.843,2322.313,509.164z"/>
<path fill-rule="evenodd" clip-rule="evenodd" fill="#D6392D" d="M2314.016,505.327c0.137,0.007,0.273,0.007,0.41,0
	c0.436,0.24,0.408,0.597,0.253,0.988c-0.256,0.337-0.599,0.481-1.017,0.464c-0.256-0.066-0.479-0.194-0.665-0.383
	c0.138-0.23,0.275-0.461,0.413-0.691C2313.557,505.492,2313.759,505.366,2314.016,505.327z"/>
<path fill-rule="evenodd" clip-rule="evenodd" fill="#DC2F1D" d="M2312.997,506.397c0.135-0.002,0.269-0.007,0.402-0.014
	c0.181,0.142,0.29,0.328,0.329,0.555c-0.025,0.231-0.131,0.417-0.315,0.557c-0.205-0.004-0.409-0.009-0.614-0.014
	C2312.865,507.12,2312.932,506.759,2312.997,506.397z"/>
<path fill-rule="evenodd" clip-rule="evenodd" fill="#E390A9" d="M2314.016,505.327c-0.202,0.126-0.404,0.253-0.605,0.379
	c0-0.146,0.002-0.291,0.003-0.436l0.01-0.011c0.138-0.278,0.304-0.296,0.497-0.053L2314.016,505.327z"/>
<path fill-rule="evenodd" clip-rule="evenodd" fill="#E494AA" d="M2322.313,509.164c-0.371-0.185-0.742-0.371-1.112-0.556
	c-0.385-1.813-1.88-1.982-3.314-2.242c0.932-2.345,1.847-1.568,2.756,0.015l0.004,0.003c0.324,0.717,1.851-0.371,1.668,1.109
	C2322.313,508.05,2322.313,508.607,2322.313,509.164z"/>
<path fill-rule="evenodd" clip-rule="evenodd" fill="#D176A0" d="M2327.301,502.487c0.379-0.203,0.757-0.405,1.135-0.607
	c0.966,0.309,1.572,1.133,0.749,1.772C2328.213,504.407,2327.613,503.421,2327.301,502.487z"/>
<path fill-rule="evenodd" clip-rule="evenodd" fill="#E390A9" d="M2322.314,507.494c-0.557-0.37-1.112-0.74-1.668-1.109
	C2321.202,506.754,2322.832,505.511,2322.314,507.494z"/>
<path fill-rule="evenodd" clip-rule="evenodd" fill="#FCE37F" d="M2316.7,495.718c-0.163-0.293-0.327-0.586-0.49-0.88
	c0.197-0.132,0.396-0.264,0.593-0.396c0.268-0.824,1.072-0.549,1.622-0.795c0.257-0.015,0.513,0.004,0.766,0.052
	c0.982,0.31,1.968,0.251,2.954,0.018c0.119-0.032,0.239-0.061,0.359-0.091c0.122-0.014,0.245-0.026,0.368-0.04
	c0.696,0.335,1.069,0.888,1.114,1.66c-0.096,0.247-0.275,0.402-0.525,0.479C2321.207,495.361,2318.953,496.8,2316.7,495.718z"/>
<path fill-rule="evenodd" clip-rule="evenodd" fill="#F79EBA" d="M2313.43,503.102c0.116-0.595,0.153-1.586,0.977-1.198
	c1.021,0.481,0.836,1.449,0.105,2.241c-0.106-0.015-0.213-0.03-0.318-0.044c-0.185-0.116-0.332-0.267-0.438-0.457
	C2313.69,503.437,2313.584,503.255,2313.43,503.102z"/>
<path fill-rule="evenodd" clip-rule="evenodd" fill="#E08785" d="M2317.309,506.267c-0.545,0.252-1.09,0.503-1.634,0.755
	c-0.099,0.053-0.197,0.105-0.295,0.159c-0.104-0.032-0.212-0.064-0.315-0.095c-0.064-0.084-0.132-0.172-0.198-0.255
	c-0.012-0.104-0.024-0.21-0.039-0.315c0.101-0.288,0.245-0.558,0.415-0.811c0.113-0.157,0.246-0.299,0.395-0.427
	C2316.715,504.727,2316.904,505.678,2317.309,506.267z"/>
<path fill-rule="evenodd" clip-rule="evenodd" fill="#D473A8" d="M2314.182,496.481c0.854-0.194,1.709-0.386,2.563-0.579
	c-0.552,0.531-1.103,1.061-1.654,1.591l-0.002,0c-0.363-0.186-0.726-0.372-1.089-0.558
	C2314.048,496.779,2314.108,496.627,2314.182,496.481z"/>
<path fill-rule="evenodd" clip-rule="evenodd" fill="#D873AA" d="M2325.629,495.726c0.75,0.357,1.648,0.448,2.171,1.212
	c-1.036-0.009-1.964-0.287-2.688-1.073C2325.239,495.65,2325.414,495.611,2325.629,495.726z"/>
<path fill-rule="evenodd" clip-rule="evenodd" fill="#FBEC76" d="M2325.629,495.726c-0.172,0.045-0.346,0.091-0.518,0.139
	c-0.551-0.047-1.101-0.094-1.651-0.141c0.176-0.159,0.352-0.318,0.526-0.479C2324.652,495.001,2325.402,494.466,2325.629,495.726z"
	/>
<path fill-rule="evenodd" clip-rule="evenodd" fill="#E996B3" d="M2315.091,497.494c0.327,0.509,0.655,1.018,1.279,1.988
	c-1.386-0.581-1.226-1.339-1.281-1.989L2315.091,497.494z"/>
<path fill-rule="evenodd" clip-rule="evenodd" fill="#F899B8" d="M2313.92,505.207c-0.165,0.028-0.33,0.046-0.497,0.054
	c-0.002-0.374-0.003-0.748-0.005-1.121c0.347-0.325,0.699-0.282,1.057-0.017l0.037,0.023
	C2314.314,504.499,2314.117,504.853,2313.92,505.207z"/>
<path fill-rule="evenodd" clip-rule="evenodd" fill="#EE9A91" d="M2315.637,505.278c-0.002,0.159,0,0.317,0.006,0.476
	c-0.076,0.263-0.236,0.452-0.493,0.555l-0.158,0.205l-0.256,0.053l-0.135-0.224c-0.058-0.338-0.116-0.677-0.175-1.015
	C2314.83,505.311,2315.233,505.295,2315.637,505.278z"/>
<path fill-rule="evenodd" clip-rule="evenodd" fill="#B37886" d="M2314.475,504.123c-0.353,0.005-0.705,0.012-1.058,0.017
	c0.014-0.2,0.027-0.401,0.04-0.601c0.185-0.151,0.348-0.14,0.488,0.061C2314.121,503.773,2314.298,503.948,2314.475,504.123z"/>
<path fill-rule="evenodd" clip-rule="evenodd" fill="#312323" d="M2313.945,503.599c-0.168,0.017-0.33-0.003-0.488-0.061
	c-0.032-0.145-0.042-0.29-0.027-0.437C2313.786,503.076,2313.947,503.252,2313.945,503.599z"/>
<path fill-rule="evenodd" clip-rule="evenodd" fill="#FBC981" d="M2358.475,489.695c-0.185,0.37-0.37,0.74-0.555,1.109
	c2.563,1.744,2.105,3.036,0,5.012c-0.19,1.017-0.426,2-1.672,2.223c0.279-0.99,1.192-2.174-0.792-2.464
	c-0.156-0.023-0.428-0.514-0.364-0.625c1.857-3.253-1.165-4.183-2.734-5.799c0.308-0.391,0.721-0.534,1.205-0.508
	c1.102,0.35,2.069-0.573,3.16-0.334C2357.573,488.435,2358.119,488.944,2358.475,489.695z"/>
<path fill-rule="evenodd" clip-rule="evenodd" fill="#FEF086" d="M2353.423,489.12c-0.356,0.01-0.71,0.021-1.065,0.031
	c-1.113,0.187-2.227,0.373-3.34,0.56c-0.002-0.183,0.001-0.365,0.009-0.548c0.604-0.674,1.496-0.381,2.219-0.658
	c0.673-0.536,1.379-0.532,2.108-0.127C2353.646,488.599,2353.67,488.847,2353.423,489.12z"/>
<path fill-rule="evenodd" clip-rule="evenodd" fill="#F1EA8A" d="M2321.173,492.986c1.306-0.356,2.611-0.712,3.917-1.068
	c0.562,0.002,1.124,0.005,1.686,0.008c-0.006,0.182-0.01,0.365-0.011,0.547c-1.298,0.371-2.595,0.742-3.893,1.113l-0.005,0.003
	C2322.086,493.998,2321.335,494.317,2321.173,492.986z"/>
<path fill-rule="evenodd" clip-rule="evenodd" fill="#F47E55" d="M2373.484,485.247c-1.11,0.186-2.221,0.37-3.331,0.555
	c0.305-1.229,1.344-1.013,2.216-1.125c1.677-0.363,3.354-0.728,5.031-1.091c0.555,0.364,1.108,0.728,1.662,1.092
	C2376.741,487.09,2375.452,487.223,2373.484,485.247z"/>
<path fill-rule="evenodd" clip-rule="evenodd" fill="#FCC97F" d="M2353.423,489.12c0.006-0.195,0.013-0.389,0.021-0.583
	c-0.121-0.114-0.153-0.217-0.098-0.309c0.054-0.086,0.104-0.13,0.151-0.13c1.492,0.203,2.395-1.4,3.865-1.265
	c0.517,0.009,1.033,0.018,1.55,0.027c0.266,0.157,0.936-0.122,0.664,0.615c-0.622,0.355-1.42,0.423-1.826,1.127
	c-0.293,0.219-0.682,0.267-0.947,0.535C2355.676,489.132,2354.549,489.125,2353.423,489.12z"/>
<path fill-rule="evenodd" clip-rule="evenodd" fill="#F7B67B" d="M2363.479,493.03c-0.184-0.929-0.367-1.858-0.551-2.787
	c0.934,0.154,2.282-0.138,2.251,1.311C2365.163,492.268,2364.928,493.57,2363.479,493.03z"/>
<path fill-rule="evenodd" clip-rule="evenodd" fill="#F5815A" d="M2373.484,485.247c2.014,1.321,3.742-0.153,5.577-0.57
	c0.386,0.011,0.771,0.022,1.156,0.033c-0.202,0.363-0.405,0.727-0.608,1.09c-0.621,0.826-1.631,1.244-2.215,2.108
	c-0.39,0.187-0.779,0.374-1.17,0.561C2375.022,487.642,2371.963,488.393,2373.484,485.247z"/>
<path fill-rule="evenodd" clip-rule="evenodd" fill="#F98965" d="M2377.395,487.908c0.227-1.24,0.977-1.932,2.215-2.108
	C2380.224,487.923,2378.038,487.105,2377.395,487.908z"/>
<path fill-rule="evenodd" clip-rule="evenodd" fill="#FBC684" d="M2357.92,495.817c-0.064-0.262-0.259-0.698-0.175-0.761
	c1.813-1.361,0.938-2.805,0.175-4.251c1.315-0.284,2.631-0.567,3.945-0.852C2359.583,491.298,2362.333,496.021,2357.92,495.817z"/>
<path fill-rule="evenodd" clip-rule="evenodd" fill="#FBC684" d="M2356.803,489.138c0.191-0.188,0.383-0.376,0.574-0.564
	c0.361-0.305,0.727-0.337,1.096-0.015c0.333,0.322,0.666,0.644,1,0.965c-0.333,0.057-0.665,0.114-0.998,0.171
	C2357.917,489.51,2357.359,489.324,2356.803,489.138z"/>
<path fill-rule="evenodd" clip-rule="evenodd" fill="#F8AB72" d="M2358.473,488.559c-0.365,0.004-0.73,0.01-1.096,0.015
	c0.442-0.949,1.268-1.13,2.199-1.099C2359.208,487.837,2358.841,488.198,2358.473,488.559z"/>
<path fill-rule="evenodd" clip-rule="evenodd" fill="#F9DE83" d="M2321.173,492.986c0.429,0.585,1.06,0.6,1.694,0.604
	c0.001,0.186,0,0.37-0.001,0.555c-1.262,0.422-2.53,0.442-3.805,0.063l-0.141-0.132c-0.142-1.016,0.887-0.598,1.237-1.009
	C2320.497,493.04,2320.835,493.013,2321.173,492.986z"/>
<path fill-rule="evenodd" clip-rule="evenodd" fill="#DB4C40" d="M2315.128,506.881c0.183,0.047,0.364,0.094,0.547,0.141
	c0.177,0.686,0.353,1.371,0.528,2.056c-0.571-0.005-1.143-0.01-1.714-0.015c-0.173-0.523-0.347-1.045-0.52-1.567
	c0.061-0.099,0.121-0.199,0.181-0.298C2314.436,506.966,2314.782,506.925,2315.128,506.881z"/>
<path fill-rule="evenodd" clip-rule="evenodd" fill="#C44942" d="M2313.413,507.496c0-0.177,0.007-0.354,0.021-0.532
	c0.563-0.21,0.667,0.044,0.538,0.533l-0.002-0.001C2313.784,507.496,2313.599,507.496,2313.413,507.496z"/>
<path fill-rule="evenodd" clip-rule="evenodd" fill="#DD4638" d="M2313.972,507.497c-0.18-0.178-0.359-0.355-0.538-0.533
	c-0.012-0.193-0.022-0.387-0.034-0.58c0.399-0.014,0.8-0.028,1.201-0.042l-0.078,0.009c0.196,0.168,0.364,0.361,0.503,0.58
	c0,0,0.102-0.049,0.103-0.049C2314.742,507.086,2314.357,507.292,2313.972,507.497z"/>
<path fill-rule="evenodd" clip-rule="evenodd" fill="#F9DC87" d="M2319.062,494.208c1.269-0.021,2.537-0.042,3.805-0.063
	C2321.607,494.729,2320.352,495.509,2319.062,494.208z"/>
<path fill-rule="evenodd" clip-rule="evenodd" fill="#FAFDF6" d="M2315.149,506.309c0.165-0.185,0.329-0.37,0.494-0.555
	c0.065,0.176,0.131,0.352,0.196,0.527C2315.61,506.29,2315.38,506.299,2315.149,506.309z"/>
<path fill-rule="evenodd" clip-rule="evenodd" fill="#D31700" d="M2315.025,506.931c-0.168-0.193-0.335-0.386-0.503-0.579
	c0.16,0.043,0.315,0.097,0.469,0.162C2315.021,506.651,2315.032,506.79,2315.025,506.931z"/>
</svg>
