<?xml version="1.0" encoding="utf-8"?>
<!-- Generator: Adobe Illustrator 16.0.0, SVG Export Plug-In . SVG Version: 6.00 Build 0)  -->
<!DOCTYPE svg PUBLIC "-//W3C//DTD SVG 1.1//EN" "http://www.w3.org/Graphics/SVG/1.1/DTD/svg11.dtd">
<svg version="1.1" id="Layer_1" xmlns="http://www.w3.org/2000/svg" xmlns:xlink="http://www.w3.org/1999/xlink" x="0px" y="0px"
	 width="1920px" height="1080px" viewBox="0 0 1920 1080" enable-background="new 0 0 1920 1080" xml:space="preserve">
<g>
	<path fill-rule="evenodd" clip-rule="evenodd" fill="#F4E189" d="M1439.567,844.827c-0.422-0.737-0.845-1.475-1.269-2.213
		c-0.107-0.488-0.383-0.982,0.023-1.463c0.854-0.341,1.029,0.632,1.591,0.859c0.443,0.323,0.791,0.738,1.087,1.201
		c0.309,0.575,0.542,1.194,0.943,1.717c0.199,0.419,0.712,0.563,0.869,1.021c0.099,0.338,0.068,0.654-0.156,0.935
		c-1.069,0.297-1.63-0.578-2.357-1.074C1440.056,845.482,1439.812,845.154,1439.567,844.827z"/>
	<path fill-rule="evenodd" clip-rule="evenodd" fill="#F9E685" d="M1450.456,847.547c-0.031,0.096-0.072,0.187-0.125,0.272
		c-0.823,0.746-1.74,0.002-2.612,0.165c-0.779,0.146-1.599-0.113-2.382,0.155c-0.069-0.208-0.139-0.415-0.21-0.622
		c0.213-0.239,0.488-0.169,0.58-0.169c-0.396,0.038-0.974-0.128-1.531,0.101l0.007,0.107c-0.542-0.052-1.176,0.109-1.416-0.644
		c0.111-0.42,0.219-0.844,0.692-1c0.334-0.105,0.666,0.003,0.998-0.006c1.347,0.322,2.698,0.338,4.056,0.091
		c0.387,0.034,0.782-0.146,1.163,0.041c0.177,0.15,0.25,0.349,0.241,0.577C1449.776,847.118,1450.412,847.154,1450.456,847.547z"/>
	<path fill-rule="evenodd" clip-rule="evenodd" fill="#FADD8B" d="M1449.71,846.836c-0.003-0.206-0.006-0.412-0.008-0.618
		c0.041-0.302,0.237-0.493,0.453-0.673c0.109-0.09,0.229-0.161,0.355-0.222c0.305-0.219,0.615-0.399,0.993-0.172
		c0.369,0.325,0.517,0.744,0.49,1.234c-0.06,0.503-0.341,0.84-0.761,1.076c-0.067,0.028-0.136,0.056-0.205,0.085
		c-0.115-0.021-0.229-0.042-0.345-0.063C1450.437,847.145,1449.931,847.216,1449.71,846.836z"/>
	<path fill-rule="evenodd" clip-rule="evenodd" fill="#F9D87C" d="M1449.71,846.836c0.463-0.002,0.894,0.047,0.974,0.647
		l-0.102,0.078l-0.126-0.015c-0.39-0.07-0.779-0.14-1.06-0.471C1449.502,846.995,1449.604,846.917,1449.71,846.836z"/>
	<path fill-rule="evenodd" clip-rule="evenodd" fill="#F8FD94" d="M1444.176,847.449c0.348-0.321,0.775-0.287,1.193-0.268
		c0.111,0.006,0.221,0.11,0.331,0.17c-0.19,0.056-0.382,0.11-0.573,0.166C1444.81,847.494,1444.492,847.471,1444.176,847.449z"/>
	<path fill-rule="evenodd" clip-rule="evenodd" fill="#FEE086" d="M1453.621,846.587c-0.386-0.203-0.64,0.25-0.992,0.213
		c-0.311-0.14-0.729,0.1-0.968-0.292c-0.107-0.409-0.214-0.819-0.322-1.229c0.248-1.736,1.384-2.9,2.487-4.089
		c0.121-0.085,0.248-0.159,0.374-0.23c0.335-0.291,0.306-0.6,0.044-0.918c-0.175-0.242-0.336-0.489-0.461-0.76
		c-0.645-1.937-1.199-3.93-3-5.16c-0.242-0.389-0.543-0.747-0.669-1.205c-0.052-0.604-0.46-0.96-0.854-1.344
		c-0.633-0.614-0.499-1.152,0.225-1.583c0.446-0.193,0.954-0.24,1.331-0.601c0.883-0.47,1.936-0.55,2.72-1.25
		c0.394-0.25,0.806-0.448,1.274-0.485c0.524-0.092,1.017-0.355,1.566-0.313c0.455,0.063,0.872-0.086,1.285-0.258
		c0.542-0.117,1.088-0.109,1.633-0.044c0.149,0.039,0.287,0.105,0.414,0.195c0.112,0.106,0.188,0.238,0.226,0.391
		c-0.026,0.386,0.089,0.701,0.438,0.898c0.229,0.193,0.456,0.39,0.529,0.706c0.041,0.396-0.171,0.719-0.351,1.079
		c1.654-0.202,2.562,0.57,3.14,2.611c-0.019,0.155-0.063,0.305-0.125,0.445c-0.49,0.59-1.065,1.147-0.039,1.813
		c0.312,0.203,0.374,0.653,0.341,1.059c-0.165,0.716-0.945,0.707-1.312,1.188c-0.94,0.317-0.992,1.412-1.635,1.98
		c-0.1,0.006-0.167,0.056-0.2,0.146c0.059-0.066,0.127-0.113,0.222-0.119c0.203,0.077,0.29,0.238,0.314,0.446
		c0.046,0.516-0.699,0.596-0.589,1.148c0.036,0.508-0.083,0.985-0.234,1.457c-0.107,0.136-0.216,0.271-0.325,0.406
		c-0.29,0.273-0.42,0.792-0.97,0.662c-0.323,0.216-0.646,0.431-0.97,0.646C1457.046,845.786,1455.517,846.555,1453.621,846.587z"/>
	<path fill-rule="evenodd" clip-rule="evenodd" fill="#F5B376" d="M1466.975,835.912c-0.103,1.028-1.322,0.831-1.664,1.598
		c-0.293,0.514-0.688,0.849-1.309,0.788c-0.46-0.023-0.882-0.119-1.103-0.602c-0.166-0.952,0.909-0.895,1.163-1.507
		c1.125-0.462,1.733-2.016,3.261-1.631C1467.653,835.131,1467.055,835.451,1466.975,835.912z"/>
	<path fill-rule="evenodd" clip-rule="evenodd" fill="#F3A26E" d="M1466.975,835.912c0.095-0.474,0.189-0.947,0.283-1.42
		c0.014-0.073,0.024-0.147,0.037-0.222c0.228-0.438,0.613-0.604,1.053-0.654c0.192-0.01,0.224-0.131,0.168-0.312
		c-0.076-0.86,0.489-0.861,1.067-0.852c0.147,0.032,0.286,0.09,0.418,0.168c0.399,0.304,0.615,0.693,0.546,1.217
		c-0.031,0.099-0.056,0.199-0.076,0.3c-0.196,0.64-0.665,0.789-1.25,0.729c-0.339,0.203-0.678,0.406-1.017,0.608
		C1467.719,835.396,1467.342,835.637,1466.975,835.912z"/>
	<path fill-rule="evenodd" clip-rule="evenodd" fill="#FDCD6D" d="M1460.433,842.483c-0.784-0.521-0.021-1.05-0.006-1.575
		c0.423-0.484,0.971-0.734,1.573-0.881c0.452-0.049,0.894-0.049,1.272,0.268c0.319,0.409,0.119,0.646-0.264,0.817
		C1462.15,841.568,1461.291,842.026,1460.433,842.483z"/>
	<path fill-rule="evenodd" clip-rule="evenodd" fill="#E97F52" d="M1482.532,824.853c-0.112-0.029-0.224-0.059-0.335-0.089
		c-0.451-0.153-1.254,0.429-1.271-0.637c0.368-0.446,0.942-0.252,1.385-0.468c0.491,0.068,0.988-0.24,1.477,0.03
		c0.146,0.129,0.173,0.28,0.08,0.454C1483.658,824.848,1482.855,824.377,1482.532,824.853z"/>
	<path fill-rule="evenodd" clip-rule="evenodd" fill="#F9FC90" d="M1437.714,837.837c0.184-0.042,0.307-0.13,0.249-0.352
		c-0.101-0.197-0.05-0.331,0.156-0.404c0.534,0.145,0.642,0.573,0.666,1.057c-0.001,0.377-0.054,0.736-0.332,1.018
		c-0.406,0.226-0.663,0.02-0.868-0.324C1437.544,838.489,1437.393,838.13,1437.714,837.837z"/>
	<path fill-rule="evenodd" clip-rule="evenodd" fill="#FCE97F" d="M1437.635,839.481c0.035-0.216,0.071-0.434,0.106-0.651
		c0.198,0.109,0.395,0.218,0.592,0.326c0.438-0.245-0.089-0.858,0.397-1.087c0.267,0.011,0.439,0.165,0.573,0.384
		c0.19,0.398,0.138,0.848,0.255,1.262c0.078,0.925,0.85,1.824,0.098,2.777c-0.583-0.246-0.735-0.834-1-1.333
		c-0.305-0.268-0.61,0.226-0.915-0.001c-0.037-0.438-0.075-0.876-0.113-1.314C1437.63,839.724,1437.632,839.602,1437.635,839.481z"
		/>
	<path fill-rule="evenodd" clip-rule="evenodd" fill="#FDF68F" d="M1437.741,841.158c0.305-0.354,0.611-0.738,0.915,0.001
		c-0.42,0.407-0.297,0.955-0.357,1.455c-0.201-0.268-0.403-0.536-0.604-0.807C1437.71,841.592,1437.725,841.375,1437.741,841.158z"
		/>
	<path fill-rule="evenodd" clip-rule="evenodd" fill="#E592AC" d="M1450.682,845.791c-0.106,0.014-0.212,0.031-0.318,0.053
		c-0.645-0.076-1.162,0.201-1.626,0.622c-1.522,0.605-3.043,0.4-4.563-0.015c-0.62-0.956-1.92-0.447-2.6-1.273
		c-0.757-0.318-0.673-1.104-0.901-1.714c-0.069-1.546-1.54-2.615-1.36-4.244c0.089-1.594,1.052-1.879,2.353-1.655
		c0.138,0.075,0.253,0.178,0.345,0.31c0.1,0.213,0.114,0.438,0.07,0.668c-0.02,0.213-0.026,0.429-0.028,0.643
		c0.005,0.275,0.083,0.539,0.104,0.811c0.026,0.184,0.041,0.368,0.094,0.542c0.256,0.255,0.522,0.181,0.792,0.032
		c0.445-0.204,0.891-0.402,1.09-0.913c0.09-0.124,0.197-0.226,0.319-0.314c0.731-0.262,1.442-0.353,2.061,0.276
		c0.218,0.289,0.494,0.443,0.868,0.36c0.955,0.042,1.607,0.518,1.813,1.477c0.193,0.904-0.306,1.408-1.106,1.661
		c-0.425,0.063-0.79-0.074-1.108-0.351c-0.161-0.091-0.258-0.408-0.468-0.278c-0.182,0.114-0.021,0.388-0.022,0.586
		c0.511,1.069,1.254,0.104,1.868,0.228C1451.133,842.816,1451.147,842.832,1450.682,845.791z"/>
	<path fill-rule="evenodd" clip-rule="evenodd" fill="#E68FAB" d="M1439.633,839.16c-0.066,0.801,0.108,1.442,0.728,2.054
		c0.586,0.577,0.84,1.407,0.313,2.25c-0.339-0.323-0.679-0.647-1.018-0.972c-0.192-0.901-0.385-1.803-0.578-2.704
		C1439.236,839.555,1439.005,838.957,1439.633,839.16z"/>
	<path fill-rule="evenodd" clip-rule="evenodd" fill="#E384BB" d="M1441.575,845.178c0.814,0.537,2.233-0.225,2.6,1.274
		c-0.207-0.101-0.414-0.199-0.62-0.3c-0.303-0.215-0.727,0.093-0.998-0.246C1442.088,845.863,1441.599,845.852,1441.575,845.178z"/>
	<path fill-rule="evenodd" clip-rule="evenodd" fill="#F9DE83" d="M1442.557,845.906c0.377-0.109,0.724-0.084,0.998,0.246
		c-0.236,0.233-0.472,0.467-0.706,0.698c-0.103-0.004-0.199-0.029-0.292-0.075C1442.557,846.485,1442.557,846.195,1442.557,845.906z
		"/>
	<path fill-rule="evenodd" clip-rule="evenodd" fill="#E192AB" d="M1448.737,846.466c0.333-0.788,0.8-1.2,1.626-0.622
		c-0.22,0.125-0.44,0.248-0.661,0.373C1449.38,846.299,1449.059,846.383,1448.737,846.466z"/>
	<path fill-rule="evenodd" clip-rule="evenodd" fill="#E491AB" d="M1448.078,842.848c0.348-0.425,1.07-0.676,0.656-1.457
		c-0.35-0.657-0.773-1.191-1.625-0.896c-0.11-0.085-0.201-0.188-0.268-0.312c-0.073-0.259-0.13-0.523-0.193-0.784
		c-0.04-0.364-0.361-0.51-0.564-0.75c-0.086-0.121-0.143-0.253-0.172-0.4c0.157-2.43,0.861-3.351,4.138-2.363
		c0.071,0.029,0.148,0.116,0.22,0.117c0.055,0,0.042-0.125-0.05-0.213c-1.61-1.214-3.289-1.876-5.254-0.9
		c-0.368,0.183-0.868,0.32-1.134-0.202c-0.194-0.386,0.009-0.762,0.257-1.061c0.46-0.554,1.042-1.202,1.716-1.105
		c1.765,0.251,3.638,0.153,5.197,1.3c2.306,1.014,2.673,3.25,3.212,5.377c-0.227,0.744,0.438,1.465,0.058,2.214
		c-1.239,1.079-1.747,2.744-2.933,3.867c-0.218,0.171-0.438,0.342-0.657,0.514c-0.255-0.785-0.832-1.525-0.12-2.44
		c-0.841,0.187-1.498,0.332-2.155,0.479C1448.055,843.589,1447.711,843.343,1448.078,842.848z"/>
	<path fill-rule="evenodd" clip-rule="evenodd" fill="#EEEB88" d="M1451.661,846.508c0.353-0.006,0.703-0.014,0.968,0.292
		c-0.545,0.212-1.09,0.426-1.635,0.639C1451.028,846.986,1451.445,846.823,1451.661,846.508z"/>
	<path fill-rule="evenodd" clip-rule="evenodd" fill="#E390A9" d="M1451.002,833.821c-1.319-0.182-2.764-0.075-3.927-0.61
		c-1.682-0.774-2.125,0.473-2.948,1.22c3.116-1.027,5.26-0.616,6.558,1.36c-0.112,0.327-0.278,0.554-0.663,0.364
		c-0.843-0.28-1.532,0.191-2.191,0.583c-0.292-0.399,0.319-0.623,0.013-0.946c-1.413,0.337-1.242,1.733-1.71,2.7
		c-0.447,0.186-0.95-0.287-1.38,0.127c-0.069,0.025-0.139,0.044-0.208,0.065c-0.143,0.02-0.282,0.005-0.421-0.035
		c-0.298-0.137-0.552-0.382-0.904-0.391c-0.203,0-0.403-0.019-0.6-0.063c-0.134-0.041-0.253-0.105-0.362-0.19
		c-0.083-0.102-0.129-0.222-0.134-0.355c0.027-0.156,0.079-0.31,0.116-0.441c-0.009,0.024-0.01-0.052-0.016-0.033
		c-0.007,0.019-0.003,0.063-0.008,0.08c-0.029,0.081-0.057,0.145-0.089,0.218c-0.035,0.094-0.067,0.18-0.102,0.268
		c0,0.005-0.117,0.086-0.117,0.086c-0.916,0.163-2.076-0.113-2.276,1.334c-0.186,0.211-0.37,0.42-0.556,0.628
		c-0.027-0.427-0.057-0.854-0.083-1.281c-0.05-0.992,0.063-1.947,0.602-2.807c0.804-1.049,1.453-2.232,2.516-3.057
		c0.268-0.03,0.502,0.024,0.642,0.267c-0.011-0.021,0.054,0.044,0.054,0.044s0.012-0.09,0.014-0.108
		c0.177-0.468,0.551-0.697,0.939-0.918c0.142-0.062,0.287-0.1,0.438-0.123c1.156-0.064,2.308-0.21,3.468-0.146
		c0.301,0.007,0.604,0.007,0.9,0.07c0.557,0.168,1.044,0.502,1.584,0.713c0.122,0.083,0.216,0.193,0.288,0.323
		C1450.625,833.117,1450.813,833.469,1451.002,833.821z"/>
	<path fill-rule="evenodd" clip-rule="evenodd" fill="#FCD585" d="M1464.328,836.477c-0.431,0.343-0.86,0.684-1.293,1.026
		c-0.105,0.114-0.236,0.162-0.391,0.153c-0.219-0.092-0.382-0.217-0.263-0.5c0.063-0.839,0.977-0.514,1.3-0.998
		c-0.305-0.958,0.153-1.281,0.9-1.309c-0.538-0.184-1.396,0.559-1.856-0.306c-0.323-0.606,0.454-0.901,0.633-1.391l0,0
		c0.993-1.048,0.55-2.074-0.021-3.122c-0.29-0.533-0.964-0.938-0.616-1.72c0.526-0.424,1.106-0.654,1.785-0.54
		c2.231,0.992,3.52,3.571,2.863,5.713c-0.076,0.137-0.17,0.259-0.277,0.371C1466.277,834.848,1465.166,835.51,1464.328,836.477z"/>
	<path fill-rule="evenodd" clip-rule="evenodd" fill="#FCDA85" d="M1462.709,828.492c0.806,0.651,1.385,1.451,1.725,2.463
		c0.389,1.153,0.148,1.91-1.075,2.198c0.066-1.206-1.387-1.382-1.595-2.472c-0.06-0.313-0.643,0.017-0.956,0.223
		c-0.45,0.296-1.028,0.704-1.383,0.075c-0.334-0.592,0.526-0.661,0.748-1.053c0.157-0.278,0.39-0.512,0.59-0.767
		c0.076-0.409,0.281-0.735,0.606-0.985c0.434-0.233,0.87-0.447,1.352-0.117C1462.822,828.204,1462.819,828.35,1462.709,828.492z"/>
	<path fill-rule="evenodd" clip-rule="evenodd" fill="#FCDA85" d="M1462.382,837.156c0.113,0.115,0.225,0.228,0.338,0.341
		c0.199,0.351,0.482,0.645,0.66,1.01c-0.044,0.109-0.036,0.215,0.021,0.315c0.055,0.304-0.058,0.445-0.364,0.399
		c-0.215-0.017-0.431-0.033-0.644-0.05c-0.511-0.017-0.601,0.506-0.913,0.745c-0.138,0.049-0.266,0.031-0.385-0.056
		c-0.111-0.123-0.225-0.245-0.338-0.368C1461.068,838.546,1460.623,837.044,1462.382,837.156z"/>
	<path fill-rule="evenodd" clip-rule="evenodd" fill="#F9DE83" d="M1449.71,830.151c-0.474,0.435-0.663,0.797,0.033,1.267
		c0.409,0.275,1.256,0.479,0.694,1.348c0.001,0-0.124,0.061-0.124,0.061c-0.406-0.226-0.847-0.37-1.265-0.572
		c-0.246-0.473-0.733-0.254-1.096-0.402c-0.395-0.273-0.624-0.642-0.619-1.144c0.566-0.796,1.334-0.962,2.222-0.735
		C1449.608,830.031,1449.66,830.091,1449.71,830.151z"/>
	<path fill-rule="evenodd" clip-rule="evenodd" fill="#FCDA85" d="M1463.358,833.153c0.074,0.498-0.538,0.807-0.363,1.349
		c0.536,0.307,1.143-0.289,1.689,0.171c-0.151,0.616-1.083,0.708-1.003,1.485c-0.146-0.226-0.244-0.584-0.443-0.657
		C1460.7,834.563,1462.641,833.896,1463.358,833.153z"/>
	<path fill-rule="evenodd" clip-rule="evenodd" fill="#EEE989" d="M1452.309,828.758c0.432-0.07,0.863-0.14,1.293-0.208
		c-0.606,0.98-1.771,0.762-2.597,1.271c-0.392,0.266-0.821,0.221-1.253,0.166c-0.34-0.027-0.691,0.057-1.019-0.106
		c-0.133-0.944,0.733-0.781,1.159-1.107c0.484-0.143,0.996-0.12,1.48-0.262C1451.714,828.478,1452.032,828.539,1452.309,828.758z"/>
	<path fill-rule="evenodd" clip-rule="evenodd" fill="#FEC66A" d="M1459.774,827.504c0.919-0.558,1.928-0.304,2.905-0.332
		c-0.066,0.947-1.201,0.71-1.483,1.415c-0.205,0.229-0.448,0.364-0.764,0.311c-0.263-0.339-0.541-0.665-0.662-1.095
		C1459.774,827.703,1459.775,827.603,1459.774,827.504z"/>
	<path fill-rule="evenodd" clip-rule="evenodd" fill="#D077A0" d="M1454.271,841.412c-0.281-0.731-1.157-1.446-0.058-2.214
		c0.144,0.213,0.286,0.425,0.43,0.638c0.291,0.587,0.327,1.146-0.175,1.642C1454.404,841.454,1454.338,841.431,1454.271,841.412z"/>
	<path fill-rule="evenodd" clip-rule="evenodd" fill="#F2B270" d="M1459.771,827.803c0.569,0.074,0.691,0.479,0.687,0.979
		c-0.078,0.173-0.188,0.189-0.327,0.073c-0.284-0.372-1.052,0.076-1.086-0.608C1459.027,827.909,1459.459,827.845,1459.771,827.803z
		"/>
	<path fill-rule="evenodd" clip-rule="evenodd" fill="#FEEA8A" d="M1454.469,841.478c0.059-0.546,0.116-1.094,0.175-1.642
		C1455.734,840.513,1454.99,840.983,1454.469,841.478z"/>
	<path fill-rule="evenodd" clip-rule="evenodd" fill="#FCEF8E" d="M1460.13,828.854c0.109-0.025,0.218-0.05,0.326-0.073
		c0.207-0.103,0.411-0.206,0.618-0.307c0.151-0.169,0.258-0.144,0.32,0.078c-0.048,0.382-0.275,0.564-0.632,0.607
		C1460.551,829.058,1460.34,828.955,1460.13,828.854z"/>
	<path fill-rule="evenodd" clip-rule="evenodd" fill="#FCDA85" d="M1460.769,839.491c-0.269,0.289-0.538,0.547-1.069,0.5
		C1459.933,839.44,1460.376,839.528,1460.769,839.491z"/>
	<path fill-rule="evenodd" clip-rule="evenodd" fill="#FCDA85" d="M1461.517,836.374c-0.124,0.116-0.213,0.236-0.332,0.294
		c-0.051,0.026-0.162-0.081-0.246-0.128c0.088-0.107,0.159-0.236,0.268-0.307C1461.25,836.203,1461.374,836.305,1461.517,836.374z"
		/>
	<path fill-rule="evenodd" clip-rule="evenodd" fill="#F9DC7D" d="M1449.716,829.82c0.43,0,0.859,0.001,1.289,0.001
		c-0.35,0.45-0.771,0.598-1.295,0.33l-0.001-0.004C1449.502,830.035,1449.505,829.927,1449.716,829.82z"/>
	<path fill-rule="evenodd" clip-rule="evenodd" fill="#F69B66" d="M1476.389,828.833c-0.022,0.087-0.038,0.173-0.049,0.263
		c-0.418,0.812-1.25,0.807-1.958,1.046c-0.422,0.123-0.845,0.247-1.265,0.37c0.314-1.604-0.362-2.671-1.707-3.411
		c-0.367-0.201-0.334-0.643-0.366-1.018c0.068-0.222,0.166-0.396,0.439-0.276c0.916,0.559,1.585-0.378,2.408-0.428
		c0.572-0.033,1.138-0.19,1.706-0.29c0.309-0.181,0.588-0.186,0.813,0.136c0.064,0.776-0.904,0.663-1.029,1.271
		C1475.673,827.299,1476.295,827.945,1476.389,828.833z"/>
	<path fill-rule="evenodd" clip-rule="evenodd" fill="#F2895C" d="M1476.353,825.472c-0.253-0.128-0.504-0.256-0.755-0.383
		c0.044-0.091,0.092-0.178,0.146-0.262c0.189-0.214,0.463-0.169,0.696-0.245c0.82-0.229,1.666-0.297,2.501-0.443
		c0.586-0.029,1.187-0.418,1.754,0.069c0.149,0.984-0.581,1.004-1.194,1.153C1478.458,825.603,1477.421,826.01,1476.353,825.472z"/>
	<path fill-rule="evenodd" clip-rule="evenodd" fill="#F8AB72" d="M1469.536,826.528c0.501-0.287,1.04-0.411,1.612-0.391
		c0.498,0.579,2.55,1.879,2.99,1.867c-0.346,0.847-0.684,1.678-1.021,2.507c-0.111,0.214-0.221,0.427-0.33,0.64
		c-0.332,1.006-1.112,1.225-2.024,1.215c-1.287-0.723-0.899-1.426,0.024-2.121c1.301-0.483,0.514-0.889-0.053-1.299
		C1470.629,827.987,1469.102,827.768,1469.536,826.528z"/>
	<path fill-rule="evenodd" clip-rule="evenodd" fill="#EBA166" d="M1471.885,833.484c-0.041,0.104-0.083,0.211-0.124,0.315
		c-0.405,0.014-0.809,0.026-1.214,0.038c-0.231-0.332-0.463-0.665-0.694-0.999c0.847,0.346,1.72-0.582,2.562,0.057
		C1472.238,833.094,1472.061,833.289,1471.885,833.484z"/>
	<path fill-rule="evenodd" clip-rule="evenodd" fill="#FBC981" d="M1464.328,836.477c0.579-1.261,1.629-2.093,2.605-2.988
		c0.482,0.205,0.648,0.517,0.321,0.997c0,0,0.003,0.005,0.003,0.007C1466.282,835.153,1465.305,835.815,1464.328,836.477z"/>
	<path fill-rule="evenodd" clip-rule="evenodd" fill="#FEC66C" d="M1463.38,838.507c-0.588-0.084-0.688-0.502-0.66-1.01
		c0.105,0,0.211,0.003,0.315,0.006c0.261,0.324,0.628,0.322,0.99,0.335C1463.811,838.061,1463.594,838.284,1463.38,838.507z"/>
	<path fill-rule="evenodd" clip-rule="evenodd" fill="#F9BC7D" d="M1467.255,834.485c-0.106-0.334-0.214-0.665-0.321-0.997v-0.001
		c0.534-0.35,0.658-0.962,0.908-1.496c1.246-0.452,1.184-1.618,1.368-2.65c-0.461,0.149-0.919,0.275-1.337-0.115
		c-0.151-0.321-0.031-0.577,0.187-0.8c0.545-0.107,0.097-0.283,0.017-0.441c-0.08-0.357,0.055-0.631,0.298-0.862
		c0.064-0.103,0.106-0.216,0.116-0.34c0.3-0.291,0.67-0.286,1.046-0.254c0.243,0.875,1.808,0.957,1.3,2.284
		c0.612,0.453,0.873,0.979,0.321,1.67c-0.618,0.423-1.321,0.828-0.336,1.604c-0.277,0.324-0.838,0.242-0.995,0.735
		c-0.368,0.144-1.188-0.395-0.944,0.663c-0.037,0.187-0.145,0.298-0.326,0.332C1468.122,834.039,1467.688,834.262,1467.255,834.485z
		"/>
	<path fill-rule="evenodd" clip-rule="evenodd" fill="#F19B63" d="M1468.556,833.817c0.108-0.11,0.217-0.222,0.326-0.332
		c0.201,0.04,0.46,0.026,0.487,0.3c0.009,0.071-0.228,0.161-0.342,0.256C1468.72,834.291,1468.576,834.197,1468.556,833.817z"/>
	<path fill-rule="evenodd" clip-rule="evenodd" fill="#F07551" d="M1481.232,825.528l-0.146-0.042l-0.149,0.006
		c-0.201,0.166-0.423,0.28-0.69,0.274c-0.462-0.165-1.054-0.192-0.956-0.949c0.502-0.043,1.107,0.143,1.288-0.614
		c0.055-0.211,0.166-0.251,0.334-0.114l-0.014,0.104c0.432,0.191,0.864,0.381,1.298,0.571
		C1481.876,825.019,1481.554,825.274,1481.232,825.528z"/>
	<path fill-rule="evenodd" clip-rule="evenodd" fill="#EFDF82" d="M1462.037,839.791c-0.209-0.011-0.418-0.022-0.626-0.032
		c0.152-0.505,0.23-1.14,0.982-0.587C1462.274,839.379,1462.156,839.584,1462.037,839.791z"/>
	<path fill-rule="evenodd" clip-rule="evenodd" fill="#F78E60" d="M1476.389,828.833c-0.45-0.058-1.086-0.294-0.998-0.658
		c0.285-1.145-0.263-1.012-0.96-0.64c-0.089-0.751,0.71-0.829,0.627-1.388c0.501-0.471,1.104-0.556,1.748-0.497
		c0.225,1.039,1.287,1.318,1.798,2.097l0.039,0.1C1477.891,828.175,1477.14,828.504,1476.389,828.833z"/>
	<path fill-rule="evenodd" clip-rule="evenodd" fill="#FBE181" d="M1442.252,832.825c-0.675,1.074-1.363,2.14-2.277,3.021
		c-0.479-0.135-0.66-0.49-0.678-0.966c0.299-1.115,1.172-1.726,1.997-2.379c0.203-0.01,0.405-0.02,0.609-0.028
		c0.114-0.114,0.24-0.132,0.381-0.054C1442.359,832.563,1442.345,832.697,1442.252,832.825z"/>
	<path fill-rule="evenodd" clip-rule="evenodd" fill="#FCF197" d="M1442.357,832.554c-0.15-0.026-0.304-0.055-0.455-0.08
		c0.327-0.232,0.654-0.465,0.981-0.698c0.221-0.068,0.439-0.139,0.659-0.207c0.268,0.075,0.365,0.252,0.287,0.526l0.025,0.11
		C1443.374,832.401,1442.96,832.907,1442.357,832.554z"/>
	<path fill-rule="evenodd" clip-rule="evenodd" fill="#FAE982" d="M1438.655,835.153c0.398,0.095,0.656-0.211,0.969-0.362
		c0.116,0.353,0.233,0.705,0.351,1.056c-0.327,0.888-0.653,1.773-0.98,2.66c-0.112-0.115-0.225-0.23-0.338-0.346
		c-0.102,0.214-0.206,0.216-0.313,0.005c-0.012-0.357,0-0.721-0.28-0.998c-0.101-0.364,0.423-0.607,0.184-0.998
		C1438.384,835.831,1438.519,835.492,1438.655,835.153z"/>
	<path fill-rule="evenodd" clip-rule="evenodd" fill="#EED886" d="M1438.344,838.166c0.103-0.004,0.207-0.005,0.313-0.005
		c-0.003,0.439-0.001,0.88-0.016,1.32c-0.005,0.141-0.061,0.345-0.232,0.15c-0.089-0.099-0.056-0.313-0.075-0.476
		C1438.337,838.827,1438.339,838.496,1438.344,838.166z"/>
	<path fill-rule="evenodd" clip-rule="evenodd" fill="#CE749D" d="M1448.078,842.848c0.109,0.328,0.219,0.655,0.328,0.984
		c-0.732-0.126-1.239,0.777-2.104,0.368c-0.749-0.355-0.549-0.611-0.155-1.023c0.161-0.465,0.436-0.758,0.962-0.666
		C1447.433,842.624,1447.755,842.735,1448.078,842.848z"/>
	<path fill-rule="evenodd" clip-rule="evenodd" fill="#E08CA8" d="M1447.109,842.511c-0.321,0.223-0.642,0.443-0.962,0.666
		c-0.066-0.149-0.16-0.291-0.196-0.447c-0.118-0.52-0.403-1.235,0.272-1.406C1447.059,841.112,1447.062,841.908,1447.109,842.511z"
		/>
	<path fill-rule="evenodd" clip-rule="evenodd" fill="#E59CB9" d="M1444.451,839.69c0.16,1.003-0.781,1.019-1.244,1.465
		c-0.563,0.006-1.102-0.117-1.624-0.326c0.028-0.291,0.126-0.54,0.383-0.699c0.135-0.198,0.316-0.332,0.541-0.403
		c0.289-0.073,0.583-0.104,0.882-0.076C1443.743,839.648,1444.104,839.499,1444.451,839.69z"/>
	<path fill-rule="evenodd" clip-rule="evenodd" fill="#E390A9" d="M1446.459,839.829c-0.591-0.495-1.368,0.159-1.958-0.336
		c-0.275-0.284-0.298-0.593-0.077-0.922l0.098-0.088c1.213-0.214,2.001,0.234,2.149,1.223
		C1446.601,839.746,1446.529,839.787,1446.459,839.829z"/>
	<path fill-rule="evenodd" clip-rule="evenodd" fill="#DD4037" d="M1444.424,838.571c0.025,0.308,0.052,0.615,0.077,0.922
		c-0.045,0.059-0.062,0.125-0.05,0.197c-0.269,0.224-0.505,0.515-0.912,0.42c-0.396-0.355-0.649-0.761-0.443-1.328
		c0.275-0.398,0.655-0.462,1.089-0.358C1444.255,838.489,1444.334,838.539,1444.424,838.571z"/>
	<path fill-rule="evenodd" clip-rule="evenodd" fill="#DA4237" d="M1442.538,840.101c-0.191,0.01-0.383,0.021-0.573,0.029
		c-0.047-0.366-0.73-0.448-0.414-0.978c0.104-0.105,0.229-0.17,0.373-0.196c0.146,0.013,0.281,0.06,0.407,0.142
		C1442.605,839.388,1442.769,839.701,1442.538,840.101z"/>
	<path fill-rule="evenodd" clip-rule="evenodd" fill="#E78FA4" d="M1441.583,840.829c0.568-0.03,1.117,0.038,1.624,0.326
		C1442.579,841.499,1442.019,841.498,1441.583,840.829z"/>
	<path fill-rule="evenodd" clip-rule="evenodd" fill="#E390A9" d="M1447.109,840.161c0,0.111,0,0.223,0,0.334
		c-0.262,0.265-0.59,0.217-0.805,0.025c-0.082-0.073,0.096-0.453,0.154-0.691l0,0
		C1446.825,839.631,1446.931,839.969,1447.109,840.161z"/>
	<path fill-rule="evenodd" clip-rule="evenodd" fill="#D6392D" d="M1442.261,837.859c0.081,0.005,0.159,0.005,0.239,0
		c0.256,0.145,0.238,0.358,0.148,0.594c-0.149,0.201-0.351,0.288-0.594,0.278c-0.15-0.04-0.279-0.116-0.389-0.23
		c0.08-0.137,0.16-0.275,0.241-0.414C1441.993,837.958,1442.111,837.883,1442.261,837.859z"/>
	<path fill-rule="evenodd" clip-rule="evenodd" fill="#DC2F1D" d="M1441.666,838.501c0.079-0.002,0.157-0.003,0.235-0.009
		c0.104,0.086,0.169,0.197,0.192,0.335c-0.016,0.138-0.076,0.249-0.185,0.333c-0.121-0.003-0.239-0.005-0.358-0.008
		C1441.589,838.936,1441.628,838.718,1441.666,838.501z"/>
	<path fill-rule="evenodd" clip-rule="evenodd" fill="#E390A9" d="M1442.261,837.859c-0.118,0.076-0.236,0.151-0.354,0.228
		c0-0.088,0.002-0.174,0.002-0.261l0.006-0.008c0.08-0.166,0.178-0.178,0.29-0.032L1442.261,837.859z"/>
	<path fill-rule="evenodd" clip-rule="evenodd" fill="#E494AA" d="M1447.109,840.161c-0.217-0.111-0.435-0.222-0.65-0.332
		c-0.225-1.09-1.098-1.19-1.938-1.346c0.545-1.407,1.079-0.941,1.611,0.009l0.002,0.002c0.189,0.43,1.082-0.224,0.975,0.666
		C1447.109,839.493,1447.109,839.827,1447.109,840.161z"/>
	<path fill-rule="evenodd" clip-rule="evenodd" fill="#D176A0" d="M1450.021,836.155c0.222-0.121,0.443-0.242,0.663-0.364
		c0.565,0.186,0.919,0.681,0.438,1.064C1450.556,837.308,1450.205,836.716,1450.021,836.155z"/>
	<path fill-rule="evenodd" clip-rule="evenodd" fill="#E390A9" d="M1447.109,839.16c-0.325-0.223-0.649-0.445-0.975-0.666
		C1446.46,838.715,1447.411,837.97,1447.109,839.16z"/>
	<path fill-rule="evenodd" clip-rule="evenodd" fill="#FCE37F" d="M1443.83,832.095c-0.096-0.177-0.192-0.353-0.287-0.526
		c0.114-0.081,0.23-0.159,0.346-0.238c0.156-0.494,0.627-0.331,0.948-0.478c0.15-0.009,0.3,0.003,0.447,0.032
		c0.573,0.185,1.149,0.149,1.726,0.01c0.069-0.019,0.141-0.036,0.21-0.055c0.07-0.009,0.144-0.016,0.216-0.023
		c0.406,0.201,0.625,0.532,0.65,0.996c-0.057,0.147-0.161,0.24-0.308,0.286C1446.462,831.882,1445.146,832.744,1443.83,832.095z"/>
	<path fill-rule="evenodd" clip-rule="evenodd" fill="#F79EBA" d="M1441.918,836.524c0.068-0.357,0.09-0.952,0.571-0.718
		c0.597,0.287,0.488,0.868,0.062,1.344c-0.063-0.009-0.124-0.018-0.186-0.026c-0.108-0.07-0.194-0.16-0.256-0.274
		C1442.07,836.726,1442.009,836.616,1441.918,836.524z"/>
	<path fill-rule="evenodd" clip-rule="evenodd" fill="#E08785" d="M1444.185,838.424c-0.318,0.151-0.637,0.302-0.954,0.452
		c-0.058,0.032-0.115,0.063-0.172,0.095c-0.062-0.019-0.125-0.038-0.186-0.056c-0.036-0.051-0.076-0.104-0.114-0.154
		c-0.008-0.062-0.015-0.126-0.023-0.188c0.059-0.173,0.143-0.334,0.242-0.485c0.065-0.095,0.144-0.18,0.23-0.257
		C1443.838,837.499,1443.949,838.069,1444.185,838.424z"/>
	<path fill-rule="evenodd" clip-rule="evenodd" fill="#D473A8" d="M1442.357,832.554c0.5-0.117,0.999-0.231,1.498-0.349
		c-0.322,0.318-0.645,0.637-0.966,0.956l-0.002-0.001c-0.212-0.111-0.424-0.224-0.636-0.335
		C1442.279,832.732,1442.314,832.641,1442.357,832.554z"/>
	<path fill-rule="evenodd" clip-rule="evenodd" fill="#D873AA" d="M1449.046,832.1c0.438,0.215,0.963,0.27,1.269,0.727
		c-0.605-0.004-1.148-0.171-1.571-0.643C1448.817,832.055,1448.92,832.031,1449.046,832.1z"/>
	<path fill-rule="evenodd" clip-rule="evenodd" fill="#FBEC76" d="M1449.046,832.1c-0.101,0.027-0.203,0.055-0.303,0.084
		c-0.322-0.028-0.642-0.057-0.965-0.085c0.102-0.096,0.206-0.19,0.308-0.286C1448.475,831.665,1448.913,831.345,1449.046,832.1z"/>
	<path fill-rule="evenodd" clip-rule="evenodd" fill="#E996B3" d="M1442.89,833.161c0.19,0.305,0.382,0.61,0.747,1.192
		c-0.81-0.349-0.716-0.804-0.749-1.193L1442.89,833.161z"/>
	<path fill-rule="evenodd" clip-rule="evenodd" fill="#F899B8" d="M1442.205,837.786c-0.096,0.018-0.193,0.028-0.29,0.032
		c-0.001-0.223-0.002-0.447-0.003-0.672c0.202-0.194,0.408-0.169,0.616-0.01l0.022,0.015
		C1442.436,837.363,1442.32,837.576,1442.205,837.786z"/>
	<path fill-rule="evenodd" clip-rule="evenodd" fill="#EE9A91" d="M1443.208,837.83c-0.001,0.096,0,0.19,0.003,0.286
		c-0.044,0.157-0.137,0.271-0.287,0.332l-0.093,0.123l-0.149,0.031l-0.079-0.134c-0.033-0.204-0.068-0.405-0.103-0.609
		C1442.737,837.85,1442.973,837.84,1443.208,837.83z"/>
	<path fill-rule="evenodd" clip-rule="evenodd" fill="#B37886" d="M1442.528,837.137c-0.206,0.003-0.411,0.008-0.617,0.01
		c0.008-0.119,0.016-0.24,0.022-0.36c0.109-0.091,0.204-0.084,0.285,0.036C1442.322,836.927,1442.426,837.032,1442.528,837.137z"/>
	<path fill-rule="evenodd" clip-rule="evenodd" fill="#312323" d="M1442.219,836.822c-0.097,0.011-0.192-0.001-0.285-0.036
		c-0.018-0.087-0.023-0.173-0.016-0.262C1442.126,836.51,1442.222,836.613,1442.219,836.822z"/>
	<path fill-rule="evenodd" clip-rule="evenodd" fill="#FBC981" d="M1468.235,828.482c-0.108,0.222-0.217,0.444-0.324,0.665
		c1.496,1.047,1.229,1.821,0,3.007c-0.112,0.61-0.249,1.199-0.978,1.333c0.164-0.594,0.696-1.304-0.463-1.477
		c-0.091-0.015-0.25-0.31-0.213-0.377c1.085-1.951-0.681-2.508-1.597-3.479c0.179-0.234,0.42-0.32,0.703-0.305
		c0.644,0.21,1.209-0.345,1.847-0.201C1467.708,827.726,1468.025,828.032,1468.235,828.482z"/>
	<path fill-rule="evenodd" clip-rule="evenodd" fill="#FEF086" d="M1465.282,828.137c-0.207,0.006-0.414,0.013-0.621,0.019
		c-0.651,0.112-1.302,0.224-1.952,0.336c0-0.109,0.002-0.219,0.005-0.328c0.354-0.404,0.875-0.229,1.297-0.396
		c0.394-0.321,0.805-0.318,1.231-0.076C1465.414,827.825,1465.428,827.974,1465.282,828.137z"/>
	<path fill-rule="evenodd" clip-rule="evenodd" fill="#F1EA8A" d="M1446.441,830.456c0.764-0.213,1.526-0.427,2.289-0.64
		c0.328,0.001,0.657,0.002,0.984,0.004c-0.003,0.108-0.006,0.219-0.006,0.327c-0.759,0.224-1.517,0.446-2.273,0.669l-0.003,0.002
		C1446.976,831.063,1446.537,831.254,1446.441,830.456z"/>
	<path fill-rule="evenodd" clip-rule="evenodd" fill="#F47E55" d="M1477.004,825.814c-0.649,0.11-1.299,0.223-1.946,0.333
		c0.177-0.737,0.785-0.608,1.295-0.676c0.979-0.218,1.959-0.437,2.938-0.654c0.324,0.218,0.647,0.437,0.971,0.655
		C1478.906,826.92,1478.152,826.999,1477.004,825.814z"/>
	<path fill-rule="evenodd" clip-rule="evenodd" fill="#FCC97F" d="M1465.282,828.137c0.004-0.117,0.008-0.233,0.012-0.349
		c-0.07-0.069-0.088-0.131-0.057-0.186c0.031-0.052,0.062-0.079,0.089-0.079c0.873,0.123,1.398-0.84,2.259-0.758
		c0.302,0.006,0.604,0.011,0.905,0.017c0.154,0.094,0.546-0.073,0.387,0.368c-0.362,0.213-0.828,0.254-1.066,0.677
		c-0.171,0.131-0.398,0.16-0.553,0.321C1466.599,828.145,1465.94,828.14,1465.282,828.137z"/>
	<path fill-rule="evenodd" clip-rule="evenodd" fill="#F7B67B" d="M1471.157,830.482c-0.106-0.556-0.214-1.114-0.321-1.67
		c0.545,0.092,1.333-0.084,1.314,0.784C1472.141,830.025,1472.004,830.807,1471.157,830.482z"/>
	<path fill-rule="evenodd" clip-rule="evenodd" fill="#F5815A" d="M1477.004,825.814c1.176,0.792,2.186-0.093,3.258-0.342
		c0.225,0.006,0.45,0.013,0.676,0.02c-0.119,0.217-0.237,0.436-0.355,0.653c-0.363,0.494-0.954,0.746-1.294,1.265
		c-0.229,0.113-0.455,0.225-0.685,0.337C1477.901,827.25,1476.114,827.701,1477.004,825.814z"/>
	<path fill-rule="evenodd" clip-rule="evenodd" fill="#F98965" d="M1479.288,827.41c0.132-0.743,0.569-1.158,1.294-1.265
		C1480.94,827.42,1479.663,826.929,1479.288,827.41z"/>
	<path fill-rule="evenodd" clip-rule="evenodd" fill="#FBC684" d="M1467.911,832.154c-0.038-0.156-0.151-0.418-0.103-0.456
		c1.059-0.816,0.547-1.683,0.103-2.551c0.768-0.169,1.536-0.34,2.304-0.511C1468.882,829.443,1470.488,832.276,1467.911,832.154z"/>
	<path fill-rule="evenodd" clip-rule="evenodd" fill="#FBC684" d="M1467.258,828.148c0.111-0.113,0.224-0.226,0.336-0.338
		c0.21-0.184,0.423-0.203,0.64-0.01c0.194,0.192,0.389,0.387,0.584,0.579c-0.194,0.034-0.389,0.068-0.582,0.103
		C1467.908,828.371,1467.582,828.26,1467.258,828.148z"/>
	<path fill-rule="evenodd" clip-rule="evenodd" fill="#F8AB72" d="M1468.233,827.801c-0.214,0.003-0.427,0.006-0.64,0.01
		c0.258-0.57,0.74-0.679,1.283-0.66C1468.662,827.368,1468.448,827.583,1468.233,827.801z"/>
	<path fill-rule="evenodd" clip-rule="evenodd" fill="#F9DE83" d="M1446.441,830.456c0.251,0.353,0.62,0.36,0.991,0.362
		c0,0.111,0,0.222-0.001,0.332c-0.737,0.254-1.479,0.266-2.223,0.038l-0.082-0.078c-0.083-0.61,0.518-0.36,0.723-0.605
		C1446.047,830.488,1446.246,830.473,1446.441,830.456z"/>
	<path fill-rule="evenodd" clip-rule="evenodd" fill="#DB4C40" d="M1442.91,838.791c0.108,0.028,0.213,0.057,0.32,0.085
		c0.104,0.411,0.205,0.823,0.309,1.234c-0.334-0.004-0.668-0.007-1.001-0.01c-0.102-0.313-0.202-0.628-0.305-0.94
		c0.036-0.06,0.072-0.119,0.105-0.179C1442.507,838.843,1442.709,838.818,1442.91,838.791z"/>
	<path fill-rule="evenodd" clip-rule="evenodd" fill="#C44942" d="M1441.909,839.16c0-0.105,0.004-0.213,0.012-0.318
		c0.329-0.127,0.39,0.027,0.314,0.318h-0.002C1442.125,839.16,1442.018,839.16,1441.909,839.16z"/>
	<path fill-rule="evenodd" clip-rule="evenodd" fill="#DD4638" d="M1442.235,839.16c-0.104-0.105-0.209-0.213-0.314-0.318
		c-0.007-0.116-0.014-0.232-0.02-0.35c0.232-0.007,0.468-0.016,0.701-0.023l-0.046,0.006c0.115,0.101,0.214,0.216,0.295,0.348
		l0.059-0.031C1442.686,838.915,1442.461,839.038,1442.235,839.16z"/>
	<path fill-rule="evenodd" clip-rule="evenodd" fill="#F9DC87" d="M1445.209,831.188c0.741-0.012,1.482-0.024,2.223-0.038
		C1446.696,831.501,1445.963,831.971,1445.209,831.188z"/>
	<path fill-rule="evenodd" clip-rule="evenodd" fill="#FAFDF6" d="M1442.924,838.448c0.095-0.11,0.192-0.222,0.287-0.332
		c0.039,0.104,0.077,0.211,0.116,0.314C1443.192,838.438,1443.059,838.442,1442.924,838.448z"/>
	<path fill-rule="evenodd" clip-rule="evenodd" fill="#D31700" d="M1442.852,838.822c-0.099-0.117-0.196-0.232-0.295-0.348
		c0.094,0.024,0.185,0.057,0.274,0.097C1442.849,838.653,1442.854,838.737,1442.852,838.822z"/>
</g>
</svg>
