<?xml version="1.0" encoding="utf-8"?>
<!-- Generator: Adobe Illustrator 16.0.0, SVG Export Plug-In . SVG Version: 6.00 Build 0)  -->
<!DOCTYPE svg PUBLIC "-//W3C//DTD SVG 1.1//EN" "http://www.w3.org/Graphics/SVG/1.1/DTD/svg11.dtd">
<svg version="1.1" id="Layer_1" xmlns="http://www.w3.org/2000/svg" xmlns:xlink="http://www.w3.org/1999/xlink" x="0px" y="0px"
	 width="1920px" height="1080px" viewBox="0 0 1920 1080" enable-background="new 0 0 1920 1080" xml:space="preserve">
<g>
	<defs>
		<rect id="SVGID_1_" width="1920" height="1080"/>
	</defs>
	<clipPath id="SVGID_2_">
		<use xlink:href="#SVGID_1_"  overflow="visible"/>
	</clipPath>
	<g clip-path="url(#SVGID_2_)">
		<path fill="#FFFFFF" d="M1375,829.405c0.8-4.387,5.28-10.559,5.82-11.408c0.59-0.921,1.08-1.715,2.949-3.821
			c0.74-0.825,0.9-0.674,0.69-1.048c-1.35-1.955-1.06-4.002-0.7-4.887c1.36-2.568,3.32-3.607,4.75-4.229
			c3.48-1.51,6.221-1.614,8.86-0.529c2.649,1.085,1.95,1.553,4.229-0.168c1.79-1.351,7.24-6.156,11.66-6.893
			c4.42-0.737,8.17,1.953,9.86,3.976c1.55,1.856,1.45,1.984,1.75,1.76c3.09-1.75,4.58-2.718,5.729-5.659
			c0.931-2.353,2.84-2.97,3.681-2.985c2.05,0.027,6.67,1.204,8.78,5.69c2.629,5.607,2.55,6.834,1.699,9.393
			c-0.689,2.047-2.17,2.488-4.08,2.709c-5.75-0.276-6.13-0.069-6.859,0.025c-3.32,0.435-3.521,0.532-2.99,1.465
			c0.31,0.564,1.33,2.201,2.109,4.675c0.771,2.475-0.43,3.935-1.129,4.354c-3.28,2.317-7.351,3.797-11.221,3.587
			c-2.62-0.144-2.12-0.152-3.12,0.337c-1.59,0.781-7.68,3.996-8.78,4.298c-1.109,0.302,0.121,1.128,0.851,2.436
			c0.729,1.306,0.07,1.945-0.26,2.266c-0.49,0.479-2.3,1.783-5.92,1.232c-2.221-0.338-2.98-0.625-3.341-0.507
			c-4.5,1.492-6.72,1.625-11.149,1.89c-6.15,0.367-9.601-0.934-11.021-1.505C1376.02,834.852,1374.2,833.791,1375,829.405z"/>
		
			<linearGradient id="SVGID_3_" gradientUnits="userSpaceOnUse" x1="1480.5381" y1="116.1445" x2="1489.1381" y2="98.5656" gradientTransform="matrix(1 0 0 -1 -47.6602 910.04)">
			<stop  offset="0" style="stop-color:#E59E75"/>
			<stop  offset="1" style="stop-color:#DD8A59"/>
		</linearGradient>
		<path fill="url(#SVGID_3_)" d="M1440.68,811.306c-5.75-0.276-6.13-0.07-6.859,0.025c0.619-1.655,1.72-3.905,0.42-6.883
			c-1.301-2.979-3.74-5.778-4.65-6.044c0.59-0.765,0.94-1.736,1.01-1.905c0.92-2.354,2.84-2.971,3.67-2.985
			c2.061,0.027,6.681,1.203,8.791,5.69c2.629,5.607,2.55,6.834,1.699,9.393C1444.07,810.644,1442.59,811.085,1440.68,811.306z"/>
		
			<linearGradient id="SVGID_4_" gradientUnits="userSpaceOnUse" x1="1459.0146" y1="113.21" x2="1472.9537" y2="84.7239" gradientTransform="matrix(1 0 0 -1 -47.6602 910.04)">
			<stop  offset="0" style="stop-color:#E59E75"/>
			<stop  offset="1" style="stop-color:#DD8A59"/>
		</linearGradient>
		<path fill="url(#SVGID_4_)" d="M1420.59,825.412c-2.62-0.144-2.12-0.152-3.12,0.336c0.341-1.133-0.01-4.688-0.069-6.402
			c0.039-3.11-1.48-8.549-7.721-13.341c-3.66-2.807-6.08-3.13-7.229-3.361c1.79-1.35,6.39-5.484,10.81-6.222
			c4.42-0.736,8.17,1.954,9.86,3.976c1.55,1.857,0.569,0.652,2.12,2.511c0.71,0.844,5.06,8.955,5.59,9.888
			c0.31,0.563,1.33,2.201,2.109,4.675c0.771,2.475-0.43,3.934-1.129,4.354C1428.53,824.143,1424.46,825.622,1420.59,825.412z"/>
		
			<linearGradient id="SVGID_5_" gradientUnits="userSpaceOnUse" x1="1438.0332" y1="106.958" x2="1454.254" y2="73.7874" gradientTransform="matrix(1 0 0 -1 -47.6602 910.04)">
			<stop  offset="0" style="stop-color:#E69E75"/>
			<stop  offset="1" style="stop-color:#D0855A"/>
		</linearGradient>
		<path fill="url(#SVGID_5_)" d="M1403.36,835.981c-2.221-0.339-2.98-0.625-3.341-0.509c-2.069,0.651-3.83,1.079-4.449,1.211
			c-0.53-0.933-0.67-3.004-0.4-4.799c1.13-8.877-0.21-10.762-1.56-12.315c-1.44-1.671-3.33-2.89-4.2-3.414
			c-2.55-1.369-4.78-1.848-5.641-1.979c0.74-0.826,0.9-0.675,0.69-1.048c-1.35-1.956-1.06-4.002-0.7-4.888
			c1.36-2.567,3.32-3.607,4.75-4.229c3.48-1.51,6.221-1.615,8.86-0.53c2.649,1.085,2.14,1.197,3.29,0.511
			c2.29-1.359,12.05,17.24,9.83,25.27c-0.69,0.356-1.32,0.651-1.801,0.783c-1.109,0.302,0.121,1.129,0.851,2.436
			s0.07,1.946-0.26,2.266C1408.79,835.227,1406.98,836.53,1403.36,835.981z"/>
		
			<linearGradient id="SVGID_6_" gradientUnits="userSpaceOnUse" x1="1426.0273" y1="90.8428" x2="1435.2275" y2="72.0393" gradientTransform="matrix(1 0 0 -1 -47.6602 910.04)">
			<stop  offset="0" style="stop-color:#E59E75"/>
			<stop  offset="1" style="stop-color:#DD8A59"/>
		</linearGradient>
		<path fill="url(#SVGID_6_)" d="M1375,829.405c0.8-4.387,5.28-10.559,5.82-11.408c3.91-0.007,6.699,1.271,7.5,2.021
			c3.649,3.441,2.85,8.826,2.189,10.816c-1.51,4.504-1.899,5.372-1.64,6.528c-6.15,0.368-9.601-0.934-11.021-1.505
			C1376.02,834.853,1374.2,833.791,1375,829.405z"/>
		<path fill="#8D583A" d="M1381.58,827.196c0.01,0.699-0.33,2.065-1.75,1.937C1378.05,828.972,1378.68,826.148,1381.58,827.196z"/>
		
			<linearGradient id="SVGID_7_" gradientUnits="userSpaceOnUse" x1="1430.6416" y1="93.3569" x2="1439.9312" y2="74.364" gradientTransform="matrix(1 0 0 -1 -47.6602 910.04)">
			<stop  offset="0" style="stop-color:#B87B58"/>
			<stop  offset="1" style="stop-color:#B87B58"/>
		</linearGradient>
		<path fill="none" stroke="url(#SVGID_7_)" stroke-width="0.6252" d="M1388.82,837.364l-0.11-0.657
			c-0.22-0.845,1.71-5.118,2.17-7.482c0.46-2.363,0.5-5.474-1.99-8.54c-1.979-2.452-4.67-1.991-7.609-2.694l-0.41-0.276"/>
		
			<linearGradient id="SVGID_8_" gradientUnits="userSpaceOnUse" x1="1434.5752" y1="97.4199" x2="1445.744" y2="74.5915" gradientTransform="matrix(1 0 0 -1 -47.6602 910.04)">
			<stop  offset="0" style="stop-color:#B87B58"/>
			<stop  offset="1" style="stop-color:#B87B58"/>
		</linearGradient>
		<path fill="none" stroke="url(#SVGID_8_)" stroke-width="0.6252" d="M1395.57,836.683c-0.11-0.187-0.46-2.63,0-4.993
			c0.449-2.364,0.27-6.318-0.601-9.695s-3.42-4.746-4.85-5.476c-1.55-0.797-4.23-1.812-5.79-2.161l-0.4-0.275"/>
		
			<linearGradient id="SVGID_9_" gradientUnits="userSpaceOnUse" x1="1448.1924" y1="105.9834" x2="1460.1128" y2="81.6163" gradientTransform="matrix(1 0 0 -1 -47.6602 910.04)">
			<stop  offset="0" style="stop-color:#B87B58"/>
			<stop  offset="1" style="stop-color:#B87B58"/>
		</linearGradient>
		<path fill="none" stroke="url(#SVGID_9_)" stroke-width="0.6252" d="M1400.86,803.894c0.62,0.649,3.06,1.831,7.31,11.643
			c3.48,8.03,1.74,12.229,2.57,13.722"/>
		
			<linearGradient id="SVGID_10_" gradientUnits="userSpaceOnUse" x1="1472.79" y1="108.0269" x2="1477.8501" y2="97.6667" gradientTransform="matrix(1 0 0 -1 -47.6602 910.04)">
			<stop  offset="0" style="stop-color:#B87B58"/>
			<stop  offset="1" style="stop-color:#B87B58"/>
		</linearGradient>
		<path fill="none" stroke="url(#SVGID_10_)" stroke-width="0.6252" d="M1424.62,802.258c0.93,0.738,3.1,3.715,6.05,9.883"/>
		
			<linearGradient id="SVGID_11_" gradientUnits="userSpaceOnUse" x1="1453.4941" y1="109.0527" x2="1465.5037" y2="84.4958" gradientTransform="matrix(1 0 0 -1 -47.6602 910.04)">
			<stop  offset="0" style="stop-color:#B87B58"/>
			<stop  offset="1" style="stop-color:#B87B58"/>
		</linearGradient>
		<path fill="none" stroke="url(#SVGID_11_)" stroke-width="0.6252" d="M1402.45,802.643c0.51,0.462,3.319,1.098,4.88,1.895
			c0.71,0.364,3.26,1.733,6.87,5.911c2.89,3.342,3.35,7.951,3.22,9.838l0.1,5.181l0.11,0.188"/>
		
			<linearGradient id="SVGID_12_" gradientUnits="userSpaceOnUse" x1="1477.3096" y1="111.6704" x2="1483.3198" y2="99.391" gradientTransform="matrix(1 0 0 -1 -47.6602 910.04)">
			<stop  offset="0" style="stop-color:#B87B58"/>
			<stop  offset="1" style="stop-color:#B87B58"/>
		</linearGradient>
		<path fill="none" stroke="url(#SVGID_12_)" stroke-width="0.6252" d="M1429.59,798.402c0.41,0.275,1.33,0.896,2.67,2.498
			c1.551,1.856,2.48,3.065,2.641,6.079c0.14,2.636-0.94,3.313-0.82,4.442"/>
	</g>
</g>
<g>
	<path fill-rule="evenodd" clip-rule="evenodd" fill="#3F4953" d="M1369.682,817.555c0.094-7.172,1.875-13.82,6.115-19.706
		c5.397-4.657,11.291-3.438,17.259-1.472c5.599,1.844,10.76,4.543,15.523,7.986c3.833,2.773,7.493,2.149,8.054-2.411
		c1.014-8.254,6.514-13.473,11.049-19.454c6.446,0.94,9.854,6.041,13.954,10.193c-0.477,3.234-3.311,4.251-5.549,5.759
		c-5.301,3.569-8.478,8.56-9.852,14.689c-0.645,2.876-1.797,6.246,2.23,7.722c3.637,1.334,4.734-1.703,6.191-4.034
		c4.92-7.874,7.972-9.199,15.885-6.98c1.857,14.609-1.35,27.635-11.98,38.342c-3.882-4.504-8.385-7.562-14.52-8.743
		c-5.77-1.112-8.824-5.563-9.359-11.411c-2.646,5.385-1.993,10.775,0.06,16.394c1.883,5.148,2.588,10.471-2.437,14.643
		c-6.905,0.009-13.78-0.124-19.675-4.521c-3.315-7.212-3.251-14.72-2.076-22.368c1.437-9.362-1.242-12.41-10.766-12.928
		C1376.388,819.067,1372.604,820.704,1369.682,817.555z"/>
	<path fill-rule="evenodd" clip-rule="evenodd" fill="#13A79D" d="M1427.682,782.498c-0.045,2.173,2.073,5.142-0.361,6.371
		c-6.531,3.298-6.818,8.956-7.732,15.143c-0.895,6.062-6.445,7.402-11.482,3.639c-9.587-7.163-19.809-12.237-32.309-9.802
		C1386.818,778.787,1411.052,771.618,1427.682,782.498z"/>
	<path fill-rule="evenodd" clip-rule="evenodd" fill="#13A79D" d="M1369.682,817.555c6.739-1.671,13.417-2.856,19.997,0.801
		c3.487,1.939,5.833,4.796,4.91,8.596c-1.953,8.037-2.491,15.957-0.745,24.068c0.225,1.042-0.778,2.346-1.213,3.529
		C1377.342,846.957,1370.277,834.262,1369.682,817.555z"/>
	<path fill-rule="evenodd" clip-rule="evenodd" fill="#13A69D" d="M1412.306,859.07c1.379-6.576,0.959-12.747-1.954-19.107
		c-3.38-7.374,4.37-13.711,1.827-22.741c4.307,3.008,4.249,6.036,4.451,8.433c0.663,7.866,4.291,11.889,12.497,12.237
		c6.034,0.255,10.032,3.44,9.434,10.299C1430.95,854.568,1422.671,859.334,1412.306,859.07z"/>
	<path fill-rule="evenodd" clip-rule="evenodd" fill="#13A79D" d="M1450.542,809.847c-6.923,1.655-13.309,3.445-15.219,12.069
		c-0.787,3.553-5.111,3.609-8.466,2.16c-3.206-1.384-5.586-3.265-4.682-7.482c2.426-11.326,7.593-20.311,19.46-23.901
		C1446.369,797.493,1448.733,803.524,1450.542,809.847z"/>
</g>
</svg>
