<?xml version="1.0" standalone="no"?>
<!DOCTYPE svg PUBLIC "-//W3C//DTD SVG 20010904//EN"
 "http://www.w3.org/TR/2001/REC-SVG-20010904/DTD/svg10.dtd">
<svg version="1.0" xmlns="http://www.w3.org/2000/svg"
 width="500.000000pt" height="500.000000pt" viewBox="0 0 500.000000 500.000000"
 preserveAspectRatio="xMidYMid meet">

<g transform="translate(0.000000,500.000000) scale(0.100000,-0.100000)"
fill="#000000" stroke="none">
<path d="M3083 4015 c-142 -40 -263 -144 -332 -287 -37 -76 -81 -221 -70 -232
2 -2 27 0 54 4 28 5 75 11 105 15 l55 6 24 60 c66 172 230 290 383 276 120
-11 234 -88 352 -241 62 -80 169 -250 181 -287 6 -17 16 -19 91 -19 l85 0 -75
146 c-92 177 -166 282 -266 377 -138 131 -266 188 -435 193 -67 3 -117 -1
-152 -11z"/>
<path d="M2402 3423 c-17 -15 -21 -38 -30 -148 -9 -113 -8 -132 5 -147 9 -10
24 -18 33 -18 33 0 47 33 54 120 4 47 9 106 13 131 8 68 -30 100 -75 62z"/>
<path d="M2578 3109 c-21 -12 -24 -49 -6 -67 8 -8 58 -12 157 -12 80 0 208 -5
284 -11 123 -10 141 -9 155 5 24 24 2 62 -41 70 -35 7 -396 26 -482 26 -27 -1
-58 -5 -67 -11z"/>
<path d="M3838 2970 c-17 -14 -18 -20 -8 -65 15 -67 57 -142 97 -172 39 -30
40 -35 9 -76 -38 -49 -66 -118 -66 -160 0 -30 7 -46 31 -69 28 -29 34 -30 88
-25 114 10 249 103 291 199 31 72 25 160 -13 216 -59 84 -192 149 -331 161
-64 6 -82 4 -98 -9z"/>
<path d="M1570 2859 c-112 -38 -212 -77 -222 -86 -23 -21 -23 -46 2 -68 19
-17 27 -15 246 60 182 63 228 82 236 100 14 30 -5 65 -35 64 -12 0 -114 -32
-227 -70z"/>
<path d="M3780 2816 c-6 -8 -10 -25 -8 -38 2 -19 9 -23 38 -23 29 0 36 4 38
23 4 28 -14 52 -38 52 -10 0 -23 -7 -30 -14z"/>
<path d="M3662 2738 c-16 -16 -16 -150 0 -166 17 -17 65 -15 72 4 11 28 6 150
-6 162 -7 7 -21 12 -33 12 -12 0 -26 -5 -33 -12z"/>
<path d="M2860 2655 c-10 -12 -8 -46 11 -171 13 -86 29 -162 36 -169 16 -16
51 -8 63 15 9 17 -29 303 -44 328 -10 17 -51 15 -66 -3z"/>
<path d="M2699 2619 c-12 -12 -18 -27 -14 -37 3 -9 14 -65 25 -125 19 -111 30
-137 60 -137 46 0 48 39 14 215 -20 102 -44 125 -85 84z"/>
<path d="M3772 2558 c-28 -28 -3 -72 39 -66 30 4 47 33 33 56 -14 21 -55 27
-72 10z"/>
<path d="M1820 2505 c-15 -18 -4 -85 36 -230 30 -104 38 -117 73 -113 22 3 29
12 49 73 13 38 32 110 42 159 21 99 16 126 -25 126 -29 0 -40 -18 -50 -80 -6
-40 -22 -84 -26 -70 -29 133 -34 145 -60 148 -14 2 -31 -4 -39 -13z"/>
<path d="M2490 2328 c-5 -13 -19 -58 -31 -100 -18 -63 -19 -80 -9 -93 16 -19
44 -19 63 -1 24 25 60 172 47 196 -15 28 -58 26 -70 -2z"/>
<path d="M1315 2276 c-18 -13 -19 -18 -6 -53 21 -63 157 -333 201 -401 35 -54
44 -63 67 -60 53 6 51 29 -9 130 -61 102 -123 222 -158 308 -37 88 -57 104
-95 76z"/>
<path d="M617 2142 c-14 -16 -13 -33 24 -212 40 -195 56 -240 84 -240 25 0 57
40 51 63 -3 12 -21 103 -42 202 -20 99 -41 186 -46 193 -15 18 -52 15 -71 -6z"/>
<path d="M4128 2128 c-18 -14 -43 -153 -54 -305 -7 -100 0 -123 40 -123 43 0
49 13 58 132 5 62 14 148 22 190 14 83 13 89 -21 107 -27 14 -26 14 -45 -1z"/>
</g>
</svg>
