<?xml version="1.0" encoding="utf-8"?>
<!-- Generator: Adobe Illustrator 16.0.0, SVG Export Plug-In . SVG Version: 6.00 Build 0)  -->
<!DOCTYPE svg PUBLIC "-//W3C//DTD SVG 1.1//EN" "http://www.w3.org/Graphics/SVG/1.1/DTD/svg11.dtd">
<svg version="1.1" id="Layer_1" xmlns="http://www.w3.org/2000/svg" xmlns:xlink="http://www.w3.org/1999/xlink" x="0px" y="0px"
	 width="1920px" height="1086px" viewBox="0 0 1920 1086" enable-background="new 0 0 1920 1086" xml:space="preserve">
<g>
	<defs>
		<rect id="SVGID_1_" width="1920" height="1086"/>
	</defs>
	<clipPath id="SVGID_2_">
		<use xlink:href="#SVGID_1_"  overflow="visible"/>
	</clipPath>
	<path clip-path="url(#SVGID_2_)" fill="#7575BF" d="M251,672c-141,0-182,11.5-251,18v417h1920V656c-69.84,0-528.52,2.674-749,0.001
		C1006,654,937.089,697.235,619,724.5C482.082,736.236,344.776,672,251,672z"/>
	<linearGradient id="SVGID_3_" gradientUnits="userSpaceOnUse" x1="959.9995" y1="705.5" x2="959.9995" y2="1041.5">
		<stop  offset="0" style="stop-color:#9797FF"/>
		<stop  offset="1" style="stop-color:#3B35B7"/>
	</linearGradient>
	<path clip-path="url(#SVGID_2_)" fill="url(#SVGID_3_)" d="M369.228,677.51c-93.502-22.759-285.111-9.482-369.228,0V1086h725h692
		h503v-64.07c-0.12-16.489-41.01-37.434-46.5-40.43c-0.939-0.512-32.5-17.181-48-18.5c-32.57-2.772-36,0-53,2
		c-24.04,2.828-34,7.857-69,0c-24.5-5.5-72.61-32.587-92-64.5c-47.2-77.667-85-95-146.47-92
		c-36.841,1.798-74.931-12.824-81.091-17.533c-15.01-11.467-34.14-16.809-43.26-17.827c-14.68-1.64-23.91-3.414-23.91-3.414
		s-23.85-4.39-35.289-9.861c-17.48-8.364-20.11-9.104-28.461-24.277c-3.959-7.207-17.069-23.517-56.92-23.517
		c-107.39,0-204.116,8.43-245.1,8.43c-40.5,0-41.94-8.689-25.5-12c72-14.5,141-51.146,91.5-40.5
		c-78.5,16.882-228.311,16.643-310.041,9.51C598,668,486.106,705.958,369.228,677.51z"/>
</g>
</svg>
