<?xml version="1.0" encoding="utf-8"?>
<!-- Generator: Adobe Illustrator 16.0.0, SVG Export Plug-In . SVG Version: 6.00 Build 0)  -->
<!DOCTYPE svg PUBLIC "-//W3C//DTD SVG 1.1//EN" "http://www.w3.org/Graphics/SVG/1.1/DTD/svg11.dtd">
<svg version="1.1" id="Layer_1" xmlns="http://www.w3.org/2000/svg" xmlns:xlink="http://www.w3.org/1999/xlink" x="0px" y="0px"
	 width="500px" height="500px" viewBox="0 0 500 500" enable-background="new 0 0 500 500" xml:space="preserve">
<title>ship</title>
<g>
	<g id="레이어_2">
		<g id="_1_사본">
			<polygon points="41.043,132.858 102.085,256.982 425.781,253.59 463.304,183.865 227.303,180.3 32.849,117.332 			"/>
		</g>
	</g>
	<path fill-rule="evenodd" clip-rule="evenodd" d="M384.725,196.59c-0.306,0-0.609,0-0.915,0c-0.457-0.068-0.228-1.03-0.967-0.734
		c-0.151,0.003-0.298-0.006-0.448-0.023c-1.147,0.226-2.301,0.331-3.465,0.221c-0.854-0.081-1.461-0.559-1.06-1.392
		c0.894-1.853,1.404-3.756,1.376-5.813c-0.003-0.245,0.193-0.458,0.442-0.567c0.654,0.768,0.129,1.668,0.3,2.437
		c0.088-0.855-0.098-1.78,0.085-2.689c0.002-0.005-0.047-0.033-0.071-0.031c-0.1,0.008-0.187,0.058-0.259,0.138
		c-0.443-0.128-0.461-0.479-0.452-0.846c0.182-0.627,0.162-1.262,0.012-1.888c-0.025-0.101,0.382-0.658-0.253-0.333
		c-0.379-0.204-0.389-0.551-0.365-0.913c0.069-1.706-0.201-3.317-1.315-4.69c-0.793-0.588-1.215-1.521-1.985-2.129
		c-0.605-0.748-1.474-1.188-2.158-1.845c-0.424-0.511-0.938-0.808-1.627-0.698c-0.415-0.034-0.775-0.167-0.979-0.565
		c-0.173-0.695-0.698-0.146-1.029-0.284c-0.964-0.162-1.818-0.567-2.587-1.163c-0.139-0.861-0.807-0.262-1.194-0.43
		c-0.422-0.028-0.779-0.171-0.992-0.565c-0.176-0.513-0.639-0.529-1.065-0.608c-0.135-0.008-0.265-0.034-0.394-0.073
		c-0.062-0.03-0.12-0.062-0.182-0.092c-0.377-0.28-0.756-0.558-1.204-0.722c-0.712-0.429-1.385-0.901-1.82-1.639
		c-0.389-0.785-1.157-1.305-1.501-2.123c-0.06-0.118-0.106-0.242-0.15-0.365c-0.127-0.459-0.432-0.776-0.826-1.022
		c-0.45-0.308-0.848-0.673-1.215-1.076c-0.727-0.985-1.366-2.031-2.078-3.029c-0.212-0.348-0.44-0.684-0.679-1.016
		c-0.604-1.081-1.53-1.986-1.775-3.264c-0.002-0.81-0.364-1.448-0.947-1.98c-0.352-0.339-0.633-0.734-0.915-1.129
		c-0.803-1.239-1.626-2.46-2.694-3.492c-0.703-0.539-1.224-1.264-1.892-1.84c-0.85-0.796-2.06-1.023-2.903-1.825
		c-0.867-0.852-2.029-0.189-2.985-0.58c-0.11-0.045-0.173-0.097-0.209-0.109c0.017,0.048,0.031,0.095,0.05,0.144
		c0.018,0.13,0.003,0.256-0.038,0.379c-0.173,0.303-0.473,0.416-0.775,0.521c-0.369,0.947-0.783,1.847-1.947,2.018
		c-0.105,0.077-0.209,0.154-0.305,0.242c-0.379,0.548-0.773,1.082-1.398,1.377c-0.173,0.116-0.359,0.195-0.569,0.209
		c-0.564-0.018-1.116-0.009-1.436,0.58c-0.076,0.209-0.138,0.42-0.201,0.633c-0.123,2.675-0.074,5.342,0.151,8.005
		c0.028,0.649-0.653,1.305,0.015,1.955c0.53,0.609,0.238,1.432,0.557,2.094c0.24,0.955,0.647,1.875,0.587,2.889
		c-0.275,1.443,0.258,2.727,0.803,4.007c0.091,0.104,0.169,0.217,0.236,0.337c0.05,0.126,0.071,0.259,0.072,0.394
		c-0.116,0.595-0.058,1.144,0.423,1.583c0.094,0.099,0.17,0.208,0.239,0.325c0.262,0.637,0.524,1.273,0.565,1.973
		c-0.099,0.615-0.092,1.202,0.433,1.656c0.105,0.099,0.196,0.207,0.285,0.319c0.515,0.755,1.069,1.497,1.217,2.428
		c0.091,0.583-0.066,1.107-0.548,1.495c-0.724,0.161-0.754,0.819-0.956,1.352c-0.033,0.131-0.074,0.259-0.115,0.387
		c-0.189,0.72-0.135,1.491-0.461,2.182c-0.098,0.256-0.237,0.488-0.401,0.707c-0.114,0.162-0.23,0.324-0.324,0.5
		c-0.191,0.514-0.23,1.021,0.059,1.515c0.181,0.206,0.382,0.39,0.555,0.602c0.175,0.244,0.271,0.51,0.249,0.813
		c-0.111,0.892-0.104,1.78,0.067,2.666c0.009,0.25-0.05,0.483-0.178,0.699c-1.038,1.342-2.514,1.188-3.954,1.154
		c-1.439-0.493-2.519-1.621-3.895-2.233c-0.454-1.396,0.402-2.579,0.631-3.863c0.099-0.138,0.234-0.2,0.403-0.184
		c0.217,0.22,0.318,0.451,0.224,0.553c-0.172-0.79-0.326-1.737-0.249-2.691c0-0.146,0.014-0.291,0.034-0.435
		c0.053-0.277,0.136-0.542,0.371-0.724c0.651-0.344,0.04-0.793,0.092-1.188c-0.039-0.202-0.038-0.403-0.007-0.606
		c-0.034-0.447,0.378-1.043-0.427-1.224c-0.653-0.885-0.898-1.916-1.07-2.973c0.14-1.418-0.39-2.681-0.928-3.939
		c-0.088-0.109-0.159-0.227-0.22-0.351c-0.045-0.133-0.063-0.271-0.061-0.409c0.089-0.572-0.093-1.076-0.396-1.549
		c-0.111-0.179-0.186-0.37-0.19-0.584c0.146-0.995-0.351-1.847-0.617-2.75c-0.051-0.128-0.089-0.26-0.121-0.394
		c-0.192-0.538-0.039-1.193-0.558-1.62c-0.248-0.164-0.294-0.407-0.277-0.676c0.052-0.533,0.169-1.081-0.346-1.484
		c-0.263-0.146-0.341-0.399-0.394-0.667c-0.035-0.203-0.049-0.408-0.059-0.613c-0.057-0.834-0.319-1.59-0.847-2.248
		c-0.22-0.292-0.317-0.625-0.354-0.982c-0.063-0.826-0.273-1.602-0.796-2.27c-0.132-0.163-0.237-0.34-0.306-0.538
		c-0.062-0.193-0.092-0.393-0.109-0.594c-0.039-0.505-0.083-1.008-0.619-1.271c-1.338-0.225-2.429,0.524-3.612,0.896
		c-1.36,0.29-1.479,1.379-1.592,2.475c-0.146,3.209-0.261,6.415,0.067,9.616c0.101,0.142,0.179,0.295,0.243,0.456
		c0.251,0.742,0.148,1.513,0.185,2.273c-0.014,0.49,0.024,0.974,0.185,1.442c0.209,1.592,0.601,3.16,0.619,4.775
		c-0.089,0.54-0.356,1.083,0.018,1.62c0.258,0.429,0.37,0.905,0.464,1.389c0.021,0.139,0.025,0.28,0.019,0.42
		c0.187,1.489,0.505,2.979-0.012,4.464c-0.124,0.644,0.063,1.215,0.407,1.752c0.608,1.272,0.351,2.449-0.384,3.576
		c-1.041,1.684-2.161,3.247-4.508,2.901c-1.391-0.352-2.847,0.04-4.232-0.371c-0.731-0.27-1.036-0.884-1.261-1.563
		c-0.279-0.981-0.791-1.996,0.355-2.796c0.338-0.242,0.681-0.476,1.056-0.653c0.375-0.143,0.659-0.378,0.786-0.776
		c0.104-0.256,0.215-0.507,0.345-0.75c0.142-0.259,0.3-0.505,0.462-0.751c0.602-1.255,0.066-2.627,0.404-3.908
		c0.259-1.751,0.424-3.495-0.353-5.174c-0.611-1.219-0.734-2.583-1.151-3.86c-0.427-1.387-0.703-2.815-1.137-4.2
		c-0.055-0.216-0.067-0.435-0.043-0.655c0.1-0.643,0.256-1.294-0.273-1.846c-0.252-0.149-0.315-0.385-0.303-0.656
		c0.049-0.327,0.062-0.639-0.294-0.821c-0.342-0.191-0.56-0.504-0.793-0.802c-0.08-0.1-0.151-0.206-0.219-0.314
		c-0.221-0.406-0.563-0.702-0.907-0.996c-0.52-0.601-0.683-1.476-1.458-1.877c-0.289-0.53-0.678-0.991-1.032-1.477
		c-0.457-0.746-1.205-1.286-1.518-2.133c-0.116-0.461-0.348-0.832-0.81-1.019c-0.312-0.138-0.607-0.298-0.834-0.56
		c-0.304-0.447-0.644-0.865-1.042-1.233c-0.409-0.413-0.66-0.901-0.722-1.483c-0.164-0.717-0.303-1.448-1.063-1.816
		c-0.127-0.056-0.235-0.133-0.33-0.23c-0.48-0.664-1.757-0.699-1.53-1.924c0.071-0.54,0.388-1.118-0.249-1.544
		c-0.346-0.179-0.704-0.327-1.064-0.468c-0.78-0.103-1.136-0.679-1.455-1.297c-0.508-0.445-0.887-1.005-1.348-1.487
		c-0.228-0.066-0.46-0.094-0.692-0.102c-0.146,0.059-0.467-0.088-0.333,0.299c-0.004,0.13-0.045,0.238-0.133,0.333
		c-0.116,0.076-0.236,0.128-0.369,0.165c-0.507,0.084-1.004,0.098-1.468-0.171c-0.748-0.761-0.544-2.293-2.008-2.477
		c-0.728-0.427-1.772-0.372-2.112-1.387c0.077-0.659,0.166-1.321-0.403-1.842c-0.397-0.671-1.054-1.11-1.532-1.705
		c-0.318-0.53-0.919-0.671-1.383-1.002c-0.436-0.306-0.599-0.822-0.933-1.2c-0.412-0.286-0.522,0.145-0.741,0.318
		c-1.109,0.525-1.32,0.343-1.208-1.032c0.325-0.952,0.038-1.935,0.158-2.773c-0.024-0.328-0.326-0.025-0.15-0.129
		c0.263,0.876,0.095,1.769,0.099,2.653c-0.09,0.13-0.211,0.192-0.37,0.176c-0.625-0.554-0.417-1.304-0.435-1.985
		c-0.015-0.596-0.057-1.116-0.77-1.258c-0.843-0.386-0.533-1.306-0.894-1.916c-0.214-0.182-0.3-0.414-0.276-0.689
		c-0.084-0.258,0.354-0.532-0.032-0.77c-0.863,0.379-1.453,1.398-2.595,1.079c-0.549-1.467,0.406-2.505,1.032-3.637
		c0.114-0.756-0.188-1.316-0.804-1.731c-0.308-0.17-0.516-0.437-0.706-0.723c-0.152-0.243-0.25-0.505-0.272-0.792
		c-0.302-0.983,0.109-1.98,0.081-2.646c0.025,0.058,0.104,0.422-0.303,0.714c-1.016-0.651-0.309-1.808-0.775-2.619
		c-0.416-1-1.217-1.888-0.919-3.099c0.07-0.291,0.248-0.514,0.466-0.705c0.235-0.281,0.452-0.56-0.037-0.812
		c-0.364-0.096-0.697-0.231-0.854-0.609c-0.299-0.528-0.827-0.235-1.243-0.342c-0.521-0.208-0.657-0.692-0.835-1.149
		c-0.148-0.466-0.32-0.925-0.421-1.405c-0.02-0.139-0.02-0.279-0.009-0.418c-0.017-1.223-0.279-2.446-0.01-3.668
		c-0.017-0.131-0.021-0.263-0.018-0.395c0.1-0.591-0.458-1.071-0.29-1.676c0.084-0.261,0.286-0.428,0.479-0.603
		c0.302-0.33,0.293-0.688,0.097-1.06c-0.089-0.087-0.178-0.175-0.272-0.256c-0.365-0.264-0.765-0.498-0.897-0.975
		c-0.45-0.828-1.12-1.602-0.664-2.654c0.047-1.009-0.569-1.739-1.061-2.521c-0.163-0.588,0.447-0.917,0.48-1.439
		c0.012-0.131,0.034-0.26,0.06-0.388c0.109-0.456,0.073-0.932,0.193-1.386c0.047-0.133,0.113-0.253,0.198-0.364
		c1.216-0.585,0.514-1.715,0.727-2.583c0.28-1.096-0.153-2.055-0.575-3.016c-0.085-0.109-0.154-0.229-0.212-0.354
		c-0.037-0.132-0.049-0.267-0.044-0.403c0.134-0.686-0.045-1.298-0.447-1.856c-0.242-0.338-0.389-0.723-0.56-1.096
		c-0.252-0.579-0.503-1.157-0.535-1.801c0.092-1.203-0.514-2.216-0.901-3.289c-0.307-0.378,0-1.07-0.659-1.268
		c-0.445-0.287-0.508-0.743-0.556-1.21c0.044-0.473,0.071-0.936-0.528-1.098c-0.516-0.147-1.011-0.323-1.242-0.875
		c-0.029-0.129-0.03-0.26-0.009-0.391c0.086-0.373,0.234-0.734,0.228-1.126c0.001-0.128,0.018-0.255,0.04-0.382
		c0.101-0.434,0.123-0.88,0.204-1.316c0.095-0.391-0.003-0.722-0.309-0.989c-0.102-0.085-0.194-0.176-0.286-0.271
		c-0.605-0.741-0.891-1.679-1.499-2.417c-0.48-0.785-0.988-1.548-1.688-2.163c-1.014-0.873-0.999-1.931-0.528-3.052
		c0.445-1.064,1.422-1.216,2.397-1.31c1.954-0.188,1.959-0.178,1.103-1.937c-0.577-1.181-0.822-2.317,0.349-3.308
		c0.281-0.356,0.617-0.637,1.059-0.772c0.595-0.109,1.008-0.44,1.228-1.006c0.094-0.177,0.219-0.332,0.369-0.466
		c0.512-0.325,0.728-0.876,1.026-1.365c0.209-0.193,0.45-0.316,0.734-0.35c0.405,0.045,0.627,0.281,0.699,0.671
		c-0.098,0.797,0.079,1.446,0.936,1.728c0.906,0.375,1.43,1.199,2.133,1.812c0.374,0.398,0.798,0.762,0.939,1.325
		c0.819,1.843,2.514,2.894,3.857,4.26c1.239,1.243,2.218,2.77,3.884,3.54c0.137,0.016,0.268,0.053,0.395,0.102
		c0.484,0.258,0.778,0.733,1.209,1.051c1.108,0.22,2.179,0.595,3.31,0.712c0.976,0.264,1.521,1.012,2.029,1.803
		c0.265,0.567,0.504,1.155,1.21,1.319c0.7,0.4,0.888,1.167,1.285,1.786c0.392,0.491,0.65,1.05,0.878,1.627
		c0.467,1.928,2.208,2.682,3.524,3.826c0.312,0.35,0.756,0.561,1.026,0.957c0.279,0.583,0.733,0.889,1.389,0.879
		c1.097,0.318,1.82,1.168,2.664,1.851c0.085,0.108,0.147,0.229,0.192,0.36c0.266,0.83,1.142,1.412,0.996,2.414
		c-0.169,0.842-0.745,1.234-1.531,1.395c-1.207,0.316-0.457,0.98-0.269,1.539c0.544,0.593,1.034,1.235,1.673,1.739
		c0.277,0.213,0.514,0.457,0.598,0.812c0.013,0.513,0.307,0.863,0.685,1.162c0.329,0.261,0.609,0.557,0.712,0.981
		c0.199,0.455,0.121,1.13,0.903,1.112c0.927,0.09,1.813,0.337,2.688,0.637c0.131,0.07,0.246,0.16,0.354,0.26
		c0.526,0.503,0.895,1.098,0.988,1.83c0.097,0.753,0.555,1.024,1.259,1.003c0.751,0.028,1.501-0.018,2.248,0.045
		c0.79,0.067,1.342,0.385,1.338,1.279c-0.006,0.153-0.041,0.305-0.099,0.443c-0.043,0.097-0.114,0.16-0.208,0.161
		c-0.112,0-0.088,0.174-0.048,0.161c1.124-0.358,2.239-0.208,3.355,0.02c0.292,0.07,0.454,0.269,0.53,0.546
		c0.143,0.529,0.521,0.343,0.859,0.276c0.352-0.071,0.697-0.063,1.035,0.068c0.994,0.519,1.443,1.601,2.318,2.246
		c0.525,0.788,1.418,0.551,2.149,0.764c0.846,0.237,1.711,0.074,2.563,0.12c0.772,0.062,1.574-0.128,2.304,0.274
		c0.818,1.019,1.943,1.238,3.167,1.198c0.418-0.01,0.809,0.114,1.2,0.237c0.313,0.111,0.629,0.213,0.938,0.335
		c0.303,0.14,0.583,0.309,0.729,0.628c0.348,0.584,0.951,0.347,1.449,0.448c0.206,0.007,0.407,0.041,0.604,0.108
		c0.288,0.705,1.244,0.267,1.567,0.911c0.065,0.578,0.602,0.496,0.955,0.668c0.387,0.144,0.771,0.293,1.062,0.603
		c0.909,0.882,1.855,1.682,3.26,1.463c0.667-0.06,1.287,0.128,1.896,0.362c0.422,0.409,0.899,0.162,1.362,0.108
		c2.602,0.015,5.197-0.018,7.763-0.474c0.869,0.128,1.743,0.287,2.522-0.313c0.113-0.093,0.234-0.172,0.362-0.243
		c0.526-0.247,1.082-0.398,1.657-0.476c0.283-0.037,0.558-0.113,0.826-0.205c0.835-0.197,1.603-0.708,2.515-0.545
		c0.133,0.042,0.26,0.104,0.377,0.178c0.814,0.468,1.68,0.267,2.536,0.188c0.133-0.036,0.27-0.054,0.407-0.062
		c0.287-0.003,0.534,0.112,0.767,0.265c0.706,0.492,1.476,0.538,2.283,0.331c0.696,0.04,1.399,0.055,1.995,0.496
		c0.174,0.783,0.802,0.413,1.252,0.489c0.434,0.026,0.787,0.196,1.026,0.574c0.311,0.566,0.873,0.585,1.412,0.65
		c0.353,0.024,0.506,0.696,0.991,0.304c0.202,0.045,0.364,0.154,0.514,0.288c0.607,0.619,1.439,0.664,2.211,0.864
		c0.632,0.199,1.253,0.137,1.873-0.062c2.791-0.417,5.01,0.672,6.897,2.625c0.225,0.856,0.763,1.219,1.648,1.034
		c1.535,0.203,3.067,0.411,4.593,0.668c0.658,0.49,0.603,1.162,0.248,1.728c-0.528,0.846-0.003,1.153,0.586,1.493
		c0.338,0.298,0.567,0.745,1.095,0.781c0.138,0.013,0.269,0.045,0.397,0.089c0.649,0.344,1.085,0.852,1.213,1.592
		c0.094,0.583,0.17,1.174,0.818,1.444c0.517,0.336,1.029,0.676,1.523,1.043c1.271,0.579,2.022,1.824,3.214,2.504
		c0.887,0.424,1.668,0.974,2.165,1.852c0.315,0.519,0.816,0.829,1.307,1.149c0.109,0.075,0.209,0.161,0.304,0.253
		c0.225,0.238,0.48,0.423,0.812,0.488c0.193,0.063,0.353,0.179,0.498,0.32c0.333,0.373,0.74,0.576,1.247,0.552
		c0.129,0.01,0.256,0.043,0.374,0.097c0.301,0.204,0.557,0.491,0.954,0.526c0.395,0.091,0.738,0.261,0.94,0.635
		c0.418,0.646,1.028,0.879,1.77,0.832c0.431-0.02,0.818,0.139,1.205,0.298c0.566,0.243,1.177,0.402,1.628,0.862
		c0.416,0.597,0.985,0.483,1.564,0.333c0.741-0.027,1.447,0.156,2.151,0.354c0.138,0.06,0.267,0.136,0.389,0.223
		c1.21,0.543,2.477,0.208,3.719,0.243c1.844,0.051,3.703-0.313,5.528,0.214c0.018,0.005,0.037,0.003,0.058,0.005
		c-0.008-0.05-0.014-0.1-0.023-0.15c0.005-0.145,0.046-0.278,0.123-0.4c0.609-0.354,1.321-0.409,1.961-0.675
		c0.545-0.001,1.026-0.177,1.453-0.515c0.11-0.074,0.227-0.134,0.347-0.187c0.369-0.127,0.716-0.296,1.012-0.558
		c0.207-0.163,0.431-0.296,0.676-0.392c0.552-0.185,1.071-0.421,1.432-0.91c0.422-0.661,1.005-1.153,1.636-1.601
		c0.852-0.718,1.455-0.469,1.896,0.476c0.365,0.783,0.591,1.617,0.921,2.413c0.516,1.341-0.422,1.93-1.316,2.543
		c-0.635,0.409-1.479,0.485-1.916,1.21c-0.049,0.751-0.24,1.463-0.526,2.153c-0.093,0.186-0.223,0.341-0.383,0.47
		c-0.104,0.076-0.217,0.14-0.332,0.196c-0.354,0.147-0.594,0.374-0.536,0.803c-0.005,0.274-0.125,0.49-0.322,0.671
		c-0.429,0.406-1.003,0.597-1.45,0.978c-0.097,0.093-0.202,0.176-0.312,0.255c-0.728,0.34-0.778,1.054-0.94,1.703
		c-0.441,0.392,0.231,0.564,0.179,0.881c0.008,0.136-0.037,0.255-0.122,0.36c-0.189,0.166-0.403,0.277-0.653,0.323
		c-0.138,0.025-0.292-0.072-0.413,0.058c0.173-0.018,0.241,0.09,0.28,0.237c-0.025,0.145-0.102,0.254-0.228,0.33
		c-0.276,0.123-0.563,0.117-0.852,0.065c-1.636-0.258-3.226-0.219-4.674,0.725c-0.071,0.205-0.163,0.398-0.278,0.582
		c-0.18,0.247-0.423,0.394-0.718,0.457c-1.012,0.129-1.983,0.324-2.702,1.16c-0.655,0.764-1.379,0.3-2.08,0.062
		c-0.808-0.302-1.619-0.758-2.38,0.099c-0.107,0.086-0.228,0.142-0.362,0.17c-0.438-0.028-0.73,0.375-1.152,0.394
		c-0.289,0.009-0.527-0.105-0.732-0.299c-0.497-0.533-1.049-0.967-1.819-1.011c-0.198-0.055-0.369-0.159-0.541-0.266
		c-1.313-0.824-1.393-0.784-1.575,0.775c-0.298,0.905-1.013,0.674-1.665,0.614c-0.515-0.072-0.965-0.283-1.356-0.622
		c-0.386-0.396-0.869-0.575-1.41-0.624c-0.265-0.049-0.506-0.148-0.715-0.318c-0.333-0.319-0.731-0.473-1.195-0.463
		c-0.557-0.123-0.901-0.549-1.296-0.903c-0.611-0.614-1.282-1.127-2.177-1.248c-0.857,0.178-1.484-0.153-2.179-0.686
		c-1.427-1.095-2.869-2.207-4.595-2.832c-0.582-0.206-0.814,0.031-0.841,0.615c-0.045,1.006,0.354,1.815,1.051,2.504
		c0.202,0.21,0.328,0.46,0.396,0.741c0.127,0.838,0.483,1.533,1.244,1.973c0.168,0.112,0.307,0.25,0.387,0.438
		c0.041,0.456,0.249,0.831,0.563,1.156c0.084,0.104,0.155,0.214,0.222,0.33c0.238,0.487,0.488,0.961,1.049,1.153
		c0.254,0.125,0.48,0.287,0.66,0.507c0.479,0.682,0.893,1.415,1.507,1.998c0.241,0.252,0.48,0.508,0.654,0.814
		c0.163,0.711,0.931,1,1.168,1.659c0.135,0.873,0.709,1.208,1.526,1.244c0.91,0.297,1.882-0.099,2.79,0.232
		c0.126,0.053,0.244,0.123,0.355,0.202c0.441,0.347,1.04,0.365,1.487,0.703c0.305,0.226,0.536,0.52,0.774,0.808
		c0.647,0.708,0.653,1.585,0.657,2.463c0.017,0.767-0.081,1.537,0.108,2.295c0.046,0.22,0.051,0.44,0.021,0.661
		c-0.34,1.282-0.05,2.397,0.893,3.338c0.425,0.294,0.625,0.701,0.604,1.216c-0.124,0.517-0.071,0.993,0.33,1.386
		c0.219,0.246,0.409,0.511,0.563,0.801c0.151,0.298,0.269,0.607,0.273,0.948c-0.063,0.404,0.039,0.749,0.37,1.009
		c0.336,0.334,0.626,0.698,0.801,1.144c0.042,0.132,0.062,0.267,0.071,0.405c0.02,0.694,0.482,1.128,0.919,1.577
		c0.613,0.717,1.151,1.496,1.794,2.19c0.247,0.404,0.542,0.787,0.625,1.272c0.019,0.474,0.13,0.897,0.607,1.124
		c0.417,0.237,0.667,0.64,0.981,0.98c0.394,0.563,0.823,1.101,1.263,1.63c0.586,0.833,1.29,1.564,2.091,2.177
		c0.804,0.616,1.211,1.33,0.945,2.347c-0.285,1.011-0.239,2.019,0.038,3.023c0.007,0.024,0.052,0.056,0.076,0.054
		c0.046-0.005,0.091-0.031,0.139-0.047c0.61,0.41,0.811,1.065,1.032,1.709c0.137,1.018,0.044,1.969-0.784,2.706
		c-0.556,0.321-1.168,0.425-1.798,0.445c-1.312-0.055-2.522,0.238-3.585,1.05c-1.93,0.769-2.267,0.624-3.008-1.282
		c-0.092-0.468-0.098-0.94-0.056-1.413c0.061-0.908,0.995-1.451,1-2.384c0.222-0.755,0.414-1.5-0.557-1.908
		c-1.475-1.657-2.859-3.378-3.869-5.369c-0.041-0.443-0.12-0.864-0.641-1.005c-0.38-0.179-0.546-0.54-0.747-0.87
		c-0.273-0.444-0.557-0.883-0.882-1.292c-0.697-0.922-1.426-1.819-2.061-2.787c-0.618-1.275-1.53-2.352-2.366-3.477
		c-0.318-0.43-0.621-0.872-0.885-1.339c-0.05-0.127-0.08-0.258-0.094-0.394c0.004-0.463-0.279-0.743-0.629-0.977
		c-0.276-0.194-0.51-0.433-0.7-0.713c-0.392-0.689-1.005-1.215-1.411-1.895c-0.306-0.594-0.773-1.051-1.268-1.485
		c-0.826-0.865-1.864-1.433-2.859-2.062c-0.205-0.172-0.371-0.38-0.534-0.59c-0.286-0.461-0.72-0.394-1.156-0.315
		c-1.579-0.266-3.178-0.432-4.689-1.004c-0.737-0.241-1.604-0.146-2.17-0.826c-0.094-0.209,0.24-0.263,0.174-0.465
		c-0.909,0.464-1.675-0.365-2.544-0.278c-0.214-0.007-0.426-0.024-0.638-0.053c-0.365-0.049-0.697-0.19-1.014-0.367
		c-0.624-0.32-1.287-0.563-1.896-0.914c-0.722,0.06-1.805-1.085-2.022,0.619c-0.294,1.336,0.387,2.436,0.871,3.582
		c0.497,1.322,0.404,2.907,1.734,3.853c0.262,0.096,0.506,0.222,0.717,0.406c0.677,0.809,1.498,1.468,2.253,2.197
		c0.503,0.567,1.168,0.777,1.887,0.89c0.592,0.093,1.095,0.297,1.051,1.043c-0.172,1.258-0.147,2.518-0.022,3.777
		c0.032,0.322-0.019,0.638-0.062,0.955c-0.044,0.708,0.01,1.423-0.14,2.124c-0.39,1.149-0.052,2.214,0.387,3.266
		c0.383,0.763,0.368,1.621,0.577,2.425c0.031,0.702,0.345,1.354,0.384,2.057c0.003,0.056-0.084,0.177,0.064,0.196
		c0.019-0.162,0.104-0.263,0.27-0.294c0.526,0.241,0.474,0.698,0.438,1.15c-0.206,0.972-0.485,1.958,0.546,2.679
		c0.333,0.365,0.445,0.742,0.063,1.138c-0.019,0.252-0.472-0.357-0.372,0.19c0.064,0.348-0.03,0.702-0.038,1.054
		c-0.089,0.498-0.387,0.878-0.704,1.25C385.387,195.27,385.481,196.246,384.725,196.59z"/>
	<g>
		<path fill-rule="evenodd" clip-rule="evenodd" d="M169.118,187.157c-0.604,0-1.207,0-1.812,0
			c-0.351-0.213-0.738-0.054-1.105-0.104c-1.266-0.067-2.569,0.115-3.744-0.559c-0.4-0.553-0.155-1.183-0.21-1.776
			c-0.346-0.724-1.043-1.134-1.542-1.721c-0.312-0.342-0.418-0.688-0.002-1.028c0.69-0.563,1.042-1.379,1.56-2.071
			c0.586-0.774,1.362-1.143,2.332-1.063c0.797,0.067,1.578-0.128,2.37-0.121c0.349,0.08,0.682,0.216,1.023,0.32
			c1.375,0.385,1.933,0.111,2.466-1.216c0.123-0.309,0.204-0.63,0.31-0.945c0.309-0.861,0.483-1.774,0.976-2.565
			c0.206-0.362,0.396-0.732,0.576-1.108c0.294-0.558,0.566-1.128,0.846-1.694c0.042-0.083,0.091-0.161,0.142-0.236
			c0.53-0.723,0.743-1.592,1.117-2.388c0.574-1.306,0.917-2.678,1.161-4.078c0.133-0.522,0.207-1.054,0.294-1.585
			c0.288-2.154,0.455-4.312,0.423-6.489c-0.019-1.316-0.145-2.601-0.56-3.85c-0.375-0.883-0.705-1.786-1.118-2.653
			c-0.181-0.396-0.38-0.785-0.527-1.195c-0.243-0.671-0.6-1.287-0.927-1.917c-0.543-0.989-0.861-2.071-1.289-3.108
			c-0.16-0.508-0.328-1.014-0.51-1.515c-0.248-0.825-0.543-1.633-0.862-2.432c-0.083-0.265-0.193-0.518-0.323-0.763
			c-0.14-0.297-0.293-0.587-0.427-0.887c-0.091-0.235-0.191-0.466-0.295-0.696c-0.485-1.434-0.616-2.911-0.55-4.413
			c0.16-0.445,0.138-0.91,0.139-1.371c0.079-1.229-0.824-0.524-1.3-0.656c-0.239,0-0.47,0.049-0.698,0.117
			c-0.292,0.07-0.589,0.077-0.887,0.085c-0.25-0.001-0.492,0.047-0.73,0.12c-0.504,0.074-0.998,0.203-1.498,0.298
			c-0.467,0.092-0.929,0.203-1.387,0.333c-1.56,0.22-3.084,0.685-4.676,0.681c-1.841,0.066-3.556-0.553-5.306-0.98
			c-0.906-0.148-1.791-0.387-2.734-0.084c-0.809,0.259-1.244,0.681-1.173,1.564c0.034,0.427,0.009,0.859,0.005,1.288
			c-0.011,0.255,0.025,0.505,0.099,0.75c0.061,0.247,0.079,0.499,0.11,0.749c0.076,0.448,0.176,0.89,0.314,1.323
			c0.287,1.282,0.703,2.53,1.009,3.807c0.188,0.962,0.366,1.926,0.5,2.897c0.183,0.636,0.123,1.312,0.313,1.947
			c0.173,1.561,0.471,3.104,0.68,4.66c0.103,0.638,0.156,1.283,0.308,1.913c0.137,1.101,0.424,2.171,0.676,3.25
			c0.156,0.558,0.362,1.1,0.534,1.653c0.057,0.218,0.087,0.439,0.086,0.664c-0.063,2.441,0.22,4.854,0.598,7.257
			c0.013,0.214,0.042,0.426,0.101,0.634c0.061,0.248,0.086,0.502,0.126,0.754c0.128,0.429,0.147,0.881,0.285,1.308
			c0.215,0.969,0.467,1.928,0.849,2.847c0.309,0.728,0.726,1.409,0.949,2.173c0.101,0.385,0.197,0.773,0.326,1.151
			c0.271,0.771,0.376,1.572,0.435,2.381c-0.032,0.976-0.185,1.873-1.321,2.198c-0.173,0.049-0.126,0.287-0.135,0.451
			c0.007,0.192,0.07,0.373,0.112,0.559c0.238,1.252-0.604,2.148-1.048,3.176c-0.349,0.68-0.94,1.012-1.662,1.158
			c-1.315,0.294-2.619,0.652-3.98,0.684c-0.75,0.004-1.5-0.034-2.25-0.012c-0.961,0.028-1.886-0.18-2.797-0.457
			c-0.54-0.214-1.101-0.384-1.588-0.717c-0.128-0.102-0.228-0.227-0.294-0.376c-0.325-1.216,0.074-2.291,0.658-3.328
			c0.095-0.176,0.21-0.338,0.34-0.489c0.225-0.242,0.458-0.476,0.724-0.676c0.237-0.156,0.466-0.323,0.704-0.476
			c0.782-0.462,1.577-0.846,2.501-0.394c0.623,0.127,1.321,0.792,1.777-0.255c0.122-0.76-0.148-1.427-0.444-2.103
			c-0.304-0.696-0.622-1.392-0.765-2.148c-0.224-0.645-0.266-1.321-0.149-1.972c0.258-1.432,0.164-2.84-0.125-4.248
			c-0.136-0.814-0.432-1.583-0.677-2.365c-0.093-0.319-0.188-0.638-0.318-0.944c-0.152-0.377-0.353-0.735-0.478-1.124
			c-0.081-0.254-0.195-0.491-0.354-0.705c-0.458-0.686-0.987-1.319-1.479-1.981c-0.402-0.453-0.623-0.992-0.746-1.578
			c-0.102-1.396-0.18-2.793,0.076-4.184c0.113-0.612-0.025-1.2-0.243-1.761c-0.148-0.382-0.389-0.741-0.876-0.678
			c-0.516,0.067-0.586,0.469-0.566,0.902c0.007,0.167-0.002,0.333-0.034,0.499c-0.064,0.242-0.116,0.486-0.125,0.738
			c-0.07,0.501-0.204,0.991-0.275,1.492c-0.118,0.381-0.194,0.774-0.303,1.158c-0.093,0.491-0.277,0.955-0.424,1.429
			c-0.508,1.391-1.283,2.672-1.693,4.103c-0.187,0.501-0.358,1.007-0.5,1.523c-0.098,0.428-0.226,0.848-0.309,1.28
			c-0.05,0.192-0.105,0.383-0.109,0.584c-0.447,1.37,0.222,2.624,0.405,3.928c0.046,0.406,0.14,0.812-0.009,1.216
			c-0.075,0.249-0.193,0.474-0.379,0.657c-0.278,0.25-0.604,0.322-0.965,0.26c-0.343-0.096-0.672-0.123-0.925,0.202
			c-0.238,0.315-0.354,0.683-0.459,1.055c-0.053,0.175-0.083,0.354-0.106,0.535c-0.089,0.475-0.182,0.95-0.275,1.425
			c-0.203,0.662-0.521,1.284-0.709,1.952c-0.349,1.035-0.789,2.038-1.092,3.089c-0.146,0.382-0.27,0.772-0.435,1.148
			c-0.192,0.521-0.599,0.778-1.115,0.902c-2.984,0.544-5.968,0.683-8.953,0.01c-0.823-0.296-1.799,0.021-2.536-0.626
			c-0.573-0.543-1.292-0.972-1.457-1.839c-0.056-0.763,0.258-1.347,0.87-1.786c0.755-0.594,1.719-0.556,2.571-0.854
			c0.339-0.11,0.562-0.388,0.842-0.583c0.641-0.372,1.349-0.208,2.031-0.245c0.522-0.028,1.067,0.037,1.471-0.409
			c0.181-0.234,0.382-0.452,0.547-0.698c0.439-1.47,0.945-2.914,1.589-4.308c0.044-0.156,0.1-0.308,0.139-0.466
			c0.348-2.073,0.458-4.148,0.227-6.245c-0.16-1.458-0.228-2.929,0.499-4.295c0.082-0.215,0.204-0.41,0.304-0.616
			c0.596-0.933,0.526-1.98,0.536-3.019c0.005-0.635-0.048-1.274,0.067-1.906c0.074-0.267,0.141-0.536,0.129-0.817
			c0.035-0.961,0.208-1.907,0.275-2.865c0.156-0.44,0.131-0.898,0.125-1.355c-0.066-1.72,0.132-3.426,0.25-5.135
			c0.231-0.939,0.382-1.9,0.71-2.816c0.063-0.194,0.091-0.397,0.153-0.591c0.12-0.372,0.205-0.753,0.291-1.135
			c0.098-0.816,0.312-1.622,0.022-2.453c-0.125-0.356-0.24-0.684-0.582-0.88c-0.445-0.358-1.081-0.482-1.333-1.078
			c-0.381-1.089-0.754-2.184-1.72-2.93c-0.208-0.178-0.449-0.3-0.701-0.403c-0.743-0.272-1.483-0.552-2.226-0.826
			c-0.348-0.133-0.704-0.245-1.044-0.4c-0.297-0.135-0.607-0.232-0.918-0.33c-1.033-0.365-2.012-0.839-2.919-1.456
			c-0.263-0.192-0.556-0.333-0.837-0.494c-1.132-0.64-2.165-1.423-3.203-2.199c-1.029-0.922-2.215-1.643-3.25-2.557
			c-0.358-0.276-0.728-0.538-1.041-0.868c-0.622-0.569-1.11-1.285-1.871-1.702c-0.498-0.215-0.853-0.571-1.065-1.069
			c-0.484-0.812-1.235-1.373-1.894-2.02c-0.361-0.277-0.818-0.434-1.084-0.836c-0.596-0.886-1.624-1.406-2.063-2.426
			c-0.094-0.261-0.218-0.51-0.329-0.763c-0.611-1.777-0.611-1.777-2.561-1.662c-0.865-0.185-1.305-0.994-2.033-1.382
			c-0.358-0.42-0.786-0.782-1.095-1.247c-0.32-0.522-0.678-1.021-1.014-1.532c-0.306-0.662-0.666-1.304-0.644-2.07
			c0.009-0.33-0.146-0.573-0.466-0.691c-0.394-0.145-0.665-0.427-0.877-0.776c-0.448-0.97-0.465-2.032-0.664-3.054
			c-0.314-1.059-1.359-1.288-2.109-1.852c-0.643-0.314-0.954-0.873-1.129-1.532c-0.246-0.756-0.531-1.5-0.738-2.27
			c0.09-1.6,0.175-3.199,0.139-4.803c-0.008-0.366,0.034-0.736-0.093-1.092c-0.267-1.575-1.184-2.954-1.375-4.555
			c-0.06-0.492-0.179-0.977-0.186-1.476c0.007-0.098,0.002-0.215,0.063-0.285c0.917-1.06,0.765-2.144,0.087-3.243
			c-0.442-0.951-0.861-1.91-1.258-2.879c-0.084-0.267-0.199-0.521-0.332-0.767c-0.141-0.307-0.318-0.597-0.407-0.927
			c-0.066-0.315,0.034-0.617,0.07-0.924c-0.113-1.758-0.479-3.48-0.717-5.22c-0.128-1.99-0.309-3.977-0.432-5.967
			c-0.075-1.213,0.383-2.373,1.086-3.365c0.856-1.206,1.757-1.32,3.446-0.584c0.353,0.193,0.715,0.371,1.098,0.502
			c1.275,0.485,2.164,1.485,3.141,2.368c0.111,0.087,0.211,0.187,0.306,0.291c0.921,0.789,1.618,1.792,2.512,2.607
			c0.126,0.14,0.237,0.292,0.344,0.446c1.021,1.107,1.97,2.264,2.522,3.69c0.167,0.471,0.33,0.945,0.647,1.344
			c0.416,0.346,1.08,0.381,1.268,1.011c0.665,1.127,0.906,1.214,2.479,0.886c0.952-0.096,1.885-0.293,2.816-0.501
			c0.781-0.19,1.56-0.393,2.373-0.371c0.266,0.006,0.526,0.064,0.787,0.117c1.413,0.281,1.413,0.28,1.981-1.041
			c0.187-0.327,0.322-0.674,0.444-1.029c0.323-0.815,0.857-1.458,1.597-1.927c0.349-0.286,0.695-0.578,1.063-0.84
			c0.718-0.675,1.543-1.229,2.208-1.964c0.283-0.231,0.602-0.416,0.854-0.685c1.112-1.05,2.603-1.433,3.875-2.202
			c0.663-0.285,1.261-0.719,1.984-0.867c0.678-0.019,1.359-0.139,2.024,0.103c1.125,1.034,1.406,2.357,1.312,3.811
			c0.016,0.528,0.019,1.055,0.004,1.583c-0.019,1.36-0.208,2.709-0.262,4.067c-0.15,0.431-0.164,0.876-0.142,1.326
			c-0.03,0.437,0.011,0.879-0.083,1.312c-0.046,0.208-0.123,0.408-0.153,0.62c-0.207,1.007-0.466,2.003-0.655,3.014
			c-0.398,1.5-0.343,1.567,1.399,1.713c1.045,0.304,1.876,1.031,2.867,1.443c1.317,0.697,2.66,1.344,3.996,2.004
			c0.446,0.257,0.912,0.47,1.401,0.631c0.304,0.135,0.6,0.285,0.91,0.404c0.689,0.272,1.361,0.589,2.099,0.719
			c1.597,0.505,3.217,0.671,4.873,0.359c0.21-0.006,0.414-0.058,0.615-0.115c0.573-0.123,1.143-0.253,1.694-0.459
			c1.739-0.655,3.555-0.672,5.375-0.66c3.657,0.565,7.326,0.523,11,0.223c0.338,0.007,0.676,0,1.003-0.108
			c0.423-0.092,0.854-0.072,1.282-0.083c0.255,0.002,0.507-0.027,0.753-0.104c0.25-0.06,0.504-0.078,0.759-0.094
			c0.262,0.003,0.511-0.076,0.761-0.138c1.079-0.118,2.139-0.354,3.214-0.49c0.901-0.202,1.819-0.315,2.721-0.511
			c1.3-0.227,2.593-0.493,3.897-0.694c0.538-0.117,1.088-0.175,1.619-0.327c2.67-0.397,5.341-0.798,8.027-1.074
			c0.292,0.011,0.571-0.065,0.85-0.14c1.71-0.096,3.41-0.434,5.132-0.208c0.326,0.081,0.649,0.176,0.991,0.151
			c2.453,0.206,4.836,0.719,7.125,1.64c0.229,0.105,0.463,0.2,0.698,0.29c1.3,0.603,2.531,1.324,3.71,2.137
			c0.406,0.303,0.803,0.618,1.214,0.914c0.62,0.598,1.217,1.218,1.836,1.817c0.37,0.398,0.787,0.753,1.094,1.208
			c0.438,0.628,0.937,1.208,1.41,1.809c0.559,0.711,1.034,1.48,1.556,2.217c0.283,0.352,0.533,0.729,0.799,1.095
			c0.577,0.925,1.21,1.813,1.805,2.727c0.231,0.387,0.514,0.738,0.797,1.086c0.295,0.463,0.606,0.917,0.917,1.37
			c0.766,1.159,1.269,2.457,1.936,3.667c0.402,1.084,0.948,2.102,1.463,3.133c0.248,0.531,0.511,1.055,0.798,1.567
			c0.663,1.193,0.794,2.552,1.195,3.828c0.274,1.256,0.653,2.487,0.918,3.746c0.208,0.548,0.146,1.125,0.188,1.691
			c0.036,0.868-0.138,1.744,0.121,2.601c0.148,0.765,0.029,1.537,0.071,2.305c0.012,0.514-0.064,1.034,0.124,1.535
			c0.063,1.139,0.192,2.274,0.275,3.411c-0.013,0.32-0.012,0.639,0.092,0.949c0.061,0.252,0.078,0.511,0.092,0.77
			c0,0.256,0.054,0.503,0.126,0.748c0.357,2.407,0.665,4.827,2.006,6.949c0.162,0.366,0.343,0.722,0.479,1.099
			c0.263,0.62,0.463,1.264,0.715,1.888c0.19,0.44,0.338,0.896,0.494,1.348c0.162,0.498,0.309,1,0.519,1.481
			c0.431,1.114,0.864,2.228,1.421,3.287c0.202,0.472,0.455,0.915,0.751,1.333c0.294,0.635,0.679,1.22,1.03,1.824
			c0.405,0.906,0.998,1.711,1.414,2.612c0.339,0.685,0.675,1.371,0.889,2.109c0.096,0.314,0.199,0.625,0.305,0.935
			c0.282,1.36,0.909,2.484,2.163,3.185c0.083,0.048,0.16,0.104,0.234,0.164c0.856,0.747,1.604,1.571,1.919,2.701
			c0.307,0.835,0.493,1.704,0.724,2.561c0.129,0.657,0.317,1.295,0.643,1.886c0.299,0.601,0.758,1.081,1.188,1.584
			c1.701,1.861,2.33,4.23,3.106,6.53c0.154,0.418,0.17,0.867,0.301,1.291c0.071,0.282,0.114,0.572,0.208,0.849
			c0.247,1.174,0.942,2.146,1.434,3.212c0.479,1.042,0.711,2.16,1.002,3.26c0.164,0.987,0.102,1.934-0.503,2.782
			c-0.189,0.312-0.477,0.523-0.76,0.738c-0.895,0.707-1.877,1.276-2.868,1.833c-0.448,0.288-0.921,0.527-1.423,0.709
			c-0.515,0.207-1.022,0.429-1.552,0.596c-1.658,0.27-3.314,0.45-4.948-0.135c-0.696-0.278-1.349-0.654-2.042-0.941
			c-0.633-0.491-1.375-0.81-2.031-1.264c-0.669-0.561-1.396-1.044-2.069-1.6c-0.257-0.26-0.628-0.364-0.877-0.635
			c-0.829-0.876-1.813-1.564-2.771-2.285c-0.17-0.082-0.326-0.186-0.453-0.327c-1.019-1.076-2.04-2.151-2.979-3.296
			c-0.282-0.289-0.276,0.012-0.321,0.167c-0.173,0.597-0.047,1.228-0.194,1.829c-0.077,0.245-0.084,0.498-0.089,0.751
			c-0.154,1.452-0.315,2.902-0.466,4.354c-0.133,0.719-0.442,1.297-1.203,1.518c-1.646,0.632-3.327,1.039-5.11,0.798
			c-0.263-0.065-0.522-0.144-0.797-0.147c-1.468-0.189-2.864-0.574-4.061-1.5c-0.251-1.164-0.456-2.323,0.364-3.371
			c0.108-0.177,0.235-0.34,0.374-0.494c0.788-0.821,1.588-1.63,2.628-2.143c0.374-0.217,0.646-0.52,0.801-0.927
			c0.492-1.272,0.246-2.557,0.079-3.841c0.006-0.274-0.072-0.535-0.139-0.797c-0.117-1.125-0.071-2.255-0.074-3.383
			c-0.002-0.671-0.061-1.325-0.315-1.949c-0.064-0.242-0.177-0.462-0.307-0.674c-0.327-0.603-0.736-1.145-1.229-1.623
			c-0.392-0.555-0.833-1.074-1.201-1.646c-0.217-0.395-0.396-0.807-0.616-1.201c-0.104-0.203-0.201-0.408-0.305-0.61
			c-0.308-0.625-0.615-1.25-0.946-1.862c-0.701-1.364-1.237-2.806-1.976-4.15c-0.452-0.927-1.017-1.785-1.6-2.631
			c-0.455-0.758-1.027-1.441-1.419-2.238c-0.203-0.376-0.387-0.763-0.535-1.165c-0.269-0.613-0.459-1.257-0.717-1.875
			c-0.959-2.391-2.027-4.729-3.343-6.948c-0.421-0.763-0.972-1.448-1.393-2.212c-0.111-0.191-0.201-0.395-0.309-0.588
			c-0.164-0.304-0.437-0.537-0.572-0.861c-0.092-0.236-0.172-0.478-0.299-0.701c-0.044-0.074-0.081-0.15-0.117-0.228
			c-0.107-0.236-0.195-0.479-0.283-0.722c-0.092-0.255-0.229-0.488-0.356-0.726c-0.851-1.973-1.652-3.966-2.435-5.966
			c-0.253-0.75-0.455-1.524-0.941-2.172c-0.325-0.432-0.614-0.448-0.823,0.104c-0.479,0.792-0.938,1.598-1.456,2.365
			c-0.398,0.665-0.768,1.345-1.154,2.015c-0.231,0.435-0.451,0.877-0.664,1.321c-0.078,0.161-0.16,0.32-0.241,0.48
			c-0.214,0.4-0.419,0.804-0.583,1.229c-0.092,0.228-0.151,0.467-0.243,0.695c-0.674,1.296-0.295,2.72-0.495,4.073
			c-0.189,0.69-0.493,1.332-0.84,1.954c-0.131,0.208-0.299,0.388-0.446,0.585c-0.56,0.837-1.24,1.618-1.262,2.707
			c0.009,1.188-0.036,2.375,0.191,3.55c0.012,0.206,0.047,0.41,0.102,0.61c0.059,0.245,0.085,0.496,0.125,0.744
			c0.104,0.386,0.173,0.782,0.303,1.164c0.235,1.025,0.536,2.032,0.832,3.041c0.42,1.876,0.958,3.742,0.502,5.694
			c-0.264,0.903-0.634,1.769-0.941,2.658c-0.45,1.281-0.903,2.563-1.396,3.83c-0.339,0.757-0.621,1.538-0.935,2.305
			c-0.244,0.578-0.461,1.167-0.708,1.744c-0.302,0.546-0.463,1.156-0.756,1.706c-0.563,1.221-1.081,2.461-1.641,3.682
			c-0.136,0.247-0.271,0.495-0.381,0.755c-0.254,0.658-0.546,1.299-0.857,1.932c-0.406,0.697-0.693,1.448-0.998,2.191
			c-0.476,0.883-0.896,1.795-1.35,2.69c-0.046,0.09-0.101,0.173-0.16,0.253c-0.754,0.803-1.473,1.646-2.078,2.555
			c-0.976,1.467-2.382,1.932-4.016,2.012c-0.265,0.013-0.532,0.002-0.799,0.002C169.797,187.102,169.439,186.947,169.118,187.157z"
			/>
	</g>
</g>
<g>
	<image overflow="visible" width="503" height="284" xlink:href="CEC115B3.png"  transform="matrix(1 0 0 1 -3.5 220.5)">
	</image>
</g>
<path fill-rule="evenodd" clip-rule="evenodd" fill="#525252" d="M-617.5,1127.5c0.024-0.304-0.023-0.596-0.144-0.875
	c1.76,0.026,3.653-0.736,5.144,0.875C-614.167,1127.5-615.833,1127.5-617.5,1127.5z"/>
<path fill-rule="evenodd" clip-rule="evenodd" fill="#525252" d="M-598.309,1126.658c-0.037,0.286-0.102,0.567-0.191,0.842
	c-1.667,0-3.333,0-5,0C-601.983,1125.9-600.091,1126.616-598.309,1126.658z"/>
<g>
	<defs>
		<rect id="SVGID_1_" x="557" y="12" width="900" height="507"/>
	</defs>
	<clipPath id="SVGID_2_">
		<use xlink:href="#SVGID_1_"  overflow="visible"/>
	</clipPath>
</g>
<g>
	
		<image overflow="visible" width="4340" height="4340" xlink:href="CEC115B5.png"  transform="matrix(0.24 0 0 0.24 -258.8789 -192.8096)">
	</image>
</g>
</svg>
