<?xml version="1.0" standalone="no"?>
<!DOCTYPE svg PUBLIC "-//W3C//DTD SVG 20010904//EN"
 "http://www.w3.org/TR/2001/REC-SVG-20010904/DTD/svg10.dtd">
<svg version="1.0" xmlns="http://www.w3.org/2000/svg"
 width="1119.000000pt" height="1280.000000pt" viewBox="0 0 1119.000000 1280.000000"
 preserveAspectRatio="xMidYMid meet">

<g transform="translate(0.000000,1280.000000) scale(0.100000,-0.100000)"
fill="#000000" stroke="none">
<path d="M6872 12475 c-39 -17 -149 -120 -186 -174 -28 -40 -28 -31 9 -150 9
-29 18 -63 21 -75 12 -67 19 -86 46 -141 42 -84 130 -196 199 -254 54 -45 62
-49 90 -41 60 18 139 81 139 112 0 24 -6 23 -41 -7 -50 -41 -129 -54 -129 -20
0 7 20 31 45 54 34 32 52 41 79 41 38 0 61 25 50 54 -11 28 -53 19 -87 -19
-31 -36 -69 -46 -84 -22 -4 6 -12 26 -18 42 -7 21 -23 37 -55 52 l-45 22 43 2
c23 1 47 3 52 4 6 1 15 3 20 4 6 0 10 8 10 16 0 21 18 49 63 98 22 23 46 55
54 71 23 44 12 134 -26 210 -26 52 -39 67 -81 90 -27 15 -50 31 -50 37 0 14
-81 10 -118 -6z"/>
<path d="M7543 12015 c-39 -17 -41 -27 -10 -48 27 -19 14 -32 -43 -41 -57 -9
-108 -34 -126 -61 -9 -14 -15 -28 -12 -30 2 -3 28 4 56 15 29 11 52 16 52 12
0 -13 -49 -54 -128 -107 -82 -55 -132 -115 -132 -157 0 -15 4 -28 9 -28 5 0
28 25 51 56 49 63 58 69 118 79 30 5 42 12 42 23 0 19 145 165 173 175 15 6
18 16 15 64 -3 65 -12 72 -65 48z"/>
<path d="M7316 11583 c-40 -52 -46 -69 -17 -53 21 11 81 80 81 92 0 22 -31 3
-64 -39z"/>
<path d="M6481 11549 c-28 -46 -28 -68 0 -43 31 28 43 54 31 66 -7 7 -17 0
-31 -23z"/>
<path d="M7122 11523 c-12 -9 -46 -46 -75 -82 -28 -36 -57 -72 -64 -79 -34
-35 -4 -66 84 -86 48 -11 71 -12 80 -4 12 10 19 88 8 88 -3 0 -19 -10 -35 -21
-17 -13 -35 -19 -46 -15 -30 11 -11 72 41 127 25 26 45 57 45 69 0 24 -7 24
-38 3z"/>
<path d="M7358 11292 c-30 -3 -39 -8 -44 -27 -9 -37 4 -48 48 -42 36 5 88 39
88 58 0 9 -46 15 -92 11z"/>
<path d="M7465 11209 c22 -37 78 -99 91 -99 27 0 14 28 -28 62 -56 45 -74 55
-63 37z"/>
<path d="M7558 11043 c-9 -10 -19 -30 -23 -44 -5 -20 -2 -27 18 -36 34 -16 60
12 55 58 -4 39 -26 49 -50 22z"/>
<path d="M6914 10951 c-44 -27 -73 -67 -67 -92 12 -45 203 -233 240 -236 27
-2 37 16 54 99 9 42 8 54 -10 91 -23 47 -142 157 -169 157 -9 0 -31 -9 -48
-19z"/>
<path d="M7526 10863 c-27 -7 -95 -50 -129 -82 -28 -25 -67 -90 -67 -111 0
-15 63 -12 86 5 10 8 29 15 42 15 14 0 26 9 31 23 5 12 30 42 55 67 25 24 46
47 46 51 0 10 -30 39 -38 38 -4 -1 -16 -4 -26 -6z"/>
<path d="M6550 10665 c-64 -34 -61 -116 4 -115 35 1 98 29 103 47 5 14 -54 83
-71 83 -6 -1 -22 -7 -36 -15z"/>
<path d="M7170 10631 c-15 -28 -12 -97 4 -110 7 -6 31 -12 51 -13 29 -1 43 4
57 21 25 31 23 54 -8 90 -31 37 -87 44 -104 12z"/>
<path d="M7731 10495 c-82 -18 -173 -73 -290 -175 -51 -45 -111 -93 -132 -107
-37 -24 -114 -49 -104 -33 5 7 -46 30 -66 30 -17 0 -9 -22 21 -60 17 -21 30
-40 30 -43 0 -4 -24 5 -52 18 -29 14 -61 25 -72 25 -10 0 -48 -28 -85 -62 -36
-35 -102 -87 -146 -117 -163 -111 -261 -197 -252 -224 8 -25 36 -31 74 -18 48
17 93 49 90 63 -1 6 6 12 16 13 10 2 45 28 77 59 76 73 98 78 157 36 44 -32
45 -32 38 -9 -4 13 -18 43 -32 67 -13 23 -23 53 -21 65 4 27 41 47 89 47 47 0
63 -19 55 -65 -14 -71 34 -40 244 160 198 188 270 235 389 253 90 13 230 -2
290 -33 56 -28 143 -94 190 -144 234 -251 296 -324 288 -344 -2 -7 -52 -39
-111 -71 -145 -79 -176 -123 -118 -164 24 -18 30 -18 47 -6 11 8 20 20 20 27
1 7 7 11 14 9 7 -1 19 3 27 9 8 7 17 9 21 5 25 -25 -116 -176 -165 -176 -6 0
-13 12 -16 26 -11 43 -53 74 -100 74 -76 -1 -101 -44 -60 -105 30 -45 27 -57
-37 -131 -64 -75 -89 -135 -89 -222 0 -69 1 -72 19 -60 25 15 45 5 130 -67 35
-29 89 -67 120 -84 99 -53 123 -101 34 -69 -31 11 -52 14 -64 8 -22 -12 -52
-77 -102 -225 l-41 -122 46 -74 c64 -101 246 -328 338 -419 77 -78 192 -170
344 -275 86 -60 106 -82 64 -72 -13 3 -63 9 -113 12 -99 7 -128 -2 -109 -32
14 -23 191 -130 224 -137 34 -6 60 -17 60 -25 0 -3 -23 -24 -51 -46 -27 -22
-58 -48 -67 -57 -9 -9 -70 -70 -136 -135 -126 -125 -169 -190 -145 -219 24
-29 53 -12 83 50 32 63 93 119 178 162 56 29 160 33 228 9 23 -8 47 -12 53 -8
5 3 7 2 4 -4 -4 -6 5 -15 18 -21 47 -22 124 -86 156 -129 113 -158 267 -499
302 -668 l14 -67 -49 6 c-26 4 -55 9 -64 13 -12 4 -15 1 -12 -13 2 -11 32 -34
73 -57 109 -59 175 -136 175 -202 0 -14 4 -24 9 -21 14 9 21 -63 9 -90 -16
-33 -72 -64 -119 -64 -28 0 -39 -4 -39 -15 0 -10 -10 -15 -28 -15 -16 0 -32
-3 -35 -7 -17 -16 70 -123 100 -123 7 0 22 18 33 39 11 22 49 75 85 118 36 43
65 85 65 94 0 34 71 83 253 175 103 52 187 96 187 98 0 2 -7 7 -16 10 -10 4
-13 2 -8 -7 4 -6 -9 4 -29 22 -21 19 -37 36 -37 38 0 8 12 0 36 -24 14 -16 25
-23 23 -16 -7 20 -338 351 -359 358 -12 4 -57 -7 -106 -24 -95 -34 -124 -38
-124 -18 0 21 40 54 95 78 28 12 65 32 82 43 29 19 33 26 33 69 0 53 -15 91
-32 81 -7 -4 -8 -3 -4 4 4 7 -7 20 -28 33 -21 12 -36 29 -36 39 0 28 47 77 85
90 30 10 38 9 72 -14 43 -30 69 -32 110 -11 15 8 94 37 174 65 133 46 188 58
201 45 2 -3 0 -29 -5 -59 -9 -46 -7 -57 9 -79 25 -35 37 -34 84 9 46 41 50 67
17 89 -13 8 -30 26 -37 40 -12 22 -11 27 6 46 10 12 41 32 67 46 79 39 133 96
153 158 43 139 -44 271 -317 480 -140 108 -269 236 -269 268 0 14 -6 29 -12
34 -14 11 -68 27 -81 24 -4 0 -3 8 3 19 12 23 14 23 90 21 72 -3 166 27 229
73 71 52 181 207 181 255 0 5 -9 11 -20 14 -11 3 -20 13 -19 24 0 16 1 16 9
-2 7 -15 9 -10 9 23 1 26 -3 41 -9 37 -14 -9 -13 8 2 23 18 18 11 168 -8 198
-9 13 -21 24 -26 24 -6 0 -35 -15 -66 -34 -32 -19 -75 -37 -97 -40 -22 -3 -34
-2 -27 2 16 11 -50 73 -92 87 -35 12 -43 34 -45 120 -4 210 -67 370 -215 551
-171 209 -394 336 -657 375 -54 8 -92 19 -116 36 l-37 25 -21 -25 c-11 -14
-32 -44 -48 -67 -37 -55 -62 -63 -197 -58 -149 6 -174 17 -270 121 -163 177
-288 296 -357 341 -40 25 -75 51 -78 56 -10 16 -126 47 -195 54 -41 3 -89 0
-129 -9z m1298 -468 c-2 -1 -15 -11 -29 -22 l-25 -20 19 23 c11 12 24 22 29
22 6 0 8 -1 6 -3z m54 -4 c-7 -2 -19 -2 -25 0 -7 3 -2 5 12 5 14 0 19 -2 13
-5z m172 -128 c110 -37 256 -106 252 -119 -5 -15 -33 -10 -156 30 -57 19 -115
34 -127 34 -38 0 -150 39 -180 62 -26 21 -27 21 -20 3 5 -15 4 -17 -5 -8 -23
23 1 33 79 29 48 -2 107 -14 157 -31z m-1105 -295 c8 -5 11 -10 5 -10 -5 0
-17 5 -25 10 -8 5 -10 10 -5 10 6 0 17 -5 25 -10z m776 -170 c17 0 30 -10 44
-32 35 -58 22 -84 -33 -65 -30 10 -57 -4 -57 -29 0 -24 -46 -39 -75 -26 -20 9
-25 19 -25 46 0 19 5 38 11 41 6 4 8 13 5 21 -3 8 0 11 8 8 7 -3 19 2 26 11 7
8 23 15 36 15 18 0 24 6 25 23 1 16 2 18 6 5 3 -11 14 -18 29 -18z m-718 -161
c-23 -30 -58 -39 -58 -15 0 20 48 56 65 50 11 -5 10 -12 -7 -35z m1739 -131
c-3 -7 -5 -2 -5 12 0 14 2 19 5 13 2 -7 2 -19 0 -25z m4 -118 c-9 -23 -10 -21
-10 17 -1 56 13 91 17 43 2 -20 -1 -47 -7 -60z m-1002 -16 c-17 -20 -56 -40
-99 -49 -35 -7 -35 -7 -17 13 24 26 75 51 106 52 20 0 22 -2 10 -16z m1168
-186 c-3 -8 -6 -5 -6 6 -1 11 2 17 5 13 3 -3 4 -12 1 -19z m-30 -26 c14 -9 54
-98 47 -105 -3 -2 7 -12 22 -22 21 -13 38 -16 75 -11 49 7 49 6 49 -22 0 -40
-18 -60 -68 -74 l-43 -13 32 -43 c17 -24 28 -46 25 -50 -4 -3 -11 0 -15 7 -7
10 -10 10 -13 1 -6 -20 -46 -2 -92 40 -23 21 -45 39 -51 40 -28 7 -36 13 -25
20 8 5 8 14 -1 34 l-13 27 -19 -23 -19 -23 14 25 c8 14 17 39 21 55 8 43 47
145 55 145 4 0 12 -4 19 -8z m123 -31 c0 -3 -12 -14 -25 -24 -22 -15 -25 -16
-25 -2 0 8 -6 15 -14 15 -8 0 -17 3 -19 8 -3 4 15 8 39 8 24 1 44 -1 44 -5z
m-866 -211 c52 -56 56 -77 20 -103 -30 -23 -33 -21 -36 24 -4 40 -13 49 -55
49 -21 0 -44 -11 -73 -35 -42 -35 -70 -45 -70 -23 0 20 125 138 147 138 11 0
41 -22 67 -50z m-930 18 c16 -23 22 -78 9 -78 -5 0 -16 14 -25 31 -32 55 -17
95 16 47z m686 12 c0 -19 -40 -50 -65 -50 -29 0 -31 7 -9 38 15 22 74 32 74
12z m870 -54 c0 -24 -44 -77 -81 -96 -15 -9 -19 -7 -19 6 0 35 64 114 92 114
5 0 8 -11 8 -24z m265 -5 c0 -16 -3 -27 -7 -24 -13 7 -7 53 6 53 1 0 1 -13 1
-29z m-139 -103 c65 -29 67 -31 42 -39 -34 -9 -94 4 -127 28 -67 51 -15 57 85
11z m-1514 -48 c53 -25 95 -25 133 0 17 11 39 20 49 20 15 0 11 -7 -19 -33
-37 -32 -39 -37 -43 -103 l-3 -69 33 35 c18 19 47 52 63 72 25 31 33 35 45 25
21 -16 130 -145 131 -155 4 -38 12 -74 24 -111 24 -71 20 -88 -23 -110 -63
-32 -151 -54 -202 -49 -58 6 -124 37 -128 61 -2 11 26 49 77 103 45 47 81 92
81 100 0 24 -29 16 -83 -25 -75 -55 -148 -76 -174 -50 -9 9 -7 22 8 51 11 22
19 49 17 61 -2 16 3 23 20 25 32 5 27 23 -23 85 -43 54 -57 87 -35 87 6 0 30
-9 52 -20z m1065 -15 c8 -22 -15 -52 -44 -60 -34 -8 -71 -35 -150 -106 -34
-31 -81 -65 -105 -76 -59 -27 -139 -46 -150 -35 -12 12 24 55 48 57 24 1 94
43 94 55 0 21 130 135 182 160 59 28 115 30 125 5z m-305 -22 c-15 -25 -100
-108 -107 -102 -3 3 20 34 51 68 54 59 77 74 56 34z m573 -39 c9 -15 12 -23 6
-20 -11 7 -35 46 -28 46 3 0 12 -12 22 -26z m123 -150 c-2 -1 -14 9 -28 24
-14 14 -19 22 -12 18 7 -4 12 -2 12 6 0 7 7 0 15 -16 9 -16 14 -30 13 -32z
m42 -139 c112 -90 334 -295 354 -327 18 -28 18 -32 3 -43 -16 -11 -104 -31
-247 -55 -179 -30 -205 -44 -347 -191 -53 -54 -100 -99 -104 -99 -12 0 -3 41
20 94 12 27 42 110 67 184 24 75 48 140 53 146 5 6 12 27 16 46 3 19 15 61 25
92 13 38 19 82 18 136 0 44 3 85 6 91 10 15 57 -10 136 -74z m-489 29 c-25 -8
-47 -12 -49 -9 -5 5 56 23 78 23 8 0 -5 -6 -29 -14z m45 -39 c-4 -10 1 -15 15
-15 28 0 23 -10 -35 -70 l-49 -51 39 5 c79 11 163 15 168 8 15 -25 -33 -49
-125 -62 -41 -6 -100 -20 -131 -32 -51 -18 -61 -26 -88 -73 -35 -62 -54 -79
-75 -71 -25 9 -17 32 20 60 19 15 35 35 35 46 0 10 11 32 25 48 14 17 25 35
25 40 0 6 38 42 85 81 48 38 86 72 85 75 -1 18 1 26 6 26 3 0 4 -7 0 -15z
m-347 -223 l46 -44 -33 -29 c-41 -37 -80 -38 -122 -2 -50 42 -69 104 -41 132
19 19 21 19 62 3 23 -9 63 -36 88 -60z m147 43 c-11 -8 -25 -15 -30 -15 -6 1
0 7 14 15 32 19 40 18 16 0z m337 -97 c36 -38 39 -44 33 -82 -9 -54 -75 -193
-115 -238 -47 -53 -117 -79 -256 -93 -103 -11 -121 -16 -133 -34 -10 -15 -25
-21 -49 -21 -73 0 -249 114 -241 157 5 29 48 43 130 43 42 0 88 4 103 10 23 9
25 14 19 45 -8 43 5 50 66 36 52 -12 78 -3 133 44 22 19 46 35 53 35 32 0 65
26 83 66 25 52 54 74 100 74 27 0 42 -9 74 -42z m766 -144 c62 -79 -29 -217
-195 -296 -34 -16 -70 -30 -80 -33 -11 -2 -47 -10 -81 -18 -36 -9 -65 -11 -68
-6 -11 16 89 111 140 134 49 22 93 60 94 80 1 6 5 10 11 10 5 0 15 6 22 13 6
6 18 12 25 12 15 0 28 24 38 70 4 19 12 41 17 48 17 20 55 14 77 -14z m-1468
-261 c13 -16 12 -17 -3 -4 -10 7 -18 15 -18 17 0 8 8 3 21 -13z m633 -979 c3
-8 2 -12 -4 -9 -6 3 -10 10 -10 16 0 14 7 11 14 -7z"/>
<path d="M7633 10295 c-79 -36 -70 -49 30 -42 84 7 142 22 171 46 11 9 16 10
16 2 0 -7 -15 -18 -32 -26 -18 -8 -28 -14 -21 -15 25 0 64 24 61 39 -3 13 -20
16 -88 18 -72 2 -93 -1 -137 -22z"/>
<path d="M7750 10250 c-8 -5 -10 -10 -5 -10 6 0 17 5 25 10 8 5 11 10 5 10 -5
0 -17 -5 -25 -10z"/>
<path d="M8560 10202 c-14 -9 -38 -27 -53 -39 l-29 -23 40 0 c29 0 49 7 71 26
53 44 29 75 -29 36z"/>
<path d="M5228 9859 c-10 -5 -18 -16 -18 -23 0 -17 37 -48 82 -68 20 -10 47
-30 59 -47 l21 -29 23 26 c19 23 31 27 77 27 56 1 134 32 166 68 17 19 16 19
-58 11 -41 -5 -116 -9 -166 -9 -84 0 -93 2 -123 28 -36 30 -39 31 -63 16z"/>
<path d="M5056 9781 c-19 -7 -18 -8 5 -14 43 -12 101 -8 97 6 -5 14 -74 20
-102 8z"/>
<path d="M9975 9652 c69 -127 96 -165 109 -152 16 16 -39 113 -101 179 l-53
56 45 -83z"/>
<path d="M5134 9585 c3 -26 30 -62 165 -217 128 -148 137 -124 19 50 -60 88
-157 192 -179 192 -4 0 -6 -11 -5 -25z"/>
<path d="M10400 9328 c-44 -16 -150 -131 -150 -163 0 -16 42 -2 55 19 9 13 27
26 41 29 13 2 22 2 19 -1 -9 -9 68 -40 84 -34 38 13 52 35 47 75 -7 63 -46 93
-96 75z"/>
<path d="M7783 9163 c-24 -8 -43 -19 -43 -23 0 -5 16 -17 36 -26 48 -23 88
-10 92 29 2 15 -1 27 -7 27 -5 0 -15 2 -23 4 -7 3 -32 -2 -55 -11z"/>
<path d="M5260 8890 c-37 -34 -40 -85 -5 -85 23 0 65 58 65 91 0 32 -21 30
-60 -6z"/>
<path d="M5600 8854 c-61 -61 -134 -104 -178 -104 -45 0 -58 -23 -43 -73 6
-23 23 -87 36 -142 33 -137 49 -179 68 -183 9 -2 42 20 73 50 65 61 101 122
84 142 -10 14 2 294 16 344 4 12 5 22 2 22 -2 0 -28 -25 -58 -56z m-203 -186
c-3 -7 -5 -2 -5 12 0 14 2 19 5 13 2 -7 2 -19 0 -25z m213 -192 c0 -2 -8 -10
-17 -17 -16 -13 -17 -12 -4 4 13 16 21 21 21 13z"/>
<path d="M5195 8735 c-123 -28 -153 -64 -195 -225 -17 -69 -32 -131 -33 -137
0 -7 -3 -13 -6 -13 -4 0 -5 -19 -4 -42 2 -34 1 -39 -7 -23 -8 16 -9 12 -4 -15
3 -19 10 -39 14 -44 13 -13 85 34 175 115 82 73 113 94 122 86 8 -9 -51 -88
-97 -132 -64 -60 -100 -122 -100 -170 0 -32 5 -43 23 -52 110 -58 152 -67 185
-41 13 11 14 11 8 0 -7 -11 -4 -12 13 -3 11 7 21 14 21 17 0 3 -5 2 -12 -2 -6
-4 7 11 29 33 70 70 74 107 38 343 -20 130 -50 256 -69 285 -20 30 -41 34
-101 20z"/>
<path d="M6076 8677 c-30 -39 -58 -102 -49 -111 4 -3 30 -6 58 -6 57 0 85 19
85 59 0 41 -36 91 -65 91 -2 0 -15 -15 -29 -33z"/>
<path d="M4833 8626 c-17 -31 -42 -83 -54 -115 l-21 -60 23 -37 c20 -34 23
-35 35 -19 31 42 55 142 52 215 l-3 72 -32 -56z"/>
<path d="M5884 8423 c-35 -3 -58 -17 -135 -82 -52 -42 -101 -86 -109 -96 -14
-17 -13 -18 25 -11 22 4 92 25 155 47 122 42 196 50 207 24 9 -26 59 -45 115
-45 74 0 87 11 41 37 -21 11 -55 26 -75 33 -41 12 -78 52 -78 81 0 16 -7 19
-52 17 -29 -1 -72 -3 -94 -5z"/>
<path d="M5463 8131 c-47 -38 -92 -110 -108 -174 -10 -38 25 -89 83 -123 26
-15 58 -35 71 -46 29 -22 74 -23 95 -2 24 23 20 79 -6 104 -39 37 -56 42 -67
23 -8 -14 -12 -15 -22 -6 -10 10 -10 18 -1 37 12 28 87 86 109 86 8 0 26 9 40
20 14 11 32 20 39 20 8 0 14 5 14 10 0 6 -5 10 -11 10 -6 0 -42 9 -80 21 -47
14 -70 27 -74 40 -9 28 -27 24 -82 -20z m64 13 c-3 -3 -12 -4 -19 -1 -8 3 -5
6 6 6 11 1 17 -2 13 -5z m-100 -86 c-3 -8 -6 -5 -6 6 -1 11 2 17 5 13 3 -3 4
-12 1 -19z m-54 -103 c-3 -9 -8 -14 -10 -11 -3 3 -2 9 2 15 9 16 15 13 8 -4z"/>
<path d="M5810 8137 c-14 -7 -26 -23 -28 -35 -3 -18 1 -22 25 -22 16 0 46 12
68 27 35 23 37 27 19 34 -29 11 -56 10 -84 -4z"/>
<path d="M4210 8095 c-52 -53 -36 -59 34 -12 54 35 62 50 31 55 -13 2 -36 -13
-65 -43z"/>
<path d="M7450 8092 c0 -10 63 -72 73 -72 16 0 5 32 -18 55 -23 24 -55 34 -55
17z m50 -27 c13 -14 21 -27 18 -30 -2 -3 -17 9 -33 25 -16 17 -24 30 -19 30 6
0 21 -11 34 -25z"/>
<path d="M5801 7991 c-9 -6 -11 -18 -6 -40 7 -32 42 -63 114 -103 39 -22 41
-43 4 -34 -16 4 -55 9 -89 12 -72 8 -76 3 -63 -76 7 -44 6 -58 -7 -70 -20 -20
-95 -18 -128 4 -23 15 -26 15 -26 1 0 -22 72 -52 147 -60 87 -10 96 -22 75
-107 -9 -39 -21 -68 -28 -68 -7 0 -32 23 -56 50 -51 59 -68 67 -102 45 -21
-14 -45 -16 -148 -11 -116 4 -185 11 -235 22 -37 7 -30 50 12 75 38 23 46 39
41 83 -4 30 -29 56 -53 56 -15 0 -155 -117 -308 -256 -291 -266 -307 -289
-253 -366 22 -31 23 -48 4 -48 -25 0 -46 -30 -46 -66 0 -48 -12 -68 -85 -144
-34 -36 -72 -84 -84 -107 -39 -78 -98 -71 -185 23 -34 37 -67 64 -79 64 -13 0
-17 -5 -13 -15 7 -19 -18 -43 -52 -51 -15 -4 -33 -11 -40 -17 -25 -19 -53 -88
-63 -151 -16 -104 -15 -103 -80 -137 -64 -35 -139 -110 -139 -140 0 -11 -4
-19 -9 -19 -13 0 -25 -83 -17 -112 4 -14 44 -50 98 -88 182 -130 488 -388 598
-505 31 -33 85 -90 119 -127 35 -37 68 -65 74 -62 7 3 25 24 41 47 28 40 28
41 4 19 l-25 -23 -6 23 c-8 29 -3 33 38 30 26 -2 38 3 52 23 47 68 50 70 65
57 8 -6 23 -48 33 -92 10 -44 20 -78 23 -76 4 4 -10 75 -25 129 -5 18 -3 18
28 2 31 -17 33 -16 47 1 14 18 14 18 8 1 -3 -10 -6 -21 -6 -23 0 -2 -8 -4 -17
-4 -15 0 -15 -2 -4 -9 12 -8 10 -19 -9 -70 -12 -34 -21 -64 -18 -66 2 -3 26
56 52 131 26 75 45 138 43 141 -3 2 -8 -8 -11 -22 -4 -14 -11 -23 -15 -20 -5
3 -7 -4 -4 -15 3 -11 0 -20 -6 -20 -6 0 -11 7 -11 15 0 9 -11 37 -25 62 -13
26 -23 49 -20 51 2 2 28 -7 56 -22 29 -14 61 -26 70 -26 22 0 28 26 16 63 -5
15 -6 31 -3 34 7 7 106 -92 106 -106 0 -4 -15 -28 -33 -52 -19 -24 -41 -57
-49 -74 l-16 -30 -7 70 c-3 39 -8 75 -10 80 -6 18 -4 -58 4 -144 9 -89 -3
-201 -33 -318 -23 -88 -24 -87 33 -80 48 6 143 47 156 67 12 20 46 9 106 -35
56 -41 66 -45 121 -45 l59 0 -43 43 c-24 24 -44 50 -46 58 -2 8 -9 21 -16 29
-28 32 -88 169 -82 186 6 15 8 15 34 -2 33 -22 104 -86 151 -136 19 -21 38
-38 42 -38 8 0 17 101 23 240 2 41 4 82 5 91 1 18 41 39 73 39 24 0 118 42
118 52 0 19 54 32 145 35 55 2 106 5 114 8 16 6 11 75 -10 145 -15 48 -30 51
-146 19 -122 -34 -213 -16 -213 42 0 61 74 159 121 159 13 0 19 7 19 23 0 14
13 35 29 50 16 14 32 39 36 55 7 32 24 42 109 62 52 12 93 7 140 -17 l29 -15
-7 45 c-5 34 -3 48 9 61 22 22 75 20 105 -4 32 -25 50 -25 50 0 0 44 -61 83
-165 105 -44 10 -104 24 -134 31 -30 8 -56 12 -58 10 -2 -2 1 -16 7 -31 8 -22
6 -33 -11 -61 -22 -37 -98 -94 -123 -94 -8 0 -30 -13 -49 -30 -58 -51 -79 -54
-142 -20 -31 17 -65 30 -77 30 -11 0 -55 -22 -98 -49 -125 -81 -198 -89 -265
-29 -33 29 -35 33 -35 98 0 52 5 77 25 114 18 34 25 63 25 102 0 42 5 59 21
75 20 20 29 21 113 16 50 -3 104 -10 121 -17 16 -6 58 -17 94 -25 l63 -13 -98
99 c-55 55 -101 101 -102 104 -13 14 -18 81 -10 115 14 56 36 65 112 49 33 -7
67 -12 73 -11 7 2 22 -2 32 -8 16 -8 26 -4 56 24 19 19 49 39 65 46 17 7 30
17 30 22 0 18 -33 58 -47 58 -8 0 -49 32 -89 72 -41 39 -84 73 -96 75 -12 2
-24 6 -27 10 -3 3 4 3 17 0 22 -5 31 7 12 18 -32 20 8 85 52 85 9 0 29 16 44
35 14 19 31 35 38 35 6 0 4 -5 -4 -10 -12 -8 -11 -10 6 -10 23 0 37 -21 29
-42 -3 -7 -1 -26 3 -43 l8 -30 95 -1 c64 -1 114 -8 157 -22 42 -13 62 -16 62
-8 0 6 -24 46 -54 88 -30 42 -62 91 -71 107 -18 36 -23 35 95 20 106 -13 175
-48 255 -129 56 -56 59 -62 60 -111 1 -43 6 -56 28 -75 15 -13 27 -27 27 -32
0 -15 -69 -72 -86 -72 -12 0 -13 -4 -4 -20 12 -22 10 -81 -3 -91 -12 -9 51
-115 89 -148 19 -17 46 -31 59 -31 22 0 26 5 25 35 -1 17 33 65 46 65 42 0
140 -91 211 -196 62 -91 73 -118 89 -215 12 -79 54 -217 110 -362 11 -27 30
-63 45 -79 22 -27 32 -31 73 -31 76 2 88 -17 85 -132 -2 -72 1 -98 12 -112 9
-10 34 -50 57 -88 35 -60 41 -78 38 -114 l-4 -43 46 6 c38 5 50 2 79 -19 27
-21 33 -33 33 -64 0 -43 -65 -185 -99 -215 -11 -11 -21 -27 -21 -36 0 -21 -24
-43 -35 -32 -5 4 -5 1 -1 -5 9 -17 -81 -136 -96 -127 -7 4 -8 2 -4 -5 10 -15
-13 -43 -27 -34 -5 3 -7 2 -4 -4 10 -15 -46 -76 -74 -79 -48 -5 -81 -25 -154
-94 -40 -38 -95 -83 -121 -100 -26 -16 -43 -30 -37 -30 6 0 39 21 74 47 35 25
58 39 50 29 -30 -37 -164 -116 -146 -86 3 6 0 10 -7 10 -28 0 -49 -26 -53 -65
-2 -22 -9 -96 -15 -165 -14 -149 -34 -255 -63 -330 -20 -51 -54 -119 -67 -130
-3 -3 -6 -11 -8 -18 -4 -19 -83 -134 -201 -292 -56 -74 -117 -166 -137 -205
-24 -47 -53 -85 -87 -114 -49 -42 -51 -43 -59 -21 -15 41 7 81 47 84 9 1 19
32 32 99 5 27 40 46 61 33 5 -3 18 2 28 10 10 9 13 12 6 9 -22 -11 -82 -11
-86 0 -2 5 -19 -5 -38 -22 -19 -18 -40 -33 -48 -33 -13 0 -13 -1 -1 -9 10 -7
19 -4 27 7 10 14 11 13 7 -11 -9 -48 -36 -27 -80 63 -17 36 -54 96 -82 134
-27 38 -47 74 -44 79 3 6 1 7 -4 4 -12 -8 -49 30 -40 40 9 8 -33 54 -43 48 -3
-2 -33 24 -66 58 -32 34 -47 51 -32 38 16 -14 29 -23 31 -20 2 2 -17 22 -42
44 -25 22 -37 30 -27 17 30 -35 3 -26 -30 10 -16 18 -20 26 -9 18 18 -14 19
-14 7 2 -8 9 -19 15 -27 12 -7 -3 -22 6 -33 20 -11 14 -22 26 -26 26 -3 0 -40
21 -83 47 -72 44 -263 130 -308 139 -75 14 -144 38 -133 45 8 6 0 9 -22 9 -19
0 -69 5 -110 11 -126 19 -258 -24 -363 -117 -39 -35 -45 -38 -71 -28 -18 7
-22 39 -6 49 6 4 8 11 5 16 -3 5 0 6 8 3 8 -3 18 0 22 5 3 6 10 9 15 6 12 -8
40 48 40 80 0 33 -18 68 -31 60 -5 -4 -8 -3 -7 2 2 5 -13 23 -32 40 l-35 31
21 24 c42 45 59 122 57 253 -3 223 -53 388 -157 520 -17 21 -31 44 -31 50 -1
5 -6 9 -13 8 -6 -2 -16 6 -22 17 -6 11 -7 20 -3 20 4 0 -8 16 -27 35 -18 19
-36 32 -40 30 -9 -5 -35 12 -35 25 0 5 -3 9 -6 8 -3 -2 -24 13 -46 33 -75 68
-263 188 -337 215 -188 69 -305 103 -352 104 -36 1 -144 -17 -204 -34 -34 -9
-45 -17 -46 -33 -1 -23 -8 -21 215 -63 244 -47 459 -146 666 -305 116 -90 202
-186 241 -269 44 -94 94 -325 101 -471 l5 -110 -40 -77 c-64 -124 -65 -131
-33 -175 54 -74 47 -126 -23 -174 -20 -13 -39 -32 -42 -42 -9 -29 -74 -65
-138 -76 -33 -6 -62 -13 -64 -16 -7 -7 49 -66 57 -61 3 2 26 -14 51 -37 25
-22 36 -34 25 -27 -11 8 -2 -5 20 -28 21 -23 41 -42 44 -42 3 0 -8 13 -24 30
-30 31 -24 37 20 20 48 -18 85 16 146 133 57 109 147 216 170 202 8 -5 10 -4
5 3 -10 17 51 45 81 37 16 -4 22 -2 18 5 -4 7 28 10 97 10 164 0 307 -42 513
-149 130 -68 197 -110 190 -122 -3 -4 0 -11 6 -15 8 -4 9 -3 5 4 -4 7 -3 12 2
12 12 0 33 -25 27 -32 -3 -3 5 -13 17 -24 l23 -19 -19 23 c-11 12 -15 22 -9
22 12 0 45 -35 38 -41 -2 -3 21 -30 53 -60 l57 -54 -55 58 c-30 31 -50 57 -44
57 16 0 143 -137 195 -210 67 -94 73 -108 57 -128 -9 -11 -10 -14 0 -8 6 4 12
2 12 -4 0 -7 -12 -9 -34 -4 l-34 6 20 -42 c12 -23 23 -63 26 -90 5 -50 -13
-206 -27 -243 -5 -12 -17 -50 -26 -84 -23 -79 -83 -152 -215 -259 -52 -42
-131 -112 -175 -154 -44 -42 -99 -89 -121 -103 -55 -34 -139 -103 -246 -199
-54 -49 -92 -77 -99 -72 -7 4 -9 3 -5 -4 9 -14 -30 -35 -53 -27 -9 3 -31 23
-47 45 -34 46 -59 54 -44 14 26 -67 -3 -129 -74 -163 -58 -27 -115 -39 -234
-50 -101 -9 -126 -21 -100 -47 10 -10 45 -18 102 -23 48 -5 89 -11 92 -14 11
-11 -36 -47 -62 -47 -96 0 -79 -74 29 -123 40 -19 220 -166 212 -175 -6 -6
-62 21 -84 41 -16 15 -22 17 -19 7 6 -21 79 -60 120 -64 18 -2 69 -10 114 -17
71 -11 105 -10 285 9 245 25 312 44 400 111 74 57 107 90 178 184 66 88 75
107 96 197 45 195 56 235 81 283 14 29 34 61 45 73 10 11 17 23 14 26 -3 3 3
11 12 19 17 13 17 12 4 -6 -7 -11 86 80 208 203 122 123 306 298 409 389 103
92 232 207 287 257 55 51 127 115 161 143 71 61 108 124 123 212 22 130 117
285 262 428 106 104 129 137 129 188 0 67 95 210 217 326 73 70 101 85 181 93
72 8 92 14 92 28 0 5 -6 6 -12 2 -7 -5 9 18 36 49 56 64 94 82 144 68 18 -6
39 -8 45 -5 10 3 44 8 94 13 19 2 43 31 43 53 0 11 29 53 64 92 34 39 70 85
78 101 20 40 49 155 51 206 1 23 3 36 5 29 2 -6 13 3 24 21 19 32 21 32 34 14
8 -10 14 -36 14 -57 0 -21 4 -38 8 -38 5 0 37 9 72 21 82 27 115 27 143 1 30
-28 43 -28 51 1 21 79 -12 195 -69 240 -48 38 -48 82 1 163 20 32 46 74 57 93
l20 33 -24 -7 c-109 -33 -308 -169 -389 -267 -29 -34 -57 -65 -63 -67 -15 -6
-1 95 20 137 11 23 64 77 135 137 64 55 131 118 148 140 17 21 44 45 60 51 37
16 53 47 45 85 -7 30 -7 30 -27 12 -11 -10 -28 -34 -38 -54 -10 -19 -36 -52
-57 -73 l-38 -37 -87 2 c-48 2 -85 5 -83 8 3 2 -11 15 -30 28 -37 25 -75 90
-94 159 -6 23 -20 51 -31 64 -11 13 -18 30 -16 39 3 9 8 46 11 82 6 59 4 71
-19 117 -15 29 -33 52 -41 52 -26 0 -83 -60 -99 -103 -9 -23 -25 -104 -36
-180 -12 -75 -28 -156 -36 -178 -20 -58 -18 -83 11 -125 43 -63 33 -107 -38
-181 -34 -36 -47 -43 -80 -43 -32 0 -46 8 -90 49 -29 27 -74 87 -101 133 -59
98 -83 128 -107 128 -14 0 -16 -9 -15 -56 1 -52 -1 -58 -36 -90 -44 -40 -67
-42 -102 -11 -73 63 -252 345 -244 384 4 24 106 93 137 93 16 0 34 -10 47 -27
l22 -27 28 33 c59 70 56 84 -52 207 -105 121 -108 129 -100 294 4 74 9 192 10
262 9 312 21 452 43 505 16 38 29 46 187 98 167 56 219 123 132 171 -30 17
-57 22 -126 23 -98 2 -176 -21 -216 -64 -31 -33 -44 -124 -45 -306 0 -175 -26
-441 -63 -638 -27 -146 -41 -191 -62 -191 -26 0 -29 37 -24 252 1 68 -2 85
-29 142 -26 52 -40 69 -76 90 l-45 25 0 -34 c0 -25 8 -39 33 -59 17 -15 38
-31 45 -37 22 -18 14 -65 -14 -84 -25 -16 -27 -16 -44 1 -10 11 -30 50 -44 87
-15 37 -34 76 -42 85 -9 9 -32 44 -53 77 -91 146 -149 275 -171 380 -7 33 -17
68 -22 78 -14 27 -48 20 -108 -20 -42 -29 -65 -38 -97 -38 -52 0 -53 -6 -19
-97 33 -87 37 -141 13 -146 -11 -2 -30 6 -43 19 -13 12 -24 18 -24 12 0 -6 5
-14 10 -16 6 -3 5 -4 -2 -3 -7 2 -13 11 -13 22 0 20 -50 92 -128 182 -82 96
-68 122 39 72 37 -17 72 -29 77 -27 6 2 -7 21 -30 44 -27 27 -91 65 -197 118
-142 71 -163 85 -229 152 -81 83 -143 111 -186 84z m339 -336 c0 -14 -8 -29
-19 -35 -22 -11 -121 -14 -121 -2 1 28 59 62 108 62 27 0 32 -3 32 -25z m-697
-282 c17 -38 15 -53 -7 -53 -30 0 -60 60 -43 87 12 19 32 6 50 -34z m-74 -119
c14 -10 39 -20 56 -24 27 -5 30 -10 32 -50 3 -48 -24 -90 -58 -90 -30 0 -179
-81 -190 -104 -14 -25 -80 -96 -91 -96 -4 0 -15 14 -24 32 -42 81 28 278 120
338 37 25 112 22 155 -6z m1286 -79 c0 -41 -36 -47 -60 -11 -21 32 -11 48 28
44 28 -3 32 -7 32 -33z m-1928 -67 c-3 -8 -6 -5 -6 6 -1 11 2 17 5 13 3 -3 4
-12 1 -19z m950 -140 c-3 -7 -5 -2 -5 12 0 14 2 19 5 13 2 -7 2 -19 0 -25z
m-857 -108 c0 -28 -75 -100 -104 -100 -17 0 -2 34 30 70 34 37 74 53 74 30z
m-14 -389 c47 -21 114 -77 114 -96 0 -29 -20 -23 -74 22 l-57 46 -43 -21 c-42
-22 -77 -28 -88 -16 -10 9 11 68 28 81 19 14 65 7 120 -16z m2575 -2 c32 -22
67 -79 49 -79 -17 0 -85 37 -99 54 -14 17 -8 46 10 46 6 0 24 -9 40 -21z
m-308 -140 c36 -42 50 -79 36 -100 -11 -18 -51 4 -72 41 -18 30 -23 100 -8
100 5 0 25 -18 44 -41z m-1453 -188 c0 -4 -4 -21 -9 -37 -13 -45 -29 -124 -36
-181 -5 -41 -11 -53 -24 -53 -37 0 -53 91 -30 161 19 56 99 145 99 110z m1700
-210 c0 -9 3 -27 6 -41 l7 -25 -22 21 c-14 13 -24 38 -27 65 l-5 44 20 -24
c12 -13 21 -31 21 -40z m-2449 -56 c26 -25 45 -45 42 -45 -3 0 -28 20 -54 45
-26 25 -45 45 -42 45 3 0 28 -20 54 -45z m-94 -7 c-3 -8 -6 -5 -6 6 -1 11 2
17 5 13 3 -3 4 -12 1 -19z m930 -4 c-3 -3 -12 -4 -19 -1 -8 3 -5 6 6 6 11 1
17 -2 13 -5z m2430 -41 c-3 -10 -5 -4 -5 12 0 17 2 24 5 18 2 -7 2 -21 0 -30z
m-3058 24 c-2 -1 -15 -11 -29 -22 l-25 -20 19 23 c11 12 24 22 29 22 6 0 8 -1
6 -3z m52 -24 c13 -16 12 -17 -3 -4 -10 7 -18 15 -18 17 0 8 8 3 21 -13z
m-301 -62 c11 -22 -2 -71 -20 -71 -11 0 -14 73 -3 83 9 10 11 9 23 -12z m348
-47 c-3 -14 -5 -12 -10 9 -3 19 -2 25 4 19 6 -6 8 -18 6 -28z m665 19 c-7 -2
-19 -2 -25 0 -7 3 -2 5 12 5 14 0 19 -2 13 -5z m-43 -7 c0 -2 -9 -6 -20 -9
-11 -3 -18 -1 -14 4 5 9 34 13 34 5z m1950 -41 c10 -12 10 -18 0 -30 -19 -22
-54 -15 -58 12 -3 19 5 25 39 32 4 0 12 -6 19 -14z m-3053 -21 c-3 -3 -12 -4
-19 -1 -8 3 -5 6 6 6 11 1 17 -2 13 -5z m-60 -29 c-7 -13 -14 -20 -15 -14 -2
5 2 16 8 24 18 21 20 18 7 -10z m2890 -92 c-3 -10 -5 -2 -5 17 0 19 2 27 5 18
2 -10 2 -26 0 -35z m-2285 -10 c6 -25 -5 -65 -16 -61 -16 5 -16 78 -1 78 7 0
15 -8 17 -17z m2378 -3 c11 -11 20 -29 20 -40 0 -17 -5 -19 -31 -15 -18 3 -40
10 -50 16 -19 10 -25 39 -12 52 13 14 54 6 73 -13z m264 -6 c24 -9 19 -20 -14
-34 -38 -16 -44 -10 -24 18 17 25 16 24 38 16z m-2519 -54 c3 -6 -1 -7 -9 -4
-18 7 -21 14 -7 14 6 0 13 -4 16 -10z m82 -26 c-3 -3 -12 -4 -19 -1 -8 3 -5 6
6 6 11 1 17 -2 13 -5z m-187 -48 c0 -2 -8 -10 -17 -17 -16 -13 -17 -12 -4 4
13 16 21 21 21 13z m-1094 -38 l29 -33 -32 29 c-31 28 -38 36 -30 36 2 0 16
-15 33 -32z m1371 -40 c-2 -13 -4 -3 -4 22 0 25 2 35 4 23 2 -13 2 -33 0 -45z
m2033 -5 c14 -9 39 -29 57 -44 20 -18 52 -31 90 -38 32 -6 70 -15 85 -20 21
-7 28 -5 32 8 2 9 2 -2 -1 -24 -7 -54 -42 -89 -122 -120 -89 -36 -136 -29
-199 28 -51 48 -102 122 -102 150 0 10 13 32 29 48 35 34 91 39 131 12z m395
7 c-3 -5 -14 -10 -23 -9 -14 0 -13 2 3 9 27 11 27 11 20 0z m-2695 -14 c0 -2
-8 -10 -17 -17 -16 -13 -17 -12 -4 4 13 16 21 21 21 13z m251 -13 c13 -16 12
-17 -3 -4 -10 7 -18 15 -18 17 0 8 8 3 21 -13z m-281 -26 c0 -2 -10 -12 -22
-23 l-23 -19 19 23 c18 21 26 27 26 19z m-73 -29 c-3 -8 -6 -5 -6 6 -1 11 2
17 5 13 3 -3 4 -12 1 -19z m298 -107 c-11 -10 -33 11 -38 34 l-5 27 23 -28
c13 -16 22 -31 20 -33z m2845 -191 c0 -5 -5 -10 -11 -10 -5 0 -7 5 -4 10 3 6
8 10 11 10 2 0 4 -4 4 -10z m-1320 -125 c-13 -14 -28 -25 -34 -25 -6 0 -37
-18 -70 -41 -32 -22 -60 -38 -62 -36 -9 9 105 104 137 114 51 16 54 15 29 -12z
m-2569 -532 c-12 -20 -14 -14 -5 12 4 9 9 14 11 11 3 -2 0 -13 -6 -23z m-84
-79 c-3 -3 -12 -4 -19 -1 -8 3 -5 6 6 6 11 1 17 -2 13 -5z m29 -89 c-11 -8
-25 -15 -30 -15 -6 1 0 7 14 15 32 19 40 18 16 0z m-331 -212 l18 -28 -21 19
c-12 11 -22 23 -22 28 0 14 7 9 25 -19z m1700 -113 c10 -11 16 -20 13 -20 -3
0 -13 9 -23 20 -10 11 -16 20 -13 20 3 0 13 -9 23 -20z m495 -963 c0 -2 -10
-12 -22 -23 l-23 -19 19 23 c18 21 26 27 26 19z m-70 -60 c0 -1 -57 -58 -127
-127 -70 -69 -101 -96 -69 -60 70 78 196 198 196 187z"/>
<path d="M5207 7201 c-25 -43 -21 -58 8 -31 24 22 34 60 17 60 -4 0 -15 -13
-25 -29z"/>
<path d="M5292 7164 c-38 -40 -42 -48 -30 -61 12 -11 20 -12 42 -2 30 14 88
87 80 101 -13 20 -50 5 -92 -38z"/>
<path d="M6811 7926 l-64 -64 7 -48 c6 -47 6 -47 -14 -29 -12 11 -18 25 -15
34 5 13 4 13 -6 4 -10 -10 -8 -18 11 -38 13 -14 25 -23 27 -21 6 5 86 -75 115
-114 14 -19 78 -91 142 -160 93 -100 123 -125 146 -127 27 -3 30 0 30 27 0 16
-4 31 -9 34 -5 4 -7 -3 -4 -15 5 -19 4 -20 -16 -8 -12 8 -21 24 -21 38 0 21 2
22 18 10 16 -13 16 -12 1 6 -9 11 -14 25 -12 32 2 7 -4 11 -14 11 -27 -2 -95
44 -127 86 -21 28 -26 44 -22 64 5 20 4 23 -4 12 -8 -12 -10 -11 -10 6 0 15
-12 26 -42 39 -24 10 -46 17 -51 16 -9 -1 -67 88 -67 104 0 6 10 21 23 33 27
25 80 24 105 -2 9 -11 11 -16 5 -12 -19 10 -16 1 4 -15 11 -10 14 -10 9 -1
-14 24 11 11 40 -20 24 -27 25 -29 4 -13 l-25 20 19 -22 c10 -13 22 -21 26
-18 11 7 61 -50 53 -59 -5 -4 -3 -6 2 -4 6 2 32 -15 58 -37 43 -35 48 -43 43
-70 -4 -22 -3 -26 4 -15 20 31 10 73 -29 124 -49 63 -204 216 -220 216 -6 0
-11 7 -11 15 0 19 -30 19 -56 0 -31 -23 -40 -17 -14 10 12 13 27 22 33 18 6
-3 7 -1 3 5 -4 7 -8 12 -9 12 -2 0 -31 -29 -66 -64z"/>
<path d="M5140 7940 c0 -5 -12 -12 -27 -16 -16 -3 -45 -18 -65 -31 -21 -14
-58 -28 -82 -30 -34 -4 -59 -17 -102 -52 -96 -77 -256 -270 -270 -325 -7 -30
12 -86 31 -86 47 0 277 154 367 247 46 47 57 66 63 103 8 53 44 123 86 168 21
23 25 32 15 32 -9 0 -16 -4 -16 -10z m-280 -153 c0 -2 -10 -12 -22 -23 l-23
-19 19 23 c18 21 26 27 26 19z"/>
<path d="M6890 7866 c0 -2 7 -7 16 -10 8 -3 12 -2 9 4 -6 10 -25 14 -25 6z"/>
<path d="M6832 7830 c0 -14 2 -19 5 -12 2 6 2 18 0 25 -3 6 -5 1 -5 -13z"/>
<path d="M8340 7828 c1 -18 25 -48 39 -48 6 0 11 14 11 30 0 25 -4 30 -25 30
-14 0 -25 -6 -25 -12z m37 -30 c-3 -8 -6 -5 -6 6 -1 11 2 17 5 13 3 -3 4 -12
1 -19z"/>
<path d="M6840 7794 c0 -6 7 -19 16 -30 14 -18 14 -18 3 6 -14 31 -19 36 -19
24z"/>
<path d="M7135 7570 c-3 -5 -1 -10 4 -10 6 0 11 5 11 10 0 6 -2 10 -4 10 -3 0
-8 -4 -11 -10z"/>
<path d="M3658 7534 c-70 -36 -62 -47 32 -43 92 5 112 17 81 48 -27 27 -55 26
-113 -5z m106 -3 c16 -17 16 -19 -6 -25 -13 -3 -48 -6 -78 -6 l-55 1 40 24
c48 30 76 31 99 6z"/>
<path d="M10779 7474 l-24 -26 24 -19 c28 -23 45 -24 65 -4 15 15 12 38 -7 63
-14 18 -31 15 -58 -14z"/>
<path d="M8574 7398 c-47 -36 -216 -209 -209 -216 37 -37 182 62 231 159 39
78 32 97 -22 57z"/>
<path d="M11026 7271 c-4 -5 2 -12 11 -14 12 -3 10 -5 -7 -6 -15 0 -31 -6 -38
-13 -16 -16 -15 -47 2 -54 22 -9 66 25 66 51 0 25 -25 52 -34 36z"/>
<path d="M3850 7034 c0 -31 180 -204 212 -204 43 0 -89 183 -139 193 -16 3
-38 8 -50 12 -13 4 -23 3 -23 -1z"/>
<path d="M8130 6964 c-43 -36 -65 -81 -49 -100 20 -24 68 -17 100 15 30 31 36
59 19 92 -14 26 -33 24 -70 -7z"/>
<path d="M9987 6926 c4 -8 50 -60 101 -115 135 -148 124 -157 -62 -50 -133 76
-188 89 -126 32 19 -17 79 -57 134 -89 133 -76 205 -130 213 -163 10 -38 10
-37 12 -83 2 -75 13 -78 73 -22 29 27 52 53 50 57 -1 5 2 6 7 3 9 -6 70 23 99
47 7 5 11 16 8 24 -3 8 -1 11 4 8 5 -3 15 6 22 21 18 39 -10 57 -77 51 -27 -3
-67 -1 -87 5 -39 11 -163 105 -290 219 -75 68 -97 83 -81 55z m277 -262 c26
-27 33 -44 18 -44 -5 0 -14 10 -21 23 -6 12 -9 14 -7 5 7 -22 -17 -24 -34 -3
-13 15 -7 45 8 45 5 0 21 -12 36 -26z m93 -40 c-3 -3 -12 -4 -19 -1 -8 3 -5 6
6 6 11 1 17 -2 13 -5z"/>
<path d="M6220 6730 c-45 -45 -13 -155 59 -203 52 -34 81 -36 81 -3 0 23 -16
49 -74 121 -16 19 -26 39 -22 42 3 4 26 -3 50 -14 24 -12 53 -19 65 -16 19 5
18 8 -17 35 -76 61 -110 70 -142 38z"/>
<path d="M10826 6730 c-16 -5 -33 -7 -38 -4 -17 11 -78 -7 -103 -30 -52 -49
-34 -51 168 -23 114 16 146 29 126 53 -13 16 -106 18 -153 4z"/>
<path d="M9360 6705 c0 -18 31 -97 36 -92 3 2 -3 20 -11 40 -18 45 -19 53 -2
38 8 -6 19 -29 26 -50 6 -22 15 -43 20 -46 11 -6 -26 95 -41 113 -14 16 -28
15 -28 -3z"/>
<path d="M7894 6702 c-12 -2 -45 -24 -74 -50 -46 -41 -53 -53 -57 -94 -5 -45
-4 -48 18 -49 17 -1 19 -3 7 -6 -22 -6 -23 -17 -2 -34 14 -12 19 -10 38 14 15
18 31 27 50 27 41 0 107 -22 113 -37 7 -17 28 -16 78 1 45 16 61 35 51 61 -6
16 -16 17 -89 11 -87 -7 -117 -2 -117 19 0 27 17 34 170 64 34 7 34 7 10 15
-14 5 -37 17 -52 28 -28 20 -106 36 -144 30z"/>
<path d="M9421 6560 c25 -45 108 -140 108 -125 1 6 -4 17 -9 25 -5 8 -10 11
-10 7 0 -13 -68 71 -86 105 -8 15 -17 28 -20 28 -3 0 5 -18 17 -40z"/>
<path d="M9480 6592 c0 -7 -10 -13 -22 -13 -19 -1 -20 -2 -4 -6 20 -5 44 12
33 24 -4 3 -7 1 -7 -5z"/>
<path d="M8439 6558 c-12 -23 -3 -72 17 -88 31 -27 63 21 50 74 -8 32 -53 41
-67 14z"/>
<path d="M9400 6283 c19 -15 64 -55 100 -88 36 -34 77 -69 91 -78 26 -15 27
-15 22 3 -3 11 -9 18 -13 15 -4 -3 -11 19 -14 47 -5 35 -4 54 4 56 6 2 -11 18
-37 35 -40 25 -60 31 -118 34 l-70 4 35 -28z"/>
<path d="M8520 6267 c-36 -13 -78 -31 -95 -41 l-30 -17 45 6 c49 7 160 53 160
66 0 13 -7 11 -80 -14z"/>
<path d="M2847 6195 c40 -51 173 -182 173 -171 0 14 -119 143 -163 178 l-42
33 32 -40z"/>
<path d="M6200 6146 c-39 -14 -152 -114 -144 -127 9 -14 19 -11 58 20 24 19
57 33 101 41 57 11 66 15 63 33 -5 34 -37 48 -78 33z"/>
<path d="M8574 6134 c-17 -8 -44 -28 -59 -44 -22 -23 -25 -32 -16 -48 24 -45
76 -32 121 29 52 72 30 101 -46 63z"/>
<path d="M9672 6055 c0 -16 2 -22 5 -12 2 9 2 23 0 30 -3 6 -5 -1 -5 -18z"/>
<path d="M9510 6000 c-7 -5 -8 -14 0 -31 l11 -24 -5 24 c-5 23 -3 23 50 19 30
-3 52 -2 49 0 -9 9 -94 19 -105 12z"/>
<path d="M3070 5710 c0 -5 5 -10 10 -10 6 0 10 5 10 10 0 6 -4 10 -10 10 -5 0
-10 -4 -10 -10z"/>
<path d="M2360 5675 c0 -14 11 -47 24 -73 27 -53 116 -175 123 -169 2 3 -19
35 -47 72 -28 36 -59 84 -70 105 -21 41 -26 80 -11 80 14 0 122 -83 160 -123
l34 -36 -28 -48 c-16 -26 -41 -65 -57 -87 -15 -21 -25 -43 -21 -49 3 -6 1 -7
-5 -3 -6 4 -26 -15 -46 -46 -27 -39 -33 -55 -24 -65 7 -9 7 -13 -1 -13 -19 0
-13 -75 8 -94 16 -15 23 -15 48 -4 17 7 45 31 64 53 27 32 28 35 6 16 -15 -14
-37 -26 -48 -28 l-21 -3 21 26 c26 32 26 51 4 78 -10 12 -2 6 18 -11 37 -34
72 -42 86 -20 21 36 62 49 135 46 40 -2 76 -8 80 -14 5 -6 8 -4 8 5 0 9 -13
31 -30 50 -16 19 -29 42 -30 51 0 17 -252 260 -312 302 -51 34 -68 34 -68 2z
m400 -356 c12 -16 20 -32 18 -34 -2 -2 -32 -1 -67 3 l-64 7 39 28 c21 15 42
27 46 27 4 0 16 -14 28 -31z m-306 -15 c3 -8 2 -12 -4 -9 -6 3 -10 10 -10 16
0 14 7 11 14 -7z m21 -74 c4 -6 -1 -23 -11 -38 -10 -15 -17 -30 -16 -35 1 -4
-10 -5 -25 -2 -16 3 -22 2 -15 -1 6 -3 12 -10 12 -16 0 -7 -5 -6 -14 1 -14 11
-9 62 8 90 9 14 53 14 61 1z"/>
<path d="M1858 5532 c-59 -26 -78 -90 -33 -110 60 -27 120 -6 125 43 4 32 1
40 -20 63 -24 26 -24 26 -72 4z"/>
<path d="M6914 5429 c-30 -37 -59 -119 -43 -119 13 0 61 98 57 117 -3 14 -5
14 -14 2z"/>
<path d="M1754 5152 c-77 -71 -146 -149 -119 -134 28 16 63 47 135 125 77 82
68 87 -16 9z"/>
<path d="M1234 5113 c18 -35 169 -183 187 -184 67 -5 129 11 129 32 0 6 -4 7
-10 4 -5 -3 -10 -3 -10 2 0 4 -21 9 -46 9 -34 1 -54 9 -84 33 -21 17 -44 31
-50 31 -6 0 -9 4 -5 9 6 11 -94 91 -114 91 -8 0 -8 -8 3 -27z m92 -55 c9 -14
-37 11 -63 35 -39 35 -25 40 17 7 22 -17 43 -36 46 -42z m175 -98 c18 0 28 -4
24 -10 -10 -16 -61 -11 -76 7 -12 15 -12 16 4 10 10 -4 32 -7 48 -7z"/>
<path d="M7057 5133 c-10 -10 -8 -52 3 -73 5 -10 14 -43 19 -72 l10 -53 -3 51
c-3 55 11 77 37 63 17 -10 61 3 72 20 9 15 -2 14 -29 -4 -31 -21 -53 -10 -77
36 -21 41 -22 43 -32 32z"/>
<path d="M9567 5075 c-31 -30 -63 -68 -71 -84 -19 -37 -93 -101 -143 -125 -80
-39 -88 -45 -95 -74 -10 -36 -25 -50 -92 -82 -68 -33 -73 -61 -17 -90 22 -11
48 -32 58 -46 18 -29 24 -109 8 -109 -5 0 -8 5 -6 10 14 38 8 43 -11 10 -12
-22 -23 -44 -23 -50 -1 -5 -6 -9 -12 -8 -7 2 -22 -11 -34 -29 -12 -17 -38 -47
-58 -66 -20 -19 -25 -27 -12 -16 l25 19 -20 -26 c-10 -15 -22 -25 -25 -23 -13
7 -32 -27 -40 -73 -5 -25 -14 -52 -21 -60 -7 -8 -13 -22 -14 -31 -4 -22 -117
-133 -131 -128 -6 3 -17 -3 -25 -12 -11 -15 -11 -16 2 -7 9 6 8 3 -2 -5 -33
-28 -108 -71 -140 -81 -43 -12 -115 -12 -123 1 -4 6 -11 8 -16 5 -5 -4 -9 -2
-9 4 0 17 47 47 117 77 78 32 173 89 173 103 0 5 -12 12 -27 14 -21 3 -20 4 5
3 27 -2 36 3 48 26 13 25 13 28 -2 28 -8 0 -42 -16 -75 -35 -33 -19 -85 -42
-117 -51 -31 -9 -77 -30 -102 -47 -56 -38 -170 -151 -170 -168 0 -19 78 -89
99 -89 10 0 32 -7 47 -15 42 -21 88 -19 178 11 68 23 88 36 151 95 46 44 84
92 105 131 46 88 113 170 213 260 47 43 118 121 158 175 40 54 88 114 105 133
26 28 127 199 135 228 1 4 3 12 5 17 18 56 68 324 62 331 -3 2 -30 -20 -61
-51z"/>
<path d="M6902 5081 c-24 -32 -67 -42 -89 -20 -6 6 -38 13 -71 16 l-60 6 -21
-71 c-29 -95 -46 -115 -88 -103 -34 10 -73 5 -73 -10 0 -5 -9 -9 -20 -9 -29 0
-25 -27 13 -100 39 -73 92 -131 113 -123 8 3 11 9 8 14 -3 5 1 6 9 3 10 -3 22
9 36 40 12 24 29 50 37 56 18 16 18 44 -1 60 -40 33 -2 95 80 131 25 11 45 22
45 25 0 3 -6 2 -12 -2 -9 -5 -9 -2 1 9 15 18 26 23 16 7 -8 -14 1 -13 33 4 39
20 74 61 70 81 -2 13 -8 10 -26 -14z m-358 -237 c3 -8 2 -12 -4 -9 -6 3 -10
10 -10 16 0 14 7 11 14 -7z m60 -20 c13 -19 15 -29 7 -37 -15 -15 -56 25 -48
47 9 22 19 20 41 -10z m50 -99 c-4 -8 -8 -15 -10 -15 -2 0 -4 7 -4 15 0 8 4
15 10 15 5 0 7 -7 4 -15z"/>
<path d="M4927 4903 c-41 -32 -119 -97 -174 -145 -99 -87 -117 -101 -230 -179
-37 -25 -63 -50 -63 -60 0 -10 -5 -21 -10 -24 -19 -12 18 -125 52 -162 33 -35
53 -15 82 80 14 45 39 104 56 130 16 26 30 50 30 53 0 3 -15 -6 -33 -20 -19
-15 -38 -26 -43 -26 -5 0 9 12 31 27 22 15 42 27 45 26 3 0 40 33 83 74 99 94
164 126 257 126 90 0 140 -24 140 -66 0 -30 1 -30 18 -14 12 12 17 34 17 70 0
63 21 73 61 30 l26 -28 38 42 c46 52 73 104 60 117 -14 14 -126 -11 -273 -60
-70 -24 -132 -44 -136 -44 -5 0 -11 7 -15 15 -3 8 -1 14 3 12 8 -2 71 69 71
79 0 13 -27 -3 -93 -53z m356 -30 c-7 -2 -21 -2 -30 0 -10 3 -4 5 12 5 17 0
24 -2 18 -5z m-353 -37 c0 -2 -8 -10 -17 -17 -16 -13 -17 -12 -4 4 13 16 21
21 21 13z m-173 -108 c-3 -8 -6 -5 -6 6 -1 11 2 17 5 13 3 -3 4 -12 1 -19z
m-76 -101 c-10 -9 -11 -8 -5 6 3 10 9 15 12 12 3 -3 0 -11 -7 -18z m-156 -127
c-4 -7 2 -9 18 -5 33 9 43 -19 18 -44 -22 -22 -61 -18 -61 5 0 8 -5 14 -11 14
-6 0 -1 9 12 20 27 22 33 24 24 10z"/>
<path d="M4855 4446 c-41 -18 -96 -66 -89 -77 7 -12 54 -11 92 2 31 11 60 58
47 78 -8 14 -13 13 -50 -3z"/>
<path d="M7572 4380 c-23 -22 -28 -45 -12 -55 12 -7 61 18 80 40 12 14 12 18
-1 26 -22 14 -44 11 -67 -11z"/>
<path d="M8717 4292 c-18 -20 -23 -57 -8 -66 16 -10 61 34 61 60 0 29 -29 33
-53 6z"/>
<path d="M4380 4188 l-23 -33 28 27 c16 15 26 30 23 33 -3 4 -16 -9 -28 -27z"/>
<path d="M4525 4140 c-3 -6 1 -7 9 -4 18 7 21 14 7 14 -6 0 -13 -4 -16 -10z"/>
<path d="M3905 4120 c-27 -10 -41 -28 -49 -64 -6 -24 -4 -27 9 -22 9 3 13 2
10 -4 -7 -11 190 -9 201 3 10 10 -40 53 -91 77 -44 22 -51 22 -80 10z"/>
<path d="M8890 4053 l-55 -58 58 55 c53 50 62 60 54 60 -1 0 -27 -26 -57 -57z"/>
<path d="M6361 3883 c7 -10 15 -20 16 -22 2 -2 3 3 3 11 0 9 -7 19 -16 22 -15
6 -15 4 -3 -11z"/>
<path d="M6410 3875 c-13 -14 -19 -25 -14 -25 8 1 50 50 41 50 -2 0 -14 -11
-27 -25z"/>
<path d="M6322 3877 c-6 -7 -14 -33 -17 -57 -11 -82 -15 -92 -31 -86 -9 3 -24
1 -34 -4 -21 -11 -76 -98 -67 -106 3 -3 8 4 12 16 12 38 66 91 86 85 23 -8 35
15 42 84 4 29 12 59 18 67 6 8 9 14 6 14 -2 0 -9 -6 -15 -13z"/>
<path d="M8350 3825 c-10 -13 -9 -15 8 -15 15 0 20 5 16 15 -4 8 -7 15 -9 15
-1 0 -8 -7 -15 -15z"/>
<path d="M4255 3779 c8 -21 -39 -59 -72 -59 -13 0 -22 4 -19 9 3 5 -1 12 -10
15 -26 10 -28 7 -9 -14 25 -28 59 -25 97 9 27 25 31 32 20 43 -11 11 -12 10
-7 -3z"/>
<path d="M7238 3697 c-54 -35 -100 -66 -104 -69 -8 -9 109 -170 187 -258 110
-124 158 -170 176 -170 18 0 199 90 244 121 l24 17 -25 26 c-21 24 -22 26 -5
21 15 -5 17 -4 6 3 -8 6 -20 8 -26 6 -7 -3 -29 14 -50 38 -107 121 -308 328
-318 328 -7 0 -56 -29 -109 -63z"/>
<path d="M8143 3675 c-45 -36 -91 -77 -101 -90 -13 -16 -22 -21 -29 -14 -7 7
-31 -14 -73 -60 -34 -39 -59 -71 -56 -71 24 0 273 207 319 265 15 19 26 35 25
35 -2 0 -41 -29 -85 -65z"/>
<path d="M2856 3651 c-8 -12 14 -28 49 -36 29 -6 29 -6 -5 11 -33 16 -33 18
-12 22 25 4 73 -12 107 -35 18 -13 16 -14 -20 -9 -45 7 -38 2 17 -13 36 -9 37
-8 27 10 -20 38 -147 76 -163 50z"/>
<path d="M2480 3619 c0 -17 46 -77 97 -126 43 -42 73 -48 73 -16 0 13 3 13 15
3 23 -19 19 -43 -5 -37 -11 3 -18 1 -14 -4 3 -5 14 -9 25 -9 35 0 21 35 -38
93 -60 59 -153 117 -153 96z"/>
<path d="M6156 3588 c-3 -13 -5 -32 -5 -43 1 -11 5 -2 10 19 10 42 6 62 -5 24z"/>
<path d="M7685 3420 c10 -11 20 -20 23 -20 3 0 -3 9 -13 20 -10 11 -20 20 -23
20 -3 0 3 -9 13 -20z"/>
<path d="M7766 3370 c-11 -3 -15 -9 -10 -13 10 -6 42 9 34 16 -3 3 -14 1 -24
-3z"/>
<path d="M5516 3214 c-10 -77 -4 -94 8 -24 l12 65 17 -54 c9 -30 17 -73 18
-95 1 -64 15 -136 29 -149 10 -10 10 -8 2 8 -5 11 -15 68 -21 128 -15 149 -51
217 -65 121z"/>
<path d="M5485 3100 c-10 -11 -26 -20 -35 -20 -26 0 -50 -33 -49 -66 l1 -29 7
31 c11 42 19 54 40 54 15 0 61 34 61 45 0 9 -7 5 -25 -15z"/>
<path d="M5673 3058 c-31 -35 -56 -78 -49 -85 3 -3 6 -2 6 4 0 6 16 30 35 53
19 23 35 44 35 46 0 8 -7 3 -27 -18z"/>
<path d="M5517 3043 c-12 -12 -7 -109 7 -128 17 -24 46 -13 46 18 0 29 -29
117 -39 117 -4 0 -11 -3 -14 -7z"/>
<path d="M5400 2931 c0 -38 -6 -56 -26 -80 -19 -23 -24 -39 -21 -63 l4 -33 1
34 c1 19 13 46 27 63 19 23 25 41 25 79 0 27 -2 49 -5 49 -3 0 -5 -22 -5 -49z"/>
<path d="M5040 2885 c0 -7 7 -19 17 -26 9 -8 24 -32 34 -55 15 -32 16 -48 8
-77 -10 -36 -54 -82 -96 -98 -27 -10 -28 -20 -8 -59 11 -21 23 -30 40 -30 34
0 38 13 12 51 l-22 33 37 34 c65 58 67 134 7 198 -26 28 -9 40 28 20 59 -32
84 -60 88 -99 4 -44 29 -87 50 -87 20 0 19 20 -2 50 -13 19 -6 15 27 -12 59
-51 112 -48 109 6 -1 18 -2 17 -8 -4 -5 -17 -15 -26 -34 -28 -22 -3 -42 12
-121 92 -51 53 -100 97 -107 97 -8 1 -24 3 -36 4 -13 1 -23 -3 -23 -10z"/>
<path d="M4607 2605 c40 -32 76 -132 71 -202 -3 -41 -6 -48 -26 -51 -18 -3
-21 -8 -16 -30 9 -36 14 -40 14 -11 0 13 9 30 20 37 26 16 27 88 1 166 -21 64
-6 61 27 -6 14 -26 19 -51 15 -72 -5 -32 -4 -33 40 -45 61 -15 139 -14 161 2
17 12 16 15 -8 44 -25 30 -140 107 -199 134 -20 9 -24 15 -15 21 10 6 9 8 -2
8 -9 0 -20 -4 -26 -10 -6 -6 -15 -6 -24 0 -12 8 -11 10 5 11 14 0 9 5 -15 14
-52 20 -58 18 -23 -10z"/>
<path d="M4935 2600 c-13 -6 -15 -9 -5 -9 8 0 22 4 30 9 18 12 2 12 -25 0z"/>
<path d="M4735 2580 c41 -10 113 -12 118 -2 3 4 -30 7 -72 8 -50 0 -66 -2 -46
-6z"/>
<path d="M4878 2583 c6 -2 18 -2 25 0 6 3 1 5 -13 5 -14 0 -19 -2 -12 -5z"/>
<path d="M2559 2292 c-98 -78 -236 -202 -226 -202 11 0 202 148 247 192 47 45
86 88 79 88 -2 0 -47 -35 -100 -78z"/>
<path d="M4636 2264 c-6 -15 -20 -16 -131 -10 -69 4 -130 4 -135 1 -6 -4 3
-22 19 -43 55 -70 49 -106 -11 -77 l-33 16 24 -19 c16 -13 38 -19 60 -18 51 3
61 11 51 45 -19 66 -47 91 -57 51 -5 -19 -6 -19 -23 3 -10 12 -16 25 -14 28 2
3 56 4 121 1 102 -4 120 -2 132 12 8 9 12 19 9 22 -3 3 -8 -3 -12 -12z"/>
<path d="M4153 2173 c33 -4 37 -6 26 -20 -11 -13 -10 -18 6 -29 22 -16 93 -18
115 -4 13 9 12 12 -5 25 -18 14 -17 15 15 10 33 -5 33 -4 7 4 -16 5 -67 12
-115 14 -48 2 -70 2 -49 0z"/>
<path d="M4039 2160 c-11 -7 -19 -31 -23 -81 -8 -81 -35 -119 -82 -119 -32 0
-100 32 -167 78 -27 18 -51 32 -53 30 -2 -3 35 -44 82 -94 74 -77 87 -87 95
-71 6 9 8 25 5 35 -5 15 -1 17 29 14 28 -3 40 1 64 25 25 26 31 41 37 102 6
69 8 71 38 80 20 6 24 9 11 10 -11 0 -27 -4 -36 -9z"/>
<path d="M3788 1960 c36 -62 63 -141 72 -214 l9 -71 -4 71 c-4 75 -39 179 -76
224 l-21 25 20 -35z"/>
<path d="M2143 1867 c-34 -28 -79 -72 -99 -97 -21 -25 -56 -65 -78 -89 l-41
-45 40 33 c22 17 63 49 90 71 28 22 57 46 65 55 101 105 117 125 99 125 -8 0
-42 -24 -76 -53z"/>
<path d="M4291 1856 c2 -2 22 -6 44 -9 28 -5 34 -4 20 3 -19 8 -73 14 -64 6z"/>
<path d="M4148 1786 c-59 -34 -111 -66 -115 -70 -15 -15 53 19 132 66 44 27
85 48 92 48 6 0 15 5 18 10 14 22 -25 6 -127 -54z"/>
<path d="M3707 1742 c-8 -9 -27 -42 -42 -72 -47 -94 -82 -137 -121 -150 -19
-7 -33 -14 -31 -17 10 -9 74 26 94 51 11 14 39 62 62 106 25 47 48 80 57 80 9
0 37 -18 63 -40 26 -22 51 -40 55 -40 9 0 -80 76 -105 90 -12 7 -21 4 -32 -8z"/>
<path d="M4541 1714 c0 -11 3 -14 6 -6 3 7 2 16 -1 19 -3 4 -6 -2 -5 -13z"/>
<path d="M3910 1652 c-114 -62 -250 -148 -250 -157 0 -7 2 -6 100 58 41 27
117 71 168 99 78 42 103 58 90 58 -2 0 -50 -26 -108 -58z"/>
<path d="M140 1583 c0 -24 36 -73 108 -147 79 -81 169 -142 271 -187 l87 -37
125 6 124 5 -90 24 c-49 13 -103 28 -120 32 -74 20 -271 129 -349 193 -44 37
-98 81 -118 99 -33 26 -38 28 -38 12z"/>
<path d="M3356 1528 c4 -24 6 -73 5 -110 -1 -71 7 -85 39 -68 45 24 68 132 34
161 -14 11 -20 10 -40 -14 -24 -28 -24 -28 -24 -5 0 13 -3 33 -6 45 l-6 23 56
-25 c31 -14 64 -25 74 -24 11 0 8 4 -8 8 -14 5 -45 18 -69 30 -25 11 -49 21
-54 21 -5 0 -6 -19 -1 -42z"/>
<path d="M3579 1432 c-85 -77 -193 -156 -309 -226 -96 -57 -127 -70 -235 -102
-33 -10 -89 -33 -125 -50 -64 -31 -65 -32 -85 -13 -31 28 -69 29 -73 2 -2 -14
4 -27 17 -35 19 -11 17 -14 -28 -44 -26 -18 -73 -56 -105 -85 l-59 -53 20 39
c38 76 39 125 2 125 -26 0 -61 -51 -113 -161 -45 -98 -63 -159 -45 -159 5 0
-27 -48 -72 -107 -45 -58 -77 -103 -71 -99 7 4 60 71 119 149 158 208 335 377
395 377 9 0 20 5 24 11 11 18 142 76 220 97 115 32 252 108 419 233 80 60 188
159 174 159 -4 0 -35 -26 -70 -58z"/>
<path d="M3339 1434 c-17 -21 -96 -60 -189 -95 -41 -15 -69 -28 -63 -29 41 -1
257 101 267 126 7 18 2 18 -15 -2z"/>
<path d="M2939 1296 c-6 -6 -23 -32 -39 -58 -17 -28 -43 -54 -62 -63 -23 -10
-25 -13 -8 -9 40 10 62 30 89 81 l26 48 58 1 c32 1 61 4 63 7 3 3 -23 5 -56 4
-34 0 -66 -5 -71 -11z"/>
<path d="M884 1268 l-19 -23 23 19 c21 18 27 26 19 26 -2 0 -12 -10 -23 -22z"/>
<path d="M2686 1234 c-12 -32 -5 -61 29 -114 19 -30 35 -52 35 -47 0 4 -12 25
-26 47 -15 22 -23 44 -18 51 4 7 3 10 -3 6 -6 -4 -10 6 -11 23 0 16 4 32 9 35
5 4 9 -2 10 -12 1 -28 5 -45 22 -85 13 -30 21 -38 41 -38 29 0 36 26 14 49
-10 11 -10 14 -1 18 12 4 -70 83 -87 83 -4 0 -11 -7 -14 -16z m69 -34 c16 -16
24 -30 19 -30 -6 0 -20 14 -32 30 -13 17 -21 30 -19 30 2 0 16 -13 32 -30z"/>
<path d="M2545 1032 c-5 -4 -11 -18 -12 -32 -1 -14 -34 -88 -73 -165 -40 -77
-67 -135 -62 -130 30 29 175 336 159 335 -1 0 -6 -4 -12 -8z"/>
<path d="M2590 1020 c14 -4 36 -8 50 -8 22 0 22 1 -5 8 -16 4 -39 8 -50 8 -16
0 -15 -2 5 -8z"/>
<path d="M2715 1020 c-16 -7 -17 -9 -3 -9 9 -1 20 4 23 9 7 11 7 11 -20 0z"/>
<path d="M2326 582 c-59 -113 -121 -184 -281 -322 -71 -62 -138 -122 -148
-133 -10 -12 -16 -15 -12 -7 5 12 4 12 -7 -1 -7 -9 -19 -14 -26 -11 -7 2 -22
-4 -33 -14 -19 -17 -20 -17 -13 2 4 10 4 16 -1 12 -4 -4 -15 -3 -24 1 -9 5
-40 16 -69 25 l-53 15 20 -28 c56 -79 254 -81 336 -5 15 13 31 21 37 18 7 -4
8 -2 4 4 -4 7 25 48 72 100 81 91 201 257 130 181 -18 -20 -59 -55 -91 -79
-78 -58 -104 -95 -72 -102 12 -2 9 -12 -16 -41 l-31 -37 -27 22 -27 23 107 92
c58 50 128 120 154 155 43 57 132 218 121 218 -3 0 -25 -40 -50 -88z m-330
-468 c-15 -14 -31 -23 -34 -20 -9 9 30 46 47 46 11 -1 8 -8 -13 -26z"/>
</g>
</svg>
