<?xml version="1.0" encoding="utf-8"?>
<!-- Generator: Adobe Illustrator 16.0.0, SVG Export Plug-In . SVG Version: 6.00 Build 0)  -->
<!DOCTYPE svg PUBLIC "-//W3C//DTD SVG 1.1//EN" "http://www.w3.org/Graphics/SVG/1.1/DTD/svg11.dtd">
<svg version="1.1" id="Layer_1" xmlns="http://www.w3.org/2000/svg" xmlns:xlink="http://www.w3.org/1999/xlink" x="0px" y="0px"
	 width="184px" height="227px" viewBox="0 0 184 227" enable-background="new 0 0 184 227" xml:space="preserve">
<path fill-rule="evenodd" clip-rule="evenodd" fill="#FEFEFE" d="M116.626,170.881c-4.957,4.488-10.956,5.128-17.254,4.67
	c-7.347,0.665-13.455-3.148-19.724-5.884c-10.506-4.583-19.154-11.744-25.769-21.198c-1.413-2.021-2.946-4.045-2.904-6.72
	c-1.212-3.429-2.425-6.859-3.637-10.288c-1.466-2.481-1.627-4.83,0.699-6.925c2.768-0.72,4.257,1.476,6.033,2.807
	c7.185,5.384,8.074,5.245,13.729-1.482c5.041-5.999,9.938-12.105,14.479-18.483c4.786-6.721,4.479-8.039-2.029-12.935
	c-1.82-1.37-4.269-2.069-5.138-4.533c3.462-6.696,8.522-11.894,14.894-15.861c10.228-9.737,20.569-19.343,32.096-27.566
	c1.673-0.01,2.714,1.16,3.777,2.158c10.512,9.873,22.461,17.432,35.958,22.543c1.164,0.44,2.663,0.685,2.756,2.425
	c-2.535,10.868-7.055,21.079-10.519,31.639c-1.922,7.605-4.268,15.01-9.923,20.843c-2.262,0.337-4.259-0.667-6.251-1.419
	c-3.966-1.499-6.844-0.636-9.55,2.799c-5.886,7.477-11.182,15.287-15.496,23.771c-4.013,7.893-2.813,10.464,5.978,12.444
	c0.811,0.183,1.643,0.27,2.384,0.694C121.684,167.957,119.074,169.36,116.626,170.881z"/>
<path fill-rule="evenodd" clip-rule="evenodd" fill="#EF86B0" d="M48.819,124.663c-2.35,1.86-0.861,4.56-1.481,6.798
	c-9.353,6.802-19.483,12.046-30.606,15.324c-4.248,1.251-8.328,1.523-11.367-2.393c-3.083-3.972-2.26-8.21,0.031-12.161
	c7.066-12.191,16.395-22.624,26.107-32.7C43.654,86.923,57.177,75.857,71.04,65.204c1.447-1.113,2.958-2.192,4.574-3.027
	c5.68-2.933,10.59-0.916,12.625,5.179c0.728,2.183,1.188,4.456,1.769,6.691c-4.802,5.246-9.602,10.489-14.403,15.731
	c-0.398,1.035-1.304,1.638-2.025,2.4c-0.583,0.652-1.157,1.308-1.738,1.961c-7.65,7.385-13.51,16.168-19.445,24.888
	c-0.668,0.802-1.274,1.649-1.748,2.585C50.094,122.662,49.928,123.947,48.819,124.663z"/>
<path fill-rule="evenodd" clip-rule="evenodd" fill="#EF86B0" d="M116.626,170.881c1.467-2.008,2.933-4.017,4.398-6.025
	c0.088-0.959,0.757-1.553,1.365-2.184c0.964-0.889,1.796-1.884,2.435-3.037c5.577-8.979,11.33-17.851,16.059-27.321
	c0.814-0.965,1.233-2.104,1.418-3.346c0.319-1.231,0.883-2.327,1.791-3.23c4.342-6.335,6.215-13.874,9.982-20.488
	c10.654-0.973,14.526,2.838,13.186,13.525c-2.149,17.137-8.103,33.226-14.17,49.25c-2.766,7.304-5.81,14.506-8.842,21.706
	c-1.487,3.536-3.489,6.8-6.026,9.717c-5.79,6.656-10.883,6.153-15.053-1.693c-3.72-7-5.578-14.544-5.966-22.462
	C117.131,173.814,116.825,172.351,116.626,170.881z"/>
<path fill-rule="evenodd" clip-rule="evenodd" fill="#74A2D6" d="M164.593,73.61c-16.229-5.806-30.622-14.49-42.491-27.127
	c6.556-9.32,16.662-11.786,26.927-13.923c1.126-0.235,2.396-0.011,3.43-0.422c10.176-4.042,18.626,3.935,18.319,14.138
	c-0.257,8.511-1.569,16.773-3.949,24.909C166.475,72.393,165.829,73.254,164.593,73.61z"/>
<path fill-rule="evenodd" clip-rule="evenodd" fill="#F6D06F" d="M49.237,209.429c-0.691,0.449-1.377,0.907-2.074,1.346
	c-1.543,0.971-3.111,2.265-5.033,1.363c-2.323-1.091-0.864-3.183-0.993-4.855c-0.034-0.449-0.222-0.887-0.33-1.294
	c-2.224-0.404-3.067,3.815-5.533,1.626c-2.008-1.786-1.337-4.329-1.025-6.589c0.25-1.793,0.962-3.517,1.355-5.297
	c0.489-2.212,2.638-4.182-0.71-6.597c-1.955-1.41-0.248-4.722,1.042-6.856c3.629-6.002,8.125-11.311,13.319-16.025
	c4.287,3.318,7.677,7.6,12.068,10.855c4.728,3.506,9.697,6.268,15.403,7.696c0.959,0.24,1.925,0.527,2.515,1.439
	c-1.668,5.333-2.718,10.978-6.62,15.28c-1.407,1.552-2.956,4.74-5.685,1c-0.971-1.33-2.037-0.027-2.812,0.789
	c-1.249,1.316-2.436,2.689-3.675,4.016c-2.934,3.139-5.987,4.563-9.367,0.577c-1.1-0.221-0.908-1.647-1.903-2.025
	C48.16,207.085,49.725,208.252,49.237,209.429z"/>
<path fill-rule="evenodd" clip-rule="evenodd" fill="#74A2D6" d="M79.242,186.241c-13.183-1.883-22.467-9.613-29.986-19.992
	c-0.306-3.054-1.206-6.229,1.73-8.636c2.83,1.33,4.304,4.055,6.196,6.279c5.554,6.533,12.119,11.698,19.823,15.479
	c-10.484-7.391-20.897-14.85-26.438-27.046c-2.685-3.636-2.314-7.151,0.409-10.577c10.593,19.198,28.245,28.29,48.396,33.802
	c-1.211,2.949-3.449,5.46-6.373,5.774C87.909,181.873,83.828,184.644,79.242,186.241z"/>
<path fill-rule="evenodd" clip-rule="evenodd" fill="#F5D06F" d="M173.902,207.051c-3.62-0.208-4.36,1.711-3.43,5.022
	c0.428,1.521,1.331,3.724-0.492,4.5c-2.066,0.88-2.708-1.497-3.195-2.912c-1.712-4.979-4.235-6.696-8.847-2.93
	c-0.91,0.743-2.41,1.626-3.606,0.421c-1.01-1.017-0.184-2.302,0.399-3.189c1.439-2.197,1.271-3.821-0.976-5.367
	c-1.129-0.776-2.809-1.697-1.836-3.545c0.772-1.469,2.56-1.201,3.597-0.813c4.566,1.707,7-0.645,9.158-4.143
	c1.066-1.728,2.671-3.31,4.914-2.501c2.21,0.797,1.733,2.988,1.526,4.748c-0.391,3.304,1.134,5.368,3.96,6.705
	c1.122,0.532,2.935,0.563,2.379,2.462C176.997,207.076,175.396,206.902,173.902,207.051z"/>
<path fill-rule="evenodd" clip-rule="evenodd" fill="#F4CF6F" d="M28.516,22.597c-0.659,3.645,0.596,6.27,4.321,8.211
	c2.196,1.144,0.524,2.595-1.171,2.723c-3.313,0.25-4.88,1.392-3.636,4.959c0.402,1.157,0.763,2.884-1.014,3.301
	c-1.452,0.34-1.914-1.354-2.201-2.256c-1.519-4.767-3.957-6.02-8.034-2.572c-0.77,0.651-1.675,1.199-2.646,0.32
	c-0.763-0.691-0.487-1.64-0.104-2.283c1.302-2.185,1.188-3.959-1.012-5.487c-0.809-0.562-1.603-1.41-1.094-2.49
	c0.485-1.033,1.762-1.267,2.607-0.949c4.307,1.618,6.729-0.572,8.824-3.911c0.68-1.084,1.75-2.066,3.285-1.829
	C27.752,20.504,28.372,21.217,28.516,22.597z"/>
<path fill-rule="evenodd" clip-rule="evenodd" fill="#574660" d="M50.566,152.326c2.937,2.31,4.336,5.82,6.705,8.585
	c5.893,6.875,12.746,12.556,20.561,17.116c1.15,0.67,3.324,1.185,2.081,3.159c-0.998,1.584-2.389,0.188-3.464-0.397
	c-10.371-5.651-19.139-13.076-25.462-23.178C50.509,155.877,47.424,154.35,50.566,152.326z"/>
<path fill-rule="evenodd" clip-rule="evenodd" fill="#6D5961" d="M49.237,209.429c-1.166-1.351-3.385-2.313-1.577-4.712
	c0.611-0.813,1.228-1.765,2.268-1.413c2.604,0.879,0.157,3.203,1.156,4.6C50.468,208.412,49.853,208.921,49.237,209.429z"/>
<path fill-rule="evenodd" clip-rule="evenodd" fill="#EF87B1" d="M144.266,79.231c2.959,12.003,0.845,19.943-6.67,25.051
	c-7.534,5.123-20.182,3.055-28.309-4.724c-5.914-5.661-8.218-12.459-5.39-20.359c2.996-8.37,9.106-13.625,17.903-14.632
	C135.391,63.01,141.288,67.146,144.266,79.231z"/>
<path fill-rule="evenodd" clip-rule="evenodd" fill="#F5D06F" d="M122.931,163.119c-0.635,0.578-1.269,1.155-1.904,1.734
	c-2.978,0.659-5.56-0.656-8.155-1.72c-3.307-1.354-4.53-3.863-3.261-7.237c4.575-12.155,12.14-22.437,20.439-32.239
	c1.239-1.463,2.888-1.423,4.592-0.984c3.213,0.828,6.505,1.402,9.449,3.063c0.257,1.237-0.212,2.248-0.978,3.167
	c-0.319,0.095-0.677,0.288-0.965,0.205c-7.881-2.249-12.143,1.775-15.83,8.198c-2.949,5.133-7.158,9.535-9.92,14.867
	c-2.2,4.248-1.892,5.106,2.233,7.454C120.23,160.536,122.688,160.508,122.931,163.119z"/>
<path fill-rule="evenodd" clip-rule="evenodd" fill="#F5D070" d="M73.063,91.366c0.427-1.202,1.525-1.328,2.54-1.588
	c2.808,2.035,5.607,4.081,8.426,6.1c3.475,2.489,3.896,5.356,1.491,8.927c-6.113,9.075-13.179,17.396-20.147,25.796
	c-2.193,2.645-4.73,2.823-7.429,0.874c-3.078-2.222-6.088-4.535-9.126-6.812c0.346-1.063,0.693-2.125,1.039-3.187
	c3.387-0.083,5.132,2.825,7.662,4.289c2.572,1.489,4.523,1.384,6.598-0.873c5.204-5.66,9.531-11.959,13.856-18.277
	c2.547-3.722,2.447-6.983-0.96-10.194C75.478,94.974,73.738,93.547,73.063,91.366z"/>
<path fill-rule="evenodd" clip-rule="evenodd" fill="#64546B" d="M85.422,135.678c2.706,0.975,5.614,2.129,7.586,4.623
	c0.653,0.826-0.377,2.165-1.429,1.908c-2.887-0.707-5.512-2.168-7.576-4.304C83.135,137.008,84.034,136.129,85.422,135.678z"/>
<path fill-rule="evenodd" clip-rule="evenodd" fill="#63536A" d="M96.884,133.332c0.07,1.158-0.33,2.105-1.245,1.994
	c-2.954-0.355-5.01-2.395-6.841-4.47c-0.684-0.775,0.293-2.252,1.319-2.008C92.912,129.516,95.012,131.432,96.884,133.332z"/>
<path fill-rule="evenodd" clip-rule="evenodd" fill="#66566D" d="M100.27,116.925c1.907,1.314,4.942,1.665,6.236,4.429
	c0.282,0.603-0.434,1.854-1.346,1.611c-2.675-0.71-5.386-1.613-6.65-4.397C98.219,117.925,98.751,116.963,100.27,116.925z"/>
<path fill-rule="evenodd" clip-rule="evenodd" fill="#65556C" d="M101.796,127.152c0.304,1.166-0.22,2.244-0.88,2.223
	c-2.801-0.089-4.851-1.8-6.526-3.855c-0.583-0.716,0.056-1.996,0.809-1.976C98.022,123.621,99.947,125.529,101.796,127.152z"/>
<path fill-rule="evenodd" clip-rule="evenodd" fill="#F6D06F" d="M51.341,118.963c5.558-9.43,12.06-18.134,19.891-25.813
	c7.788,3.927,8.996,7.762,4.545,15.007c-3.052,4.968-6.743,9.485-10.41,14.003c-3.578,4.405-4.883,4.561-9.55,1.317
	C54.057,122.254,52.112,121.182,51.341,118.963z"/>
<path fill-rule="evenodd" clip-rule="evenodd" fill="#5A485E" d="M51.341,118.963c1.778,1.188,3.772,2.148,5.29,3.607
	c3.297,3.168,5.571,2.231,7.903-1.176c3.45-5.039,7-10.026,10.78-14.82c3.107-3.94,2.646-7.105-1.101-10.181
	c-1.125-0.923-1.995-2.157-2.981-3.245c0.61-0.594,1.219-1.188,1.83-1.784c0.683,0.46,1.428,0.85,2.037,1.391
	c7.892,7.008,8.049,8.316,2.201,16.97c-3.805,5.631-8.022,10.937-12.334,16.185c-2.483,3.025-4.931,3.526-8.012,0.992
	c-2.299-1.892-4.728-3.623-7.097-5.426C50.352,120.64,50.846,119.803,51.341,118.963z"/>
<path fill-rule="evenodd" clip-rule="evenodd" fill="#F6D06F" d="M141.76,132.099c-4.231,10.229-10.178,19.456-16.579,28.418
	c-3.659,0.493-6.84-1.182-8.418-3.943c-1.444-2.527,0.771-5.308,2.33-7.688c3.542-5.407,7.796-10.293,11.368-15.687
	C133.32,128.884,137.43,128.628,141.76,132.099z"/>
<path fill-rule="evenodd" clip-rule="evenodd" fill="#5A485E" d="M141.76,132.099c-7.528-2.199-7.479-2.165-11.754,3.99
	c-3.683,5.304-7.536,10.487-11.235,15.78c-2.02,2.889-2.27,5.272,2.008,6.385c1.559,0.405,2.94,1.489,4.402,2.263
	c-0.026,1.493-0.705,2.422-2.25,2.603c-0.119-0.115-0.219-0.271-0.359-0.344c-11.144-5.682-11.233-5.741-4.229-16.375
	c3.659-5.555,7.67-10.883,11.582-16.268c3.898-5.365,8.676-2.029,13.188-1.23C143.498,130.321,143.642,131.64,141.76,132.099z"/>
<path fill-rule="evenodd" clip-rule="evenodd" fill="#69555F" d="M59.002,188.624c-0.363,1.923-1.127,3.675-3.034,4.62
	c-0.858,0.426-1.791-0.009-1.876-0.906c-0.203-2.13,1.09-3.726,2.618-4.907C57.564,186.77,58.543,187.457,59.002,188.624z"/>
<path fill-rule="evenodd" clip-rule="evenodd" fill="#634F5F" d="M48.784,179.724c-0.43,1.988-1.49,3.815-3.368,5.007
	c-0.796,0.505-1.818-0.025-1.867-0.958c-0.129-2.421,1.416-4.021,3.254-5.246C47.615,177.987,48.346,178.61,48.784,179.724z"/>
<path fill-rule="evenodd" clip-rule="evenodd" fill="#624F5F" d="M64.674,197.093c-0.946,0.338-1.924,0.345-2.115-0.598
	c-0.467-2.288,0.861-3.99,2.462-5.324c0.714-0.597,1.685,0.187,1.83,0.982C67.24,194.269,66.293,195.903,64.674,197.093z"/>
<path fill-rule="evenodd" clip-rule="evenodd" fill="#5C4A5E" d="M46.229,193.836c-0.24,1.531-0.82,3.098-2.536,3.763
	c-0.789,0.307-1.803-0.089-1.684-1.189c0.183-1.692,0.905-3.275,2.493-4.046C45.337,191.957,46.011,192.703,46.229,193.836z"/>
<path fill-rule="evenodd" clip-rule="evenodd" fill="#B5C7E7" d="M140.37,80.233c2.667,9.766-2.55,19.934-11.479,22.37
	c-8.354,2.279-18.679-3.819-21.063-12.441c-2.455-8.877,2.607-17.853,11.409-20.231C129.36,67.195,137.954,71.385,140.37,80.233z"/>
</svg>
