<?xml version="1.0" encoding="utf-8"?>
<!-- Generator: Adobe Illustrator 16.0.0, SVG Export Plug-In . SVG Version: 6.00 Build 0)  -->
<!DOCTYPE svg PUBLIC "-//W3C//DTD SVG 1.1//EN" "http://www.w3.org/Graphics/SVG/1.1/DTD/svg11.dtd">
<svg version="1.1" id="Layer_1" xmlns="http://www.w3.org/2000/svg" xmlns:xlink="http://www.w3.org/1999/xlink" x="0px" y="0px"
	 width="1920px" height="1080px" viewBox="0 0 1920 1080" enable-background="new 0 0 1920 1080" xml:space="preserve">
<path fill="#CD4138" d="M1223.99,930.088c-0.9,0.447-1.5,2.609-1.68,3.634c-0.051,1.072-0.23,3.887-0.561,6.57
	c-0.42,3.355-1.4,8.807,1.4,14.818c2.789,6.01,5.449,9.364,6.289,10.623c0.671,1.007,0.28,1.817,0,2.097
	c-4.619,4.054-8.109,3.495-12.579,10.065c-4.48,6.569-6.011,9.924-5.73,11.183c0.22,1.006,0.09,2.096,0,2.516
	c-0.42,1.677,0.14,4.752,2.79,3.075c2.66-1.677,2.94-1.677,3.92-1.957c0.971-0.28,5.87,0.699,11.6-0.14
	c4.58-0.671,7.221-1.771,7.971-2.236c1.39-0.699,4.13-1.762,3.91-0.42c-0.221,1.342,0.09,2.889,0.279,3.495
	c1.12,3.634,0.28,6.43,1.4,7.688c0.89,1.011,1.11,2,1.11,2.38c-0.11,2.011,0.52,3.261,0.84,3.631c2.1,3.91,0.979,3.08,3.36,6.149
	c2.369,3.08,3.909,3.91,4.89,5.311c0.78,1.12,1.17,0.649,1.26,0.279c1.26-4.329,2.65-5.029,3.07-6.43
	c0.42-1.399,2.939-2.79,3.64-5.31c0.7-2.521,3.49-5.311,3.21-7.688c-0.22-1.901,0.101-3.681,0.28-4.334
	c0.279-0.838,0.84-2.963,0.84-4.752c0-2.237,1.68-3.775,2.1-4.194s1.82,0.141,5.311,1.957c3.5,1.817,7.27,3.075,10.21,2.937
	c2.93-0.14,5.45-0.42,7.54-1.398c2.1-0.979,2.939-0.279,4.62-0.698c1.67-0.421,2.37-0.56,3.35-1.398
	c0.78-0.671,3.03-1.398,4.06-1.678c1.341-0.224,1.49-1.118,1.391-1.537c0.109-0.447-2.28-2.145-3.49-2.937
	c-2.01-1.443-6.57-4.836-8.81-6.849c-2.79-2.516-4.05-2.936-5.17-3.355c-1.12-0.419-1.82-0.839-2.66-1.816
	c-0.83-0.979-3.07-2.377-4.47-2.656c-1.12-0.224-2.141-0.932-2.521-1.258c-0.89-0.671-0.46-1.398-0.14-1.678
	c3.22-3.494,5.319-7.968,5.6-10.764s1.67-6.15,1.53-7.828s1.96-2.655,2.38-3.494c0.42-0.84,0.28-1.259-0.84-1.259h-9.221
	c-3.25,0-5.459,0.56-6.149,0.839c0,0-4.48,1.678-7.271,3.075c-2.8,1.398-5.039,4.055-6.01,4.753c-0.979,0.699-1.68,1.537-3.08,1.118
	c-1.12-0.335-2.42-0.419-2.939-0.419c-1.95,0-3.49-0.42-5.03-2.796c-1.229-1.901-2.84-3.495-3.49-4.054
	c-3.64-2.936-3.64-2.936-8.11-4.613c-4.47-1.677-5.449-3.495-6.569-5.032C1226.5,931.765,1225.1,929.529,1223.99,930.088z"/>
<path fill="#E66C5A" d="M1231.67,943.926c-1,0-1.63,0.838-1.81,1.258c-0.7,1.398,0,2.236,0.7,2.098
	c0.699-0.141,1.39-0.839,1.67-1.398C1232.51,945.324,1232.93,943.926,1231.67,943.926z"/>
<path fill="#E66C5A" d="M1234.33,947.56c-0.561,0.112-1.26,0.792-1.54,1.118c-0.42,0.839-0.28,0.561-0.42,1.119
	c-0.14,0.56,0.7,1.677,1.68,1.118c0.98-0.559,1.54-1.258,1.54-2.237C1235.59,947.7,1235.03,947.42,1234.33,947.56z"/>
<path fill="#E66C5A" d="M1238.1,951.474c-0.689-0.559-1.67,0.419-1.67,0.56c-0.699,0.839-0.42,1.957,0.42,1.678
	C1237.689,953.431,1238.8,952.033,1238.1,951.474z"/>
<path fill="#E66C5A" d="M1240.48,953.711c-0.841-0.14-1.681,0.699-1.681,0.838c-0.56,0.671-0.6,1.119-0.56,1.258
	c0.279,0.839,0.84,1.119,1.54,0.979c0.7-0.141,1.399-1.398,1.399-1.817C1241.18,954.549,1241.32,953.85,1240.48,953.711z"/>
<path fill="#E66C5A" d="M1242.16,959.442c-1.01,0.111-1.17-0.979-1.12-1.538c0.28-0.979,1.12-0.979,1.54,0.279
	C1242.91,959.19,1242.439,959.442,1242.16,959.442z"/>
<path fill="#E66C5A" d="M1243.7,961.678c-0.561,0.112-0.61-0.792-0.561-1.258c0-0.093,0.11-0.279,0.561-0.279
	c0.56,0,0.84,0.419,0.7,0.979C1244.28,961.567,1243.88,961.678,1243.7,961.678z"/>
<path fill="#E66C5A" d="M1244.95,964.894c-0.33-0.447,0.05-1.118,0.28-1.397c0.56-0.14,0.56-0.14,0.979-0.14s1.12,0.419,1.12,0.839
	c0,0.419,0.14,1.258-0.7,1.537S1245.37,965.453,1244.95,964.894z"/>
<path fill="#E66C5A" d="M1248.03,965.453c-0.22-1.23,0.84-1.911,1.399-2.097c1.12-0.28,3.07,0.698,2.65,2.097
	c-0.42,1.397-1.11,1.677-1.811,1.817C1249.57,967.41,1248.311,966.99,1248.03,965.453z"/>
<path fill="#E66C5A" d="M1250.41,962.797c-0.45-0.448,0-1.397,0.279-1.817c0.971-0.698,0.83,0.42,0.83,0.56
	C1251.52,961.678,1250.97,963.356,1250.41,962.797z"/>
<path fill="#E66C5A" d="M1251.38,959.861c-0.22-0.447,0.38-1.305,0.7-1.678c0.7-0.559,0.28,0.84,0.14,0.979
	C1252.08,959.302,1251.66,960.42,1251.38,959.861z"/>
<path fill="#E66C5A" d="M1252.22,957.205c-0.109-0.335,0.33-1.258,0.561-1.677c0.28-0.419,0.56-0.141,0.42,0.278
	c-0.11,0.336-0.32,0.793-0.42,0.979C1252.64,957.066,1252.34,957.541,1252.22,957.205z"/>
<path fill="#E66C5A" d="M1253.061,954.549c-0.11-0.335,0.05-0.792,0.14-0.978c0.16-0.512,0.7-0.419,0.7,0
	c0,0.335-0.19,0.699-0.28,0.839C1253.48,954.596,1253.17,954.885,1253.061,954.549z"/>
<path fill="#E66C5A" d="M1253.48,952.592c-0.11-0.335-0.051-0.885,0-1.118c0.42-0.698,0.699-0.14,0.56,0.56
	S1253.62,953.012,1253.48,952.592z"/>
<path fill="#E66C5A" d="M1254.46,968.388c-1.229-0.671-1.07-2.423-0.84-3.215c0.12-0.671,0.8-0.932,1.12-0.978
	c1.26,0.139,1.54,0.278,2.52,1.396c0.971,1.119,0.83,2.377,0.141,2.796C1256.7,968.808,1256,969.227,1254.46,968.388z"/>
<path fill="#E66C5A" d="M1255.16,963.356c-0.11-0.447,0.32-1.025,0.56-1.259c0.841,0,0.841,0.141,0.98,0.56s-0.28,1.118-0.7,1.118
	S1255.3,963.915,1255.16,963.356z"/>
<path fill="#E66C5A" d="M1257.95,961.119c-0.44-0.335-0.28-0.979-0.14-1.258c0.279-0.279,0.56-0.419,1.26,0
	c0.56,0.336,0.33,0.886,0.14,1.118C1258.98,961.166,1258.4,961.455,1257.95,961.119z"/>
<path fill="#E66C5A" d="M1260.189,958.324c0-0.561,0.471-1.072,0.7-1.258c0.28-0.141,1.261-0.28,1.4,0.139
	c0.14,0.42,0,1.258-0.7,1.538S1260.189,959.023,1260.189,958.324z"/>
<path fill="#E66C5A" d="M1263.13,955.528c-0.229-0.56,0.09-1.165,0.28-1.398c0.33-0.112,0.7-0.14,0.83-0.14
	c0.56,0,1.399,0.42,1.399,1.258c0,0.839-0.84,1.538-1.399,1.397C1263.689,956.506,1263.41,956.227,1263.13,955.528z"/>
<path fill="#E66C5A" d="M1265.92,953.291c-0.33-0.559,0.05-0.978,0.28-1.118c0.18-0.14,0.84-0.28,1.399,0.28
	c0.45,0.447,0.09,0.932-0.14,1.118C1267.09,953.711,1266.26,953.85,1265.92,953.291z"/>
<path fill="#E66C5A" d="M1269.42,950.915c-0.34-0.895,0.141-1.305,0.42-1.398c0.28-0.14,0.971-0.307,1.53,0.141
	s0.33,1.024,0.14,1.258C1270.95,951.288,1269.75,951.81,1269.42,950.915z"/>
<path fill="#E66C5A" d="M1273.05,947.42c-0.56-1.006-0.229-1.817,0-2.096c0.45-0.671,1.21-0.746,1.54-0.699
	c1.26,0.559,1.54,0.838,1.82,2.096c0.22,1.007-0.561,1.445-0.98,1.538C1274.87,948.399,1273.61,948.427,1273.05,947.42z"/>
<path fill="#E66C5A" d="M1277.38,943.786c0-0.447,0.47-0.746,0.7-0.839c0.98-0.419,1.82,0.14,1.54,0.839s-0.98,0.978-1.4,0.839
	C1277.8,944.485,1277.38,944.345,1277.38,943.786z"/>
<path fill="#E66C5A" d="M1259.07,966.152c-0.33-0.225,0.24-0.56,0.56-0.699c0.11-0.112,0.42-0.233,0.56-0.28
	c0.561,0.141,0.561,0.979,0.421,1.119C1260.47,966.431,1259.49,966.431,1259.07,966.152z"/>
<path fill="#E66C5A" d="M1263.97,964.894c-1.26,0-1.96,0.56-2.1,0.698c0,0.42-0.28,0.141,1.12,0.561
	c1.12,0.336,1.39-0.141,1.39-0.42C1264.5,965.061,1264.15,964.893,1263.97,964.894z"/>
<path fill="#E66C5A" d="M1266.2,965.592c-0.33-0.223,0.14-0.559,0.42-0.698l1.399-0.14c1.561,0.112,1.12,0.606,0.7,0.838
	C1268.02,965.686,1266.54,965.816,1266.2,965.592z"/>
<path fill="#E66C5A" d="M1274.311,964.754c-1.681-0.112-2.381,0.233-2.521,0.419c0.79,0.783,2.47,0.699,3.22,0.56
	C1275.47,965.453,1275.99,964.866,1274.311,964.754z"/>
<path fill="#E66C5A" d="M1258.79,973.141c-0.33-0.223-0.14-1.211,0-1.677c0.17-0.839,2.1-1.119,2.1,0c0,1.118,0,1.677-0.7,1.957
	C1259.49,973.7,1259.21,973.421,1258.79,973.141z"/>
<path fill="#E66C5A" d="M1263.97,974.539c-0.79-0.112-0.7-0.979-0.56-1.398c0.83-0.698,1.39,0,1.529,0.699
	C1265.08,974.539,1264.939,974.679,1263.97,974.539z"/>
<path fill="#E66C5A" d="M1267.32,975.238c-0.561-0.56-0.23-1.165,0-1.398c0.84-0.279,0.56-0.14,1.54,0.14
	c0.779,0.225,0.7,0.745,0.56,0.979C1268.95,975.285,1267.88,975.797,1267.32,975.238z"/>
<path fill="#E66C5A" d="M1271.09,976.496c-0.109-0.783,0.42-1.165,0.7-1.258c1.399-0.28,1.26,0.559,0.84,0.978
	C1272.21,976.636,1271.23,977.475,1271.09,976.496z"/>
<path fill="#E66C5A" d="M1274.59,978.173c-0.34-0.782,0.51-1.443,0.98-1.677c1.449-0.783,2.09-0.14,2.229,0.28
	c0,1.537-0.689,2.516-1.11,2.795c-0.42,0.279-1.119,0.42-1.119-0.14S1275.01,979.152,1274.59,978.173z"/>
<path fill="#E66C5A" d="M1279.62,978.733c-0.33-0.336,0.14-0.793,0.42-0.979c0.36-0.318,1.54-0.279,1.82,0
	c0.279,0.28,0,0.979-0.28,1.258C1281.3,979.292,1280.04,979.152,1279.62,978.733z"/>
<path fill="#E66C5A" d="M1284.93,980.55c-0.109-1.118,0.521-1.678,0.84-1.816c1.4-0.28,1.12,0.698,0.841,1.537
	C1286.33,981.109,1285.07,981.948,1284.93,980.55z"/>
<path fill="#E66C5A" d="M1288.43,982.507c0-0.671,0.561-1.305,0.84-1.538c0.67-0.671,1.301-0.278,1.53,0
	c0.42,0.979-0.689,2.656-1.25,2.796C1288.99,983.905,1288.43,983.346,1288.43,982.507z"/>
<path fill="#E66C5A" d="M1292.62,983.485c-0.11-0.671,0.33-1.211,0.56-1.398c1.681-0.419,1.54,0.42,1.12,1.119
	S1292.76,984.324,1292.62,983.485z"/>
<path fill="#E66C5A" d="M1295.84,983.206c0.33-0.224,1.07-0.373,1.391-0.42c0.279-0.048,1.119,0,1.119,0.42
	c0,0.419-0.279,0.838-1.119,0.838C1296.4,984.044,1295.42,983.485,1295.84,983.206z"/>
<path fill="#E66C5A" d="M1253.62,972.862c-0.33-0.448-0.14-1.398,0-1.818c0.67-0.894,1.59-0.559,1.96-0.279
	c0.23,0.467,0.59,1.537,0.14,2.098C1255.16,973.561,1254.04,973.421,1253.62,972.862z"/>
<path fill="#E66C5A" d="M1255.86,975.098c-0.11,0.671-0.7,0.094-0.98-0.278c0-0.42,0-0.979,0.28-0.979
	C1255.439,973.84,1256,974.259,1255.86,975.098z"/>
<path fill="#E66C5A" d="M1256.28,975.937c-0.23,0.112-0.101,0.513,0,0.699c0.42,0.839,1.26,1.118,1.26,0.56
	C1257.54,976.636,1256.561,975.797,1256.28,975.937z"/>
<path fill="#E66C5A" d="M1257.95,977.754c-0.33,0.224-0.14,0.746,0,0.979c1.26,1.258,1.26,0.559,1.26,0.139
	C1259.21,978.453,1258.37,977.475,1257.95,977.754z"/>
<path fill="#E66C5A" d="M1259.63,979.991c0,0.838,0.98,1.397,1.26,1.537c1.261,0.42,0.7-0.56,0.28-1.118
	C1260.75,979.851,1259.63,979.152,1259.63,979.991z"/>
<path fill="#E66C5A" d="M1262.15,981.948c0,0.419,1.539,1.537,1.539,1.816c1.11,1.538,1.671,0.84,1.391,0.279
	c-0.22-0.447-1.02-1.211-1.391-1.537C1263.41,982.227,1262.15,981.528,1262.15,981.948z"/>
<path fill="#E66C5A" d="M1247.47,975.238c-0.45-0.56-0.37-1.259-0.28-1.538c0.7-0.699,1.261-0.56,1.961-0.279
	c0.699,0.279,0.84,1.677,0.42,2.097C1249.15,975.937,1248.03,975.937,1247.47,975.238z"/>
<path fill="#E66C5A" d="M1245.93,977.195c-0.04-0.419,0.09-1.259,0.98-1.259C1248.03,975.937,1246.63,977.754,1245.93,977.195z"/>
<path fill="#E66C5A" d="M1245.51,977.754c-0.67,0.37-1.02,1.086-1.109,1.398c0,0.559,0.27,0.839,0.689,0.419
	C1245.51,979.152,1246.35,977.292,1245.51,977.754z"/>
<path fill="#E66C5A" d="M1244.12,980.41c-0.681,0.576-0.94,1.824-0.98,2.376c-0.05,0.28,0,0.755,0.561,0.42
	c0.56-0.336,0.88-1.072,0.97-1.398C1244.77,981.102,1244.79,979.834,1244.12,980.41z"/>
<path fill="#E66C5A" d="M1242.3,987.26c0.67-0.895,0.561-2.051,0.42-2.517c-0.42-1.258-0.84,1.119-1.26,2.097
	c-0.42,0.979-0.14,1.538,0.14,1.258C1241.82,987.875,1242.16,987.446,1242.3,987.26z"/>
<path fill="#E66C5A" d="M1250.83,975.518c-0.23-0.56,0.55-1.259,0.97-1.538c0.38-0.279,1.15-0.698,1.261-0.14
	c0.14,0.699-0.421,1.258-0.561,1.398C1252.36,975.378,1251.11,976.216,1250.83,975.518z"/>
<path fill="#E66C5A" d="M1251.52,978.733c-0.439-0.112-0.279-0.699-0.14-0.979c0.7-0.699,1.12-0.559,1.26,0
	C1252.78,978.313,1252.08,978.872,1251.52,978.733z"/>
<path fill="#E66C5A" d="M1250.689,981.249c-0.229-0.448,0.091-0.932,0.28-1.119c0.55-0.447,0.97-0.186,1.11,0
	c0.14,0.233,0.34,0.783,0,1.119C1251.66,981.668,1250.97,981.808,1250.689,981.249z"/>
<path fill="#E66C5A" d="M1250.97,982.507c-0.899,0-1.78,0.839-2.1,1.258c-0.28,0.513-0.76,1.649-0.42,2.098
	c0.42,0.559,1.54,0.559,2.52,0.419c0.97-0.141,1.67-0.56,1.67-1.957C1252.64,982.926,1252.08,982.507,1250.97,982.507z"/>
<path fill="#E66C5A" d="M1249.43,989.077c-0.449-0.112-0.1-0.886,0.141-1.258c1.119-0.84,1.949-0.56,1.81,0.278
	C1251.24,988.937,1249.99,989.217,1249.43,989.077z"/>
<path fill="#E66C5A" d="M1251.52,992.851c-1.67,0.783-2.93,0.141-3.35-0.279c-0.23-0.372-0.42-1.342,0.7-2.236s2.42-0.373,2.93,0
	C1252.41,990.847,1253.2,992.068,1251.52,992.851z"/>
<path fill="#E66C5A" d="M1250.13,995.227c-0.67,0.337-0.75,0.887-0.7,1.119c1.26,0.838,2.65,0,2.37-0.56
	S1250.97,994.808,1250.13,995.227z"/>
<path fill="#E66C5A" d="M1251.38,997.743c-1.11,0.336-1.49,1.165-1.53,1.538c0.7,1.818,2.23,1.259,3.211,1.119
	c0.979-0.141,1.539-1.119,0.979-1.958C1253.48,997.604,1252.78,997.324,1251.38,997.743z"/>
<path fill="#E66C5A" d="M1251.8,1002.64c-1-0.119-1.16,0.69-1.11,1.11c0.28,1.12,1.11,0.84,1.391,0.84
	S1253.061,1002.78,1251.8,1002.64z"/>
<path fill="#E66C5A" d="M1252.08,1008.79c0.9-0.79,0-1.45-0.561-1.68c-1.529,0.279-1.109,1.26-0.83,1.68
	C1250.97,1009.21,1250.97,1009.771,1252.08,1008.79z"/>
<path fill="#E66C5A" d="M1251.52,1012.42c-0.779,0-0.689-0.93-0.55-1.399c0.67-0.561,1.21-0.041,1.391,0.279
	C1252.41,1011.68,1252.311,1012.42,1251.52,1012.42z"/>
<path fill="#E66C5A" d="M1244.811,970.765c-0.891-1.229-0.091-2.282,0.42-2.655c0.42-0.415,0.699-0.141,1.26-0.28
	c0.56-0.139,1.82,0.559,1.54,2.237c-0.28,1.678-1.82,1.957-2.24,1.677C1245.46,971.521,1245,970.998,1244.811,970.765z"/>
<path fill="#E66C5A" d="M1244.4,967.55c-0.12-0.448-1.261-0.373-1.82-0.279c-0.7,0.067-0.42,0.839,0.56,1.117
	C1244.12,968.668,1244.54,968.109,1244.4,967.55z"/>
<path fill="#E66C5A" d="M1240.9,967.271c-0.33-0.225-0.881-0.094-1.12,0c-1.4,0.278,0,0.839,0.7,0.839
	C1241.18,968.109,1241.32,967.55,1240.9,967.271z"/>
<path fill="#E66C5A" d="M1237.55,967.829c0.44-0.447-0.56-0.559-1.12-0.559c-1.34,0.223-1.119,0.466-0.84,0.559
	C1236.05,968.016,1237.1,968.276,1237.55,967.829z"/>
<path fill="#E66C5A" d="M1233.63,967.55c0.11-0.448-0.88-0.559-1.399-0.559c-0.67,0-0.561,0.186-0.42,0.279
	C1232.37,967.55,1233.52,967.997,1233.63,967.55z"/>
<path fill="#E66C5A" d="M1244.12,971.044c-0.681-0.335-1.59,0.606-1.96,1.119c-0.98,1.677,0.84,0.559,1.26,0.419
	S1244.95,971.464,1244.12,971.044z"/>
<path fill="#E66C5A" d="M1240.2,974.539c0.11-0.56-0.23-1.351-0.42-1.677c-1.12-0.561-0.98-0.28-2.23,0.559
	c-1.01,0.671-0.42,1.677,0,2.097C1239.22,976.496,1240.061,975.238,1240.2,974.539z"/>
<path fill="#E66C5A" d="M1235.87,977.195c-0.56,0-1.12-1.259-0.98-1.957c0.841-1.259,1.54-0.699,1.96,0.698
	C1237.18,977.055,1236.33,977.242,1235.87,977.195z"/>
<path fill="#E66C5A" d="M1233.63,976.822c-0.78-0.298-1.35,0.218-1.54,0.513c-0.56,0.895,0.05,1.398,0.42,1.537
	c1.4,0.14,1.54-0.419,1.68-0.559C1234.33,978.173,1234.61,977.195,1233.63,976.822z"/>
<path fill="#E66C5A" d="M1229.58,979.711c-0.34-0.671,0.14-1.397,0.42-1.677c0.439-0.336,0.74-0.047,0.84,0.139
	c0.42,1.119,0.141,1.678,0,1.957C1230.7,980.41,1230,980.55,1229.58,979.711z"/>
<path fill="#E66C5A" d="M1224.97,980.69c-0.12-1.119,0.41-1.771,0.69-1.957c0.7-0.514,2.18-1.259,2.52-0.141
	c0.42,1.398,0.561,2.796,0.141,3.914c-0.34,0.895-1.351,0.745-1.82,0.56C1226.22,983.066,1225.1,982.087,1224.97,980.69z"/>
<path fill="#E66C5A" d="M1224.13,983.346c-0.12-1.007-1.08-1.352-1.54-1.397c-0.189,0-0.64,0.139-0.979,0.699
	c-0.421,0.698,0.56,0.978,1.12,1.396C1223.29,984.464,1224.27,984.604,1224.13,983.346z"/>
<path fill="#E66C5A" d="M1219.23,985.442c-0.971,0-1.25-1.118-1.25-1.259c0-0.782,0.279-1.07,0.42-1.117
	c0.779-0.447,1.35,0.186,1.529,0.559C1220.03,984.231,1220.02,985.442,1219.23,985.442z"/>
<path fill="#E66C5A" d="M1216.439,985.163c-0.42,0.14-0.42,0.699-0.42,0.838c-0.109,0.895,0.23,0.932,0.42,0.839
	c0.371-0.14,1.121-0.531,1.121-0.978C1217.561,985.303,1216.86,985.023,1216.439,985.163z"/>
<path fill="#E66C5A" d="M1215.6,988.797c0.33-0.559-0.05-0.978-0.279-1.118c-0.45-0.111-0.65,0.047-0.7,0.141
	c-0.45,0.559-0.37,0.885-0.28,0.978C1215.01,989.133,1215.46,988.937,1215.6,988.797z"/>
<path fill="#E66C5A" d="M1212.52,990.894c-0.14-0.279,0.28-1.397,0.42-1.397c0.19-0.14,0.591-0.335,0.7,0
	c0.11,0.336,0.05,0.605,0,0.699C1213.64,990.475,1212.66,991.174,1212.52,990.894z"/>
<path fill="#E66C5A" d="M1248.73,972.023c-0.11-0.447,0.42-0.84,0.699-0.979c0.181-0.093,0.641-0.167,0.98,0.28
	c0.42,0.559,0,1.258-0.42,1.538C1249.57,973.141,1248.87,972.582,1248.73,972.023z"/>
<path fill="#E66C5A" d="M1250.27,969.926c-0.42,0.141-0.84-0.978-0.84-1.118c-0.109-0.335-0.05-0.698,0-0.839
	c0.7-0.278,1.26-0.14,1.681,0.56C1251.52,969.227,1250.689,969.786,1250.27,969.926z"/>
<path fill="#E66C5A" d="M1251.38,970.765c-0.11-0.559,0.7-0.979,1.12-1.117c0.98,0,0.14,1.396,0,1.816
	C1252.36,971.883,1251.52,971.464,1251.38,970.765z"/>
<g>
	<path fill-rule="evenodd" clip-rule="evenodd" fill="#F0D2E4" d="M1186.251,973.835c4.263-9.282,11.258-15.839,20.303-20.35
		c1.125,0.21,0.732,1.133,0.796,1.79c0.157,1.623-0.451,3.198-0.233,4.859c0.564,4.294,3.283,7.062,6.49,9.514
		c0.83,0.636,1.729,1.18,2.646,1.688c1.529,1.067,3.273,1.695,4.994,2.343c1.955,0.737,2.513,0.243,2.303-1.872
		c-0.09-0.915-0.377-1.807-0.349-2.737c0.009-0.295,0.062-0.571,0.347-0.74c0.787-0.325,1.558-0.342,2.307,0.104
		c0.478,0.771,0.789,1.598,1.695,2.122c1.016,0.588,0.846,1.505,0.1,2.362c-1.243,1.432-0.93,2.486,0.957,2.971
		c4.529,1.162,9.15,1.822,13.794,2.292c8.199,0.832,16.384,0.825,24.563-0.402c4.501-0.677,8.99-1.384,13.426-2.413
		c0.854-0.197,1.691-0.405,2.482-0.813c1.369-0.707,2.146-1.672,1.988-3.327c-0.109-1.154,0.013-2.331,0.258-3.479
		c0.922-0.834,1.686,0.058,2.516,0.229c0.555,1.034,0.459,2.301,1.301,3.272c0.455,0.524-0.09,1.174-0.539,1.924
		c1.986-1.087,4.377-1.027,5.4-3.295c0.75,0.308,1.404,0.211,2.125-0.223c1.451-0.876,2.824-1.852,4.047-3.012
		c2.127-2.016,3.824-4.189,3.176-7.47c-0.277-1.401-0.041-2.896-0.068-4.35c-0.01-0.495-0.217-1.271,0.799-0.967
		c2.494,1.148,4.898,2.446,7.039,4.187c0.594,0.815,1.139,1.647,0.996,2.729c-0.031,0.144-0.088,0.28-0.163,0.404
		c-0.472,0.438,0.19,0.695,0.183,1.063c0.167,0.767,0.148,1.535,0.061,2.305c-0.029,0.17-0.084,0.334-0.154,0.491
		c-0.549,0.638-0.828,1.307-0.406,2.151c0.206,0.413,0.139,0.88-0.051,1.314c-1.879,5.715-5.738,9.932-10.334,13.564
		c-7.769,6.141-16.725,9.846-26.122,12.624c-7.957,2.353-16.062,4.01-24.303,4.936c-3.989,0.448-7.985,0.912-12.009,0.927
		c-5.248,0.019-10.494,0.002-15.742,0.006c-2.914,0.002-5.807-0.299-8.696-0.645c-0.581-0.07-1.161-0.092-1.735,0.044
		c-1.371,0.185-2.457-0.652-3.625-1.107c-5.296-2.064-10.316-4.603-14.393-8.713c-1.129-1.14-1.947-2.461-2.717-3.832
		c-0.317-0.564-0.58-1.162-0.236-1.822c0.243-0.47,0.214-0.919-0.18-1.275c-0.706-0.64-1.279-1.735-2.461-1.233
		c-1.21,0.515-0.894,1.642-0.701,2.601c0.883,4.386,3.729,7.412,7.073,10.071c0.637,0.507,1.368,0.898,1.935,1.491
		c0.26,0.271,0.677,0.579,0.141,0.992c-3.12-0.056-6.068-0.875-8.942-2.02c-2.522-2.53-3.716-5.694-4.341-9.13
		C1183.321,981.665,1183.906,977.586,1186.251,973.835z"/>
	<path fill-rule="evenodd" clip-rule="evenodd" fill="#E8B7CE" d="M1311.598,965.057c0.001-0.117,0.001-0.234,0.003-0.352
		c0.37-1.162,0.175-2.326,0.008-3.489c0.127-1.137-0.559-2.096-0.695-3.174c5.618,3.697,9.86,8.576,12.631,14.718
		c0.352,0.777,0.555,1.662,1.449,2.059c0.787,3.06,1.351,6.145,1.102,9.327c-0.056,0.711,0.219,1.377,0.316,2.066
		c-1.426,1.835-1.601,4.261-2.933,6.158c-0.691,0.985-1.235,2.073-2.105,2.931c-2.308,2.622-5.019,4.766-7.935,6.649
		c0.994,1.274,2.375,1.875,3.867,2.286c1.197,0.452,2.342,0.981,3.046,2.137c-0.128,0.343-0.524,0.607-0.307,1.051
		c-1.544,2.003-3.078,4.014-4.637,6.006c-0.39,0.498-0.858,0.936-1.29,1.402c-0.874,0.189-1.366-0.495-1.93-0.915
		c-1.408-1.05-3.097-1.709-4.282-3.068c-0.147-1.316,0.621-2.414,0.868-3.637c0.178-0.829,0.986-1.845,0.303-2.443
		c-0.707-0.62-1.566,0.376-2.336,0.694c-8.214,3.393-16.758,5.572-25.514,6.968c-1.882,0.3-3.729,0.989-5.686,0.602
		c-0.603-0.023-1.234-0.193-1.721,0.354c-2.801,0.909-5.738,0.875-8.619,1.194c-5.455,0.603-10.939,0.38-16.414,0.376
		c-4.195-0.004-8.367-0.447-12.543-0.802c-0.488-0.908-1.307-0.819-2.133-0.702c-1.969,0.614-3.836-0.327-5.763-0.39
		c-0.568-0.018-1.13-0.192-1.69-0.303c-6.375-1.092-12.609-2.72-18.706-4.894c-2.405-0.856-4.7-1.961-7.216-3.144
		c-0.09,1.339,0.318,2.345,0.646,3.366c0.246,0.763,0.734,1.476,0.527,2.343c-1.709,1.942-3.863,3.202-6.274,4.064
		c-1.238-1.481-2.478-2.963-3.716-4.444c-0.828-1.348-1.656-2.694-2.485-4.041c1.3-1.483,3.144-2.168,4.739-3.217
		c1.308-0.859,1.34-1.021,0.066-1.916c-2.254-1.585-4.251-3.437-5.967-5.594c-0.043-0.17-0.01-0.325,0.088-0.468
		c2.993,0.866,6,1.675,9.094,2.1c0.721-0.288,1.221,0.207,1.762,0.512c6.398,3.604,13.232,6.086,20.338,7.849
		c1.093,0.271,2.62,0.81,3.035-0.665c0.439-1.563-1.207-1.71-2.273-2.013c-2.131-0.604-4.279-1.153-6.377-1.873
		c-0.649-0.223-1.377-0.341-1.771-1.02c0.46-0.539,1.1-0.393,1.637-0.313c4.964,0.743,9.959,0.696,14.955,0.681
		c3.848-0.012,7.707,0.179,11.54-0.055c5.134-0.313,10.251-0.861,15.356-1.601c8.473-1.227,16.719-3.284,24.797-6.035
		c7.75-2.64,15.066-6.211,21.35-11.521c3.863-3.266,7.412-6.923,8.853-12.053c0.067-0.236,0.386-0.402,0.587-0.601
		c1.188,0.872,2.471,0.085,3.701,0.138c0.762,0.033,0.976-2.411,0.26-2.899c-0.928-0.635-1.842-1.521-2.973-0.278
		C1312.087,965.329,1311.79,965.222,1311.598,965.057z"/>
	<path fill-rule="evenodd" clip-rule="evenodd" fill="#C6B1D4" d="M1246.19,911.049c1.813,0.36,3.57-0.235,5.344-0.387
		c3.559-0.304,7.067-0.069,10.584,0.389c0.808,0.105,1.741,0.54,2.205-0.623c0.83,0.915,2.027,1.021,3.097,1.407
		c0.882,0.717,2.016,0.767,3.026,1.14c17.545,6.469,28.338,18.817,32.303,37.104c0.109,0.508,0.1,1.04,0.146,1.562
		c0.152,1.787-0.105,2.08-1.537,1.434c-7.292-3.288-15.014-4.969-22.854-6.232c-0.628-0.101-1.272-0.179-1.845-0.499
		c-0.597-2.288-2.235-4.327-1.487-6.949c0.285-1,0.031-2.13-0.364-3.089c-0.609-1.469-0.443-2.917-0.423-4.438
		c0.042-3.146-1.107-6.052-3.542-8.013c-3.05-2.458-7.907-0.632-9.543,3.368c-0.475,1.159-1.047,2.195-1.959,3.054
		c-0.983,0.925-1.428,2.103-1.533,3.43c-0.052,0.634-0.014,1.293-0.449,1.837c-1.205,0.801-2.42,0.869-3.648,0.054
		c-0.377-0.569-0.361-1.224-0.34-1.859c0.045-1.269-0.179-2.431-1.077-3.401c-0.362-0.392-0.575-0.887-0.655-1.412
		c-0.342-2.225-1.816-3.757-3.301-5.231c-1.525-1.517-5.958-1.343-7.427,0.425c-1.519,1.827-3.154,3.99-3.194,6.273
		c-0.055,3.021-0.9,5.664-1.934,8.364c-0.334,0.874-0.426,1.813-0.223,2.756c0.441,2.046-0.395,3.51-2.102,4.572
		c-2.514,0.773-5.162,0.788-7.715,1.374c-2.777,0.636-5.592,1.111-8.306,2.004c-0.505,0.165-1.011,0.276-1.536,0.1
		c-0.821-0.491-0.526-1.215-0.326-1.862c2.754-8.913,7.36-16.579,15.012-22.181c0.328-0.241,0.677-0.46,0.912-0.804
		c0.252-0.367,0.326-0.754,0.041-1.133c-0.232-0.311-0.572-0.38-0.938-0.33c-0.54,0.074-0.971,0.378-1.395,0.689
		c-6.435,4.713-10.906,10.927-13.911,18.248c-1.13,2.754-2.06,5.575-2.661,8.498c-0.092,0.448-0.144,0.939-0.656,1.158
		c-1.098-0.205-2.008,0.352-2.971,0.722c-0.557,0.214-1.09,0.745-1.752,0.235c0.689-7.195,3.186-13.768,7.055-19.81
		c6.673-10.421,16.054-17.26,27.91-20.732c0.22-0.064,0.459-0.061,0.689-0.089C1243.79,911.167,1245.012,911.171,1246.19,911.049z"
		/>
	<path fill-rule="evenodd" clip-rule="evenodd" fill="#B59FC5" d="M1276.595,946.151c4.774,0.478,9.457,1.471,14.086,2.688
		c3.75,0.985,7.477,2.103,10.945,3.893c1.469,0.758,1.142-0.387,1.27-1.091c0.541,0.644-0.085,1.803,0.979,2.215
		c-0.476,0.067-0.446,0.331-0.396,0.741c0.276,2.243,0.187,4.52,0.245,6.763c0.066,2.558-2.021,4.32-3.811,5.976
		c-1.318,1.22-2.883,2.131-4.385,3.12c-0.947,0.623-1.391,0.358-1.768-0.529c-0.909-1.462-2.684-1.933-3.724-3.245
		c-0.11-0.483,0.116-0.91,0.217-1.361c0.463-2.059-0.605-3.672-2.603-3.953c-2.039-0.288-3.432,0.887-3.598,3.04
		c-0.049,0.636,0.03,1.287-0.26,1.892c-1.162,1.127-2.487,1.383-3.99,0.773c-0.97-0.394-1.99-0.643-2.979-0.979
		c-0.965-0.327-1.257-0.953-0.775-1.892c0.187-0.362,0.38-0.719,0.557-1.085c1.049-2.169,1.906-4.351,1.301-6.859
		c-0.214-0.888-0.077-1.853-0.046-2.78c0.063-1.836-0.248-3.576-1.09-5.227C1276.439,947.601,1275.984,946.904,1276.595,946.151z"/>
	<path fill-rule="evenodd" clip-rule="evenodd" fill="#B59FC5" d="M1215.696,949.309c3.27-0.706,6.465-1.713,9.764-2.311
		c2.672-0.482,5.351-0.878,8.044-1.195c0.053,2.145-0.456,4.2-1.137,6.198c-0.31,0.91-0.552,1.777-0.368,2.715
		c0.191,0.983,0.138,1.953,0.087,2.946c-0.101,1.982,0.562,3.746,1.718,5.373c1.454,2.046,1.271,2.477-1.135,3.212
		c-0.945,0.289-1.896,0.557-2.807,0.954c-0.594,0.261-1.225,0.448-1.756-0.164c-0.313-0.546-0.164-1.128-0.145-1.707
		c0.068-2.056-1.131-3.438-3.048-3.548c-1.745-0.1-2.939,1.009-3.193,2.982c-0.06,0.461-0.05,0.934-0.298,1.354
		c-0.146,0.185-0.313,0.361-0.527,0.447c-2.429,0.955-4.358,2.382-4.902,5.134c-3.102-1.686-5.786-3.862-7.693-6.861
		c-1.479-2.327-2.007-4.876-1.541-7.646c0.205-1.218,0.504-2.509-0.205-3.706c0.234-0.229,0.469-0.456,0.703-0.685
		c1.168-0.467,2.344-0.913,3.498-1.41c0.547-0.234,0.992-0.411,1.104,0.416c0.798,1.361,0.043,2.729-0.04,4.08
		c-0.075,1.218-0.26,2.433-0.197,3.655c0.036,0.721-0.146,1.789,0.834,1.846c1.04,0.062,0.878-1.021,0.959-1.734
		c0.327-2.893,0.519-5.804,1.294-8.627C1214.888,950.373,1214.875,949.598,1215.696,949.309z"/>
	<path fill-rule="evenodd" clip-rule="evenodd" fill="#B59FC4" d="M1274.466,900.283c-0.355,0.065-0.976-0.286-1.009,0.307
		c-0.166,2.961-2.212,4.249-4.556,5.308c-1.176,0.011-2.239-0.313-3.16-1.06c-1.198-1.37-2.324-2.774-2.037-4.774
		c0.309-2.143,1.938-3.804,4.106-4.208c1.902-0.354,4.012,0.79,5.061,2.673c0.212,0.381,0.028,1.181,0.884,1.035
		C1274.153,899.643,1274.614,899.663,1274.466,900.283z"/>
	<path fill-rule="evenodd" clip-rule="evenodd" fill="#B59FC5" d="M1241.536,906.271c-0.305-0.493-0.672-0.848-1.255-1.085
		c-2.409-0.983-3.479-2.739-3.243-5.141c0.195-1.986,1.777-3.661,3.91-4.138c1.849-0.414,4.043,0.596,5.039,2.318
		c1.1,1.902,0.8,4.067-0.813,5.926c-0.188,0.217-0.346,0.46-0.516,0.689C1243.769,905.647,1242.556,905.747,1241.536,906.271z"/>
	<path fill-rule="evenodd" clip-rule="evenodd" fill="#F5BCC3" d="M1186.251,973.835c-1.08,3.024-2.006,6.081-2.103,9.33
		c-0.028,0.985,0.055,1.947,0.349,2.889c-1.099,0.801-2.109,1.802-3.648,1.601c-1.167-0.926-1.023-2.402-1.453-3.622
		c-0.514-1.462-0.734-3.026-0.951-4.572c-0.072-0.368-0.125-0.736,0.062-1.09c-0.146-0.833,0.478-1.08,1.048-1.352
		C1181.784,975.953,1184.019,974.896,1186.251,973.835z"/>
	<path fill-rule="evenodd" clip-rule="evenodd" fill="#F5BCC4" d="M1326.3,986.415c-0.723-0.506-0.734-1.246-0.7-2.023
		c0.13-3.027,0.046-6.035-1.077-8.91c-0.204-0.521,0.098-0.596,0.471-0.663c2.293,0.843,4.422,2.019,6.553,3.194
		c-0.094,0.466-0.188,0.931-0.281,1.395c-0.037,0.438-0.072,0.875-0.109,1.313c-0.414,0.797-0.535,1.665-0.618,2.542
		c-0.487,1.522-0.974,3.045-1.461,4.566C1327.784,988.077,1326.827,987.669,1326.3,986.415z"/>
	<path fill-rule="evenodd" clip-rule="evenodd" fill="#EED1E3" d="M1265.741,904.838c1.123,0.146,2.205,0.411,3.16,1.06
		c-0.494,1.979-0.987,3.958-1.481,5.938c-1.339,0.205-2.61,0.266-3.097-1.407C1264.796,908.564,1265.269,906.701,1265.741,904.838z"
		/>
	<path fill-rule="evenodd" clip-rule="evenodd" fill="#EDD1E3" d="M1241.536,906.271c0.666-1.296,2.025-1.074,3.123-1.43
		c0.51,2.069,1.021,4.139,1.531,6.208c-0.891,0.968-2.242,0.583-3.279,1.121C1242.453,910.204,1241.994,908.237,1241.536,906.271z"
		/>
	<path fill-rule="evenodd" clip-rule="evenodd" fill="#F9F9F9" d="M1194.935,943.088c0.133,1.641,0.961,2.814,2.479,3.586
		c-1.708,0.667-2.255,2.101-2.667,4.017c-0.888-1.792-1.538-3.427-3.547-3.985c1.852-0.549,2.885-1.582,3.156-3.302
		C1194.489,943.189,1194.522,942.79,1194.935,943.088z"/>
	<path fill-rule="evenodd" clip-rule="evenodd" fill="#F4F4F3" d="M1225.724,905.043c1.994-0.496,2.445-1.738,3.056-3.118
		c0.31,1.406,0.802,2.414,2.052,3.049c-1.318,0.684-1.822,1.772-2.012,3.272C1228.035,906.941,1227.7,905.528,1225.724,905.043z"/>
	<path fill-rule="evenodd" clip-rule="evenodd" fill="#ECEBEB" d="M1198.157,920.703c-0.094,0.758-0.584,1.161-1.268,1.135
		c-0.699-0.027-1.175-0.508-1.134-1.243c0.04-0.726,0.506-1.137,1.253-1.104C1197.762,919.522,1198.116,919.979,1198.157,920.703z"
		/>
	<path fill-rule="evenodd" clip-rule="evenodd" fill="#F1F1F1" d="M1193.435,931.586c0.048-0.512,0.271-0.892,0.824-0.936
		c0.61-0.049,1.02,0.247,1.053,0.868c0.029,0.522-0.288,0.887-0.808,0.954C1193.87,932.555,1193.56,932.162,1193.435,931.586z"/>
	<path fill-rule="evenodd" clip-rule="evenodd" fill="#F8ED9B" d="M1236.245,1014.154c0.644-0.786,1.541-0.484,2.283-0.396
		c7.347,0.89,14.726,0.806,22.091,0.604c4.151-0.114,8.288-0.747,12.431-1.169c0.311-0.031,0.563-0.071,0.771,0.193
		c-0.141,2.414-0.778,4.676-2.085,6.729c-0.17,0.049-0.351,0.091-0.513,0.023c-5.16-2.127-9.784-0.604-14.244,2.073
		c-2.939,1.765-5.752,3.75-8.912,5.127c-0.783,0.341-1.557,0.86-2.484,0.442C1240.285,1024.737,1237.118,1020.231,1236.245,1014.154
		z"/>
	<path fill-rule="evenodd" clip-rule="evenodd" fill="#F8ED9B" d="M1275.542,1013.032c2.596-0.471,5.195-0.924,7.787-1.415
		c8.445-1.602,16.762-3.635,24.612-7.261c0.55-0.254,1.19-0.975,1.705-0.523c0.507,0.443,0.239,1.321,0.072,1.993
		c-0.14,0.558-0.392,1.089-0.594,1.631c-0.157,0.246-0.331,0.503-0.604,0.6c-2.828,0.998-5.465,2.417-8.163,3.696
		c-0.905-0.332-0.727,0.729-1.205,0.948c-4.034,3.326-8.265,6.307-13.458,7.574
		C1281.425,1019.103,1278.071,1016.645,1275.542,1013.032z"/>
	<path fill-rule="evenodd" clip-rule="evenodd" fill="#F8ED9B" d="M1201.69,1010.538c-0.488-2.117-1.674-4.061-1.576-6.406
		c1.914,0.376,3.457,1.585,5.228,2.252c6.629,2.496,13.353,4.634,20.392,5.645c0.277,0.039,0.532,0.223,0.797,0.339
		c0.066,0.625-0.406,0.936-0.785,1.271c-2.903,2.57-6.223,4.468-9.791,5.942c-0.922,0.38-1.914,0.466-2.906,0.502
		c-1.472-0.146-2.617-1.142-3.994-1.532c-0.378-1.482,0.65-2.03,1.666-2.597c-0.927-0.557-1.709-1.279-1.758-2.518
		c-0.297,1.519-0.654,1.972-2.31,2.924c-0.165,0.045-0.332,0.058-0.503,0.047C1203.963,1014.983,1202.474,1013.028,1201.69,1010.538
		z"/>
	<path fill-rule="evenodd" clip-rule="evenodd" fill="#F5E24A" d="M1245.583,1027.782c4.064-1.182,7.45-3.664,10.975-5.846
		c2.868-1.774,5.876-3.047,9.235-3.271c2.089-0.139,4.173,0.106,5.943,1.45c-2.733,6.222-10.62,10.803-17.611,10.237
		C1251.092,1030.107,1248.175,1029.487,1245.583,1027.782z"/>
	<path fill-rule="evenodd" clip-rule="evenodd" fill="#F5E24A" d="M1285.694,1020.275c0.637-1.232,2.002-0.912,3.002-1.353
		c3.784-1.671,7.109-4.019,10.3-6.595c0.36-0.222,0.662-0.529,1.05-0.709c2.857-1.757,5.889-3.134,9.08-4.162
		c-0.365,1.137-0.73,2.272-1.095,3.409c0.095,1.048-0.622,1.748-1.181,2.446c-1.701,2.128-3.379,4.319-6.13,5.232
		C1295.944,1021.133,1290.961,1021.933,1285.694,1020.275z"/>
	<path fill-rule="evenodd" clip-rule="evenodd" fill="#F5E24A" d="M1213.048,1020.082c1.592-0.787,3.355-1.074,4.967-1.87
		c3.135-1.548,5.932-3.526,8.516-5.845c2.528,0.361,5.057,0.723,7.584,1.085C1229.187,1020.093,1220.23,1022.912,1213.048,1020.082z
		"/>
	<path fill-rule="evenodd" clip-rule="evenodd" fill="#A491C3" d="M1300.721,1018.545c3.034-1.991,5.454-4.566,7.312-7.679
		c2.18,1.089,4.142,2.514,6.086,3.966c-2.021,2.87-4.766,5.061-7.131,7.608c-1.67-0.688-2.92-2.018-4.459-2.905
		C1301.934,1019.191,1301.323,1018.874,1300.721,1018.545z"/>
	<path fill-rule="evenodd" clip-rule="evenodd" fill="#A391C3" d="M1201.69,1010.538c1.416,1.953,2.532,4.148,4.541,5.625
		c0.797,0.382,1.61,0.736,2.283,1.334c0.279,0.347,0.506,0.7,0.126,1.12c-1.645,0.522-2.841,1.765-4.262,2.646
		c-0.528,0.328-0.923,0.924-1.661,0.833c-1.971-1.98-3.941-3.961-5.912-5.941c-0.39-0.554-0.779-1.106-1.169-1.659
		C1197.654,1013.177,1199.672,1011.857,1201.69,1010.538z"/>
	<path fill-rule="evenodd" clip-rule="evenodd" fill="#F6F6F5" d="M1281.313,1027.238c-0.499-1.36-0.818-2.574-2.258-3.166
		c1.487-0.614,1.863-1.87,2.229-3.405c0.489,1.582,1.144,2.756,2.549,3.368C1282.113,1024.92,1281.942,1025.133,1281.313,1027.238z"
		/>
	<path fill-rule="evenodd" clip-rule="evenodd" fill="#FDFCF8" d="M1208.641,1018.617c-0.122-0.312-0.245-0.623-0.368-0.935
		c-0.444-0.62-1.176-0.935-1.638-1.536c1.091-0.805,2.026-1.716,2.128-3.572c0.623,1.589,1.289,2.706,2.673,3.475
		c-1.389,0.445-2.108,1.286-2.383,2.502c-0.08,0.099-0.161,0.198-0.241,0.297
		C1208.755,1018.771,1208.697,1018.694,1208.641,1018.617z"/>
	<path fill-rule="evenodd" clip-rule="evenodd" fill="#F0D2E4" d="M1188.354,995.163c2.384,2.004,4.359,4.485,7.129,6.041
		c0.752,0.423,0.555,0.913-0.098,1.298c-1.982,1.171-3.967,2.34-5.95,3.509c-1.843-2.621-3.357-5.424-4.607-8.371
		C1185.368,995.909,1186.821,995.479,1188.354,995.163z"/>
	<path fill-rule="evenodd" clip-rule="evenodd" fill="#C6B1D4" d="M1188.354,995.163c-1.115,0.91-2.634,1.248-3.526,2.477
		c-0.583-1.175-1.167-2.349-1.75-3.523c-0.532-1.414-1.065-2.829-1.598-4.244c-0.185-0.786-0.368-1.573-0.553-2.359
		c1.341-0.114,2.185-1.448,3.569-1.459c0.403,3.312,1.976,6.107,3.865,8.763C1188.358,994.932,1188.355,995.048,1188.354,995.163z"
		/>
	<path fill-rule="evenodd" clip-rule="evenodd" fill="#F0D2E4" d="M1312.998,1001.818c2.911-1.938,5.603-4.142,8.05-6.64
		c1.404,0.054,2.398,0.979,3.5,1.665c0.56,0.349,0.695,0.871,0.365,1.475c-0.379,0.885-0.758,1.771-1.137,2.655
		c-1.271,1.718-2.006,3.776-3.425,5.399c-1.137-0.423-1.921-1.477-3.137-1.757
		C1315.776,1003.732,1314.034,1003.307,1312.998,1001.818z"/>
	<path fill-rule="evenodd" clip-rule="evenodd" fill="#C6B1D4" d="M1324.913,998.318c0.144-1.089-0.813-1.223-1.435-1.63
		c-0.798-0.522-1.619-1.009-2.431-1.51c1.704-2.371,3.439-4.722,3.925-7.721c0.11-0.679,0.53-1.147,1.327-1.043
		c0.814,0.689,1.76,1.123,2.777,1.413C1328.082,991.481,1326.676,994.97,1324.913,998.318z"/>
	<path fill-rule="evenodd" clip-rule="evenodd" fill="#F3E8F2" d="M1228.237,966.825c1.225,0.706,2.021-0.473,3.018-0.729
		c3.287-0.848,3.229-0.876,1.496-3.791c-0.955-1.609-1.486-3.37-1.064-5.297c0.139-0.63,0.029-1.248-0.131-1.884
		c-0.289-1.147-0.314-2.324,0.436-3.334c0.459-0.617,0.456-1.289,0.469-1.984c0.025-1.418,0.66-2.678,1.044-4.003
		c1.429-1.386,1.96-2.868,1.536-4.998c-0.385-1.938,0.722-3.834,1.676-5.584c0.426-0.782,0.615-1.49,0.408-2.462
		c-0.372-1.737-0.141-3.485,1.029-4.97c0.475-0.601,0.77-1.278,1.042-1.997c0.882-2.334,2.562-3.439,5.097-3.473
		c4.02-0.052,6.993,2.373,7.777,6.338c0.067,0.337,0.043,0.81,0.255,0.981c1.891,1.537,1.55,3.626,1.48,5.655
		c-0.917,1.273-2.298,1.328-3.56,1.012c-1.49-0.375-1.456-1.874-1.693-3.093c0-0.583,0.289-1.112,0.345-1.686
		c0.089-0.931-0.352-1.57-1.208-1.868c-0.814-0.284-1.523-0.011-1.917,0.738c-0.448,0.855-0.298,1.682,0.457,2.34
		c0.44,0.384,1.086,0.397,1.517,0.812c0.392,0.447,0.596,0.993,0.821,1.53c0.431,1.028,0.212,1.787-0.827,2.305
		c-0.675,0.337-1.343,0.706-1.907,1.221c-0.3,0.272-0.705,0.587-0.528,1.016c0.189,0.457,0.702,0.345,1.085,0.251
		c2.384-0.583,4.821-0.713,7.249-0.977c3.182-0.346,6.25,0.03,9.312,0.798c0.64,0.16,1.52,0.74,1.87-0.046
		c0.297-0.669-0.623-1.13-1.143-1.575c-0.176-0.151-0.39-0.252-0.597-0.359c-2.626-1.36-2.726-1.758-1.059-4.24
		c0.47-0.358,1.097-0.351,1.584-0.662c0.842-0.538,1.124-1.316,0.763-2.238c-0.31-0.786-0.977-1.139-1.807-1.032
		c-1.003,0.129-1.514,0.764-1.548,1.766c-0.021,0.636,0.253,1.242,0.222,1.888c-0.091,0.947-0.352,1.836-0.98,2.563
		c-0.596,0.688-1.406,0.793-2.236,0.604c-0.508-0.114-1.071-0.307-0.682-1.055c-0.27-2.496,0.438-4.597,2.479-6.171
		c0.32-0.248,0.609-0.552,0.668-0.989c0.309-2.296,2.118-3.563,3.598-4.97c2.155-2.05,7.587-0.656,8.885,2.252
		c0.516,1.158,1.02,2.328,1.525,3.494c0.436,1.007,0.795,2.101,0.359,3.2c-0.866,2.182,1.007,4.021,0.74,6.059
		c-0.313,2.381,0.171,4.566,0.972,6.753c0.132,0.361,0.027,0.81,0.032,1.218c1.428,3.287,1.675,6.722,1.899,10.282
		c0.183,2.91-0.61,5.254-1.858,7.585c-0.654,1.222-0.492,1.581,0.795,1.77c0.68,0.101,1.387,0.306,1.98,0.642
		c1.51,0.854,2.873,0.502,4.232-0.309c0.988-0.018,1.423,0.612,1.686,1.443c0.326,1.899,0.227,3.876-0.151,5.665
		c-0.259,1.229-1.923,2.001-3.347,2.32c-4.629,1.039-9.272,1.95-13.986,2.58c-4.598,0.614-9.206,1.304-13.818,1.213
		c-8.742-0.173-17.453-0.883-25.994-3.019c-1.367-0.342-1.531-1.199-1.806-2.184c-0.271-0.963,0.204-1.362,1.118-1.524
		c0.44-0.079,0.564-0.543,0.545-0.986c-0.02-0.458-0.259-0.9-0.68-0.888c-1.727,0.052-1.373-1.152-1.387-2.154
		C1226.365,967.64,1227.181,967.066,1228.237,966.825z"/>
	<path fill-rule="evenodd" clip-rule="evenodd" fill="#FDFDFE" d="M1212.169,999.706c2.932,0.905,5.846,1.863,8.84,2.565
		c1.189,0.278,2.476,0.699,2.278,2.334c-0.149,1.243-1.458,1.725-3.284,1.27c-7.918-1.973-15.527-4.724-22.547-8.959
		c-2.996-2.29-6.033-4.521-8.048-7.838c-1.049-1.728-1.641-3.586-1.926-5.546c-0.116-0.795,0.053-1.608,0.979-2.013
		c0.855-0.373,1.652-0.301,2.197,0.421c0.648,0.858,2.05,1.178,1.135,3.079c-0.527,1.097,1.162,2.874,2.25,4.078
		c3.993,4.42,9.148,7.044,14.561,9.244C1209.782,998.821,1210.98,999.253,1212.169,999.706z"/>
	<path fill-rule="evenodd" clip-rule="evenodd" fill="#F3E8F2" d="M1215.993,971.699c-0.234-2.53,0.659-3.858,5.248-5.626
		c0.766,0.778,1.831,1.298,2.133,2.476c0.406,1.388,0.686,2.797,0.688,4.247c0.003,1.733-0.486,2.154-2.25,1.573
		C1219.783,973.702,1217.77,972.943,1215.993,971.699z"/>
	<path fill-rule="evenodd" clip-rule="evenodd" fill="#E4D8A5" d="M1223.374,968.549c-0.791-0.757-1.908-1.23-2.133-2.475
		c-0.087-1.862-0.006-3.62,2.098-4.484c1.453-0.597,2.799-0.318,3.9,0.614c1.051,0.891,1.559,2.126,1.103,3.583
		c-0.102,0.325-0.072,0.691-0.104,1.038c-0.691,0.743-1.495,1.331-2.415,1.763C1225.007,968.575,1224.19,968.563,1223.374,968.549z"
		/>
	<path fill-rule="evenodd" clip-rule="evenodd" fill="#E4D8A4" d="M1285.329,967.564c-0.563-0.481-1.125-0.962-1.688-1.443
		c-0.02-0.523-0.03-1.049-0.066-1.572c-0.114-1.654,0.6-2.87,2.102-3.474c1.522-0.61,3.114-0.367,4.211,0.814
		c1.006,1.083,1.459,2.52,0.646,4.033c-0.135,0.25-0.182,0.547-0.27,0.822c-0.427,1.168-1.352,1.483-2.48,1.449
		C1286.872,968.347,1286.12,967.881,1285.329,967.564z"/>
	<path fill-rule="evenodd" clip-rule="evenodd" fill="#F3E8F2" d="M1287.784,968.194c0.83-0.477,1.775-0.757,2.48-1.449
		c1.338,0.871,3.182,1.187,3.496,3.182c0.144,1.086-0.347,1.745-1.357,2.109c-1.25,0.449-2.475,0.969-3.729,1.4
		c-0.335,0.115-0.804,0.536-1.091,0.063c-0.307-0.508,0.244-0.606,0.572-0.833c0.698-0.482,0.863-1.28,0.192-1.744
		C1287.188,970.122,1287.519,969.192,1287.784,968.194z"/>
	<path fill-rule="evenodd" clip-rule="evenodd" fill="#FDFCFD" d="M1311.598,965.057c1.429-1.788,2.798-0.775,4.205,0.058
		c0.53,0.313,0.835,0.673,0.548,1.245c-0.343,0.684-0.549,1.372-0.613,2.141c-0.045,0.532-0.496,0.857-1.006,0.552
		c-0.744-0.445-1.307-0.298-2.045,0.087c-0.735,0.383-1.342-0.023-1.443-0.929c0.014-0.395,0.021-0.784-0.252-1.116
		C1310.19,966.118,1310.524,965.476,1311.598,965.057z"/>
	<path fill-rule="evenodd" clip-rule="evenodd" fill="#FDFDFD" d="M1198.265,963.029c0.913,0.806,1.997-1.203,2.779,0.008
		c0.535,0.828,1.132,2.195,0.797,2.874c-0.506,1.022-1.791,1.669-2.775,2.436c-0.146,0.112-2.961-2.328-2.95-2.516
		C1196.221,964.122,1197.14,962.893,1198.265,963.029z"/>
	<path fill-rule="evenodd" clip-rule="evenodd" fill="#FDFCFD" d="M1189.37,975.284c0.072-1.734,0.658-2.49,1.939-2.514
		c1.338-0.023,2.037,0.771,2.168,2.021c0.096,0.925-1.271,2.259-2.193,2.095C1190.183,976.691,1189.32,976.118,1189.37,975.284z"/>
	<path fill-rule="evenodd" clip-rule="evenodd" fill="#CEB8C5" d="M1311.608,961.216c0.531,1.164,0.542,2.327-0.009,3.489
		c-0.009-0.94-0.017-1.881-0.025-2.821c-0.163-0.229-0.194-0.458-0.007-0.689L1311.608,961.216z"/>
	<path fill-rule="evenodd" clip-rule="evenodd" fill="#F9E5F2" d="M1311.567,961.194c0.002,0.229,0.004,0.46,0.007,0.689
		c-0.312-0.213-0.946-0.25-0.835-0.701C1310.864,960.684,1311.278,961.145,1311.567,961.194z"/>
	<path fill-rule="evenodd" clip-rule="evenodd" fill="#FDFDFE" d="M1300.009,1002.146c-1.441,0.105-2.219-0.199-2.401-1.266
		c-0.188-1.106,0.151-1.945,1.366-2.255c2.545-0.646,4.964-1.638,7.334-2.75c2.348-1.101,4.371-2.647,6.154-4.521
		c0.887-0.933,1.904-1.532,3.008-0.446c1.15,1.131,0.583,2.102-0.404,3.123c-4.059,4.206-9.154,6.485-14.645,8.064
		C1300.146,1002.174,1299.845,1002.162,1300.009,1002.146z"/>
	<path fill-rule="evenodd" clip-rule="evenodd" fill="#FDFDFD" d="M1318.248,990.259c-1.571,0.021-2.779-1.161-2.794-2.732
		c-0.012-1.294,1.336-2.675,2.682-2.749c1.37-0.075,2.827,1.355,2.848,2.797C1321.002,988.864,1319.6,990.241,1318.248,990.259z"/>
	<path fill-rule="evenodd" clip-rule="evenodd" fill="#FCFCFC" d="M1292.854,1002.716c-2.375,0.358-2.873,2.046-3.699,3.854
		c-0.509-1.728-0.764-3.284-2.793-3.812c1.975-0.738,2.486-2.247,2.955-4.085
		C1289.987,1000.513,1290.722,1001.992,1292.854,1002.716z"/>
	<path fill-rule="evenodd" clip-rule="evenodd" fill="#FCFBFC" d="M1314.052,1008.511c-0.063,0.701-0.46,1.035-1.143,0.986
		c-0.712-0.052-0.998-0.517-0.941-1.178c0.053-0.607,0.443-0.911,1.048-0.9C1313.721,1007.432,1314.044,1007.826,1314.052,1008.511z
		"/>
	<path fill-rule="evenodd" clip-rule="evenodd" fill="#DDB7CB" d="M1312.998,1001.818c1.405,0.933,2.811,1.865,4.216,2.798
		c-1.756-0.156-2.947-1.476-4.433-2.188C1312.349,1002.22,1312.472,1001.867,1312.998,1001.818z"/>
	<path fill-rule="evenodd" clip-rule="evenodd" fill="#FBF9FB" d="M1315.599,998.31c-0.463,0.009-0.801-0.141-0.827-0.664
		c-0.025-0.528,0.185-0.928,0.733-1.007c0.553-0.079,0.902,0.23,0.941,0.771C1316.485,997.97,1316.124,998.238,1315.599,998.31z"/>
	<path fill-rule="evenodd" clip-rule="evenodd" fill="#FDFDFD" d="M1215.696,949.309c-1.145,3.569-1.566,7.256-1.75,10.976
		c-0.047,0.968-0.24,1.842-1.34,1.902c-1.219,0.065-1.492-0.81-1.531-1.873c-0.109-2.874,0.502-5.674,0.783-8.508
		c1.186-4.853,2.652-9.597,5.01-14.039c3.049-5.743,7.125-10.586,12.373-14.429c0.873-0.64,1.906-1.241,2.76-0.108
		c0.885,1.176-0.049,1.844-0.952,2.507C1222.973,931.661,1218.082,939.672,1215.696,949.309z"/>
	<path fill-rule="evenodd" clip-rule="evenodd" fill="#F0D2E4" d="M1262.237,933.562c-0.1,0.211-0.186,0.429-0.303,0.63
		c-0.965,1.647-0.765,2.769,1.354,3.046c0.11,0.015,0.23,0.076,0.312,0.152c0.854,0.793,2.539,1.415,1.92,2.716
		c-0.52,1.093-1.912,0.173-2.963-0.046c-2.878-0.6-5.741-1.079-8.762-0.697c-2.643,0.334-5.309,0.42-7.897,1.145
		c-0.499,0.139-1.086,0.092-1.381-0.477c-0.313-0.603,0.157-0.953,0.492-1.356c0.579-0.696,1.345-1.145,2.151-1.455
		c1.391-0.536,1.399-1.385,0.777-2.508c-0.193-0.351-0.287-0.756-0.426-1.137c0.332-0.512,0.715-0.927,1.414-0.729
		c0.752,3.466,0.557,3.808,4.879,2.449c1.174,0.636,2.352,0.442,3.531,0.012c1.004,1.045,2.263,0.984,2.854-0.184
		c0.362-0.718,0.643-1.484,0.67-2.312C1261.538,932.662,1261.989,932.925,1262.237,933.562z"/>
	<path fill-rule="evenodd" clip-rule="evenodd" fill="#FCFCFC" d="M1239.859,919.225c-0.089,1.317-0.905,2.017-2.049,1.959
		c-1.131-0.058-1.935-0.786-1.854-2.1c0.07-1.155,0.71-1.946,1.833-1.927C1239.011,917.177,1239.858,917.874,1239.859,919.225z"/>
	<path fill-rule="evenodd" clip-rule="evenodd" fill="#FAF8FB" d="M1282.274,933.633c-0.95,0.385-1.131-0.266-1.115-1.075
		c0.02-1.035,1.024-1.003,1.61-1.197c0.33-0.109,1.224,0.642,0.982,1.135C1283.536,932.936,1283.655,934.292,1282.274,933.633z"/>
	<path fill-rule="evenodd" clip-rule="evenodd" fill="#FAF8FB" d="M1281.925,926.44c-0.395-0.563-1.348-0.572-1.216-1.209
		c0.107-0.518,0.579-1.299,1.198-1.26c0.432,0.026,1.188,0.749,1.146,1.076C1282.989,925.539,1282.352,925.955,1281.925,926.44z"/>
	<path fill-rule="evenodd" clip-rule="evenodd" fill="#F8F5F9" d="M1279.931,928.938c-0.387,0.302-0.469,1.095-1.05,0.938
		c-0.396-0.106-1.163-0.445-1.005-0.949c0.128-0.405,0.441-1.195,1.086-1.081C1279.374,927.919,1279.837,928.345,1279.931,928.938z"
		/>
	<path fill-rule="evenodd" clip-rule="evenodd" fill="#FAF8FA" d="M1294.097,939.66c-0.016,0.634-0.279,0.884-0.771,0.872
		c-0.541-0.012-0.912-0.29-0.925-0.837c-0.013-0.546,0.337-0.872,0.887-0.85C1293.858,938.868,1294.061,939.276,1294.097,939.66z"/>
	<path fill-rule="evenodd" clip-rule="evenodd" fill="#F5F0F7" d="M1276.22,923.815c0.452,0.175,0.913,0.207,0.99,0.709
		c0.086,0.551-0.375,0.685-0.744,0.809c-0.456,0.153-0.62-0.239-0.717-0.563C1275.608,924.303,1275.935,924.056,1276.22,923.815z"/>
	<path fill-rule="evenodd" clip-rule="evenodd" fill="#F7F1F9" d="M1289.22,942.816c-0.45-0.179-0.865-0.445-0.832-0.785
		c0.031-0.313,0.436-0.59,0.678-0.883c0.238,0.235,0.592,0.432,0.692,0.717C1289.923,942.333,1289.395,942.487,1289.22,942.816z"/>
	<path fill-rule="evenodd" clip-rule="evenodd" fill="#F9F5FB" d="M1287.684,936.784c-0.102,0.359-0.342,0.58-0.735,0.571
		c-0.334-0.007-0.529-0.191-0.506-0.547c0.029-0.453,0.398-0.556,0.729-0.589C1287.493,936.188,1287.675,936.43,1287.684,936.784z"
		/>
	<path fill-rule="evenodd" clip-rule="evenodd" fill="#F5EFF9" d="M1289.358,935.063c-0.292-0.465-0.985-0.718-0.54-1.432
		c0.132-0.211,0.317-0.391,0.526-0.225C1289.98,933.913,1289.7,934.471,1289.358,935.063z"/>
	<path fill-rule="evenodd" clip-rule="evenodd" fill="#EEE5F3" d="M1275.435,920.927c-0.054,0.302-0.194,0.546-0.534,0.507
		c-0.278-0.032-0.593-0.161-0.621-0.472c-0.036-0.396,0.237-0.64,0.628-0.601C1275.191,920.39,1275.407,920.598,1275.435,920.927z"
		/>
	<path fill-rule="evenodd" clip-rule="evenodd" fill="#F8F1FB" d="M1293.362,946.607c0.549,0.229,0.724,0.439,0.709,0.746
		c-0.012,0.231-0.136,0.463-0.4,0.43c-0.373-0.047-0.6-0.289-0.519-0.688C1293.193,946.889,1293.32,946.699,1293.362,946.607z"/>
	<path fill-rule="evenodd" clip-rule="evenodd" fill="#F6EEF8" d="M1284.013,929.028c-0.205,0.234-0.439,0.377-0.74,0.256
		c-0.23-0.093-0.355-0.277-0.219-0.525c0.153-0.277,0.383-0.402,0.685-0.21C1283.909,928.658,1284.183,928.729,1284.013,929.028z"/>
	<path fill-rule="evenodd" clip-rule="evenodd" fill="#F9F0FB" d="M1294.612,944.974c-0.185,0.094-0.381,0.252-0.438,0.212
		c-0.167-0.117-0.34-0.297-0.391-0.483c-0.047-0.17-0.051-0.533,0.316-0.37C1294.271,944.407,1294.365,944.652,1294.612,944.974z"/>
	<path fill-rule="evenodd" clip-rule="evenodd" fill="#E7DBED" d="M1279.815,924.364c-0.09-0.077-0.271-0.156-0.299-0.272
		c-0.061-0.246,0.094-0.456,0.336-0.485c0.113-0.015,0.323,0.136,0.359,0.252C1280.294,924.116,1280.099,924.258,1279.815,924.364z"
		/>
	<path fill-rule="evenodd" clip-rule="evenodd" fill="#D3C0E1" d="M1286.72,939.822c-0.097-0.214-0.221-0.36-0.19-0.457
		c0.04-0.126,0.203-0.214,0.313-0.317c0.067,0.118,0.197,0.245,0.186,0.354C1287.015,939.523,1286.87,939.63,1286.72,939.822z"/>
	<path fill-rule="evenodd" clip-rule="evenodd" fill="#C6B1D5" d="M1271.86,899.557c-0.143,0.865-0.842,1.644-1.951,1.713
		c-1.094,0.068-1.841-0.679-2.009-1.778c-0.147-0.97,1.052-2.146,2.085-2.166C1270.879,897.31,1271.811,898.273,1271.86,899.557z"/>
	<path fill-rule="evenodd" clip-rule="evenodd" fill="#C6B1D4" d="M1242.946,897.47c1.359-0.015,2.031,0.868,2.025,1.966
		c-0.007,0.996-0.623,1.926-1.884,1.878c-1.196-0.046-2.126-0.692-2.118-1.885C1240.978,898.33,1241.646,897.447,1242.946,897.47z"
		/>
	<path fill-rule="evenodd" clip-rule="evenodd" fill="#F0E283" d="M1300.046,1011.619c-0.201,0.457-0.546,0.7-1.05,0.709
		C1299.296,1012.019,1299.311,1011.284,1300.046,1011.619z"/>
	<path fill-rule="evenodd" clip-rule="evenodd" fill="#EEE7AB" d="M1206.635,1016.146c0.85,0.188,1.366,0.73,1.638,1.535
		c-0.789-0.359-1.541-0.771-2.041-1.519C1206.366,1016.157,1206.501,1016.151,1206.635,1016.146z"/>
	<path fill-rule="evenodd" clip-rule="evenodd" fill="#E7A5BF" d="M1262.237,933.562c-0.459-0.25-0.918-0.5-1.377-0.75
		c-0.011-0.058-0.018-0.116-0.033-0.171c-0.603-1.957-0.082-3.263,1.436-3.6c1.226-0.271,2.49,0.566,2.727,1.808
		C1265.281,932.38,1264.27,933.377,1262.237,933.562z"/>
	<path fill-rule="evenodd" clip-rule="evenodd" fill="#E6A4BF" d="M1248.927,932.845c-0.482,0.222-0.82,0.725-1.414,0.729
		c-1.248,0.026-2.175-0.464-2.42-1.749c-0.21-1.104,0.052-2.05,1.225-2.584c1.018-0.464,1.838-0.144,2.516,0.562
		C1249.739,930.749,1249.483,931.812,1248.927,932.845z"/>
	<path fill-rule="evenodd" clip-rule="evenodd" fill="#784028" d="M1254.686,958.404c-0.371,0.162-0.677,0.338-1.007,0.426
		c-0.289,0.077-0.762-0.098-0.68-0.315c0.338-0.893,0.694-1.827,1.281-2.556c0.251-0.312,1.315-0.277,1.275,0.545
		c-0.041,0.889,0.327,1.269,1.016,1.566c0.347,0.149,0.606,0.391,0.451,0.796c-0.203,0.535-0.649,0.406-1.02,0.245
		C1255.534,958.907,1255.098,958.629,1254.686,958.404z"/>
	<path fill-rule="evenodd" clip-rule="evenodd" fill="#EED4E4" d="M1282.796,972.737c-0.701-0.08-0.996-0.515-0.92-1.192
		c0.069-0.627,0.49-0.899,1.091-0.858c0.727,0.049,1.009,0.511,0.937,1.186C1283.836,972.502,1283.411,972.746,1282.796,972.737z"/>
	<path fill-rule="evenodd" clip-rule="evenodd" fill="#7E472F" d="M1260.485,955.456c-0.017,0.602-0.32,0.912-0.856,0.917
		c-0.521,0.004-0.88-0.258-0.89-0.832c-0.01-0.565,0.351-0.885,0.844-0.897C1260.081,954.632,1260.427,954.959,1260.485,955.456z"/>
	<path fill-rule="evenodd" clip-rule="evenodd" fill="#844E37" d="M1250.444,956.399c-0.729-0.052-0.99-0.42-0.943-0.943
		c0.048-0.521,0.408-0.88,0.944-0.816c0.504,0.061,0.847,0.437,0.817,0.968C1251.233,956.171,1250.813,956.367,1250.444,956.399z"/>
	<path fill-rule="evenodd" clip-rule="evenodd" fill="#EFD4E5" d="M1221.999,970.667c0.752-0.068,1.024,0.298,1.022,1.014
		c-0.003,0.679-0.185,1.107-0.964,1.07c-0.669-0.032-1.096-0.308-1.113-1.018C1220.929,971.025,1221.335,970.708,1221.999,970.667z"
		/>
</g>
</svg>
