<?xml version="1.0" encoding="utf-8"?>
<!-- Generator: Adobe Illustrator 16.0.0, SVG Export Plug-In . SVG Version: 6.00 Build 0)  -->
<!DOCTYPE svg PUBLIC "-//W3C//DTD SVG 1.1//EN" "http://www.w3.org/Graphics/SVG/1.1/DTD/svg11.dtd">
<svg version="1.1" id="Layer_1" xmlns="http://www.w3.org/2000/svg" xmlns:xlink="http://www.w3.org/1999/xlink" x="0px" y="0px"
	 width="1920px" height="1080px" viewBox="0 0 1920 1080" enable-background="new 0 0 1920 1080" xml:space="preserve">
<path fill-rule="evenodd" clip-rule="evenodd" fill="#F0D2E4" d="M1365.645,597.529c4.263-9.282,11.258-15.839,20.303-20.35
	c1.125,0.21,0.732,1.133,0.796,1.79c0.157,1.623-0.451,3.198-0.233,4.859c0.564,4.294,3.283,7.062,6.49,9.514
	c0.83,0.636,1.729,1.18,2.646,1.688c1.529,1.067,3.273,1.695,4.994,2.343c1.955,0.737,2.513,0.243,2.303-1.872
	c-0.09-0.915-0.377-1.807-0.349-2.737c0.009-0.295,0.062-0.571,0.347-0.74c0.787-0.325,1.558-0.342,2.307,0.104
	c0.478,0.771,0.789,1.598,1.695,2.122c1.016,0.588,0.846,1.505,0.1,2.362c-1.243,1.432-0.93,2.486,0.957,2.971
	c4.529,1.162,9.15,1.822,13.794,2.292c8.199,0.832,16.384,0.825,24.563-0.402c4.501-0.677,8.99-1.384,13.426-2.413
	c0.854-0.197,1.691-0.405,2.482-0.813c1.369-0.707,2.146-1.672,1.988-3.327c-0.109-1.154,0.013-2.331,0.258-3.479
	c0.922-0.834,1.686,0.058,2.516,0.229c0.555,1.034,0.459,2.301,1.301,3.272c0.455,0.524-0.09,1.174-0.539,1.924
	c1.986-1.087,4.377-1.027,5.4-3.295c0.75,0.308,1.404,0.211,2.125-0.223c1.451-0.876,2.824-1.852,4.047-3.012
	c2.127-2.016,3.824-4.189,3.176-7.47c-0.277-1.401-0.041-2.896-0.068-4.35c-0.01-0.495-0.217-1.271,0.799-0.967
	c2.494,1.148,4.898,2.446,7.039,4.187c0.594,0.815,1.139,1.647,0.996,2.729c-0.031,0.144-0.088,0.28-0.163,0.404
	c-0.472,0.438,0.19,0.695,0.183,1.063c0.167,0.767,0.148,1.535,0.061,2.305c-0.029,0.17-0.084,0.334-0.154,0.491
	c-0.549,0.638-0.828,1.307-0.406,2.151c0.206,0.413,0.139,0.88-0.051,1.314c-1.879,5.715-5.738,9.932-10.334,13.564
	c-7.769,6.141-16.725,9.846-26.122,12.624c-7.957,2.353-16.062,4.01-24.303,4.936c-3.989,0.448-7.985,0.912-12.009,0.927
	c-5.248,0.019-10.494,0.002-15.742,0.006c-2.914,0.002-5.807-0.299-8.696-0.645c-0.581-0.07-1.161-0.092-1.735,0.044
	c-1.371,0.185-2.457-0.652-3.625-1.107c-5.296-2.064-10.316-4.603-14.393-8.713c-1.129-1.14-1.947-2.461-2.717-3.832
	c-0.317-0.564-0.58-1.162-0.236-1.822c0.243-0.47,0.214-0.919-0.18-1.275c-0.706-0.64-1.279-1.735-2.461-1.233
	c-1.21,0.515-0.894,1.642-0.701,2.601c0.883,4.386,3.729,7.412,7.073,10.071c0.637,0.507,1.368,0.898,1.935,1.491
	c0.26,0.271,0.677,0.579,0.141,0.992c-3.12-0.056-6.068-0.875-8.942-2.02c-2.522-2.53-3.716-5.694-4.341-9.13
	C1362.715,605.359,1363.3,601.28,1365.645,597.529z"/>
<path fill-rule="evenodd" clip-rule="evenodd" fill="#E8B7CE" d="M1490.991,588.751c0.001-0.117,0.001-0.234,0.003-0.352
	c0.37-1.162,0.175-2.326,0.008-3.489c0.127-1.137-0.559-2.096-0.695-3.174c5.618,3.697,9.86,8.576,12.631,14.718
	c0.352,0.777,0.555,1.662,1.449,2.059c0.787,3.06,1.351,6.145,1.102,9.327c-0.056,0.711,0.219,1.377,0.316,2.066
	c-1.426,1.835-1.601,4.261-2.933,6.158c-0.691,0.985-1.235,2.073-2.105,2.931c-2.308,2.622-5.019,4.766-7.935,6.649
	c0.994,1.274,2.375,1.875,3.867,2.286c1.197,0.452,2.342,0.981,3.046,2.137c-0.128,0.343-0.524,0.607-0.307,1.051
	c-1.544,2.003-3.078,4.014-4.637,6.006c-0.39,0.498-0.858,0.936-1.29,1.402c-0.874,0.189-1.366-0.495-1.93-0.915
	c-1.408-1.05-3.097-1.709-4.282-3.068c-0.147-1.316,0.621-2.414,0.868-3.637c0.178-0.829,0.986-1.845,0.303-2.443
	c-0.707-0.62-1.566,0.376-2.336,0.694c-8.214,3.393-16.758,5.572-25.514,6.968c-1.882,0.3-3.729,0.989-5.686,0.602
	c-0.603-0.023-1.234-0.193-1.721,0.354c-2.801,0.909-5.738,0.875-8.619,1.194c-5.455,0.603-10.939,0.38-16.414,0.376
	c-4.195-0.004-8.367-0.447-12.543-0.802c-0.488-0.908-1.307-0.819-2.133-0.702c-1.969,0.614-3.836-0.327-5.763-0.39
	c-0.568-0.018-1.13-0.192-1.69-0.303c-6.375-1.092-12.609-2.72-18.706-4.894c-2.405-0.856-4.7-1.961-7.216-3.144
	c-0.09,1.339,0.318,2.345,0.646,3.366c0.246,0.763,0.734,1.476,0.527,2.343c-1.709,1.942-3.863,3.202-6.274,4.064
	c-1.238-1.481-2.478-2.963-3.716-4.444c-0.828-1.348-1.656-2.694-2.485-4.041c1.3-1.483,3.144-2.168,4.739-3.217
	c1.308-0.859,1.34-1.021,0.066-1.916c-2.254-1.585-4.251-3.437-5.967-5.594c-0.043-0.17-0.01-0.325,0.088-0.468
	c2.993,0.866,6,1.675,9.094,2.1c0.721-0.288,1.221,0.207,1.762,0.512c6.398,3.604,13.232,6.086,20.338,7.849
	c1.093,0.271,2.62,0.81,3.035-0.665c0.439-1.563-1.207-1.71-2.273-2.013c-2.131-0.604-4.279-1.153-6.377-1.873
	c-0.649-0.223-1.377-0.341-1.771-1.02c0.46-0.539,1.1-0.393,1.637-0.313c4.964,0.743,9.959,0.696,14.955,0.681
	c3.848-0.012,7.707,0.179,11.54-0.055c5.134-0.313,10.251-0.861,15.356-1.601c8.473-1.227,16.719-3.284,24.797-6.035
	c7.75-2.64,15.066-6.211,21.35-11.521c3.863-3.266,7.412-6.923,8.853-12.053c0.067-0.236,0.386-0.402,0.587-0.601
	c1.188,0.872,2.471,0.085,3.701,0.138c0.762,0.033,0.976-2.411,0.26-2.899c-0.928-0.635-1.842-1.521-2.973-0.278
	C1491.48,589.023,1491.184,588.916,1490.991,588.751z"/>
<path fill-rule="evenodd" clip-rule="evenodd" fill="#C6B1D4" d="M1425.584,534.743c1.813,0.36,3.57-0.235,5.344-0.387
	c3.559-0.304,7.067-0.069,10.584,0.389c0.808,0.105,1.741,0.54,2.205-0.623c0.83,0.915,2.027,1.021,3.097,1.407
	c0.882,0.717,2.016,0.767,3.026,1.14c17.545,6.469,28.338,18.817,32.303,37.104c0.109,0.508,0.1,1.04,0.146,1.562
	c0.152,1.787-0.105,2.08-1.537,1.434c-7.292-3.288-15.014-4.969-22.854-6.232c-0.628-0.101-1.272-0.179-1.845-0.499
	c-0.597-2.288-2.235-4.327-1.487-6.949c0.285-1,0.031-2.13-0.364-3.089c-0.609-1.469-0.443-2.917-0.423-4.438
	c0.042-3.146-1.107-6.052-3.542-8.013c-3.05-2.458-7.907-0.632-9.543,3.368c-0.475,1.159-1.047,2.195-1.959,3.054
	c-0.983,0.925-1.428,2.103-1.533,3.43c-0.052,0.634-0.014,1.293-0.449,1.837c-1.205,0.801-2.42,0.869-3.648,0.054
	c-0.377-0.569-0.361-1.224-0.34-1.859c0.045-1.269-0.179-2.431-1.077-3.401c-0.362-0.392-0.575-0.887-0.655-1.412
	c-0.342-2.225-1.816-3.757-3.301-5.231c-1.525-1.517-5.958-1.343-7.427,0.425c-1.519,1.827-3.154,3.99-3.194,6.273
	c-0.055,3.021-0.9,5.664-1.934,8.364c-0.334,0.874-0.426,1.813-0.223,2.756c0.441,2.046-0.395,3.51-2.102,4.572
	c-2.514,0.773-5.162,0.788-7.715,1.374c-2.777,0.636-5.592,1.111-8.306,2.004c-0.505,0.165-1.011,0.276-1.536,0.1
	c-0.821-0.491-0.526-1.215-0.326-1.862c2.754-8.913,7.36-16.579,15.012-22.181c0.328-0.241,0.677-0.46,0.912-0.804
	c0.252-0.367,0.326-0.754,0.041-1.133c-0.232-0.311-0.572-0.38-0.938-0.33c-0.54,0.074-0.971,0.378-1.395,0.689
	c-6.435,4.713-10.906,10.927-13.911,18.248c-1.13,2.754-2.06,5.575-2.661,8.498c-0.092,0.448-0.144,0.939-0.656,1.158
	c-1.098-0.205-2.008,0.352-2.971,0.722c-0.557,0.214-1.09,0.745-1.752,0.235c0.689-7.195,3.186-13.768,7.055-19.81
	c6.673-10.421,16.054-17.26,27.91-20.732c0.22-0.064,0.459-0.061,0.689-0.089C1423.184,534.861,1424.405,534.865,1425.584,534.743z"
	/>
<path fill-rule="evenodd" clip-rule="evenodd" fill="#B59FC5" d="M1455.988,569.846c4.774,0.478,9.457,1.471,14.086,2.688
	c3.75,0.985,7.477,2.103,10.945,3.893c1.469,0.758,1.142-0.387,1.27-1.091c0.541,0.644-0.085,1.803,0.979,2.215
	c-0.476,0.067-0.446,0.331-0.396,0.741c0.276,2.243,0.187,4.52,0.245,6.763c0.066,2.558-2.021,4.32-3.811,5.976
	c-1.318,1.22-2.883,2.131-4.385,3.12c-0.947,0.623-1.391,0.358-1.768-0.529c-0.909-1.462-2.684-1.933-3.724-3.245
	c-0.11-0.483,0.116-0.91,0.217-1.361c0.463-2.059-0.605-3.672-2.603-3.953c-2.039-0.288-3.432,0.887-3.598,3.04
	c-0.049,0.636,0.03,1.287-0.26,1.892c-1.162,1.127-2.487,1.383-3.99,0.773c-0.97-0.394-1.99-0.643-2.979-0.979
	c-0.965-0.327-1.257-0.953-0.775-1.892c0.187-0.362,0.38-0.719,0.557-1.085c1.049-2.169,1.906-4.351,1.301-6.859
	c-0.214-0.888-0.077-1.853-0.046-2.78c0.063-1.836-0.248-3.576-1.09-5.227C1455.833,571.295,1455.378,570.599,1455.988,569.846z"/>
<path fill-rule="evenodd" clip-rule="evenodd" fill="#B59FC5" d="M1395.09,573.003c3.27-0.706,6.465-1.713,9.764-2.311
	c2.672-0.482,5.351-0.878,8.044-1.195c0.053,2.145-0.456,4.2-1.137,6.198c-0.31,0.91-0.552,1.777-0.368,2.715
	c0.191,0.983,0.138,1.953,0.087,2.946c-0.101,1.982,0.562,3.746,1.718,5.373c1.454,2.046,1.271,2.477-1.135,3.212
	c-0.945,0.289-1.896,0.557-2.807,0.954c-0.594,0.261-1.225,0.448-1.756-0.164c-0.313-0.546-0.164-1.128-0.145-1.707
	c0.068-2.056-1.131-3.438-3.048-3.548c-1.745-0.1-2.939,1.009-3.193,2.982c-0.06,0.461-0.05,0.934-0.298,1.354
	c-0.146,0.185-0.313,0.361-0.527,0.447c-2.429,0.955-4.358,2.382-4.902,5.134c-3.102-1.686-5.786-3.862-7.693-6.861
	c-1.479-2.327-2.007-4.876-1.541-7.646c0.205-1.218,0.504-2.509-0.205-3.706c0.234-0.229,0.469-0.456,0.703-0.685
	c1.168-0.467,2.344-0.913,3.498-1.41c0.547-0.234,0.992-0.411,1.104,0.416c0.798,1.361,0.043,2.729-0.04,4.08
	c-0.075,1.218-0.26,2.433-0.197,3.655c0.036,0.721-0.146,1.789,0.834,1.846c1.04,0.062,0.878-1.021,0.959-1.734
	c0.327-2.893,0.519-5.804,1.294-8.627C1394.281,574.067,1394.269,573.292,1395.09,573.003z"/>
<path fill-rule="evenodd" clip-rule="evenodd" fill="#B59FC4" d="M1453.859,523.978c-0.355,0.065-0.976-0.286-1.009,0.307
	c-0.166,2.961-2.212,4.249-4.556,5.308c-1.176,0.011-2.239-0.313-3.16-1.06c-1.198-1.37-2.324-2.774-2.037-4.774
	c0.309-2.143,1.938-3.804,4.106-4.208c1.902-0.354,4.012,0.79,5.061,2.673c0.212,0.381,0.028,1.181,0.884,1.035
	C1453.547,523.337,1454.008,523.357,1453.859,523.978z"/>
<path fill-rule="evenodd" clip-rule="evenodd" fill="#B59FC5" d="M1420.93,529.965c-0.305-0.493-0.672-0.848-1.255-1.085
	c-2.409-0.983-3.479-2.739-3.243-5.141c0.195-1.986,1.777-3.661,3.91-4.138c1.849-0.414,4.043,0.596,5.039,2.318
	c1.1,1.902,0.8,4.067-0.813,5.926c-0.188,0.217-0.346,0.46-0.516,0.689C1423.162,529.342,1421.949,529.441,1420.93,529.965z"/>
<path fill-rule="evenodd" clip-rule="evenodd" fill="#F5BCC3" d="M1365.645,597.529c-1.08,3.024-2.006,6.081-2.103,9.33
	c-0.028,0.985,0.055,1.947,0.349,2.889c-1.099,0.801-2.109,1.802-3.648,1.601c-1.167-0.926-1.023-2.402-1.453-3.622
	c-0.514-1.462-0.734-3.026-0.951-4.572c-0.072-0.368-0.125-0.736,0.062-1.09c-0.146-0.833,0.478-1.08,1.048-1.352
	C1361.178,599.647,1363.412,598.59,1365.645,597.529z"/>
<path fill-rule="evenodd" clip-rule="evenodd" fill="#F5BCC4" d="M1505.693,610.109c-0.723-0.506-0.734-1.246-0.7-2.023
	c0.13-3.027,0.046-6.035-1.077-8.91c-0.204-0.521,0.098-0.596,0.471-0.663c2.293,0.843,4.422,2.019,6.553,3.194
	c-0.094,0.466-0.188,0.931-0.281,1.395c-0.037,0.438-0.072,0.875-0.109,1.313c-0.414,0.797-0.535,1.665-0.618,2.542
	c-0.487,1.522-0.974,3.045-1.461,4.566C1507.178,611.771,1506.221,611.363,1505.693,610.109z"/>
<path fill-rule="evenodd" clip-rule="evenodd" fill="#EED1E3" d="M1445.135,528.532c1.123,0.146,2.205,0.411,3.16,1.06
	c-0.494,1.979-0.987,3.958-1.481,5.938c-1.339,0.205-2.61,0.266-3.097-1.407C1444.189,532.259,1444.662,530.396,1445.135,528.532z"
	/>
<path fill-rule="evenodd" clip-rule="evenodd" fill="#EDD1E3" d="M1420.93,529.965c0.666-1.296,2.025-1.074,3.123-1.43
	c0.51,2.069,1.021,4.139,1.531,6.208c-0.891,0.968-2.242,0.583-3.279,1.121C1421.847,533.898,1421.388,531.932,1420.93,529.965z"/>
<path fill-rule="evenodd" clip-rule="evenodd" fill="#F9F9F9" d="M1374.328,566.782c0.133,1.641,0.961,2.814,2.479,3.586
	c-1.708,0.667-2.255,2.101-2.667,4.017c-0.888-1.792-1.538-3.427-3.547-3.985c1.852-0.549,2.885-1.582,3.156-3.302
	C1373.883,566.884,1373.916,566.484,1374.328,566.782z"/>
<path fill-rule="evenodd" clip-rule="evenodd" fill="#F4F4F3" d="M1405.117,528.737c1.994-0.496,2.445-1.738,3.056-3.118
	c0.31,1.406,0.802,2.414,2.052,3.049c-1.318,0.684-1.822,1.772-2.012,3.272C1407.429,530.636,1407.094,529.223,1405.117,528.737z"/>
<path fill-rule="evenodd" clip-rule="evenodd" fill="#ECEBEB" d="M1377.551,544.397c-0.094,0.758-0.584,1.161-1.268,1.135
	c-0.699-0.027-1.175-0.508-1.134-1.243c0.04-0.726,0.506-1.137,1.253-1.104C1377.155,543.217,1377.51,543.674,1377.551,544.397z"/>
<path fill-rule="evenodd" clip-rule="evenodd" fill="#F1F1F1" d="M1372.828,555.28c0.048-0.512,0.271-0.892,0.824-0.936
	c0.61-0.049,1.02,0.247,1.053,0.868c0.029,0.522-0.288,0.887-0.808,0.954C1373.264,556.249,1372.953,555.856,1372.828,555.28z"/>
<path fill-rule="evenodd" clip-rule="evenodd" fill="#F8ED9B" d="M1415.639,637.849c0.644-0.786,1.541-0.484,2.283-0.396
	c7.347,0.89,14.726,0.806,22.091,0.604c4.151-0.114,8.288-0.747,12.431-1.169c0.311-0.031,0.563-0.071,0.771,0.193
	c-0.141,2.414-0.778,4.676-2.085,6.729c-0.17,0.049-0.351,0.091-0.513,0.023c-5.16-2.127-9.784-0.604-14.244,2.073
	c-2.939,1.765-5.752,3.75-8.912,5.127c-0.783,0.341-1.557,0.86-2.484,0.442C1419.679,648.432,1416.512,643.926,1415.639,637.849z"/>
<path fill-rule="evenodd" clip-rule="evenodd" fill="#F8ED9B" d="M1454.936,636.727c2.596-0.471,5.195-0.924,7.787-1.415
	c8.445-1.602,16.762-3.635,24.612-7.261c0.55-0.254,1.19-0.975,1.705-0.523c0.507,0.443,0.239,1.321,0.072,1.993
	c-0.14,0.558-0.392,1.089-0.594,1.631c-0.157,0.246-0.331,0.503-0.604,0.6c-2.828,0.998-5.465,2.417-8.163,3.696
	c-0.905-0.332-0.727,0.729-1.205,0.948c-4.034,3.326-8.265,6.307-13.458,7.574C1460.818,642.797,1457.465,640.339,1454.936,636.727z
	"/>
<path fill-rule="evenodd" clip-rule="evenodd" fill="#F8ED9B" d="M1381.084,634.232c-0.488-2.117-1.674-4.061-1.576-6.406
	c1.914,0.376,3.457,1.585,5.228,2.252c6.629,2.496,13.353,4.634,20.392,5.645c0.277,0.039,0.532,0.223,0.797,0.339
	c0.066,0.625-0.406,0.936-0.785,1.271c-2.903,2.57-6.223,4.468-9.791,5.942c-0.922,0.38-1.914,0.466-2.906,0.502
	c-1.472-0.146-2.617-1.142-3.994-1.532c-0.378-1.482,0.65-2.03,1.666-2.597c-0.927-0.557-1.709-1.279-1.758-2.518
	c-0.297,1.519-0.654,1.972-2.31,2.924c-0.165,0.045-0.332,0.058-0.503,0.047C1383.356,638.678,1381.867,636.723,1381.084,634.232z"
	/>
<path fill-rule="evenodd" clip-rule="evenodd" fill="#F5E24A" d="M1424.977,651.477c4.064-1.182,7.45-3.664,10.975-5.846
	c2.868-1.774,5.876-3.047,9.235-3.271c2.089-0.139,4.173,0.106,5.943,1.45c-2.733,6.222-10.62,10.803-17.611,10.237
	C1430.485,653.802,1427.568,653.182,1424.977,651.477z"/>
<path fill-rule="evenodd" clip-rule="evenodd" fill="#F5E24A" d="M1465.088,643.97c0.637-1.232,2.002-0.912,3.002-1.353
	c3.784-1.671,7.109-4.019,10.3-6.595c0.36-0.222,0.662-0.529,1.05-0.709c2.857-1.757,5.889-3.134,9.08-4.162
	c-0.365,1.137-0.73,2.272-1.095,3.409c0.095,1.048-0.622,1.748-1.181,2.446c-1.701,2.128-3.379,4.319-6.13,5.232
	C1475.338,644.827,1470.354,645.627,1465.088,643.97z"/>
<path fill-rule="evenodd" clip-rule="evenodd" fill="#F5E24A" d="M1392.441,643.776c1.592-0.787,3.355-1.074,4.967-1.87
	c3.135-1.548,5.932-3.526,8.516-5.845c2.528,0.361,5.057,0.723,7.584,1.085C1408.58,643.787,1399.624,646.606,1392.441,643.776z"/>
<path fill-rule="evenodd" clip-rule="evenodd" fill="#A491C3" d="M1480.114,642.239c3.034-1.991,5.454-4.566,7.312-7.679
	c2.18,1.089,4.142,2.514,6.086,3.966c-2.021,2.87-4.766,5.061-7.131,7.608c-1.67-0.688-2.92-2.018-4.459-2.905
	C1481.327,642.886,1480.717,642.568,1480.114,642.239z"/>
<path fill-rule="evenodd" clip-rule="evenodd" fill="#A391C3" d="M1381.084,634.232c1.416,1.953,2.532,4.148,4.541,5.625
	c0.797,0.382,1.61,0.736,2.283,1.334c0.279,0.347,0.506,0.7,0.126,1.12c-1.645,0.522-2.841,1.765-4.262,2.646
	c-0.528,0.328-0.923,0.924-1.661,0.833c-1.971-1.98-3.941-3.961-5.912-5.941c-0.39-0.554-0.779-1.106-1.169-1.659
	C1377.048,636.871,1379.065,635.552,1381.084,634.232z"/>
<path fill-rule="evenodd" clip-rule="evenodd" fill="#F6F6F5" d="M1460.706,650.933c-0.499-1.36-0.818-2.574-2.258-3.166
	c1.487-0.614,1.863-1.87,2.229-3.405c0.489,1.582,1.144,2.756,2.549,3.368C1461.507,648.614,1461.336,648.827,1460.706,650.933z"/>
<path fill-rule="evenodd" clip-rule="evenodd" fill="#FDFCF8" d="M1388.034,642.312c-0.122-0.312-0.245-0.623-0.368-0.935
	c-0.444-0.62-1.176-0.935-1.638-1.536c1.091-0.805,2.026-1.716,2.128-3.572c0.623,1.589,1.289,2.706,2.673,3.475
	c-1.389,0.445-2.108,1.286-2.383,2.502c-0.08,0.099-0.161,0.198-0.241,0.297C1388.148,642.465,1388.091,642.389,1388.034,642.312z"
	/>
<path fill-rule="evenodd" clip-rule="evenodd" fill="#F0D2E4" d="M1367.748,618.857c2.384,2.004,4.359,4.485,7.129,6.041
	c0.752,0.423,0.555,0.913-0.098,1.298c-1.982,1.171-3.967,2.34-5.95,3.509c-1.843-2.621-3.357-5.424-4.607-8.371
	C1364.762,619.604,1366.215,619.173,1367.748,618.857z"/>
<path fill-rule="evenodd" clip-rule="evenodd" fill="#C6B1D4" d="M1367.748,618.857c-1.115,0.91-2.634,1.248-3.526,2.477
	c-0.583-1.175-1.167-2.349-1.75-3.523c-0.532-1.414-1.065-2.829-1.598-4.244c-0.185-0.786-0.368-1.573-0.553-2.359
	c1.341-0.114,2.185-1.448,3.569-1.459c0.403,3.312,1.976,6.107,3.865,8.763C1367.752,618.626,1367.749,618.742,1367.748,618.857z"/>
<path fill-rule="evenodd" clip-rule="evenodd" fill="#F0D2E4" d="M1492.392,625.513c2.911-1.938,5.603-4.142,8.05-6.64
	c1.404,0.054,2.398,0.979,3.5,1.665c0.56,0.349,0.695,0.871,0.365,1.475c-0.379,0.885-0.758,1.771-1.137,2.655
	c-1.271,1.718-2.006,3.776-3.425,5.399c-1.137-0.423-1.921-1.477-3.137-1.757C1495.17,627.427,1493.428,627.001,1492.392,625.513z"
	/>
<path fill-rule="evenodd" clip-rule="evenodd" fill="#C6B1D4" d="M1504.307,622.013c0.144-1.089-0.813-1.223-1.435-1.63
	c-0.798-0.522-1.619-1.009-2.431-1.51c1.704-2.371,3.439-4.722,3.925-7.721c0.11-0.679,0.53-1.147,1.327-1.043
	c0.814,0.689,1.76,1.123,2.777,1.413C1507.476,615.176,1506.069,618.664,1504.307,622.013z"/>
<path fill-rule="evenodd" clip-rule="evenodd" fill="#F3E8F2" d="M1407.631,590.52c1.225,0.706,2.021-0.473,3.018-0.729
	c3.287-0.848,3.229-0.876,1.496-3.791c-0.955-1.609-1.486-3.37-1.064-5.297c0.139-0.63,0.029-1.248-0.131-1.884
	c-0.289-1.147-0.314-2.324,0.436-3.334c0.459-0.617,0.456-1.289,0.469-1.984c0.025-1.418,0.66-2.678,1.044-4.003
	c1.429-1.386,1.96-2.868,1.536-4.998c-0.385-1.938,0.722-3.834,1.676-5.584c0.426-0.782,0.615-1.49,0.408-2.462
	c-0.372-1.737-0.141-3.485,1.029-4.97c0.475-0.601,0.77-1.278,1.042-1.997c0.882-2.334,2.562-3.439,5.097-3.473
	c4.02-0.052,6.993,2.373,7.777,6.338c0.067,0.337,0.043,0.81,0.255,0.981c1.891,1.537,1.55,3.626,1.48,5.655
	c-0.917,1.273-2.298,1.328-3.56,1.012c-1.49-0.375-1.456-1.874-1.693-3.093c0-0.583,0.289-1.112,0.345-1.686
	c0.089-0.931-0.352-1.57-1.208-1.868c-0.814-0.284-1.523-0.011-1.917,0.738c-0.448,0.855-0.298,1.682,0.457,2.34
	c0.44,0.384,1.086,0.397,1.517,0.812c0.392,0.447,0.596,0.993,0.821,1.53c0.431,1.028,0.212,1.787-0.827,2.305
	c-0.675,0.337-1.343,0.706-1.907,1.221c-0.3,0.272-0.705,0.587-0.528,1.016c0.189,0.457,0.702,0.345,1.085,0.251
	c2.384-0.583,4.821-0.713,7.249-0.977c3.182-0.346,6.25,0.03,9.312,0.798c0.64,0.16,1.52,0.74,1.87-0.046
	c0.297-0.669-0.623-1.13-1.143-1.575c-0.176-0.151-0.39-0.252-0.597-0.359c-2.626-1.36-2.726-1.758-1.059-4.24
	c0.47-0.358,1.097-0.351,1.584-0.662c0.842-0.538,1.124-1.316,0.763-2.238c-0.31-0.786-0.977-1.139-1.807-1.032
	c-1.003,0.129-1.514,0.764-1.548,1.766c-0.021,0.636,0.253,1.242,0.222,1.888c-0.091,0.947-0.352,1.836-0.98,2.563
	c-0.596,0.688-1.406,0.793-2.236,0.604c-0.508-0.114-1.071-0.307-0.682-1.055c-0.27-2.496,0.438-4.597,2.479-6.171
	c0.32-0.248,0.609-0.552,0.668-0.989c0.309-2.296,2.118-3.563,3.598-4.97c2.155-2.05,7.587-0.656,8.885,2.252
	c0.516,1.158,1.02,2.328,1.525,3.494c0.436,1.007,0.795,2.101,0.359,3.2c-0.866,2.182,1.007,4.021,0.74,6.059
	c-0.313,2.381,0.171,4.566,0.972,6.753c0.132,0.361,0.027,0.81,0.032,1.218c1.428,3.287,1.675,6.722,1.899,10.282
	c0.183,2.91-0.61,5.254-1.858,7.585c-0.654,1.222-0.492,1.581,0.795,1.77c0.68,0.101,1.387,0.306,1.98,0.642
	c1.51,0.854,2.873,0.502,4.232-0.309c0.988-0.018,1.423,0.612,1.686,1.443c0.326,1.899,0.227,3.876-0.151,5.665
	c-0.259,1.229-1.923,2.001-3.347,2.32c-4.629,1.039-9.272,1.95-13.986,2.58c-4.598,0.614-9.206,1.304-13.818,1.213
	c-8.742-0.173-17.453-0.883-25.994-3.019c-1.367-0.342-1.531-1.199-1.806-2.184c-0.271-0.963,0.204-1.362,1.118-1.524
	c0.44-0.079,0.564-0.543,0.545-0.986c-0.02-0.458-0.259-0.9-0.68-0.888c-1.727,0.052-1.373-1.152-1.387-2.154
	C1405.759,591.334,1406.574,590.761,1407.631,590.52z"/>
<path fill-rule="evenodd" clip-rule="evenodd" fill="#FDFDFE" d="M1391.563,623.4c2.932,0.905,5.846,1.863,8.84,2.565
	c1.189,0.278,2.476,0.699,2.278,2.334c-0.149,1.243-1.458,1.725-3.284,1.27c-7.918-1.973-15.527-4.724-22.547-8.959
	c-2.996-2.29-6.033-4.521-8.048-7.838c-1.049-1.728-1.641-3.586-1.926-5.546c-0.116-0.795,0.053-1.608,0.979-2.013
	c0.855-0.373,1.652-0.301,2.197,0.421c0.648,0.858,2.05,1.178,1.135,3.079c-0.527,1.097,1.162,2.874,2.25,4.078
	c3.993,4.42,9.148,7.044,14.561,9.244C1389.176,622.516,1390.374,622.947,1391.563,623.4z"/>
<path fill-rule="evenodd" clip-rule="evenodd" fill="#F3E8F2" d="M1395.387,595.394c-0.234-2.53,0.659-3.858,5.248-5.626
	c0.766,0.778,1.831,1.298,2.133,2.476c0.406,1.388,0.686,2.797,0.688,4.247c0.003,1.733-0.486,2.154-2.25,1.573
	C1399.177,597.396,1397.163,596.638,1395.387,595.394z"/>
<path fill-rule="evenodd" clip-rule="evenodd" fill="#E4D8A5" d="M1402.768,592.243c-0.791-0.757-1.908-1.23-2.133-2.475
	c-0.087-1.862-0.006-3.62,2.098-4.484c1.453-0.597,2.799-0.318,3.9,0.614c1.051,0.891,1.559,2.126,1.103,3.583
	c-0.102,0.325-0.072,0.691-0.104,1.038c-0.691,0.743-1.495,1.331-2.415,1.763C1404.4,592.27,1403.584,592.257,1402.768,592.243z"/>
<path fill-rule="evenodd" clip-rule="evenodd" fill="#E4D8A4" d="M1464.723,591.259c-0.563-0.481-1.125-0.962-1.688-1.443
	c-0.02-0.523-0.03-1.049-0.066-1.572c-0.114-1.654,0.6-2.87,2.102-3.474c1.522-0.61,3.114-0.367,4.211,0.814
	c1.006,1.083,1.459,2.52,0.646,4.033c-0.135,0.25-0.182,0.547-0.27,0.822c-0.427,1.168-1.352,1.483-2.48,1.449
	C1466.266,592.041,1465.514,591.575,1464.723,591.259z"/>
<path fill-rule="evenodd" clip-rule="evenodd" fill="#F3E8F2" d="M1467.178,591.889c0.83-0.477,1.775-0.757,2.48-1.449
	c1.338,0.871,3.182,1.187,3.496,3.182c0.144,1.086-0.347,1.745-1.357,2.109c-1.25,0.449-2.475,0.969-3.729,1.4
	c-0.335,0.115-0.804,0.536-1.091,0.063c-0.307-0.508,0.244-0.606,0.572-0.833c0.698-0.482,0.863-1.28,0.192-1.744
	C1466.582,593.816,1466.912,592.887,1467.178,591.889z"/>
<path fill-rule="evenodd" clip-rule="evenodd" fill="#FDFCFD" d="M1490.991,588.751c1.429-1.788,2.798-0.775,4.205,0.058
	c0.53,0.313,0.835,0.673,0.548,1.245c-0.343,0.684-0.549,1.372-0.613,2.141c-0.045,0.532-0.496,0.857-1.006,0.552
	c-0.744-0.445-1.307-0.298-2.045,0.087c-0.735,0.383-1.342-0.023-1.443-0.929c0.014-0.395,0.021-0.784-0.252-1.116
	C1489.584,589.813,1489.918,589.17,1490.991,588.751z"/>
<path fill-rule="evenodd" clip-rule="evenodd" fill="#FDFDFD" d="M1377.658,586.724c0.913,0.806,1.997-1.203,2.779,0.008
	c0.535,0.828,1.132,2.195,0.797,2.874c-0.506,1.022-1.791,1.669-2.775,2.436c-0.146,0.112-2.961-2.328-2.95-2.516
	C1375.614,587.816,1376.533,586.587,1377.658,586.724z"/>
<path fill-rule="evenodd" clip-rule="evenodd" fill="#FDFCFD" d="M1368.764,598.979c0.072-1.734,0.658-2.49,1.939-2.514
	c1.338-0.023,2.037,0.771,2.168,2.021c0.096,0.925-1.271,2.259-2.193,2.095C1369.576,600.386,1368.714,599.813,1368.764,598.979z"/>
<path fill-rule="evenodd" clip-rule="evenodd" fill="#CEB8C5" d="M1491.002,584.91c0.531,1.164,0.542,2.327-0.009,3.489
	c-0.009-0.94-0.017-1.881-0.025-2.821c-0.163-0.229-0.194-0.458-0.007-0.689L1491.002,584.91z"/>
<path fill-rule="evenodd" clip-rule="evenodd" fill="#F9E5F2" d="M1490.961,584.889c0.002,0.229,0.004,0.46,0.007,0.689
	c-0.312-0.213-0.946-0.25-0.835-0.701C1490.258,584.378,1490.672,584.839,1490.961,584.889z"/>
<path fill-rule="evenodd" clip-rule="evenodd" fill="#FDFDFE" d="M1479.402,625.84c-1.441,0.105-2.219-0.199-2.401-1.266
	c-0.188-1.106,0.151-1.945,1.366-2.255c2.545-0.646,4.964-1.638,7.334-2.75c2.348-1.101,4.371-2.647,6.154-4.521
	c0.887-0.933,1.904-1.532,3.008-0.446c1.15,1.131,0.583,2.102-0.404,3.123c-4.059,4.206-9.154,6.485-14.645,8.064
	C1479.539,625.868,1479.238,625.856,1479.402,625.84z"/>
<path fill-rule="evenodd" clip-rule="evenodd" fill="#FDFDFD" d="M1497.642,613.953c-1.571,0.021-2.779-1.161-2.794-2.732
	c-0.012-1.294,1.336-2.675,2.682-2.749c1.37-0.075,2.827,1.355,2.848,2.797C1500.396,612.559,1498.993,613.936,1497.642,613.953z"/>
<path fill-rule="evenodd" clip-rule="evenodd" fill="#FCFCFC" d="M1472.248,626.41c-2.375,0.358-2.873,2.046-3.699,3.854
	c-0.509-1.728-0.764-3.284-2.793-3.812c1.975-0.738,2.486-2.247,2.955-4.085C1469.381,624.207,1470.115,625.687,1472.248,626.41z"/>
<path fill-rule="evenodd" clip-rule="evenodd" fill="#FCFBFC" d="M1493.445,632.205c-0.063,0.701-0.46,1.035-1.143,0.986
	c-0.712-0.052-0.998-0.517-0.941-1.178c0.053-0.607,0.443-0.911,1.048-0.9C1493.114,631.126,1493.438,631.521,1493.445,632.205z"/>
<path fill-rule="evenodd" clip-rule="evenodd" fill="#DDB7CB" d="M1492.392,625.513c1.405,0.933,2.811,1.865,4.216,2.798
	c-1.756-0.156-2.947-1.476-4.433-2.188C1491.742,625.914,1491.865,625.562,1492.392,625.513z"/>
<path fill-rule="evenodd" clip-rule="evenodd" fill="#FBF9FB" d="M1494.992,622.004c-0.463,0.009-0.801-0.141-0.827-0.664
	c-0.025-0.528,0.185-0.928,0.733-1.007c0.553-0.079,0.902,0.23,0.941,0.771C1495.879,621.664,1495.518,621.933,1494.992,622.004z"/>
<path fill-rule="evenodd" clip-rule="evenodd" fill="#FDFDFD" d="M1395.09,573.003c-1.145,3.569-1.566,7.256-1.75,10.976
	c-0.047,0.968-0.24,1.842-1.34,1.902c-1.219,0.065-1.492-0.81-1.531-1.873c-0.109-2.874,0.502-5.674,0.783-8.508
	c1.186-4.853,2.652-9.597,5.01-14.039c3.049-5.743,7.125-10.586,12.373-14.429c0.873-0.64,1.906-1.241,2.76-0.108
	c0.885,1.176-0.049,1.844-0.952,2.507C1402.366,555.355,1397.476,563.366,1395.09,573.003z"/>
<path fill-rule="evenodd" clip-rule="evenodd" fill="#F0D2E4" d="M1441.631,557.256c-0.1,0.211-0.186,0.429-0.303,0.63
	c-0.965,1.647-0.765,2.769,1.354,3.046c0.11,0.015,0.23,0.076,0.312,0.152c0.854,0.793,2.539,1.415,1.92,2.716
	c-0.52,1.093-1.912,0.173-2.963-0.046c-2.878-0.6-5.741-1.079-8.762-0.697c-2.643,0.334-5.309,0.42-7.897,1.145
	c-0.499,0.139-1.086,0.092-1.381-0.477c-0.313-0.603,0.157-0.953,0.492-1.356c0.579-0.696,1.345-1.145,2.151-1.455
	c1.391-0.536,1.399-1.385,0.777-2.508c-0.193-0.351-0.287-0.756-0.426-1.137c0.332-0.512,0.715-0.927,1.414-0.729
	c0.752,3.466,0.557,3.808,4.879,2.449c1.174,0.636,2.352,0.442,3.531,0.012c1.004,1.045,2.263,0.984,2.854-0.184
	c0.362-0.718,0.643-1.484,0.67-2.312C1440.932,556.356,1441.383,556.619,1441.631,557.256z"/>
<path fill-rule="evenodd" clip-rule="evenodd" fill="#FCFCFC" d="M1419.253,542.919c-0.089,1.317-0.905,2.017-2.049,1.959
	c-1.131-0.058-1.935-0.786-1.854-2.1c0.07-1.155,0.71-1.946,1.833-1.927C1418.404,540.871,1419.252,541.568,1419.253,542.919z"/>
<path fill-rule="evenodd" clip-rule="evenodd" fill="#FAF8FB" d="M1461.668,557.327c-0.95,0.385-1.131-0.266-1.115-1.075
	c0.02-1.035,1.024-1.003,1.61-1.197c0.33-0.109,1.224,0.642,0.982,1.135C1462.93,556.63,1463.049,557.986,1461.668,557.327z"/>
<path fill-rule="evenodd" clip-rule="evenodd" fill="#FAF8FB" d="M1461.318,550.135c-0.395-0.563-1.348-0.572-1.216-1.209
	c0.107-0.518,0.579-1.299,1.198-1.26c0.432,0.026,1.188,0.749,1.146,1.076C1462.383,549.233,1461.745,549.649,1461.318,550.135z"/>
<path fill-rule="evenodd" clip-rule="evenodd" fill="#F8F5F9" d="M1459.324,552.632c-0.387,0.302-0.469,1.095-1.05,0.938
	c-0.396-0.106-1.163-0.445-1.005-0.949c0.128-0.405,0.441-1.195,1.086-1.081C1458.768,551.613,1459.23,552.039,1459.324,552.632z"/>
<path fill-rule="evenodd" clip-rule="evenodd" fill="#FAF8FA" d="M1473.49,563.354c-0.016,0.634-0.279,0.884-0.771,0.872
	c-0.541-0.012-0.912-0.29-0.925-0.837c-0.013-0.546,0.337-0.872,0.887-0.85C1473.252,562.563,1473.454,562.971,1473.49,563.354z"/>
<path fill-rule="evenodd" clip-rule="evenodd" fill="#F5F0F7" d="M1455.613,547.51c0.452,0.175,0.913,0.207,0.99,0.709
	c0.086,0.551-0.375,0.685-0.744,0.809c-0.456,0.153-0.62-0.239-0.717-0.563C1455.002,547.997,1455.328,547.75,1455.613,547.51z"/>
<path fill-rule="evenodd" clip-rule="evenodd" fill="#F7F1F9" d="M1468.613,566.511c-0.45-0.179-0.865-0.445-0.832-0.785
	c0.031-0.313,0.436-0.59,0.678-0.883c0.238,0.235,0.592,0.432,0.692,0.717C1469.316,566.027,1468.788,566.182,1468.613,566.511z"/>
<path fill-rule="evenodd" clip-rule="evenodd" fill="#F9F5FB" d="M1467.077,560.479c-0.102,0.359-0.342,0.58-0.735,0.571
	c-0.334-0.007-0.529-0.191-0.506-0.547c0.029-0.453,0.398-0.556,0.729-0.589C1466.887,559.882,1467.068,560.124,1467.077,560.479z"
	/>
<path fill-rule="evenodd" clip-rule="evenodd" fill="#F5EFF9" d="M1468.752,558.757c-0.292-0.465-0.985-0.718-0.54-1.432
	c0.132-0.211,0.317-0.391,0.526-0.225C1469.374,557.607,1469.094,558.165,1468.752,558.757z"/>
<path fill-rule="evenodd" clip-rule="evenodd" fill="#EEE5F3" d="M1454.828,544.621c-0.054,0.302-0.194,0.546-0.534,0.507
	c-0.278-0.032-0.593-0.161-0.621-0.472c-0.036-0.396,0.237-0.64,0.628-0.601C1454.585,544.084,1454.801,544.292,1454.828,544.621z"
	/>
<path fill-rule="evenodd" clip-rule="evenodd" fill="#F8F1FB" d="M1472.756,570.302c0.549,0.229,0.724,0.439,0.709,0.746
	c-0.012,0.231-0.136,0.463-0.4,0.43c-0.373-0.047-0.6-0.289-0.519-0.688C1472.587,570.583,1472.714,570.394,1472.756,570.302z"/>
<path fill-rule="evenodd" clip-rule="evenodd" fill="#F6EEF8" d="M1463.406,552.723c-0.205,0.234-0.439,0.377-0.74,0.256
	c-0.23-0.093-0.355-0.277-0.219-0.525c0.153-0.277,0.383-0.402,0.685-0.21C1463.303,552.353,1463.576,552.424,1463.406,552.723z"/>
<path fill-rule="evenodd" clip-rule="evenodd" fill="#F9F0FB" d="M1474.006,568.668c-0.185,0.094-0.381,0.252-0.438,0.212
	c-0.167-0.117-0.34-0.297-0.391-0.483c-0.047-0.17-0.051-0.533,0.316-0.37C1473.664,568.102,1473.759,568.347,1474.006,568.668z"/>
<path fill-rule="evenodd" clip-rule="evenodd" fill="#E7DBED" d="M1459.209,548.059c-0.09-0.077-0.271-0.156-0.299-0.272
	c-0.061-0.246,0.094-0.456,0.336-0.485c0.113-0.015,0.323,0.136,0.359,0.252C1459.688,547.811,1459.492,547.952,1459.209,548.059z"
	/>
<path fill-rule="evenodd" clip-rule="evenodd" fill="#D3C0E1" d="M1466.113,563.517c-0.097-0.214-0.221-0.36-0.19-0.457
	c0.04-0.126,0.203-0.214,0.313-0.317c0.067,0.118,0.197,0.245,0.186,0.354C1466.408,563.218,1466.264,563.324,1466.113,563.517z"/>
<path fill-rule="evenodd" clip-rule="evenodd" fill="#C6B1D5" d="M1451.254,523.251c-0.143,0.865-0.842,1.644-1.951,1.713
	c-1.094,0.068-1.841-0.679-2.009-1.778c-0.147-0.97,1.052-2.146,2.085-2.166C1450.272,521.004,1451.204,521.968,1451.254,523.251z"
	/>
<path fill-rule="evenodd" clip-rule="evenodd" fill="#C6B1D4" d="M1422.34,521.164c1.359-0.015,2.031,0.868,2.025,1.966
	c-0.007,0.996-0.623,1.926-1.884,1.878c-1.196-0.046-2.126-0.692-2.118-1.885C1420.371,522.024,1421.039,521.142,1422.34,521.164z"
	/>
<path fill-rule="evenodd" clip-rule="evenodd" fill="#F0E283" d="M1479.439,635.313c-0.201,0.457-0.546,0.7-1.05,0.709
	C1478.689,635.713,1478.704,634.979,1479.439,635.313z"/>
<path fill-rule="evenodd" clip-rule="evenodd" fill="#EEE7AB" d="M1386.028,639.841c0.85,0.188,1.366,0.73,1.638,1.535
	c-0.789-0.359-1.541-0.771-2.041-1.519C1385.76,639.852,1385.895,639.846,1386.028,639.841z"/>
<path fill-rule="evenodd" clip-rule="evenodd" fill="#E7A5BF" d="M1441.631,557.256c-0.459-0.25-0.918-0.5-1.377-0.75
	c-0.011-0.058-0.018-0.116-0.033-0.171c-0.603-1.957-0.082-3.263,1.436-3.6c1.226-0.271,2.49,0.566,2.727,1.808
	C1444.675,556.074,1443.663,557.071,1441.631,557.256z"/>
<path fill-rule="evenodd" clip-rule="evenodd" fill="#E6A4BF" d="M1428.32,556.539c-0.482,0.222-0.82,0.725-1.414,0.729
	c-1.248,0.026-2.175-0.464-2.42-1.749c-0.21-1.104,0.052-2.05,1.225-2.584c1.018-0.464,1.838-0.144,2.516,0.562
	C1429.133,554.443,1428.877,555.506,1428.32,556.539z"/>
<path fill-rule="evenodd" clip-rule="evenodd" fill="#784028" d="M1434.079,582.099c-0.371,0.162-0.677,0.338-1.007,0.426
	c-0.289,0.077-0.762-0.098-0.68-0.315c0.338-0.893,0.694-1.827,1.281-2.556c0.251-0.312,1.315-0.277,1.275,0.545
	c-0.041,0.889,0.327,1.269,1.016,1.566c0.347,0.149,0.606,0.391,0.451,0.796c-0.203,0.535-0.649,0.406-1.02,0.245
	C1434.928,582.602,1434.491,582.323,1434.079,582.099z"/>
<path fill-rule="evenodd" clip-rule="evenodd" fill="#EED4E4" d="M1462.189,596.432c-0.701-0.08-0.996-0.515-0.92-1.192
	c0.069-0.627,0.49-0.899,1.091-0.858c0.727,0.049,1.009,0.511,0.937,1.186C1463.229,596.196,1462.805,596.44,1462.189,596.432z"/>
<path fill-rule="evenodd" clip-rule="evenodd" fill="#7E472F" d="M1439.879,579.15c-0.017,0.602-0.32,0.912-0.856,0.917
	c-0.521,0.004-0.88-0.258-0.89-0.832c-0.01-0.565,0.351-0.885,0.844-0.897C1439.475,578.326,1439.82,578.653,1439.879,579.15z"/>
<path fill-rule="evenodd" clip-rule="evenodd" fill="#844E37" d="M1429.838,580.094c-0.729-0.052-0.99-0.42-0.943-0.943
	c0.048-0.521,0.408-0.88,0.944-0.816c0.504,0.061,0.847,0.437,0.817,0.968C1430.627,579.865,1430.206,580.062,1429.838,580.094z"/>
<path fill-rule="evenodd" clip-rule="evenodd" fill="#EFD4E5" d="M1401.393,594.361c0.752-0.068,1.024,0.298,1.022,1.014
	c-0.003,0.679-0.185,1.107-0.964,1.07c-0.669-0.032-1.096-0.308-1.113-1.018C1400.322,594.72,1400.729,594.402,1401.393,594.361z"/>
</svg>
