<?xml version="1.0" encoding="utf-8"?>
<!-- Generator: Adobe Illustrator 16.0.0, SVG Export Plug-In . SVG Version: 6.00 Build 0)  -->
<!DOCTYPE svg PUBLIC "-//W3C//DTD SVG 1.1//EN" "http://www.w3.org/Graphics/SVG/1.1/DTD/svg11.dtd">
<svg version="1.1" id="Layer_1" xmlns="http://www.w3.org/2000/svg" xmlns:xlink="http://www.w3.org/1999/xlink" x="0px" y="0px"
	 width="454px" height="298px" viewBox="0 0 454 298" enable-background="new 0 0 454 298" xml:space="preserve">
<path fill-rule="evenodd" clip-rule="evenodd" fill="#AEADAB" d="M165.788,54.311c9.283-6.286,18.565-12.574,27.845-18.861
	c10.824,0.375,10.833,9.168,12.624,16.425c0.789,3.205,1.633,6.862,0.681,9.857c-7.944,24.982,1.851,44.781,17.499,63.215
	c3.193,3.76,4.854,8.677,4.554,13.919c-7.751,17.731-22.702,26.297-40.273,31.545c-3.5-0.216-6.401-1.724-8.862-4.17
	c-3.198-3.063-2.866-7.323-3.734-11.186c-6.006-13.239-18.022-22.755-22.543-37.038c-1.798-5.681-7.838-2.395-11.843-3.156
	c-12.806-2.43-29.706-4.333-33.475-15.411c-3.012-8.856,14.606-13.767,22.923-20.537c8.662-7.05,18.237-12.981,27.412-19.398
	C160.098,56.541,162.58,54.926,165.788,54.311z"/>
<path fill-rule="evenodd" clip-rule="evenodd" fill="#66645D" d="M187.314,167.521c14.085-7.823,27.216-16.946,38.71-28.311
	c1.681-0.634,3.313-0.53,4.909,0.297c15.291,18.126,27.975,38.129,41.082,57.808c4.815,7.232,6.175,15.298,1.68,23.5
	c-4.661,6.569-8.878,14.027-19.083,9.837c-22.961,6.454-31.572-11.955-43.29-24.984c-8.819,0.329-9.028-8.773-13.961-12.706
	c-3.189-5.87-7.477-11.033-10.847-16.802C185.479,173.159,184.863,170.192,187.314,167.521z"/>
<path fill-rule="evenodd" clip-rule="evenodd" fill="#9A9894" d="M229.37,140.023c-1.113-0.27-2.227-0.538-3.343-0.809
	c-3.209-5.143-6.257-10.385-9.648-15.399c-11.376-16.811-27.097-31.243-16.052-55.919c3.993-8.917,2.903-23.129-6.694-32.446
	c3.817-3.175,7.313-6.884,11.527-9.388c5.054-3.007,9.511-10.757,15.421-7.824c6.415,3.181,6.369,12.651,4.672,18.147
	c-9.064,29.368,11.327,47.195,24.896,67.794c3.003,1.173,6.282,1.777,8.719,4.172c1.096,1.277,1.87,2.726,2.377,4.331
	c0.502,2.515,0.271,4.968-0.578,7.375C252.766,130.654,244.23,140.307,229.37,140.023z"/>
<path fill-rule="evenodd" clip-rule="evenodd" fill="#494742" d="M229.37,140.023c9.602-7.137,19.202-14.273,28.803-21.41
	c3.423-1.388,6.014,0.277,8.517,2.293c3.976,4.569,7.273,9.658,10.786,14.584c2.782,5.258,7.874,8.966,9.943,14.713
	c0.044,1.595-0.626,2.835-1.902,3.767c8.593,15.275,22.84,29.538,8.729,48.869c-1.092,13.577-10.505,17.035-21.937,18.046
	c-0.664-0.479-1.328-0.972-1.99-1.461c3.452-9-0.819-15.798-5.45-23.227C253.145,177.402,235.816,162.129,229.37,140.023z"/>
<path fill-rule="evenodd" clip-rule="evenodd" fill="#55534F" d="M254.612,230.652c6.684-1.72,10.511-7.438,15.711-11.228
	c-0.004-0.001,0.616,0.004,0.616,0.004c20.367-0.591,36.605,5.773,44.452,26.347c0.433,3.74-0.847,6.935-3.136,9.796
	c-10.089,8.483-19.405,18.356-33.763,19.471C260.253,265.775,252.091,251.087,254.612,230.652z"/>
<path fill-rule="evenodd" clip-rule="evenodd" fill="#3A3835" d="M313.876,247.799c-10.197-15.686-27.096-21.234-42.943-28.371
	c8.706-4.216,16.557-9.63,23.309-16.586c21.222,3.291,30.831,17.244,34.029,37.078C325.276,245.84,321.868,251.011,313.876,247.799z
	"/>
<path fill-rule="evenodd" clip-rule="evenodd" fill="#566EA0" d="M263.436,122.726c-1.759-1.37-3.514-2.742-5.266-4.111
	c0.247-2.421,0.488-4.839,0.733-7.26c1.948-0.864,4.063-1.387,5.737-2.812c-2.517-0.288-3.515,2.456-5.691,2.85
	c-4.328-0.72-7.456-2.895-8.807-7.225C273.2,77.613,303.11,60.24,332.756,42.51c1.651-0.676,2.969-0.313,3.903,1.25
	c0.732,2.401,0.41,4.672-0.819,6.832c-11.954,6.903-10.644,17.414-7.632,28.4c-0.141,1.646-0.563,3.196-1.251,4.693
	c-5.077,7.237-11.89,11.68-20.72,12.882c-2.466,0.074-4.873-0.312-7.212-1.069c-5.122-0.896-9.336-8.96-14.394-4.48
	c-5.152,4.561,1.5,11.11,1.001,16.945c-0.009,1.579-0.311,3.1-0.838,4.582c-3.203,5.837-8.328,9.099-14.581,10.844
	C267.908,123.729,265.685,123.098,263.436,122.726z"/>
<path fill-rule="evenodd" clip-rule="evenodd" fill="#576FA1" d="M281.901,113.386c0.372-1.583,0.741-3.168,1.111-4.754
	c-0.558-3.368,1.559-3.649,4.046-3.52c6.439,4.168,10.679,10.481,15.676,16.072c2.715,2.927,3.412,10.296,8.493,7.771
	c6.059-3.013-0.078-9.913,1.483-14.939c0.423-2.49,1.527-4.598,3.444-6.245c1.479-0.699,3.026-0.847,4.615-0.477
	c4.565,1.559,6.104,7.778,11.922,7.833c5.083-5.163-1.198-8.633-1.919-12.866c-0.816-2.409-0.721-4.777,0.228-7.125
	c0.888-1.439,2.1-2.501,3.661-3.16c2.48-0.571,4.86-0.261,7.155,0.786c13.399,9.511,13.399,9.511,16.371-8.381
	c1.388-0.953,2.916-1.443,4.6-1.5c7.526,1.677,11.502,6.547,12.613,13.995c-0.047,1.766-0.733,3.237-2.058,4.41
	c-19.658,14.21-39.316,28.421-58.969,42.64c-3.234,2.337-6.683,3.851-10.792,3.042c-7.148-3.135-13.361-7.644-19.092-12.896
	C281.459,127.451,279.366,120.706,281.901,113.386z"/>
<path fill-rule="evenodd" clip-rule="evenodd" fill="#5870A2" d="M90.872,211.659c21.008-16.714,42.88-32.199,65.68-46.377
	c1.503-0.782,3.081-0.94,4.726-0.564c7.36,4.353,13.209,9.938,15.247,18.648c-0.415,4.969-3.085,7.378-8.097,7.112
	c-0.519-0.117-1.044-0.282-1.582-0.396c-5.294-1.091-8.477-9.443-14.052-6.38c-5.924,3.253,0.2,10.112-1.373,15.221
	c-0.451,2.415-1.559,4.449-3.495,5.999c-1.57,0.613-3.09,0.382-4.702-0.015c-4.814-1.186-7.357-11.437-12.814-5.679
	c-4.231,4.467,5.196,8.34,5.685,13.729c-0.234,2.757-1.879,4.396-4.279,5.463c-2.379,0.759-4.773,0.778-7.182,0.193
	c-15.877-7.846-15.877-7.846-18.684,9.803c-1.388,0.922-2.894,1.413-4.561,1.453c-7.474-1.673-11.449-6.515-12.624-13.895
	C88.861,214.245,89.565,212.805,90.872,211.659z"/>
<path fill-rule="evenodd" clip-rule="evenodd" fill="#566E9F" d="M200.801,190.134c5.547,3.796,6.933,10.412,10.521,15.534
	c-0.584,3.586-0.787,7.338-4.196,9.702c-1.325,0.893-2.719,1.023-4.187,0.397c-2.098,0.885-1.719-6.443-4.47-1.576
	c-0.987,1.746,0.385,4.986-0.553,7.499c-1.037,2.054-2.266,3.98-3.571,5.863c-6.813,5.582-12.489,13.329-22.917,12.021
	c-0.743-0.119-1.485-0.238-2.229-0.349c-16.552-11.75-13.443,4.154-16.352,11.635c-1.549,0.698-3.151,0.957-4.842,0.812
	c-6.656-2.022-9.741-6.921-10.903-13.4c-0.184-2.66,0.213-5.247,1.038-7.778c3.46-7.562,9.599-11.95,17.28-14.515
	c2.464-0.591,4.955-1.018,7.496-0.769c1.595,0.262,3.107,0.824,4.52,1.594c4.097,2.054,7.476,8.86,12.54,4.748
	c4.264-3.466-0.531-9.305-0.203-14.136c-0.032-2.438,0.404-4.79,1.225-7.088c2.57-5.534,6.815-9.119,12.65-10.848
	C196.086,189.025,198.436,189.682,200.801,190.134z"/>
<path fill-rule="evenodd" clip-rule="evenodd" fill="#A7A8A8" d="M278.493,275.042c10.108-7.336,20.218-14.674,30.324-22.013
	c9.663-1.591,13.773,2.145,11.511,11.996c-1.486,1.242-2.969,2.481-4.455,3.719c-1.526,2.448-3.552,4.224-6.478,4.773
	c-2.805,1.842-5.992,3.295-8.354,5.598C291.456,288.468,284.046,287.287,278.493,275.042z"/>
<path fill-rule="evenodd" clip-rule="evenodd" fill="#1E3552" d="M132.762,267.255c-0.058,0.733-0.16,1.459-0.302,2.178
	c-5.259,3.436-10.929,6.238-15.789,10.312c-3.664,2.392-7.413,4.296-11.923,2.224c-4.34-2.509-6.455-6.411-7.123-11.249
	c4.143-15.944,9.24-19.712,25.727-19.081C129.685,254.903,133.398,259.771,132.762,267.255z"/>
<path fill-rule="evenodd" clip-rule="evenodd" fill="#1D3451" d="M132.762,267.255c-4.175-3.214-7.062-7.314-8.567-12.374
	c-2.754-1.936-4.619-4.241-3.277-7.889c4.117-6.145,9.476-10.439,17.068-11.381c1.66,0.382,2.611,1.395,2.743,3.125
	c2.624,3.621,5.251,7.241,7.875,10.862c5.182,6.447-2.306,8.091-4.461,11.757C140.349,263.321,136.555,265.288,132.762,267.255z"/>
<path fill-rule="evenodd" clip-rule="evenodd" fill="#627AB1" d="M165.788,54.311c-2.399,1.736-4.796,3.475-7.192,5.209
	c-1.253-6.647-4.723-10.771-11.685-12.55c-5.439-1.387-8.286-6.061-6.974-11.687c1.102-4.739,4.825-7.755,9.955-7.098
	c5.783,0.737,9.276,4.609,8.553,10.408C157.563,45.697,160.54,50.386,165.788,54.311z"/>
<path fill-rule="evenodd" clip-rule="evenodd" fill="#2D4364" d="M174.223,183.619c-6.982-3.96-10.926-10.317-13.79-17.521
	c0.988-2.459,4.828-2.967,4.39-6.408c3.766-1.545,7.533-3.089,11.299-4.634c3.168,1.568,3.995,4.634,4.897,7.647
	c1.299,5.233,6.105,8.729,7.028,14.166c-0.007,1.613-0.378,3.128-1.096,4.573c-2.105,2.748-4.868,4.157-8.345,4.118
	C176.995,185.261,175.541,184.592,174.223,183.619z"/>
<path fill-rule="evenodd" clip-rule="evenodd" fill="#1F3654" d="M62.955,254.767c-1.261-5.8-2.518-11.6-3.778-17.4
	c5.424-3.923,9.773-10.844,18.178-6.517c5.004,3.258,7.082,8.197,7.99,13.833c0.292,2.878-0.208,5.615-1.449,8.227
	c-2.557,4.383-6.256,6.945-11.445,7.083C68.641,259.435,65.493,257.653,62.955,254.767z"/>
<path fill-rule="evenodd" clip-rule="evenodd" fill="#878785" d="M320.328,265.025c-1.958-5.798-5.175-10.389-11.508-11.992
	c1.685-1.748,3.368-3.49,5.056-5.234c4.798-2.625,9.599-5.25,14.398-7.878C340.27,252.921,333.635,260.031,320.328,265.025z"/>
<path fill-rule="evenodd" clip-rule="evenodd" fill="#1F3654" d="M363.286,20.467c3.899,5.144,13.557,0.744,15.395,9.299
	c4.276,11.803,2.437,14.017-12.907,15.596c-4.74-1.438-8.531-4.046-10.655-8.696C353.067,28.874,358.425,24.795,363.286,20.467z"/>
<path fill-rule="evenodd" clip-rule="evenodd" fill="#2A4163" d="M74.27,256.65c1.991-1.38,3.985-2.764,5.977-4.146
	c2.854-4.175,6.577-3.596,10.511-1.928c3.636,2.457,5.303,5.948,5.424,10.267c-3.222,12.247-9.754,17.398-21.999,10.179
	c0.034-1.591,0.067-3.183,0.101-4.773C70.581,263.053,67.897,259.858,74.27,256.65z"/>
<path fill-rule="evenodd" clip-rule="evenodd" fill="#283F60" d="M386.022,41.276c1.272,1.689,2.548,3.378,3.821,5.066
	c3.886,2.407,5.237,5.773,3.891,10.189c-2.138,4.695-5.553,8.031-10.446,9.81c-1.68,0.261-3.326,0.125-4.956-0.356
	c-5.437-3.017-9.491-7.063-10.146-13.649c0.042-2.63,0.896-4.955,2.692-6.903C375.843,43.764,379.154,36.043,386.022,41.276z"/>
<path fill-rule="evenodd" clip-rule="evenodd" fill="#1C3350" d="M285.62,133.257c13.15-4.815,13.313,7.389,17.963,13.71
	c-2.141,0.614-4.283,1.224-6.424,1.839c-3.355,2.189-6.783,2.343-10.279,0.344c-5.434-2.533-8.886-6.255-7.656-12.778
	C280.603,133.787,282.356,131.972,285.62,133.257z"/>
<path fill-rule="evenodd" clip-rule="evenodd" fill="#5B73A7" d="M104.63,277.86c4.534,1.819,9.15,1.674,13.803,0.553l1.318-0.104
	c-5.796,8.949-13.963,15.112-24.602,14.551c-7.152-0.375-14.267-4.075-12.287-14.046c0.73-0.249,1.464-0.498,2.19-0.766
	C91.578,277.86,98.15,283.103,104.63,277.86z"/>
<path fill-rule="evenodd" clip-rule="evenodd" fill="#566D9F" d="M76.579,232.781c-6.593-1.484-11.221,4.491-17.401,4.582
	c6.991-12.976,20.255-18.215,31.697-25.701c-0.143,1.626-0.283,3.255-0.427,4.883C89.807,225.358,83.813,229.6,76.579,232.781z"/>
<path fill-rule="evenodd" clip-rule="evenodd" fill="#576EA1" d="M373.344,101.285c0.135-1.561,0.27-3.121,0.407-4.677
	c0.151-10.099,8.858-13.424,14.893-18.895c3.507-1.996,7.212-2.938,11.244-2.046c1.45,0.619,2.641,1.57,3.537,2.879
	C395.519,88.929,384.101,94.672,373.344,101.285z"/>
<path fill-rule="evenodd" clip-rule="evenodd" fill="#647CB4" d="M74.182,271.021c9.732,2.101,16.143-1.28,18.567-11.243
	c2.523-1.355,4.867-0.973,7.064,0.746c1.753,3.356,0.082,6.582-0.369,9.855c-3.097,7.831-10.309,7.49-16.852,8.474
	c0,0,0.271-0.042,0.27-0.039C77.374,279.112,75.352,275.539,74.182,271.021z"/>
<path fill-rule="evenodd" clip-rule="evenodd" fill="#5E75AA" d="M386.022,41.276c-4.491,1.568-8.985,3.136-13.476,4.705
	c-2.33,1.585-4.577,1.297-6.762-0.303c-0.613-1.041-0.776-2.049-0.489-3.033c0.292-1.006,0.546-1.492,0.767-1.454
	c8.519,0.959,14.9-0.446,12.618-11.426C384.94,31.172,389.146,33.885,386.022,41.276z"/>
<path fill-rule="evenodd" clip-rule="evenodd" fill="#5C74A8" d="M363.286,20.467c-2.286,5.106-4.571,10.213-6.858,15.319
	c-2.874,1.803-5.338,0.655-7.729-1.065c-0.955-1.054-1.6-2.269-1.892-3.67C352.162,27.309,354.929,19.539,363.286,20.467z"/>
<path fill-rule="evenodd" clip-rule="evenodd" fill="#536B9C" d="M389.707,56.627c1.505-3.412,1.983-6.836,0.135-10.289
	c10.109,0.207,11.18,8.421,13.646,15.396c-1.329,0.972-2.812,1.501-4.46,1.604C394.67,62.843,391.399,60.829,389.707,56.627z"/>
<path fill-rule="evenodd" clip-rule="evenodd" fill="#5C74A7" d="M144.142,261.355c1.489-3.919,2.979-7.84,4.465-11.76
	c1.515,0.104,3.031,0.208,4.55,0.31c1.229-0.856,2.583-1.224,4.083-1.026c1.415,0.526,2.447,1.47,3.102,2.827
	C155.616,256.058,151.051,260.678,144.142,261.355z"/>
<path fill-rule="evenodd" clip-rule="evenodd" fill="#536B9B" d="M346.808,31.051c1.499,0.391,2.998,0.779,4.497,1.17
	c-1.176,9.511-5.741,14.077-15.706,10.758c-0.952-0.143-1.9-0.301-2.846-0.469C335.584,36.415,341.049,33.549,346.808,31.051z"/>
<path fill-rule="evenodd" clip-rule="evenodd" fill="#5E75AA" d="M74.27,256.65c-1.885,3.206-1.932,6.405,0.015,9.602
	c-8.177,0.51-9.813-5.429-11.33-11.485C66.727,255.394,70.498,256.023,74.27,256.65z"/>
<path fill-rule="evenodd" clip-rule="evenodd" fill="#6B82BC" d="M309.396,273.518c2.164-1.594,4.325-3.188,6.486-4.778
	c1.374,3.959,2.759,7.916,4.25,12.182C313.912,281.313,313.279,275.177,309.396,273.518z"/>
<path fill-rule="evenodd" clip-rule="evenodd" fill="#556D9F" d="M160.342,251.706c-1.628-0.473-3.256-0.947-4.884-1.421
	c1.424-9.63,6.32-13.896,16.188-10.48c0,0-0.217-0.228-0.217-0.23C171.177,246.765,165.534,249.033,160.342,251.706z"/>
<path fill-rule="evenodd" clip-rule="evenodd" fill="#5E76AB" d="M194.346,227.554c0.504-2.913,1.005-5.829,1.505-8.742
	c1.969-2.615,4.107-4.899,7.852-4.135c1.14,0.229,2.28,0.461,3.42,0.692C205.118,221.792,200.039,224.994,194.346,227.554z"/>
<path fill-rule="evenodd" clip-rule="evenodd" fill="#657DB3" d="M119.752,278.31c0,0-1.334,0.101-1.325,0.103
	c2.876-5.811,8.093-7.949,14.032-8.973C130.068,275.03,125.323,277.259,119.752,278.31z"/>
<path fill-rule="evenodd" clip-rule="evenodd" fill="#5E76AA" d="M401.514,61.213c0.643,0.239,1.303,0.41,1.974,0.521
	c5.146,5.624,2.432,11.218-0.06,16.813c-0.003,0-1.517-0.293-1.517-0.293l-1.523-0.242
	C395.931,72.087,395.534,66.437,401.514,61.213z"/>
<path fill-rule="evenodd" clip-rule="evenodd" fill="#4B6390" d="M286.588,147.151c3.519,0.549,7.039,1.103,10.567,1.653
	c-1.764,6.491-6.666,5.907-11.64,5.161c-0.037-0.902-0.021-1.804,0.044-2.709C283.965,149.406,284.31,148.035,286.588,147.151z"/>
<path fill-rule="evenodd" clip-rule="evenodd" fill="#677FB7" d="M164.823,159.69c1.155,0.854,2.31,1.706,3.465,2.561
	c-2.617,1.282-5.237,2.565-7.858,3.847c-1.29-0.271-2.582-0.543-3.878-0.815C159.31,163.419,162.065,161.554,164.823,159.69z"/>
<path fill-rule="evenodd" clip-rule="evenodd" fill="#7087C3" d="M186.233,177.238c-2.747-4.619-5.494-9.238-8.239-13.86
	c0.458-0.258,0.887-0.636,1.376-0.741c0.523-0.112,1.098,0.035,1.648,0.07c2.098,1.603,4.2,3.205,6.297,4.812
	c0.719,2.422,1.437,4.848,2.156,7.267C190.134,177.904,188.668,178.209,186.233,177.238z"/>
<path fill-rule="evenodd" clip-rule="evenodd" fill="#6C83BC" d="M186.233,177.238c1.082-0.818,2.162-1.635,3.241-2.453
	c5.197,4.065,8.385,9.614,11.328,15.345c-1.636,0.859-3.272,1.714-4.909,2.573c-5.136-2.669-10.289-5.322-10.313-12.281
	C185.681,179.336,185.899,178.276,186.233,177.238z"/>
<path fill-rule="evenodd" clip-rule="evenodd" fill="#5C6E98" d="M263.436,122.726c1.763-0.743,3.525-1.486,5.285-2.23
	c6.461,3.432,10.68,7.947,7.724,15.941c-0.613,0.549-1.234,1.095-1.854,1.644C269.241,134.149,265.941,128.727,263.436,122.726z"/>
<path fill-rule="evenodd" clip-rule="evenodd" fill="#596D99" d="M286.588,147.151c-0.342,1.364-0.683,2.731-1.024,4.103
	c-5.668-2.717-9.372-7.069-10.973-13.173l0.038-0.01c2.144-1.99,3.953-4.926,7.587-2.649
	C280.273,140.598,283.139,143.983,286.588,147.151z"/>
<path fill-rule="evenodd" clip-rule="evenodd" fill="#1B324E" d="M335.599,42.979c5.235-3.586,10.471-7.172,15.706-10.758
	c1.709,1.191,3.419,2.382,5.126,3.569c3.21,1.803,6.425,3.606,9.634,5.405c-0.326,1.073-0.56,2.167-0.704,3.281
	c0.559,5.655-2.146,9.662-6.466,12.874c-5.996,3.897-12.146,6.82-19.34,2.964c-3.857-2.638-6.141-6.087-5.518-10.986
	C334.555,47.211,335.077,45.095,335.599,42.979z"/>
<path fill-rule="evenodd" clip-rule="evenodd" fill="#1A314E" d="M287.091,105.93c-1.358,0.901-2.719,1.804-4.078,2.701
	c-3.079-6.657-11.108-11.973-8.653-20.023c3.298-10.822,14.524-9.371,24.648,2.778c2.866,3.989,0.836,7.284-1.459,10.564
	C294.689,104.907,291.403,106.778,287.091,105.93z"/>
<path fill-rule="evenodd" clip-rule="evenodd" fill="#1D3451" d="M334.037,49.328c1.979,2.852,3.961,5.701,5.941,8.553
	c5.388,3.602,3.775,7.599,0.69,11.699c-3.981,3.317-7.963,6.666-12.629,9.053c-0.733,0.059-1.473,0.114-2.212,0.165
	C313.71,55.277,313.794,54.968,334.037,49.328z"/>
<path fill-rule="evenodd" clip-rule="evenodd" fill="#1E3552" d="M333.554,93.766c-0.596,2.291-1.188,4.584-1.78,6.878
	c-1.409,5.449-4.927,7.861-10.514,7.281c-1.303,0.01-2.604,0.02-3.906,0.033c-1.318,0.984-2.773,1.281-4.376,0.892
	c-5.167-2.959-8.375-7.179-8.596-13.325c0.478-1.67,1.592-2.5,3.337-2.483c5.766-3.477,11.535-6.951,17.301-10.427
	C331.383,83.64,334.049,87.491,333.554,93.766z"/>
<path fill-rule="evenodd" clip-rule="evenodd" fill="#19304C" d="M304.846,88.075c-5.748-2.282-10.209-7.389-9.729-12.179
	c0.698-6.943,8.176-11.167,14.271-10.999c4.987,0.139,9.31,6.925,8.621,12.3C317.181,83.671,310.358,85.65,304.846,88.075z"/>
<path fill-rule="evenodd" clip-rule="evenodd" fill="#203755" d="M282.216,135.421c-2.531,0.883-5.059,1.766-7.587,2.649
	c2.174-7.259-6.012-11.029-5.918-17.577c4.408-2.374,8.803-4.749,13.195-7.114c4.882,5.948,7.594,12.297,3.714,19.877
	C284.483,133.979,283.348,134.702,282.216,135.421z"/>
<path fill-rule="evenodd" clip-rule="evenodd" fill="#1B324E" d="M258.949,111.393c1.36-5.604-0.456-12.442,5.902-16.106
	c2.46-1.418,4.26,0.639,5.329,2.368c2.405,3.879,7.997,7.307,3.908,12.747c-4.348,5.784-9.764,6.314-15.186,0.953L258.949,111.393z"
	/>
<path fill-rule="evenodd" clip-rule="evenodd" fill="#6178AE" d="M307.719,93.042c-0.398,0.621-0.787,1.243-1.171,1.873
	c0.446,1.652,0.354,3.272-0.273,4.867c-3.567,3.1-7.289,3.985-11.297,0.796c1.343-3.063,2.689-6.125,4.033-9.192
	C301.909,91.938,304.813,92.49,307.719,93.042z"/>
<path fill-rule="evenodd" clip-rule="evenodd" fill="#566EA0" d="M333.554,93.766c-4.223-2.666-6.451-6.854-8.534-11.154
	c0.27-1.27,0.54-2.54,0.809-3.813l0.259,0.139c1.579-0.992,3.198-1.057,4.863-0.207c5.062,4.385,8.395,9.046,2.377,15.17
	L333.554,93.766z"/>
<path fill-rule="evenodd" clip-rule="evenodd" fill="#1D3451" d="M389.651,78.128c0.028,10.747-10.784,12.168-15.901,18.483
	c-3.519-3.877-7.036-7.747-10.553-11.62c-2.244-1.831-3.077-4.25-2.972-7.075c3.259-9.101,7.621-16.623,19.397-13.423
	c0.939,0.4,1.913,0.687,2.92,0.858C388.884,67.403,391.889,71.307,389.651,78.128z"/>
<path fill-rule="evenodd" clip-rule="evenodd" fill="#1B324F" d="M358.663,84.662c0.688,6.371,12.107,10.12,4.22,18.682
	c-9.559,10.375-15.464,7.686-21.42-10.023c-0.521-6.046,3.541-8.486,8.205-10.478C352.939,82.075,356.093,81.948,358.663,84.662z"/>
<path fill-rule="evenodd" clip-rule="evenodd" fill="#1B324E" d="M321.26,107.926c3.511-2.429,7.021-4.859,10.521-7.287
	c8.25,1.58,13.401,7.229,11.887,14.869c-0.939,4.748-8.191,9.963-12.959,8.963C323.365,122.929,319.262,116.413,321.26,107.926z"/>
<path fill-rule="evenodd" clip-rule="evenodd" fill="#1A314D" d="M315.901,115.228c0.69,6.082,11.164,9.925,4.838,17.189
	c-3.271,3.761-8.281,9.824-13.718,6.33c-4.582-2.941-12.121-7.454-6.397-15.8c-1.302-5.294,2.094-7.66,6.024-9.709
	C310.092,112.209,313.315,112.247,315.901,115.228z"/>
<path fill-rule="evenodd" clip-rule="evenodd" fill="#1D3451" d="M309.965,116.405c-3.113,2.178-6.224,4.357-9.34,6.539
	c-8.06-2.847-14.92-6.648-13.535-17.009c2.628-1.787,5.255-3.569,7.887-5.352c3.379-0.389,6.756-0.777,10.134-1.163
	c3.478,1.919,5.564,4.98,7.016,8.556C313.286,111.269,311.581,113.825,309.965,116.405z"/>
<path fill-rule="evenodd" clip-rule="evenodd" fill="#1D3451" d="M350.95,86.874c-3.178,2.164-6.354,4.328-9.508,6.469
	c-2.69,0.168-5.404,0.363-8.115,0.558c2.088-6.228-2.948-10.025-5.062-14.821c2.171-7.374,9.075-9.319,14.677-12.774
	c5.182-0.765,8.642,1.785,11.341,5.835C356.939,77.9,356.658,83.003,350.95,86.874z"/>
<path fill-rule="evenodd" clip-rule="evenodd" fill="#5971A4" d="M350.95,86.874c1.483-4.669,1.648-9.328-0.087-13.975
	c1.258-1.091,2.725-1.706,4.37-1.913c4.857,0.252,7.274,3.086,8.07,7.633c-0.037,2.126-0.077,4.25-0.112,6.371
	c-1.506-0.108-3.017-0.218-4.528-0.328C356.093,85.398,353.522,86.138,350.95,86.874z"/>
<path fill-rule="evenodd" clip-rule="evenodd" fill="#5D75A9" d="M309.965,116.405c0.104-3.16,0.211-6.321,0.314-9.484
	c1.726-1.47,3.404-1.418,5.036,0.163c0.787,0.031,1.467,0.323,2.038,0.875c-0.484,2.419-0.966,4.843-1.451,7.266
	C313.922,115.62,311.943,116.012,309.965,116.405z"/>
<path fill-rule="evenodd" clip-rule="evenodd" fill="#1C3350" d="M76.579,232.781c-1.495-10.639,9.991-10.199,13.871-16.246
	c3.527,3.735,7.057,7.46,10.583,11.185c2.993,2.572,3.8,5.843,3.098,9.608c-2.052,6.404-6.52,10.004-13.058,11.176
	c-4.559,1.043-6.845-3.713-10.796-4.267C79.043,240.418,77.811,236.6,76.579,232.781z"/>
<path fill-rule="evenodd" clip-rule="evenodd" fill="#1C334F" d="M105.422,228.121c-0.701-6.543-12.641-10.673-3.054-19.683
	c11.568-10.872,15.589,0.083,21.635,6.088c2.048,2.043,2.768,4.516,2.402,7.359c-2.268,6.974-7.167,10.354-14.406,10.551
	C109.164,231.986,106.849,230.727,105.422,228.121z"/>
<path fill-rule="evenodd" clip-rule="evenodd" fill="#1B324E" d="M137.828,212.136c-9.359,1.497-15.495-3.398-17.8-11.471
	c-1.999-6.996,5.713-9.892,10.061-11.118c13.39-3.776,11.263,9.95,16.063,15.99c0.65,0.939,0.875,1.889,0.675,2.841
	c-0.207,0.994-0.41,1.473-0.611,1.44C143.886,212.273,141.221,213.523,137.828,212.136z"/>
<path fill-rule="evenodd" clip-rule="evenodd" fill="#1B324F" d="M148.273,197.531c-0.725-6.561-13.142-11.377-2.382-19.753
	c14.089-10.966,16.249,1.71,20.854,9.903c1.008,1.352,1.477,2.871,1.417,4.561c-1.195,4.489-4.396,6.866-8.584,8.23
	C155.395,201.105,151.337,201.205,148.273,197.531z"/>
<path fill-rule="evenodd" clip-rule="evenodd" fill="#1C3350" d="M137.828,212.136c2.303-1.409,4.605-2.819,6.908-4.229
	c10.971-2.941,15.06,1.089,12.253,12.1c-4.925,3.449-9.847,6.899-14.768,10.348c-11.346,0.828-13.592-5.481-11.756-14.99
	C132.919,214.288,135.374,213.212,137.828,212.136z"/>
<path fill-rule="evenodd" clip-rule="evenodd" fill="#566EA0" d="M164.757,192.683c0.664-1.665,1.327-3.333,1.988-5.001
	c3.364,0.229,6.104-0.688,7.483-4.072c1.629-0.319,3.267-0.648,4.901-0.978c5.063,4.68,5.489,10.925,5.813,17.207
	c-0.423,2.797-0.85,5.592-1.273,8.386c-3.877,7.333-8.417,13.488-18.234,10.245l-0.653-0.651c-0.884-1.317-1.303-2.777-1.335-4.355
	C164.445,206.577,171.687,200.084,164.757,192.683z"/>
<path fill-rule="evenodd" clip-rule="evenodd" fill="#5E76AB" d="M165.594,214.605c-0.235,1.083-0.505,2.156-0.81,3.218
	c-2.597,0.728-5.191,1.456-7.792,2.184c-1.312-6.827-4.726-11.519-12.241-12.093c0.653-0.684,1.128-1.479,1.405-2.384
	c0.704-2.661,1.408-5.328,2.116-7.996c3.945-0.544,7.89-1.08,11.834-1.62C163.615,201.652,162.795,208.661,165.594,214.605z"/>
<path fill-rule="evenodd" clip-rule="evenodd" fill="#647CB3" d="M130.464,215.364c2.628,6.013,5.349,11.947,11.756,14.993
	c-0.498,2.787-0.995,5.582-1.492,8.376c-0.771-0.375-1.57-0.69-2.39-0.943c-1.413,0.534-2.852,0.62-4.323,0.264
	c-6.123-3.606-8.306-10.102-11.575-15.802c0.522-2.576,1.044-5.152,1.565-7.726C126.158,214.805,128.31,215.086,130.464,215.364z"/>
<path fill-rule="evenodd" clip-rule="evenodd" fill="#5C74A8" d="M105.422,228.121c2.663,0.177,5.323,0.354,7.985,0.534
	c3.489,4.317,6.366,8.8,3.998,14.722c-1.069,1.221-2.39,2.028-3.958,2.455c-6.242,0.693-10.876-2.007-14.473-6.875
	c0.689-3.747,1.378-7.494,2.061-11.24C102.496,227.852,103.959,227.986,105.422,228.121z"/>
<path fill-rule="evenodd" clip-rule="evenodd" fill="#19304C" d="M165.435,218.47c6.076-3.414,12.155-6.829,18.234-10.245
	c0.67,6.335,12.083,10.183,3.938,18.663C178.62,236.249,174.266,234.71,165.435,218.47z"/>
<path fill-rule="evenodd" clip-rule="evenodd" fill="#19304C" d="M171.646,239.805c-6.534,1.736-11.134,6.46-16.188,10.48
	c-0.771-0.11-1.539-0.237-2.305-0.377c-1.201-6.508-13.193-11.029-3.476-19.56C163.73,218.013,166.569,231.449,171.646,239.805z"/>
<path fill-rule="evenodd" clip-rule="evenodd" fill="#1B324E" d="M203.703,214.677c-2.136,2.292-4.275,4.584-7.852,4.138
	c-1.121-1.926-2.28-3.831-3.365-5.773c-2.059-3.684-6.458-7.183-1.498-11.637c2.442-2.195,5.207-4.918,8.836-3.259
	c4.955,2.259,4.828,6.988,4.508,11.543C204.214,211.358,203.919,213.015,203.703,214.677z"/>
<path fill-rule="evenodd" clip-rule="evenodd" fill="#1E3552" d="M184.942,199.839c-5.854-4.408-10.451-9.238-5.827-17.202
	c2.163-0.74,4.311-1.477,6.464-2.215c6.804,1.268,9.566,5.93,10.32,12.282C192.242,195.081,188.594,197.46,184.942,199.839z"/>
<path fill-rule="evenodd" clip-rule="evenodd" fill="#1C3350" d="M82.593,278.854c3.632-5.314,8.527-8.42,15.082-8.63
	c2.149-0.545,3.791,0.134,4.927,2.036c0.689,1.883,1.374,3.769,2.044,5.626C100.473,291.285,96.584,291.462,82.593,278.854z"/>
<path fill-rule="evenodd" clip-rule="evenodd" fill="#576FA1" d="M102.602,272.26c-1.643-0.677-3.282-1.352-4.927-2.032
	c0.601-3.066,1.198-6.132,1.798-9.198c-0.991-12.196,10.167-12.63,16.842-17.398l-0.245,0.16c2.548-1.747,4.94-1.294,7.245,0.501
	c1.041,1.796,0.724,3.311-0.945,4.543c0.609,2.018,1.218,4.034,1.828,6.046C112.798,255.458,102.264,257.101,102.602,272.26z"/>
<path fill-rule="evenodd" clip-rule="evenodd" fill="#566D9F" d="M122.37,248.835c0.129-1.464,0.26-2.928,0.392-4.392
	c0.597-7.452,4.174-10.476,11.59-7.798c1.327,0.381,2.654,0.763,3.985,1.144C133.018,241.471,127.692,245.15,122.37,248.835z"/>
<path fill-rule="evenodd" clip-rule="evenodd" fill="#5C74A7" d="M80.275,244.237c3.614-1.818,6.979-0.005,10.422,0.711
	c1.329,2.519,2.268,4.992-0.776,7.025c-3.224,0.173-6.448,0.342-9.672,0.52C80.256,249.748,80.266,246.992,80.275,244.237z"/>
<path fill-rule="evenodd" clip-rule="evenodd" fill="#1F3654" d="M89.92,251.974c0.246-2.334,0.493-4.672,0.758-7.016
	c2.784-2.016,5.555-4.023,8.313-6.018c7.006-3.035,11.15,4.589,17.324,4.69c-2.938,8.39-11.773,11.072-16.846,17.397
	c-2.238-0.416-4.479-0.83-6.721-1.246C91.805,257.177,90.861,254.575,89.92,251.974z"/>
<path fill-rule="evenodd" clip-rule="evenodd" fill="#294061" d="M363.304,78.619c-2.896-1.749-5.796-3.5-8.691-5.248
	c-10.983-7.48-6.033-12.9,2.307-17.886c4.712-1.523,8.257-9.988,14.49-2.435c2.737,3.813,5.471,7.624,8.21,11.438
	C374.182,69.204,368.744,73.911,363.304,78.619z"/>
<path fill-rule="evenodd" clip-rule="evenodd" fill="#213857" d="M389.651,78.128c-2.368-4.263-4.737-8.523-7.107-12.78
	c1.263-3.841,3.173-7.152,7.178-8.729c3.921,1.536,7.852,3.064,11.789,4.593c0.601,5.666,1.225,11.332-1.118,16.799
	C396.822,79.374,393.257,80.343,389.651,78.128z"/>
<path fill-rule="evenodd" clip-rule="evenodd" fill="#6A81BB" d="M371.409,53.051c-5.735-2.025-9.689,2.477-14.47,3.945
	c-0.971-0.939-1.199-1.732-0.686-2.38c0.504-0.639,0.944-0.929,1.326-0.862c2.593-3.093,5.188-6.186,7.784-9.277
	c2.39,0.5,4.786,1.003,7.183,1.504C372.166,48.339,371.785,50.696,371.409,53.051z"/>
<path fill-rule="evenodd" clip-rule="evenodd" fill="#5971A4" d="M357.58,53.754c-0.153,1.093-0.368,2.173-0.641,3.242
	c-5.939,4.72-6.979,10.144-2.331,16.375c-1.246-0.157-2.495-0.314-3.748-0.473c-3.171-1.685-6.342-3.371-9.517-5.054
	c-0.778-0.059-1.556-0.114-2.337-0.174c1.354-3.161,3.233-6.274,0.972-9.792C346.394,58.837,352.01,56.398,357.58,53.754z"/>
<path fill-rule="evenodd" clip-rule="evenodd" fill="#6078AD" d="M339.007,67.67c0.777,0.079,1.558,0.138,2.337,0.174
	c-4.355,3.746-8.712,7.492-13.071,11.237c-0.728-0.11-1.459-0.161-2.188-0.145C327.811,72.219,332.901,69.365,339.007,67.67z"/>
<path fill-rule="evenodd" clip-rule="evenodd" fill="#576FA1" d="M315.315,107.084c-1.678-0.055-3.355-0.107-5.033-0.163
	c-1.725-2.5-3.446-5.004-5.171-7.505c0.478-1.497,0.954-2.994,1.436-4.497C309.47,98.972,312.394,103.028,315.315,107.084z"/>
<path fill-rule="evenodd" clip-rule="evenodd" fill="#253C5C" d="M134.351,236.646c-4.712,1.344-8.445,4.137-11.59,7.8
	c-2.232-0.221-4.461-0.439-6.691-0.654c-1.894-4.863-6.364-9.27-2.673-15.132c3.027-2.144,6.046-4.281,9.052-6.415
	C131.863,222.539,134.772,228.214,134.351,236.646z"/>
<path fill-rule="evenodd" clip-rule="evenodd" fill="#243B5B" d="M165.594,214.605c-9.661-3.908-15.807-8.859-5.509-18.683
	c1.585-1.097,3.148-2.186,4.691-3.253C181.038,198.001,181.125,200.334,165.594,214.605z"/>
</svg>
