<?xml version="1.0" encoding="utf-8"?>
<!-- Generator: Adobe Illustrator 16.0.0, SVG Export Plug-In . SVG Version: 6.00 Build 0)  -->
<!DOCTYPE svg PUBLIC "-//W3C//DTD SVG 1.1//EN" "http://www.w3.org/Graphics/SVG/1.1/DTD/svg11.dtd">
<svg version="1.1" id="Layer_1" xmlns="http://www.w3.org/2000/svg" xmlns:xlink="http://www.w3.org/1999/xlink" x="0px" y="0px"
	 width="35px" height="1270px" viewBox="0 0 35 1270" enable-background="new 0 0 35 1270" xml:space="preserve">
<g>
	<path fill="#625573" d="M5.96,1220.619c-0.451,0.451-0.999,1.214-1.644,2.288c-0.214,0.43-0.451,0.451-0.709,0.064
		c-0.236-0.387-0.354-0.892-0.354-1.515c0-0.301,0.076-0.773,0.226-1.418c0.086-0.387,0.247-0.999,0.483-1.837l0.322-1.031
		c0.215-0.623,0.483-1.01,0.806-1.16c0.193-0.086,0.559-0.075,1.096,0.032c0.258,0.043,0.451,0.075,0.58,0.097
		c0.237,0.021,0.473,0.032,0.709,0.032h18.079c3.202,0,5.64,0.279,7.315,0.838c1.311,0.43,2.051,0.978,2.224,1.644
		c0.064,0.408-0.269,0.709-0.999,0.902c-0.773,0.193-2.041,0.29-3.803,0.29H7.604C7.045,1219.846,6.497,1220.104,5.96,1220.619z
		 M11.6,1239.472c-0.258,0.43-0.462,0.924-0.612,1.482c-0.107,0.43-0.301,0.569-0.58,0.419c-0.279-0.129-0.494-0.516-0.645-1.16
		c-0.085-1.117-0.075-2.116,0.032-2.997c0.129-1.074,0.376-1.891,0.741-2.449c0.021-0.666,0-1.375-0.064-2.127
		c-0.085-0.709-0.193-1.375-0.322-1.998c-0.085-0.258-0.172-0.483-0.258-0.677c-0.043-0.107-0.129-0.258-0.258-0.451
		c-0.172-0.301-0.29-0.612-0.354-0.935c-0.107-0.473-0.161-1.214-0.161-2.224c0-0.516,0.14-0.913,0.419-1.192
		c0.237-0.279,0.548-0.397,0.935-0.354c0.366,0.021,0.688,0.193,0.967,0.516c0.301,0.344,0.473,0.806,0.516,1.386l0.387,7.992h9.7
		c0.344,0,0.205-1.676-0.419-5.027c-0.665-3.566-1.567-7.187-2.707-10.86h1.482c1.482,3.502,2.632,6.51,3.448,9.023
		c0.838,2.6,1.439,5.081,1.805,7.444c0.064,0.537-0.269,1.214-0.999,2.03c-0.752,0.838-1.461,1.257-2.127,1.257H12.76
		C12.352,1238.569,11.965,1238.87,11.6,1239.472z"/>
	<path fill="#625573" d="M6.153,1189.166c-0.559,0.516-1.16,1.364-1.805,2.546c-0.322,0.58-0.591,0.677-0.806,0.29
		c-0.193-0.322-0.29-0.752-0.29-1.289c0-0.387,0.118-1.139,0.354-2.256c0.215-0.859,0.462-1.783,0.741-2.771
		c0.172-0.58,0.451-0.935,0.838-1.063c0.215-0.086,0.612-0.075,1.192,0.032l0.902,0.064h11.376c0-0.494-0.064-0.902-0.193-1.225
		c-0.064-0.193-0.193-0.419-0.387-0.677c-0.258-0.344-0.43-0.666-0.516-0.967c-0.15-0.537-0.204-1.278-0.161-2.224
		c0.021-0.602,0.193-1.063,0.516-1.386c0.301-0.301,0.666-0.451,1.096-0.451c0.408,0,0.763,0.129,1.063,0.387
		c0.322,0.279,0.483,0.645,0.483,1.096v5.446h6.22c2.622,0,4.661,0.301,6.123,0.902c1.181,0.473,1.901,1.074,2.159,1.805
		c0.129,0.322-0.172,0.58-0.902,0.773c-0.73,0.172-1.762,0.258-3.094,0.258H7.732C7.174,1188.457,6.648,1188.693,6.153,1189.166z
		 M10.182,1207.406c-0.301-0.064-0.397-0.483-0.29-1.257c0.086-1.311,0.129-2.557,0.129-3.738c-0.021-1.311-0.107-2.739-0.258-4.286
		c-0.043-0.258-0.107-0.462-0.193-0.612c-0.021-0.086-0.085-0.193-0.193-0.322c-0.129-0.193-0.204-0.397-0.226-0.612
		c-0.064-0.322-0.064-0.881,0-1.676c0.172-1.697,0.44-2.675,0.806-2.933c0.237-0.15,0.666,0.011,1.289,0.483l0.516,0.322
		c0.967,0.516,1.977,1.085,3.029,1.708c1.031,0.645,2.02,1.3,2.965,1.966c0.408-0.473,0.741-0.956,0.999-1.45
		c0.15-0.301,0.322-0.688,0.516-1.16c0.236-0.602,0.463-1.031,0.677-1.289c0.344-0.387,0.902-0.741,1.676-1.063
		c0.753-0.344,1.429-0.494,2.03-0.451c0.537,0.021,0.945,0.183,1.225,0.483c0.258,0.301,0.344,0.634,0.258,0.999
		c-0.064,0.408-0.301,0.752-0.709,1.031c-0.859,0.623-1.762,1.278-2.707,1.966c-0.902,0.666-1.815,1.354-2.739,2.063
		c1.482,1.246,2.933,2.804,4.351,4.673c1.504,1.977,2.578,3.771,3.223,5.382c0.365,1.01,0.463,1.601,0.29,1.772
		c-0.172,0.193-0.548-0.097-1.128-0.87c-1.934-2.578-4.297-4.952-7.09-7.122c-2.557-1.977-4.855-3.341-6.896-4.093
		c0,0.752,0.054,1.504,0.161,2.256c0.064,0.688,0.183,1.439,0.354,2.256c0.043,0.258,0.108,0.494,0.193,0.709
		c0.043,0.129,0.108,0.29,0.193,0.483c0.172,0.43,0.226,0.784,0.161,1.063c-0.107,0.387-0.472,1.053-1.096,1.998
		C11.031,1207.052,10.525,1207.492,10.182,1207.406z"/>
	<path fill="#625573" d="M5.96,1154.619c-0.451,0.451-0.999,1.192-1.644,2.224c-0.214,0.43-0.451,0.451-0.709,0.064
		c-0.236-0.365-0.354-0.859-0.354-1.482c0-0.301,0.076-0.763,0.226-1.386c0.086-0.365,0.247-0.956,0.483-1.772l0.322-1.096
		c0.215-0.623,0.483-1.01,0.806-1.16c0.193-0.086,0.559-0.075,1.096,0.032c0.258,0.043,0.451,0.075,0.58,0.097
		c0.237,0.021,0.473,0.032,0.709,0.032h12.601c2.02,0,3.631,0.279,4.834,0.838c1.011,0.451,1.601,0.999,1.772,1.644
		c0.064,0.408-0.246,0.709-0.935,0.902c-0.688,0.193-1.794,0.29-3.319,0.29H7.604C7.045,1153.846,6.497,1154.104,5.96,1154.619z
		 M8.055,1164.899c0.172-0.086,0.43-0.043,0.773,0.129l0.451,0.161c0.193-1.805,0.87-3.201,2.03-4.189
		c0.988-0.881,2.181-1.321,3.577-1.321c1.697,0,3.062,0.623,4.093,1.869c1.075,1.289,1.611,3.008,1.611,5.156
		c0,1.934-0.569,3.502-1.708,4.705c-1.052,1.139-2.353,1.708-3.899,1.708c-1.246,0-2.341-0.322-3.287-0.967
		c-1.117-0.773-1.848-1.923-2.191-3.448c-0.129-0.666-0.375-1.106-0.741-1.321c-0.322-0.172-0.601-0.129-0.838,0.129
		c-0.279,0.301-0.504,0.322-0.677,0.064c-0.172-0.258-0.161-0.698,0.032-1.321C7.518,1165.479,7.776,1165.028,8.055,1164.899z
		 M12.502,1168.896c0.58,0.537,1.289,0.806,2.127,0.806c0.817,0,1.504-0.269,2.063-0.806c0.645-0.623,0.967-1.461,0.967-2.514
		c0-1.01-0.322-1.815-0.967-2.417c-0.559-0.559-1.246-0.838-2.063-0.838c-0.838,0-1.547,0.279-2.127,0.838
		c-0.623,0.602-0.935,1.407-0.935,2.417C11.567,1167.435,11.879,1168.272,12.502,1168.896z M26.521,1166.092
		c-0.236,0.43-0.462,1.096-0.677,1.998c-0.129,0.516-0.408,0.569-0.838,0.161c-0.408-0.408-0.612-0.892-0.612-1.45
		c0-0.537,0.021-1.192,0.064-1.966c0.021-0.752,0.075-1.439,0.161-2.063c0.086-0.709,0.301-1.16,0.645-1.354
		c0.215-0.107,0.634-0.129,1.257-0.064l0.902,0.032h2.643c0.516,0,0.87-0.086,1.063-0.258c0.193-0.193,0.29-0.559,0.29-1.096v-4.479
		c0-0.451-0.044-0.838-0.129-1.16c-0.064-0.215-0.161-0.462-0.29-0.741c-0.215-0.408-0.354-0.763-0.419-1.063
		c-0.129-0.559-0.161-1.311-0.097-2.256c0.021-0.623,0.193-1.128,0.516-1.515c0.279-0.322,0.623-0.483,1.031-0.483
		c0.387,0,0.72,0.14,0.999,0.419c0.322,0.344,0.483,0.773,0.483,1.289v11.634c0,1.203-0.258,2.105-0.773,2.707
		c-0.516,0.58-1.257,0.87-2.224,0.87h-2.836C27.229,1165.254,26.843,1165.533,26.521,1166.092z"/>
	<path fill="#625573" d="M15.306,1133.092c-1.052,1.246-2.406,1.869-4.061,1.869c-1.139,0-2.191-0.365-3.158-1.096
		c-1.181-0.902-1.912-2.191-2.191-3.867c-0.15-0.645-0.397-0.999-0.741-1.063c-0.279-0.064-0.58,0.064-0.902,0.387
		c-0.236,0.236-0.43,0.161-0.58-0.226c-0.129-0.387-0.085-0.87,0.129-1.45c0.237-0.623,0.462-0.999,0.677-1.128
		c0.129-0.086,0.312-0.075,0.548,0.032c0.129,0.043,0.215,0.075,0.258,0.097c0.108,0.043,0.215,0.054,0.322,0.032
		c0.279-1.848,0.999-3.276,2.159-4.286c0.988-0.859,2.127-1.289,3.416-1.289c1.633,0,2.986,0.623,4.061,1.869
		c1.096,1.289,1.644,2.976,1.644,5.06C16.885,1130.138,16.358,1131.824,15.306,1133.092z M8.989,1130.643
		c0.559,0.58,1.236,0.87,2.03,0.87c0.795,0,1.461-0.29,1.998-0.87c0.624-0.645,0.935-1.547,0.935-2.707
		c0-1.074-0.311-1.934-0.935-2.578c-0.537-0.58-1.203-0.87-1.998-0.87c-0.794,0-1.471,0.29-2.03,0.87
		c-0.601,0.645-0.902,1.504-0.902,2.578C8.087,1129.074,8.388,1129.977,8.989,1130.643z M19.108,1119.009
		c-0.021-0.172-0.075-0.397-0.161-0.677c-0.129-0.473-0.182-0.924-0.161-1.354c0.021-0.688,0.173-1.74,0.451-3.158
		c0.086-0.473,0.302-0.795,0.645-0.967c0.302-0.172,0.624-0.193,0.967-0.064c0.366,0.129,0.645,0.376,0.838,0.741
		c0.215,0.387,0.29,0.849,0.226,1.386c-0.365,2.535-0.537,6.005-0.516,10.409c0.021,3.824,0.161,7.144,0.419,9.958
		c0.044,0.602,0.118,1.16,0.226,1.676c0.043,0.279,0.118,0.634,0.226,1.063c0.193,0.688,0.215,1.214,0.064,1.579
		c-0.149,0.408-0.698,1.289-1.644,2.643c-0.451,0.602-0.881,0.967-1.289,1.096c-0.387,0.15-0.516-0.032-0.387-0.548
		c0.451-1.912,0.677-5.511,0.677-10.796c0.021-4.684-0.107-8.476-0.387-11.376l-0.064-0.677
		C19.194,1119.6,19.152,1119.288,19.108,1119.009z M26.553,1136.54c-0.215,0.387-0.43,0.967-0.645,1.74
		c-0.129,0.516-0.375,0.58-0.741,0.193c-0.343-0.365-0.536-0.827-0.58-1.386c-0.043-0.387-0.032-0.978,0.032-1.772
		c0.043-0.602,0.107-1.3,0.193-2.095c0.086-0.73,0.279-1.182,0.58-1.354c0.215-0.107,0.602-0.129,1.16-0.064l0.902,0.032h2.127
		c0.559,0,0.945-0.097,1.16-0.29c0.193-0.193,0.29-0.569,0.29-1.128v-4.963c0-0.451-0.043-0.838-0.129-1.16
		c-0.043-0.193-0.129-0.44-0.258-0.741c-0.172-0.408-0.301-0.795-0.387-1.16c-0.107-0.602-0.161-1.429-0.161-2.481
		c0-0.58,0.15-1.042,0.451-1.386c0.279-0.279,0.633-0.419,1.063-0.419c0.387,0,0.729,0.14,1.031,0.419
		c0.322,0.322,0.483,0.741,0.483,1.257v12.375c0,1.16-0.279,2.052-0.838,2.675c-0.537,0.602-1.3,0.902-2.288,0.902h-2.288
		C27.262,1135.734,26.875,1136.003,26.553,1136.54z"/>
	<path fill="#625573" d="M5.799,1079.273c-0.387,0.473-0.859,1.311-1.418,2.514c-0.236,0.451-0.494,0.451-0.773,0
		c-0.236-0.387-0.354-0.806-0.354-1.257c0-0.408,0.097-1.117,0.29-2.127c0.15-0.859,0.354-1.762,0.612-2.707
		c0.172-0.58,0.44-0.935,0.806-1.063c0.237-0.086,0.624-0.075,1.16,0.032l0.87,0.064h7.187c-0.021-0.666-0.097-1.203-0.226-1.611
		c-0.085-0.236-0.226-0.505-0.419-0.806c-0.214-0.301-0.354-0.58-0.419-0.838c-0.107-0.43-0.129-1.042-0.064-1.837
		c0.021-0.602,0.205-1.063,0.548-1.386c0.279-0.279,0.634-0.408,1.063-0.387c0.408,0.021,0.763,0.161,1.063,0.419
		c0.322,0.301,0.483,0.655,0.483,1.063v5.382h0.451c1.333,0,2.514,0.236,3.545,0.709c1.075,0.473,1.676,1.074,1.805,1.805
		c0.044,0.43-0.258,0.741-0.902,0.935c-0.58,0.172-1.386,0.258-2.417,0.258H7.313C6.777,1078.436,6.271,1078.715,5.799,1079.273z
		 M19.334,1085.783c0.859,2.922,1.461,5.554,1.805,7.896c0.064,0.537-0.301,1.085-1.096,1.644c-0.709,0.494-1.289,0.741-1.74,0.741
		h-6.188c-0.623,0-1.117,0.269-1.482,0.806c-0.301,0.43-0.601,1.182-0.902,2.256c-0.085,0.344-0.279,0.44-0.58,0.29
		c-0.322-0.172-0.537-0.602-0.645-1.289c-0.064-0.408-0.085-1.096-0.064-2.063c0-0.838,0.043-1.848,0.129-3.029
		c0.064-0.473,0.247-0.763,0.548-0.87c0.193-0.086,0.602-0.097,1.225-0.032l1.257,0.032h5.962c0.408,0,0.344-1.654-0.193-4.963
		c-0.537-3.373-1.278-6.531-2.224-9.475h1.386C17.626,1080.541,18.561,1083.227,19.334,1085.783z M23.169,1079.596
		c-0.021-0.107-0.085-0.247-0.193-0.419c-0.129-0.193-0.214-0.397-0.258-0.612c-0.064-0.322-0.064-0.806,0-1.45
		c0.15-1.289,0.366-2.052,0.645-2.288c0.173-0.15,0.505-0.075,0.999,0.226l0.645,0.29l5.769,1.063
		c0.129-0.451,0.333-0.784,0.612-0.999c0.236-0.172,0.483-0.236,0.741-0.193s0.472,0.172,0.645,0.387
		c0.193,0.236,0.29,0.494,0.29,0.773v9.41l0.097,0.097c0.601,0.451,1.01,0.795,1.225,1.031c0.343,0.365,0.569,0.773,0.677,1.225
		c0.064,0.365-0.15,0.645-0.645,0.838c-0.43,0.172-1.172,0.301-2.224,0.387l-5.801,0.387c-0.536,0.064-0.999,0.29-1.386,0.677
		c-0.387,0.43-0.677,1.01-0.87,1.74c-0.107,0.344-0.29,0.43-0.548,0.258c-0.258-0.193-0.462-0.645-0.612-1.354
		c-0.129-0.666-0.161-1.407-0.097-2.224c0.086-0.988,0.279-1.955,0.58-2.9l-0.129-5.672
		C23.309,1079.993,23.255,1079.768,23.169,1079.596z M25.554,1085.751h5.317v-6.155h-5.446L25.554,1085.751z"/>
	<path fill="#625573" d="M11.535,1055.522c0.15-0.193,0.226-0.559,0.226-1.096v-4.995c0-0.58-0.043-1.063-0.129-1.45
		c-0.043-0.215-0.129-0.473-0.258-0.773c-0.172-0.365-0.279-0.72-0.322-1.063c-0.085-0.537-0.097-1.3-0.032-2.288
		c0.021-0.559,0.172-0.988,0.451-1.289c0.279-0.258,0.602-0.387,0.967-0.387c0.366,0.021,0.677,0.161,0.935,0.419
		c0.301,0.301,0.451,0.677,0.451,1.128v12.794c0,0.967-0.258,1.697-0.773,2.191c-0.494,0.473-1.171,0.709-2.03,0.709H8.248
		c-0.494,0-0.902,0.236-1.225,0.709c-0.322,0.43-0.623,1.117-0.902,2.063c-0.172,0.473-0.408,0.559-0.709,0.258
		c-0.322-0.322-0.516-0.838-0.58-1.547c-0.085-0.645-0.085-1.493,0-2.546c0.108-1.053,0.279-2.02,0.516-2.9l-0.129-5.543
		c-0.043-0.666-0.118-1.182-0.226-1.547c-0.064-0.215-0.182-0.43-0.354-0.645c-0.172-0.258-0.29-0.526-0.354-0.806
		c-0.107-0.473-0.161-1.214-0.161-2.224c0-0.688,0.14-1.235,0.419-1.644c0.279-0.365,0.612-0.559,0.999-0.58s0.72,0.129,0.999,0.451
		c0.301,0.322,0.462,0.763,0.483,1.321l0.29,11.505h3.545C11.181,1055.748,11.406,1055.673,11.535,1055.522z M16.369,1041.794
		c-0.043-0.172-0.097-0.397-0.161-0.677c-0.129-0.473-0.193-0.924-0.193-1.354c0.021-0.688,0.183-1.74,0.483-3.158
		c0.086-0.473,0.301-0.795,0.645-0.967c0.301-0.172,0.624-0.204,0.967-0.097c0.365,0.129,0.645,0.376,0.838,0.741
		c0.236,0.408,0.322,0.87,0.258,1.386c-0.387,2.535-0.568,6.069-0.548,10.603c0.021,3.781,0.161,7.154,0.419,10.119
		c0.043,0.623,0.118,1.192,0.226,1.708c0.064,0.301,0.15,0.655,0.258,1.063c0.173,0.666,0.193,1.182,0.064,1.547
		c-0.129,0.408-0.645,1.268-1.547,2.578c-0.43,0.602-0.849,0.967-1.257,1.096c-0.408,0.15-0.537-0.032-0.387-0.548
		c0.366-1.934,0.548-5.554,0.548-10.86c0-4.77-0.129-8.626-0.387-11.569l-0.097-0.677
		C16.455,1042.385,16.413,1042.073,16.369,1041.794z M21.848,1047.563c-0.021-0.086-0.075-0.193-0.161-0.322
		c-0.129-0.215-0.214-0.43-0.258-0.645c-0.043-0.344-0.021-0.859,0.064-1.547c0.15-1.182,0.376-1.88,0.677-2.095
		c0.215-0.129,0.623-0.054,1.225,0.226l0.516,0.226l3.094,0.709c0.107-0.752,0.44-1.074,0.999-0.967
		c0.58,0.086,0.87,0.473,0.87,1.16l0.161,9.539h2.256c0.343,0,0.58-0.107,0.709-0.322c0.149-0.215,0.226-0.634,0.226-1.257v-4.673
		c0-0.537-0.043-0.978-0.129-1.321c-0.043-0.193-0.129-0.43-0.258-0.709c-0.172-0.365-0.279-0.72-0.322-1.063
		c-0.107-0.537-0.129-1.332-0.064-2.385c0.021-0.602,0.193-1.074,0.516-1.418c0.279-0.301,0.623-0.451,1.031-0.451
		c0.387,0.021,0.72,0.172,0.999,0.451c0.301,0.301,0.451,0.688,0.451,1.16v12.987c0,0.924-0.258,1.644-0.773,2.159
		c-0.495,0.473-1.14,0.709-1.934,0.709h-2.256c-0.407,0-0.773,0.215-1.096,0.645c-0.236,0.279-0.505,0.73-0.806,1.354
		c-0.172,0.322-0.344,0.473-0.516,0.451c-0.193-0.021-0.365-0.279-0.516-0.773c-0.107-0.795-0.129-1.579-0.064-2.353
		c0.086-0.881,0.29-1.826,0.612-2.836l-0.161-6.929h-3.094c0,1.074,0.032,2.213,0.097,3.416c0.021,0.709,0.086,1.719,0.193,3.029
		l0.097,0.967l0.226,1.225c0.129,0.537,0.161,0.956,0.097,1.257c-0.107,0.387-0.439,1.042-0.999,1.966
		c-0.387,0.58-0.794,0.924-1.225,1.031c-0.407,0.107-0.58-0.032-0.516-0.419c0.15-0.773,0.247-1.923,0.29-3.448
		c0.064-2.084,0.021-4.823-0.129-8.218C21.955,1047.885,21.912,1047.713,21.848,1047.563z"/>
	<path fill="#625573" d="M32.901,1009.503c1.225,0.43,1.944,0.999,2.159,1.708c0.107,0.43-0.334,0.752-1.321,0.967
		c-0.924,0.172-2.342,0.258-4.254,0.258h-7.509c0.838,2.084,1.623,4.469,2.353,7.154c0.56,2.105,1.117,4.49,1.676,7.154
		c0.044,0.236,0.108,0.451,0.193,0.645c0.044,0.129,0.118,0.301,0.226,0.516c0.236,0.494,0.301,0.956,0.193,1.386
		c-0.172,0.602-0.752,1.622-1.74,3.062c-0.537,0.709-1.01,1.096-1.418,1.16c-0.387,0.064-0.516-0.172-0.387-0.709
		c0.172-0.945,0.258-2.073,0.258-3.384c0-1.375-0.097-2.707-0.29-3.996h-4.254c-0.343,0-0.688,0.236-1.031,0.709
		c-0.301,0.365-0.569,0.816-0.806,1.354c-0.193,0.387-0.408,0.451-0.645,0.193c-0.236-0.215-0.365-0.569-0.387-1.063
		c-0.021-0.387,0.032-0.988,0.161-1.805c0.129-0.752,0.29-1.515,0.483-2.288c0.108-0.387,0.279-0.623,0.516-0.709
		c0.15-0.064,0.419-0.064,0.806,0l0.806,0.064h3.932c-0.258-1.955-0.568-3.781-0.935-5.479c-0.258-1.268-0.58-2.589-0.967-3.964
		H7.507c-0.559,0-1.106,0.29-1.644,0.87c-0.472,0.473-0.988,1.192-1.547,2.159c-0.279,0.494-0.537,0.537-0.773,0.129
		c-0.193-0.387-0.29-0.913-0.29-1.579c0-0.322,0.064-0.773,0.193-1.354c0.108-0.344,0.279-0.902,0.516-1.676l0.387-1.289
		c0.172-0.58,0.419-0.935,0.741-1.063c0.193-0.086,0.516-0.086,0.967,0c0.193,0.043,0.333,0.064,0.419,0.064
		c0.15,0.021,0.29,0.032,0.419,0.032h12.021c-0.064-0.537-0.161-0.978-0.29-1.321c-0.064-0.193-0.193-0.44-0.387-0.741
		s-0.333-0.591-0.419-0.87c-0.107-0.451-0.129-1.096-0.064-1.934c0.043-0.516,0.226-0.902,0.548-1.16
		c0.279-0.258,0.612-0.376,0.999-0.354s0.72,0.161,0.999,0.419c0.301,0.279,0.451,0.634,0.451,1.063v4.898h5.865
		C29.346,1008.729,31.439,1008.987,32.901,1009.503z M9.247,1019.171c-0.021-0.064-0.075-0.161-0.161-0.29
		c-0.15-0.193-0.236-0.408-0.258-0.645c-0.043-0.344,0-0.913,0.129-1.708c0.193-1.074,0.408-1.708,0.645-1.901
		c0.172-0.15,0.483-0.118,0.935,0.097c0.172,0.086,0.312,0.15,0.419,0.193c0.172,0.064,0.344,0.107,0.516,0.129
		c1.461,0.322,2.9,0.806,4.318,1.45c1.418,0.623,2.481,1.257,3.19,1.901c0.56,0.559,0.795,0.999,0.709,1.321
		c-0.107,0.344-0.58,0.43-1.418,0.258c-0.859-0.172-1.955-0.312-3.287-0.419c-1.482-0.15-2.707-0.204-3.674-0.161
		c0.043,1.074,0.14,2.213,0.29,3.416c0.129,1.139,0.29,2.148,0.483,3.029c0.043,0.193,0.097,0.387,0.161,0.58
		c0.043,0.107,0.108,0.247,0.193,0.419c0.237,0.473,0.312,0.881,0.226,1.225c-0.15,0.537-0.677,1.418-1.579,2.643
		c-0.494,0.688-0.881,0.999-1.16,0.935c-0.279-0.043-0.375-0.387-0.29-1.031c0.108-1.482,0.14-3.104,0.097-4.866
		c-0.021-1.16-0.097-2.954-0.226-5.382l-0.097-0.741C9.365,1019.45,9.312,1019.3,9.247,1019.171z"/>
	<path fill="#625573" d="M6.153,969.188c-0.559,0.516-1.16,1.364-1.805,2.546c-0.322,0.58-0.591,0.677-0.806,0.29
		c-0.193-0.322-0.29-0.752-0.29-1.289c0-0.387,0.118-1.139,0.354-2.256c0.215-0.859,0.462-1.783,0.741-2.771
		c0.172-0.58,0.451-0.935,0.838-1.063c0.215-0.086,0.612-0.075,1.192,0.032l0.902,0.064h11.376c0-0.494-0.064-0.902-0.193-1.225
		c-0.064-0.193-0.193-0.419-0.387-0.677c-0.258-0.344-0.43-0.666-0.516-0.967c-0.15-0.537-0.204-1.278-0.161-2.224
		c0.021-0.602,0.193-1.063,0.516-1.386c0.301-0.301,0.666-0.451,1.096-0.451c0.408,0,0.763,0.129,1.063,0.387
		c0.322,0.279,0.483,0.645,0.483,1.096v5.446h6.22c2.622,0,4.661,0.301,6.123,0.902c1.181,0.473,1.901,1.074,2.159,1.805
		c0.129,0.322-0.172,0.58-0.902,0.773c-0.73,0.172-1.762,0.258-3.094,0.258H7.732C7.174,968.479,6.648,968.715,6.153,969.188z
		 M24.039,976.406c0.967,2.729,1.525,5.092,1.676,7.09c0.021,0.451-0.397,0.999-1.257,1.644c-0.838,0.623-1.482,0.935-1.934,0.935
		h-9.442c-0.408,0-0.827,0.247-1.257,0.741c-0.43,0.494-0.773,1.16-1.031,1.998c-0.172,0.451-0.43,0.569-0.773,0.354
		c-0.301-0.215-0.494-0.559-0.58-1.031c-0.15-0.709-0.15-1.654,0-2.836c0.129-1.053,0.344-2.063,0.645-3.029l-0.032-0.516
		c-0.021-0.602-0.043-1.074-0.064-1.418c-0.021-0.58-0.064-1.106-0.129-1.579c-0.085-0.301-0.182-0.559-0.29-0.773
		c-0.064-0.15-0.161-0.312-0.29-0.483c-0.214-0.322-0.354-0.645-0.419-0.967c-0.129-0.537-0.182-1.396-0.161-2.578
		c0-0.537,0.14-0.956,0.419-1.257c0.258-0.258,0.58-0.376,0.967-0.354c0.366,0.021,0.677,0.172,0.935,0.451
		c0.301,0.322,0.462,0.72,0.483,1.192l0.516,8.218h10.119c-0.043-1.439-0.322-3.427-0.838-5.962
		c-0.559-2.707-1.268-5.436-2.127-8.186h1.289C22.053,971.39,23.244,974.172,24.039,976.406z"/>
	<path fill="#625573" d="M7.088,940.603c0.064,1.396,0.14,2.675,0.226,3.835c0.043,0.408,0.097,0.795,0.161,1.16
		c0.043,0.215,0.108,0.494,0.193,0.838c0.172,0.645,0.215,1.128,0.129,1.45c-0.107,0.43-0.472,1.139-1.096,2.127
		c-0.387,0.602-0.794,0.935-1.225,0.999c-0.43,0.064-0.601-0.14-0.516-0.612c0.193-1.117,0.301-2.847,0.322-5.188
		c0.043-2.234,0-4.791-0.129-7.67c-0.043-0.15-0.085-0.29-0.129-0.419c-0.043-0.086-0.097-0.193-0.161-0.322
		c-0.15-0.258-0.247-0.505-0.29-0.741c-0.064-0.387-0.043-0.978,0.064-1.772c0.129-1.01,0.322-1.601,0.58-1.772
		c0.172-0.129,0.505-0.064,0.999,0.193l0.677,0.29c0.279,0.107,0.634,0.226,1.063,0.354c0.237,0.064,0.591,0.161,1.063,0.29
		l1.16,0.29c0.064-0.709,0.387-1.031,0.967-0.967c0.602,0.064,0.902,0.43,0.902,1.096l0.161,10.893h2.159
		c0.366,0,0.624-0.107,0.773-0.322c0.15-0.215,0.226-0.591,0.226-1.128v-4.866c-0.021-0.559-0.085-1.021-0.193-1.386
		c-0.064-0.193-0.182-0.44-0.354-0.741c-0.193-0.322-0.322-0.634-0.387-0.935c-0.085-0.516-0.097-1.235-0.032-2.159
		c0.021-0.537,0.193-0.945,0.516-1.225c0.258-0.258,0.58-0.376,0.967-0.354s0.709,0.161,0.967,0.419
		c0.301,0.258,0.451,0.591,0.451,0.999v12.891c0,0.773-0.226,1.418-0.677,1.934c-0.43,0.494-0.923,0.741-1.482,0.741h-2.256
		c-0.408,0-0.794,0.215-1.16,0.645c-0.279,0.344-0.494,0.741-0.645,1.192c-0.107,0.43-0.29,0.634-0.548,0.612
		c-0.258,0-0.462-0.258-0.612-0.773c-0.172-0.688-0.236-1.504-0.193-2.449c0.021-1.139,0.205-2.181,0.548-3.126l-0.129-7.767H6.991
		C6.991,938.121,7.023,939.271,7.088,940.603z M19.882,931.805c-0.043-0.15-0.097-0.365-0.161-0.645
		c-0.129-0.494-0.193-0.956-0.193-1.386c0.021-0.666,0.183-1.719,0.483-3.158c0.086-0.473,0.29-0.795,0.612-0.967
		c0.301-0.172,0.623-0.204,0.967-0.097c0.365,0.129,0.645,0.376,0.838,0.741c0.236,0.408,0.322,0.87,0.258,1.386
		c-0.387,2.557-0.568,6.091-0.548,10.603c0.021,3.867,0.173,7.24,0.451,10.119c0.044,0.602,0.118,1.16,0.226,1.676
		c0.043,0.279,0.118,0.634,0.226,1.063c0.173,0.688,0.193,1.203,0.064,1.547c-0.149,0.408-0.709,1.278-1.676,2.61
		c-0.43,0.602-0.849,0.967-1.257,1.096c-0.408,0.15-0.537-0.032-0.387-0.548c0.451-1.912,0.677-5.532,0.677-10.86
		c0.021-4.727-0.107-8.583-0.387-11.569l-0.064-0.677C19.968,932.417,19.926,932.105,19.882,931.805z M26.553,949.562
		c-0.215,0.387-0.43,0.967-0.645,1.74c-0.129,0.516-0.375,0.58-0.741,0.193c-0.343-0.365-0.536-0.827-0.58-1.386
		c-0.043-0.387-0.032-0.978,0.032-1.772c0.043-0.602,0.107-1.3,0.193-2.095c0.086-0.73,0.279-1.182,0.58-1.354
		c0.215-0.107,0.602-0.129,1.16-0.064l0.902,0.032h2.127c0.559,0,0.945-0.097,1.16-0.29c0.193-0.193,0.29-0.569,0.29-1.128v-4.963
		c0-0.451-0.043-0.838-0.129-1.16c-0.043-0.193-0.129-0.44-0.258-0.741c-0.172-0.408-0.301-0.795-0.387-1.16
		c-0.107-0.602-0.161-1.429-0.161-2.481c0-0.58,0.15-1.042,0.451-1.386c0.279-0.279,0.633-0.419,1.063-0.419
		c0.387,0,0.729,0.14,1.031,0.419c0.322,0.322,0.483,0.741,0.483,1.257v12.375c0,1.16-0.279,2.052-0.838,2.675
		c-0.537,0.602-1.3,0.902-2.288,0.902h-2.288C27.262,948.756,26.875,949.024,26.553,949.562z"/>
	<path fill="#625573" d="M5.96,890.651c-0.451,0.451-0.999,1.214-1.644,2.288c-0.214,0.43-0.451,0.451-0.709,0.064
		c-0.236-0.387-0.354-0.892-0.354-1.515c0-0.301,0.076-0.773,0.226-1.418c0.086-0.387,0.247-0.999,0.483-1.837l0.322-1.031
		c0.215-0.623,0.483-1.01,0.806-1.16c0.193-0.086,0.559-0.075,1.096,0.032c0.258,0.043,0.451,0.075,0.58,0.097
		c0.237,0.021,0.473,0.032,0.709,0.032h18.079c3.202,0,5.64,0.279,7.315,0.838c1.311,0.43,2.051,0.978,2.224,1.644
		c0.064,0.408-0.269,0.709-0.999,0.902c-0.773,0.193-2.041,0.29-3.803,0.29H7.604C7.045,889.878,6.497,890.136,5.96,890.651z
		 M11.6,909.504c-0.258,0.43-0.462,0.924-0.612,1.482c-0.107,0.43-0.301,0.569-0.58,0.419c-0.279-0.129-0.494-0.516-0.645-1.16
		c-0.085-1.117-0.075-2.116,0.032-2.997c0.129-1.074,0.376-1.891,0.741-2.449c0.021-0.666,0-1.375-0.064-2.127
		c-0.085-0.709-0.193-1.375-0.322-1.998c-0.085-0.258-0.172-0.483-0.258-0.677c-0.043-0.107-0.129-0.258-0.258-0.451
		c-0.172-0.301-0.29-0.612-0.354-0.935c-0.107-0.473-0.161-1.214-0.161-2.224c0-0.516,0.14-0.913,0.419-1.192
		c0.237-0.279,0.548-0.397,0.935-0.354c0.366,0.021,0.688,0.193,0.967,0.516c0.301,0.344,0.473,0.806,0.516,1.386l0.387,7.992h9.7
		c0.344,0,0.205-1.676-0.419-5.027c-0.665-3.566-1.567-7.187-2.707-10.86h1.482c1.482,3.502,2.632,6.51,3.448,9.023
		c0.838,2.6,1.439,5.081,1.805,7.444c0.064,0.537-0.269,1.214-0.999,2.03c-0.752,0.838-1.461,1.257-2.127,1.257H12.76
		C12.352,908.602,11.965,908.902,11.6,909.504z"/>
	<path fill="#625573" d="M6.153,859.198c-0.559,0.516-1.16,1.364-1.805,2.546c-0.322,0.58-0.591,0.677-0.806,0.29
		c-0.193-0.322-0.29-0.752-0.29-1.289c0-0.387,0.118-1.139,0.354-2.256c0.215-0.859,0.462-1.783,0.741-2.771
		c0.172-0.58,0.451-0.935,0.838-1.063c0.215-0.086,0.612-0.075,1.192,0.032l0.902,0.064h11.376c0-0.494-0.064-0.902-0.193-1.225
		c-0.064-0.193-0.193-0.419-0.387-0.677c-0.258-0.344-0.43-0.666-0.516-0.967c-0.15-0.537-0.204-1.278-0.161-2.224
		c0.021-0.602,0.193-1.063,0.516-1.386c0.301-0.301,0.666-0.451,1.096-0.451c0.408,0,0.763,0.129,1.063,0.387
		c0.322,0.279,0.483,0.645,0.483,1.096v5.446h6.22c2.622,0,4.661,0.301,6.123,0.902c1.181,0.473,1.901,1.074,2.159,1.805
		c0.129,0.322-0.172,0.58-0.902,0.773c-0.73,0.172-1.762,0.258-3.094,0.258H7.732C7.174,858.489,6.648,858.726,6.153,859.198z
		 M10.182,877.438c-0.301-0.064-0.397-0.483-0.29-1.257c0.086-1.311,0.129-2.557,0.129-3.738c-0.021-1.311-0.107-2.739-0.258-4.286
		c-0.043-0.258-0.107-0.462-0.193-0.612c-0.021-0.086-0.085-0.193-0.193-0.322c-0.129-0.193-0.204-0.397-0.226-0.612
		c-0.064-0.322-0.064-0.881,0-1.676c0.172-1.697,0.44-2.675,0.806-2.933c0.237-0.15,0.666,0.011,1.289,0.483l0.516,0.322
		c0.967,0.516,1.977,1.085,3.029,1.708c1.031,0.645,2.02,1.3,2.965,1.966c0.408-0.473,0.741-0.956,0.999-1.45
		c0.15-0.301,0.322-0.688,0.516-1.16c0.236-0.602,0.463-1.031,0.677-1.289c0.344-0.387,0.902-0.741,1.676-1.063
		c0.753-0.344,1.429-0.494,2.03-0.451c0.537,0.021,0.945,0.183,1.225,0.483c0.258,0.301,0.344,0.634,0.258,0.999
		c-0.064,0.408-0.301,0.752-0.709,1.031c-0.859,0.623-1.762,1.278-2.707,1.966c-0.902,0.666-1.815,1.354-2.739,2.063
		c1.482,1.246,2.933,2.804,4.351,4.673c1.504,1.977,2.578,3.771,3.223,5.382c0.365,1.01,0.463,1.601,0.29,1.772
		c-0.172,0.193-0.548-0.097-1.128-0.87c-1.934-2.578-4.297-4.952-7.09-7.122c-2.557-1.977-4.855-3.341-6.896-4.093
		c0,0.752,0.054,1.504,0.161,2.256c0.064,0.688,0.183,1.439,0.354,2.256c0.043,0.258,0.108,0.494,0.193,0.709
		c0.043,0.129,0.108,0.29,0.193,0.483c0.172,0.43,0.226,0.784,0.161,1.063c-0.107,0.387-0.472,1.053-1.096,1.998
		C11.031,877.084,10.525,877.524,10.182,877.438z"/>
	<path fill="#625573" d="M5.96,824.651c-0.451,0.451-0.999,1.192-1.644,2.224c-0.214,0.43-0.451,0.451-0.709,0.064
		c-0.236-0.365-0.354-0.859-0.354-1.482c0-0.301,0.076-0.763,0.226-1.386c0.086-0.365,0.247-0.956,0.483-1.772l0.322-1.096
		c0.215-0.623,0.483-1.01,0.806-1.16c0.193-0.086,0.559-0.075,1.096,0.032c0.258,0.043,0.451,0.075,0.58,0.097
		c0.237,0.021,0.473,0.032,0.709,0.032h12.601c2.02,0,3.631,0.279,4.834,0.838c1.011,0.451,1.601,0.999,1.772,1.644
		c0.064,0.408-0.246,0.709-0.935,0.902c-0.688,0.193-1.794,0.29-3.319,0.29H7.604C7.045,823.878,6.497,824.136,5.96,824.651z
		 M8.055,834.932c0.172-0.086,0.43-0.043,0.773,0.129l0.451,0.161c0.193-1.805,0.87-3.201,2.03-4.189
		c0.988-0.881,2.181-1.321,3.577-1.321c1.697,0,3.062,0.623,4.093,1.869c1.075,1.289,1.611,3.008,1.611,5.156
		c0,1.934-0.569,3.502-1.708,4.705c-1.052,1.139-2.353,1.708-3.899,1.708c-1.246,0-2.341-0.322-3.287-0.967
		c-1.117-0.773-1.848-1.923-2.191-3.448c-0.129-0.666-0.375-1.106-0.741-1.321c-0.322-0.172-0.601-0.129-0.838,0.129
		c-0.279,0.301-0.504,0.322-0.677,0.064c-0.172-0.258-0.161-0.698,0.032-1.321C7.518,835.512,7.776,835.061,8.055,834.932z
		 M12.502,838.928c0.58,0.537,1.289,0.806,2.127,0.806c0.817,0,1.504-0.269,2.063-0.806c0.645-0.623,0.967-1.461,0.967-2.514
		c0-1.01-0.322-1.815-0.967-2.417c-0.559-0.559-1.246-0.838-2.063-0.838c-0.838,0-1.547,0.279-2.127,0.838
		c-0.623,0.602-0.935,1.407-0.935,2.417C11.567,837.467,11.879,838.305,12.502,838.928z M26.521,836.124
		c-0.236,0.43-0.462,1.096-0.677,1.998c-0.129,0.516-0.408,0.569-0.838,0.161c-0.408-0.408-0.612-0.892-0.612-1.45
		c0-0.537,0.021-1.192,0.064-1.966c0.021-0.752,0.075-1.439,0.161-2.063c0.086-0.709,0.301-1.16,0.645-1.354
		c0.215-0.107,0.634-0.129,1.257-0.064l0.902,0.032h2.643c0.516,0,0.87-0.086,1.063-0.258c0.193-0.193,0.29-0.559,0.29-1.096v-4.479
		c0-0.451-0.044-0.838-0.129-1.16c-0.064-0.215-0.161-0.462-0.29-0.741c-0.215-0.408-0.354-0.763-0.419-1.063
		c-0.129-0.559-0.161-1.311-0.097-2.256c0.021-0.623,0.193-1.128,0.516-1.515c0.279-0.322,0.623-0.483,1.031-0.483
		c0.387,0,0.72,0.14,0.999,0.419c0.322,0.344,0.483,0.773,0.483,1.289v11.634c0,1.203-0.258,2.105-0.773,2.707
		c-0.516,0.58-1.257,0.87-2.224,0.87h-2.836C27.229,835.286,26.843,835.565,26.521,836.124z"/>
	<path fill="#625573" d="M7.023,796.26c0.172-0.064,0.43-0.021,0.773,0.129l0.419,0.161c0.193-2.02,0.924-3.609,2.191-4.77
		c1.139-1.031,2.471-1.547,3.996-1.547c1.719,0,3.18,0.688,4.383,2.063c1.289,1.461,1.934,3.341,1.934,5.64
		c0,2.385-0.645,4.286-1.934,5.704c-1.181,1.311-2.675,1.966-4.479,1.966c-1.354,0-2.61-0.526-3.771-1.579
		c-1.139-1.053-1.837-2.31-2.095-3.771c-0.129-0.516-0.343-0.838-0.645-0.967c-0.301-0.129-0.569-0.043-0.806,0.258
		c-0.43,0.537-0.72,0.505-0.87-0.097c-0.172-0.602-0.107-1.289,0.193-2.063C6.529,796.743,6.766,796.367,7.023,796.26z
		 M11.761,800.836c0.666,0.623,1.472,0.935,2.417,0.935c0.924,0,1.729-0.312,2.417-0.935c0.773-0.709,1.16-1.687,1.16-2.933
		c0-1.182-0.387-2.138-1.16-2.868c-0.688-0.623-1.493-0.935-2.417-0.935c-0.945,0-1.751,0.312-2.417,0.935
		c-0.752,0.709-1.128,1.665-1.128,2.868C10.633,799.149,11.009,800.127,11.761,800.836z M25.779,789.041
		c-0.043-0.172-0.097-0.397-0.161-0.677c-0.129-0.473-0.193-0.924-0.193-1.354c0.021-0.688,0.183-1.74,0.483-3.158
		c0.086-0.473,0.301-0.795,0.645-0.967c0.322-0.172,0.677-0.193,1.063-0.064c0.366,0.129,0.666,0.376,0.902,0.741
		c0.237,0.387,0.322,0.849,0.258,1.386c-0.387,2.514-0.559,5.983-0.516,10.409c0.021,3.738,0.173,7.079,0.451,10.022
		c0.044,0.602,0.118,1.16,0.226,1.676c0.043,0.301,0.118,0.655,0.226,1.063c0.193,0.688,0.226,1.203,0.097,1.547
		c-0.15,0.408-0.697,1.278-1.644,2.61c-0.43,0.602-0.858,0.967-1.289,1.096c-0.407,0.15-0.536-0.032-0.387-0.548
		c0.431-1.869,0.612-5.468,0.548-10.796c-0.043-4.426-0.204-8.218-0.483-11.376l-0.097-0.677
		C25.865,789.632,25.822,789.32,25.779,789.041z"/>
	<path fill="#625573" d="M9.795,765.097c0.086,1.547,0.183,2.997,0.29,4.351c0.043,0.473,0.108,0.902,0.193,1.289
		c0.064,0.215,0.15,0.483,0.258,0.806c0.193,0.494,0.247,0.892,0.161,1.192c-0.107,0.408-0.504,1.117-1.192,2.127
		c-0.451,0.645-0.902,1.021-1.354,1.128c-0.43,0.107-0.601-0.086-0.516-0.58c0.237-1.01,0.366-2.761,0.387-5.253
		c0.021-2.363-0.064-5.253-0.258-8.669c-0.043-0.236-0.097-0.451-0.161-0.645c-0.021-0.086-0.075-0.204-0.161-0.354
		c-0.129-0.236-0.214-0.473-0.258-0.709c-0.043-0.365-0.011-0.935,0.097-1.708c0.129-1.074,0.333-1.697,0.612-1.869
		c0.193-0.107,0.537-0.021,1.031,0.258l0.612,0.29c0.322,0.086,0.688,0.193,1.096,0.322c0.258,0.064,0.624,0.172,1.096,0.322
		l1.74,0.451c0.043-0.387,0.161-0.677,0.354-0.87c0.193-0.172,0.408-0.247,0.645-0.226c0.237,0.021,0.43,0.129,0.58,0.322
		c0.193,0.193,0.29,0.451,0.29,0.773l0.29,11.569h2.933c0.451,0,0.763-0.118,0.935-0.354c0.173-0.236,0.258-0.709,0.258-1.418
		v-4.802c-0.064-0.494-0.149-0.913-0.258-1.257c-0.085-0.215-0.204-0.462-0.354-0.741c-0.193-0.387-0.322-0.741-0.387-1.063
		c-0.107-0.559-0.129-1.386-0.064-2.481c0.043-0.602,0.226-1.074,0.548-1.418c0.279-0.279,0.612-0.419,0.999-0.419
		s0.721,0.15,0.999,0.451c0.302,0.301,0.451,0.688,0.451,1.16v13.374c0,0.795-0.269,1.472-0.806,2.03
		c-0.537,0.537-1.192,0.806-1.966,0.806h-2.546c-0.408,0-0.762,0.247-1.063,0.741c-0.236,0.387-0.419,0.892-0.548,1.515
		c-0.107,0.451-0.29,0.666-0.548,0.645s-0.462-0.279-0.612-0.773c-0.193-0.73-0.29-1.644-0.29-2.739
		c0.021-1.182,0.161-2.267,0.419-3.255l-0.226-8.347l-3.803-0.129C9.698,762.014,9.73,763.399,9.795,765.097z M27.326,763.195
		c0-0.859-0.043-1.805-0.129-2.836c-0.064-0.945-0.161-1.987-0.29-3.126c-0.064-0.301-0.129-0.602-0.193-0.902
		c-0.043-0.172-0.097-0.387-0.161-0.645c-0.172-0.559-0.258-1.053-0.258-1.482c0.021-0.645,0.172-1.719,0.451-3.223
		c0.064-0.473,0.27-0.816,0.612-1.031c0.302-0.215,0.624-0.269,0.967-0.161c0.366,0.129,0.645,0.376,0.838,0.741
		c0.237,0.408,0.312,0.892,0.226,1.45c-0.279,3.115-0.397,6.735-0.354,10.86c0.064,3.932,0.247,7.38,0.548,10.345
		c0.064,0.451,0.141,0.87,0.226,1.257c0.064,0.236,0.15,0.526,0.258,0.87c0.193,0.666,0.237,1.171,0.129,1.515
		c-0.129,0.43-0.623,1.278-1.482,2.546c-0.387,0.58-0.794,0.935-1.225,1.063c-0.43,0.107-0.58-0.097-0.451-0.612
		c0.237-1.031,0.376-2.578,0.419-4.641c0.043-1.934,0-4.727-0.129-8.379h-6.864v-3.609H27.326z"/>
	<path fill="#625573" d="M5.799,716.306c-0.387,0.473-0.859,1.311-1.418,2.514c-0.236,0.451-0.494,0.451-0.773,0
		c-0.236-0.387-0.354-0.806-0.354-1.257c0-0.408,0.097-1.117,0.29-2.127c0.15-0.859,0.354-1.762,0.612-2.707
		c0.172-0.58,0.44-0.935,0.806-1.063c0.237-0.086,0.624-0.075,1.16,0.032l0.87,0.064h7.187c-0.021-0.666-0.097-1.203-0.226-1.611
		c-0.085-0.236-0.226-0.505-0.419-0.806c-0.214-0.301-0.354-0.58-0.419-0.838c-0.107-0.43-0.129-1.042-0.064-1.837
		c0.021-0.602,0.205-1.063,0.548-1.386c0.279-0.279,0.634-0.408,1.063-0.387c0.408,0.021,0.763,0.161,1.063,0.419
		c0.322,0.301,0.483,0.655,0.483,1.063v5.382h0.451c1.333,0,2.514,0.236,3.545,0.709c1.075,0.473,1.676,1.074,1.805,1.805
		c0.044,0.43-0.258,0.741-0.902,0.935c-0.58,0.172-1.386,0.258-2.417,0.258H7.313C6.777,715.468,6.271,715.747,5.799,716.306z
		 M8.313,724.652c-0.043-0.107-0.107-0.236-0.193-0.387c-0.129-0.236-0.204-0.473-0.226-0.709c-0.064-0.365-0.053-0.956,0.032-1.772
		c0.086-1.354,0.312-2.095,0.677-2.224c0.237-0.086,0.688,0.118,1.354,0.612l0.612,0.387c3.223,1.547,5.973,3.609,8.25,6.188
		c2.041,2.342,3.566,4.952,4.576,7.831c0.279,0.902,0.312,1.407,0.097,1.515c-0.236,0.107-0.591-0.258-1.063-1.096
		c-1.246-2.041-3.062-4.05-5.446-6.026c-2.385-1.998-4.597-3.341-6.639-4.028c0.086,0.838,0.172,1.558,0.258,2.159
		c0.108,0.795,0.226,1.493,0.354,2.095c0.021,0.236,0.076,0.462,0.161,0.677c0.021,0.107,0.076,0.258,0.161,0.451
		c0.172,0.408,0.205,0.752,0.097,1.031c-0.15,0.408-0.633,1.096-1.45,2.063c-0.472,0.559-0.891,0.859-1.257,0.902
		c-0.365,0.021-0.516-0.172-0.451-0.58c0.193-1.289,0.312-2.503,0.354-3.642c0.064-1.354,0.021-2.943-0.129-4.77
		C8.398,725.071,8.356,724.846,8.313,724.652z M23.169,716.628c-0.021-0.107-0.085-0.247-0.193-0.419
		c-0.129-0.193-0.214-0.397-0.258-0.612c-0.064-0.322-0.064-0.806,0-1.45c0.15-1.289,0.366-2.052,0.645-2.288
		c0.173-0.15,0.505-0.075,0.999,0.226l0.645,0.29l5.769,1.063c0.129-0.451,0.333-0.784,0.612-0.999
		c0.236-0.172,0.483-0.236,0.741-0.193s0.472,0.172,0.645,0.387c0.193,0.236,0.29,0.494,0.29,0.773v9.41l0.097,0.097
		c0.601,0.451,1.01,0.795,1.225,1.031c0.343,0.365,0.569,0.773,0.677,1.225c0.064,0.365-0.15,0.645-0.645,0.838
		c-0.43,0.172-1.172,0.301-2.224,0.387l-5.801,0.387c-0.536,0.064-0.999,0.29-1.386,0.677c-0.387,0.43-0.677,1.01-0.87,1.74
		c-0.107,0.344-0.29,0.43-0.548,0.258c-0.258-0.193-0.462-0.645-0.612-1.354c-0.129-0.666-0.161-1.407-0.097-2.224
		c0.086-0.988,0.279-1.955,0.58-2.9l-0.129-5.672C23.309,717.025,23.255,716.8,23.169,716.628z M25.554,722.783h5.317v-6.155h-5.446
		L25.554,722.783z"/>
	<path fill="#625573" d="M5.799,683.306c-0.387,0.473-0.859,1.311-1.418,2.514c-0.236,0.451-0.494,0.451-0.773,0
		c-0.236-0.387-0.354-0.806-0.354-1.257c0-0.408,0.097-1.117,0.29-2.127c0.15-0.859,0.354-1.762,0.612-2.707
		c0.172-0.58,0.44-0.935,0.806-1.063c0.237-0.086,0.624-0.075,1.16,0.032l0.87,0.064h7.187c-0.021-0.666-0.097-1.203-0.226-1.611
		c-0.085-0.236-0.226-0.505-0.419-0.806c-0.214-0.301-0.354-0.58-0.419-0.838c-0.107-0.43-0.129-1.042-0.064-1.837
		c0.021-0.602,0.205-1.063,0.548-1.386c0.279-0.279,0.634-0.408,1.063-0.387c0.408,0.021,0.763,0.161,1.063,0.419
		c0.322,0.301,0.483,0.655,0.483,1.063v5.382h0.451c1.333,0,2.514,0.236,3.545,0.709c1.075,0.473,1.676,1.074,1.805,1.805
		c0.044,0.43-0.258,0.741-0.902,0.935c-0.58,0.172-1.386,0.258-2.417,0.258H7.313C6.777,682.468,6.271,682.747,5.799,683.306z
		 M8.313,691.652c-0.043-0.107-0.107-0.236-0.193-0.387c-0.129-0.236-0.204-0.473-0.226-0.709c-0.064-0.365-0.053-0.956,0.032-1.772
		c0.086-1.354,0.312-2.095,0.677-2.224c0.237-0.086,0.688,0.118,1.354,0.612l0.612,0.387c3.223,1.547,5.973,3.609,8.25,6.188
		c2.041,2.342,3.566,4.952,4.576,7.831c0.279,0.902,0.312,1.407,0.097,1.515c-0.236,0.107-0.591-0.258-1.063-1.096
		c-1.246-2.041-3.062-4.05-5.446-6.026c-2.385-1.998-4.597-3.341-6.639-4.028c0.086,0.838,0.172,1.558,0.258,2.159
		c0.108,0.795,0.226,1.493,0.354,2.095c0.021,0.236,0.076,0.462,0.161,0.677c0.021,0.107,0.076,0.258,0.161,0.451
		c0.172,0.408,0.205,0.752,0.097,1.031c-0.15,0.408-0.633,1.096-1.45,2.063c-0.472,0.559-0.891,0.859-1.257,0.902
		c-0.365,0.021-0.516-0.172-0.451-0.58c0.193-1.289,0.312-2.503,0.354-3.642c0.064-1.354,0.021-2.943-0.129-4.77
		C8.398,692.071,8.356,691.846,8.313,691.652z M23.233,683.725c-0.043-0.086-0.097-0.183-0.161-0.29
		c-0.129-0.215-0.204-0.43-0.226-0.645c-0.064-0.344-0.064-0.902,0-1.676c0.108-1.074,0.29-1.729,0.548-1.966
		c0.172-0.15,0.483-0.14,0.935,0.032c0.215,0.086,0.376,0.14,0.483,0.161c0.193,0.043,0.376,0.064,0.548,0.064h2.933
		c1.955,0,3.533,0.269,4.737,0.806c1.052,0.494,1.719,1.139,1.998,1.934c0.085,0.43-0.215,0.73-0.902,0.902
		c-0.666,0.15-1.805,0.226-3.416,0.226h-5.446c0.064,1.934,0.129,3.448,0.193,4.544c0.107,1.676,0.215,2.965,0.322,3.867
		c0.043,0.365,0.097,0.709,0.161,1.031c0.044,0.193,0.108,0.44,0.193,0.741c0.15,0.666,0.161,1.171,0.032,1.515
		c-0.15,0.387-0.697,1.149-1.644,2.288c-0.387,0.451-0.729,0.666-1.031,0.645c-0.322,0-0.43-0.226-0.322-0.677
		c0.215-1.053,0.344-2.524,0.387-4.415c0.044-2.105-0.011-4.705-0.161-7.799l-0.032-0.806
		C23.319,684.015,23.277,683.854,23.233,683.725z"/>
	<path fill="#625573" d="M5.863,648.662c-0.472,0.451-0.999,1.171-1.579,2.159c-0.214,0.473-0.451,0.505-0.709,0.097
		c-0.214-0.365-0.322-0.838-0.322-1.418c0-0.301,0.076-0.773,0.226-1.418c0.086-0.387,0.247-0.999,0.483-1.837l0.322-1.031
		c0.215-0.623,0.473-1.01,0.773-1.16c0.193-0.086,0.516-0.075,0.967,0.032c0.193,0.043,0.333,0.075,0.419,0.097
		c0.172,0.021,0.333,0.032,0.483,0.032h7.831c2.191,0,3.943,0.269,5.253,0.806c1.14,0.451,1.794,1.01,1.966,1.676
		c0.043,0.387-0.236,0.688-0.838,0.902c-0.602,0.193-1.482,0.29-2.643,0.29h-3.899c0.021,0.645,0.097,1.225,0.226,1.74
		c0.064,0.301,0.183,0.655,0.354,1.063c0.215,0.516,0.29,0.935,0.226,1.257c-0.085,0.473-0.462,1.182-1.128,2.127
		c-0.408,0.559-0.806,0.859-1.192,0.902s-0.548-0.15-0.483-0.58c0.064-0.709,0.108-1.633,0.129-2.771
		c0-1.203-0.043-2.449-0.129-3.738H7.442C6.927,647.889,6.4,648.146,5.863,648.662z M7.507,657.492
		c-0.043-0.086-0.107-0.193-0.193-0.322c-0.107-0.193-0.172-0.387-0.193-0.58c-0.064-0.322-0.053-0.849,0.032-1.579
		c0.193-1.375,0.43-2.148,0.709-2.32c0.193-0.107,0.548,0.086,1.063,0.58l0.387,0.354c0.902,0.58,1.794,1.182,2.675,1.805
		c1.096,0.795,2.02,1.525,2.771,2.191c0.301-0.387,0.537-0.806,0.709-1.257c0.086-0.258,0.183-0.634,0.29-1.128
		c0.172-0.709,0.376-1.192,0.612-1.45c0.387-0.43,1.085-0.73,2.095-0.902c0.495-0.064,0.935-0.021,1.321,0.129
		c0.344,0.15,0.602,0.376,0.773,0.677c0.15,0.301,0.183,0.612,0.097,0.935c-0.064,0.344-0.236,0.623-0.516,0.838l-0.483,0.387
		c-0.902,0.645-1.558,1.128-1.966,1.45c-0.688,0.516-1.3,1.01-1.837,1.482c1.375,1.461,2.567,3.029,3.577,4.705
		c0.967,1.676,1.74,3.427,2.32,5.253c0.237,0.73,0.258,1.16,0.064,1.289s-0.505-0.183-0.935-0.935
		c-1.268-2.063-2.889-4.05-4.866-5.962c-2.063-1.977-4.265-3.652-6.606-5.027c0.021,0.559,0.097,1.214,0.226,1.966
		c0.064,0.43,0.172,1.042,0.322,1.837l0.129,0.677c0.043,0.236,0.097,0.473,0.161,0.709c0.043,0.129,0.118,0.301,0.226,0.516
		c0.193,0.473,0.247,0.849,0.161,1.128c-0.107,0.43-0.516,1.085-1.225,1.966c-0.58,0.688-1.031,1.031-1.354,1.031
		s-0.451-0.29-0.387-0.87c0.108-1.096,0.161-2.288,0.161-3.577c0-1.418-0.064-3.083-0.193-4.995v-0.354
		C7.593,657.879,7.55,657.664,7.507,657.492z M23.298,648.759c-0.043-0.086-0.097-0.193-0.161-0.322
		c-0.086-0.193-0.15-0.408-0.193-0.645c-0.064-0.344-0.075-0.881-0.032-1.611c0.021-0.945,0.173-1.525,0.451-1.74
		c0.173-0.129,0.516-0.118,1.031,0.032c0.215,0.064,0.376,0.107,0.483,0.129c0.193,0.043,0.376,0.064,0.548,0.064h3.062
		c1.977,0,3.523,0.236,4.641,0.709c0.988,0.43,1.633,1.042,1.934,1.837c0.15,0.451-0.141,0.763-0.87,0.935
		c-0.645,0.15-1.784,0.226-3.416,0.226h-5.511c0.021,1.246,0.086,2.61,0.193,4.093c0.086,1.225,0.205,2.428,0.354,3.609
		c0.044,0.365,0.097,0.72,0.161,1.063c0.043,0.215,0.118,0.473,0.226,0.773c0.173,0.688,0.204,1.214,0.097,1.579
		c-0.172,0.516-0.709,1.396-1.611,2.643c-0.451,0.559-0.859,0.838-1.225,0.838c-0.344,0.021-0.451-0.215-0.322-0.709
		c0.236-0.945,0.376-2.471,0.419-4.576c0.064-2.32,0.011-5.124-0.161-8.411C23.373,649.06,23.342,648.888,23.298,648.759z"/>
	<path fill="#625573" d="M5.96,615.662c-0.451,0.451-0.999,1.214-1.644,2.288c-0.214,0.43-0.451,0.451-0.709,0.064
		c-0.236-0.387-0.354-0.892-0.354-1.515c0-0.301,0.076-0.773,0.226-1.418c0.086-0.387,0.247-0.999,0.483-1.837l0.322-1.031
		c0.215-0.623,0.483-1.01,0.806-1.16c0.193-0.086,0.559-0.075,1.096,0.032c0.258,0.043,0.451,0.075,0.58,0.097
		c0.237,0.021,0.473,0.032,0.709,0.032h18.079c3.202,0,5.64,0.279,7.315,0.838c1.311,0.43,2.051,0.978,2.224,1.644
		c0.064,0.408-0.269,0.709-0.999,0.902c-0.773,0.193-2.041,0.29-3.803,0.29H7.604C7.045,614.889,6.497,615.146,5.96,615.662z
		 M9.602,626.426c0.129-0.064,0.344-0.086,0.645-0.064l0.483,0.032c0.215-1.912,0.956-3.405,2.224-4.479
		c1.117-0.924,2.406-1.386,3.867-1.386c1.676,0,3.094,0.677,4.254,2.03c1.203,1.375,1.805,3.104,1.805,5.188
		c0,2.063-0.568,3.771-1.708,5.124c-1.096,1.354-2.46,2.03-4.093,2.03c-1.354,0-2.557-0.365-3.609-1.096
		c-1.246-0.859-2.041-2.127-2.385-3.803c-0.129-0.602-0.397-0.967-0.806-1.096c-0.365-0.129-0.752-0.075-1.16,0.161
		c-0.236,0.129-0.387-0.032-0.451-0.483c-0.064-0.473,0.011-0.902,0.226-1.289C9.172,626.823,9.408,626.533,9.602,626.426z
		 M14.21,630.422c0.645,0.602,1.429,0.902,2.353,0.902c0.902,0,1.665-0.301,2.288-0.902c0.709-0.666,1.063-1.568,1.063-2.707
		s-0.354-2.041-1.063-2.707c-0.623-0.623-1.386-0.935-2.288-0.935c-0.923,0-1.708,0.312-2.353,0.935
		c-0.709,0.666-1.063,1.568-1.063,2.707S13.501,629.756,14.21,630.422z"/>
	<path fill="#625573" d="M5.638,581.147c-0.451,0.43-0.935,1.117-1.45,2.063c-0.214,0.408-0.43,0.451-0.645,0.129
		c-0.193-0.279-0.29-0.655-0.29-1.128c0-0.408,0.118-1.053,0.354-1.934c0.172-0.688,0.419-1.493,0.741-2.417
		c0.193-0.602,0.483-0.967,0.87-1.096c0.215-0.064,0.58-0.043,1.096,0.064l0.773,0.064h17.499c3.609,0,6.316,0.258,8.121,0.773
		c1.374,0.408,2.17,0.945,2.385,1.611c0.107,0.43-0.376,0.741-1.45,0.935c-1.031,0.172-2.75,0.258-5.156,0.258H7.152
		C6.616,580.471,6.11,580.696,5.638,581.147z M29.421,584.177c1.031,0.43,1.622,0.978,1.772,1.644
		c0.021,0.344-0.246,0.591-0.806,0.741c-0.601,0.172-1.59,0.258-2.965,0.258h-8.766c0.021,0.516,0.108,0.988,0.258,1.418
		c0.064,0.236,0.183,0.537,0.354,0.902c0.236,0.516,0.334,0.913,0.29,1.192c-0.043,0.473-0.333,1.117-0.87,1.934
		c-0.494,0.73-0.923,1.139-1.289,1.225c-0.408,0.107-0.58-0.172-0.516-0.838c0.086-1.031,0.118-2.009,0.097-2.933
		c-0.021-0.795-0.075-1.762-0.161-2.9H9.408c-0.494,0-0.967,0.247-1.418,0.741c-0.365,0.387-0.762,0.988-1.192,1.805
		c-0.214,0.408-0.44,0.451-0.677,0.129c-0.214-0.301-0.322-0.688-0.322-1.16c0-0.322,0.076-0.816,0.226-1.482
		c0.086-0.408,0.247-1.021,0.483-1.837l0.226-0.741c0.172-0.494,0.398-0.806,0.677-0.935c0.172-0.064,0.505-0.075,0.999-0.032
		l0.967,0.032h13.793C25.962,583.339,28.047,583.618,29.421,584.177z M10.278,593.845c-0.043-0.064-0.107-0.15-0.193-0.258
		c-0.15-0.15-0.247-0.333-0.29-0.548c-0.064-0.365-0.032-0.978,0.097-1.837c0.193-1.096,0.419-1.729,0.677-1.901
		c0.15-0.107,0.462-0.021,0.935,0.258l0.58,0.322c3.223,1.01,6.069,2.492,8.54,4.447c2.686,2.127,4.608,4.587,5.769,7.38
		c0.366,0.881,0.473,1.418,0.322,1.611c-0.172,0.193-0.536-0.097-1.096-0.87c-1.482-1.869-3.47-3.599-5.962-5.188
		c-2.557-1.59-5.006-2.632-7.348-3.126c0,0.709,0.032,1.321,0.097,1.837c0.043,0.494,0.14,1.031,0.29,1.611
		c0.043,0.258,0.097,0.494,0.161,0.709c0.043,0.129,0.108,0.301,0.193,0.516c0.215,0.451,0.258,0.827,0.129,1.128
		c-0.15,0.43-0.688,1.171-1.611,2.224c-0.387,0.451-0.709,0.645-0.967,0.58c-0.258-0.043-0.333-0.301-0.226-0.773
		c0.108-0.666,0.172-1.504,0.193-2.514c0-0.945-0.043-2.492-0.129-4.641l-0.032-0.516C10.386,594.103,10.343,593.952,10.278,593.845
		z"/>
	<path fill="#625573" d="M33.546,566.774c-0.56-0.58-1.128-0.935-1.708-1.063c-0.322-0.021-0.569,0.075-0.741,0.29
		c-0.129,0.129-0.269,0.397-0.419,0.806c-0.215,0.537-0.43,0.913-0.645,1.128c-0.344,0.365-0.806,0.548-1.386,0.548
		c-0.902,0-1.611-0.279-2.127-0.838c-0.472-0.516-0.688-1.139-0.645-1.869c0.021-0.752,0.302-1.375,0.838-1.869
		c0.624-0.58,1.439-0.87,2.449-0.87c1.418,0,2.696,0.451,3.835,1.354c1.139,0.924,1.998,2.17,2.578,3.738l-0.645,0.516
		C34.416,567.827,33.953,567.204,33.546,566.774z"/>
	<path fill="#625573" d="M5.638,524.977c-0.472,0.451-0.913,1.085-1.321,1.901c-0.214,0.408-0.451,0.44-0.709,0.097
		c-0.236-0.322-0.354-0.763-0.354-1.321c0-0.537,0.108-1.192,0.322-1.966c0.15-0.602,0.408-1.418,0.773-2.449
		c0.172-0.43,0.387-0.688,0.645-0.773c0.172-0.064,0.495-0.064,0.967,0l1.031,0.064h19.207c3.029,0,5.274,0.226,6.735,0.677
		c1.225,0.387,1.934,0.935,2.127,1.644c0.086,0.387-0.247,0.688-0.999,0.902c-0.859,0.236-2.181,0.354-3.964,0.354h-9.829v2.868
		h4.254c2.127,0,3.813,0.226,5.06,0.677c1.139,0.43,1.793,0.988,1.966,1.676c0.064,0.408-0.247,0.698-0.935,0.87
		c-0.795,0.172-2.244,0.258-4.351,0.258H9.698c-0.537,0-1.042,0.215-1.515,0.645c-0.43,0.408-0.859,1.031-1.289,1.869
		c-0.193,0.365-0.408,0.387-0.645,0.064c-0.214-0.322-0.322-0.763-0.322-1.321c0-0.344,0.108-0.935,0.322-1.772
		c0.129-0.494,0.333-1.171,0.612-2.03c0.193-0.494,0.408-0.806,0.645-0.935c0.172-0.086,0.451-0.097,0.838-0.032l0.709,0.032h8.862
		v-2.868H7.346C6.745,524.106,6.175,524.396,5.638,524.977z M10.278,537.48c-0.043-0.064-0.107-0.15-0.193-0.258
		c-0.15-0.15-0.247-0.333-0.29-0.548c-0.064-0.365-0.032-0.978,0.097-1.837c0.193-1.096,0.419-1.729,0.677-1.901
		c0.15-0.107,0.462-0.021,0.935,0.258l0.58,0.322c3.223,1.01,6.069,2.492,8.54,4.447c2.686,2.127,4.608,4.587,5.769,7.38
		c0.366,0.881,0.473,1.418,0.322,1.611c-0.172,0.193-0.536-0.097-1.096-0.87c-1.482-1.869-3.47-3.599-5.962-5.188
		c-2.557-1.59-5.006-2.632-7.348-3.126c0,0.709,0.032,1.321,0.097,1.837c0.043,0.494,0.14,1.031,0.29,1.611
		c0.043,0.258,0.097,0.494,0.161,0.709c0.043,0.129,0.108,0.301,0.193,0.516c0.215,0.451,0.258,0.827,0.129,1.128
		c-0.15,0.43-0.688,1.171-1.611,2.224c-0.387,0.451-0.709,0.645-0.967,0.58c-0.258-0.043-0.333-0.301-0.226-0.773
		c0.108-0.666,0.172-1.504,0.193-2.514c0-0.945-0.043-2.492-0.129-4.641l-0.032-0.516C10.386,537.738,10.343,537.588,10.278,537.48z
		"/>
	<path fill="#625573" d="M5.831,494.941c-0.43,0.494-0.913,1.289-1.45,2.385c-0.236,0.43-0.494,0.43-0.773,0
		c-0.236-0.408-0.354-0.838-0.354-1.289c0-0.387,0.097-1.063,0.29-2.03c0.15-0.773,0.354-1.654,0.612-2.643
		c0.172-0.58,0.44-0.935,0.806-1.063c0.237-0.086,0.612-0.075,1.128,0.032l0.838,0.064h7.509c0-0.494-0.053-0.913-0.161-1.257
		c-0.064-0.215-0.172-0.483-0.322-0.806c-0.172-0.387-0.29-0.73-0.354-1.031c-0.107-0.494-0.14-1.139-0.097-1.934
		c0.021-0.559,0.193-0.988,0.516-1.289c0.279-0.258,0.624-0.387,1.031-0.387c0.387,0,0.72,0.129,0.999,0.387
		c0.322,0.258,0.483,0.602,0.483,1.031v5.479c1.075,0,2.009,0.226,2.804,0.677c0.752,0.408,1.225,0.935,1.418,1.579
		c0.086,0.408-0.117,0.72-0.612,0.935c-0.494,0.215-1.214,0.322-2.159,0.322H7.281C6.787,494.104,6.304,494.383,5.831,494.941z
		 M8.184,502.644c-0.343,0.301-0.709,0.827-1.096,1.579c-0.193,0.365-0.397,0.387-0.612,0.064c-0.214-0.301-0.322-0.741-0.322-1.321
		c0-0.451,0.043-0.988,0.129-1.611c0.064-0.58,0.161-1.214,0.29-1.901c0.15-0.537,0.366-0.87,0.645-0.999
		c0.193-0.086,0.516-0.097,0.967-0.032l0.773,0.064h6.188c1.418,0,2.557,0.29,3.416,0.87c0.688,0.451,1.096,0.988,1.225,1.611
		c0.043,0.322-0.086,0.602-0.387,0.838c-0.236,0.215-0.504,0.333-0.806,0.354l0.161,6.574c0.43,0.322,0.816,0.698,1.16,1.128
		c0.301,0.451,0.527,0.902,0.677,1.354c0,0.365-0.29,0.634-0.87,0.806c-0.537,0.129-1.406,0.193-2.61,0.193h-6.542
		c-0.365,0-0.72,0.204-1.063,0.612c-0.322,0.344-0.623,0.827-0.902,1.45c-0.193,0.387-0.43,0.419-0.709,0.097
		c-0.301-0.322-0.44-0.816-0.419-1.482l0.258-2.159l0.129-0.87c0.086-0.623,0.258-1.021,0.516-1.192
		c0.15-0.129,0.43-0.172,0.838-0.129h0.548h1.45l-0.161-6.349h-1.74C8.882,502.192,8.506,502.343,8.184,502.644z M13.372,508.541
		h3.287l-0.161-6.349h-3.287L13.372,508.541z M21.88,495.038c-0.021-0.086-0.075-0.183-0.161-0.29
		c-0.129-0.215-0.215-0.43-0.258-0.645c-0.043-0.344-0.021-0.881,0.064-1.611c0.107-0.988,0.29-1.579,0.548-1.772
		c0.15-0.107,0.462-0.054,0.935,0.161c0.193,0.086,0.334,0.15,0.419,0.193c0.173,0.064,0.333,0.107,0.483,0.129l3.223,0.387
		c0.107-0.73,0.44-1.053,0.999-0.967c0.537,0.086,0.806,0.462,0.806,1.128l0.161,9.088h2.417c0.322,0,0.548-0.107,0.677-0.322
		c0.149-0.236,0.226-0.698,0.226-1.386v-4.061c-0.021-0.537-0.076-0.978-0.161-1.321c-0.064-0.193-0.173-0.43-0.322-0.709
		c-0.173-0.365-0.29-0.72-0.354-1.063c-0.107-0.537-0.141-1.332-0.097-2.385c0.021-0.602,0.193-1.074,0.516-1.418
		c0.278-0.301,0.612-0.451,0.999-0.451c0.387,0.021,0.72,0.172,0.999,0.451c0.301,0.301,0.451,0.677,0.451,1.128v12.536
		c0,0.924-0.215,1.644-0.645,2.159c-0.431,0.473-0.999,0.709-1.708,0.709h-2.449c-0.43,0-0.816,0.204-1.16,0.612
		c-0.322,0.387-0.568,0.849-0.741,1.386c-0.129,0.322-0.29,0.483-0.483,0.483c-0.193-0.021-0.354-0.258-0.483-0.709
		c-0.129-0.623-0.161-1.343-0.097-2.159c0.064-0.967,0.258-1.998,0.58-3.094l-0.129-6.349h-3.19c0,0.988,0.032,2.127,0.097,3.416
		c0.043,0.752,0.118,1.858,0.226,3.319l0.032,0.129l0.193,1.16c0.129,0.602,0.15,1.053,0.064,1.354
		c-0.086,0.387-0.419,1.053-0.999,1.998c-0.494,0.752-0.923,1.16-1.289,1.225c-0.365,0.064-0.505-0.15-0.419-0.645
		c0.15-0.881,0.247-2.02,0.29-3.416c0.064-1.934,0.032-4.372-0.097-7.315l-0.032-0.58C21.988,495.35,21.944,495.188,21.88,495.038z"
		/>
	<path fill="#625573" d="M15.306,471.771c-1.052,1.246-2.406,1.869-4.061,1.869c-1.139,0-2.191-0.365-3.158-1.096
		c-1.181-0.902-1.912-2.191-2.191-3.867c-0.15-0.645-0.397-0.999-0.741-1.063c-0.279-0.064-0.58,0.064-0.902,0.387
		c-0.236,0.236-0.43,0.161-0.58-0.226c-0.129-0.387-0.085-0.87,0.129-1.45c0.237-0.623,0.462-0.999,0.677-1.128
		c0.129-0.086,0.312-0.075,0.548,0.032c0.129,0.043,0.215,0.075,0.258,0.097c0.108,0.043,0.215,0.054,0.322,0.032
		c0.279-1.848,0.999-3.276,2.159-4.286c0.988-0.859,2.127-1.289,3.416-1.289c1.633,0,2.986,0.623,4.061,1.869
		c1.096,1.289,1.644,2.976,1.644,5.06C16.885,468.816,16.358,470.503,15.306,471.771z M8.989,469.321
		c0.559,0.58,1.236,0.87,2.03,0.87c0.795,0,1.461-0.29,1.998-0.87c0.624-0.645,0.935-1.547,0.935-2.707
		c0-1.074-0.311-1.934-0.935-2.578c-0.537-0.58-1.203-0.87-1.998-0.87c-0.794,0-1.471,0.29-2.03,0.87
		c-0.601,0.645-0.902,1.504-0.902,2.578C8.087,467.753,8.388,468.655,8.989,469.321z M19.108,457.688
		c-0.021-0.172-0.075-0.397-0.161-0.677c-0.129-0.473-0.182-0.924-0.161-1.354c0.021-0.688,0.173-1.74,0.451-3.158
		c0.086-0.473,0.302-0.795,0.645-0.967c0.302-0.172,0.624-0.193,0.967-0.064c0.366,0.129,0.645,0.376,0.838,0.741
		c0.215,0.387,0.29,0.849,0.226,1.386c-0.365,2.535-0.537,6.005-0.516,10.409c0.021,3.824,0.161,7.144,0.419,9.958
		c0.044,0.602,0.118,1.16,0.226,1.676c0.043,0.279,0.118,0.634,0.226,1.063c0.193,0.688,0.215,1.214,0.064,1.579
		c-0.149,0.408-0.698,1.289-1.644,2.643c-0.451,0.602-0.881,0.967-1.289,1.096c-0.387,0.15-0.516-0.032-0.387-0.548
		c0.451-1.912,0.677-5.511,0.677-10.796c0.021-4.684-0.107-8.476-0.387-11.376l-0.064-0.677
		C19.194,458.278,19.152,457.967,19.108,457.688z M26.553,475.219c-0.215,0.387-0.43,0.967-0.645,1.74
		c-0.129,0.516-0.375,0.58-0.741,0.193c-0.343-0.365-0.536-0.827-0.58-1.386c-0.043-0.387-0.032-0.978,0.032-1.772
		c0.043-0.602,0.107-1.3,0.193-2.095c0.086-0.73,0.279-1.182,0.58-1.354c0.215-0.107,0.602-0.129,1.16-0.064l0.902,0.032h2.127
		c0.559,0,0.945-0.097,1.16-0.29c0.193-0.193,0.29-0.569,0.29-1.128v-4.963c0-0.451-0.043-0.838-0.129-1.16
		c-0.043-0.193-0.129-0.44-0.258-0.741c-0.172-0.408-0.301-0.795-0.387-1.16c-0.107-0.602-0.161-1.429-0.161-2.481
		c0-0.58,0.15-1.042,0.451-1.386c0.279-0.279,0.633-0.419,1.063-0.419c0.387,0,0.729,0.14,1.031,0.419
		c0.322,0.322,0.483,0.741,0.483,1.257v12.375c0,1.16-0.279,2.052-0.838,2.675c-0.537,0.602-1.3,0.902-2.288,0.902h-2.288
		C27.262,474.413,26.875,474.682,26.553,475.219z"/>
	<path fill="#625573" d="M5.799,417.952c-0.387,0.473-0.859,1.311-1.418,2.514c-0.236,0.451-0.494,0.451-0.773,0
		c-0.236-0.387-0.354-0.806-0.354-1.257c0-0.408,0.097-1.117,0.29-2.127c0.15-0.859,0.354-1.762,0.612-2.707
		c0.172-0.58,0.44-0.935,0.806-1.063c0.237-0.086,0.624-0.075,1.16,0.032l0.87,0.064h7.187c-0.021-0.666-0.097-1.203-0.226-1.611
		c-0.085-0.236-0.226-0.505-0.419-0.806c-0.214-0.301-0.354-0.58-0.419-0.838c-0.107-0.43-0.129-1.042-0.064-1.837
		c0.021-0.602,0.205-1.063,0.548-1.386c0.279-0.279,0.634-0.408,1.063-0.387c0.408,0.021,0.763,0.161,1.063,0.419
		c0.322,0.301,0.483,0.655,0.483,1.063v5.382h0.451c1.333,0,2.514,0.236,3.545,0.709c1.075,0.473,1.676,1.074,1.805,1.805
		c0.044,0.43-0.258,0.741-0.902,0.935c-0.58,0.172-1.386,0.258-2.417,0.258H7.313C6.777,417.114,6.271,417.394,5.799,417.952z
		 M19.334,424.462c0.859,2.922,1.461,5.554,1.805,7.896c0.064,0.537-0.301,1.085-1.096,1.644c-0.709,0.494-1.289,0.741-1.74,0.741
		h-6.188c-0.623,0-1.117,0.269-1.482,0.806c-0.301,0.43-0.601,1.182-0.902,2.256c-0.085,0.344-0.279,0.44-0.58,0.29
		c-0.322-0.172-0.537-0.602-0.645-1.289c-0.064-0.408-0.085-1.096-0.064-2.063c0-0.838,0.043-1.848,0.129-3.029
		c0.064-0.473,0.247-0.763,0.548-0.87c0.193-0.086,0.602-0.097,1.225-0.032l1.257,0.032h5.962c0.408,0,0.344-1.654-0.193-4.963
		c-0.537-3.373-1.278-6.531-2.224-9.475h1.386C17.626,419.22,18.561,421.905,19.334,424.462z M23.169,418.274
		c-0.021-0.107-0.085-0.247-0.193-0.419c-0.129-0.193-0.214-0.397-0.258-0.612c-0.064-0.322-0.064-0.806,0-1.45
		c0.15-1.289,0.366-2.052,0.645-2.288c0.173-0.15,0.505-0.075,0.999,0.226l0.645,0.29l5.769,1.063
		c0.129-0.451,0.333-0.784,0.612-0.999c0.236-0.172,0.483-0.236,0.741-0.193s0.472,0.172,0.645,0.387
		c0.193,0.236,0.29,0.494,0.29,0.773v9.41l0.097,0.097c0.601,0.451,1.01,0.795,1.225,1.031c0.343,0.365,0.569,0.773,0.677,1.225
		c0.064,0.365-0.15,0.645-0.645,0.838c-0.43,0.172-1.172,0.301-2.224,0.387l-5.801,0.387c-0.536,0.064-0.999,0.29-1.386,0.677
		c-0.387,0.43-0.677,1.01-0.87,1.74c-0.107,0.344-0.29,0.43-0.548,0.258c-0.258-0.193-0.462-0.645-0.612-1.354
		c-0.129-0.666-0.161-1.407-0.097-2.224c0.086-0.988,0.279-1.955,0.58-2.9l-0.129-5.672
		C23.309,418.672,23.255,418.446,23.169,418.274z M25.554,424.43h5.317v-6.155h-5.446L25.554,424.43z"/>
	<path fill="#625573" d="M11.535,394.201c0.15-0.193,0.226-0.559,0.226-1.096v-4.995c0-0.58-0.043-1.063-0.129-1.45
		c-0.043-0.215-0.129-0.473-0.258-0.773c-0.172-0.365-0.279-0.72-0.322-1.063c-0.085-0.537-0.097-1.3-0.032-2.288
		c0.021-0.559,0.172-0.988,0.451-1.289c0.279-0.258,0.602-0.387,0.967-0.387c0.366,0.021,0.677,0.161,0.935,0.419
		c0.301,0.301,0.451,0.677,0.451,1.128V395.2c0,0.967-0.258,1.697-0.773,2.191c-0.494,0.473-1.171,0.709-2.03,0.709H8.248
		c-0.494,0-0.902,0.236-1.225,0.709c-0.322,0.43-0.623,1.117-0.902,2.063c-0.172,0.473-0.408,0.559-0.709,0.258
		c-0.322-0.322-0.516-0.838-0.58-1.547c-0.085-0.645-0.085-1.493,0-2.546c0.108-1.053,0.279-2.02,0.516-2.9l-0.129-5.543
		c-0.043-0.666-0.118-1.182-0.226-1.547c-0.064-0.215-0.182-0.43-0.354-0.645c-0.172-0.258-0.29-0.526-0.354-0.806
		c-0.107-0.473-0.161-1.214-0.161-2.224c0-0.688,0.14-1.235,0.419-1.644c0.279-0.365,0.612-0.559,0.999-0.58s0.72,0.129,0.999,0.451
		c0.301,0.322,0.462,0.763,0.483,1.321l0.29,11.505h3.545C11.181,394.427,11.406,394.352,11.535,394.201z M16.369,380.473
		c-0.043-0.172-0.097-0.397-0.161-0.677c-0.129-0.473-0.193-0.924-0.193-1.354c0.021-0.688,0.183-1.74,0.483-3.158
		c0.086-0.473,0.301-0.795,0.645-0.967c0.301-0.172,0.624-0.204,0.967-0.097c0.365,0.129,0.645,0.376,0.838,0.741
		c0.236,0.408,0.322,0.87,0.258,1.386c-0.387,2.535-0.568,6.069-0.548,10.603c0.021,3.781,0.161,7.154,0.419,10.119
		c0.043,0.623,0.118,1.192,0.226,1.708c0.064,0.301,0.15,0.655,0.258,1.063c0.173,0.666,0.193,1.182,0.064,1.547
		c-0.129,0.408-0.645,1.268-1.547,2.578c-0.43,0.602-0.849,0.967-1.257,1.096c-0.408,0.15-0.537-0.032-0.387-0.548
		c0.366-1.934,0.548-5.554,0.548-10.86c0-4.77-0.129-8.626-0.387-11.569l-0.097-0.677C16.455,381.063,16.413,380.752,16.369,380.473
		z M21.848,386.241c-0.021-0.086-0.075-0.193-0.161-0.322c-0.129-0.215-0.214-0.43-0.258-0.645
		c-0.043-0.344-0.021-0.859,0.064-1.547c0.15-1.182,0.376-1.88,0.677-2.095c0.215-0.129,0.623-0.054,1.225,0.226l0.516,0.226
		l3.094,0.709c0.107-0.752,0.44-1.074,0.999-0.967c0.58,0.086,0.87,0.473,0.87,1.16l0.161,9.539h2.256
		c0.343,0,0.58-0.107,0.709-0.322c0.149-0.215,0.226-0.634,0.226-1.257v-4.673c0-0.537-0.043-0.978-0.129-1.321
		c-0.043-0.193-0.129-0.43-0.258-0.709c-0.172-0.365-0.279-0.72-0.322-1.063c-0.107-0.537-0.129-1.332-0.064-2.385
		c0.021-0.602,0.193-1.074,0.516-1.418c0.279-0.301,0.623-0.451,1.031-0.451c0.387,0.021,0.72,0.172,0.999,0.451
		c0.301,0.301,0.451,0.688,0.451,1.16v12.987c0,0.924-0.258,1.644-0.773,2.159c-0.495,0.473-1.14,0.709-1.934,0.709h-2.256
		c-0.407,0-0.773,0.215-1.096,0.645c-0.236,0.279-0.505,0.73-0.806,1.354c-0.172,0.322-0.344,0.473-0.516,0.451
		c-0.193-0.021-0.365-0.279-0.516-0.773c-0.107-0.795-0.129-1.579-0.064-2.353c0.086-0.881,0.29-1.826,0.612-2.836l-0.161-6.929
		h-3.094c0,1.074,0.032,2.213,0.097,3.416c0.021,0.709,0.086,1.719,0.193,3.029l0.097,0.967l0.226,1.225
		c0.129,0.537,0.161,0.956,0.097,1.257c-0.107,0.387-0.439,1.042-0.999,1.966c-0.387,0.58-0.794,0.924-1.225,1.031
		c-0.407,0.107-0.58-0.032-0.516-0.419c0.15-0.773,0.247-1.923,0.29-3.448c0.064-2.084,0.021-4.823-0.129-8.218
		C21.955,386.563,21.912,386.392,21.848,386.241z"/>
	<path fill="#625573" d="M32.901,348.182c1.225,0.43,1.944,0.999,2.159,1.708c0.107,0.43-0.334,0.752-1.321,0.967
		c-0.924,0.172-2.342,0.258-4.254,0.258h-7.509c0.838,2.084,1.623,4.469,2.353,7.154c0.56,2.105,1.117,4.49,1.676,7.154
		c0.044,0.236,0.108,0.451,0.193,0.645c0.044,0.129,0.118,0.301,0.226,0.516c0.236,0.494,0.301,0.956,0.193,1.386
		c-0.172,0.602-0.752,1.622-1.74,3.062c-0.537,0.709-1.01,1.096-1.418,1.16c-0.387,0.064-0.516-0.172-0.387-0.709
		c0.172-0.945,0.258-2.073,0.258-3.384c0-1.375-0.097-2.707-0.29-3.996h-4.254c-0.343,0-0.688,0.236-1.031,0.709
		c-0.301,0.365-0.569,0.816-0.806,1.354c-0.193,0.387-0.408,0.451-0.645,0.193c-0.236-0.215-0.365-0.569-0.387-1.063
		c-0.021-0.387,0.032-0.988,0.161-1.805c0.129-0.752,0.29-1.515,0.483-2.288c0.108-0.387,0.279-0.623,0.516-0.709
		c0.15-0.064,0.419-0.064,0.806,0l0.806,0.064h3.932c-0.258-1.955-0.568-3.781-0.935-5.479c-0.258-1.268-0.58-2.589-0.967-3.964
		H7.507c-0.559,0-1.106,0.29-1.644,0.87c-0.472,0.473-0.988,1.192-1.547,2.159c-0.279,0.494-0.537,0.537-0.773,0.129
		c-0.193-0.387-0.29-0.913-0.29-1.579c0-0.322,0.064-0.773,0.193-1.354c0.108-0.344,0.279-0.902,0.516-1.676l0.387-1.289
		c0.172-0.58,0.419-0.935,0.741-1.063c0.193-0.086,0.516-0.086,0.967,0c0.193,0.043,0.333,0.064,0.419,0.064
		c0.15,0.021,0.29,0.032,0.419,0.032h12.021c-0.064-0.537-0.161-0.978-0.29-1.321c-0.064-0.193-0.193-0.44-0.387-0.741
		s-0.333-0.591-0.419-0.87c-0.107-0.451-0.129-1.096-0.064-1.934c0.043-0.516,0.226-0.902,0.548-1.16
		c0.279-0.258,0.612-0.376,0.999-0.354s0.72,0.161,0.999,0.419c0.301,0.279,0.451,0.634,0.451,1.063v4.898h5.865
		C29.346,347.408,31.439,347.666,32.901,348.182z M9.247,357.85c-0.021-0.064-0.075-0.161-0.161-0.29
		c-0.15-0.193-0.236-0.408-0.258-0.645c-0.043-0.344,0-0.913,0.129-1.708c0.193-1.074,0.408-1.708,0.645-1.901
		c0.172-0.15,0.483-0.118,0.935,0.097c0.172,0.086,0.312,0.15,0.419,0.193c0.172,0.064,0.344,0.107,0.516,0.129
		c1.461,0.322,2.9,0.806,4.318,1.45c1.418,0.623,2.481,1.257,3.19,1.901c0.56,0.559,0.795,0.999,0.709,1.321
		c-0.107,0.344-0.58,0.43-1.418,0.258c-0.859-0.172-1.955-0.312-3.287-0.419c-1.482-0.15-2.707-0.204-3.674-0.161
		c0.043,1.074,0.14,2.213,0.29,3.416c0.129,1.139,0.29,2.148,0.483,3.029c0.043,0.193,0.097,0.387,0.161,0.58
		c0.043,0.107,0.108,0.247,0.193,0.419c0.237,0.473,0.312,0.881,0.226,1.225c-0.15,0.537-0.677,1.418-1.579,2.643
		c-0.494,0.688-0.881,0.999-1.16,0.935c-0.279-0.043-0.375-0.387-0.29-1.031c0.108-1.482,0.14-3.104,0.097-4.866
		c-0.021-1.16-0.097-2.954-0.226-5.382l-0.097-0.741C9.365,358.129,9.312,357.979,9.247,357.85z"/>
	<path fill="#625573" d="M6.153,307.866c-0.559,0.516-1.16,1.364-1.805,2.546c-0.322,0.58-0.591,0.677-0.806,0.29
		c-0.193-0.322-0.29-0.752-0.29-1.289c0-0.387,0.118-1.139,0.354-2.256c0.215-0.859,0.462-1.783,0.741-2.771
		c0.172-0.58,0.451-0.935,0.838-1.063c0.215-0.086,0.612-0.075,1.192,0.032l0.902,0.064h11.376c0-0.494-0.064-0.902-0.193-1.225
		c-0.064-0.193-0.193-0.419-0.387-0.677c-0.258-0.344-0.43-0.666-0.516-0.967c-0.15-0.537-0.204-1.278-0.161-2.224
		c0.021-0.602,0.193-1.063,0.516-1.386c0.301-0.301,0.666-0.451,1.096-0.451c0.408,0,0.763,0.129,1.063,0.387
		c0.322,0.279,0.483,0.645,0.483,1.096v5.446h6.22c2.622,0,4.661,0.301,6.123,0.902c1.181,0.473,1.901,1.074,2.159,1.805
		c0.129,0.322-0.172,0.58-0.902,0.773c-0.73,0.172-1.762,0.258-3.094,0.258H7.732C7.174,307.157,6.648,307.394,6.153,307.866z
		 M24.039,315.085c0.967,2.729,1.525,5.092,1.676,7.09c0.021,0.451-0.397,0.999-1.257,1.644c-0.838,0.623-1.482,0.935-1.934,0.935
		h-9.442c-0.408,0-0.827,0.247-1.257,0.741c-0.43,0.494-0.773,1.16-1.031,1.998c-0.172,0.451-0.43,0.569-0.773,0.354
		c-0.301-0.215-0.494-0.559-0.58-1.031c-0.15-0.709-0.15-1.654,0-2.836c0.129-1.053,0.344-2.063,0.645-3.029l-0.032-0.516
		c-0.021-0.602-0.043-1.074-0.064-1.418c-0.021-0.58-0.064-1.106-0.129-1.579c-0.085-0.301-0.182-0.559-0.29-0.773
		c-0.064-0.15-0.161-0.312-0.29-0.483c-0.214-0.322-0.354-0.645-0.419-0.967c-0.129-0.537-0.182-1.396-0.161-2.578
		c0-0.537,0.14-0.956,0.419-1.257c0.258-0.258,0.58-0.376,0.967-0.354c0.366,0.021,0.677,0.172,0.935,0.451
		c0.301,0.322,0.462,0.72,0.483,1.192l0.516,8.218h10.119c-0.043-1.439-0.322-3.427-0.838-5.962
		c-0.559-2.707-1.268-5.436-2.127-8.186h1.289C22.053,310.068,23.244,312.851,24.039,315.085z"/>
	<path fill="#625573" d="M7.088,279.281c0.064,1.396,0.14,2.675,0.226,3.835c0.043,0.408,0.097,0.795,0.161,1.16
		c0.043,0.215,0.108,0.494,0.193,0.838c0.172,0.645,0.215,1.128,0.129,1.45c-0.107,0.43-0.472,1.139-1.096,2.127
		c-0.387,0.602-0.794,0.935-1.225,0.999c-0.43,0.064-0.601-0.14-0.516-0.612c0.193-1.117,0.301-2.847,0.322-5.188
		c0.043-2.234,0-4.791-0.129-7.67c-0.043-0.15-0.085-0.29-0.129-0.419c-0.043-0.086-0.097-0.193-0.161-0.322
		c-0.15-0.258-0.247-0.505-0.29-0.741c-0.064-0.387-0.043-0.978,0.064-1.772c0.129-1.01,0.322-1.601,0.58-1.772
		c0.172-0.129,0.505-0.064,0.999,0.193l0.677,0.29c0.279,0.107,0.634,0.226,1.063,0.354c0.237,0.064,0.591,0.161,1.063,0.29
		l1.16,0.29c0.064-0.709,0.387-1.031,0.967-0.967c0.602,0.064,0.902,0.43,0.902,1.096l0.161,10.893h2.159
		c0.366,0,0.624-0.107,0.773-0.322c0.15-0.215,0.226-0.591,0.226-1.128v-4.866c-0.021-0.559-0.085-1.021-0.193-1.386
		c-0.064-0.193-0.182-0.44-0.354-0.741c-0.193-0.322-0.322-0.634-0.387-0.935c-0.085-0.516-0.097-1.235-0.032-2.159
		c0.021-0.537,0.193-0.945,0.516-1.225c0.258-0.258,0.58-0.376,0.967-0.354s0.709,0.161,0.967,0.419
		c0.301,0.258,0.451,0.591,0.451,0.999v12.891c0,0.773-0.226,1.418-0.677,1.934c-0.43,0.494-0.923,0.741-1.482,0.741h-2.256
		c-0.408,0-0.794,0.215-1.16,0.645c-0.279,0.344-0.494,0.741-0.645,1.192c-0.107,0.43-0.29,0.634-0.548,0.612
		c-0.258,0-0.462-0.258-0.612-0.773c-0.172-0.688-0.236-1.504-0.193-2.449c0.021-1.139,0.205-2.181,0.548-3.126l-0.129-7.767H6.991
		C6.991,276.8,7.023,277.949,7.088,279.281z M19.882,270.483c-0.043-0.15-0.097-0.365-0.161-0.645
		c-0.129-0.494-0.193-0.956-0.193-1.386c0.021-0.666,0.183-1.719,0.483-3.158c0.086-0.473,0.29-0.795,0.612-0.967
		c0.301-0.172,0.623-0.204,0.967-0.097c0.365,0.129,0.645,0.376,0.838,0.741c0.236,0.408,0.322,0.87,0.258,1.386
		c-0.387,2.557-0.568,6.091-0.548,10.603c0.021,3.867,0.173,7.24,0.451,10.119c0.044,0.602,0.118,1.16,0.226,1.676
		c0.043,0.279,0.118,0.634,0.226,1.063c0.173,0.688,0.193,1.203,0.064,1.547c-0.149,0.408-0.709,1.278-1.676,2.61
		c-0.43,0.602-0.849,0.967-1.257,1.096c-0.408,0.15-0.537-0.032-0.387-0.548c0.451-1.912,0.677-5.532,0.677-10.86
		c0.021-4.727-0.107-8.583-0.387-11.569l-0.064-0.677C19.968,271.096,19.926,270.784,19.882,270.483z M26.553,288.24
		c-0.215,0.387-0.43,0.967-0.645,1.74c-0.129,0.516-0.375,0.58-0.741,0.193c-0.343-0.365-0.536-0.827-0.58-1.386
		c-0.043-0.387-0.032-0.978,0.032-1.772c0.043-0.602,0.107-1.3,0.193-2.095c0.086-0.73,0.279-1.182,0.58-1.354
		c0.215-0.107,0.602-0.129,1.16-0.064l0.902,0.032h2.127c0.559,0,0.945-0.097,1.16-0.29c0.193-0.193,0.29-0.569,0.29-1.128v-4.963
		c0-0.451-0.043-0.838-0.129-1.16c-0.043-0.193-0.129-0.44-0.258-0.741c-0.172-0.408-0.301-0.795-0.387-1.16
		c-0.107-0.602-0.161-1.429-0.161-2.481c0-0.58,0.15-1.042,0.451-1.386c0.279-0.279,0.633-0.419,1.063-0.419
		c0.387,0,0.729,0.14,1.031,0.419c0.322,0.322,0.483,0.741,0.483,1.257v12.375c0,1.16-0.279,2.052-0.838,2.675
		c-0.537,0.602-1.3,0.902-2.288,0.902h-2.288C27.262,287.435,26.875,287.703,26.553,288.24z"/>
	<path fill="#625573" d="M5.96,229.33c-0.451,0.451-0.999,1.214-1.644,2.288c-0.214,0.43-0.451,0.451-0.709,0.064
		c-0.236-0.387-0.354-0.892-0.354-1.515c0-0.301,0.076-0.773,0.226-1.418c0.086-0.387,0.247-0.999,0.483-1.837l0.322-1.031
		c0.215-0.623,0.483-1.01,0.806-1.16c0.193-0.086,0.559-0.075,1.096,0.032c0.258,0.043,0.451,0.075,0.58,0.097
		c0.237,0.021,0.473,0.032,0.709,0.032h18.079c3.202,0,5.64,0.279,7.315,0.838c1.311,0.43,2.051,0.978,2.224,1.644
		c0.064,0.408-0.269,0.709-0.999,0.902c-0.773,0.193-2.041,0.29-3.803,0.29H7.604C7.045,228.557,6.497,228.814,5.96,229.33z
		 M11.6,248.183c-0.258,0.43-0.462,0.924-0.612,1.482c-0.107,0.43-0.301,0.569-0.58,0.419c-0.279-0.129-0.494-0.516-0.645-1.16
		c-0.085-1.117-0.075-2.116,0.032-2.997c0.129-1.074,0.376-1.891,0.741-2.449c0.021-0.666,0-1.375-0.064-2.127
		c-0.085-0.709-0.193-1.375-0.322-1.998c-0.085-0.258-0.172-0.483-0.258-0.677c-0.043-0.107-0.129-0.258-0.258-0.451
		c-0.172-0.301-0.29-0.612-0.354-0.935c-0.107-0.473-0.161-1.214-0.161-2.224c0-0.516,0.14-0.913,0.419-1.192
		c0.237-0.279,0.548-0.397,0.935-0.354c0.366,0.021,0.688,0.193,0.967,0.516c0.301,0.344,0.473,0.806,0.516,1.386l0.387,7.992h9.7
		c0.344,0,0.205-1.676-0.419-5.027c-0.665-3.566-1.567-7.187-2.707-10.86h1.482c1.482,3.502,2.632,6.51,3.448,9.023
		c0.838,2.6,1.439,5.081,1.805,7.444c0.064,0.537-0.269,1.214-0.999,2.03c-0.752,0.838-1.461,1.257-2.127,1.257H12.76
		C12.352,247.28,11.965,247.581,11.6,248.183z"/>
	<path fill="#625573" d="M5.734,194.783c-0.408,0.365-0.881,0.978-1.418,1.837c-0.279,0.516-0.537,0.591-0.773,0.226
		c-0.193-0.322-0.29-0.752-0.29-1.289c0-0.365,0.118-0.978,0.354-1.837c0.15-0.516,0.408-1.3,0.773-2.353
		c0.172-0.494,0.387-0.795,0.645-0.902c0.15-0.064,0.419-0.064,0.806,0c0.172,0.043,0.312,0.064,0.419,0.064
		c0.15,0.021,0.301,0.032,0.451,0.032h17.886c3.609,0,6.316,0.258,8.121,0.773c1.374,0.408,2.17,0.945,2.385,1.611
		c0.107,0.43-0.376,0.741-1.45,0.935c-1.031,0.172-2.75,0.258-5.156,0.258H7.217C6.701,194.139,6.207,194.354,5.734,194.783z
		 M29.614,197.877c1.096,0.43,1.687,0.967,1.772,1.611c0.043,0.322-0.215,0.569-0.773,0.741c-0.623,0.172-1.622,0.258-2.997,0.258
		h-9.732c0.021,0.322,0.086,0.623,0.193,0.902c0.064,0.172,0.15,0.387,0.258,0.645c0.237,0.43,0.322,0.806,0.258,1.128
		c-0.085,0.473-0.451,1.182-1.096,2.127c-0.43,0.602-0.773,0.849-1.031,0.741c-0.279-0.086-0.397-0.462-0.354-1.128
		c0.043-0.58,0.054-1.235,0.032-1.966c-0.021-0.795-0.085-1.611-0.193-2.449H9.569c-0.472,0-0.923,0.258-1.354,0.773
		c-0.343,0.387-0.72,0.988-1.128,1.805c-0.214,0.408-0.451,0.44-0.709,0.097c-0.236-0.301-0.354-0.688-0.354-1.16
		c0-0.387,0.097-0.999,0.29-1.837c0.15-0.602,0.366-1.343,0.645-2.224c0.15-0.494,0.366-0.795,0.645-0.902
		c0.193-0.086,0.537-0.107,1.031-0.064l0.902,0.032h13.535C25.994,197.007,28.176,197.297,29.614,197.877z M17.11,208.157
		l0.097,2.288h4.479c0.451,0,0.58-0.569,0.387-1.708c-0.172-1.031-0.612-2.546-1.321-4.544c-0.301-0.816-0.333-1.278-0.097-1.386
		c0.193-0.107,0.548,0.161,1.063,0.806c1.01,1.311,1.848,2.804,2.514,4.479c0.623,1.504,0.988,2.825,1.096,3.964
		c0.021,0.344-0.333,0.795-1.063,1.354c-0.752,0.559-1.354,0.838-1.805,0.838H12.438c-0.451,0-0.849,0.215-1.192,0.645
		c-0.279,0.301-0.569,0.806-0.87,1.515c-0.129,0.408-0.322,0.537-0.58,0.387c-0.236-0.15-0.43-0.473-0.58-0.967
		c-0.15-0.859-0.172-1.848-0.064-2.965c0.129-1.225,0.376-2.063,0.741-2.514c0-0.494-0.053-0.924-0.161-1.289
		c-0.064-0.215-0.182-0.483-0.354-0.806c-0.172-0.365-0.301-0.677-0.387-0.935c-0.107-0.408-0.161-0.924-0.161-1.547
		c-0.021-0.602,0.108-1.074,0.387-1.418c0.237-0.279,0.527-0.419,0.87-0.419c0.366,0,0.677,0.129,0.935,0.387
		c0.279,0.301,0.43,0.666,0.451,1.096l0.097,2.514l0.129,2.514h3.771c-0.043-0.494-0.118-0.913-0.226-1.257
		c-0.085-0.215-0.204-0.462-0.354-0.741c-0.193-0.322-0.322-0.602-0.387-0.838c-0.107-0.387-0.14-0.913-0.097-1.579
		c0.021-0.516,0.161-0.935,0.419-1.257c0.237-0.279,0.516-0.419,0.838-0.419c0.344-0.021,0.634,0.097,0.87,0.354
		c0.279,0.279,0.44,0.655,0.483,1.128L17.11,208.157z"/>
	<path fill="#625573" d="M5.928,163.33c-0.516,0.473-1.052,1.203-1.611,2.191c-0.214,0.451-0.451,0.483-0.709,0.097
		c-0.236-0.365-0.354-0.87-0.354-1.515c0-0.301,0.064-0.741,0.193-1.321c0.086-0.365,0.247-0.924,0.483-1.676l0.354-1.225
		c0.215-0.623,0.483-1.01,0.806-1.16c0.193-0.086,0.559-0.075,1.096,0.032c0.258,0.043,0.451,0.075,0.58,0.097
		c0.237,0.021,0.473,0.032,0.709,0.032h6.735c2.127,0,3.782,0.279,4.963,0.838c0.946,0.451,1.482,0.999,1.611,1.644
		c0.064,0.408-0.247,0.709-0.935,0.902s-1.793,0.29-3.319,0.29H7.604C7.023,162.557,6.465,162.814,5.928,163.33z M17.239,170.194
		c1.246,1.268,1.869,3.008,1.869,5.221c0,2.148-0.591,3.824-1.772,5.027c-1.074,1.074-2.438,1.611-4.093,1.611
		c-1.203,0-2.277-0.408-3.223-1.225c-0.988-0.816-1.644-1.891-1.966-3.223c-0.129-0.73-0.365-1.192-0.709-1.386
		c-0.322-0.193-0.72-0.097-1.192,0.29c-0.214,0.15-0.365,0.064-0.451-0.258c-0.107-0.322-0.085-0.677,0.064-1.063
		c0.237-0.752,0.473-1.214,0.709-1.386c0.129-0.129,0.344-0.15,0.645-0.064c0.108,0.043,0.193,0.075,0.258,0.097
		c0.086,0,0.183,0,0.29,0c0.193-1.354,0.817-2.557,1.869-3.609c1.096-1.117,2.332-1.676,3.706-1.676
		C14.812,168.551,16.144,169.099,17.239,170.194z M11.084,177.832c0.559,0.537,1.257,0.806,2.095,0.806
		c0.817,0,1.504-0.269,2.063-0.806c0.624-0.623,0.935-1.461,0.935-2.514c0-1.01-0.311-1.815-0.935-2.417
		c-0.58-0.559-1.268-0.838-2.063-0.838c-0.838,0-1.536,0.279-2.095,0.838c-0.623,0.602-0.935,1.407-0.935,2.417
		C10.149,176.371,10.461,177.209,11.084,177.832z M21.622,163.91c-0.021-0.064-0.075-0.14-0.161-0.226
		c-0.15-0.172-0.236-0.354-0.258-0.548c-0.064-0.365-0.053-0.967,0.032-1.805c0.108-1.203,0.302-1.901,0.58-2.095
		c0.215-0.15,0.655-0.064,1.321,0.258l0.516,0.193l3.062,0.548c0.021-0.322,0.129-0.58,0.322-0.773
		c0.193-0.15,0.431-0.226,0.709-0.226c0.258,0.021,0.473,0.118,0.645,0.29c0.215,0.193,0.322,0.44,0.322,0.741l0.29,9.571h2.417
		c0.278,0,0.472-0.097,0.58-0.29c0.149-0.236,0.226-0.655,0.226-1.257v-4.415c-0.021-0.623-0.076-1.117-0.161-1.482
		c-0.044-0.215-0.129-0.462-0.258-0.741c-0.173-0.322-0.279-0.634-0.322-0.935c-0.086-0.516-0.097-1.289-0.032-2.32
		c0.021-0.602,0.193-1.074,0.516-1.418c0.279-0.301,0.623-0.451,1.031-0.451c0.387,0,0.72,0.14,0.999,0.419
		c0.301,0.301,0.451,0.688,0.451,1.16v12.762c0,0.945-0.226,1.665-0.677,2.159c-0.43,0.473-1.043,0.709-1.837,0.709h-2.481
		c-0.43,0-0.816,0.204-1.16,0.612c-0.322,0.365-0.568,0.816-0.741,1.354c-0.129,0.322-0.301,0.473-0.516,0.451
		c-0.214-0.021-0.407-0.269-0.58-0.741c-0.149-0.688-0.193-1.461-0.129-2.32c0.064-1.053,0.279-2.03,0.645-2.933l-0.193-6.574H23.62
		v0.129c0.064,1.547,0.118,2.696,0.161,3.448c0.064,1.268,0.15,2.363,0.258,3.287c0.021,0.258,0.054,0.505,0.097,0.741
		c0.044,0.129,0.097,0.301,0.161,0.516c0.15,0.473,0.183,0.859,0.097,1.16c-0.107,0.43-0.494,1.139-1.16,2.127
		c-0.407,0.602-0.816,0.924-1.225,0.967c-0.407,0.043-0.569-0.193-0.483-0.709c0.15-1.225,0.247-2.396,0.29-3.513
		c0.086-1.805,0.064-4.286-0.064-7.444C21.73,164.146,21.687,164.018,21.622,163.91z"/>
	<path fill="#625573" d="M5.799,131.974c-0.387,0.473-0.859,1.311-1.418,2.514c-0.236,0.451-0.494,0.451-0.773,0
		c-0.236-0.387-0.354-0.806-0.354-1.257c0-0.408,0.097-1.117,0.29-2.127c0.15-0.859,0.354-1.762,0.612-2.707
		c0.172-0.58,0.44-0.935,0.806-1.063c0.237-0.086,0.624-0.075,1.16,0.032l0.87,0.064h7.187c-0.021-0.666-0.097-1.203-0.226-1.611
		c-0.085-0.236-0.226-0.505-0.419-0.806c-0.214-0.301-0.354-0.58-0.419-0.838c-0.107-0.43-0.129-1.042-0.064-1.837
		c0.021-0.602,0.205-1.063,0.548-1.386c0.279-0.279,0.634-0.408,1.063-0.387c0.408,0.021,0.763,0.161,1.063,0.419
		c0.322,0.301,0.483,0.655,0.483,1.063v5.382h0.451c1.333,0,2.514,0.236,3.545,0.709c1.075,0.473,1.676,1.074,1.805,1.805
		c0.044,0.43-0.258,0.741-0.902,0.935c-0.58,0.172-1.386,0.258-2.417,0.258H7.313C6.777,131.136,6.271,131.415,5.799,131.974z
		 M5.992,138.451c0.215-0.301,0.483-0.462,0.806-0.483c0.322,0,0.591,0.129,0.806,0.387c0.258,0.301,0.398,0.688,0.419,1.16
		l0.226,4.383c0,0.58-0.172,1.074-0.516,1.482c-0.258,0.344-0.806,0.827-1.644,1.45c-0.472,0.322-0.752,0.387-0.838,0.193
		c-0.107-0.15-0.064-0.516,0.129-1.096c0.129-0.666,0.226-1.536,0.29-2.61c0.043-1.01,0.054-2.095,0.032-3.255v-0.258
		C5.659,139.225,5.756,138.773,5.992,138.451z M9.473,138.645c-0.064-0.215-0.172-0.473-0.322-0.773
		c-0.193-0.322-0.311-0.612-0.354-0.87c-0.085-0.408-0.107-1.01-0.064-1.805c0.021-0.58,0.183-1.031,0.483-1.354
		c0.301-0.279,0.656-0.43,1.063-0.451c0.387,0,0.72,0.118,0.999,0.354c0.322,0.279,0.483,0.623,0.483,1.031
		c0.021,1.289,0.064,2.589,0.129,3.899c0.043,1.01,0.108,2.105,0.193,3.287c0.215-0.58,0.44-0.956,0.677-1.128
		c0.172-0.107,0.344-0.097,0.516,0.032c0.193-1.59,0.677-2.804,1.45-3.642c0.752-0.881,1.762-1.321,3.029-1.321
		c1.354,0,2.449,0.559,3.287,1.676c0.859,1.16,1.289,2.707,1.289,4.641c0,1.805-0.44,3.266-1.321,4.383
		c-0.816,1.053-1.857,1.579-3.126,1.579c-1.139,0-2.073-0.322-2.804-0.967c-0.816-0.73-1.364-1.826-1.644-3.287
		c-0.129-0.537-0.322-0.849-0.58-0.935c-0.214-0.064-0.451,0-0.709,0.193c0.021,0.58,0.086,1.192,0.193,1.837
		c0.108,0.537,0.237,1.096,0.387,1.676l0.258,0.806c0.172,0.408,0.205,0.752,0.097,1.031c-0.129,0.387-0.569,1.031-1.321,1.934
		c-0.709,0.838-1.257,1.214-1.644,1.128c-0.322-0.064-0.451-0.354-0.387-0.87c0.237-1.611,0.366-3.201,0.387-4.77
		c0.021-1.719-0.085-3.706-0.322-5.962C9.709,139.461,9.602,139.01,9.473,138.645z M16.047,144.381
		c0.408,0.473,0.902,0.709,1.482,0.709s1.063-0.236,1.45-0.709c0.451-0.537,0.677-1.278,0.677-2.224c0-0.967-0.226-1.74-0.677-2.32
		c-0.387-0.516-0.87-0.773-1.45-0.773s-1.074,0.258-1.482,0.773c-0.451,0.58-0.677,1.354-0.677,2.32
		C15.37,143.081,15.596,143.822,16.047,144.381z M23.652,132.36c-0.043-0.107-0.107-0.247-0.193-0.419
		c-0.129-0.215-0.215-0.419-0.258-0.612c-0.064-0.344-0.064-0.827,0-1.45c0.129-1.268,0.334-2.03,0.612-2.288
		c0.173-0.15,0.505-0.107,0.999,0.129l0.741,0.258l5.414,0.935c0.085-0.344,0.258-0.591,0.516-0.741
		c0.236-0.15,0.494-0.204,0.773-0.161c0.278,0.043,0.505,0.161,0.677,0.354c0.215,0.215,0.322,0.462,0.322,0.741v9.313
		c0.559,0.516,0.945,0.892,1.16,1.128c0.322,0.365,0.537,0.741,0.645,1.128c0.064,0.365-0.15,0.645-0.645,0.838
		c-0.408,0.15-1.149,0.279-2.224,0.387l-5.35,0.354c-0.494,0.043-0.935,0.258-1.321,0.645c-0.387,0.365-0.655,0.827-0.806,1.386
		c-0.193,0.473-0.407,0.612-0.645,0.419c-0.214-0.15-0.43-0.526-0.645-1.128c-0.107-0.623-0.129-1.354-0.064-2.191
		c0.064-0.967,0.258-1.934,0.58-2.9l-0.161-5.446C23.76,132.758,23.717,132.532,23.652,132.36z M26.037,138.354h5.027v-6.316h-5.221
		L26.037,138.354z"/>
	<path fill="#625573" d="M7.023,101.938c0.172-0.064,0.43-0.021,0.773,0.129l0.419,0.161c0.193-2.02,0.924-3.609,2.191-4.77
		c1.139-1.031,2.471-1.547,3.996-1.547c1.719,0,3.18,0.688,4.383,2.063c1.289,1.461,1.934,3.341,1.934,5.64
		c0,2.385-0.645,4.286-1.934,5.704c-1.181,1.311-2.675,1.966-4.479,1.966c-1.354,0-2.61-0.526-3.771-1.579
		c-1.139-1.053-1.837-2.31-2.095-3.771c-0.129-0.516-0.343-0.838-0.645-0.967c-0.301-0.129-0.569-0.043-0.806,0.258
		c-0.43,0.537-0.72,0.505-0.87-0.097c-0.172-0.602-0.107-1.289,0.193-2.063C6.529,102.422,6.766,102.046,7.023,101.938z
		 M11.761,106.515c0.666,0.623,1.472,0.935,2.417,0.935c0.924,0,1.729-0.312,2.417-0.935c0.773-0.709,1.16-1.687,1.16-2.933
		c0-1.182-0.387-2.138-1.16-2.868c-0.688-0.623-1.493-0.935-2.417-0.935c-0.945,0-1.751,0.312-2.417,0.935
		c-0.752,0.709-1.128,1.665-1.128,2.868C10.633,104.828,11.009,105.806,11.761,106.515z M25.779,94.72
		c-0.043-0.172-0.097-0.397-0.161-0.677c-0.129-0.473-0.193-0.924-0.193-1.354c0.021-0.688,0.183-1.74,0.483-3.158
		c0.086-0.473,0.301-0.795,0.645-0.967c0.322-0.172,0.677-0.193,1.063-0.064c0.366,0.129,0.666,0.376,0.902,0.741
		c0.237,0.387,0.322,0.849,0.258,1.386c-0.387,2.514-0.559,5.983-0.516,10.409c0.021,3.738,0.173,7.079,0.451,10.022
		c0.044,0.602,0.118,1.16,0.226,1.676c0.043,0.301,0.118,0.655,0.226,1.063c0.193,0.688,0.226,1.203,0.097,1.547
		c-0.15,0.408-0.697,1.278-1.644,2.61c-0.43,0.602-0.858,0.967-1.289,1.096c-0.407,0.15-0.536-0.032-0.387-0.548
		c0.431-1.869,0.612-5.468,0.548-10.796c-0.043-4.426-0.204-8.218-0.483-11.376l-0.097-0.677
		C25.865,95.311,25.822,94.999,25.779,94.72z"/>
	<path fill="#625573" d="M9.795,70.775c0.086,1.547,0.183,2.997,0.29,4.351c0.043,0.473,0.108,0.902,0.193,1.289
		c0.064,0.215,0.15,0.483,0.258,0.806c0.193,0.494,0.247,0.892,0.161,1.192c-0.107,0.408-0.504,1.117-1.192,2.127
		c-0.451,0.645-0.902,1.021-1.354,1.128c-0.43,0.107-0.601-0.086-0.516-0.58c0.237-1.01,0.366-2.761,0.387-5.253
		c0.021-2.363-0.064-5.253-0.258-8.669c-0.043-0.236-0.097-0.451-0.161-0.645c-0.021-0.086-0.075-0.204-0.161-0.354
		c-0.129-0.236-0.214-0.473-0.258-0.709c-0.043-0.365-0.011-0.935,0.097-1.708c0.129-1.074,0.333-1.697,0.612-1.869
		c0.193-0.107,0.537-0.021,1.031,0.258l0.612,0.29c0.322,0.086,0.688,0.193,1.096,0.322c0.258,0.064,0.624,0.172,1.096,0.322
		l1.74,0.451c0.043-0.387,0.161-0.677,0.354-0.87c0.193-0.172,0.408-0.247,0.645-0.226c0.237,0.021,0.43,0.129,0.58,0.322
		c0.193,0.193,0.29,0.451,0.29,0.773l0.29,11.569h2.933c0.451,0,0.763-0.118,0.935-0.354c0.173-0.236,0.258-0.709,0.258-1.418V68.52
		c-0.064-0.494-0.149-0.913-0.258-1.257c-0.085-0.215-0.204-0.462-0.354-0.741c-0.193-0.387-0.322-0.741-0.387-1.063
		c-0.107-0.559-0.129-1.386-0.064-2.481c0.043-0.602,0.226-1.074,0.548-1.418c0.279-0.279,0.612-0.419,0.999-0.419
		s0.721,0.15,0.999,0.451c0.302,0.301,0.451,0.688,0.451,1.16v13.374c0,0.795-0.269,1.472-0.806,2.03
		c-0.537,0.537-1.192,0.806-1.966,0.806h-2.546c-0.408,0-0.762,0.247-1.063,0.741c-0.236,0.387-0.419,0.892-0.548,1.515
		c-0.107,0.451-0.29,0.666-0.548,0.645s-0.462-0.279-0.612-0.773c-0.193-0.73-0.29-1.644-0.29-2.739
		c0.021-1.182,0.161-2.267,0.419-3.255l-0.226-8.347l-3.803-0.129C9.698,67.692,9.73,69.078,9.795,70.775z M27.326,68.874
		c0-0.859-0.043-1.805-0.129-2.836c-0.064-0.945-0.161-1.987-0.29-3.126c-0.064-0.301-0.129-0.602-0.193-0.902
		c-0.043-0.172-0.097-0.387-0.161-0.645c-0.172-0.559-0.258-1.053-0.258-1.482c0.021-0.645,0.172-1.719,0.451-3.223
		c0.064-0.473,0.27-0.816,0.612-1.031c0.302-0.215,0.624-0.269,0.967-0.161c0.366,0.129,0.645,0.376,0.838,0.741
		c0.237,0.408,0.312,0.892,0.226,1.45c-0.279,3.115-0.397,6.735-0.354,10.86c0.064,3.932,0.247,7.38,0.548,10.345
		c0.064,0.451,0.141,0.87,0.226,1.257c0.064,0.236,0.15,0.526,0.258,0.87c0.193,0.666,0.237,1.171,0.129,1.515
		c-0.129,0.43-0.623,1.278-1.482,2.546c-0.387,0.58-0.794,0.935-1.225,1.063c-0.43,0.107-0.58-0.097-0.451-0.612
		c0.237-1.031,0.376-2.578,0.419-4.641c0.043-1.934,0-4.727-0.129-8.379h-6.864v-3.609H27.326z"/>
	<path fill="#625573" d="M26.811,45.349c0.494-0.451,1.117-0.677,1.869-0.677s1.386,0.226,1.901,0.677
		c0.58,0.516,0.87,1.192,0.87,2.03c0,0.859-0.29,1.525-0.87,1.998c-0.516,0.43-1.149,0.645-1.901,0.645s-1.375-0.215-1.869-0.645
		c-0.559-0.473-0.838-1.139-0.838-1.998C25.973,46.541,26.252,45.864,26.811,45.349z"/>
</g>
</svg>
