<?xml version="1.0" encoding="utf-8"?>
<!-- Generator: Adobe Illustrator 16.0.0, SVG Export Plug-In . SVG Version: 6.00 Build 0)  -->
<!DOCTYPE svg PUBLIC "-//W3C//DTD SVG 1.1//EN" "http://www.w3.org/Graphics/SVG/1.1/DTD/svg11.dtd">
<svg version="1.1" id="Layer_1" xmlns="http://www.w3.org/2000/svg" xmlns:xlink="http://www.w3.org/1999/xlink" x="0px" y="0px"
	 width="68px" height="564px" viewBox="0 0 68 564" enable-background="new 0 0 68 564" xml:space="preserve">
<path fill="none" stroke="#FFFFFF" stroke-width="2" d="M18.556,418.214v141.5"/>
<g>
	<path fill="#625573" d="M6.479,366.366c1.473-1.68,3.45-2.753,5.932-3.218c0.362-0.052,0.698,0.026,1.008,0.232
		c0.259,0.182,0.427,0.439,0.504,0.775c0.078,0.311,0.026,0.595-0.154,0.853c-0.207,0.311-0.543,0.505-1.009,0.582
		c-2.248,0.439-3.94,1.474-5.078,3.102c-1.034,1.474-1.551,3.334-1.551,5.583c0,2.946,1.072,5.338,3.218,7.173
		c2.301,1.913,5.479,2.868,9.537,2.868c4.162,0,7.366-0.955,9.615-2.868c2.094-1.784,3.141-4.174,3.141-7.173
		c0-2.274-0.53-4.122-1.59-5.544c-1.215-1.603-3.141-2.688-5.777-3.257c-0.413-0.078-0.71-0.271-0.892-0.582
		c-0.154-0.284-0.193-0.594-0.116-0.93c0.078-0.362,0.259-0.634,0.543-0.814c0.311-0.207,0.698-0.258,1.163-0.155
		c2.585,0.62,4.627,1.758,6.126,3.412c1.81,1.964,2.714,4.588,2.714,7.87c0,3.722-1.331,6.707-3.993,8.956
		c-2.688,2.326-6.333,3.489-10.934,3.489c-4.497,0-8.115-1.163-10.855-3.489c-2.714-2.274-4.071-5.26-4.071-8.956
		C3.959,370.967,4.8,368.331,6.479,366.366z"/>
	<path fill="#625573" d="M8.534,335.544c2.714-2.067,6.164-3.102,10.352-3.102s7.625,1.034,10.313,3.102
		c3.076,2.326,4.614,5.609,4.614,9.848c0,4.265-1.538,7.561-4.614,9.887c-2.688,2.016-6.125,3.023-10.313,3.023
		s-7.638-1.008-10.352-3.023c-3.05-2.326-4.575-5.622-4.575-9.887C3.959,341.153,5.484,337.87,8.534,335.544z M9.93,353.456
		c2.249,1.628,5.234,2.442,8.956,2.442c3.696,0,6.682-0.814,8.956-2.442c2.559-1.835,3.838-4.523,3.838-8.064
		c0-3.515-1.279-6.203-3.838-8.064c-2.3-1.653-5.285-2.481-8.956-2.481c-3.695,0-6.681,0.828-8.956,2.481
		c-2.559,1.861-3.838,4.55-3.838,8.064C6.092,348.933,7.371,351.621,9.93,353.456z"/>
	<path fill="#625573" d="M4.502,325.891c-0.31-0.311-0.49-0.711-0.543-1.202c-0.025-0.491,0.078-0.931,0.311-1.318
		c0.259-0.413,0.607-0.698,1.047-0.853l2.481-0.854l22.447-7.676L7.72,306.233l-2.287-0.775c-0.491-0.154-0.879-0.438-1.163-0.853
		c-0.232-0.413-0.323-0.853-0.271-1.318c0.026-0.465,0.194-0.853,0.504-1.163c0.336-0.361,0.789-0.543,1.357-0.543h26.712
		c0.388,0,0.698,0.13,0.931,0.388c0.207,0.233,0.311,0.518,0.311,0.854s-0.104,0.62-0.311,0.853
		c-0.232,0.232-0.543,0.349-0.931,0.349H7.952l24.426,8.259c0.956,0.413,1.435,0.995,1.435,1.744c0,0.724-0.479,1.293-1.435,1.706
		L7.952,323.99h24.619c0.388,0,0.698,0.13,0.931,0.388c0.207,0.233,0.311,0.504,0.311,0.814c0,0.336-0.104,0.62-0.311,0.853
		c-0.232,0.233-0.543,0.35-0.931,0.35H5.859C5.291,326.395,4.838,326.227,4.502,325.891z"/>
	<path fill="#625573" d="M7.1,276.769c1.499-1.344,3.348-2.016,5.544-2.016c2.146,0,3.968,0.672,5.467,2.016
		c1.681,1.474,2.521,3.464,2.521,5.971v8.994h11.94c0.388,0,0.698,0.13,0.931,0.388c0.207,0.233,0.311,0.504,0.311,0.814
		c0,0.336-0.104,0.62-0.311,0.853c-0.232,0.233-0.543,0.35-0.931,0.35H8.379c-1.033,0-1.899-0.297-2.598-0.892
		c-0.775-0.672-1.163-1.603-1.163-2.792v-7.715C4.618,280.232,5.446,278.242,7.1,276.769z M16.676,278.668
		c-1.111-0.981-2.442-1.473-3.993-1.473c-1.603,0-2.959,0.491-4.071,1.473c-1.214,1.086-1.822,2.547-1.822,4.381v6.979
		c0,0.569,0.182,1.009,0.543,1.318c0.311,0.259,0.712,0.388,1.202,0.388h9.964v-8.685C18.498,281.215,17.892,279.754,16.676,278.668
		z"/>
	<path fill="#625573" d="M4.27,268.511c-0.207-0.233-0.311-0.517-0.311-0.854c0-0.31,0.104-0.581,0.311-0.813
		c0.232-0.259,0.556-0.388,0.969-0.388h24.038c0.465,0,0.853-0.13,1.163-0.388c0.362-0.311,0.543-0.75,0.543-1.318v-11.941
		c0-0.388,0.104-0.698,0.31-0.931c0.207-0.206,0.466-0.311,0.775-0.311c0.285,0,0.53,0.104,0.737,0.311
		c0.232,0.232,0.349,0.543,0.349,0.931v12.367c0,1.189-0.388,2.12-1.163,2.792c-0.698,0.595-1.551,0.892-2.559,0.892H5.238
		C4.825,268.859,4.502,268.743,4.27,268.511z"/>
	<path fill="#625573" d="M4.929,228.577c0.207-0.206,0.465-0.311,0.775-0.311c0.284,0,0.53,0.104,0.736,0.311
		c0.232,0.232,0.349,0.53,0.349,0.892v13.725c0,0.569,0.182,1.008,0.543,1.318c0.311,0.259,0.712,0.388,1.202,0.388h8.762v-14.073
		c0-0.388,0.104-0.698,0.311-0.931c0.207-0.207,0.465-0.311,0.775-0.311c0.285,0,0.53,0.104,0.736,0.311
		c0.233,0.232,0.35,0.543,0.35,0.931v14.073h9.809c0.465,0,0.853-0.129,1.163-0.388c0.362-0.311,0.543-0.749,0.543-1.318v-14.229
		c0-0.388,0.104-0.698,0.31-0.931c0.207-0.206,0.466-0.31,0.775-0.31c0.285,0,0.53,0.104,0.737,0.31
		c0.232,0.232,0.349,0.543,0.349,0.931v14.655c0,1.189-0.388,2.119-1.163,2.791c-0.698,0.596-1.551,0.892-2.559,0.892H8.379
		c-1.033,0-1.899-0.296-2.598-0.892c-0.775-0.672-1.163-1.602-1.163-2.791v-14.151C4.618,229.107,4.722,228.81,4.929,228.577z"/>
	<path fill="#625573" d="M4.929,205.044c0.207-0.233,0.465-0.35,0.775-0.35c0.284,0,0.53,0.116,0.736,0.35
		c0.232,0.232,0.349,0.542,0.349,0.93v7.871H32.61c0.362,0,0.659,0.129,0.892,0.388c0.207,0.232,0.311,0.504,0.311,0.813
		c0,0.337-0.104,0.621-0.311,0.854c-0.232,0.232-0.529,0.349-0.892,0.349H6.789v8.22c0,0.62-0.361,0.931-1.085,0.931
		s-1.086-0.311-1.086-0.931v-18.494C4.618,205.586,4.722,205.276,4.929,205.044z"/>
	<path fill="#625573" d="M4.27,198.569c-0.207-0.232-0.311-0.517-0.311-0.854c0-0.31,0.104-0.581,0.311-0.813
		c0.232-0.259,0.556-0.388,0.969-0.388h27.333c0.388,0,0.698,0.129,0.931,0.388c0.207,0.232,0.311,0.504,0.311,0.813
		c0,0.337-0.104,0.621-0.311,0.854c-0.232,0.232-0.543,0.349-0.931,0.349H5.238C4.825,198.918,4.502,198.802,4.27,198.569z"/>
	<path fill="#625573" d="M8.534,167.281c2.714-2.067,6.164-3.102,10.352-3.102s7.625,1.034,10.313,3.102
		c3.076,2.326,4.614,5.609,4.614,9.848c0,4.265-1.538,7.561-4.614,9.887c-2.688,2.016-6.125,3.024-10.313,3.024
		s-7.638-1.009-10.352-3.024c-3.05-2.326-4.575-5.622-4.575-9.887C3.959,172.891,5.484,169.607,8.534,167.281z M9.93,185.193
		c2.249,1.628,5.234,2.442,8.956,2.442c3.696,0,6.682-0.814,8.956-2.442c2.559-1.835,3.838-4.522,3.838-8.064
		c0-3.515-1.279-6.203-3.838-8.064c-2.3-1.653-5.285-2.48-8.956-2.48c-3.695,0-6.681,0.827-8.956,2.48
		c-2.559,1.861-3.838,4.55-3.838,8.064C6.092,180.671,7.371,183.358,9.93,185.193z"/>
	<path fill="#625573" d="M3.959,156.969c-0.103-0.775,0.169-1.37,0.814-1.783l1.938-1.318l22.642-13.608H5.006
		c-0.335,0-0.606-0.116-0.813-0.349c-0.155-0.233-0.233-0.517-0.233-0.854c0-0.335,0.091-0.62,0.271-0.853
		c0.182-0.258,0.44-0.388,0.775-0.388h27.14c0.879,0,1.408,0.349,1.589,1.047c0.207,0.697,0.039,1.201-0.504,1.512l-3.179,2.171
		L8.379,155.689h24.076c0.44,0,0.788,0.13,1.047,0.388c0.232,0.232,0.35,0.518,0.35,0.853c-0.026,0.337-0.155,0.62-0.388,0.854
		c-0.259,0.232-0.595,0.349-1.009,0.349H5.51C4.605,158.132,4.089,157.744,3.959,156.969z"/>
</g>
<g>
	<path fill="#FFFFFF" d="M64.166,559.047h-0.469c0-1.261-0.342-1.712-1.315-1.712h-9.533c-0.828,0-1.188,0.451-1.188,1.712h-0.451
		v-5.586c0-4.397,3.244-6.235,6.47-6.235c3.262,0,6.487,1.838,6.487,6.235V559.047z M62.382,556.2c0.974,0,1.315-0.451,1.315-1.442
		v-1.297c0-3.334-2.991-5.01-6.019-5.01c-3.01,0-6.019,1.676-6.019,5.01v1.297c0,0.991,0.36,1.442,1.188,1.442H62.382z"/>
	<path fill="#FFFFFF" d="M51.209,545.264v-4.865h0.451c0,1.405,0.27,1.874,1.171,1.874h9.821c0.721,0,1.063-0.469,1.063-1.874h0.45
		v4.865h-0.45c0-1.405-0.343-1.874-1.063-1.874h-9.821c-0.901,0-1.171,0.469-1.171,1.874H51.209z"/>
	<path fill="#FFFFFF" d="M58.31,526.632h0.469c0,1.135,0.432,1.495,1.279,1.495h4.108v0.812l-0.938,0.307
		c0.505,0.774,1.226,1.802,1.226,3.514c0,3.424-2.343,5.677-6.758,5.677c-3.964,0-6.794-2.361-6.794-5.749
		c0-1.1,0.217-2,0.379-2.415l-0.36-1.459l3.226-1.244l0.126,0.289c-1.226,0.955-2.919,2.378-2.919,4.739
		c0,2.595,2.631,4.613,6.253,4.613c4.325,0,6.397-2.198,6.397-4.451c0-1.946-1.441-3.514-2.541-3.514h-1.405
		c-0.848,0-1.279,0.378-1.279,2H58.31V526.632z"/>
	<path fill="#FFFFFF" d="M51.209,524.993v-4.865h0.451c0,1.405,0.27,1.874,1.171,1.874h9.821c0.721,0,1.063-0.469,1.063-1.874h0.45
		v4.865h-0.45c0-1.405-0.343-1.874-1.063-1.874h-9.821c-0.901,0-1.171,0.469-1.171,1.874H51.209z"/>
	<path fill="#FFFFFF" d="M64.184,514.615h-0.45c0-1.117-0.09-2.036-0.991-2.036h-10.02c-0.757,0-1.045,0.36-1.045,1.514
		c0,2.325,1.388,3.262,2.667,4.055L54.2,518.4l-2.973-1.046v-10.686l3.1-1.063l0.126,0.307c-1.441,0.864-2.775,1.495-2.775,3.729
		c0,1.244,0.288,1.82,1.045,1.82h10.02c0.901,0,0.991-0.721,0.991-2.036h0.45V514.615z"/>
	<path fill="#FFFFFF" d="M50.885,497.606l11.516-4.451c0.991-0.324,1.315-0.847,1.315-1.802h0.45v4.577h-0.45
		c0-1.189-0.145-1.73-0.703-1.73c-0.145,0-0.324,0.036-0.541,0.108l-3.027,1.172v5.424l2.613,0.973
		c0.343,0.108,0.612,0.181,0.829,0.181c0.648,0,0.829-0.522,0.829-1.712h0.45v3.929h-0.45c0-0.991-0.234-1.352-1.874-1.91
		l-10.543-3.767L50.885,497.606z M52.11,498.255l6.812,2.469v-5.045L52.11,498.255z"/>
	<path fill="#FFFFFF" d="M64.166,490.005h-0.45c0-1.369-0.415-1.712-1.153-1.712h-9.785c-0.848,0-1.117,0.343-1.117,1.712h-0.451
		v-4.721h0.451c0,1.549,0.27,1.874,1.117,1.874h9.785c0.738,0,1.153-0.325,1.153-1.334v-1.856c0-1.729-1.1-3.243-2.865-4.234
		l0.18-0.343l3.136,1.315V490.005z"/>
	<path fill="#FFFFFF" d="M51.209,463.681v-3.946h0.451c0,1.225,0.198,1.478,1.261,1.855l11.533,4.199v0.307l-11.804,4.253
		c-0.576,0.198-0.99,0.486-0.99,1.802h-0.451v-4.577h0.451c0,1.243,0.071,1.712,0.486,1.712c0.09,0,0.216-0.019,0.36-0.072
		l9.965-3.604l-9.587-3.46c-0.234-0.09-0.45-0.144-0.612-0.144c-0.45,0-0.612,0.414-0.612,1.676H51.209z"/>
	<path fill="#FFFFFF" d="M51.209,458.222v-4.865h0.451c0,1.405,0.27,1.874,1.171,1.874h9.821c0.721,0,1.063-0.469,1.063-1.874h0.45
		v4.865h-0.45c0-1.405-0.343-1.874-1.063-1.874h-9.821c-0.901,0-1.171,0.469-1.171,1.874H51.209z"/>
	<path fill="#FFFFFF" d="M64.166,451.735h-0.469c0-1.261-0.342-1.712-1.315-1.712h-9.533c-0.828,0-1.188,0.451-1.188,1.712h-0.451
		v-5.586c0-4.397,3.244-6.235,6.47-6.235c3.262,0,6.487,1.838,6.487,6.235V451.735z M62.382,448.889
		c0.974,0,1.315-0.451,1.315-1.442v-1.297c0-3.334-2.991-5.01-6.019-5.01c-3.01,0-6.019,1.676-6.019,5.01v1.297
		c0,0.991,0.36,1.442,1.188,1.442H62.382z"/>
	<path fill="#FFFFFF" d="M64.166,438.223h-0.45c0-1.226-0.379-1.712-1.244-1.712h-9.658c-0.829,0-1.153,0.486-1.153,1.712h-0.451
		v-9.461l3.063-1.261l0.181,0.27c-1.1,0.901-2.793,1.622-2.793,4.415v1.767c0,0.937,0.324,1.424,1.153,1.424h4.343v-2.739
		c0-1.262-0.541-1.946-2.253-1.946v-0.433h5.046v0.433c-1.604,0-2.307,0.685-2.307,1.946v2.739h4.829
		c0.865,0,1.244-0.487,1.244-1.442v-1.693c0-2.091-0.865-3.37-2.865-4.812l0.144-0.324l3.172,1.225V438.223z"/>
	<path fill="#FFFFFF" d="M57.696,413.79c3.389,0,6.758,1.874,6.758,5.767c0,3.729-3.369,5.586-6.758,5.586
		c-3.405,0-6.794-1.856-6.794-5.586C50.902,415.664,54.291,413.79,57.696,413.79z M57.696,423.936c3.154,0,6.308-1.46,6.308-4.379
		c0-3.063-3.153-4.523-6.308-4.523c-3.153,0-6.325,1.46-6.325,4.523C51.371,422.476,54.543,423.936,57.696,423.936z"/>
	<path fill="#FFFFFF" d="M64.166,405.954h-0.45c0-1.226-0.379-1.712-1.244-1.712h-9.658c-0.829,0-1.153,0.486-1.153,1.712h-0.451
		v-9.461l3.063-1.261l0.181,0.27c-1.1,0.901-2.793,1.622-2.793,4.415v1.767c0,0.937,0.324,1.424,1.153,1.424h4.343v-2.739
		c0-1.262-0.541-1.946-2.253-1.946v-0.433h5.046v0.433c-1.604,0-2.307,0.685-2.307,1.946v2.739h4.829
		c0.865,0,1.244-0.487,1.244-1.442v-1.693c0-2.091-0.865-3.37-2.865-4.812l0.144-0.324l3.172,1.225V405.954z"/>
	<path fill="#FFFFFF" d="M64.166,393.197h-0.469c0-1.261-0.342-1.712-1.315-1.712h-9.533c-0.828,0-1.188,0.451-1.188,1.712h-0.451
		v-5.586c0-4.397,3.244-6.235,6.47-6.235c3.262,0,6.487,1.838,6.487,6.235V393.197z M62.382,390.351
		c0.974,0,1.315-0.451,1.315-1.442v-1.297c0-3.334-2.991-5.01-6.019-5.01c-3.01,0-6.019,1.676-6.019,5.01v1.297
		c0,0.991,0.36,1.442,1.188,1.442H62.382z"/>
	<path fill="#FFFFFF" d="M51.209,379.414v-4.865h0.451c0,1.405,0.27,1.874,1.171,1.874h9.821c0.721,0,1.063-0.469,1.063-1.874h0.45
		v4.865h-0.45c0-1.405-0.343-1.874-1.063-1.874h-9.821c-0.901,0-1.171,0.469-1.171,1.874H51.209z"/>
	<path fill="#FFFFFF" d="M64.184,369.035h-0.45c0-1.117-0.09-2.036-0.991-2.036h-10.02c-0.757,0-1.045,0.36-1.045,1.514
		c0,2.325,1.388,3.262,2.667,4.055L54.2,372.82l-2.973-1.046v-10.686l3.1-1.063l0.126,0.307c-1.441,0.864-2.775,1.495-2.775,3.729
		c0,1.244,0.288,1.82,1.045,1.82h10.02c0.901,0,0.991-0.721,0.991-2.036h0.45V369.035z"/>
	<path fill="#FFFFFF" d="M51.209,358.406v-4.865h0.451c0,1.405,0.27,1.874,1.171,1.874h9.821c0.721,0,1.063-0.469,1.063-1.874h0.45
		v4.865h-0.45c0-1.405-0.343-1.874-1.063-1.874h-9.821c-0.901,0-1.171,0.469-1.171,1.874H51.209z"/>
	<path fill="#FFFFFF" d="M64.166,351.92h-0.45c0-1.279-0.343-1.712-1.244-1.712h-9.568c-0.901,0-1.243,0.433-1.243,1.712h-0.451
		v-2.433l10.849-8.218H52.65c-0.702,0-0.99,0.469-0.99,1.875h-0.451v-4.127h0.451c0,1.189,0.306,1.729,0.99,1.729h11.605v0.289
		l-11.497,8.632h9.713c0.901,0,1.244-0.396,1.244-1.875h0.45V351.92z"/>
	<path fill="#FFFFFF" d="M58.31,325.522h0.469c0,1.135,0.432,1.495,1.279,1.495h4.108v0.812l-0.938,0.307
		c0.505,0.774,1.226,1.802,1.226,3.514c0,3.424-2.343,5.677-6.758,5.677c-3.964,0-6.794-2.361-6.794-5.749
		c0-1.1,0.217-2,0.379-2.415l-0.36-1.459l3.226-1.244l0.126,0.289c-1.226,0.955-2.919,2.378-2.919,4.739
		c0,2.595,2.631,4.613,6.253,4.613c4.325,0,6.397-2.198,6.397-4.451c0-1.946-1.441-3.514-2.541-3.514h-1.405
		c-0.848,0-1.279,0.378-1.279,2H58.31V325.522z"/>
	<path fill="#FFFFFF" d="M64.166,318.102h-0.45c0-1.334-0.36-1.712-1.244-1.712H52.65c-0.721,0-0.99,0.414-0.99,1.712h-0.451v-3.244
		l11.299-4.234l-11.299-4.217v-3.352h0.451c0,1.441,0.288,1.729,0.99,1.729h9.821c0.793,0,1.244-0.378,1.244-1.729h0.45v4.559h-0.45
		c0-1.315-0.451-1.712-1.244-1.712H51.822v0.198l12.47,4.667v0.289l-12.218,4.613v0.216h10.397c0.884,0,1.244-0.396,1.244-1.729
		h0.45V318.102z"/>
	<path fill="#FFFFFF" d="M57.696,289.975c3.389,0,6.758,1.874,6.758,5.767c0,3.729-3.369,5.586-6.758,5.586
		c-3.405,0-6.794-1.856-6.794-5.586C50.902,291.849,54.291,289.975,57.696,289.975z M57.696,300.12c3.154,0,6.308-1.46,6.308-4.379
		c0-3.063-3.153-4.523-6.308-4.523c-3.153,0-6.325,1.46-6.325,4.523C51.371,298.66,54.543,300.12,57.696,300.12z"/>
	<path fill="#FFFFFF" d="M64.184,284.246h-0.45c0-1.117-0.09-2.036-0.991-2.036h-10.02c-0.757,0-1.045,0.36-1.045,1.514
		c0,2.325,1.388,3.262,2.667,4.055l-0.145,0.253l-2.973-1.046V276.3l3.1-1.063l0.126,0.307c-1.441,0.864-2.775,1.495-2.775,3.73
		c0,1.243,0.288,1.819,1.045,1.819h10.02c0.901,0,0.991-0.721,0.991-2.036h0.45V284.246z"/>
	<path fill="#FFFFFF" d="M51.209,273.617v-4.865h0.451c0,1.405,0.27,1.874,1.171,1.874h9.821c0.721,0,1.063-0.469,1.063-1.874h0.45
		v4.865h-0.45c0-1.405-0.343-1.874-1.063-1.874h-9.821c-0.901,0-1.171,0.469-1.171,1.874H51.209z"/>
	<path fill="#FFFFFF" d="M57.696,255.454c3.389,0,6.758,1.874,6.758,5.767c0,3.73-3.369,5.586-6.758,5.586
		c-3.405,0-6.794-1.855-6.794-5.586C50.902,257.328,54.291,255.454,57.696,255.454z M57.696,265.6c3.154,0,6.308-1.46,6.308-4.379
		c0-3.063-3.153-4.523-6.308-4.523c-3.153,0-6.325,1.46-6.325,4.523C51.371,264.14,54.543,265.6,57.696,265.6z"/>
	<path fill="#FFFFFF" d="M64.166,253.618h-0.45c0-1.279-0.343-1.712-1.244-1.712h-9.568c-0.901,0-1.243,0.433-1.243,1.712h-0.451
		v-2.433l10.849-8.218H52.65c-0.702,0-0.99,0.469-0.99,1.874h-0.451v-4.126h0.451c0,1.188,0.306,1.729,0.99,1.729h11.605v0.288
		l-11.497,8.632h9.713c0.901,0,1.244-0.396,1.244-1.874h0.45V253.618z"/>
	<path fill="#FFFFFF" d="M58.31,221.221h0.469c0,1.136,0.432,1.496,1.279,1.496h4.108v0.811l-0.938,0.307
		c0.505,0.774,1.226,1.802,1.226,3.514c0,3.424-2.343,5.677-6.758,5.677c-3.964,0-6.794-2.36-6.794-5.749
		c0-1.099,0.217-2,0.379-2.414l-0.36-1.46l3.226-1.243l0.126,0.288c-1.226,0.955-2.919,2.379-2.919,4.739
		c0,2.595,2.631,4.613,6.253,4.613c4.325,0,6.397-2.198,6.397-4.451c0-1.946-1.441-3.514-2.541-3.514h-1.405
		c-0.848,0-1.279,0.378-1.279,2H58.31V221.221z"/>
	<path fill="#FFFFFF" d="M64.166,219.854h-0.45c0-1.352-0.415-1.712-1.28-1.712h-9.694c-0.793,0-1.081,0.36-1.081,1.712h-0.451
		v-5.856c0-2.794,1.352-4.235,3.189-4.235c1.694,0,3.172,1.1,3.298,3.515l5.19-2.938c0.667-0.379,0.829-0.883,0.829-1.838h0.45
		v2.433l-6.451,3.567v2.505h4.721c0.865,0,1.28-0.468,1.28-1.729h0.45V219.854z M57.264,217.006v-3.333
		c0-2.001-1.423-2.668-2.865-2.668c-1.712,0-2.738,1.136-2.738,3.082v1.604c0,0.848,0.288,1.315,1.081,1.315H57.264z"/>
	<path fill="#FFFFFF" d="M50.885,200.448l11.516-4.451c0.991-0.324,1.315-0.847,1.315-1.802h0.45v4.577h-0.45
		c0-1.189-0.145-1.73-0.703-1.73c-0.145,0-0.324,0.036-0.541,0.108l-3.027,1.171v5.425l2.613,0.973
		c0.343,0.108,0.612,0.181,0.829,0.181c0.648,0,0.829-0.522,0.829-1.712h0.45v3.928h-0.45c0-0.99-0.234-1.352-1.874-1.91
		l-10.543-3.766L50.885,200.448z M52.11,201.097l6.812,2.469v-5.046L52.11,201.097z"/>
	<path fill="#FFFFFF" d="M64.166,192.846h-0.45c0-1.334-0.451-1.712-1.334-1.712h-9.587c-0.865,0-1.135,0.378-1.135,1.712h-0.451
		v-6.704c0-2,1.172-3.658,3.244-3.658c2.343,0,3.604,1.641,3.604,3.803v3.712h4.325c0.883,0,1.334-0.396,1.334-1.874h0.45V192.846z
		 M57.606,189.998v-3.405c0-1.91-1.694-2.865-3.153-2.865c-1.441,0-2.793,0.973-2.793,2.847v2.145c0,0.883,0.27,1.279,1.135,1.279
		H57.606z"/>
	<path fill="#FFFFFF" d="M64.166,180.757h-0.45c0-1.352-0.343-1.712-1.172-1.712h-9.857c-0.702,0-1.026,0.306-1.026,1.712h-0.451
		v-4.577h0.451c0,1.315,0.324,1.729,1.026,1.729h4.56v-7.046h-4.56c-0.702,0-1.026,0.486-1.026,1.729h-0.451v-4.577h0.451
		c0,1.298,0.324,1.73,1.026,1.73h9.857c0.829,0,1.172-0.433,1.172-1.73h0.45v4.577h-0.45c0-1.243-0.343-1.729-1.172-1.729h-4.848
		v7.046h4.848c0.829,0,1.172-0.396,1.172-1.729h0.45V180.757z"/>
	<path fill="#FFFFFF" d="M51.209,166.325v-4.866h0.451c0,1.406,0.27,1.874,1.171,1.874h9.821c0.721,0,1.063-0.468,1.063-1.874h0.45
		v4.866h-0.45c0-1.406-0.343-1.874-1.063-1.874h-9.821c-0.901,0-1.171,0.468-1.171,1.874H51.209z"/>
	<path fill="#FFFFFF" d="M60.67,148.72c2.036,0.829,3.784,2.307,3.784,5.082c0,3.136-2.433,5.694-6.848,5.694
		c-3.64,0-6.704-2.072-6.704-5.389c0-1.189,0.217-1.693,0.487-2.541l-0.415-1.279l3.298-1.243l0.145,0.288
		c-1.189,0.812-3.063,2.361-3.063,4.739c0,2.541,2.685,4.199,6.253,4.199c3.424,0,5.947-2,5.947-4.884
		c0-1.838-0.884-3.226-3.028-4.343L60.67,148.72z"/>
	<path fill="#FFFFFF" d="M60.851,146.271c1.459-0.955,3.153-2.451,3.153-4.992c0-1.82-0.739-3.208-2.829-3.208
		c-1.767,0-2.343,1.082-3.154,3.875c-0.594,2-1.495,4.163-3.838,4.163c-1.514,0-3.28-0.956-3.28-3.856
		c0-1.298,0.487-2.073,0.487-2.541c0-0.091,0-0.162-0.036-0.217l-0.324-0.883l3.243-1.171l0.181,0.27
		c-1.784,1.063-3.1,2.523-3.1,4.613c0,1.46,0.667,2.812,2.522,2.812c1.91,0,2.631-1.766,3.154-3.676
		c0.666-2.434,1.495-4.415,3.802-4.415c2.541,0,3.622,1.874,3.622,4.181c0,1.279-0.576,2.414-0.576,2.829
		c0,0.396,0.252,0.919,0.54,1.315l-3.424,1.262L60.851,146.271z"/>
	<path fill="#FFFFFF" d="M64.166,129.083h-0.45c0-1.334-0.451-1.712-1.334-1.712h-9.587c-0.865,0-1.135,0.378-1.135,1.712h-0.451
		v-6.704c0-2,1.172-3.658,3.244-3.658c2.343,0,3.604,1.641,3.604,3.803v3.712h4.325c0.883,0,1.334-0.396,1.334-1.874h0.45V129.083z
		 M57.606,126.235v-3.405c0-1.91-1.694-2.865-3.153-2.865c-1.441,0-2.793,0.973-2.793,2.847v2.145c0,0.883,0.27,1.279,1.135,1.279
		H57.606z"/>
	<path fill="#FFFFFF" d="M64.166,117.084h-0.45c0-1.352-0.415-1.712-1.28-1.712h-9.694c-0.793,0-1.081,0.36-1.081,1.712h-0.451
		v-5.856c0-2.794,1.352-4.235,3.189-4.235c1.694,0,3.172,1.1,3.298,3.515l5.19-2.938c0.667-0.379,0.829-0.883,0.829-1.838h0.45
		v2.433l-6.451,3.567v2.505h4.721c0.865,0,1.28-0.468,1.28-1.729h0.45V117.084z M57.264,114.236v-3.333
		c0-2.001-1.423-2.668-2.865-2.668c-1.712,0-2.738,1.136-2.738,3.082v1.604c0,0.848,0.288,1.315,1.081,1.315H57.264z"/>
	<path fill="#FFFFFF" d="M57.696,92.65c3.389,0,6.758,1.874,6.758,5.767c0,3.73-3.369,5.586-6.758,5.586
		c-3.405,0-6.794-1.855-6.794-5.586C50.902,94.524,54.291,92.65,57.696,92.65z M57.696,102.796c3.154,0,6.308-1.46,6.308-4.379
		c0-3.063-3.153-4.523-6.308-4.523c-3.153,0-6.325,1.46-6.325,4.523C51.371,101.336,54.543,102.796,57.696,102.796z"/>
	<path fill="#FFFFFF" d="M64.166,90.814h-0.469c0-1.262-0.342-1.712-1.315-1.712h-9.533c-0.828,0-1.188,0.45-1.188,1.712h-0.451
		v-5.586c0-4.397,3.244-6.235,6.47-6.235c3.262,0,6.487,1.838,6.487,6.235V90.814z M62.382,87.967c0.974,0,1.315-0.45,1.315-1.441
		v-1.297c0-3.334-2.991-5.01-6.019-5.01c-3.01,0-6.019,1.676-6.019,5.01v1.297c0,0.991,0.36,1.441,1.188,1.441H62.382z"/>
	<path fill="#FFFFFF" d="M51.209,77.301v-4.577h0.451c0,1.28,0.324,1.73,1.081,1.73h7.406c2.198,0,3.712-1.658,3.712-4.001
		c0-1.712-0.793-3.802-3.784-3.802h-7.334c-0.757,0-1.081,0.378-1.081,1.729h-0.451v-3.965h0.451c0,1.352,0.324,1.73,1.081,1.73
		h7.442c2.901,0,4.271,1.964,4.271,4.865c0,2.397-1.352,4.577-4.505,4.577h-7.208c-0.757,0-1.081,0.325-1.081,1.712H51.209z"/>
	<path fill="#FFFFFF" d="M60.67,51.931c2.036,0.829,3.784,2.307,3.784,5.082c0,3.136-2.433,5.694-6.848,5.694
		c-3.64,0-6.704-2.072-6.704-5.388c0-1.189,0.217-1.694,0.487-2.541l-0.415-1.279l3.298-1.243l0.145,0.288
		c-1.189,0.811-3.063,2.36-3.063,4.739c0,2.541,2.685,4.199,6.253,4.199c3.424,0,5.947-2.001,5.947-4.884
		c0-1.838-0.884-3.226-3.028-4.343L60.67,51.931z"/>
	<path fill="#FFFFFF" d="M64.184,46.401h-0.45c0-1.117-0.09-2.037-0.991-2.037h-10.02c-0.757,0-1.045,0.36-1.045,1.514
		c0,2.325,1.388,3.262,2.667,4.055L54.2,50.186l-2.973-1.046V38.454l3.1-1.063l0.126,0.307c-1.441,0.864-2.775,1.495-2.775,3.73
		c0,1.243,0.288,1.819,1.045,1.819h10.02c0.901,0,0.991-0.721,0.991-2.036h0.45V46.401z"/>
	<path fill="#FFFFFF" d="M51.209,35.771v-4.865h0.451c0,1.405,0.27,1.874,1.171,1.874h9.821c0.721,0,1.063-0.469,1.063-1.874h0.45
		v4.865h-0.45c0-1.405-0.343-1.874-1.063-1.874h-9.821c-0.901,0-1.171,0.469-1.171,1.874H51.209z"/>
	<path fill="#FFFFFF" d="M57.696,17.608c3.389,0,6.758,1.874,6.758,5.767c0,3.73-3.369,5.586-6.758,5.586
		c-3.405,0-6.794-1.855-6.794-5.586C50.902,19.482,54.291,17.608,57.696,17.608z M57.696,27.754c3.154,0,6.308-1.46,6.308-4.379
		c0-3.063-3.153-4.523-6.308-4.523c-3.153,0-6.325,1.46-6.325,4.523C51.371,26.294,54.543,27.754,57.696,27.754z"/>
	<path fill="#FFFFFF" d="M64.166,15.772h-0.45c0-1.279-0.343-1.712-1.244-1.712h-9.568c-0.901,0-1.243,0.433-1.243,1.712h-0.451
		V13.34l10.849-8.218H52.65c-0.702,0-0.99,0.469-0.99,1.874h-0.451V2.87h0.451c0,1.188,0.306,1.729,0.99,1.729h11.605v0.288
		L52.759,13.52h9.713c0.901,0,1.244-0.396,1.244-1.874h0.45V15.772z"/>
</g>
</svg>
