<?xml version="1.0" encoding="utf-8"?>
<!-- Generator: Adobe Illustrator 16.0.0, SVG Export Plug-In . SVG Version: 6.00 Build 0)  -->
<!DOCTYPE svg PUBLIC "-//W3C//DTD SVG 1.1//EN" "http://www.w3.org/Graphics/SVG/1.1/DTD/svg11.dtd">
<svg version="1.1" id="Layer_1" xmlns="http://www.w3.org/2000/svg" xmlns:xlink="http://www.w3.org/1999/xlink" x="0px" y="0px"
	 width="68px" height="564px" viewBox="0 0 68 564" enable-background="new 0 0 68 564" xml:space="preserve">
<path fill="none" stroke="#FFFFFF" stroke-width="2" d="M38,414v150"/>
<g>
	<path fill="#625573" d="M6.479,366.366c1.473-1.68,3.45-2.753,5.932-3.218c0.362-0.052,0.698,0.026,1.008,0.232
		c0.259,0.182,0.427,0.439,0.504,0.775c0.078,0.311,0.026,0.595-0.154,0.853c-0.207,0.311-0.543,0.505-1.009,0.582
		c-2.248,0.439-3.94,1.474-5.078,3.102c-1.034,1.474-1.551,3.334-1.551,5.583c0,2.946,1.072,5.338,3.218,7.173
		c2.301,1.913,5.479,2.868,9.537,2.868c4.162,0,7.366-0.955,9.615-2.868c2.094-1.784,3.141-4.174,3.141-7.173
		c0-2.274-0.53-4.122-1.59-5.544c-1.215-1.603-3.141-2.688-5.777-3.257c-0.413-0.078-0.71-0.271-0.892-0.582
		c-0.154-0.284-0.193-0.594-0.116-0.93c0.078-0.362,0.259-0.634,0.543-0.814c0.311-0.207,0.698-0.258,1.163-0.155
		c2.585,0.62,4.627,1.758,6.126,3.412c1.81,1.964,2.714,4.588,2.714,7.87c0,3.722-1.331,6.707-3.993,8.956
		c-2.688,2.326-6.333,3.489-10.934,3.489c-4.497,0-8.115-1.163-10.855-3.489c-2.714-2.274-4.071-5.26-4.071-8.956
		C3.959,370.967,4.8,368.331,6.479,366.366z"/>
	<path fill="#625573" d="M8.534,335.544c2.714-2.067,6.164-3.102,10.352-3.102s7.625,1.034,10.313,3.102
		c3.076,2.326,4.614,5.609,4.614,9.848c0,4.265-1.538,7.561-4.614,9.887c-2.688,2.016-6.125,3.023-10.313,3.023
		s-7.638-1.008-10.352-3.023c-3.05-2.326-4.575-5.622-4.575-9.887C3.959,341.153,5.484,337.87,8.534,335.544z M9.93,353.456
		c2.249,1.628,5.234,2.442,8.956,2.442c3.696,0,6.682-0.814,8.956-2.442c2.559-1.835,3.838-4.523,3.838-8.064
		c0-3.515-1.279-6.203-3.838-8.064c-2.3-1.653-5.285-2.481-8.956-2.481c-3.695,0-6.681,0.828-8.956,2.481
		c-2.559,1.861-3.838,4.55-3.838,8.064C6.092,348.933,7.371,351.621,9.93,353.456z"/>
	<path fill="#625573" d="M4.502,325.891c-0.31-0.311-0.49-0.711-0.543-1.202c-0.025-0.491,0.078-0.931,0.311-1.318
		c0.259-0.413,0.607-0.698,1.047-0.853l2.481-0.854l22.447-7.676L7.72,306.233l-2.287-0.775c-0.491-0.154-0.879-0.438-1.163-0.853
		c-0.232-0.413-0.323-0.853-0.271-1.318c0.026-0.465,0.194-0.853,0.504-1.163c0.336-0.361,0.789-0.543,1.357-0.543h26.712
		c0.388,0,0.698,0.13,0.931,0.388c0.207,0.233,0.311,0.518,0.311,0.854s-0.104,0.62-0.311,0.853
		c-0.232,0.232-0.543,0.349-0.931,0.349H7.952l24.426,8.259c0.956,0.413,1.435,0.995,1.435,1.744c0,0.724-0.479,1.293-1.435,1.706
		L7.952,323.99h24.619c0.388,0,0.698,0.13,0.931,0.388c0.207,0.233,0.311,0.504,0.311,0.814c0,0.336-0.104,0.62-0.311,0.853
		c-0.232,0.233-0.543,0.35-0.931,0.35H5.859C5.291,326.395,4.838,326.227,4.502,325.891z"/>
	<path fill="#625573" d="M7.1,276.769c1.499-1.344,3.348-2.016,5.544-2.016c2.146,0,3.968,0.672,5.467,2.016
		c1.681,1.474,2.521,3.464,2.521,5.971v8.994h11.94c0.388,0,0.698,0.13,0.931,0.388c0.207,0.233,0.311,0.504,0.311,0.814
		c0,0.336-0.104,0.62-0.311,0.853c-0.232,0.233-0.543,0.35-0.931,0.35H8.379c-1.033,0-1.899-0.297-2.598-0.892
		c-0.775-0.672-1.163-1.603-1.163-2.792v-7.715C4.618,280.232,5.446,278.242,7.1,276.769z M16.676,278.668
		c-1.111-0.981-2.442-1.473-3.993-1.473c-1.603,0-2.959,0.491-4.071,1.473c-1.214,1.086-1.822,2.547-1.822,4.381v6.979
		c0,0.569,0.182,1.009,0.543,1.318c0.311,0.259,0.712,0.388,1.202,0.388h9.964v-8.685C18.498,281.215,17.892,279.754,16.676,278.668
		z"/>
	<path fill="#625573" d="M4.27,268.511c-0.207-0.233-0.311-0.517-0.311-0.854c0-0.31,0.104-0.581,0.311-0.813
		c0.232-0.259,0.556-0.388,0.969-0.388h24.038c0.465,0,0.853-0.13,1.163-0.388c0.362-0.311,0.543-0.75,0.543-1.318v-11.941
		c0-0.388,0.104-0.698,0.31-0.931c0.207-0.206,0.466-0.311,0.775-0.311c0.285,0,0.53,0.104,0.737,0.311
		c0.232,0.232,0.349,0.543,0.349,0.931v12.367c0,1.189-0.388,2.12-1.163,2.792c-0.698,0.595-1.551,0.892-2.559,0.892H5.238
		C4.825,268.859,4.502,268.743,4.27,268.511z"/>
	<path fill="#625573" d="M4.929,228.577c0.207-0.206,0.465-0.311,0.775-0.311c0.284,0,0.53,0.104,0.736,0.311
		c0.232,0.232,0.349,0.53,0.349,0.892v13.725c0,0.569,0.182,1.008,0.543,1.318c0.311,0.259,0.712,0.388,1.202,0.388h8.762v-14.073
		c0-0.388,0.104-0.698,0.311-0.931c0.207-0.207,0.465-0.311,0.775-0.311c0.285,0,0.53,0.104,0.736,0.311
		c0.233,0.232,0.35,0.543,0.35,0.931v14.073h9.809c0.465,0,0.853-0.129,1.163-0.388c0.362-0.311,0.543-0.749,0.543-1.318v-14.229
		c0-0.388,0.104-0.698,0.31-0.931c0.207-0.206,0.466-0.31,0.775-0.31c0.285,0,0.53,0.104,0.737,0.31
		c0.232,0.232,0.349,0.543,0.349,0.931v14.655c0,1.189-0.388,2.119-1.163,2.791c-0.698,0.596-1.551,0.892-2.559,0.892H8.379
		c-1.033,0-1.899-0.296-2.598-0.892c-0.775-0.672-1.163-1.602-1.163-2.791v-14.151C4.618,229.107,4.722,228.81,4.929,228.577z"/>
	<path fill="#625573" d="M4.929,205.044c0.207-0.233,0.465-0.35,0.775-0.35c0.284,0,0.53,0.116,0.736,0.35
		c0.232,0.232,0.349,0.542,0.349,0.93v7.871H32.61c0.362,0,0.659,0.129,0.892,0.388c0.207,0.232,0.311,0.504,0.311,0.813
		c0,0.337-0.104,0.621-0.311,0.854c-0.232,0.232-0.529,0.349-0.892,0.349H6.789v8.22c0,0.62-0.361,0.931-1.085,0.931
		s-1.086-0.311-1.086-0.931v-18.494C4.618,205.586,4.722,205.276,4.929,205.044z"/>
	<path fill="#625573" d="M4.27,198.569c-0.207-0.232-0.311-0.517-0.311-0.854c0-0.31,0.104-0.581,0.311-0.813
		c0.232-0.259,0.556-0.388,0.969-0.388h27.333c0.388,0,0.698,0.129,0.931,0.388c0.207,0.232,0.311,0.504,0.311,0.813
		c0,0.337-0.104,0.621-0.311,0.854c-0.232,0.232-0.543,0.349-0.931,0.349H5.238C4.825,198.918,4.502,198.802,4.27,198.569z"/>
	<path fill="#625573" d="M8.534,167.281c2.714-2.067,6.164-3.102,10.352-3.102s7.625,1.034,10.313,3.102
		c3.076,2.326,4.614,5.609,4.614,9.848c0,4.265-1.538,7.561-4.614,9.887c-2.688,2.016-6.125,3.024-10.313,3.024
		s-7.638-1.009-10.352-3.024c-3.05-2.326-4.575-5.622-4.575-9.887C3.959,172.891,5.484,169.607,8.534,167.281z M9.93,185.193
		c2.249,1.628,5.234,2.442,8.956,2.442c3.696,0,6.682-0.814,8.956-2.442c2.559-1.835,3.838-4.522,3.838-8.064
		c0-3.515-1.279-6.203-3.838-8.064c-2.3-1.653-5.285-2.48-8.956-2.48c-3.695,0-6.681,0.827-8.956,2.48
		c-2.559,1.861-3.838,4.55-3.838,8.064C6.092,180.671,7.371,183.358,9.93,185.193z"/>
	<path fill="#625573" d="M3.959,156.969c-0.103-0.775,0.169-1.37,0.814-1.783l1.938-1.318l22.642-13.608H5.006
		c-0.335,0-0.606-0.116-0.813-0.349c-0.155-0.233-0.233-0.517-0.233-0.854c0-0.335,0.091-0.62,0.271-0.853
		c0.182-0.258,0.44-0.388,0.775-0.388h27.14c0.879,0,1.408,0.349,1.589,1.047c0.207,0.697,0.039,1.201-0.504,1.512l-3.179,2.171
		L8.379,155.689h24.076c0.44,0,0.788,0.13,1.047,0.388c0.232,0.232,0.35,0.518,0.35,0.853c-0.026,0.337-0.155,0.62-0.388,0.854
		c-0.259,0.232-0.595,0.349-1.009,0.349H5.51C4.605,158.132,4.089,157.744,3.959,156.969z"/>
</g>
<g>
	<path fill="#FFFFFF" d="M48.999,417.759h-0.347c0-0.933-0.253-1.266-0.972-1.266h-7.047c-0.613,0-0.88,0.333-0.88,1.266h-0.333
		v-4.129c0-3.251,2.398-4.609,4.782-4.609c2.411,0,4.796,1.358,4.796,4.609V417.759z M47.681,415.654
		c0.719,0,0.972-0.333,0.972-1.065v-0.959c0-2.465-2.211-3.703-4.449-3.703c-2.225,0-4.449,1.238-4.449,3.703v0.959
		c0,0.732,0.267,1.065,0.88,1.065H47.681z"/>
	<path fill="#FFFFFF" d="M39.421,407.567v-3.597h0.333c0,1.039,0.2,1.385,0.866,1.385h7.26c0.533,0,0.786-0.346,0.786-1.385h0.333
		v3.597h-0.333c0-1.039-0.253-1.386-0.786-1.386h-7.26c-0.666,0-0.866,0.347-0.866,1.386H39.421z"/>
	<path fill="#FFFFFF" d="M44.67,393.793h0.346c0,0.839,0.32,1.105,0.946,1.105h3.037v0.6l-0.692,0.226
		c0.373,0.573,0.905,1.332,0.905,2.598c0,2.531-1.731,4.196-4.995,4.196c-2.931,0-5.021-1.745-5.021-4.249
		c0-0.813,0.159-1.479,0.279-1.785l-0.267-1.079l2.385-0.919l0.093,0.213c-0.905,0.706-2.157,1.759-2.157,3.504
		c0,1.918,1.944,3.41,4.622,3.41c3.197,0,4.729-1.626,4.729-3.291c0-1.438-1.065-2.598-1.878-2.598h-1.039
		c-0.626,0-0.946,0.28-0.946,1.479H44.67V393.793z"/>
	<path fill="#FFFFFF" d="M39.421,392.578v-3.597h0.333c0,1.039,0.2,1.385,0.866,1.385h7.26c0.533,0,0.786-0.346,0.786-1.385h0.333
		v3.597h-0.333c0-1.039-0.253-1.386-0.786-1.386h-7.26c-0.666,0-0.866,0.347-0.866,1.386H39.421z"/>
	<path fill="#FFFFFF" d="M49.013,384.904H48.68c0-0.826-0.067-1.505-0.733-1.505H40.54c-0.56,0-0.772,0.266-0.772,1.118
		c0,1.719,1.025,2.411,1.972,2.997l-0.106,0.187l-2.198-0.772v-7.899l2.291-0.785l0.094,0.227c-1.066,0.639-2.052,1.105-2.052,2.757
		c0,0.919,0.213,1.346,0.772,1.346h7.406c0.666,0,0.733-0.533,0.733-1.506h0.333V384.904z"/>
	<path fill="#FFFFFF" d="M39.182,372.328l8.512-3.29c0.732-0.24,0.973-0.626,0.973-1.332h0.333v3.383h-0.333
		c0-0.879-0.106-1.278-0.52-1.278c-0.106,0-0.24,0.026-0.399,0.08l-2.238,0.865v4.01l1.932,0.72c0.253,0.08,0.453,0.133,0.613,0.133
		c0.479,0,0.612-0.386,0.612-1.266h0.333v2.904h-0.333c0-0.732-0.173-0.999-1.386-1.412l-7.792-2.784L39.182,372.328z
		 M40.087,372.808l5.036,1.825v-3.73L40.087,372.808z"/>
	<path fill="#FFFFFF" d="M48.999,366.704h-0.333c0-1.012-0.307-1.266-0.853-1.266H40.58c-0.626,0-0.826,0.254-0.826,1.266h-0.333
		v-3.49h0.333c0,1.146,0.2,1.386,0.826,1.386h7.233c0.546,0,0.853-0.239,0.853-0.985v-1.372c0-1.279-0.813-2.398-2.118-3.131
		l0.134-0.253l2.317,0.973V366.704z"/>
	<path fill="#FFFFFF" d="M39.421,347.24v-2.917h0.333c0,0.906,0.146,1.093,0.933,1.372l8.525,3.104v0.227l-8.725,3.144
		c-0.427,0.146-0.733,0.36-0.733,1.332h-0.333v-3.383h0.333c0,0.919,0.054,1.266,0.36,1.266c0.066,0,0.159-0.014,0.267-0.054
		l7.366-2.664l-7.087-2.558c-0.173-0.066-0.333-0.106-0.453-0.106c-0.333,0-0.453,0.306-0.453,1.238H39.421z"/>
	<path fill="#FFFFFF" d="M39.421,343.203v-3.597h0.333c0,1.039,0.2,1.385,0.866,1.385h7.26c0.533,0,0.786-0.346,0.786-1.385h0.333
		v3.597h-0.333c0-1.039-0.253-1.386-0.786-1.386h-7.26c-0.666,0-0.866,0.347-0.866,1.386H39.421z"/>
	<path fill="#FFFFFF" d="M48.999,338.406h-0.347c0-0.933-0.253-1.266-0.972-1.266h-7.047c-0.613,0-0.88,0.333-0.88,1.266h-0.333
		v-4.129c0-3.251,2.398-4.609,4.782-4.609c2.411,0,4.796,1.358,4.796,4.609V338.406z M47.681,336.302
		c0.719,0,0.972-0.333,0.972-1.065v-0.959c0-2.465-2.211-3.703-4.449-3.703c-2.225,0-4.449,1.238-4.449,3.703v0.959
		c0,0.732,0.267,1.065,0.88,1.065H47.681z"/>
	<path fill="#FFFFFF" d="M48.999,328.413h-0.333c0-0.905-0.279-1.266-0.919-1.266h-7.141c-0.612,0-0.853,0.36-0.853,1.266h-0.333
		v-6.993l2.265-0.933l0.134,0.2c-0.813,0.666-2.065,1.198-2.065,3.264v1.305c0,0.693,0.24,1.053,0.853,1.053h3.211v-2.024
		c0-0.933-0.399-1.438-1.665-1.438v-0.32h3.729v0.32c-1.186,0-1.705,0.506-1.705,1.438v2.024h3.57c0.64,0,0.919-0.359,0.919-1.065
		v-1.252c0-1.546-0.64-2.491-2.118-3.557l0.106-0.24l2.345,0.906V328.413z"/>
	<path fill="#FFFFFF" d="M44.217,310.349c2.504,0,4.995,1.386,4.995,4.263c0,2.758-2.491,4.13-4.995,4.13
		c-2.518,0-5.021-1.372-5.021-4.13C39.195,311.734,41.699,310.349,44.217,310.349z M44.217,317.849c2.331,0,4.662-1.079,4.662-3.237
		c0-2.265-2.331-3.344-4.662-3.344s-4.676,1.079-4.676,3.344C39.541,316.77,41.886,317.849,44.217,317.849z"/>
	<path fill="#FFFFFF" d="M48.999,304.552h-0.333c0-0.905-0.279-1.266-0.919-1.266h-7.141c-0.612,0-0.853,0.36-0.853,1.266h-0.333
		v-6.993l2.265-0.933l0.134,0.2c-0.813,0.666-2.065,1.198-2.065,3.264v1.305c0,0.693,0.24,1.053,0.853,1.053h3.211v-2.024
		c0-0.933-0.399-1.438-1.665-1.438v-0.32h3.729v0.32c-1.186,0-1.705,0.506-1.705,1.438v2.024h3.57c0.64,0,0.919-0.359,0.919-1.065
		v-1.252c0-1.546-0.64-2.491-2.118-3.557l0.106-0.24l2.345,0.906V304.552z"/>
	<path fill="#FFFFFF" d="M48.999,295.119h-0.347c0-0.933-0.253-1.266-0.972-1.266h-7.047c-0.613,0-0.88,0.333-0.88,1.266h-0.333
		v-4.129c0-3.251,2.398-4.609,4.782-4.609c2.411,0,4.796,1.358,4.796,4.609V295.119z M47.681,293.015
		c0.719,0,0.972-0.333,0.972-1.065v-0.959c0-2.465-2.211-3.703-4.449-3.703c-2.225,0-4.449,1.238-4.449,3.703v0.959
		c0,0.732,0.267,1.065,0.88,1.065H47.681z"/>
	<path fill="#FFFFFF" d="M39.421,284.927v-3.597h0.333c0,1.039,0.2,1.385,0.866,1.385h7.26c0.533,0,0.786-0.346,0.786-1.385h0.333
		v3.597h-0.333c0-1.039-0.253-1.386-0.786-1.386h-7.26c-0.666,0-0.866,0.347-0.866,1.386H39.421z"/>
	<path fill="#FFFFFF" d="M49.013,277.253H48.68c0-0.826-0.067-1.505-0.733-1.505H40.54c-0.56,0-0.772,0.267-0.772,1.119
		c0,1.718,1.025,2.411,1.972,2.997l-0.106,0.187l-2.198-0.772v-7.899l2.291-0.786l0.094,0.227c-1.066,0.639-2.052,1.105-2.052,2.757
		c0,0.919,0.213,1.346,0.772,1.346h7.406c0.666,0,0.733-0.533,0.733-1.505h0.333V277.253z"/>
	<path fill="#FFFFFF" d="M39.421,269.392v-3.597h0.333c0,1.039,0.2,1.386,0.866,1.386h7.26c0.533,0,0.786-0.347,0.786-1.386h0.333
		v3.597h-0.333c0-1.039-0.253-1.385-0.786-1.385h-7.26c-0.666,0-0.866,0.346-0.866,1.385H39.421z"/>
	<path fill="#FFFFFF" d="M48.999,264.596h-0.333c0-0.946-0.253-1.266-0.919-1.266h-7.073c-0.666,0-0.92,0.32-0.92,1.266h-0.333
		v-1.798l8.02-6.075h-6.953c-0.52,0-0.733,0.347-0.733,1.386h-0.333v-3.051h0.333c0,0.879,0.227,1.279,0.733,1.279h8.578v0.213
		l-8.499,6.38h7.181c0.666,0,0.919-0.293,0.919-1.385h0.333V264.596z"/>
	<path fill="#FFFFFF" d="M44.67,245.079h0.346c0,0.839,0.32,1.105,0.946,1.105h3.037v0.6l-0.692,0.227
		c0.373,0.573,0.905,1.332,0.905,2.598c0,2.531-1.731,4.196-4.995,4.196c-2.931,0-5.021-1.745-5.021-4.249
		c0-0.813,0.159-1.479,0.279-1.785l-0.267-1.079l2.385-0.919l0.093,0.213c-0.905,0.706-2.157,1.758-2.157,3.503
		c0,1.918,1.944,3.41,4.622,3.41c3.197,0,4.729-1.625,4.729-3.29c0-1.439-1.065-2.598-1.878-2.598h-1.039
		c-0.626,0-0.946,0.28-0.946,1.479H44.67V245.079z"/>
	<path fill="#FFFFFF" d="M48.999,239.588h-0.333c0-0.986-0.267-1.266-0.919-1.266h-7.26c-0.533,0-0.733,0.306-0.733,1.266h-0.333
		v-2.398l8.353-3.13l-8.353-3.117v-2.478h0.333c0,1.065,0.214,1.279,0.733,1.279h7.26c0.586,0,0.919-0.28,0.919-1.279h0.333v3.37
		h-0.333c0-0.972-0.333-1.266-0.919-1.266h-7.873v0.146l9.218,3.45v0.213l-9.031,3.41v0.16h7.687c0.652,0,0.919-0.293,0.919-1.279
		h0.333V239.588z"/>
	<path fill="#FFFFFF" d="M44.217,218.792c2.504,0,4.995,1.386,4.995,4.263c0,2.758-2.491,4.13-4.995,4.13
		c-2.518,0-5.021-1.372-5.021-4.13C39.195,220.178,41.699,218.792,44.217,218.792z M44.217,226.292c2.331,0,4.662-1.079,4.662-3.237
		c0-2.264-2.331-3.343-4.662-3.343s-4.676,1.079-4.676,3.343C39.541,225.213,41.886,226.292,44.217,226.292z"/>
	<path fill="#FFFFFF" d="M49.013,214.555H48.68c0-0.826-0.067-1.505-0.733-1.505H40.54c-0.56,0-0.772,0.267-0.772,1.119
		c0,1.718,1.025,2.411,1.972,2.997l-0.106,0.187l-2.198-0.772v-7.899l2.291-0.786l0.094,0.227c-1.066,0.639-2.052,1.105-2.052,2.757
		c0,0.919,0.213,1.346,0.772,1.346h7.406c0.666,0,0.733-0.533,0.733-1.505h0.333V214.555z"/>
	<path fill="#FFFFFF" d="M39.421,206.693v-3.597h0.333c0,1.039,0.2,1.386,0.866,1.386h7.26c0.533,0,0.786-0.347,0.786-1.386h0.333
		v3.597h-0.333c0-1.039-0.253-1.385-0.786-1.385h-7.26c-0.666,0-0.866,0.346-0.866,1.385H39.421z"/>
	<path fill="#FFFFFF" d="M44.217,193.265c2.504,0,4.995,1.386,4.995,4.263c0,2.758-2.491,4.13-4.995,4.13
		c-2.518,0-5.021-1.372-5.021-4.13C39.195,194.65,41.699,193.265,44.217,193.265z M44.217,200.765c2.331,0,4.662-1.079,4.662-3.237
		c0-2.264-2.331-3.343-4.662-3.343s-4.676,1.079-4.676,3.343C39.541,199.686,41.886,200.765,44.217,200.765z"/>
	<path fill="#FFFFFF" d="M48.999,191.905h-0.333c0-0.946-0.253-1.266-0.919-1.266h-7.073c-0.666,0-0.92,0.32-0.92,1.266h-0.333
		v-1.798l8.02-6.075h-6.953c-0.52,0-0.733,0.347-0.733,1.386h-0.333v-3.051h0.333c0,0.879,0.227,1.279,0.733,1.279h8.578v0.213
		l-8.499,6.38h7.181c0.666,0,0.919-0.293,0.919-1.385h0.333V191.905z"/>
	<path fill="#FFFFFF" d="M44.67,167.951h0.346c0,0.839,0.32,1.105,0.946,1.105h3.037v0.6l-0.692,0.227
		c0.373,0.573,0.905,1.332,0.905,2.598c0,2.531-1.731,4.196-4.995,4.196c-2.931,0-5.021-1.745-5.021-4.249
		c0-0.813,0.159-1.479,0.279-1.785l-0.267-1.079l2.385-0.919l0.093,0.213c-0.905,0.706-2.157,1.758-2.157,3.503
		c0,1.918,1.944,3.41,4.622,3.41c3.197,0,4.729-1.625,4.729-3.29c0-1.439-1.065-2.598-1.878-2.598h-1.039
		c-0.626,0-0.946,0.28-0.946,1.479H44.67V167.951z"/>
	<path fill="#FFFFFF" d="M48.999,166.937h-0.333c0-1-0.307-1.266-0.945-1.266h-7.167c-0.586,0-0.8,0.266-0.8,1.266h-0.333v-4.33
		c0-2.064,0.999-3.13,2.358-3.13c1.252,0,2.345,0.813,2.438,2.598l3.837-2.171c0.492-0.28,0.612-0.653,0.612-1.359h0.333v1.798
		l-4.769,2.638v1.852h3.49c0.639,0,0.945-0.346,0.945-1.279h0.333V166.937z M43.897,164.832v-2.464c0-1.479-1.053-1.971-2.118-1.971
		c-1.266,0-2.025,0.839-2.025,2.278v1.186c0,0.626,0.214,0.972,0.8,0.972H43.897z"/>
	<path fill="#FFFFFF" d="M39.182,152.589l8.512-3.291c0.732-0.24,0.973-0.626,0.973-1.332h0.333v3.384h-0.333
		c0-0.879-0.106-1.279-0.52-1.279c-0.106,0-0.24,0.026-0.399,0.08l-2.238,0.866v4.009l1.932,0.719
		c0.253,0.08,0.453,0.133,0.613,0.133c0.479,0,0.612-0.386,0.612-1.265h0.333v2.904h-0.333c0-0.733-0.173-0.999-1.386-1.412
		l-7.792-2.784L39.182,152.589z M40.087,153.068l5.036,1.825v-3.729L40.087,153.068z"/>
	<path fill="#FFFFFF" d="M48.999,146.966h-0.333c0-0.986-0.333-1.266-0.985-1.266h-7.087c-0.64,0-0.84,0.28-0.84,1.266h-0.333
		v-4.956c0-1.479,0.866-2.704,2.398-2.704c1.731,0,2.664,1.212,2.664,2.811v2.744h3.197c0.652,0,0.985-0.293,0.985-1.385h0.333
		V146.966z M44.15,144.861v-2.518c0-1.412-1.252-2.118-2.331-2.118c-1.066,0-2.065,0.719-2.065,2.105v1.585
		c0,0.653,0.2,0.946,0.84,0.946H44.15z"/>
	<path fill="#FFFFFF" d="M48.999,138.026h-0.333c0-0.999-0.253-1.266-0.866-1.266h-7.286c-0.52,0-0.76,0.227-0.76,1.266h-0.333
		v-3.383h0.333c0,0.972,0.24,1.279,0.76,1.279h3.37v-5.208h-3.37c-0.52,0-0.76,0.359-0.76,1.279h-0.333v-3.384h0.333
		c0,0.959,0.24,1.279,0.76,1.279H47.8c0.613,0,0.866-0.319,0.866-1.279h0.333v3.384h-0.333c0-0.919-0.253-1.279-0.866-1.279h-3.583
		v5.208H47.8c0.613,0,0.866-0.293,0.866-1.279h0.333V138.026z"/>
	<path fill="#FFFFFF" d="M39.421,127.354v-3.597h0.333c0,1.039,0.2,1.386,0.866,1.386h7.26c0.533,0,0.786-0.347,0.786-1.386h0.333
		v3.597h-0.333c0-1.039-0.253-1.385-0.786-1.385h-7.26c-0.666,0-0.866,0.346-0.866,1.385H39.421z"/>
	<path fill="#FFFFFF" d="M46.415,114.339c1.505,0.613,2.797,1.705,2.797,3.756c0,2.318-1.798,4.209-5.062,4.209
		c-2.691,0-4.955-1.532-4.955-3.983c0-0.879,0.159-1.252,0.359-1.878l-0.307-0.945l2.438-0.919l0.106,0.213
		c-0.879,0.599-2.264,1.745-2.264,3.503c0,1.878,1.984,3.104,4.622,3.104c2.531,0,4.396-1.479,4.396-3.61
		c0-1.359-0.652-2.384-2.237-3.21L46.415,114.339z"/>
	<path fill="#FFFFFF" d="M46.548,112.525c1.079-0.706,2.331-1.812,2.331-3.69c0-1.345-0.546-2.371-2.091-2.371
		c-1.306,0-1.732,0.799-2.331,2.864c-0.44,1.479-1.106,3.077-2.838,3.077c-1.119,0-2.424-0.706-2.424-2.851
		c0-0.959,0.359-1.532,0.359-1.878c0-0.067,0-0.12-0.026-0.16l-0.24-0.653l2.397-0.866l0.134,0.2
		c-1.319,0.786-2.291,1.865-2.291,3.41c0,1.079,0.492,2.078,1.864,2.078c1.412,0,1.945-1.305,2.331-2.717
		c0.493-1.798,1.105-3.264,2.811-3.264c1.879,0,2.678,1.385,2.678,3.09c0,0.946-0.426,1.785-0.426,2.091
		c0,0.293,0.187,0.68,0.399,0.973l-2.531,0.933L46.548,112.525z"/>
	<path fill="#FFFFFF" d="M48.999,99.815h-0.333c0-0.986-0.333-1.266-0.985-1.266h-7.087c-0.64,0-0.84,0.28-0.84,1.266h-0.333V94.86
		c0-1.479,0.866-2.704,2.398-2.704c1.731,0,2.664,1.212,2.664,2.811v2.744h3.197c0.652,0,0.985-0.293,0.985-1.385h0.333V99.815z
		 M44.15,97.71v-2.518c0-1.412-1.252-2.118-2.331-2.118c-1.066,0-2.065,0.719-2.065,2.105v1.585c0,0.653,0.2,0.946,0.84,0.946H44.15
		z"/>
	<path fill="#FFFFFF" d="M48.999,90.942h-0.333c0-0.999-0.307-1.266-0.945-1.266h-7.167c-0.586,0-0.8,0.267-0.8,1.266h-0.333v-4.33
		c0-2.064,0.999-3.13,2.358-3.13c1.252,0,2.345,0.813,2.438,2.598l3.837-2.171c0.492-0.28,0.612-0.653,0.612-1.359h0.333v1.798
		l-4.769,2.638v1.852h3.49c0.639,0,0.945-0.346,0.945-1.279h0.333V90.942z M43.897,88.837v-2.464c0-1.479-1.053-1.972-2.118-1.972
		c-1.266,0-2.025,0.839-2.025,2.278v1.186c0,0.626,0.214,0.972,0.8,0.972H43.897z"/>
	<path fill="#FFFFFF" d="M44.217,72.877c2.504,0,4.995,1.386,4.995,4.263c0,2.758-2.491,4.13-4.995,4.13
		c-2.518,0-5.021-1.372-5.021-4.13C39.195,74.263,41.699,72.877,44.217,72.877z M44.217,80.377c2.331,0,4.662-1.079,4.662-3.237
		c0-2.264-2.331-3.343-4.662-3.343s-4.676,1.079-4.676,3.343C39.541,79.298,41.886,80.377,44.217,80.377z"/>
	<path fill="#FFFFFF" d="M48.999,71.517h-0.347c0-0.933-0.253-1.266-0.972-1.266h-7.047c-0.613,0-0.88,0.333-0.88,1.266h-0.333
		v-4.13c0-3.25,2.398-4.609,4.782-4.609c2.411,0,4.796,1.359,4.796,4.609V71.517z M47.681,69.412c0.719,0,0.972-0.333,0.972-1.065
		v-0.959c0-2.464-2.211-3.703-4.449-3.703c-2.225,0-4.449,1.239-4.449,3.703v0.959c0,0.732,0.267,1.065,0.88,1.065H47.681z"/>
	<path fill="#FFFFFF" d="M39.421,61.525v-3.384h0.333c0,0.946,0.24,1.279,0.8,1.279h5.475c1.625,0,2.744-1.226,2.744-2.957
		c0-1.266-0.586-2.811-2.797-2.811h-5.422c-0.56,0-0.8,0.28-0.8,1.279h-0.333V52h0.333c0,1,0.24,1.279,0.8,1.279h5.501
		c2.146,0,3.157,1.452,3.157,3.596c0,1.772-0.999,3.384-3.33,3.384h-5.328c-0.56,0-0.8,0.24-0.8,1.266H39.421z"/>
	<path fill="#FFFFFF" d="M46.415,42.767c1.505,0.613,2.797,1.705,2.797,3.756c0,2.318-1.798,4.209-5.062,4.209
		c-2.691,0-4.955-1.532-4.955-3.983c0-0.879,0.159-1.252,0.359-1.878l-0.307-0.946l2.438-0.919l0.106,0.213
		c-0.879,0.599-2.264,1.745-2.264,3.503c0,1.878,1.984,3.104,4.622,3.104c2.531,0,4.396-1.479,4.396-3.61
		c0-1.359-0.652-2.384-2.237-3.21L46.415,42.767z"/>
	<path fill="#FFFFFF" d="M49.013,38.676H48.68c0-0.826-0.067-1.505-0.733-1.505H40.54c-0.56,0-0.772,0.267-0.772,1.119
		c0,1.718,1.025,2.411,1.972,2.997l-0.106,0.187l-2.198-0.772v-7.899l2.291-0.786l0.094,0.227c-1.066,0.639-2.052,1.105-2.052,2.757
		c0,0.919,0.213,1.346,0.772,1.346h7.406c0.666,0,0.733-0.533,0.733-1.505h0.333V38.676z"/>
	<path fill="#FFFFFF" d="M39.421,30.814v-3.597h0.333c0,1.039,0.2,1.386,0.866,1.386h7.26c0.533,0,0.786-0.347,0.786-1.386h0.333
		v3.597h-0.333c0-1.039-0.253-1.385-0.786-1.385h-7.26c-0.666,0-0.866,0.346-0.866,1.385H39.421z"/>
	<path fill="#FFFFFF" d="M44.217,17.386c2.504,0,4.995,1.386,4.995,4.263c0,2.758-2.491,4.13-4.995,4.13
		c-2.518,0-5.021-1.372-5.021-4.13C39.195,18.772,41.699,17.386,44.217,17.386z M44.217,24.886c2.331,0,4.662-1.079,4.662-3.237
		c0-2.264-2.331-3.343-4.662-3.343s-4.676,1.079-4.676,3.343C39.541,23.807,41.886,24.886,44.217,24.886z"/>
	<path fill="#FFFFFF" d="M48.999,16.026h-0.333c0-0.946-0.253-1.266-0.919-1.266h-7.073c-0.666,0-0.92,0.32-0.92,1.266h-0.333
		v-1.798l8.02-6.075h-6.953c-0.52,0-0.733,0.347-0.733,1.386h-0.333V6.488h0.333c0,0.879,0.227,1.279,0.733,1.279h8.578V7.98
		l-8.499,6.38h7.181c0.666,0,0.919-0.293,0.919-1.385h0.333V16.026z"/>
	<path fill="#FFFFFF" d="M50.65,4.901c-0.599-0.666-0.905-0.906-1.332-0.906c-0.199,0-0.333,0.08-0.333,0.267
		c0,0.2-0.253,0.493-0.639,0.493c-0.36,0-0.666-0.32-0.666-0.653c0-0.399,0.253-0.759,0.865-0.759c1.065,0,1.692,0.666,2.265,1.412
		L50.65,4.901z"/>
	<path fill="#FFFFFF" d="M62.536,417.159c1.079-0.705,2.331-1.812,2.331-3.689c0-1.346-0.546-2.371-2.091-2.371
		c-1.306,0-1.732,0.799-2.331,2.864c-0.44,1.479-1.106,3.077-2.838,3.077c-1.119,0-2.424-0.706-2.424-2.851
		c0-0.96,0.359-1.532,0.359-1.879c0-0.066,0-0.119-0.026-0.159l-0.24-0.653l2.397-0.865l0.134,0.199
		c-1.319,0.786-2.291,1.865-2.291,3.41c0,1.079,0.492,2.078,1.864,2.078c1.412,0,1.945-1.306,2.331-2.718
		c0.493-1.798,1.105-3.264,2.811-3.264c1.879,0,2.678,1.386,2.678,3.091c0,0.946-0.426,1.785-0.426,2.092
		c0,0.293,0.187,0.679,0.399,0.972l-2.531,0.933L62.536,417.159z"/>
	<path fill="#FFFFFF" d="M64.987,408.846h-0.333c0-0.985-0.267-1.265-0.919-1.265h-7.26c-0.533,0-0.733,0.306-0.733,1.265h-0.333
		v-2.397l8.353-3.13l-8.353-3.117v-2.479h0.333c0,1.066,0.214,1.279,0.733,1.279h7.26c0.586,0,0.919-0.279,0.919-1.279h0.333v3.371
		h-0.333c0-0.973-0.333-1.266-0.919-1.266h-7.873v0.146l9.218,3.45v0.213l-9.031,3.41v0.16h7.687c0.652,0,0.919-0.294,0.919-1.279
		h0.333V408.846z"/>
	<path fill="#FFFFFF" d="M55.17,391.767l8.512-3.29c0.732-0.24,0.973-0.626,0.973-1.332h0.333v3.383h-0.333
		c0-0.879-0.106-1.278-0.52-1.278c-0.106,0-0.24,0.026-0.399,0.08l-2.238,0.865v4.01l1.932,0.72c0.253,0.08,0.453,0.133,0.613,0.133
		c0.479,0,0.612-0.386,0.612-1.266h0.333v2.904h-0.333c0-0.732-0.173-0.999-1.386-1.412l-7.792-2.784L55.17,391.767z
		 M56.075,392.246l5.036,1.825v-3.73L56.075,392.246z"/>
	<path fill="#FFFFFF" d="M64.987,386.144h-0.333c0-0.999-0.307-1.266-0.945-1.266h-7.167c-0.586,0-0.8,0.267-0.8,1.266h-0.333
		v-4.329c0-2.064,0.999-3.13,2.358-3.13c1.252,0,2.345,0.813,2.438,2.597l3.837-2.171c0.492-0.279,0.612-0.652,0.612-1.358h0.333
		v1.798l-4.769,2.638v1.852h3.49c0.639,0,0.945-0.347,0.945-1.278h0.333V386.144z M59.886,384.039v-2.464
		c0-1.479-1.053-1.972-2.118-1.972c-1.266,0-2.025,0.839-2.025,2.277v1.186c0,0.626,0.214,0.973,0.8,0.973H59.886z"/>
	<path fill="#FFFFFF" d="M65.001,373.833h-0.333c0-0.826-0.067-1.505-0.733-1.505h-7.406c-0.56,0-0.772,0.266-0.772,1.118
		c0,1.719,1.025,2.411,1.972,2.997l-0.106,0.187l-2.198-0.772v-7.899l2.291-0.785l0.094,0.226c-1.066,0.64-2.052,1.106-2.052,2.758
		c0,0.919,0.213,1.346,0.772,1.346h7.406c0.666,0,0.733-0.533,0.733-1.506h0.333V373.833z"/>
	<path fill="#FFFFFF" d="M55.409,361.735v-3.383h0.333c0,0.945,0.24,1.278,0.8,1.278h5.475c1.625,0,2.744-1.226,2.744-2.957
		c0-1.266-0.586-2.811-2.797-2.811h-5.422c-0.56,0-0.8,0.279-0.8,1.278h-0.333v-2.931h0.333c0,0.999,0.24,1.279,0.8,1.279h5.501
		c2.146,0,3.157,1.452,3.157,3.597c0,1.771-0.999,3.383-3.33,3.383h-5.328c-0.56,0-0.8,0.24-0.8,1.266H55.409z"/>
	<path fill="#FFFFFF" d="M55.409,350.998v-3.597h0.333c0,1.039,0.2,1.385,0.866,1.385h7.26c0.533,0,0.786-0.346,0.786-1.385h0.333
		v3.597h-0.333c0-1.039-0.253-1.386-0.786-1.386h-7.26c-0.666,0-0.866,0.347-0.866,1.386H55.409z"/>
	<path fill="#FFFFFF" d="M54.37,341.685l11.536,4.369v0.626l-11.536-4.329V341.685z"/>
	<path fill="#FFFFFF" d="M55.409,341.204v-3.383h0.333c0,0.945,0.24,1.278,0.8,1.278h5.475c1.625,0,2.744-1.226,2.744-2.957
		c0-1.266-0.586-2.811-2.797-2.811h-5.422c-0.56,0-0.8,0.279-0.8,1.278h-0.333v-2.931h0.333c0,0.999,0.24,1.279,0.8,1.279h5.501
		c2.146,0,3.157,1.452,3.157,3.597c0,1.771-0.999,3.383-3.33,3.383h-5.328c-0.56,0-0.8,0.24-0.8,1.266H55.409z"/>
	<path fill="#FFFFFF" d="M64.987,330.76h-0.333c0-0.8-0.333-1.039-0.906-1.412l-3.529-2.425l-3.903,2.518
		c-0.307,0.174-0.573,0.387-0.573,1.253h-0.333v-3.384h0.333c0,0.772,0.094,1.278,0.36,1.278c0.053,0,0.106-0.026,0.173-0.066
		l3.237-2.078l-2.944-1.972c-0.187-0.119-0.333-0.187-0.439-0.187c-0.279,0-0.387,0.387-0.387,1.279h-0.333v-2.931h0.333
		c0,0.68,0.293,1.065,0.933,1.532l3.117,2.104l4.143-2.704c0.6-0.387,0.72-0.666,0.72-1.292h0.333v3.383h-0.333
		c0-0.799-0.054-1.265-0.347-1.265c-0.08,0-0.187,0.026-0.306,0.106l-3.49,2.251l3.304,2.225c0.159,0.093,0.293,0.146,0.412,0.146
		c0.307,0,0.427-0.399,0.427-1.279h0.333V330.76z"/>
	<path fill="#FFFFFF" d="M64.987,316.797h-0.347c0-0.933-0.253-1.266-0.972-1.266h-7.047c-0.613,0-0.88,0.333-0.88,1.266h-0.333
		v-4.129c0-3.251,2.398-4.609,4.782-4.609c2.411,0,4.796,1.358,4.796,4.609V316.797z M63.669,314.692
		c0.719,0,0.972-0.333,0.972-1.065v-0.959c0-2.465-2.211-3.703-4.449-3.703c-2.225,0-4.449,1.238-4.449,3.703v0.959
		c0,0.732,0.267,1.065,0.88,1.065H63.669z"/>
	<path fill="#FFFFFF" d="M55.409,306.604v-3.597h0.333c0,1.039,0.2,1.385,0.866,1.385h7.26c0.533,0,0.786-0.346,0.786-1.385h0.333
		v3.597h-0.333c0-1.039-0.253-1.386-0.786-1.386h-7.26c-0.666,0-0.866,0.347-0.866,1.386H55.409z"/>
	<path fill="#FFFFFF" d="M62.536,301.208c1.079-0.705,2.331-1.812,2.331-3.689c0-1.346-0.546-2.371-2.091-2.371
		c-1.306,0-1.732,0.799-2.331,2.864c-0.44,1.479-1.106,3.077-2.838,3.077c-1.119,0-2.424-0.706-2.424-2.851
		c0-0.96,0.359-1.532,0.359-1.879c0-0.066,0-0.119-0.026-0.159l-0.24-0.653l2.397-0.865l0.134,0.199
		c-1.319,0.786-2.291,1.865-2.291,3.41c0,1.079,0.492,2.078,1.864,2.078c1.412,0,1.945-1.306,2.331-2.718
		c0.493-1.798,1.105-3.264,2.811-3.264c1.879,0,2.678,1.386,2.678,3.091c0,0.946-0.426,1.785-0.426,2.092
		c0,0.293,0.187,0.679,0.399,0.972l-2.531,0.933L62.536,301.208z"/>
	<path fill="#FFFFFF" d="M55.409,292.735v-3.597h0.333c0,1.039,0.2,1.385,0.866,1.385h7.26c0.533,0,0.786-0.346,0.786-1.385h0.333
		v3.597h-0.333c0-1.039-0.253-1.386-0.786-1.386h-7.26c-0.666,0-0.866,0.347-0.866,1.386H55.409z"/>
	<path fill="#FFFFFF" d="M60.658,278.96h0.346c0,0.839,0.32,1.105,0.946,1.105h3.037v0.6l-0.692,0.226
		c0.373,0.573,0.905,1.332,0.905,2.598c0,2.531-1.731,4.196-4.995,4.196c-2.931,0-5.021-1.745-5.021-4.249
		c0-0.813,0.159-1.479,0.279-1.785l-0.267-1.079l2.385-0.919l0.093,0.213c-0.905,0.706-2.157,1.759-2.157,3.504
		c0,1.918,1.944,3.41,4.622,3.41c3.197,0,4.729-1.626,4.729-3.291c0-1.438-1.065-2.598-1.878-2.598H61.95
		c-0.626,0-0.946,0.28-0.946,1.479h-0.346V278.96z"/>
	<path fill="#FFFFFF" d="M64.987,277.946h-0.333c0-0.946-0.253-1.266-0.919-1.266h-7.073c-0.666,0-0.92,0.32-0.92,1.266h-0.333
		v-1.798l8.02-6.075h-6.953c-0.52,0-0.733,0.347-0.733,1.386h-0.333v-3.051h0.333c0,0.879,0.227,1.279,0.733,1.279h8.578v0.213
		l-8.499,6.38h7.181c0.666,0,0.919-0.293,0.919-1.385h0.333V277.946z"/>
	<path fill="#FFFFFF" d="M63.908,253.074c0.652,0.453,1.226,1.065,1.226,1.985c0,0.52-0.279,1.199-0.799,1.798
		c0.492,0.626,0.865,1.545,0.865,2.478c0,1.785-1.479,3.05-2.704,3.05c-1.358,0-2.331-0.706-3.117-2.504
		c-0.972,0.386-1.599,0.573-2.185,0.573c-1.172,0-2.011-0.799-2.011-2.131c0-1.065,0.785-1.825,1.771-1.825
		c0.785,0,1.599,0.32,2.438,2.544c1.625-0.733,3.104-1.639,4.143-2.464c-1.278-1.119-2.931-1.292-3.117-1.292
		c-0.492,0-0.706,0.307-0.706,1.079h-0.333v-2.877h0.333c0,0.773,0.293,1.092,0.906,1.239c1.132,0.279,2.397,0.813,3.21,1.598
		c0.373-0.373,0.64-0.813,0.64-1.265c0-0.799-0.146-1.333-0.772-1.825L63.908,253.074z M56.901,257.123
		c-0.68,0-1.332,0.546-1.332,1.212c0,0.813,0.652,1.305,1.319,1.305c0.399,0,1.371-0.133,2.185-0.453
		C58.434,257.483,57.661,257.123,56.901,257.123z M59.739,259.734c0.439,1.212,1.358,1.758,2.197,1.758
		c1.479,0,2.664-1.132,2.664-2.637c0-0.666-0.187-1.266-0.559-1.732C63.003,258.069,61.284,259.068,59.739,259.734z"/>
	<path fill="#FFFFFF" d="M55.409,247.49v-3.37h0.32c0,0.932,0.08,1.265,0.426,1.265c0.066,0,0.16-0.013,0.253-0.04l6.994-1.984
		l-6.261-1.825l-0.866,0.227c-0.413,0.133-0.546,0.306-0.546,1.279h-0.32v-3.37h0.32c0,0.932,0.08,1.265,0.426,1.265
		c0.066,0,0.16-0.013,0.253-0.04l6.994-1.984l-6.754-1.945c-0.133-0.04-0.253-0.054-0.359-0.054c-0.373,0-0.56,0.293-0.56,1.266
		h-0.32v-2.904h0.32c0,0.959,0.227,1.105,0.919,1.319l8.552,2.464v0.226l-7.446,2.078l7.446,2.131v0.227l-8.925,2.504
		c-0.413,0.12-0.546,0.346-0.546,1.266H55.409z"/>
	<path fill="#FFFFFF" d="M64.987,234.113h-0.333c0-0.906-0.279-1.266-0.919-1.266h-7.141c-0.612,0-0.853,0.359-0.853,1.266h-0.333
		v-6.994l2.265-0.933l0.134,0.2c-0.813,0.667-2.065,1.199-2.065,3.264v1.306c0,0.693,0.24,1.052,0.853,1.052h3.211v-2.025
		c0-0.932-0.399-1.438-1.665-1.438v-0.32h3.729v0.32c-1.186,0-1.705,0.506-1.705,1.438v2.025h3.57c0.64,0,0.919-0.359,0.919-1.065
		v-1.252c0-1.545-0.64-2.491-2.118-3.557l0.106-0.24l2.345,0.906V234.113z"/>
	<path fill="#FFFFFF" d="M64.987,224.681h-0.333c0-0.999-0.173-1.266-0.879-1.266h-7.101c-0.652,0-0.933,0.267-0.933,1.266h-0.333
		v-4.596c0-2.025,0.946-3.17,2.225-3.17c0.933,0,1.732,0.506,2.158,2.078c0.347-1.825,1.306-2.504,2.558-2.504
		c1.372,0,2.638,1.119,2.638,3.33V224.681z M59.726,222.576v-2.464c0-1.359-1.132-2.291-2.158-2.291
		c-0.826,0-1.825,0.666-1.825,2.291v1.346c0,0.786,0.28,1.119,0.933,1.119H59.726z M60.059,222.576h3.717
		c0.706,0,0.879-0.333,0.879-1.119v-1.465c0-1.705-1.132-2.625-2.305-2.625c-1.159,0-2.291,1.039-2.291,2.518V222.576z"/>
	<path fill="#FFFFFF" d="M64.987,210.811h-0.333c0-0.986-0.333-1.266-0.985-1.266h-7.087c-0.64,0-0.84,0.28-0.84,1.266h-0.333
		v-4.956c0-1.479,0.866-2.704,2.398-2.704c1.731,0,2.664,1.212,2.664,2.811v2.744h3.197c0.652,0,0.985-0.293,0.985-1.385h0.333
		V210.811z M60.139,208.706v-2.518c0-1.412-1.252-2.118-2.331-2.118c-1.066,0-2.065,0.719-2.065,2.105v1.585
		c0,0.653,0.2,0.946,0.84,0.946H60.139z"/>
	<path fill="#FFFFFF" d="M55.409,201.938v-3.384h0.333c0,0.946,0.24,1.279,0.8,1.279h5.475c1.625,0,2.744-1.226,2.744-2.957
		c0-1.266-0.586-2.811-2.797-2.811h-5.422c-0.56,0-0.8,0.28-0.8,1.279h-0.333v-2.931h0.333c0,1,0.24,1.279,0.8,1.279h5.501
		c2.146,0,3.157,1.452,3.157,3.596c0,1.772-0.999,3.384-3.33,3.384h-5.328c-0.56,0-0.8,0.24-0.8,1.266H55.409z"/>
	<path fill="#FFFFFF" d="M64.987,191.399h-0.333c0-0.999-0.173-1.266-0.879-1.266h-7.101c-0.652,0-0.933,0.267-0.933,1.266h-0.333
		v-4.596c0-2.025,0.946-3.17,2.225-3.17c0.933,0,1.732,0.506,2.158,2.078c0.347-1.825,1.306-2.504,2.558-2.504
		c1.372,0,2.638,1.119,2.638,3.33V191.399z M59.726,189.294v-2.464c0-1.359-1.132-2.291-2.158-2.291
		c-0.826,0-1.825,0.666-1.825,2.291v1.346c0,0.786,0.28,1.119,0.933,1.119H59.726z M60.059,189.294h3.717
		c0.706,0,0.879-0.333,0.879-1.119v-1.465c0-1.705-1.132-2.625-2.305-2.625c-1.159,0-2.291,1.039-2.291,2.518V189.294z"/>
	<path fill="#FFFFFF" d="M64.987,181.967h-0.333c0-1.013-0.307-1.266-0.853-1.266h-7.233c-0.626,0-0.826,0.253-0.826,1.266h-0.333
		v-3.49h0.333c0,1.146,0.2,1.385,0.826,1.385h7.233c0.546,0,0.853-0.24,0.853-0.986v-1.372c0-1.279-0.813-2.397-2.118-3.13
		l0.134-0.253l2.317,0.972V181.967z"/>
	<path fill="#FFFFFF" d="M55.409,172.894v-3.597h0.333c0,1.039,0.2,1.386,0.866,1.386h7.26c0.533,0,0.786-0.347,0.786-1.386h0.333
		v3.597h-0.333c0-1.039-0.253-1.385-0.786-1.385h-7.26c-0.666,0-0.866,0.346-0.866,1.385H55.409z"/>
	<path fill="#FFFFFF" d="M62.536,167.498c1.079-0.706,2.331-1.812,2.331-3.69c0-1.345-0.546-2.371-2.091-2.371
		c-1.306,0-1.732,0.799-2.331,2.864c-0.44,1.479-1.106,3.077-2.838,3.077c-1.119,0-2.424-0.706-2.424-2.851
		c0-0.959,0.359-1.532,0.359-1.878c0-0.067,0-0.12-0.026-0.16l-0.24-0.653l2.397-0.866l0.134,0.2
		c-1.319,0.786-2.291,1.865-2.291,3.41c0,1.079,0.492,2.078,1.864,2.078c1.412,0,1.945-1.305,2.331-2.717
		c0.493-1.798,1.105-3.264,2.811-3.264c1.879,0,2.678,1.385,2.678,3.09c0,0.946-0.426,1.785-0.426,2.091
		c0,0.293,0.187,0.68,0.399,0.973l-2.531,0.933L62.536,167.498z"/>
	<path fill="#FFFFFF" d="M64.987,159.157h-0.333c0-0.999-0.253-1.266-0.866-1.266h-7.286c-0.52,0-0.76,0.227-0.76,1.266h-0.333
		v-3.383h0.333c0,0.972,0.24,1.279,0.76,1.279h3.37v-5.208h-3.37c-0.52,0-0.76,0.359-0.76,1.279h-0.333v-3.384h0.333
		c0,0.959,0.24,1.279,0.76,1.279h7.286c0.613,0,0.866-0.319,0.866-1.279h0.333v3.384h-0.333c0-0.919-0.253-1.279-0.866-1.279h-3.583
		v5.208h3.583c0.613,0,0.866-0.293,0.866-1.279h0.333V159.157z"/>
	<path fill="#FFFFFF" d="M64.987,148.686h-0.333c0-0.906-0.279-1.266-0.919-1.266h-7.141c-0.612,0-0.853,0.359-0.853,1.266h-0.333
		v-6.994l2.265-0.933l0.134,0.2c-0.813,0.667-2.065,1.199-2.065,3.264v1.306c0,0.693,0.24,1.052,0.853,1.052h3.211v-2.025
		c0-0.932-0.399-1.438-1.665-1.438v-0.32h3.729v0.32c-1.186,0-1.705,0.506-1.705,1.438v2.025h3.57c0.64,0,0.919-0.359,0.919-1.065
		v-1.252c0-1.545-0.64-2.491-2.118-3.557l0.106-0.24l2.345,0.906V148.686z"/>
	<path fill="#FFFFFF" d="M64.987,139.253h-0.333c0-0.999-0.307-1.266-0.945-1.266h-7.167c-0.586,0-0.8,0.267-0.8,1.266h-0.333v-4.33
		c0-2.064,0.999-3.13,2.358-3.13c1.252,0,2.345,0.813,2.438,2.598l3.837-2.171c0.492-0.28,0.612-0.653,0.612-1.359h0.333v1.798
		l-4.769,2.638v1.852h3.49c0.639,0,0.945-0.346,0.945-1.279h0.333V139.253z M59.886,137.148v-2.464c0-1.479-1.053-1.972-2.118-1.972
		c-1.266,0-2.025,0.839-2.025,2.278v1.186c0,0.626,0.214,0.972,0.8,0.972H59.886z"/>
</g>
</svg>
