<?xml version="1.0" encoding="utf-8"?>
<!-- Generator: Adobe Illustrator 16.0.0, SVG Export Plug-In . SVG Version: 6.00 Build 0)  -->
<!DOCTYPE svg PUBLIC "-//W3C//DTD SVG 1.1//EN" "http://www.w3.org/Graphics/SVG/1.1/DTD/svg11.dtd">
<svg version="1.1" id="Layer_1" xmlns="http://www.w3.org/2000/svg" xmlns:xlink="http://www.w3.org/1999/xlink" x="0px" y="0px"
	 width="68px" height="501px" viewBox="0 0 68 501" enable-background="new 0 0 68 501" xml:space="preserve">
<path fill="#251459" d="M24.027,317.693c1.356,0,2.518,0.484,3.486,1.453c0.957,0.957,1.436,2.113,1.436,3.47
	c0,0.284,0.097,0.524,0.291,0.717c0.205,0.206,0.45,0.308,0.735,0.308s0.524-0.102,0.718-0.308C30.897,323.141,31,322.9,31,322.616
	c0-1.927-0.684-3.566-2.051-4.923c-1.356-1.366-2.997-2.051-4.922-2.051H7.501c-0.285,0-0.53,0.104-0.735,0.309
	c-0.205,0.193-0.308,0.433-0.308,0.717c0,0.285,0.103,0.53,0.308,0.734c0.205,0.195,0.45,0.291,0.735,0.291H24.027z M8.527,298.331
	c0-2.813,1.002-5.218,3.008-7.212c1.994-2.005,4.398-3.008,7.212-3.008s5.218,1.003,7.212,3.008
	c1.994,1.994,2.991,4.398,2.991,7.212s-0.997,5.218-2.991,7.212s-4.398,2.991-7.212,2.991s-5.218-0.997-7.212-2.991
	C9.529,303.549,8.527,301.145,8.527,298.331z M31,298.331c0-3.384-1.196-6.272-3.589-8.664c-2.393-2.394-5.281-3.589-8.665-3.589
	s-6.272,1.195-8.665,3.589c-2.393,2.392-3.589,5.28-3.589,8.664s1.196,6.272,3.589,8.665s5.281,3.588,8.665,3.588
	s6.272-1.195,8.665-3.588S31,301.715,31,298.331z M19.806,278.25v-6.854c0-0.125,0-0.238,0-0.34c0-0.047,0-0.092,0-0.138
	c0-1.437,0.438-2.649,1.316-3.64c0.866-0.991,1.937-1.487,3.213-1.487s2.364,0.501,3.264,1.504c0.9,1.015,1.35,2.233,1.35,3.657
	v7.297H19.806z M8.561,278.25l-0.034-6.854c0-1.445,0.433-2.666,1.299-3.656c0.877-0.991,1.948-1.487,3.213-1.487
	c1.299,0,2.41,0.502,3.333,1.504c0.923,1.003,1.384,2.216,1.384,3.64l0.017,6.854H8.561z M31,270.953
	c0-1.994-0.655-3.691-1.965-5.094c-1.299-1.411-2.865-2.118-4.7-2.118c-1.219,0-2.341,0.325-3.367,0.974
	c-1.002,0.639-1.789,1.51-2.358,2.615c-0.615-0.969-1.407-1.727-2.375-2.273c-0.991-0.57-2.057-0.854-3.196-0.854
	c-1.834,0-3.39,0.695-4.666,2.085c-1.265,1.39-1.897,3.093-1.897,5.108l0.034,7.879c0,0.285,0.103,0.531,0.308,0.735
	c0.194,0.193,0.433,0.29,0.718,0.29h22.439c0.285,0,0.524-0.102,0.718-0.307C30.897,279.8,31,279.561,31,279.275V270.953z
	 M29.975,243.524c0.285,0,0.53-0.097,0.735-0.291c0.194-0.205,0.291-0.444,0.291-0.717c0-0.285-0.097-0.53-0.291-0.735
	c-0.205-0.194-0.45-0.291-0.735-0.291H8.527v-6.75c0-0.285-0.097-0.524-0.291-0.718c-0.194-0.205-0.433-0.308-0.718-0.308
	s-0.524,0.103-0.718,0.308c-0.205,0.194-0.308,0.433-0.308,0.718v15.534c0,0.285,0.103,0.53,0.308,0.735
	c0.194,0.194,0.433,0.291,0.718,0.291s0.524-0.097,0.718-0.291c0.194-0.205,0.291-0.45,0.291-0.735v-6.75H29.975z M7.587,227.784
	c-0.285,0-0.524,0.103-0.718,0.308c-0.205,0.193-0.308,0.433-0.308,0.718c0,0.284,0.103,0.524,0.308,0.717
	c0.194,0.205,0.433,0.308,0.718,0.308h22.388c0.285,0,0.524-0.103,0.718-0.308c0.205-0.193,0.308-0.433,0.308-0.717
	c0-0.285-0.103-0.525-0.308-0.718c-0.194-0.205-0.433-0.308-0.718-0.308H7.587z M29.975,215.531c0.285,0,0.53-0.097,0.735-0.291
	c0.194-0.205,0.291-0.444,0.291-0.718c0-0.284-0.097-0.529-0.291-0.734c-0.205-0.194-0.45-0.291-0.735-0.291H8.527v-6.75
	c0-0.285-0.097-0.525-0.291-0.718c-0.194-0.205-0.433-0.308-0.718-0.308s-0.524,0.103-0.718,0.308
	c-0.205,0.193-0.308,0.433-0.308,0.718v15.534c0,0.285,0.103,0.53,0.308,0.735c0.194,0.194,0.433,0.291,0.718,0.291
	s0.524-0.097,0.718-0.291c0.194-0.205,0.291-0.45,0.291-0.735v-6.75H29.975z M6.544,200.833c0,0.285,0.103,0.53,0.308,0.735
	c0.194,0.194,0.433,0.291,0.718,0.291h22.405c0.285,0,0.53-0.097,0.735-0.291c0.194-0.205,0.291-0.45,0.291-0.735v-12.099
	c0-0.285-0.097-0.524-0.291-0.718c-0.205-0.205-0.45-0.308-0.735-0.308c-0.273,0-0.513,0.103-0.718,0.308
	c-0.194,0.194-0.291,0.433-0.291,0.718v11.091H7.57c-0.285,0-0.524,0.097-0.718,0.291C6.647,200.321,6.544,200.56,6.544,200.833z
	 M31,168.893c0-0.285-0.103-0.525-0.308-0.718c-0.194-0.205-0.433-0.308-0.718-0.308s-0.524,0.103-0.718,0.308
	c-0.205,0.193-0.308,0.433-0.308,0.718v12.544h-9.194v-9.383c0-0.285-0.103-0.524-0.308-0.718c-0.194-0.205-0.433-0.307-0.718-0.307
	s-0.524,0.102-0.718,0.307c-0.205,0.194-0.308,0.433-0.308,0.718v9.383H8.51l0.034-12.544c0-0.285-0.097-0.525-0.291-0.718
	c-0.205-0.205-0.45-0.308-0.735-0.308c-0.273,0-0.513,0.103-0.718,0.308c-0.205,0.193-0.308,0.433-0.308,0.718l-0.034,13.569
	c-0.011,0.273,0.091,0.513,0.308,0.718c0.194,0.205,0.433,0.307,0.718,0.307h22.49c0.285,0,0.524-0.102,0.718-0.307
	c0.205-0.194,0.308-0.433,0.308-0.718V168.893z"/>
<path fill="none" stroke="#FFFFFF" stroke-width="2" d="M38,351v150"/>
<g>
	<path fill="#FFFFFF" d="M47.358,323.641v-6.073h0.576c0,1.681,0.145,2.281,0.768,2.281c0.121,0,0.289-0.024,0.457-0.072
		L61.76,316.2l-11.28-3.289l-1.561,0.408c-0.744,0.24-0.984,0.553-0.984,2.305h-0.576v-6.072h0.576c0,1.68,0.145,2.279,0.768,2.279
		c0.121,0,0.289-0.023,0.457-0.071l12.601-3.577l-12.169-3.504c-0.24-0.072-0.456-0.096-0.648-0.096
		c-0.672,0-1.008,0.527-1.008,2.28h-0.576v-5.232h0.576c0,1.728,0.408,1.992,1.656,2.376L65,308.447v0.408L51.583,312.6L65,316.44
		v0.408l-16.081,4.512c-0.744,0.216-0.984,0.624-0.984,2.28H47.358z"/>
	<path fill="#FFFFFF" d="M64.616,299.544h-0.6c0-1.631-0.504-2.279-1.656-2.279H49.495c-1.104,0-1.536,0.648-1.536,2.279h-0.601
		v-12.601l4.08-1.681l0.24,0.361c-1.464,1.199-3.72,2.16-3.72,5.88v2.353c0,1.248,0.432,1.896,1.536,1.896h5.784v-3.648
		c0-1.681-0.72-2.593-3-2.593v-0.576h6.72v0.576c-2.135,0-3.072,0.912-3.072,2.593v3.648h6.434c1.152,0,1.656-0.648,1.656-1.921
		v-2.257c0-2.783-1.152-4.488-3.816-6.408l0.191-0.432l4.225,1.632V299.544z"/>
	<path fill="#FFFFFF" d="M64.616,282.553h-0.6c0-1.8-0.313-2.28-1.584-2.28H49.639c-1.176,0-1.68,0.48-1.68,2.28h-0.601v-8.28
		c0-3.648,1.705-5.713,4.009-5.713c1.681,0,3.12,0.912,3.888,3.744c0.625-3.288,2.353-4.512,4.609-4.512
		c2.472,0,4.752,2.016,4.752,6V282.553z M55.136,278.761v-4.44c0-2.448-2.041-4.128-3.889-4.128c-1.488,0-3.288,1.199-3.288,4.128
		v2.424c0,1.417,0.504,2.017,1.68,2.017H55.136z M55.735,278.761h6.697c1.271,0,1.584-0.6,1.584-2.017v-2.64
		c0-3.072-2.041-4.729-4.152-4.729c-2.089,0-4.129,1.872-4.129,4.536V278.761z"/>
	<path fill="#FFFFFF" d="M64.616,257.569h-0.6c0-1.776-0.601-2.281-1.776-2.281h-12.77c-1.151,0-1.512,0.505-1.512,2.281h-0.601
		v-8.93c0-2.664,1.561-4.872,4.32-4.872c3.121,0,4.801,2.185,4.801,5.064v4.944h5.761c1.176,0,1.776-0.527,1.776-2.496h0.6V257.569z
		 M55.88,253.776v-4.536c0-2.544-2.257-3.816-4.201-3.816c-1.92,0-3.72,1.296-3.72,3.792v2.856c0,1.177,0.36,1.704,1.512,1.704
		H55.88z"/>
	<path fill="#FFFFFF" d="M47.358,241.585v-6.096h0.601c0,1.704,0.432,2.304,1.44,2.304h9.864c2.929,0,4.944-2.208,4.944-5.329
		c0-2.28-1.057-5.064-5.04-5.064h-9.769c-1.009,0-1.44,0.504-1.44,2.304h-0.601v-5.281h0.601c0,1.8,0.432,2.305,1.44,2.305h9.912
		c3.865,0,5.688,2.616,5.688,6.48c0,3.192-1.8,6.096-6.001,6.096h-9.6c-1.009,0-1.44,0.432-1.44,2.28H47.358z"/>
	<path fill="#FFFFFF" d="M64.616,222.602h-0.6c0-1.8-0.313-2.28-1.584-2.28H49.639c-1.176,0-1.68,0.48-1.68,2.28h-0.601v-8.281
		c0-3.648,1.705-5.712,4.009-5.712c1.681,0,3.12,0.912,3.888,3.744c0.625-3.288,2.353-4.512,4.609-4.512
		c2.472,0,4.752,2.016,4.752,6V222.602z M55.136,218.81v-4.44c0-2.448-2.041-4.128-3.889-4.128c-1.488,0-3.288,1.2-3.288,4.128
		v2.424c0,1.417,0.504,2.017,1.68,2.017H55.136z M55.735,218.81h6.697c1.271,0,1.584-0.6,1.584-2.017v-2.64
		c0-3.072-2.041-4.729-4.152-4.729c-2.089,0-4.129,1.873-4.129,4.537V218.81z"/>
	<path fill="#FFFFFF" d="M64.616,205.61h-0.6c0-1.824-0.553-2.28-1.537-2.28H49.446c-1.127,0-1.487,0.456-1.487,2.28h-0.601v-6.289
		h0.601c0,2.064,0.36,2.497,1.487,2.497h13.033c0.984,0,1.537-0.432,1.537-1.776v-2.472c0-2.304-1.465-4.32-3.816-5.641l0.24-0.456
		l4.176,1.752V205.61z"/>
	<path fill="#FFFFFF" d="M47.358,189.267v-6.48h0.601c0,1.872,0.36,2.496,1.56,2.496h13.082c0.959,0,1.416-0.624,1.416-2.496h0.6
		v6.48h-0.6c0-1.872-0.457-2.496-1.416-2.496H49.519c-1.199,0-1.56,0.624-1.56,2.496H47.358z"/>
	<path fill="#FFFFFF" d="M60.2,179.546c1.943-1.272,4.2-3.264,4.2-6.648c0-2.424-0.984-4.272-3.769-4.272
		c-2.352,0-3.12,1.44-4.2,5.161c-0.792,2.664-1.992,5.544-5.112,5.544c-2.017,0-4.369-1.272-4.369-5.137
		c0-1.728,0.648-2.76,0.648-3.384c0-0.12,0-0.216-0.048-0.288l-0.433-1.176l4.32-1.56l0.24,0.36
		c-2.376,1.416-4.128,3.36-4.128,6.145c0,1.944,0.888,3.744,3.36,3.744c2.544,0,3.504-2.352,4.2-4.896
		c0.888-3.24,1.992-5.88,5.064-5.88c3.384,0,4.824,2.496,4.824,5.568c0,1.705-0.768,3.216-0.768,3.769
		c0,0.528,0.336,1.224,0.72,1.752l-4.561,1.68L60.2,179.546z"/>
	<path fill="#FFFFFF" d="M64.616,164.522h-0.6c0-1.8-0.457-2.28-1.561-2.28H49.327c-0.937,0-1.368,0.408-1.368,2.28h-0.601v-6.096
		h0.601c0,1.752,0.432,2.304,1.368,2.304h6.072v-9.385h-6.072c-0.937,0-1.368,0.648-1.368,2.304h-0.601v-6.097h0.601
		c0,1.728,0.432,2.304,1.368,2.304h13.129c1.104,0,1.561-0.576,1.561-2.304h0.6v6.097h-0.6c0-1.656-0.457-2.304-1.561-2.304h-6.457
		v9.385h6.457c1.104,0,1.561-0.528,1.561-2.304h0.6V164.522z"/>
	<path fill="#FFFFFF" d="M64.616,145.659h-0.6c0-1.632-0.504-2.28-1.656-2.28H49.495c-1.104,0-1.536,0.648-1.536,2.28h-0.601
		v-12.601l4.08-1.68l0.24,0.36c-1.464,1.2-3.72,2.16-3.72,5.88v2.352c0,1.248,0.432,1.896,1.536,1.896h5.784v-3.648
		c0-1.68-0.72-2.592-3-2.592v-0.576h6.72v0.576c-2.135,0-3.072,0.912-3.072,2.592v3.648h6.434c1.152,0,1.656-0.648,1.656-1.92
		v-2.256c0-2.784-1.152-4.488-3.816-6.408l0.191-0.432l4.225,1.632V145.659z"/>
	<path fill="#FFFFFF" d="M64.616,128.667h-0.6c0-1.8-0.553-2.28-1.705-2.28H49.399c-1.057,0-1.44,0.48-1.44,2.28h-0.601v-7.801
		c0-3.72,1.801-5.64,4.248-5.64c2.257,0,4.225,1.464,4.393,4.68l6.913-3.912c0.888-0.504,1.104-1.176,1.104-2.448h0.6v3.24
		l-8.593,4.752v3.336h6.288c1.152,0,1.705-0.625,1.705-2.304h0.6V128.667z M55.423,124.875v-4.44c0-2.665-1.896-3.553-3.816-3.553
		c-2.279,0-3.647,1.512-3.647,4.104v2.136c0,1.128,0.384,1.752,1.44,1.752H55.423z"/>
</g>
</svg>
