<?xml version="1.0" encoding="utf-8"?>
<!-- Generator: Adobe Illustrator 16.0.0, SVG Export Plug-In . SVG Version: 6.00 Build 0)  -->
<!DOCTYPE svg PUBLIC "-//W3C//DTD SVG 1.1//EN" "http://www.w3.org/Graphics/SVG/1.1/DTD/svg11.dtd">
<svg version="1.1" id="Layer_1" xmlns="http://www.w3.org/2000/svg" xmlns:xlink="http://www.w3.org/1999/xlink" x="0px" y="0px"
	 width="68px" height="760px" viewBox="0 0 68 760" enable-background="new 0 0 68 760" xml:space="preserve">
<path fill="none" stroke="#FFFFFF" stroke-width="2" d="M38,610v150"/>
<g>
	<path fill="#625573" d="M31.744,525.025c-3.146,3.18-7.022,4.77-11.627,4.77c-4.472,0-8.281-1.59-11.429-4.77
		c-3.146-3.181-4.72-7.007-4.72-11.479c0-1.59,0.216-3.164,0.646-4.721c0.464-1.557,1.143-3.014,2.037-4.373
		c0.563-0.895,1.242-1.756,2.037-2.584c0.961-0.96,1.988-1.805,3.081-2.533v2.683c-1.855,1.325-3.28,3.048-4.273,5.167
		c-0.927,1.988-1.391,4.092-1.391,6.312c0,3.843,1.408,7.173,4.224,9.987c2.782,2.75,6.046,4.125,9.789,4.125
		c3.876,0,7.222-1.424,10.038-4.273c2.816-2.816,4.224-6.162,4.224-10.037c0-2.188-0.53-4.291-1.59-6.312
		c-1.026-1.954-2.451-3.659-4.273-5.118v-2.584c2.452,1.689,4.39,3.777,5.813,6.262c1.424,2.484,2.137,5.052,2.137,7.701
		C36.465,517.887,34.891,521.813,31.744,525.025z"/>
	<path fill="#625573" d="M31.545,489.348c-3.18,3.279-6.973,4.92-11.379,4.92c-4.571,0-8.43-1.607-11.578-4.82
		c-3.147-3.213-4.721-7.122-4.721-11.727c0-4.473,1.541-8.331,4.621-11.578c3.147-3.346,6.94-5.019,11.379-5.019
		c4.539,0,8.398,1.64,11.578,4.919c3.18,3.247,4.77,7.139,4.77,11.678C36.216,482.192,34.659,486.068,31.545,489.348z
		 M10.029,487.808c2.816,2.849,6.195,4.272,10.137,4.272c3.843,0,7.139-1.44,9.888-4.322c2.75-2.849,4.125-6.211,4.125-10.087
		c0-3.942-1.392-7.305-4.174-10.087c-2.782-2.85-6.161-4.273-10.137-4.273c-3.875,0-7.188,1.458-9.938,4.373
		c-2.684,2.815-4.025,6.145-4.025,9.987C5.905,481.58,7.28,484.959,10.029,487.808z"/>
	<path fill="#625573" d="M8.29,425.646l27.976,11.776v2.236L8.241,451.584h28.025v2.335H4.216v-3.081l29.118-12.273L4.216,426.342
		v-3.031h32.05v2.335H8.29z"/>
	<path fill="#625573" d="M22.949,399.26c0.266,1.227,0.397,2.783,0.397,4.671v7.255h12.572v2.336h-32v-8.696
		c0-2.12,0.067-3.71,0.199-4.771c0.266-1.689,0.795-3.146,1.59-4.372c0.828-1.392,1.955-2.468,3.379-3.229
		c1.391-0.729,2.915-1.094,4.571-1.094c1.524,0,2.932,0.315,4.224,0.944c1.325,0.663,2.435,1.606,3.329,2.832
		C22.038,396.328,22.618,397.703,22.949,399.26z M6.054,401.546c-0.033,0.795-0.05,1.955-0.05,3.478l0.05,1.044v5.118h15.155v-6.658
		v-0.348c0-1.623-0.066-2.85-0.199-3.678c-0.199-1.324-0.579-2.484-1.143-3.479c-0.695-1.059-1.606-1.888-2.733-2.484
		c-1.093-0.596-2.269-0.895-3.528-0.895c-1.59,0-2.998,0.432-4.224,1.293c-1.225,0.828-2.137,1.987-2.733,3.479
		C6.352,399.145,6.153,400.188,6.054,401.546z"/>
	<path fill="#625573" d="M3.868,384.104v-2.286h29.864v-17.888h2.187v20.174H3.868z"/>
	<path fill="#625573" d="M3.967,357.669v-21.565h2.186v19.28h11.976v-18.137h2.087v18.137h13.516v-19.578h2.187v21.863H3.967z"/>
	<path fill="#625573" d="M35.918,320.502v2.435H5.905v8.249H3.917v-18.783h1.988v8.1H35.918z"/>
	<path fill="#625573" d="M3.917,305.147v-2.335h32.049v2.335H3.917z"/>
	<path fill="#625573" d="M31.545,289.644c-3.18,3.28-6.973,4.919-11.379,4.919c-4.571,0-8.43-1.606-11.578-4.82
		c-3.147-3.213-4.721-7.122-4.721-11.727c0-4.472,1.541-8.331,4.621-11.578c3.147-3.345,6.94-5.019,11.379-5.019
		c4.539,0,8.398,1.64,11.578,4.919c3.18,3.247,4.77,7.139,4.77,11.677C36.216,282.489,34.659,286.365,31.545,289.644z
		 M10.029,288.104c2.816,2.849,6.195,4.273,10.137,4.273c3.843,0,7.139-1.441,9.888-4.323c2.75-2.849,4.125-6.211,4.125-10.087
		c0-3.942-1.392-7.305-4.174-10.087c-2.782-2.849-6.161-4.273-10.137-4.273c-3.875,0-7.188,1.458-9.938,4.373
		c-2.684,2.816-4.025,6.145-4.025,9.988C5.905,281.876,7.28,285.255,10.029,288.104z"/>
	<path fill="#625573" d="M7.197,251.88h28.721v2.335H3.868v-2.783l28.423-19.627l-28.423-0.05v-2.286h32.05v2.584L7.197,251.88z"/>
</g>
<g>
	<path fill="#FFFFFF" d="M58.076,530.658c1.943-1.271,4.2-3.264,4.2-6.648c0-2.424-0.984-4.271-3.769-4.271
		c-2.352,0-3.12,1.439-4.2,5.16c-0.792,2.664-1.992,5.545-5.112,5.545c-2.017,0-4.369-1.272-4.369-5.137
		c0-1.729,0.648-2.761,0.648-3.385c0-0.119,0-0.216-0.048-0.288l-0.433-1.176l4.32-1.56l0.24,0.359
		c-2.376,1.416-4.128,3.36-4.128,6.145c0,1.944,0.888,3.744,3.36,3.744c2.544,0,3.504-2.352,4.2-4.896
		c0.888-3.24,1.992-5.881,5.064-5.881c3.384,0,4.824,2.496,4.824,5.568c0,1.705-0.768,3.217-0.768,3.77
		c0,0.527,0.336,1.224,0.72,1.752l-4.561,1.68L58.076,530.658z"/>
	<path fill="#FFFFFF" d="M62.492,515.684h-0.6c0-1.776-0.48-2.28-1.656-2.28H47.154c-0.959,0-1.319,0.552-1.319,2.28h-0.601v-4.32
		l15.05-5.641l-15.05-5.617v-4.464h0.601c0,1.921,0.384,2.304,1.319,2.304h13.082c1.056,0,1.656-0.504,1.656-2.304h0.6v6.073h-0.6
		c0-1.753-0.601-2.281-1.656-2.281H46.051v0.265l16.609,6.216v0.385l-16.273,6.145v0.288h13.85c1.176,0,1.656-0.528,1.656-2.304h0.6
		V515.684z"/>
	<path fill="#FFFFFF" d="M44.803,484.915l15.338-5.929c1.319-0.432,1.752-1.128,1.752-2.4h0.6v6.097h-0.6
		c0-1.584-0.192-2.304-0.937-2.304c-0.192,0-0.433,0.047-0.72,0.144l-4.033,1.56v7.225l3.48,1.297
		c0.457,0.145,0.816,0.24,1.104,0.24c0.864,0,1.104-0.696,1.104-2.281h0.6v5.232h-0.6c0-1.319-0.313-1.799-2.496-2.543
		l-14.042-5.018L44.803,484.915z M46.435,485.779l9.073,3.288v-6.721L46.435,485.779z"/>
	<path fill="#FFFFFF" d="M62.492,474.787h-0.6c0-1.8-0.553-2.279-1.705-2.279H47.275c-1.057,0-1.44,0.479-1.44,2.279h-0.601v-7.801
		c0-3.72,1.801-5.64,4.248-5.64c2.257,0,4.225,1.464,4.393,4.681l6.913-3.912c0.888-0.505,1.104-1.177,1.104-2.449h0.6v3.24
		l-8.593,4.753v3.337h6.288c1.152,0,1.705-0.625,1.705-2.305h0.6V474.787z M53.299,470.996v-4.441c0-2.664-1.896-3.552-3.816-3.552
		c-2.279,0-3.647,1.512-3.647,4.104v2.136c0,1.128,0.384,1.753,1.44,1.753H53.299z"/>
	<path fill="#FFFFFF" d="M62.516,452.611h-0.6c0-1.488-0.12-2.712-1.32-2.712H47.251c-1.009,0-1.392,0.479-1.392,2.017
		c0,3.096,1.848,4.344,3.552,5.4l-0.192,0.336l-3.96-1.393v-14.232l4.128-1.417l0.168,0.408c-1.92,1.152-3.695,1.992-3.695,4.968
		c0,1.656,0.383,2.425,1.392,2.425h13.345c1.2,0,1.32-0.96,1.32-2.712h0.6V452.611z"/>
	<path fill="#FFFFFF" d="M45.234,430.82v-6.096h0.601c0,1.704,0.432,2.305,1.44,2.305h9.864c2.929,0,4.944-2.209,4.944-5.329
		c0-2.28-1.057-5.064-5.04-5.064h-9.769c-1.009,0-1.44,0.504-1.44,2.304h-0.601v-5.28h0.601c0,1.8,0.432,2.305,1.44,2.305h9.912
		c3.865,0,5.688,2.616,5.688,6.48c0,3.192-1.8,6.097-6.001,6.097h-9.6c-1.009,0-1.44,0.432-1.44,2.279H45.234z"/>
	<path fill="#FFFFFF" d="M45.234,411.477v-6.48h0.601c0,1.873,0.36,2.496,1.56,2.496h13.082c0.959,0,1.416-0.623,1.416-2.496h0.6
		v6.48h-0.6c0-1.871-0.457-2.496-1.416-2.496H47.395c-1.199,0-1.56,0.625-1.56,2.496H45.234z"/>
	<path fill="#FFFFFF" d="M43.362,394.7l20.786,7.873v1.128L43.362,395.9V394.7z"/>
	<path fill="#FFFFFF" d="M45.234,393.837v-6.097h0.601c0,1.705,0.432,2.305,1.44,2.305h9.864c2.929,0,4.944-2.209,4.944-5.328
		c0-2.281-1.057-5.065-5.04-5.065h-9.769c-1.009,0-1.44,0.504-1.44,2.304h-0.601v-5.28h0.601c0,1.8,0.432,2.304,1.44,2.304h9.912
		c3.865,0,5.688,2.616,5.688,6.481c0,3.191-1.8,6.096-6.001,6.096h-9.6c-1.009,0-1.44,0.432-1.44,2.28H45.234z"/>
	<path fill="#FFFFFF" d="M62.492,375.021h-0.6c0-1.44-0.601-1.872-1.633-2.544l-6.36-4.369l-7.032,4.537
		c-0.553,0.312-1.032,0.696-1.032,2.256h-0.601v-6.097h0.601c0,1.392,0.168,2.304,0.647,2.304c0.096,0,0.192-0.048,0.313-0.12
		l5.832-3.744l-5.305-3.552c-0.336-0.216-0.6-0.336-0.791-0.336c-0.504,0-0.696,0.696-0.696,2.304h-0.601v-5.28h0.601
		c0,1.224,0.528,1.92,1.68,2.76l5.616,3.792l7.465-4.873c1.08-0.696,1.297-1.2,1.297-2.328h0.6v6.096h-0.6
		c0-1.44-0.097-2.28-0.625-2.28c-0.144,0-0.336,0.048-0.552,0.192l-6.288,4.056l5.952,4.008c0.288,0.168,0.528,0.264,0.744,0.264
		c0.552,0,0.769-0.72,0.769-2.304h0.6V375.021z"/>
	<path fill="#FFFFFF" d="M62.492,349.87h-0.624c0-1.68-0.456-2.28-1.752-2.28H47.419c-1.104,0-1.584,0.6-1.584,2.28h-0.601v-7.44
		c0-5.856,4.32-8.305,8.617-8.305c4.344,0,8.641,2.448,8.641,8.305V349.87z M60.116,346.078c1.296,0,1.752-0.6,1.752-1.92v-1.728
		c0-4.44-3.984-6.673-8.017-6.673c-4.008,0-8.017,2.232-8.017,6.673v1.728c0,1.32,0.479,1.92,1.584,1.92H60.116z"/>
	<path fill="#FFFFFF" d="M62.492,331.87h-0.6c0-1.632-0.504-2.28-1.656-2.28H47.371c-1.104,0-1.536,0.648-1.536,2.28h-0.601v-12.601
		l4.08-1.68l0.24,0.36c-1.464,1.2-3.72,2.16-3.72,5.88v2.352c0,1.248,0.432,1.896,1.536,1.896h5.784v-3.648
		c0-1.68-0.72-2.592-3-2.592v-0.576h6.72v0.576c-2.135,0-3.072,0.912-3.072,2.592v3.648h6.434c1.152,0,1.656-0.648,1.656-1.92
		v-2.256c0-2.784-1.152-4.488-3.816-6.408l0.191-0.432l4.225,1.632V331.87z"/>
	<path fill="#FFFFFF" d="M58.076,313.798c1.943-1.272,4.2-3.264,4.2-6.648c0-2.424-0.984-4.272-3.769-4.272
		c-2.352,0-3.12,1.44-4.2,5.161c-0.792,2.664-1.992,5.544-5.112,5.544c-2.017,0-4.369-1.272-4.369-5.137
		c0-1.728,0.648-2.76,0.648-3.384c0-0.12,0-0.216-0.048-0.288l-0.433-1.176l4.32-1.56l0.24,0.36
		c-2.376,1.416-4.128,3.36-4.128,6.145c0,1.944,0.888,3.744,3.36,3.744c2.544,0,3.504-2.352,4.2-4.896
		c0.888-3.24,1.992-5.88,5.064-5.88c3.384,0,4.824,2.496,4.824,5.568c0,1.705-0.768,3.216-0.768,3.769
		c0,0.528,0.336,1.224,0.72,1.752l-4.561,1.68L58.076,313.798z"/>
	<path fill="#FFFFFF" d="M45.234,298.534v-6.48h0.601c0,1.872,0.36,2.496,1.56,2.496h13.082c0.959,0,1.416-0.624,1.416-2.496h0.6
		v6.48h-0.6c0-1.872-0.457-2.496-1.416-2.496H47.395c-1.199,0-1.56,0.624-1.56,2.496H45.234z"/>
	<path fill="#FFFFFF" d="M54.691,273.717h0.624c0,1.512,0.576,1.992,1.704,1.992h5.473v1.08l-1.248,0.408
		c0.672,1.032,1.632,2.4,1.632,4.68c0,4.561-3.12,7.561-9.001,7.561c-5.279,0-9.049-3.144-9.049-7.657
		c0-1.464,0.289-2.664,0.504-3.216l-0.479-1.944l4.296-1.656l0.168,0.384c-1.631,1.272-3.888,3.168-3.888,6.313
		c0,3.456,3.505,6.145,8.329,6.145c5.76,0,8.521-2.928,8.521-5.929c0-2.592-1.921-4.68-3.384-4.68H57.02
		c-1.128,0-1.704,0.504-1.704,2.664h-0.624V273.717z"/>
	<path fill="#FFFFFF" d="M62.492,271.894h-0.6c0-1.704-0.457-2.28-1.656-2.28H47.49c-1.199,0-1.655,0.576-1.655,2.28h-0.601v-3.24
		l14.449-10.945H47.154c-0.936,0-1.319,0.624-1.319,2.496h-0.601v-5.497h0.601c0,1.584,0.407,2.304,1.319,2.304h15.458v0.384
		l-15.313,11.497h12.938c1.199,0,1.656-0.528,1.656-2.497h0.6V271.894z"/>
	<path fill="#FFFFFF" d="M60.548,227.085c1.177,0.816,2.208,1.92,2.208,3.576c0,0.937-0.504,2.16-1.439,3.24
		c0.888,1.128,1.56,2.784,1.56,4.465c0,3.216-2.664,5.496-4.872,5.496c-2.448,0-4.201-1.272-5.617-4.513
		c-1.752,0.696-2.88,1.032-3.936,1.032c-2.112,0-3.625-1.439-3.625-3.84c0-1.92,1.416-3.288,3.193-3.288
		c1.416,0,2.88,0.576,4.392,4.584c2.929-1.32,5.593-2.952,7.465-4.44c-2.304-2.016-5.28-2.328-5.616-2.328
		c-0.889,0-1.272,0.552-1.272,1.944h-0.601v-5.185h0.601c0,1.393,0.528,1.968,1.632,2.232c2.041,0.504,4.32,1.464,5.785,2.88
		c0.672-0.672,1.152-1.464,1.152-2.28c0-1.439-0.265-2.4-1.393-3.288L60.548,227.085z M47.923,234.382
		c-1.224,0-2.399,0.984-2.399,2.184c0,1.465,1.176,2.353,2.375,2.353c0.721,0,2.473-0.24,3.938-0.816
		C50.684,235.029,49.291,234.382,47.923,234.382z M53.035,239.086c0.793,2.185,2.448,3.168,3.961,3.168c2.664,0,4.8-2.041,4.8-4.752
		c0-1.2-0.336-2.28-1.008-3.12C58.916,236.086,55.82,237.886,53.035,239.086z"/>
	<path fill="#FFFFFF" d="M45.234,217.031v-6.072h0.576c0,1.68,0.145,2.28,0.768,2.28c0.121,0,0.289-0.024,0.457-0.072l12.601-3.576
		l-11.28-3.288l-1.561,0.407c-0.744,0.24-0.984,0.553-0.984,2.305h-0.576v-6.072h0.576c0,1.68,0.145,2.279,0.768,2.279
		c0.121,0,0.289-0.023,0.457-0.071l12.601-3.576l-12.169-3.505c-0.24-0.072-0.456-0.096-0.648-0.096
		c-0.672,0-1.008,0.528-1.008,2.28h-0.576v-5.232h0.576c0,1.728,0.408,1.992,1.656,2.376l15.409,4.44v0.408l-13.417,3.744
		l13.417,3.84v0.408l-16.081,4.513c-0.744,0.216-0.984,0.624-0.984,2.28H45.234z"/>
	<path fill="#FFFFFF" d="M62.492,192.936h-0.6c0-1.633-0.504-2.28-1.656-2.28H47.371c-1.104,0-1.536,0.647-1.536,2.28h-0.601
		v-12.602l4.08-1.68l0.24,0.359c-1.464,1.2-3.72,2.16-3.72,5.881v2.353c0,1.248,0.432,1.896,1.536,1.896h5.784v-3.648
		c0-1.68-0.72-2.592-3-2.592v-0.576h6.72v0.576c-2.135,0-3.072,0.912-3.072,2.592v3.648h6.434c1.152,0,1.656-0.647,1.656-1.92
		v-2.256c0-2.784-1.152-4.488-3.816-6.409l0.191-0.432l4.225,1.632V192.936z"/>
	<path fill="#FFFFFF" d="M62.492,175.943h-0.6c0-1.801-0.313-2.28-1.584-2.28H47.515c-1.176,0-1.68,0.479-1.68,2.28h-0.601v-8.281
		c0-3.648,1.705-5.712,4.009-5.712c1.681,0,3.12,0.912,3.888,3.744c0.625-3.288,2.353-4.513,4.609-4.513
		c2.472,0,4.752,2.017,4.752,6.001V175.943z M53.012,172.15v-4.44c0-2.448-2.041-4.128-3.889-4.128c-1.488,0-3.288,1.2-3.288,4.128
		v2.425c0,1.416,0.504,2.016,1.68,2.016H53.012z M53.611,172.15h6.697c1.271,0,1.584-0.6,1.584-2.016v-2.641
		c0-3.072-2.041-4.729-4.152-4.729c-2.089,0-4.129,1.872-4.129,4.536V172.15z"/>
	<path fill="#FFFFFF" d="M62.492,150.96h-0.6c0-1.776-0.601-2.28-1.776-2.28h-12.77c-1.151,0-1.512,0.504-1.512,2.28h-0.601v-8.929
		c0-2.665,1.561-4.873,4.32-4.873c3.121,0,4.801,2.185,4.801,5.064v4.944h5.761c1.176,0,1.776-0.527,1.776-2.496h0.6V150.96z
		 M53.756,147.167v-4.536c0-2.544-2.257-3.816-4.201-3.816c-1.92,0-3.72,1.296-3.72,3.792v2.856c0,1.177,0.36,1.704,1.512,1.704
		H53.756z"/>
	<path fill="#FFFFFF" d="M45.234,134.977v-6.097h0.601c0,1.704,0.432,2.304,1.44,2.304h9.864c2.929,0,4.944-2.208,4.944-5.328
		c0-2.28-1.057-5.064-5.04-5.064h-9.769c-1.009,0-1.44,0.504-1.44,2.304h-0.601v-5.28h0.601c0,1.801,0.432,2.305,1.44,2.305h9.912
		c3.865,0,5.688,2.616,5.688,6.48c0,3.192-1.8,6.097-6.001,6.097h-9.6c-1.009,0-1.44,0.432-1.44,2.28H45.234z"/>
	<path fill="#FFFFFF" d="M62.492,115.993h-0.6c0-1.801-0.313-2.28-1.584-2.28H47.515c-1.176,0-1.68,0.479-1.68,2.28h-0.601v-8.281
		c0-3.648,1.705-5.712,4.009-5.712c1.681,0,3.12,0.912,3.888,3.744c0.625-3.288,2.353-4.513,4.609-4.513
		c2.472,0,4.752,2.017,4.752,6.001V115.993z M53.012,112.2v-4.44c0-2.448-2.041-4.128-3.889-4.128c-1.488,0-3.288,1.2-3.288,4.128
		v2.425c0,1.416,0.504,2.016,1.68,2.016H53.012z M53.611,112.2h6.697c1.271,0,1.584-0.6,1.584-2.016v-2.641
		c0-3.072-2.041-4.729-4.152-4.729c-2.089,0-4.129,1.872-4.129,4.536V112.2z"/>
	<path fill="#FFFFFF" d="M62.492,99.001h-0.6c0-1.824-0.553-2.28-1.537-2.28H47.322c-1.127,0-1.487,0.456-1.487,2.28h-0.601v-6.289
		h0.601c0,2.064,0.36,2.496,1.487,2.496h13.033c0.984,0,1.537-0.432,1.537-1.776V90.96c0-2.305-1.465-4.32-3.816-5.641l0.24-0.456
		l4.176,1.752V99.001z"/>
	<path fill="#FFFFFF" d="M45.234,82.657v-6.48h0.601c0,1.872,0.36,2.496,1.56,2.496h13.082c0.959,0,1.416-0.624,1.416-2.496h0.6
		v6.48h-0.6c0-1.872-0.457-2.496-1.416-2.496H47.395c-1.199,0-1.56,0.624-1.56,2.496H45.234z"/>
	<path fill="#FFFFFF" d="M58.076,72.938c1.943-1.272,4.2-3.265,4.2-6.649c0-2.424-0.984-4.271-3.769-4.271
		c-2.352,0-3.12,1.439-4.2,5.16c-0.792,2.664-1.992,5.544-5.112,5.544c-2.017,0-4.369-1.271-4.369-5.136
		c0-1.729,0.648-2.761,0.648-3.385c0-0.12,0-0.216-0.048-0.288l-0.433-1.176l4.32-1.561l0.24,0.36
		c-2.376,1.416-4.128,3.36-4.128,6.145c0,1.944,0.888,3.744,3.36,3.744c2.544,0,3.504-2.352,4.2-4.896
		c0.888-3.24,1.992-5.88,5.064-5.88c3.384,0,4.824,2.496,4.824,5.568c0,1.704-0.768,3.216-0.768,3.768
		c0,0.528,0.336,1.225,0.72,1.753l-4.561,1.68L58.076,72.938z"/>
	<path fill="#FFFFFF" d="M62.492,57.914h-0.6c0-1.801-0.457-2.28-1.561-2.28H47.203c-0.937,0-1.368,0.408-1.368,2.28h-0.601v-6.097
		h0.601c0,1.752,0.432,2.304,1.368,2.304h6.072v-9.385h-6.072c-0.937,0-1.368,0.648-1.368,2.305h-0.601v-6.097h0.601
		c0,1.729,0.432,2.304,1.368,2.304h13.129c1.104,0,1.561-0.575,1.561-2.304h0.6v6.097h-0.6c0-1.656-0.457-2.305-1.561-2.305h-6.457
		v9.385h6.457c1.104,0,1.561-0.527,1.561-2.304h0.6V57.914z"/>
	<path fill="#FFFFFF" d="M62.492,39.05h-0.6c0-1.633-0.504-2.28-1.656-2.28H47.371c-1.104,0-1.536,0.647-1.536,2.28h-0.601V26.448
		l4.08-1.68l0.24,0.359c-1.464,1.2-3.72,2.16-3.72,5.881v2.353c0,1.248,0.432,1.896,1.536,1.896h5.784v-3.648
		c0-1.68-0.72-2.592-3-2.592V28.44h6.72v0.576c-2.135,0-3.072,0.912-3.072,2.592v3.648h6.434c1.152,0,1.656-0.647,1.656-1.92v-2.256
		c0-2.784-1.152-4.488-3.816-6.409l0.191-0.432l4.225,1.632V39.05z"/>
	<path fill="#FFFFFF" d="M62.492,22.059h-0.6c0-1.801-0.553-2.28-1.705-2.28H47.275c-1.057,0-1.44,0.479-1.44,2.28h-0.601v-7.801
		c0-3.721,1.801-5.641,4.248-5.641c2.257,0,4.225,1.464,4.393,4.681l6.913-3.913c0.888-0.504,1.104-1.176,1.104-2.448h0.6v3.24
		l-8.593,4.753v3.336h6.288c1.152,0,1.705-0.624,1.705-2.304h0.6V22.059z M53.299,18.266v-4.44c0-2.664-1.896-3.552-3.816-3.552
		c-2.279,0-3.647,1.512-3.647,4.104v2.136c0,1.128,0.384,1.752,1.44,1.752H53.299z"/>
</g>
</svg>
