<?xml version="1.0" encoding="utf-8"?>
<!-- Generator: Adobe Illustrator 16.0.0, SVG Export Plug-In . SVG Version: 6.00 Build 0)  -->
<!DOCTYPE svg PUBLIC "-//W3C//DTD SVG 1.1//EN" "http://www.w3.org/Graphics/SVG/1.1/DTD/svg11.dtd">
<svg version="1.1" id="Layer_1" xmlns="http://www.w3.org/2000/svg" xmlns:xlink="http://www.w3.org/1999/xlink" x="0px" y="0px"
	 width="68px" height="760px" viewBox="0 0 68 760" enable-background="new 0 0 68 760" xml:space="preserve">
<path fill="#625573" d="M6.544,580.146c0,0.285,0.103,0.53,0.308,0.735c0.194,0.194,0.433,0.29,0.718,0.29h22.405
	c0.285,0,0.53-0.096,0.735-0.29c0.194-0.205,0.291-0.45,0.291-0.735v-12.1c0-0.284-0.097-0.523-0.291-0.717
	c-0.205-0.205-0.45-0.309-0.735-0.309c-0.273,0-0.513,0.104-0.718,0.309c-0.194,0.193-0.291,0.433-0.291,0.717v11.092H7.57
	c-0.285,0-0.524,0.098-0.718,0.29C6.647,579.633,6.544,579.873,6.544,580.146z M7.587,561.689c-0.285,0-0.524,0.103-0.718,0.308
	c-0.205,0.193-0.308,0.433-0.308,0.717c0,0.285,0.103,0.524,0.308,0.718c0.194,0.205,0.433,0.309,0.718,0.309h22.388
	c0.285,0,0.524-0.104,0.718-0.309c0.205-0.193,0.308-0.433,0.308-0.718c0-0.284-0.103-0.523-0.308-0.717
	c-0.194-0.205-0.433-0.308-0.718-0.308H7.587z M30.829,555.195c0-0.285-0.103-0.524-0.308-0.719
	c-0.194-0.204-0.433-0.308-0.718-0.308h-6.528l-3.213-3.042l10.63-10.1c0.205-0.205,0.308-0.45,0.308-0.735
	c0-0.273-0.091-0.507-0.273-0.7c-0.194-0.205-0.433-0.313-0.718-0.325c-0.285,0-0.524,0.098-0.718,0.291l-10.698,10.168
	l-10.322-9.826c-0.205-0.193-0.45-0.284-0.735-0.273c-0.273,0-0.507,0.104-0.701,0.308c-0.194,0.205-0.291,0.45-0.291,0.734
	c0.011,0.274,0.12,0.507,0.325,0.701l13.467,12.8H7.467c-0.273,0-0.513,0.104-0.718,0.308c-0.194,0.194-0.291,0.434-0.291,0.719
	c0,0.272,0.097,0.513,0.291,0.718c0.205,0.193,0.444,0.29,0.718,0.29h22.336c0.285,0,0.524-0.097,0.718-0.29
	C30.727,555.708,30.829,555.468,30.829,555.195z M31,521.152c0-0.285-0.103-0.524-0.308-0.719c-0.194-0.204-0.433-0.308-0.718-0.308
	s-0.524,0.104-0.718,0.308c-0.205,0.194-0.308,0.434-0.308,0.719v12.544h-9.194v-9.383c0-0.284-0.103-0.524-0.308-0.718
	c-0.194-0.205-0.433-0.308-0.718-0.308s-0.524,0.103-0.718,0.308c-0.205,0.193-0.308,0.434-0.308,0.718v9.383H8.51l0.034-12.544
	c0-0.285-0.097-0.524-0.291-0.719c-0.205-0.204-0.45-0.308-0.735-0.308c-0.273,0-0.513,0.104-0.718,0.308
	c-0.205,0.194-0.308,0.434-0.308,0.719l-0.034,13.568c-0.011,0.274,0.091,0.514,0.308,0.719c0.194,0.204,0.433,0.308,0.718,0.308
	h22.49c0.285,0,0.524-0.104,0.718-0.308c0.205-0.194,0.308-0.434,0.308-0.719V521.152z M18.764,503.037
	c-4.102,0-7.662-0.906-10.681-2.718c-0.239-0.148-0.496-0.188-0.769-0.119c-0.273,0.067-0.484,0.222-0.632,0.461
	s-0.188,0.496-0.12,0.769c0.068,0.274,0.228,0.484,0.479,0.632c3.338,2.007,7.246,3.009,11.724,3.009s8.391-1.002,11.741-3.009
	c0.331-0.204,0.496-0.494,0.496-0.87c0-0.194-0.045-0.37-0.137-0.53c-0.148-0.239-0.359-0.394-0.632-0.461
	c-0.273-0.069-0.53-0.029-0.769,0.119C26.431,502.131,22.865,503.037,18.764,503.037z M23.224,488.1L10.202,482.7l13.022-5.401
	V488.1z M30.915,492.39c0.057-0.126,0.085-0.257,0.085-0.393c0-0.456-0.211-0.77-0.632-0.94l-5.093-2.12v-12.475l5.093-2.119
	c0.421-0.171,0.632-0.483,0.632-0.939c0-0.138-0.028-0.269-0.085-0.394c-0.103-0.262-0.285-0.444-0.547-0.547
	c-0.262-0.114-0.524-0.114-0.786,0l-5.725,2.375h-0.017L7.143,481.76c-0.057,0.023-0.12,0.051-0.188,0.085
	c0.011,0-0.011,0.023-0.068,0.069c-0.045,0.034-0.074,0.057-0.085,0.068c0,0.011-0.023,0.04-0.068,0.085
	c-0.034,0.046-0.051,0.068-0.051,0.068c-0.08,0.114-0.131,0.239-0.154,0.376c0-0.012,0,0.018,0,0.085
	c-0.011,0.058-0.017,0.092-0.017,0.104c0,0.011,0.006,0.051,0.017,0.119c0,0.057,0,0.086,0,0.086
	c0.023,0.125,0.074,0.245,0.154,0.358c-0.011-0.012,0.006,0.012,0.051,0.068c0.034,0.046,0.057,0.074,0.068,0.085
	c0.011,0.012,0.04,0.035,0.085,0.069c0.045,0.045,0.068,0.067,0.068,0.067c0.068,0.034,0.131,0.063,0.188,0.086l16.697,6.921h0.017
	l5.725,2.376c0.262,0.113,0.524,0.113,0.786,0C30.63,492.834,30.812,492.652,30.915,492.39z M30.641,450.246
	c0.034-0.034,0.068-0.068,0.103-0.103c0.023-0.034,0.04-0.057,0.051-0.068c0.023-0.034,0.045-0.074,0.068-0.119
	c0.023-0.035,0.04-0.057,0.051-0.069c0.011-0.034,0.028-0.08,0.051-0.137c0.011-0.045,0.017-0.068,0.017-0.068
	c0.011-0.067,0.017-0.137,0.017-0.205c0-0.057-0.006-0.119-0.017-0.188c0-0.011-0.006-0.034-0.017-0.068
	c-0.011-0.046-0.023-0.086-0.034-0.12c-0.011-0.022-0.023-0.046-0.034-0.067c-0.011-0.034-0.028-0.069-0.051-0.104
	c-0.011-0.022-0.023-0.04-0.034-0.051c-0.034-0.046-0.045-0.057-0.034-0.034c0.023,0.023,0.011,0.005-0.034-0.052
	c-0.034-0.034-0.057-0.057-0.068-0.068c-0.023-0.022-0.051-0.045-0.085-0.067c-0.034-0.023-0.063-0.04-0.085-0.052
	c-0.023-0.022-0.051-0.039-0.085-0.052c-0.034-0.011-0.063-0.022-0.085-0.034c-0.023-0.011-0.057-0.022-0.103-0.033
	c-0.034-0.013-0.063-0.018-0.085-0.018c-0.034-0.012-0.068-0.017-0.103-0.017c-0.068,0-0.091,0-0.068,0H7.467
	c-0.285,0-0.524,0.097-0.718,0.29c-0.205,0.205-0.308,0.45-0.308,0.734c0,0.273,0.103,0.514,0.308,0.719
	c0.194,0.193,0.433,0.29,0.718,0.29h19.517L6.835,466.14c-0.387,0.296-0.501,0.679-0.342,1.146c0.16,0.455,0.484,0.683,0.974,0.683
	h22.507c0.285,0,0.524-0.102,0.718-0.307c0.205-0.194,0.308-0.434,0.308-0.718c0-0.285-0.103-0.524-0.308-0.719
	c-0.194-0.205-0.433-0.308-0.718-0.308H10.458l20.149-15.637c0,0,0.006-0.005,0.017-0.018
	C30.635,450.252,30.641,450.246,30.641,450.246z M8.527,439.873v-4.666c0-2.803,0.991-5.201,2.974-7.195
	c1.994-1.994,4.392-2.991,7.195-2.991s5.201,0.997,7.195,2.991c1.982,1.994,2.974,4.398,2.974,7.212l0.068,4.649H8.527z M31,440.881
	l-0.068-5.674c0-3.372-1.196-6.255-3.589-8.647s-5.275-3.589-8.647-3.589s-6.255,1.196-8.647,3.589s-3.589,5.275-3.589,8.647v5.691
	c0,0.284,0.103,0.523,0.308,0.718c0.205,0.205,0.45,0.307,0.735,0.307h22.473c0.285,0,0.53-0.102,0.735-0.307
	c0.194-0.194,0.291-0.434,0.291-0.718V440.881z M7.587,407.436c-0.285,0-0.524,0.104-0.718,0.309
	c-0.205,0.193-0.308,0.433-0.308,0.717c0,0.285,0.103,0.525,0.308,0.719c0.194,0.204,0.433,0.307,0.718,0.307h22.388
	c0.285,0,0.524-0.103,0.718-0.307c0.205-0.193,0.308-0.434,0.308-0.719c0-0.284-0.103-0.523-0.308-0.717
	c-0.194-0.205-0.433-0.309-0.718-0.309H7.587z M30.641,383.049c0.034-0.033,0.068-0.068,0.103-0.104
	c0.023-0.033,0.04-0.057,0.051-0.067c0.023-0.034,0.045-0.073,0.068-0.12c0.023-0.033,0.04-0.057,0.051-0.068
	c0.011-0.033,0.028-0.08,0.051-0.137c0.011-0.045,0.017-0.068,0.017-0.068c0.011-0.067,0.017-0.137,0.017-0.205
	c0-0.057-0.006-0.119-0.017-0.188c0-0.012-0.006-0.033-0.017-0.068c-0.011-0.045-0.023-0.086-0.034-0.119
	c-0.011-0.023-0.023-0.047-0.034-0.069c-0.011-0.034-0.028-0.067-0.051-0.103c-0.011-0.022-0.023-0.039-0.034-0.051
	c-0.034-0.046-0.045-0.057-0.034-0.035c0.023,0.023,0.011,0.006-0.034-0.051c-0.034-0.033-0.057-0.057-0.068-0.068
	c-0.023-0.022-0.051-0.045-0.085-0.068c-0.034-0.021-0.063-0.039-0.085-0.051c-0.023-0.023-0.051-0.04-0.085-0.051
	c-0.034-0.012-0.063-0.023-0.085-0.034c-0.023-0.013-0.057-0.023-0.103-0.034c-0.034-0.012-0.063-0.018-0.085-0.018
	c-0.034-0.012-0.068-0.018-0.103-0.018c-0.068,0-0.091,0-0.068,0H7.467c-0.285,0-0.524,0.098-0.718,0.291
	c-0.205,0.205-0.308,0.45-0.308,0.734c0,0.273,0.103,0.513,0.308,0.719c0.194,0.193,0.433,0.29,0.718,0.29h19.517L6.835,398.941
	c-0.387,0.298-0.501,0.679-0.342,1.146c0.16,0.456,0.484,0.685,0.974,0.685h22.507c0.285,0,0.524-0.104,0.718-0.309
	c0.205-0.193,0.308-0.434,0.308-0.717c0-0.285-0.103-0.523-0.308-0.719c-0.194-0.204-0.433-0.307-0.718-0.307H10.458l20.149-15.638
	c0,0,0.006-0.006,0.017-0.017C30.635,383.055,30.641,383.049,30.641,383.049z M31,367.514c0,1.8-0.37,3.407-1.111,4.819
	c-0.9,1.698-2.199,2.769-3.896,3.213c-0.262,0.069-0.519,0.035-0.769-0.102c-0.239-0.148-0.393-0.359-0.461-0.632
	c-0.068-0.263-0.034-0.519,0.103-0.77c0.148-0.239,0.353-0.393,0.615-0.461c1.185-0.308,2.091-1.105,2.717-2.393
	c0.513-1.07,0.769-2.295,0.769-3.674c0-1.492-0.479-2.774-1.436-3.845c-0.957-1.071-2.125-1.641-3.503-1.709
	c-0.991-0.046-1.869,0.296-2.632,1.025c-1.06,0.992-1.606,2.57-1.641,4.734c0,0.285-0.103,0.524-0.308,0.718
	s-0.444,0.291-0.718,0.291c-0.285-0.012-0.524-0.12-0.718-0.325c-0.194-0.194-0.291-0.433-0.291-0.718
	c0.045-2.734,0.809-4.796,2.29-6.186c1.173-1.117,2.541-1.635,4.102-1.556c1.925,0.08,3.555,0.855,4.888,2.325
	C30.333,363.726,31,365.475,31,367.514z M19.755,367.822c-0.034,2.734-0.792,4.796-2.273,6.186
	c-1.185,1.117-2.558,1.641-4.119,1.573c-1.925-0.092-3.555-0.872-4.888-2.342c-1.333-1.458-2-3.207-2-5.246
	c0-1.8,0.376-3.407,1.128-4.82c0.889-1.697,2.182-2.768,3.879-3.213c0.273-0.068,0.53-0.034,0.769,0.103
	c0.239,0.148,0.393,0.359,0.461,0.632c0.08,0.274,0.045,0.53-0.103,0.769c-0.137,0.24-0.342,0.393-0.615,0.462
	c-1.185,0.307-2.085,1.105-2.7,2.392c-0.524,1.071-0.786,2.296-0.786,3.675c0,1.492,0.479,2.774,1.436,3.845
	c0.957,1.071,2.13,1.641,3.521,1.709c0.98,0.045,1.852-0.296,2.615-1.026c1.06-0.991,1.606-2.569,1.641-4.733
	c0.011-0.285,0.114-0.524,0.308-0.718c0.205-0.194,0.45-0.291,0.735-0.291c0.273,0.012,0.507,0.114,0.701,0.308
	c0.194,0.205,0.291,0.444,0.291,0.718V367.822z M17.755,351.979H8.527v-6.767c0-1.424,0.45-2.643,1.35-3.657
	c0.9-1.014,1.988-1.521,3.264-1.521c1.253,0,2.33,0.495,3.23,1.487c0.889,0.979,1.35,2.164,1.384,3.554V351.979z M6.476,353.005
	c0,0.285,0.103,0.524,0.308,0.718c0.194,0.205,0.433,0.307,0.718,0.307h22.473c0.285,0,0.524-0.102,0.718-0.307
	c0.205-0.194,0.308-0.433,0.308-0.718c0-0.285-0.103-0.524-0.308-0.718c-0.194-0.205-0.433-0.308-0.718-0.308H19.789v-6.716
	c0.011-0.068,0.017-0.085,0.017-0.051c0-0.023-0.006-0.046-0.017-0.068v-0.206c0-0.022,0-0.068,0-0.136
	c-0.103-1.892-0.792-3.498-2.068-4.82c-1.288-1.321-2.814-1.982-4.58-1.982c-1.834,0-3.401,0.701-4.7,2.102
	c-1.31,1.413-1.965,3.116-1.965,5.11V353.005z M7.587,330.754c-0.285,0-0.524,0.102-0.718,0.308
	c-0.205,0.193-0.308,0.432-0.308,0.717c0,0.285,0.103,0.524,0.308,0.718c0.194,0.205,0.433,0.308,0.718,0.308h22.388
	c0.285,0,0.524-0.103,0.718-0.308c0.205-0.194,0.308-0.433,0.308-0.718c0-0.285-0.103-0.524-0.308-0.717
	c-0.194-0.206-0.433-0.308-0.718-0.308H7.587z M13.124,309.956c1.242,0,2.307,0.489,3.196,1.469
	c0.889,0.969,1.344,2.148,1.367,3.538v6.836H8.544v-6.716c0-1.413,0.45-2.621,1.35-3.624
	C10.783,310.457,11.859,309.956,13.124,309.956z M6.527,322.824c0,0.274,0.097,0.513,0.291,0.718
	c0.194,0.194,0.433,0.291,0.718,0.291h22.285c0.273,0,0.513-0.097,0.718-0.291c0.194-0.205,0.291-0.444,0.291-0.718
	c0-0.285-0.097-0.524-0.291-0.718c-0.205-0.205-0.444-0.307-0.718-0.307h-10.1v-5.708l10.715-5.281
	c0.376-0.182,0.564-0.484,0.564-0.906c0-0.159-0.034-0.307-0.103-0.444c-0.125-0.251-0.319-0.422-0.581-0.513
	c-0.262-0.091-0.519-0.074-0.769,0.052l-9.929,4.87c-0.262-1.697-1.002-3.105-2.222-4.221c-1.23-1.139-2.655-1.709-4.272-1.709
	c-1.823,0-3.378,0.695-4.666,2.085c-1.288,1.401-1.931,3.087-1.931,5.059V322.824z M23.224,299.018l-13.022-5.4l13.022-5.401
	V299.018z M30.915,303.308c0.057-0.126,0.085-0.257,0.085-0.393c0-0.456-0.211-0.769-0.632-0.94l-5.093-2.12V287.38l5.093-2.119
	c0.421-0.171,0.632-0.484,0.632-0.94c0-0.137-0.028-0.268-0.085-0.393c-0.103-0.262-0.285-0.445-0.547-0.547
	c-0.262-0.114-0.524-0.114-0.786,0l-5.725,2.375h-0.017l-16.697,6.922c-0.057,0.023-0.12,0.051-0.188,0.085
	c0.011,0-0.011,0.023-0.068,0.069c-0.045,0.034-0.074,0.057-0.085,0.068c0,0.011-0.023,0.04-0.068,0.085
	c-0.034,0.046-0.051,0.069-0.051,0.069c-0.08,0.114-0.131,0.239-0.154,0.376c0-0.012,0,0.017,0,0.085
	c-0.011,0.057-0.017,0.091-0.017,0.103c0,0.011,0.006,0.051,0.017,0.119c0,0.057,0,0.086,0,0.086
	c0.023,0.125,0.074,0.245,0.154,0.359c-0.011-0.012,0.006,0.011,0.051,0.068c0.034,0.046,0.057,0.074,0.068,0.085
	c0.011,0.012,0.04,0.035,0.085,0.069c0.045,0.045,0.068,0.068,0.068,0.068c0.068,0.034,0.131,0.063,0.188,0.086l16.697,6.921h0.017
	l5.725,2.375c0.262,0.114,0.524,0.114,0.786,0C30.63,303.752,30.812,303.57,30.915,303.308z M29.975,273.554
	c0.285,0,0.53-0.097,0.735-0.29c0.194-0.205,0.291-0.445,0.291-0.718c0-0.285-0.097-0.53-0.291-0.735
	c-0.205-0.194-0.45-0.29-0.735-0.29H8.527v-6.751c0-0.285-0.097-0.524-0.291-0.718c-0.194-0.205-0.433-0.307-0.718-0.307
	s-0.524,0.102-0.718,0.307c-0.205,0.194-0.308,0.433-0.308,0.718v15.535c0,0.285,0.103,0.529,0.308,0.735
	c0.194,0.193,0.433,0.29,0.718,0.29s0.524-0.097,0.718-0.29c0.194-0.206,0.291-0.45,0.291-0.735v-6.751H29.975z M7.587,257.814
	c-0.285,0-0.524,0.103-0.718,0.308c-0.205,0.194-0.308,0.433-0.308,0.718c0,0.285,0.103,0.524,0.308,0.718
	c0.194,0.205,0.433,0.307,0.718,0.307h22.388c0.285,0,0.524-0.102,0.718-0.307c0.205-0.194,0.308-0.433,0.308-0.718
	c0-0.285-0.103-0.524-0.308-0.718c-0.194-0.205-0.433-0.308-0.718-0.308H7.587z M30.641,233.171
	c0.034-0.034,0.068-0.068,0.103-0.103c0.023-0.034,0.04-0.057,0.051-0.068c0.023-0.034,0.045-0.074,0.068-0.12
	c0.023-0.034,0.04-0.057,0.051-0.068c0.011-0.034,0.028-0.08,0.051-0.137c0.011-0.045,0.017-0.068,0.017-0.068
	c0.011-0.068,0.017-0.137,0.017-0.205c0-0.057-0.006-0.12-0.017-0.188c0-0.012-0.006-0.034-0.017-0.068
	c-0.011-0.046-0.023-0.086-0.034-0.12c-0.011-0.023-0.023-0.046-0.034-0.068c-0.011-0.035-0.028-0.069-0.051-0.103
	c-0.011-0.023-0.023-0.04-0.034-0.051c-0.034-0.046-0.045-0.057-0.034-0.034c0.023,0.022,0.011,0.005-0.034-0.052
	c-0.034-0.034-0.057-0.057-0.068-0.068c-0.023-0.023-0.051-0.046-0.085-0.068c-0.034-0.023-0.063-0.04-0.085-0.052
	c-0.023-0.023-0.051-0.04-0.085-0.051s-0.063-0.023-0.085-0.034c-0.023-0.012-0.057-0.023-0.103-0.034
	c-0.034-0.012-0.063-0.017-0.085-0.017c-0.034-0.012-0.068-0.018-0.103-0.018c-0.068,0-0.091,0-0.068,0H7.467
	c-0.285,0-0.524,0.097-0.718,0.291c-0.205,0.205-0.308,0.45-0.308,0.735c0,0.273,0.103,0.513,0.308,0.718
	c0.194,0.193,0.433,0.29,0.718,0.29h19.517L6.835,249.064c-0.387,0.297-0.501,0.678-0.342,1.145c0.16,0.456,0.484,0.684,0.974,0.684
	h22.507c0.285,0,0.524-0.102,0.718-0.308c0.205-0.193,0.308-0.432,0.308-0.717c0-0.285-0.103-0.524-0.308-0.718
	c-0.194-0.205-0.433-0.308-0.718-0.308H10.458l20.149-15.637c0,0,0.006-0.006,0.017-0.017S30.641,233.171,30.641,233.171z
	 M8.527,214.235c0-2.814,1.002-5.218,3.008-7.212c1.994-2.005,4.398-3.007,7.212-3.007s5.218,1.002,7.212,3.007
	c1.994,1.994,2.991,4.398,2.991,7.212s-0.997,5.218-2.991,7.212c-1.994,1.994-4.398,2.991-7.212,2.991s-5.218-0.997-7.212-2.991
	C9.529,219.453,8.527,217.049,8.527,214.235z M31,214.235c0-3.383-1.196-6.272-3.589-8.664c-2.393-2.393-5.281-3.589-8.665-3.589
	s-6.272,1.196-8.665,3.589c-2.393,2.392-3.589,5.281-3.589,8.664c0,3.384,1.196,6.272,3.589,8.665
	c2.393,2.392,5.281,3.589,8.665,3.589s6.272-1.197,8.665-3.589C29.804,220.507,31,217.619,31,214.235z M31,176.672
	c0,3.384-1.202,6.272-3.606,8.664c-2.393,2.404-5.281,3.606-8.665,3.606s-6.278-1.202-8.682-3.606
	c-2.393-2.392-3.589-5.28-3.589-8.664c0-2.78,0.843-5.269,2.529-7.468c0.182-0.228,0.41-0.359,0.684-0.393
	c0.285-0.046,0.541,0.022,0.769,0.205c0.228,0.171,0.359,0.398,0.393,0.683c0.034,0.274-0.034,0.524-0.205,0.752
	c-1.413,1.834-2.119,3.908-2.119,6.221c0,2.814,1.002,5.218,3.008,7.212c1.994,1.994,4.398,2.991,7.212,2.991
	s5.218-0.997,7.212-2.991c1.994-1.994,2.991-4.398,2.991-7.212c0-2.643-0.883-4.933-2.649-6.87
	c-0.194-0.217-0.285-0.467-0.273-0.752c0.011-0.285,0.125-0.524,0.342-0.718c0.205-0.182,0.45-0.268,0.735-0.256
	c0.285,0.011,0.524,0.119,0.718,0.324C29.935,170.747,31,173.505,31,176.672z M31,168.896c0,0.285-0.103,0.53-0.308,0.735
	c-0.194,0.194-0.433,0.29-0.718,0.29H19.14v8.579c0,0.285-0.097,0.53-0.291,0.735c-0.205,0.205-0.45,0.308-0.735,0.308
	s-0.524-0.103-0.718-0.308c-0.205-0.205-0.308-0.45-0.308-0.735v-9.604c0-0.285,0.103-0.53,0.308-0.735
	c0.194-0.194,0.433-0.29,0.718-0.29h11.86c0.285,0,0.524,0.096,0.718,0.29C30.897,168.366,31,168.611,31,168.896z M31,147.072
	c0-0.285-0.103-0.524-0.308-0.718c-0.194-0.205-0.433-0.307-0.718-0.307s-0.524,0.102-0.718,0.307
	c-0.205,0.194-0.308,0.433-0.308,0.718v12.544h-9.194v-9.382c0-0.285-0.103-0.524-0.308-0.718c-0.194-0.205-0.433-0.308-0.718-0.308
	s-0.524,0.103-0.718,0.308c-0.205,0.194-0.308,0.433-0.308,0.718v9.382H8.51l0.034-12.544c0-0.285-0.097-0.524-0.291-0.718
	c-0.205-0.205-0.45-0.307-0.735-0.307c-0.273,0-0.513,0.102-0.718,0.307c-0.205,0.194-0.308,0.433-0.308,0.718l-0.034,13.57
	c-0.011,0.273,0.091,0.512,0.308,0.717c0.194,0.205,0.433,0.308,0.718,0.308h22.49c0.285,0,0.524-0.103,0.718-0.308
	c0.205-0.193,0.308-0.433,0.308-0.717V147.072z M29.975,135.639c0.285,0,0.53-0.097,0.735-0.29c0.194-0.205,0.291-0.445,0.291-0.718
	c0-0.285-0.097-0.53-0.291-0.735c-0.205-0.194-0.45-0.291-0.735-0.291H8.527v-6.75c0-0.285-0.097-0.524-0.291-0.718
	c-0.194-0.205-0.433-0.307-0.718-0.307s-0.524,0.102-0.718,0.307c-0.205,0.194-0.308,0.433-0.308,0.718v15.535
	c0,0.284,0.103,0.529,0.308,0.735c0.194,0.193,0.433,0.29,0.718,0.29s0.524-0.097,0.718-0.29c0.194-0.206,0.291-0.451,0.291-0.735
	v-6.751H29.975z M19.755,111.252v-9.382c0-0.285-0.103-0.524-0.308-0.718c-0.194-0.205-0.433-0.308-0.718-0.308
	s-0.524,0.104-0.718,0.308c-0.205,0.194-0.308,0.433-0.308,0.718v9.382H8.51l0.034-12.544c0-0.285-0.097-0.524-0.291-0.718
	c-0.205-0.205-0.45-0.308-0.735-0.308c-0.273,0-0.513,0.103-0.718,0.308c-0.205,0.194-0.308,0.433-0.308,0.718l-0.034,13.569
	c-0.011,0.262,0.091,0.502,0.308,0.718c0.194,0.205,0.433,0.308,0.718,0.308h22.49c0.285,0,0.524-0.103,0.718-0.308
	c0.205-0.194,0.308-0.433,0.308-0.718c0-0.284-0.103-0.524-0.308-0.717c-0.194-0.206-0.433-0.308-0.718-0.308H19.755z M13.124,79.96
	c1.242,0,2.307,0.49,3.196,1.47c0.889,0.968,1.344,2.147,1.367,3.538v6.836H8.544v-6.716c0-1.413,0.45-2.621,1.35-3.623
	C10.783,80.462,11.859,79.96,13.124,79.96z M6.527,92.829c0,0.273,0.097,0.513,0.291,0.718c0.194,0.194,0.433,0.291,0.718,0.291
	h22.285c0.273,0,0.513-0.097,0.718-0.291c0.194-0.205,0.291-0.444,0.291-0.718c0-0.285-0.097-0.524-0.291-0.718
	c-0.205-0.205-0.444-0.308-0.718-0.308h-10.1v-5.708l10.715-5.281C30.812,80.633,31,80.331,31,79.909
	c0-0.16-0.034-0.308-0.103-0.444c-0.125-0.25-0.319-0.421-0.581-0.513s-0.519-0.074-0.769,0.051l-9.929,4.871
	c-0.262-1.698-1.002-3.104-2.222-4.221c-1.23-1.139-2.655-1.709-4.272-1.709c-1.823,0-3.378,0.695-4.666,2.085
	c-1.288,1.401-1.931,3.087-1.931,5.059V92.829z M8.527,61.794c0-2.814,1.002-5.218,3.008-7.212c1.994-2.005,4.398-3.008,7.212-3.008
	s5.218,1.002,7.212,3.008c1.994,1.994,2.991,4.398,2.991,7.212s-0.997,5.218-2.991,7.212s-4.398,2.991-7.212,2.991
	S13.528,71,11.535,69.006C9.529,67.012,8.527,64.608,8.527,61.794z M31,61.794c0-3.384-1.196-6.272-3.589-8.665
	s-5.281-3.589-8.665-3.589s-6.272,1.196-8.665,3.589s-3.589,5.281-3.589,8.665s1.196,6.272,3.589,8.665s5.281,3.589,8.665,3.589
	s6.272-1.196,8.665-3.589S31,65.178,31,61.794z M11.227,41.713l15.159-9.177c0,0,0.006-0.006,0.017-0.017c0.011,0,0.017,0,0.017,0
	c0.023-0.023,0.051-0.045,0.085-0.068c0.023-0.023,0.045-0.045,0.068-0.068s0.045-0.045,0.068-0.068
	c0.023-0.034,0.045-0.063,0.068-0.085c0.034-0.057,0.04-0.068,0.017-0.034c0-0.011,0.006-0.017,0.017-0.017c0-0.011,0-0.023,0-0.034
	c0.023-0.034,0.04-0.068,0.051-0.103c0.011-0.023,0.023-0.051,0.034-0.085s0.017-0.068,0.017-0.103
	c0.011-0.023,0.017-0.051,0.017-0.085c0.011-0.034,0.017-0.068,0.017-0.103s-0.006-0.068-0.017-0.103
	c0-0.034-0.006-0.063-0.017-0.085c0-0.034-0.006-0.068-0.017-0.103s-0.023-0.063-0.034-0.085c-0.011-0.034-0.028-0.068-0.051-0.103
	c-0.023-0.045-0.028-0.063-0.017-0.051c0.023,0.034,0.017,0.023-0.017-0.034c-0.023-0.023-0.045-0.051-0.068-0.085
	c-0.023-0.023-0.045-0.045-0.068-0.068c-0.011-0.011-0.034-0.034-0.068-0.068c-0.034-0.023-0.063-0.045-0.085-0.068
	c-0.011,0-0.017,0-0.017,0c-0.011-0.011-0.017-0.017-0.017-0.017l-15.159-9.177h18.748c0.285,0,0.53-0.097,0.735-0.291
	C30.903,21.12,31,20.881,31,20.607c0-0.285-0.097-0.524-0.291-0.718c-0.205-0.205-0.45-0.308-0.735-0.308H7.57
	c-0.513,0-0.837,0.25-0.974,0.752c-0.137,0.49,0.017,0.872,0.461,1.145l16.833,10.186L7.057,41.85
	c-0.444,0.273-0.598,0.655-0.461,1.145c0.137,0.501,0.461,0.752,0.974,0.752h22.405c0.285,0,0.53-0.097,0.735-0.291
	C30.903,43.251,31,43.006,31,42.722c0-0.273-0.097-0.513-0.291-0.718c-0.205-0.194-0.45-0.291-0.735-0.291H11.227z M6.63,11.003
	c0.148,0.239,0.353,0.393,0.615,0.461c0.273,0.068,0.536,0.028,0.786-0.12c3.031-1.823,6.603-2.734,10.715-2.734
	s7.685,0.912,10.715,2.734c0.239,0.148,0.496,0.188,0.769,0.12s0.479-0.222,0.615-0.461c0.103-0.16,0.154-0.336,0.154-0.53
	c0-0.376-0.165-0.667-0.496-0.872c-3.35-2.017-7.269-3.025-11.758-3.025S10.333,7.585,6.972,9.602
	C6.732,9.75,6.579,9.96,6.51,10.234S6.482,10.764,6.63,11.003z"/>
<path fill="none" stroke="#FFFFFF" stroke-width="2" d="M38,661.5V760"/>
<g>
	<path fill="#FFFFFF" d="M44.835,645.747l15.338-5.929c1.319-0.432,1.752-1.128,1.752-2.399h0.6v6.097h-0.6
		c0-1.585-0.192-2.305-0.937-2.305c-0.192,0-0.433,0.048-0.72,0.144l-4.033,1.561v7.225l3.48,1.296
		c0.457,0.145,0.816,0.24,1.104,0.24c0.864,0,1.104-0.696,1.104-2.28h0.6v5.232h-0.6c0-1.32-0.313-1.8-2.496-2.544l-14.042-5.017
		L44.835,645.747z M46.467,646.611l9.073,3.288v-6.721L46.467,646.611z"/>
	<path fill="#FFFFFF" d="M62.524,635.621h-0.6c0-1.824-0.553-2.28-1.537-2.28H47.354c-1.127,0-1.487,0.456-1.487,2.28h-0.601v-6.289
		h0.601c0,2.064,0.36,2.496,1.487,2.496h13.033c0.984,0,1.537-0.432,1.537-1.776v-2.472c0-2.305-1.465-4.32-3.816-5.641l0.24-0.456
		l4.176,1.752V635.621z"/>
	<path fill="#FFFFFF" d="M62.524,619.638h-0.6c0-1.824-0.553-2.28-1.537-2.28H47.354c-1.127,0-1.487,0.456-1.487,2.28h-0.601v-6.289
		h0.601c0,2.064,0.36,2.496,1.487,2.496h13.033c0.984,0,1.537-0.432,1.537-1.776v-2.472c0-2.305-1.465-4.32-3.816-5.641l0.24-0.456
		l4.176,1.752V619.638z"/>
	<path fill="#FFFFFF" d="M53.907,580.108c4.513,0,9.001,2.496,9.001,7.681c0,4.969-4.488,7.44-9.001,7.44
		c-4.536,0-9.049-2.472-9.049-7.44C44.858,582.604,49.371,580.108,53.907,580.108z M53.907,593.621c4.201,0,8.401-1.943,8.401-5.832
		c0-4.08-4.2-6.024-8.401-6.024c-4.199,0-8.424,1.944-8.424,6.024C45.483,591.678,49.708,593.621,53.907,593.621z"/>
	<path fill="#FFFFFF" d="M62.524,577.662h-0.6c0-1.944-0.385-2.28-1.776-2.28H47.403c-1.008,0-1.536,0.336-1.536,2.28h-0.601
		v-12.434l3.937-1.728l0.192,0.359c-1.44,0.984-3.528,2.761-3.528,5.809v2.521c0,1.128,0.528,1.68,1.536,1.68h5.736v-3.504
		c0-1.584-0.24-2.688-2.904-2.688v-0.576h6.744v0.576c-2.447,0-3.191,1.104-3.191,2.712v3.48h6.36c1.392,0,1.776-0.552,1.776-2.496
		h0.6V577.662z"/>
	<path fill="#FFFFFF" d="M62.524,553.687H61.9c0-1.681-0.456-2.28-1.752-2.28H47.451c-1.104,0-1.584,0.6-1.584,2.28h-0.601v-7.441
		c0-5.856,4.32-8.305,8.617-8.305c4.344,0,8.641,2.448,8.641,8.305V553.687z M60.148,549.894c1.296,0,1.752-0.6,1.752-1.92v-1.729
		c0-4.44-3.984-6.672-8.017-6.672c-4.008,0-8.017,2.231-8.017,6.672v1.729c0,1.32,0.479,1.92,1.584,1.92H60.148z"/>
	<path fill="#FFFFFF" d="M62.524,535.687h-0.6c0-1.633-0.504-2.28-1.656-2.28H47.403c-1.104,0-1.536,0.647-1.536,2.28h-0.601
		v-12.602l4.08-1.68l0.24,0.359c-1.464,1.2-3.72,2.16-3.72,5.881v2.353c0,1.248,0.432,1.896,1.536,1.896h5.784v-3.648
		c0-1.68-0.72-2.592-3-2.592v-0.576h6.72v0.576c-2.135,0-3.072,0.912-3.072,2.592v3.648h6.434c1.152,0,1.656-0.647,1.656-1.92
		v-2.256c0-2.784-1.152-4.488-3.816-6.409l0.191-0.432l4.225,1.632V535.687z"/>
	<path fill="#FFFFFF" d="M58.108,517.614c1.943-1.272,4.2-3.265,4.2-6.649c0-2.424-0.984-4.271-3.769-4.271
		c-2.352,0-3.12,1.439-4.2,5.16c-0.792,2.664-1.992,5.544-5.112,5.544c-2.017,0-4.369-1.271-4.369-5.136
		c0-1.729,0.648-2.761,0.648-3.385c0-0.12,0-0.216-0.048-0.288l-0.433-1.176l4.32-1.561l0.24,0.36
		c-2.376,1.416-4.128,3.36-4.128,6.145c0,1.944,0.888,3.744,3.36,3.744c2.544,0,3.504-2.352,4.2-4.896
		c0.888-3.24,1.992-5.88,5.064-5.88c3.384,0,4.824,2.496,4.824,5.568c0,1.704-0.768,3.216-0.768,3.768
		c0,0.528,0.336,1.225,0.72,1.753l-4.561,1.68L58.108,517.614z"/>
	<path fill="#FFFFFF" d="M45.267,502.351v-6.48h0.601c0,1.872,0.36,2.496,1.56,2.496h13.082c0.959,0,1.416-0.624,1.416-2.496h0.6
		v6.48h-0.6c0-1.872-0.457-2.496-1.416-2.496H47.427c-1.199,0-1.56,0.624-1.56,2.496H45.267z"/>
	<path fill="#FFFFFF" d="M54.724,477.533h0.624c0,1.512,0.576,1.992,1.704,1.992h5.473v1.08l-1.248,0.408
		c0.672,1.032,1.632,2.4,1.632,4.681c0,4.56-3.12,7.561-9.001,7.561c-5.279,0-9.049-3.145-9.049-7.657
		c0-1.464,0.289-2.664,0.504-3.216l-0.479-1.944l4.296-1.656l0.168,0.384c-1.631,1.272-3.888,3.169-3.888,6.313
		c0,3.457,3.505,6.145,8.329,6.145c5.76,0,8.521-2.928,8.521-5.928c0-2.593-1.921-4.681-3.384-4.681h-1.873
		c-1.128,0-1.704,0.504-1.704,2.664h-0.624V477.533z"/>
	<path fill="#FFFFFF" d="M62.524,475.711h-0.6c0-1.704-0.457-2.28-1.656-2.28H47.522c-1.199,0-1.655,0.576-1.655,2.28h-0.601v-3.24
		l14.449-10.945H47.187c-0.936,0-1.319,0.624-1.319,2.496h-0.601v-5.496h0.601c0,1.584,0.407,2.304,1.319,2.304h15.458v0.384
		L47.331,472.71h12.938c1.199,0,1.656-0.527,1.656-2.496h0.6V475.711z"/>
	<path fill="#FFFFFF" d="M65.501,455.671c-1.08-1.2-1.633-1.632-2.4-1.632c-0.36,0-0.6,0.144-0.6,0.479
		c0,0.36-0.457,0.889-1.152,0.889c-0.648,0-1.2-0.576-1.2-1.177c0-0.72,0.456-1.367,1.56-1.367c1.92,0,3.049,1.199,4.08,2.544
		L65.501,455.671z"/>
	<path fill="#FFFFFF" d="M62.524,441.752h-0.6c0-1.944-0.385-2.28-1.776-2.28H47.403c-1.008,0-1.536,0.336-1.536,2.28h-0.601
		v-12.434l3.937-1.728l0.192,0.359c-1.44,0.984-3.528,2.761-3.528,5.809v2.521c0,1.128,0.528,1.68,1.536,1.68h5.736v-3.504
		c0-1.584-0.24-2.688-2.904-2.688v-0.576h6.744v0.576c-2.447,0-3.191,1.104-3.191,2.712v3.48h6.36c1.392,0,1.776-0.552,1.776-2.496
		h0.6V441.752z"/>
	<path fill="#FFFFFF" d="M44.835,416.911l15.338-5.929c1.319-0.432,1.752-1.128,1.752-2.399h0.6v6.097h-0.6
		c0-1.585-0.192-2.305-0.937-2.305c-0.192,0-0.433,0.048-0.72,0.144l-4.033,1.561v7.225l3.48,1.296
		c0.457,0.145,0.816,0.24,1.104,0.24c0.864,0,1.104-0.696,1.104-2.28h0.6v5.232h-0.6c0-1.32-0.313-1.8-2.496-2.544l-14.042-5.017
		L44.835,416.911z M46.467,417.775l9.073,3.288v-6.721L46.467,417.775z"/>
	<path fill="#FFFFFF" d="M58.108,405.704c1.943-1.272,4.2-3.265,4.2-6.649c0-2.424-0.984-4.271-3.769-4.271
		c-2.352,0-3.12,1.439-4.2,5.16c-0.792,2.664-1.992,5.544-5.112,5.544c-2.017,0-4.369-1.271-4.369-5.136
		c0-1.729,0.648-2.761,0.648-3.385c0-0.12,0-0.216-0.048-0.288l-0.433-1.176l4.32-1.561l0.24,0.36
		c-2.376,1.416-4.128,3.36-4.128,6.145c0,1.944,0.888,3.744,3.36,3.744c2.544,0,3.504-2.352,4.2-4.896
		c0.888-3.24,1.992-5.88,5.064-5.88c3.384,0,4.824,2.496,4.824,5.568c0,1.704-0.768,3.216-0.768,3.768
		c0,0.528,0.336,1.225,0.72,1.753l-4.561,1.68L58.108,405.704z"/>
	<path fill="#FFFFFF" d="M62.524,390.681h-0.6c0-1.801-0.457-2.28-1.561-2.28H47.235c-0.937,0-1.368,0.408-1.368,2.28h-0.601v-6.097
		h0.601c0,1.752,0.432,2.304,1.368,2.304h6.072v-9.385h-6.072c-0.937,0-1.368,0.648-1.368,2.305h-0.601v-6.097h0.601
		c0,1.729,0.432,2.304,1.368,2.304h13.129c1.104,0,1.561-0.575,1.561-2.304h0.6v6.097h-0.6c0-1.656-0.457-2.305-1.561-2.305h-6.457
		v9.385h6.457c1.104,0,1.561-0.527,1.561-2.304h0.6V390.681z"/>
	<path fill="#FFFFFF" d="M45.267,371.457v-6.48h0.601c0,1.872,0.36,2.496,1.56,2.496h13.082c0.959,0,1.416-0.624,1.416-2.496h0.6
		v6.48h-0.6c0-1.872-0.457-2.496-1.416-2.496H47.427c-1.199,0-1.56,0.624-1.56,2.496H45.267z"/>
	<path fill="#FFFFFF" d="M53.907,347.264c4.513,0,9.001,2.496,9.001,7.681c0,4.969-4.488,7.44-9.001,7.44
		c-4.536,0-9.049-2.472-9.049-7.44C44.858,349.76,49.371,347.264,53.907,347.264z M53.907,360.776c4.201,0,8.401-1.943,8.401-5.832
		c0-4.08-4.2-6.024-8.401-6.024c-4.199,0-8.424,1.944-8.424,6.024C45.483,358.833,49.708,360.776,53.907,360.776z"/>
	<path fill="#FFFFFF" d="M62.524,344.817h-0.6c0-1.704-0.457-2.28-1.656-2.28H47.522c-1.199,0-1.655,0.576-1.655,2.28h-0.601v-3.24
		l14.449-10.945H47.187c-0.936,0-1.319,0.624-1.319,2.496h-0.601v-5.496h0.601c0,1.584,0.407,2.304,1.319,2.304h15.458v0.384
		l-15.313,11.497h12.938c1.199,0,1.656-0.527,1.656-2.496h0.6V344.817z"/>
	<path fill="#FFFFFF" d="M65.501,324.776c-1.08-1.2-1.633-1.632-2.4-1.632c-0.36,0-0.6,0.144-0.6,0.479
		c0,0.36-0.457,0.889-1.152,0.889c-0.648,0-1.2-0.576-1.2-1.177c0-0.72,0.456-1.367,1.56-1.367c1.92,0,3.049,1.199,4.08,2.544
		L65.501,324.776z"/>
	<path fill="#FFFFFF" d="M62.524,310.786h-0.6c0-1.776-0.48-2.28-1.656-2.28H47.187c-0.959,0-1.319,0.552-1.319,2.28h-0.601v-4.32
		l15.05-5.641l-15.05-5.616v-4.465h0.601c0,1.92,0.384,2.305,1.319,2.305h13.082c1.056,0,1.656-0.504,1.656-2.305h0.6v6.072h-0.6
		c0-1.752-0.601-2.28-1.656-2.28H46.083v0.265l16.609,6.217v0.384l-16.273,6.145v0.288h13.85c1.176,0,1.656-0.528,1.656-2.305h0.6
		V310.786z"/>
	<path fill="#FFFFFF" d="M53.907,273.32c4.513,0,9.001,2.496,9.001,7.681c0,4.969-4.488,7.44-9.001,7.44
		c-4.536,0-9.049-2.472-9.049-7.44C44.858,275.816,49.371,273.32,53.907,273.32z M53.907,286.833c4.201,0,8.401-1.943,8.401-5.832
		c0-4.08-4.2-6.024-8.401-6.024c-4.199,0-8.424,1.944-8.424,6.024C45.483,284.89,49.708,286.833,53.907,286.833z"/>
	<path fill="#FFFFFF" d="M45.267,259.785v-5.257h0.601c0,1.632,0.264,1.968,1.68,2.472l15.361,5.593v0.408l-15.722,5.664
		c-0.768,0.265-1.319,0.648-1.319,2.4h-0.601v-6.097h0.601c0,1.656,0.096,2.28,0.647,2.28c0.121,0,0.289-0.023,0.48-0.096
		l13.273-4.801l-12.77-4.608c-0.313-0.12-0.6-0.191-0.816-0.191c-0.6,0-0.815,0.552-0.815,2.232H45.267z"/>
	<path fill="#FFFFFF" d="M45.267,252.514v-6.48h0.601c0,1.872,0.36,2.496,1.56,2.496h13.082c0.959,0,1.416-0.624,1.416-2.496h0.6
		v6.48h-0.6c0-1.872-0.457-2.496-1.416-2.496H47.427c-1.199,0-1.56,0.624-1.56,2.496H45.267z"/>
	<path fill="#FFFFFF" d="M62.524,243.874h-0.6c0-1.633-0.504-2.28-1.656-2.28H47.403c-1.104,0-1.536,0.647-1.536,2.28h-0.601
		v-12.602l4.08-1.68l0.24,0.359c-1.464,1.2-3.72,2.16-3.72,5.881v2.353c0,1.248,0.432,1.896,1.536,1.896h5.784v-3.648
		c0-1.68-0.72-2.592-3-2.592v-0.576h6.72v0.576c-2.135,0-3.072,0.912-3.072,2.592v3.648h6.434c1.152,0,1.656-0.647,1.656-1.92
		v-2.256c0-2.784-1.152-4.488-3.816-6.409l0.191-0.432l4.225,1.632V243.874z"/>
	<path fill="#FFFFFF" d="M58.108,225.803c1.943-1.272,4.2-3.265,4.2-6.649c0-2.424-0.984-4.271-3.769-4.271
		c-2.352,0-3.12,1.439-4.2,5.16c-0.792,2.664-1.992,5.544-5.112,5.544c-2.017,0-4.369-1.271-4.369-5.136
		c0-1.729,0.648-2.761,0.648-3.385c0-0.12,0-0.216-0.048-0.288l-0.433-1.176l4.32-1.561l0.24,0.36
		c-2.376,1.416-4.128,3.36-4.128,6.145c0,1.944,0.888,3.744,3.36,3.744c2.544,0,3.504-2.352,4.2-4.896
		c0.888-3.24,1.992-5.88,5.064-5.88c3.384,0,4.824,2.496,4.824,5.568c0,1.704-0.768,3.216-0.768,3.768
		c0,0.528,0.336,1.225,0.72,1.753l-4.561,1.68L58.108,225.803z"/>
	<path fill="#FFFFFF" d="M65.501,209.843c-1.08-1.2-1.633-1.632-2.4-1.632c-0.36,0-0.6,0.144-0.6,0.479
		c0,0.36-0.457,0.889-1.152,0.889c-0.648,0-1.2-0.576-1.2-1.177c0-0.72,0.456-1.367,1.56-1.367c1.92,0,3.049,1.199,4.08,2.544
		L65.501,209.843z"/>
	<path fill="#FFFFFF" d="M62.524,195.924h-0.6c0-1.801-0.313-2.28-1.584-2.28H47.547c-1.176,0-1.68,0.479-1.68,2.28h-0.601v-8.281
		c0-3.648,1.705-5.712,4.009-5.712c1.681,0,3.12,0.912,3.888,3.744c0.625-3.288,2.353-4.513,4.609-4.513
		c2.472,0,4.752,2.017,4.752,6.001V195.924z M53.044,192.131v-4.44c0-2.448-2.041-4.128-3.889-4.128c-1.488,0-3.288,1.2-3.288,4.128
		v2.425c0,1.416,0.504,2.016,1.68,2.016H53.044z M53.644,192.131h6.697c1.271,0,1.584-0.6,1.584-2.016v-2.641
		c0-3.072-2.041-4.729-4.152-4.729c-2.089,0-4.129,1.872-4.129,4.536V192.131z"/>
	<path fill="#FFFFFF" d="M53.907,163.378c4.513,0,9.001,2.496,9.001,7.681c0,4.969-4.488,7.44-9.001,7.44
		c-4.536,0-9.049-2.472-9.049-7.44C44.858,165.874,49.371,163.378,53.907,163.378z M53.907,176.891c4.201,0,8.401-1.943,8.401-5.832
		c0-4.08-4.2-6.024-8.401-6.024c-4.199,0-8.424,1.944-8.424,6.024C45.483,174.947,49.708,176.891,53.907,176.891z"/>
	<path fill="#FFFFFF" d="M53.907,145.378c4.513,0,9.001,2.496,9.001,7.681c0,4.969-4.488,7.44-9.001,7.44
		c-4.536,0-9.049-2.472-9.049-7.44C44.858,147.874,49.371,145.378,53.907,145.378z M53.907,158.891c4.201,0,8.401-1.943,8.401-5.832
		c0-4.08-4.2-6.024-8.401-6.024c-4.199,0-8.424,1.944-8.424,6.024C45.483,156.947,49.708,158.891,53.907,158.891z"/>
	<path fill="#FFFFFF" d="M62.524,142.835h-0.6c0-1.872-0.457-2.28-1.393-2.28H47.476c-1.32,0-1.608,0.36-1.608,2.28h-0.601v-6.097
		h0.601c0,1.801,0.288,2.305,1.56,2.305h7.441l-7.417-8.209c-0.216-0.191-0.433-0.336-0.672-0.336c-0.48,0-0.912,0.601-0.912,2.305
		h-0.601v-5.856h0.601c0,1.031,0.456,1.655,1.487,2.76l4.393,4.849l8.785-6.001c1.152-0.72,1.393-0.96,1.393-2.64h0.6v6.433h-0.6
		c0-1.44-0.097-2.328-0.648-2.328c-0.12,0-0.288,0.071-0.48,0.168l-8.088,5.448l3.119,3.408h4.729c0.912,0,1.369-0.408,1.369-2.305
		h0.6V142.835z"/>
	<path fill="#FFFFFF" d="M58.108,122.868c1.943-1.272,4.2-3.265,4.2-6.649c0-2.424-0.984-4.271-3.769-4.271
		c-2.352,0-3.12,1.439-4.2,5.16c-0.792,2.664-1.992,5.544-5.112,5.544c-2.017,0-4.369-1.271-4.369-5.136
		c0-1.729,0.648-2.761,0.648-3.385c0-0.12,0-0.216-0.048-0.288l-0.433-1.176l4.32-1.561l0.24,0.36
		c-2.376,1.416-4.128,3.36-4.128,6.145c0,1.944,0.888,3.744,3.36,3.744c2.544,0,3.504-2.352,4.2-4.896
		c0.888-3.24,1.992-5.88,5.064-5.88c3.384,0,4.824,2.496,4.824,5.568c0,1.704-0.768,3.216-0.768,3.768
		c0,0.528,0.336,1.225,0.72,1.753l-4.561,1.68L58.108,122.868z"/>
	<path fill="#FFFFFF" d="M65.501,106.907c-1.08-1.2-1.633-1.632-2.4-1.632c-0.36,0-0.6,0.144-0.6,0.479
		c0,0.36-0.457,0.889-1.152,0.889c-0.648,0-1.2-0.576-1.2-1.177c0-0.72,0.456-1.367,1.56-1.367c1.92,0,3.049,1.199,4.08,2.544
		L65.501,106.907z"/>
	<path fill="#FFFFFF" d="M62.524,92.917h-0.6c0-1.776-0.48-2.28-1.656-2.28H47.187c-0.959,0-1.319,0.552-1.319,2.28h-0.601v-4.32
		l15.05-5.641l-15.05-5.616v-4.465h0.601c0,1.92,0.384,2.305,1.319,2.305h13.082c1.056,0,1.656-0.504,1.656-2.305h0.6v6.072h-0.6
		c0-1.752-0.601-2.28-1.656-2.28H46.083v0.265l16.609,6.217v0.384l-16.273,6.145v0.288h13.85c1.176,0,1.656-0.528,1.656-2.305h0.6
		V92.917z"/>
	<path fill="#FFFFFF" d="M45.267,71.005v-6.097h0.601c0,1.704,0.432,2.304,1.44,2.304h9.864c2.929,0,4.944-2.208,4.944-5.328
		c0-2.28-1.057-5.064-5.04-5.064h-9.769c-1.009,0-1.44,0.504-1.44,2.304h-0.601v-5.28h0.601c0,1.801,0.432,2.305,1.44,2.305h9.912
		c3.865,0,5.688,2.616,5.688,6.48c0,3.192-1.8,6.097-6.001,6.097h-9.6c-1.009,0-1.44,0.432-1.44,2.28H45.267z"/>
	<path fill="#FFFFFF" d="M58.108,50.941c1.943-1.272,4.2-3.265,4.2-6.649c0-2.424-0.984-4.271-3.769-4.271
		c-2.352,0-3.12,1.439-4.2,5.16c-0.792,2.664-1.992,5.544-5.112,5.544c-2.017,0-4.369-1.271-4.369-5.136
		c0-1.729,0.648-2.761,0.648-3.385c0-0.12,0-0.216-0.048-0.288l-0.433-1.176l4.32-1.561l0.24,0.36
		c-2.376,1.416-4.128,3.36-4.128,6.145c0,1.944,0.888,3.744,3.36,3.744c2.544,0,3.504-2.352,4.2-4.896
		c0.888-3.24,1.992-5.88,5.064-5.88c3.384,0,4.824,2.496,4.824,5.568c0,1.704-0.768,3.216-0.768,3.768
		c0,0.528,0.336,1.225,0.72,1.753l-4.561,1.68L58.108,50.941z"/>
	<path fill="#FFFFFF" d="M45.267,35.678v-6.48h0.601c0,1.872,0.36,2.496,1.56,2.496h13.082c0.959,0,1.416-0.624,1.416-2.496h0.6
		v6.48h-0.6c0-1.872-0.457-2.496-1.416-2.496H47.427c-1.199,0-1.56,0.624-1.56,2.496H45.267z"/>
	<path fill="#FFFFFF" d="M57.868,12.229c2.712,1.104,5.04,3.072,5.04,6.769c0,4.177-3.24,7.585-9.12,7.585
		c-4.849,0-8.93-2.761-8.93-7.177c0-1.584,0.289-2.257,0.648-3.385l-0.552-1.704l4.392-1.656l0.192,0.385
		c-1.584,1.08-4.08,3.144-4.08,6.313c0,3.384,3.576,5.592,8.329,5.592c4.561,0,7.92-2.664,7.92-6.504
		c0-2.448-1.176-4.297-4.032-5.785L57.868,12.229z"/>
	<path fill="#FFFFFF" d="M61.468,6.133c0.721,0,1.393,0.408,1.393,1.32s-0.672,1.32-1.393,1.32c-0.695,0-1.344-0.408-1.344-1.32
		S60.772,6.133,61.468,6.133z"/>
</g>
</svg>
