<?xml version="1.0" encoding="utf-8"?>
<!-- Generator: Adobe Illustrator 16.0.0, SVG Export Plug-In . SVG Version: 6.00 Build 0)  -->
<!DOCTYPE svg PUBLIC "-//W3C//DTD SVG 1.1//EN" "http://www.w3.org/Graphics/SVG/1.1/DTD/svg11.dtd">
<svg version="1.1" id="Layer_1" xmlns="http://www.w3.org/2000/svg" xmlns:xlink="http://www.w3.org/1999/xlink" x="0px" y="0px"
	 width="117px" height="235px" viewBox="0 0 117 235" enable-background="new 0 0 117 235" xml:space="preserve">
<g>
	<path fill="#5F4172" d="M5.547,204.185c-0.565,0.521-1.174,1.381-1.826,2.576c-0.326,0.587-0.599,0.685-0.815,0.293
		c-0.196-0.326-0.293-0.761-0.293-1.305c0-0.391,0.119-1.151,0.359-2.282c0.217-0.869,0.467-1.804,0.75-2.805
		c0.173-0.587,0.457-0.945,0.848-1.075c0.217-0.087,0.62-0.076,1.207,0.032l0.913,0.065H18.2c0-0.5-0.065-0.913-0.196-1.239
		c-0.065-0.195-0.196-0.424-0.391-0.685c-0.261-0.348-0.436-0.674-0.522-0.979c-0.152-0.543-0.207-1.293-0.163-2.25
		c0.021-0.608,0.196-1.076,0.522-1.402c0.304-0.304,0.673-0.456,1.108-0.456c0.413,0,0.771,0.13,1.076,0.391
		c0.326,0.283,0.489,0.652,0.489,1.109v5.511h6.293c2.652,0,4.716,0.305,6.195,0.913c1.195,0.479,1.924,1.087,2.185,1.826
		c0.13,0.325-0.175,0.587-0.913,0.782c-0.741,0.175-1.784,0.261-3.13,0.261H7.146C6.58,203.467,6.047,203.707,5.547,204.185z
		 M23.645,211.488c0.979,2.762,1.543,5.152,1.696,7.174c0.021,0.457-0.403,1.011-1.272,1.663c-0.848,0.631-1.5,0.945-1.957,0.945
		h-9.554c-0.413,0-0.837,0.251-1.271,0.75c-0.436,0.501-0.783,1.175-1.043,2.022c-0.175,0.456-0.436,0.576-0.783,0.358
		c-0.305-0.217-0.5-0.564-0.587-1.044c-0.152-0.717-0.152-1.673,0-2.869c0.13-1.064,0.347-2.087,0.652-3.065l-0.033-0.521
		c-0.022-0.608-0.044-1.087-0.065-1.435c-0.022-0.587-0.065-1.119-0.13-1.598c-0.087-0.305-0.185-0.565-0.293-0.783
		c-0.065-0.151-0.163-0.314-0.293-0.488c-0.218-0.326-0.358-0.652-0.424-0.979c-0.13-0.543-0.185-1.413-0.163-2.608
		c0-0.543,0.141-0.967,0.424-1.272c0.261-0.261,0.587-0.38,0.979-0.358c0.369,0.022,0.685,0.175,0.945,0.456
		c0.304,0.326,0.467,0.729,0.489,1.207l0.522,8.315h10.239c-0.044-1.456-0.326-3.468-0.848-6.033
		c-0.566-2.739-1.283-5.499-2.152-8.282h1.304C21.634,206.413,22.84,209.228,23.645,211.488z"/>
	<path fill="#5F4172" d="M5.156,169.229c-0.414,0.436-0.902,1.163-1.467,2.185c-0.218,0.436-0.457,0.436-0.717,0
		c-0.24-0.392-0.359-0.881-0.359-1.468c0-0.304,0.065-0.738,0.196-1.304c0.086-0.348,0.249-0.913,0.489-1.696l0.359-1.206
		c0.217-0.652,0.489-1.044,0.815-1.174c0.195-0.087,0.532-0.076,1.011,0.032c0.195,0.044,0.347,0.077,0.457,0.098
		c0.195,0.022,0.38,0.033,0.554,0.033h10.108c2.239,0,4.054,0.282,5.446,0.848c1.174,0.456,1.847,1.011,2.021,1.663
		c0.043,0.413-0.283,0.717-0.978,0.913c-0.739,0.195-1.87,0.293-3.391,0.293h-5.055c0.021,0.652,0.098,1.229,0.229,1.729
		c0.065,0.305,0.173,0.664,0.326,1.076c0.195,0.565,0.261,1,0.195,1.305c-0.087,0.479-0.457,1.195-1.108,2.151
		c-0.37,0.522-0.75,0.815-1.141,0.881c-0.392,0.065-0.555-0.119-0.489-0.555c0.065-0.717,0.108-1.651,0.13-2.804
		c0-1.218-0.044-2.479-0.13-3.783h-6C6.156,168.445,5.656,168.706,5.156,169.229z M6.917,178.163
		c-0.044-0.087-0.109-0.196-0.195-0.326c-0.109-0.195-0.175-0.392-0.196-0.587c-0.065-0.326-0.055-0.858,0.033-1.598
		c0.195-1.391,0.434-2.174,0.717-2.348c0.196-0.108,0.554,0.087,1.076,0.587l0.391,0.358c0.913,0.587,1.814,1.196,2.707,1.826
		c1.108,0.805,2.043,1.544,2.804,2.217c0.304-0.391,0.543-0.814,0.717-1.271c0.086-0.261,0.184-0.641,0.293-1.142
		c0.174-0.717,0.38-1.206,0.62-1.467c0.392-0.435,1.097-0.738,2.12-0.913c0.5-0.065,0.946-0.021,1.337,0.13
		c0.347,0.153,0.608,0.381,0.783,0.686c0.151,0.305,0.184,0.619,0.098,0.945c-0.065,0.348-0.24,0.631-0.521,0.848L19.21,176.5
		c-0.913,0.652-1.577,1.142-1.989,1.467c-0.696,0.522-1.316,1.022-1.858,1.5c1.391,1.479,2.597,3.065,3.619,4.761
		c0.979,1.696,1.761,3.469,2.348,5.315c0.239,0.739,0.261,1.174,0.065,1.305c-0.195,0.13-0.511-0.185-0.945-0.946
		c-1.283-2.087-2.924-4.097-4.924-6.032c-2.087-1.999-4.316-3.695-6.685-5.087c0.021,0.566,0.098,1.229,0.229,1.989
		c0.065,0.436,0.173,1.055,0.326,1.858l0.13,0.686c0.043,0.239,0.098,0.479,0.163,0.717c0.043,0.131,0.119,0.305,0.228,0.521
		c0.196,0.479,0.25,0.859,0.163,1.142c-0.109,0.436-0.521,1.099-1.239,1.989c-0.587,0.696-1.043,1.043-1.369,1.043
		c-0.326,0-0.457-0.293-0.392-0.88c0.108-1.108,0.163-2.315,0.163-3.62c0-1.435-0.065-3.118-0.196-5.054v-0.358
		C7.003,178.554,6.96,178.338,6.917,178.163z M22.569,170.565c0.131-0.087,0.315-0.087,0.555,0c0.108,0.044,0.195,0.076,0.261,0.098
		c0.108,0.021,0.228,0.021,0.359,0c0.195-1.695,0.836-3.021,1.924-3.979c0.999-0.848,2.173-1.271,3.521-1.271
		c1.738,0,3.119,0.587,4.141,1.761c1.021,1.174,1.533,2.783,1.533,4.826c0,2.044-0.533,3.674-1.598,4.892
		c-1.001,1.152-2.262,1.728-3.783,1.728c-1.37,0-2.522-0.347-3.457-1.043c-1.043-0.761-1.74-1.869-2.087-3.326
		c-0.195-0.63-0.435-1.044-0.717-1.239c-0.283-0.195-0.62-0.195-1.011,0c-0.283,0.195-0.468,0.152-0.554-0.131
		c-0.109-0.304-0.065-0.705,0.13-1.206C22.09,171.065,22.352,170.695,22.569,170.565z M26.938,174.413
		c0.565,0.521,1.25,0.782,2.054,0.782c0.761,0,1.423-0.261,1.989-0.782c0.608-0.608,0.913-1.435,0.913-2.479
		c0-0.956-0.305-1.729-0.913-2.315c-0.566-0.521-1.229-0.782-1.989-0.782c-0.805,0-1.489,0.261-2.054,0.782
		c-0.609,0.587-0.913,1.359-0.913,2.315C26.025,172.979,26.33,173.805,26.938,174.413z"/>
	<path fill="#5F4172" d="M5.287,137.533c-0.5,0.565-1.011,1.392-1.533,2.478c-0.24,0.457-0.5,0.457-0.782,0
		c-0.24-0.391-0.359-0.814-0.359-1.271c0-0.412,0.098-1.119,0.293-2.119c0.151-0.869,0.359-1.782,0.62-2.739
		c0.173-0.587,0.445-0.945,0.815-1.076c0.239-0.086,0.663-0.086,1.272,0c0.239,0.044,0.424,0.065,0.554,0.065
		c0.196,0.021,0.392,0.032,0.587,0.032h9.587c0-0.673-0.065-1.194-0.196-1.564c-0.065-0.217-0.195-0.445-0.391-0.686
		c-0.196-0.304-0.337-0.598-0.424-0.88c-0.109-0.457-0.142-1.163-0.098-2.12c0.021-0.543,0.195-0.978,0.521-1.304
		c0.282-0.282,0.63-0.435,1.043-0.457c0.369-0.021,0.706,0.077,1.011,0.294c0.304,0.261,0.457,0.576,0.457,0.945v5.968h1.63
		c2.022,0,3.608,0.272,4.761,0.814c0.957,0.436,1.543,1.033,1.761,1.794c0.065,0.37-0.283,0.631-1.043,0.782
		c-0.652,0.109-1.75,0.163-3.293,0.163H6.852C6.33,136.652,5.809,136.946,5.287,137.533z M5.743,144.055
		c0.217-0.304,0.489-0.467,0.815-0.489c0.326,0,0.608,0.131,0.848,0.392c0.261,0.305,0.391,0.696,0.391,1.174l0.261,4.435
		c0,0.587-0.175,1.088-0.522,1.5c-0.283,0.348-0.859,0.837-1.728,1.468c-0.479,0.325-0.762,0.391-0.848,0.195
		c-0.087-0.174-0.032-0.543,0.163-1.108c0.108-0.674,0.196-1.554,0.261-2.642c0.043-1.044,0.054-2.141,0.033-3.293v-0.262
		C5.395,144.837,5.503,144.381,5.743,144.055z M9.591,144.218c-0.065-0.217-0.174-0.489-0.326-0.815
		c-0.174-0.369-0.293-0.695-0.358-0.979c-0.087-0.456-0.109-1.086-0.065-1.891c0.021-0.587,0.217-1.021,0.587-1.305
		c0.326-0.261,0.718-0.369,1.174-0.326c0.457,0.022,0.836,0.175,1.141,0.457c0.347,0.305,0.51,0.674,0.489,1.108
		c-0.109,1.5-0.175,2.805-0.196,3.913c-0.044,1.174-0.033,2.282,0.033,3.326c0.282-0.522,0.51-0.869,0.685-1.044
		c0.261-0.261,0.489-0.304,0.685-0.13c0.216-1.631,0.815-2.913,1.793-3.848c0.869-0.826,1.869-1.239,3-1.239
		c1.391,0,2.554,0.587,3.489,1.761c1,1.195,1.5,2.75,1.5,4.663c0,1.805-0.479,3.282-1.435,4.435
		c-0.913,1.108-2.077,1.663-3.489,1.663c-1.065,0-2.011-0.337-2.837-1.011c-0.913-0.761-1.5-1.837-1.761-3.229
		c-0.153-0.608-0.381-0.989-0.685-1.142c-0.283-0.13-0.554-0.043-0.815,0.261c0.021,0.632,0.098,1.272,0.228,1.924
		c0.13,0.675,0.293,1.283,0.489,1.826l0.293,0.718c0.196,0.436,0.25,0.794,0.163,1.076c-0.13,0.392-0.587,1.055-1.37,1.989
		c-0.674,0.782-1.271,1.12-1.793,1.011c-0.457-0.108-0.631-0.424-0.521-0.946c0.239-1.521,0.379-3.053,0.424-4.598
		c0.065-1.912-0.012-3.988-0.229-6.228C9.819,145.077,9.721,144.609,9.591,144.218z M16.341,149.957
		c0.435,0.456,0.989,0.685,1.663,0.685c0.63,0,1.163-0.229,1.598-0.685c0.5-0.522,0.75-1.239,0.75-2.152
		c0-0.935-0.25-1.674-0.75-2.218c-0.435-0.521-0.968-0.782-1.598-0.782c-0.674,0-1.229,0.261-1.663,0.782
		c-0.5,0.544-0.75,1.283-0.75,2.218C15.591,148.718,15.84,149.435,16.341,149.957z M26.743,148.783
		c-0.24,0.435-0.468,1.108-0.685,2.021c-0.13,0.521-0.381,0.576-0.75,0.163c-0.37-0.412-0.554-0.901-0.554-1.468
		c0-0.543,0.021-1.206,0.065-1.989c0.021-0.76,0.076-1.455,0.163-2.087c0.086-0.738,0.282-1.194,0.587-1.369
		c0.196-0.108,0.587-0.131,1.174-0.065l0.913,0.033h2.087c0.522,0,0.88-0.087,1.076-0.262c0.196-0.195,0.293-0.575,0.293-1.141
		v-4.892c0-0.456-0.044-0.836-0.13-1.142c-0.044-0.195-0.121-0.434-0.228-0.717c-0.153-0.412-0.261-0.771-0.326-1.076
		c-0.087-0.565-0.098-1.337-0.033-2.315c0.043-0.587,0.217-1.054,0.522-1.402c0.261-0.304,0.575-0.456,0.945-0.456
		c0.368,0.022,0.685,0.175,0.946,0.456c0.282,0.326,0.424,0.75,0.424,1.272v11.967c0,1.218-0.261,2.131-0.783,2.739
		c-0.521,0.587-1.271,0.88-2.25,0.88h-2.282C27.46,147.935,27.069,148.218,26.743,148.783z"/>
	<path fill="#5F4172" d="M5.287,93.023c-0.479,0.565-0.99,1.424-1.533,2.576c-0.24,0.501-0.5,0.522-0.782,0.065
		c-0.24-0.413-0.359-0.858-0.359-1.337c0-0.413,0.098-1.142,0.293-2.185c0.174-0.935,0.38-1.859,0.62-2.772
		c0.173-0.587,0.445-0.946,0.815-1.076c0.239-0.086,0.663-0.086,1.272,0c0.239,0.044,0.424,0.065,0.554,0.065
		c0.196,0.022,0.392,0.033,0.587,0.033h7.467c0-0.652-0.065-1.174-0.195-1.565c-0.087-0.239-0.229-0.5-0.424-0.783
		c-0.195-0.304-0.326-0.587-0.391-0.848c-0.109-0.435-0.142-1.054-0.098-1.859c0.021-0.587,0.195-1.054,0.521-1.402
		c0.282-0.304,0.63-0.467,1.043-0.489c0.392-0.021,0.728,0.087,1.011,0.326c0.304,0.261,0.457,0.609,0.457,1.043v5.771
		c2.065,0,3.706,0.261,4.924,0.783c1.021,0.436,1.631,0.978,1.826,1.63c0.065,0.457-0.261,0.772-0.978,0.946
		c-0.609,0.13-1.609,0.196-3,0.196H6.852C6.33,92.143,5.809,92.436,5.287,93.023z M18.884,99.577
		c0.869,2.957,1.478,5.62,1.826,7.989c0.065,0.544-0.305,1.098-1.109,1.663c-0.717,0.5-1.304,0.75-1.761,0.75H11.58
		c-0.631,0-1.131,0.272-1.5,0.815c-0.305,0.435-0.609,1.196-0.913,2.282c-0.087,0.348-0.283,0.446-0.587,0.293
		c-0.326-0.173-0.544-0.608-0.652-1.304c-0.065-0.413-0.087-1.109-0.065-2.087c0-0.848,0.043-1.869,0.13-3.065
		c0.065-0.478,0.25-0.771,0.554-0.881c0.196-0.086,0.608-0.098,1.239-0.032l1.272,0.032h6.032c0.413,0,0.347-1.673-0.196-5.021
		c-0.543-3.412-1.293-6.608-2.25-9.587h1.402C17.156,94.273,18.102,96.99,18.884,99.577z M22.178,94.36
		c0.151-0.086,0.347-0.076,0.587,0.032c0.108,0.044,0.196,0.065,0.261,0.065c0.086,0.044,0.185,0.055,0.293,0.033
		c0.413-1.913,1.13-3.314,2.152-4.207c0.934-0.826,2.163-1.239,3.685-1.239c1.63,0,2.977,0.62,4.043,1.859
		c1.109,1.261,1.663,2.902,1.663,4.924c0,2.043-0.566,3.696-1.696,4.957c-1.043,1.196-2.348,1.793-3.913,1.793
		c-1.37,0-2.5-0.337-3.392-1.011c-1-0.738-1.717-1.902-2.152-3.489c-0.175-0.695-0.414-1.142-0.717-1.337
		c-0.326-0.239-0.707-0.141-1.142,0.293c-0.24,0.24-0.413,0.174-0.521-0.196c-0.109-0.369-0.065-0.804,0.13-1.304
		C21.721,94.881,21.96,94.49,22.178,94.36z M26.938,98.24c0.543,0.521,1.207,0.782,1.989,0.782c0.76,0,1.413-0.261,1.957-0.782
		c0.587-0.608,0.88-1.423,0.88-2.446c0-0.978-0.293-1.761-0.88-2.348c-0.544-0.522-1.196-0.783-1.957-0.783
		c-0.783,0-1.446,0.261-1.989,0.783c-0.609,0.587-0.913,1.37-0.913,2.348C26.025,96.817,26.33,97.632,26.938,98.24z"/>
	<path fill="#5F4172" d="M5.287,59.632c-0.5,0.565-1.011,1.392-1.533,2.478c-0.24,0.457-0.5,0.457-0.782,0
		c-0.24-0.391-0.359-0.815-0.359-1.271c0-0.413,0.098-1.119,0.293-2.12c0.151-0.869,0.359-1.782,0.62-2.739
		c0.173-0.587,0.445-0.946,0.815-1.076c0.239-0.087,0.663-0.087,1.272,0c0.239,0.043,0.424,0.065,0.554,0.065
		c0.196,0.022,0.392,0.033,0.587,0.033h9.587c0-0.674-0.065-1.195-0.196-1.565c-0.065-0.217-0.195-0.446-0.391-0.685
		c-0.196-0.304-0.337-0.598-0.424-0.88c-0.109-0.457-0.142-1.163-0.098-2.12c0.021-0.543,0.195-0.978,0.521-1.304
		c0.282-0.283,0.63-0.435,1.043-0.457c0.369-0.021,0.706,0.076,1.011,0.293c0.304,0.261,0.457,0.577,0.457,0.946v5.967h1.63
		c2.022,0,3.608,0.272,4.761,0.815c0.957,0.435,1.543,1.033,1.761,1.793c0.065,0.37-0.283,0.631-1.043,0.783
		c-0.652,0.109-1.75,0.163-3.293,0.163H6.852C6.33,58.752,5.809,59.045,5.287,59.632z M8.319,67.654
		c-0.044-0.108-0.098-0.228-0.163-0.358c-0.13-0.239-0.207-0.467-0.229-0.685c-0.065-0.348-0.065-0.869,0-1.565
		c0.108-1.261,0.304-2.011,0.587-2.25c0.173-0.152,0.532-0.098,1.076,0.163l0.685,0.261l6.88,0.946
		c0.065-0.392,0.217-0.674,0.457-0.848c0.216-0.173,0.467-0.239,0.75-0.195c0.282,0.043,0.51,0.163,0.685,0.358
		c0.217,0.218,0.326,0.468,0.326,0.75l0.358,9.163c0.457,0.326,0.804,0.609,1.043,0.848c0.304,0.305,0.522,0.62,0.652,0.946
		c0.043,0.457-0.185,0.815-0.685,1.076c-0.501,0.261-1.229,0.424-2.185,0.489l-6.945,0.424c-0.566,0.043-1.033,0.239-1.402,0.587
		c-0.37,0.37-0.664,0.913-0.88,1.63c-0.109,0.37-0.305,0.446-0.587,0.228c-0.305-0.217-0.5-0.652-0.587-1.304
		c-0.13-0.826-0.163-1.685-0.098-2.576c0.065-1.021,0.239-1.913,0.521-2.674l-0.163-4.793C8.395,68.035,8.362,67.828,8.319,67.654z
		 M10.504,73.1h7.109l-0.163-5.771h-7.109L10.504,73.1z M26.71,70.23c-0.24,0.435-0.468,1.109-0.685,2.022
		c-0.152,0.521-0.446,0.576-0.88,0.163c-0.413-0.413-0.62-0.902-0.62-1.468c0-0.543,0.021-1.217,0.065-2.021
		c0.021-0.761,0.076-1.511,0.163-2.25c0.086-0.652,0.304-1.054,0.652-1.207c0.217-0.108,0.63-0.13,1.239-0.065l0.946,0.032h2.152
		c0.522,0,0.88-0.087,1.076-0.261s0.293-0.532,0.293-1.076v-4.402c0-0.457-0.044-0.848-0.13-1.174
		c-0.065-0.195-0.163-0.434-0.293-0.717c-0.218-0.413-0.359-0.771-0.424-1.076c-0.109-0.565-0.142-1.337-0.098-2.315
		c0.043-0.652,0.228-1.163,0.554-1.533c0.303-0.326,0.652-0.5,1.043-0.521c0.391,0,0.727,0.152,1.011,0.457
		c0.303,0.326,0.457,0.75,0.457,1.271v11.674c0,1.196-0.261,2.098-0.783,2.707c-0.521,0.609-1.271,0.913-2.25,0.913h-2.348
		C27.395,69.382,27.014,69.665,26.71,70.23z"/>
	<path fill="#5F4172" d="M12.754,36.057c-0.913,1.239-2.131,1.858-3.652,1.858c-1.283,0-2.37-0.38-3.261-1.141
		c-0.978-0.848-1.63-2.097-1.956-3.75c-0.109-0.521-0.261-0.804-0.457-0.848c-0.175-0.021-0.381,0.12-0.62,0.424
		c-0.283,0.305-0.479,0.239-0.587-0.196c-0.109-0.413-0.077-0.923,0.098-1.532c0.151-0.609,0.326-0.989,0.521-1.142
		c0.131-0.087,0.304-0.087,0.522,0l0.326,0.065c0.304-1.913,0.978-3.369,2.021-4.37c0.934-0.891,2.065-1.337,3.392-1.337
		c1.521,0,2.739,0.63,3.652,1.891c0.956,1.261,1.435,2.946,1.435,5.055S13.71,34.817,12.754,36.057z M6.884,33.578
		c0.5,0.565,1.109,0.848,1.826,0.848c0.695,0,1.293-0.283,1.793-0.848c0.543-0.63,0.815-1.489,0.815-2.576
		c0-1.043-0.272-1.869-0.815-2.479c-0.5-0.565-1.098-0.848-1.793-0.848c-0.717,0-1.326,0.283-1.826,0.848
		c-0.543,0.609-0.815,1.435-0.815,2.479C6.069,32.089,6.341,32.948,6.884,33.578z M15.884,21.676
		c-0.044-0.173-0.098-0.402-0.163-0.685c-0.13-0.478-0.195-0.935-0.195-1.37c0.021-0.695,0.184-1.761,0.489-3.196
		c0.086-0.478,0.304-0.804,0.652-0.978c0.304-0.174,0.63-0.206,0.978-0.098c0.37,0.13,0.652,0.38,0.848,0.75
		c0.239,0.413,0.326,0.88,0.261,1.402c-0.391,2.565-0.576,6.142-0.554,10.728c0.021,3.826,0.163,7.239,0.424,10.239
		c0.043,0.63,0.119,1.207,0.228,1.728c0.065,0.305,0.152,0.664,0.261,1.076c0.173,0.674,0.195,1.196,0.065,1.565
		c-0.13,0.414-0.652,1.283-1.565,2.609c-0.436,0.609-0.859,0.978-1.272,1.109c-0.413,0.152-0.544-0.033-0.391-0.555
		c0.369-1.956,0.554-5.619,0.554-10.989c0-4.826-0.13-8.728-0.391-11.707l-0.098-0.685C15.971,22.274,15.928,21.959,15.884,21.676z
		 M21.428,27.513c-0.022-0.087-0.077-0.196-0.163-0.326c-0.13-0.217-0.218-0.434-0.261-0.652c-0.044-0.348-0.022-0.87,0.065-1.565
		c0.152-1.195,0.38-1.902,0.685-2.12c0.217-0.13,0.63-0.054,1.239,0.229l0.521,0.228l3.13,0.718
		c0.108-0.761,0.445-1.087,1.011-0.979c0.587,0.087,0.88,0.479,0.88,1.174l0.163,9.652h2.283c0.347,0,0.587-0.108,0.717-0.326
		c0.152-0.217,0.229-0.641,0.229-1.272v-4.728c0-0.543-0.044-0.989-0.13-1.337c-0.044-0.196-0.13-0.435-0.261-0.717
		c-0.174-0.37-0.284-0.728-0.326-1.076c-0.109-0.543-0.131-1.348-0.065-2.413c0.021-0.608,0.196-1.086,0.522-1.435
		c0.282-0.304,0.629-0.457,1.043-0.457c0.391,0.022,0.727,0.174,1.011,0.457c0.303,0.304,0.457,0.696,0.457,1.174v13.141
		c0,0.935-0.261,1.663-0.783,2.185c-0.5,0.479-1.153,0.717-1.957,0.717h-2.283c-0.413,0-0.782,0.218-1.108,0.652
		c-0.24,0.283-0.511,0.739-0.815,1.37c-0.174,0.326-0.348,0.479-0.521,0.457c-0.196-0.021-0.37-0.283-0.522-0.783
		c-0.109-0.804-0.13-1.598-0.065-2.38c0.086-0.891,0.293-1.848,0.619-2.87L26.58,27.22h-3.13c0,1.087,0.032,2.239,0.098,3.457
		c0.021,0.717,0.086,1.739,0.196,3.065l0.098,0.979l0.228,1.239c0.13,0.543,0.163,0.968,0.098,1.271
		c-0.109,0.392-0.446,1.055-1.011,1.989c-0.392,0.587-0.805,0.935-1.239,1.043c-0.414,0.109-0.587-0.033-0.522-0.424
		c0.152-0.783,0.25-1.946,0.293-3.489c0.065-2.108,0.021-4.88-0.13-8.315C21.536,27.839,21.493,27.666,21.428,27.513z"/>
	<path fill="#5F4172" d="M85.686,204.185c-0.565,0.521-1.174,1.381-1.826,2.576c-0.326,0.587-0.598,0.685-0.815,0.293
		c-0.195-0.326-0.294-0.761-0.294-1.305c0-0.391,0.12-1.151,0.359-2.282c0.218-0.869,0.468-1.804,0.75-2.805
		c0.174-0.587,0.456-0.945,0.848-1.075c0.218-0.087,0.619-0.076,1.206,0.032l0.913,0.065h11.511c0-0.5-0.065-0.913-0.195-1.239
		c-0.065-0.195-0.195-0.424-0.392-0.685c-0.261-0.348-0.435-0.674-0.521-0.979c-0.151-0.543-0.206-1.293-0.163-2.25
		c0.022-0.608,0.195-1.076,0.521-1.402c0.306-0.304,0.675-0.456,1.109-0.456c0.413,0,0.771,0.13,1.075,0.391
		c0.326,0.283,0.489,0.652,0.489,1.109v5.511h6.294c2.652,0,4.717,0.305,6.195,0.913c1.195,0.479,1.924,1.087,2.185,1.826
		c0.131,0.325-0.175,0.587-0.913,0.782c-0.739,0.175-1.782,0.261-3.13,0.261H87.283C86.718,203.467,86.186,203.707,85.686,204.185z
		 M90.479,213.804c-0.412,0.239-0.945,0.837-1.598,1.793c-0.261,0.371-0.511,0.414-0.75,0.131c-0.239-0.282-0.358-0.782-0.358-1.5
		c0-0.435,0.174-1.142,0.521-2.119c0.326-0.869,0.707-1.706,1.142-2.511c0.239-0.392,0.479-0.641,0.717-0.75
		c0.261-0.108,0.609-0.076,1.044,0.098c0.436,0.174,1.043,0.521,1.826,1.043c0.543,0.37,1.555,1.076,3.032,2.12l0.75,0.521
		c0.456-0.587,0.859-1.207,1.206-1.858c0.196-0.392,0.436-0.924,0.718-1.599c0.37-0.912,0.718-1.532,1.043-1.858
		c0.479-0.521,1.229-0.869,2.25-1.043c1.153-0.174,1.914,0.064,2.283,0.717c0.37,0.718-0.021,1.544-1.174,2.479
		c-0.826,0.674-1.706,1.392-2.642,2.152c-1.151,0.957-1.967,1.652-2.445,2.087c1.565,1.392,2.913,2.858,4.043,4.402
		c1.174,1.63,2.055,3.271,2.642,4.924c0.305,0.869,0.348,1.369,0.13,1.5c-0.216,0.13-0.564-0.174-1.043-0.913
		c-1.064-1.544-2.793-3.294-5.185-5.25c-2.195-1.761-4.391-3.271-6.587-4.533l-0.131-0.098
		C91.326,213.543,90.849,213.564,90.479,213.804z"/>
	<path fill="#5F4172" d="M85.424,170.924c-0.478,0.565-0.988,1.424-1.532,2.576c-0.238,0.501-0.5,0.521-0.782,0.065
		c-0.239-0.413-0.359-0.858-0.359-1.337c0-0.413,0.099-1.142,0.294-2.186c0.175-0.934,0.381-1.858,0.619-2.771
		c0.175-0.587,0.446-0.945,0.815-1.076c0.24-0.086,0.664-0.086,1.271,0c0.24,0.045,0.424,0.065,0.555,0.065
		c0.195,0.022,0.392,0.032,0.587,0.032h7.468c0-0.651-0.065-1.174-0.196-1.564c-0.086-0.239-0.228-0.5-0.424-0.783
		c-0.195-0.304-0.326-0.587-0.392-0.848c-0.107-0.435-0.141-1.054-0.098-1.858c0.022-0.587,0.196-1.054,0.522-1.402
		c0.282-0.304,0.631-0.467,1.043-0.489c0.392-0.021,0.729,0.088,1.011,0.326c0.305,0.261,0.457,0.609,0.457,1.044v5.771
		c2.065,0,3.706,0.261,4.924,0.782c1.022,0.436,1.63,0.979,1.826,1.631c0.064,0.456-0.262,0.771-0.979,0.945
		c-0.608,0.131-1.608,0.195-3,0.195H86.989C86.468,170.043,85.946,170.337,85.424,170.924z M99.968,177.837
		c0.87,2.804,1.435,5.108,1.695,6.913c0.044,0.544-0.304,1.206-1.043,1.989c-0.739,0.761-1.348,1.141-1.826,1.141h-3.521
		c-0.479,0-0.913,0.218-1.305,0.652c-0.348,0.392-0.641,0.945-0.881,1.663c-0.13,0.456-0.336,0.599-0.619,0.424
		c-0.261-0.151-0.435-0.521-0.521-1.108c-0.108-0.695-0.119-1.565-0.033-2.608c0.088-1.065,0.261-2.022,0.522-2.87l-0.229-4.532
		h-3.75c0.065,0.979,0.13,1.848,0.195,2.608c0.088,1.108,0.196,2.076,0.326,2.902c0.022,0.195,0.055,0.392,0.098,0.587
		c0.022,0.109,0.065,0.261,0.131,0.456c0.175,0.522,0.218,0.946,0.13,1.272c-0.151,0.521-0.597,1.315-1.337,2.38
		c-0.326,0.457-0.662,0.685-1.011,0.685c-0.347,0-0.467-0.261-0.358-0.782c0.131-0.956,0.195-2.13,0.195-3.521
		c0-1.391-0.064-3.326-0.195-5.805c-0.021-0.217-0.065-0.392-0.131-0.521c-0.043-0.086-0.108-0.185-0.195-0.294
		c-0.151-0.173-0.249-0.358-0.293-0.554c-0.065-0.348-0.054-0.892,0.032-1.631c0.152-1.282,0.381-2.043,0.685-2.282
		c0.175-0.151,0.489-0.087,0.945,0.195l0.522,0.261l1.761,0.457l1.891,0.489c0.065-0.413,0.218-0.729,0.457-0.946
		c0.218-0.173,0.468-0.249,0.75-0.228c0.261,0.021,0.479,0.13,0.652,0.326c0.195,0.195,0.305,0.435,0.326,0.717l0.391,7.858h3.587
		c0.37,0,0.272-1.706-0.293-5.119c-0.587-3.5-1.325-6.706-2.218-9.619h1.305C97.979,172.021,99.033,174.837,99.968,177.837z
		 M102.739,172.424c0.131-0.065,0.326-0.054,0.587,0.032c0.109,0.045,0.195,0.077,0.261,0.099c0.109,0.021,0.218,0.021,0.326,0
		c0.349-1.826,1.044-3.196,2.087-4.109c0.957-0.804,2.152-1.206,3.587-1.206c1.478,0,2.728,0.587,3.75,1.761
		c1.108,1.261,1.663,2.892,1.663,4.892c0,2.021-0.555,3.642-1.663,4.858c-1.022,1.131-2.315,1.695-3.88,1.695
		c-1.326,0-2.457-0.392-3.392-1.174s-1.565-1.837-1.892-3.163c-0.174-0.652-0.391-1.064-0.652-1.239
		c-0.281-0.173-0.587-0.075-0.913,0.294c-0.261,0.326-0.478,0.293-0.651-0.098c-0.152-0.392-0.108-0.892,0.13-1.5
		C102.305,172.957,102.522,172.576,102.739,172.424z M107.239,176.271c0.544,0.544,1.206,0.815,1.989,0.815
		c0.762,0,1.413-0.271,1.956-0.815c0.587-0.608,0.881-1.423,0.881-2.445c0-0.979-0.294-1.761-0.881-2.348
		c-0.543-0.522-1.194-0.783-1.956-0.783c-0.783,0-1.445,0.261-1.989,0.783c-0.587,0.587-0.881,1.369-0.881,2.348
		C106.358,174.849,106.652,175.663,107.239,176.271z"/>
	<path fill="#5F4172" d="M85.686,137.402c-0.565,0.521-1.174,1.381-1.826,2.576c-0.326,0.587-0.598,0.685-0.815,0.294
		c-0.195-0.326-0.294-0.761-0.294-1.305c0-0.392,0.12-1.151,0.359-2.282c0.218-0.869,0.468-1.805,0.75-2.805
		c0.174-0.587,0.456-0.945,0.848-1.076c0.218-0.086,0.619-0.075,1.206,0.033l0.913,0.064h11.511c0-0.499-0.065-0.913-0.195-1.239
		c-0.065-0.195-0.195-0.424-0.392-0.685c-0.261-0.347-0.435-0.673-0.521-0.979c-0.151-0.542-0.206-1.292-0.163-2.249
		c0.022-0.608,0.195-1.076,0.521-1.402c0.306-0.305,0.675-0.457,1.109-0.457c0.413,0,0.771,0.131,1.075,0.392
		c0.326,0.283,0.489,0.652,0.489,1.108v5.511h6.294c2.652,0,4.717,0.306,6.195,0.913c1.195,0.479,1.924,1.088,2.185,1.826
		c0.131,0.326-0.175,0.587-0.913,0.782c-0.739,0.175-1.782,0.262-3.13,0.262H87.283C86.718,136.686,86.186,136.925,85.686,137.402z
		 M87.349,143.305c0.261-0.304,0.576-0.457,0.945-0.457c0.37,0,0.685,0.131,0.945,0.392c0.283,0.305,0.436,0.696,0.457,1.174
		l0.261,5.087c0,0.521-0.206,1.001-0.62,1.435c-0.261,0.283-0.814,0.729-1.663,1.337l-0.293,0.196
		c-0.412,0.282-0.652,0.348-0.718,0.195c-0.086-0.13-0.064-0.5,0.065-1.108c0.109-0.674,0.186-1.576,0.229-2.707
		c0.044-1.086,0.055-2.391,0.032-3.912v-0.262C86.969,144.109,87.087,143.652,87.349,143.305z M91.489,143.989
		c-0.065-0.238-0.174-0.51-0.326-0.815c-0.173-0.369-0.293-0.717-0.358-1.043c-0.086-0.521-0.098-1.305-0.032-2.348
		c0.021-0.587,0.195-1.055,0.521-1.402c0.305-0.304,0.685-0.457,1.142-0.457c0.413-0.021,0.761,0.099,1.043,0.359
		c0.326,0.282,0.479,0.642,0.457,1.076c-0.108,1.544-0.174,2.901-0.196,4.076c-0.021,1.304,0.022,2.392,0.131,3.261
		c0.348-0.522,0.619-0.858,0.815-1.011c0.325-0.239,0.608-0.196,0.848,0.13c0.261-1.695,0.924-3.032,1.988-4.011
		c0.958-0.891,2.066-1.337,3.326-1.337c1.522,0,2.783,0.599,3.783,1.793c1.065,1.239,1.598,2.882,1.598,4.924
		c0,1.957-0.5,3.512-1.5,4.663c-0.979,1.131-2.271,1.696-3.881,1.696c-1.217,0-2.26-0.337-3.13-1.011
		c-0.999-0.783-1.674-1.989-2.021-3.62c-0.152-0.587-0.413-0.913-0.783-0.979c-0.369-0.064-0.662,0.077-0.88,0.425
		c0,0.5,0.087,1.141,0.261,1.924c0.13,0.696,0.293,1.348,0.489,1.956l0.228,0.718c0.196,0.479,0.251,0.859,0.163,1.141
		c-0.151,0.436-0.607,1.099-1.369,1.989c-0.695,0.805-1.282,1.174-1.761,1.108c-0.435-0.064-0.587-0.358-0.457-0.88
		c0.306-1.282,0.457-2.805,0.457-4.565c0-1.13-0.098-3.086-0.294-5.869v-0.294C91.686,144.936,91.599,144.402,91.489,143.989z
		 M98.565,149.533c0.501,0.479,1.12,0.717,1.858,0.717c0.718,0,1.316-0.249,1.794-0.75c0.565-0.543,0.848-1.304,0.848-2.282
		c0-0.999-0.282-1.794-0.848-2.381c-0.478-0.543-1.076-0.814-1.794-0.814c-0.738,0-1.357,0.271-1.858,0.814
		c-0.543,0.609-0.815,1.402-0.815,2.381C97.75,148.218,98.022,148.99,98.565,149.533z"/>
	<path fill="#5F4172" d="M87.12,118.033c-0.174,0.349-0.412,1.131-0.718,2.348c-0.13,0.413-0.336,0.544-0.619,0.392
		c-0.282-0.131-0.489-0.457-0.62-0.979c-0.108-0.369-0.163-1.097-0.163-2.185c0-0.913,0.033-1.761,0.099-2.543
		c0.109-0.869,0.305-1.413,0.587-1.63c0.174-0.151,0.511-0.196,1.011-0.13l0.685,0.033h3.913c0.326,0,0.576-0.098,0.75-0.293
		c0.175-0.239,0.261-0.663,0.261-1.272v-5.413c0-0.521-0.054-0.956-0.163-1.304c-0.043-0.217-0.151-0.478-0.326-0.783
		c-0.217-0.435-0.358-0.858-0.424-1.271c-0.131-0.695-0.141-1.696-0.032-3c0.044-0.543,0.228-0.967,0.554-1.272
		c0.283-0.282,0.632-0.412,1.044-0.391c0.391,0.022,0.729,0.163,1.011,0.424c0.305,0.305,0.456,0.685,0.456,1.142v13.826
		c0,1.218-0.217,2.12-0.651,2.707c-0.413,0.544-1.044,0.815-1.892,0.815h-3.555C87.783,117.25,87.381,117.512,87.12,118.033z
		 M98.076,99.577c-0.043-0.152-0.098-0.369-0.163-0.652c-0.13-0.5-0.195-0.967-0.195-1.402c0.021-0.673,0.185-1.739,0.489-3.195
		c0.087-0.478,0.293-0.804,0.619-0.979c0.305-0.173,0.631-0.206,0.979-0.098c0.37,0.13,0.652,0.381,0.848,0.75
		c0.24,0.414,0.326,0.88,0.261,1.402c-0.392,2.587-0.575,6.163-0.554,10.728c0.021,3.913,0.174,7.326,0.456,10.239
		c0.044,0.609,0.12,1.174,0.229,1.695c0.044,0.283,0.119,0.642,0.228,1.076c0.175,0.696,0.196,1.219,0.065,1.565
		c-0.151,0.413-0.717,1.294-1.695,2.642c-0.435,0.608-0.858,0.978-1.271,1.108c-0.413,0.152-0.543-0.032-0.392-0.555
		c0.456-1.934,0.685-5.597,0.685-10.989c0.022-4.782-0.108-8.684-0.392-11.706l-0.064-0.685
		C98.164,100.196,98.12,99.882,98.076,99.577z M106.326,117.544c-0.217,0.392-0.435,0.979-0.652,1.761
		c-0.13,0.522-0.38,0.587-0.75,0.196c-0.347-0.369-0.543-0.837-0.587-1.402c-0.043-0.392-0.032-0.989,0.033-1.793
		c0.044-0.608,0.109-1.315,0.195-2.12c0.087-0.739,0.283-1.195,0.587-1.37c0.218-0.108,0.609-0.13,1.174-0.065l0.913,0.032h2.152
		c0.565,0,0.957-0.098,1.174-0.293c0.195-0.195,0.293-0.575,0.293-1.141v-5.021c0-0.457-0.043-0.848-0.13-1.174
		c-0.043-0.195-0.131-0.445-0.261-0.75c-0.174-0.412-0.305-0.804-0.392-1.174c-0.108-0.608-0.163-1.445-0.163-2.511
		c0-0.587,0.152-1.054,0.456-1.402c0.283-0.282,0.642-0.424,1.076-0.424c0.392,0,0.739,0.142,1.044,0.424
		c0.326,0.326,0.489,0.75,0.489,1.272v12.521c0,1.174-0.283,2.076-0.848,2.707c-0.544,0.609-1.315,0.913-2.315,0.913H107.5
		C107.044,116.729,106.652,117.001,106.326,117.544z"/>
</g>
</svg>
