<?xml version="1.0" encoding="utf-8"?>
<!-- Generator: Adobe Illustrator 16.0.0, SVG Export Plug-In . SVG Version: 6.00 Build 0)  -->
<!DOCTYPE svg PUBLIC "-//W3C//DTD SVG 1.1//EN" "http://www.w3.org/Graphics/SVG/1.1/DTD/svg11.dtd">
<svg version="1.1" id="Layer_1" xmlns="http://www.w3.org/2000/svg" xmlns:xlink="http://www.w3.org/1999/xlink" x="0px" y="0px"
	 width="68px" height="402px" viewBox="0 0 68 402" enable-background="new 0 0 68 402" xml:space="preserve">
<path fill="#625573" d="M13.124,209.294c1.242,0,2.307,0.49,3.196,1.47c0.889,0.969,1.344,2.148,1.367,3.538v6.837H8.544v-6.718
	c0-1.412,0.45-2.62,1.35-3.623C10.783,209.796,11.859,209.294,13.124,209.294z M6.527,222.163c0,0.274,0.097,0.513,0.291,0.718
	c0.194,0.194,0.433,0.29,0.718,0.29h22.285c0.273,0,0.513-0.096,0.718-0.29c0.194-0.205,0.291-0.443,0.291-0.718
	c0-0.285-0.097-0.524-0.291-0.718c-0.205-0.205-0.444-0.307-0.718-0.307h-10.1v-5.709l10.715-5.281
	c0.376-0.182,0.564-0.483,0.564-0.905c0-0.159-0.034-0.308-0.103-0.444c-0.125-0.251-0.319-0.422-0.581-0.513
	s-0.519-0.074-0.769,0.051l-9.929,4.871c-0.262-1.698-1.002-3.104-2.222-4.222c-1.23-1.139-2.655-1.709-4.272-1.709
	c-1.823,0-3.378,0.695-4.666,2.086c-1.288,1.4-1.931,3.087-1.931,5.058V222.163z M31,187.402c0-0.284-0.103-0.524-0.308-0.717
	c-0.194-0.206-0.433-0.308-0.718-0.308s-0.524,0.102-0.718,0.308c-0.205,0.193-0.308,0.433-0.308,0.717v12.544h-9.194v-9.382
	c0-0.285-0.103-0.524-0.308-0.718c-0.194-0.205-0.433-0.307-0.718-0.307s-0.524,0.102-0.718,0.307
	c-0.205,0.194-0.308,0.433-0.308,0.718v9.382H8.51l0.034-12.544c0-0.284-0.097-0.524-0.291-0.717
	c-0.205-0.206-0.45-0.308-0.735-0.308c-0.273,0-0.513,0.102-0.718,0.308c-0.205,0.193-0.308,0.433-0.308,0.717l-0.034,13.57
	c-0.011,0.273,0.091,0.512,0.308,0.717c0.194,0.205,0.433,0.308,0.718,0.308h22.49c0.285,0,0.524-0.103,0.718-0.308
	c0.205-0.193,0.308-0.433,0.308-0.717V187.402z M31,174.055c0,1.8-0.37,3.407-1.111,4.82c-0.9,1.697-2.199,2.768-3.896,3.212
	c-0.262,0.069-0.519,0.035-0.769-0.102c-0.239-0.148-0.393-0.359-0.461-0.632c-0.068-0.263-0.034-0.519,0.103-0.77
	c0.148-0.239,0.353-0.393,0.615-0.461c1.185-0.308,2.091-1.105,2.717-2.393c0.513-1.07,0.769-2.295,0.769-3.674
	c0-1.492-0.479-2.774-1.436-3.845c-0.957-1.071-2.125-1.641-3.503-1.709c-0.991-0.046-1.869,0.296-2.632,1.025
	c-1.06,0.992-1.606,2.57-1.641,4.734c0,0.285-0.103,0.524-0.308,0.718s-0.444,0.291-0.718,0.291
	c-0.285-0.012-0.524-0.12-0.718-0.325c-0.194-0.194-0.291-0.433-0.291-0.718c0.045-2.734,0.809-4.796,2.29-6.186
	c1.173-1.117,2.541-1.635,4.102-1.556c1.925,0.08,3.555,0.855,4.888,2.325C30.333,170.267,31,172.016,31,174.055z M19.755,174.363
	c-0.034,2.734-0.792,4.796-2.273,6.186c-1.185,1.117-2.558,1.641-4.119,1.573c-1.925-0.092-3.555-0.872-4.888-2.342
	c-1.333-1.458-2-3.207-2-5.246c0-1.8,0.376-3.407,1.128-4.82c0.889-1.697,2.182-2.768,3.879-3.213
	c0.273-0.068,0.53-0.034,0.769,0.103c0.239,0.148,0.393,0.359,0.461,0.632c0.08,0.274,0.045,0.53-0.103,0.769
	c-0.137,0.24-0.342,0.393-0.615,0.462c-1.185,0.307-2.085,1.105-2.7,2.392c-0.524,1.071-0.786,2.296-0.786,3.675
	c0,1.492,0.479,2.774,1.436,3.845c0.957,1.071,2.13,1.641,3.521,1.709c0.98,0.045,1.852-0.296,2.615-1.026
	c1.06-0.991,1.606-2.569,1.641-4.733c0.011-0.285,0.114-0.524,0.308-0.718c0.205-0.194,0.45-0.291,0.735-0.291
	c0.273,0.012,0.507,0.114,0.701,0.308c0.194,0.205,0.291,0.444,0.291,0.718V174.363z M7.587,158.486
	c-0.285,0-0.524,0.103-0.718,0.308c-0.205,0.194-0.308,0.433-0.308,0.718c0,0.285,0.103,0.524,0.308,0.717
	c0.194,0.206,0.433,0.308,0.718,0.308h22.388c0.285,0,0.524-0.102,0.718-0.308c0.205-0.193,0.308-0.432,0.308-0.717
	c0-0.285-0.103-0.524-0.308-0.718c-0.194-0.205-0.433-0.308-0.718-0.308H7.587z M8.527,149.48v-4.666
	c0-2.802,0.991-5.201,2.974-7.194c1.994-1.994,4.392-2.991,7.195-2.991s5.201,0.997,7.195,2.991
	c1.982,1.993,2.974,4.397,2.974,7.212l0.068,4.648H8.527z M31,150.488l-0.068-5.674c0-3.372-1.196-6.254-3.589-8.647
	s-5.275-3.589-8.647-3.589s-6.255,1.196-8.647,3.589s-3.589,5.275-3.589,8.647v5.691c0,0.285,0.103,0.524,0.308,0.718
	c0.205,0.205,0.45,0.308,0.735,0.308h22.473c0.285,0,0.53-0.104,0.735-0.308c0.194-0.194,0.291-0.433,0.291-0.718V150.488z
	 M31,112.07c0-0.285-0.103-0.524-0.308-0.717c-0.194-0.206-0.433-0.308-0.718-0.308s-0.524,0.102-0.718,0.308
	c-0.205,0.193-0.308,0.432-0.308,0.717v12.544h-9.194v-9.382c0-0.285-0.103-0.524-0.308-0.718c-0.194-0.205-0.433-0.307-0.718-0.307
	s-0.524,0.102-0.718,0.307c-0.205,0.194-0.308,0.433-0.308,0.718v9.382H8.51l0.034-12.544c0-0.285-0.097-0.524-0.291-0.717
	c-0.205-0.206-0.45-0.308-0.735-0.308c-0.273,0-0.513,0.102-0.718,0.308c-0.205,0.193-0.308,0.432-0.308,0.717l-0.034,13.57
	c-0.011,0.273,0.091,0.512,0.308,0.717c0.194,0.205,0.433,0.308,0.718,0.308h22.49c0.285,0,0.524-0.103,0.718-0.308
	c0.205-0.193,0.308-0.433,0.308-0.717V112.07z M30.641,88.247c0.034-0.034,0.068-0.068,0.103-0.103
	c0.023-0.034,0.04-0.057,0.051-0.068c0.023-0.034,0.045-0.074,0.068-0.12c0.023-0.034,0.04-0.057,0.051-0.068
	c0.011-0.034,0.028-0.08,0.051-0.137c0.011-0.045,0.017-0.068,0.017-0.068C30.994,87.615,31,87.546,31,87.478
	c0-0.057-0.006-0.12-0.017-0.188c0-0.011-0.006-0.034-0.017-0.068c-0.011-0.045-0.023-0.085-0.034-0.12
	c-0.011-0.023-0.023-0.045-0.034-0.068c-0.011-0.034-0.028-0.068-0.051-0.103c-0.011-0.023-0.023-0.04-0.034-0.051
	c-0.034-0.045-0.045-0.057-0.034-0.034c0.023,0.023,0.011,0.006-0.034-0.051c-0.034-0.034-0.057-0.057-0.068-0.068
	c-0.023-0.023-0.051-0.045-0.085-0.068s-0.063-0.04-0.085-0.051c-0.023-0.023-0.051-0.04-0.085-0.051s-0.063-0.023-0.085-0.034
	s-0.057-0.023-0.103-0.034c-0.034-0.011-0.063-0.017-0.085-0.017c-0.034-0.011-0.068-0.017-0.103-0.017c-0.068,0-0.091,0-0.068,0
	H7.467c-0.285,0-0.524,0.097-0.718,0.291c-0.205,0.205-0.308,0.45-0.308,0.735c0,0.273,0.103,0.513,0.308,0.718
	c0.194,0.194,0.433,0.291,0.718,0.291h19.517L6.835,104.141c-0.387,0.296-0.501,0.678-0.342,1.145
	c0.16,0.455,0.484,0.683,0.974,0.683h22.507c0.285,0,0.524-0.102,0.718-0.307c0.205-0.194,0.308-0.433,0.308-0.718
	c0-0.285-0.103-0.524-0.308-0.718c-0.194-0.205-0.433-0.308-0.718-0.308H10.458l20.149-15.637c0,0,0.006-0.006,0.017-0.017
	S30.641,88.247,30.641,88.247z M31,69.106c0-3.179-1.065-5.936-3.196-8.271c-0.194-0.216-0.433-0.331-0.718-0.342
	s-0.53,0.08-0.735,0.273c-0.216,0.194-0.331,0.433-0.342,0.718s0.08,0.53,0.273,0.735c1.766,1.948,2.649,4.244,2.649,6.887
	c0,2.814-0.997,5.218-2.991,7.212s-4.398,2.991-7.212,2.991c-2.826,0-5.235-0.997-7.229-2.991S8.51,71.92,8.51,69.106
	c0-2.324,0.701-4.403,2.102-6.238c0.182-0.216,0.25-0.467,0.205-0.752c-0.034-0.285-0.165-0.513-0.393-0.684
	c-0.216-0.171-0.467-0.239-0.752-0.205s-0.513,0.165-0.684,0.393c-1.698,2.199-2.546,4.694-2.546,7.485
	c0,3.384,1.202,6.272,3.606,8.665c2.393,2.404,5.287,3.606,8.682,3.606c3.384,0,6.272-1.202,8.665-3.606
	C29.798,75.378,31,72.49,31,69.106z M31,40.84c0-0.285-0.103-0.524-0.308-0.718c-0.194-0.205-0.433-0.308-0.718-0.308
	s-0.524,0.103-0.718,0.308c-0.205,0.194-0.308,0.433-0.308,0.718v12.544h-9.194v-9.382c0-0.285-0.103-0.524-0.308-0.718
	c-0.194-0.205-0.433-0.308-0.718-0.308s-0.524,0.103-0.718,0.308c-0.205,0.194-0.308,0.433-0.308,0.718v9.382H8.51L8.544,40.84
	c0-0.285-0.097-0.524-0.291-0.718c-0.205-0.205-0.45-0.308-0.735-0.308c-0.273,0-0.513,0.103-0.718,0.308
	c-0.205,0.194-0.308,0.433-0.308,0.718L6.459,54.409c-0.011,0.273,0.091,0.513,0.308,0.718c0.194,0.205,0.433,0.308,0.718,0.308
	h22.49c0.285,0,0.524-0.103,0.718-0.308C30.897,54.933,31,54.694,31,54.409V40.84z"/>
<path fill="none" stroke="#FFFFFF" stroke-width="2" d="M38,300.5V402"/>
<g>
	<path fill="#FFFFFF" d="M46.439,282.334l15.338-5.93c1.319-0.432,1.752-1.127,1.752-2.4h0.6v6.098h-0.6
		c0-1.584-0.192-2.305-0.937-2.305c-0.192,0-0.433,0.048-0.72,0.145l-4.033,1.56v7.225l3.48,1.296
		c0.457,0.145,0.816,0.24,1.104,0.24c0.864,0,1.104-0.695,1.104-2.28h0.6v5.232h-0.6c0-1.319-0.313-1.8-2.496-2.544l-14.042-5.017
		L46.439,282.334z M48.071,283.197l9.073,3.289v-6.721L48.071,283.197z"/>
	<path fill="#FFFFFF" d="M64.129,272.207h-0.6c0-1.705-0.457-2.281-1.656-2.281H49.127c-1.199,0-1.655,0.576-1.655,2.281h-0.601
		v-3.24l14.449-10.945H48.791c-0.936,0-1.319,0.624-1.319,2.496h-0.601v-5.496h0.601c0,1.584,0.407,2.304,1.319,2.304h15.458v0.384
		l-15.313,11.498h12.938c1.199,0,1.656-0.529,1.656-2.497h0.6V272.207z"/>
	<path fill="#FFFFFF" d="M59.713,252.143c1.943-1.271,4.2-3.264,4.2-6.648c0-2.424-0.984-4.272-3.769-4.272
		c-2.352,0-3.12,1.44-4.2,5.161c-0.792,2.664-1.992,5.544-5.112,5.544c-2.017,0-4.369-1.272-4.369-5.137
		c0-1.728,0.648-2.761,0.648-3.384c0-0.12,0-0.217-0.048-0.289l-0.433-1.176l4.32-1.56l0.24,0.36
		c-2.376,1.416-4.128,3.359-4.128,6.145c0,1.943,0.888,3.744,3.36,3.744c2.544,0,3.504-2.353,4.2-4.896
		c0.888-3.24,1.992-5.881,5.064-5.881c3.384,0,4.824,2.496,4.824,5.568c0,1.705-0.768,3.217-0.768,3.769
		c0,0.528,0.336,1.224,0.72,1.752l-4.561,1.681L59.713,252.143z"/>
	<path fill="#FFFFFF" d="M46.439,228.383l15.338-5.93c1.319-0.432,1.752-1.127,1.752-2.4h0.6v6.098h-0.6
		c0-1.584-0.192-2.305-0.937-2.305c-0.192,0-0.433,0.048-0.72,0.145l-4.033,1.56v7.225l3.48,1.296
		c0.457,0.145,0.816,0.24,1.104,0.24c0.864,0,1.104-0.695,1.104-2.28h0.6v5.232h-0.6c0-1.319-0.313-1.8-2.496-2.544l-14.042-5.017
		L46.439,228.383z M48.071,229.246l9.073,3.289v-6.721L48.071,229.246z"/>
	<path fill="#FFFFFF" d="M64.129,218.256h-0.6c0-1.705-0.457-2.281-1.656-2.281H49.127c-1.199,0-1.655,0.576-1.655,2.281h-0.601
		v-3.24L61.32,204.07H48.791c-0.936,0-1.319,0.624-1.319,2.496h-0.601v-5.497h0.601c0,1.584,0.407,2.304,1.319,2.304h15.458v0.384
		l-15.313,11.498h12.938c1.199,0,1.656-0.529,1.656-2.497h0.6V218.256z"/>
	<path fill="#FFFFFF" d="M67.105,198.216c-1.08-1.2-1.633-1.632-2.4-1.632c-0.36,0-0.6,0.144-0.6,0.48
		c0,0.36-0.457,0.888-1.152,0.888c-0.648,0-1.2-0.576-1.2-1.176c0-0.72,0.456-1.368,1.56-1.368c1.92,0,3.049,1.2,4.08,2.544
		L67.105,198.216z"/>
	<path fill="#FFFFFF" d="M56.328,168.119h0.624c0,1.512,0.576,1.992,1.704,1.992h5.473v1.08l-1.248,0.408
		c0.672,1.032,1.632,2.4,1.632,4.68c0,4.561-3.12,7.561-9.001,7.561c-5.279,0-9.049-3.144-9.049-7.657
		c0-1.464,0.289-2.664,0.504-3.216l-0.479-1.944l4.296-1.656l0.168,0.384c-1.631,1.272-3.888,3.168-3.888,6.313
		c0,3.456,3.505,6.145,8.329,6.145c5.76,0,8.521-2.928,8.521-5.929c0-2.592-1.921-4.68-3.384-4.68h-1.873
		c-1.128,0-1.704,0.504-1.704,2.664h-0.624V168.119z"/>
	<path fill="#FFFFFF" d="M64.129,161.88h-0.6c0-2.088-0.385-2.496-1.369-2.496h-4.943l-8.737,4.681
		c-0.769,0.552-1.008,0.84-1.008,2.4h-0.601v-6.192h0.601c0,1.704,0.144,2.28,0.552,2.28c0.145,0,0.313-0.048,0.504-0.168
		l7.681-4.104l-7.225-4.104c-0.264-0.12-0.504-0.216-0.696-0.216c-0.576,0-0.815,0.624-0.815,2.328h-0.601v-5.424h0.601
		c0,1.704,0.479,2.04,1.728,2.688l7.633,4.32h5.353c0.96,0,1.345-0.456,1.345-2.496h0.6V161.88z"/>
	<path fill="#FFFFFF" d="M64.129,149.304h-0.6c0-1.632-0.504-2.28-1.656-2.28H49.008c-1.104,0-1.536,0.648-1.536,2.28h-0.601
		v-12.601l4.08-1.68l0.24,0.36c-1.464,1.2-3.72,2.16-3.72,5.88v2.352c0,1.248,0.432,1.896,1.536,1.896h5.784v-3.648
		c0-1.68-0.72-2.592-3-2.592v-0.576h6.72v0.576c-2.135,0-3.072,0.912-3.072,2.592v3.648h6.434c1.152,0,1.656-0.648,1.656-1.92
		v-2.256c0-2.784-1.152-4.488-3.816-6.408l0.191-0.432l4.225,1.632V149.304z"/>
	<path fill="#FFFFFF" d="M55.512,116.759c4.513,0,9.001,2.496,9.001,7.681c0,4.968-4.488,7.44-9.001,7.44
		c-4.536,0-9.049-2.472-9.049-7.44C46.463,119.255,50.976,116.759,55.512,116.759z M55.512,130.272c4.201,0,8.401-1.944,8.401-5.833
		c0-4.081-4.2-6.024-8.401-6.024c-4.199,0-8.424,1.944-8.424,6.024C47.088,128.328,51.313,130.272,55.512,130.272z"/>
	<path fill="#FFFFFF" d="M64.129,114.313h-0.6c0-1.704-0.457-2.28-1.656-2.28H49.127c-1.199,0-1.655,0.576-1.655,2.28h-0.601v-3.24
		l14.449-10.945H48.791c-0.936,0-1.319,0.624-1.319,2.496h-0.601v-5.497h0.601c0,1.584,0.407,2.304,1.319,2.304h15.458v0.384
		l-15.313,11.497h12.938c1.199,0,1.656-0.528,1.656-2.497h0.6V114.313z"/>
	<path fill="#FFFFFF" d="M56.328,79.152h0.624c0,1.512,0.576,1.992,1.704,1.992h5.473v1.08l-1.248,0.408
		c0.672,1.032,1.632,2.4,1.632,4.68c0,4.561-3.12,7.561-9.001,7.561c-5.279,0-9.049-3.144-9.049-7.657
		c0-1.464,0.289-2.664,0.504-3.216l-0.479-1.944l4.296-1.656l0.168,0.384c-1.631,1.272-3.888,3.168-3.888,6.313
		c0,3.456,3.505,6.145,8.329,6.145c5.76,0,8.521-2.928,8.521-5.929c0-2.592-1.921-4.68-3.384-4.68h-1.873
		c-1.128,0-1.704,0.504-1.704,2.664h-0.624V79.152z"/>
	<path fill="#FFFFFF" d="M56.328,61.152h0.624c0,1.512,0.576,1.992,1.704,1.992h5.473v1.08l-1.248,0.408
		c0.672,1.032,1.632,2.4,1.632,4.68c0,4.561-3.12,7.561-9.001,7.561c-5.279,0-9.049-3.144-9.049-7.657
		c0-1.464,0.289-2.664,0.504-3.216l-0.479-1.944l4.296-1.656l0.168,0.384c-1.631,1.272-3.888,3.168-3.888,6.313
		c0,3.456,3.505,6.145,8.329,6.145c5.76,0,8.521-2.928,8.521-5.929c0-2.592-1.921-4.68-3.384-4.68h-1.873
		c-1.128,0-1.704,0.504-1.704,2.664h-0.624V61.152z"/>
	<path fill="#FFFFFF" d="M46.871,58.969v-6.48h0.601c0,1.872,0.36,2.496,1.56,2.496h13.082c0.959,0,1.416-0.624,1.416-2.496h0.6
		v6.48h-0.6c0-1.872-0.457-2.496-1.416-2.496H49.031c-1.199,0-1.56,0.624-1.56,2.496H46.871z"/>
	<path fill="#FFFFFF" d="M64.129,50.329h-0.624c0-1.68-0.456-2.28-1.752-2.28H49.056c-1.104,0-1.584,0.6-1.584,2.28h-0.601v-7.44
		c0-5.856,4.32-8.305,8.617-8.305c4.344,0,8.641,2.448,8.641,8.305V50.329z M61.753,46.537c1.296,0,1.752-0.6,1.752-1.92v-1.728
		c0-4.44-3.984-6.673-8.017-6.673c-4.008,0-8.017,2.232-8.017,6.673v1.728c0,1.32,0.479,1.92,1.584,1.92H61.753z"/>
	<path fill="#FFFFFF" d="M55.512,16.776c4.513,0,9.001,2.496,9.001,7.681c0,4.968-4.488,7.44-9.001,7.44
		c-4.536,0-9.049-2.472-9.049-7.44C46.463,19.272,50.976,16.776,55.512,16.776z M55.512,30.289c4.201,0,8.401-1.944,8.401-5.833
		c0-4.081-4.2-6.024-8.401-6.024c-4.199,0-8.424,1.944-8.424,6.024C47.088,28.345,51.313,30.289,55.512,30.289z"/>
	<path fill="#FFFFFF" d="M63.072,10.417c0.721,0,1.393,0.408,1.393,1.32s-0.672,1.32-1.393,1.32c-0.695,0-1.344-0.408-1.344-1.32
		S62.377,10.417,63.072,10.417z"/>
</g>
</svg>
