<?xml version="1.0" encoding="utf-8"?>
<!-- Generator: Adobe Illustrator 16.0.0, SVG Export Plug-In . SVG Version: 6.00 Build 0)  -->
<!DOCTYPE svg PUBLIC "-//W3C//DTD SVG 1.1//EN" "http://www.w3.org/Graphics/SVG/1.1/DTD/svg11.dtd">
<svg version="1.1" id="Layer_1" xmlns="http://www.w3.org/2000/svg" xmlns:xlink="http://www.w3.org/1999/xlink" x="0px" y="0px"
	 width="1920px" height="1080px" viewBox="0 0 1920 1080" enable-background="new 0 0 1920 1080" xml:space="preserve">
<path fill-rule="evenodd" clip-rule="evenodd" fill="#F5CA51" d="M-464.847,194.453c1.603,8.891-0.311,16.758-6.778,23.301
	c-4.097-1.594-7.979-3.661-12.201-5.022c-2.877-0.927-4.043-3.701-4.29-6.533c-1.607,3.324-1.128,6.733,0.089,10.308
	c1.2,3.525,1.778,7.211-2.239,9.668c-10.613,0.084-18.631-4.582-23.744-13.737c-4.82-8.629-4.942-17.436,0.552-25.984
	c3.865-3.265,7.959-2.666,12.16-0.762c3.187,1.445,6.215,3.184,9.293,4.834c3.516,1.886,5.031,1.331,5.457-2.548
	c0.584-5.315,4.025-8.478,7.566-11.719c3.234,1.313,5.911,3.344,7.962,6.182c-0.016,2.6-2.157,3.596-3.812,4.874
	c-3.185,2.459-5.103,5.641-5.777,9.56c-0.27,1.566-0.967,3.47,1.287,4.214c1.895,0.626,3.18-0.415,4.052-2.025
	c1.575-2.909,3.631-5.164,7.19-5.439C-466.907,193.531-465.744,193.476-464.847,194.453z"/>
<path fill-rule="evenodd" clip-rule="evenodd" fill="#3F4953" d="M-415.648,299.352c1.215,9.549-0.882,18.063-7.83,25.061
	c-2.537-2.943-5.476-4.957-9.492-5.71c-3.809-0.715-5.664-3.722-6.183-7.325c-1.662,3.382-1.235,6.906,0.106,10.577
	c1.23,3.365,1.691,6.844-1.593,9.57c-4.514,0.006-9.007-0.081-12.859-2.955c-2.167-4.714-2.125-9.621-1.357-14.62
	c0.939-6.119-0.812-8.111-7.036-8.449c-2.224-0.121-4.695,0.948-6.606-1.11c0.062-4.688,1.226-9.033,3.997-12.88
	c3.528-3.044,7.38-2.247,11.28-0.962c3.659,1.205,7.033,2.969,10.146,5.22c2.505,1.813,4.897,1.405,5.264-1.576
	c0.663-5.395,4.258-8.806,7.222-12.715c4.214,0.614,6.44,3.948,9.121,6.662c-0.313,2.114-2.164,2.778-3.627,3.764
	c-3.465,2.333-5.541,5.595-6.439,9.602c-0.421,1.88-1.174,4.082,1.458,5.047c2.377,0.872,3.095-1.113,4.047-2.637
	C-422.814,298.768-420.82,297.901-415.648,299.352z"/>
<path fill-rule="evenodd" clip-rule="evenodd" fill="#13A79D" d="M-561.425,246.699c8.796-2.716,17.706-4.825,26.969-5.051
	c1.812,0.771,1.498,2.082,0.894,3.472c-1.566,1.703-1.514,4.033-2.306,6.036c-0.107,1.737-1.021,3.329-0.887,5.107
	c0.252,1.104,0.451,2.205,0.058,3.315c-1.028,1.738-1.76,3.502-0.455,5.441c0.553,1.011,0.769,2.095,0.745,3.234
	c-0.241,1.671-0.886,3.354,0.165,4.988c0.164,1.85,1.356,3.133,2.469,4.464c0.439,0.839,0.745,1.688,0.199,2.601
	c-12.288-0.515-24.135-2.791-35.055-8.773c-1.626-0.28-3.256-0.514-4.497-1.798c-1.751-1.813-3.707-3.721-2.873-6.439
	c0.852-2.773,3.607-2.436,5.873-2.618c1.791-0.145,3.607,0.072,5.538-0.213c-0.758-2.116-2.694-2.547-4.102-3.559
	c-4.237-3.046-4.007-5.918,0.582-8.58C-565.991,247.099-563.581,247.514-561.425,246.699z"/>
<path fill-rule="evenodd" clip-rule="evenodd" fill="#3F4953" d="M-561.425,246.699c-2.611,1.447-5.265,2.823-7.819,4.363
	c-2.204,1.328-2.292,2.539,0.298,3.714c3.442,1.561,6.688,3.465,9.24,7.725c-4.465,0-8.214-0.036-11.963,0.022
	c-1.1,0.018-2.562-0.508-3.198,0.671c-0.741,1.374,0.381,2.585,1.231,3.518c1.559,1.709,3.327,3.226,5.007,4.822
	c-7.863,2.842-15.463,3.248-22.738-1.873c-2.702-1.902-3.943-3.593-0.386-6.458c-3.431-1.083-6.263-2.223-8.978-3.969
	c2.954-3.209,7.155-3.745,10.255-5.932c0.188-1.22-0.65-1.542-1.318-1.96c-3.433-2.146-2.67-3.933,0.311-5.846
	c8.406-5.396,16.922-4.95,25.501-0.604C-564.498,245.644-563.146,246.597-561.425,246.699z"/>
<path fill-rule="evenodd" clip-rule="evenodd" fill="#3F4953" d="M-487.278,249.532c0.267-0.089,0.534-0.092,0.802-0.01
	c1.438,2.271,3.598,3.916,5.228,6.02c2.213,0.915,2.463,3.321,3.753,4.938c-1.499,0.967-0.967,3.16-2.484,4.115
	c-0.708,2.238-2.405,3.616-4.241,4.873c-2.626,1.391-4.362,4.07-7.286,5.029c-0.548-0.016-1.096-0.032-1.644-0.048
	c-1.181,1.393-2.834,1.938-4.479,2.498c-1.385,0.307-2.636,1.695-4.204,0.521c-0.447,0.335-0.896,0.67-1.344,1.004
	c-1.634,0.822-3.25,0.746-4.851-0.098c-2.355-1.706-1.665-4.708-2.944-6.875c-0.461-1.395-0.29-2.803-0.082-4.21
	c0.111-3.285,0.065-6.572,0.021-9.856c-0.128-1.553-0.738-3.071-0.385-4.665c1.163-2.46,1.696-5.143,2.624-7.691
	c0.188-0.475,0.468-0.885,0.831-1.241c1.254-1.123,2.74-0.979,4.236-0.773c2.358,0.51,4.654,1.246,6.957,1.954
	c1.809,0.547,3.491,1.409,5.238,2.108C-490.159,248.007-488.644,248.637-487.278,249.532z"/>
<path fill-rule="evenodd" clip-rule="evenodd" fill="#14A89E" d="M-509.502,267.487c0.016,1.341,0.03,2.682,0.046,4.023
	c-0.075,2.262,0.205,4.463,1.126,6.554c0.172,0.462,0.074,0.844-0.337,1.133c-8.281,0.824-16.554,1.869-24.906,1.11
	c-0.296-0.526-0.591-1.053-0.886-1.58c-1.13-1.645-2.088-3.371-2.55-5.335c-0.306-1.646-1.534-3.203-0.471-4.978
	c-0.341-0.871-0.683-1.743-1.024-2.614c0.222-2.144-0.606-4.456,1.025-6.372c-0.344-0.965-0.688-1.93-1.031-2.895
	c1.047-1.943,1.498-4.057,1.776-6.221c1.082-1.971,1.082-4.336,2.286-6.261c0.705-0.805,0.426-1.605-0.009-2.404
	c8.883-0.72,17.696,0.219,26.511,1.118c1.229,0.415,1.067,1.121,0.403,1.932c0.035,0.207,0.011,0.406-0.072,0.599
	c-1.699,2.203-1.456,5.132-2.791,7.472c0.928,1.109,1.012,2.42,0.898,3.776C-511.088,260.193-511.095,263.841-509.502,267.487z"/>
<path fill-rule="evenodd" clip-rule="evenodd" fill="#13A79D" d="M-430.59,281.477c-0.029,1.42,1.355,3.36-0.236,4.164
	c-4.269,2.155-4.456,5.854-5.054,9.897c-0.585,3.962-4.213,4.838-7.505,2.378c-6.267-4.682-12.947-7.999-21.117-6.406
	C-457.299,279.052-441.459,274.365-430.59,281.477z"/>
<path fill-rule="evenodd" clip-rule="evenodd" fill="#E15942" d="M-478.982,176.258c-0.334,2.202-0.038,4.558-2.892,5.675
	c-2.563,1.004-2.791,3.48-2.619,5.922c0.179,2.551-0.795,4.568-2.922,5.942c-2.509,1.621-3.943-0.647-5.672-1.725
	c-6.239-3.89-12.48-7.735-20.372-5.619C-507.053,174.109-490.795,169.302-478.982,176.258z"/>
<path fill-rule="evenodd" clip-rule="evenodd" fill="#E05942" d="M-357.518,132.329c-7.633,4.483-16.283,4.525-22.046,0.123
	c-1.337-1.021-2.922-2.08-3.164-3.729c-0.93-6.342-5.569-7.067-10.596-7.45c-1.092-0.084-2.159-0.489-3.216-1.851
	c1.818,0,3.638-0.011,5.456,0.003c1.812,0.014,3.347-0.353,3.627-2.522c0.372-2.886,2.525-3.951,4.918-4.083
	c3.714-0.205,6.554-1.911,9.431-4.021c5.558-4.076,11.067-3.808,16.916,0.482c-0.377,2.229-2.134,2.781-3.95,3.264
	c-7.006-2.215-11.667,3.36-17.405,5.338c-1.298,0.447-1.049,1.375-0.17,2.668c3.389,4.981,7.622,8.011,13.909,7.443
	c0.81-0.073,1.65,0.04,2.474,0.185C-359.572,129.112-357.464,129.73-357.518,132.329z"/>
<path fill-rule="evenodd" clip-rule="evenodd" fill="#14A79D" d="M-332.566,240.452c0.527,0.64,1.101,1.247,1.574,1.924
	c1.099,1.573,3.033,3.006,1.789,5.23c-1.132,2.021-3.157,2.766-5.448,2.967c-3.379,0.297-6.586-0.571-9.832-1.22
	c-1.405-0.788-3.053-0.299-4.502-0.854c-3.887-2.995-8.151-5.512-11.506-9.18c-2.351-2.571-5.428-5.277-3.589-8.975
	c1.71-3.438,5.55-1.749,8.555-1.802c2.825,2.373,4.082,6.218,7.521,8.012c1.434,1.162,3.013,2.047,4.82,2.497
	C-339.803,240.733-335.97,238.971-332.566,240.452z"/>
<path fill-rule="evenodd" clip-rule="evenodd" fill="#E05842" d="M-509.461,92.684c3.955-0.258,7.939-0.673,11.667,1.173
	c2.756,1.365,5.219,3.142,5.202,6.594c-0.017,3.476-2.54,5.271-5.33,6.482c-5.729,2.489-11.271,1.656-16.566-1.439
	c-3.639-1.157-4.053-3.922-3.321-7.054C-516.978,94.881-513.462,92.558-509.461,92.684z"/>
<path fill-rule="evenodd" clip-rule="evenodd" fill="#13A79D" d="M-468.499,304.39c4.405-1.092,8.77-1.867,13.07,0.523
	c2.279,1.267,3.813,3.135,3.209,5.618c-1.276,5.253-1.628,10.43-0.486,15.731c0.146,0.681-0.509,1.533-0.793,2.307
	C-463.492,323.607-468.109,315.31-468.499,304.39z"/>
<path fill-rule="evenodd" clip-rule="evenodd" fill="#E15942" d="M-490.267,226.174c1.497-3.841,1.865-7.566-0.266-11.415
	c-2.903-5.242,2.507-9.562,1.139-14.681c1.95,0.122,1.956,1.118,2.011,1.837c0.498,6.592,3.005,10.938,10.584,10.869
	c2.713-0.025,3.718,3.001,5.176,4.968C-476.49,223.546-482.696,226.37-490.267,226.174z"/>
<path fill-rule="evenodd" clip-rule="evenodd" fill="#13A69D" d="M-440.64,331.524c0.901-4.298,0.627-8.331-1.277-12.488
	c-2.209-4.82,2.856-8.962,1.194-14.864c2.814,1.966,2.777,3.945,2.909,5.512c0.434,5.142,2.805,7.771,8.168,7.998
	c3.944,0.167,6.558,2.249,6.166,6.731C-428.453,328.582-433.865,331.697-440.64,331.524z"/>
<path fill-rule="evenodd" clip-rule="evenodd" fill="#F1C751" d="M-436.33,92.529c8.228-1.43,8.228-1.43,12.623-10.057
	c0.489,7.863,4.32,10.844,11.625,9.969c-2.073,1.755-4.774,3.146-6.055,5.358c-1.457,2.52,1.53,5.191,1.302,9.066
	c-4.876-4.501-9.72-6.08-14.847,0.027C-428.705,100.28-429.526,95.459-436.33,92.529z"/>
<path fill-rule="evenodd" clip-rule="evenodd" fill="#F2C851" d="M-622.711,248.198c1.279,6.779,3.584,11.904,12.427,9.153
	c-6.657,3.729-8.578,8.287-4.896,15.116c-5.619-5.376-10.648-5.824-15.893,0.642c3.835-6.956,3.032-11.887-4.842-14.991
	C-626.606,256.612-626.606,256.612-622.711,248.198z"/>
<path fill-rule="evenodd" clip-rule="evenodd" fill="#E15942" d="M-464.847,194.453c-4.158,0.945-8.213,1.567-9.492,6.982
	c-0.688,2.914-3.968,2.592-6.388,1.687c-2.349-0.878-2.646-2.633-2.25-5.217c1.149-7.493,5.827-11.973,11.954-15.468
	C-467.445,185.664-465.5,189.727-464.847,194.453z"/>
<path fill-rule="evenodd" clip-rule="evenodd" fill="#13A79D" d="M-415.648,299.352c-4.524,1.082-8.698,2.252-9.946,7.889
	c-0.515,2.322-3.341,2.359-5.534,1.412c-2.095-0.904-3.65-2.134-3.06-4.891c1.586-7.403,4.963-13.275,12.72-15.622
	C-418.375,291.277-416.83,295.22-415.648,299.352z"/>
<path fill-rule="evenodd" clip-rule="evenodd" fill="#3F4953" d="M-348.622,237.573c-3.887-1.798-6.963-4.216-6.903-9.03
	c3.184-3.243,7.203-3.368,11.316-2.928c1.587,0.17,3.142,0.929,4.691-0.092l-0.012-0.021c0.508,3.316,3.965,4.714,5.001,7.76
	c0.591,1.737,1.15,3.409,1.095,5.25c-0.333,0.341-0.731,0.563-1.194,0.669c-4.561,0.21-8.661-3-13.356-1.797
	C-348.195,237.449-348.409,237.511-348.622,237.573z"/>
<path fill-rule="evenodd" clip-rule="evenodd" fill="#E9DED1" d="M-357.518,132.329c-1.44-1.005-2.882-2.01-4.323-3.015
	c-4.092-1.831-5.353-5.345-4.837-9.35c0.484-3.757,1.47-7.577,6.113-8.557c1.457-0.709,2.915-1.418,4.373-2.127
	c11.601-1.271,15.684,8.275,13.762,15.024C-344.168,130.411-348.992,133.023-357.518,132.329z"/>
<path fill-rule="evenodd" clip-rule="evenodd" fill="#DB5E48" d="M-515.61,106.693c0.005,3.556-2.645,2.222-4.319,2.17
	c-6.545-0.203-12.806-2.074-19.1-3.64c-5.715-1.421-11.458-2.076-17.327-1.58c-0.141-0.233-0.281-0.466-0.422-0.699
	c0.085-0.563,0.354-1.018,0.804-1.365c3.217-1.736,6.611-2.337,10.217-1.621c1.729,0.288,3.329,1.169,5.135,1.104
	c4.016,0.802,7.829,2.374,11.863,3.148c2.705,0.521,4.188,0.249,3.15-3.109c-0.906-2.934,0.012-5.492,2.449-7.448
	c1.087-0.654,2.308-0.908,3.516-1.198c0.758-0.056,1.449,0.127,2.059,0.583c0.333,0.379,0.688,0.938,0.48,1.32
	C-519.549,98.844-518.212,102.838-515.61,106.693z"/>
<path fill-rule="evenodd" clip-rule="evenodd" fill="#EFC650" d="M-532.537,150.854c3.549,0.492,5.74,2.389,5.725,5.822
	c-0.016,3.381-2.037,5.684-5.543,5.696c-3.504,0.013-5.487-2.226-5.541-5.66C-537.951,153.192-535.738,151.415-532.537,150.854z"/>
<path fill-rule="evenodd" clip-rule="evenodd" fill="#DD5842" d="M-403.666,209.139c3.807,0.441,5.672,2.555,5.502,6.02
	c-0.159,3.225-2.134,5.287-5.457,5.284c-3.598-0.003-5.598-2.326-5.582-5.698C-409.186,211.296-406.92,209.434-403.666,209.139z"/>
<path fill-rule="evenodd" clip-rule="evenodd" fill="#D85944" d="M-562.842,102.334c0.48-0.777,1.551-1.953,1.341-2.263
	c-0.97-1.433-2.56-0.182-3.861-0.498c-1.235,0.255-2.761,1.394-3.111-1.028c1.152-1.141,3.141-1.222,3.797-2.993
	c-0.14-0.997-2.424-0.08-1.673-1.873c7.427-2.46,15.001-1.926,22.542-0.897c4.119,0.562,8.222,0.58,12.346,0.585
	c0.323,0.581,0.263,1.119-0.18,1.613c-4.392,1.99-9.027,0.616-13.529,0.974c-4.155-1.247-8.468-0.864-12.688-1.11
	c0.131,0.304,0.184,0.583,0.205,0.894c0.075,0.732-0.03,1.46,0.271,2.143c0.661,0.846,1.462,1.626,1.194,2.852
	c-0.441,0.871-1.165,1.456-1.969,1.966c-1.177,0.303-2.324,0.784-3.583,0.563C-562.218,103.083-562.579,102.768-562.842,102.334z"/>
<path fill-rule="evenodd" clip-rule="evenodd" fill="#253148" d="M-515.61,106.693c-6.352-5.565-6.628-7.617-1.771-13.147
	c0.509-1.601,1.779-1.952,3.213-1.985c0.894,0.285,1.443-0.03,1.577-1.012c1.599-0.104,2.891,0.243,3.13,2.134
	c-1.649,0.995-3.48,1.78-4.913,3.024c-3.6,3.124-2.821,6.488-0.114,9.786C-514.862,105.894-515.236,106.293-515.61,106.693z"/>
<path fill-rule="evenodd" clip-rule="evenodd" fill="#BF5143" d="M-469.032,144.188c-3.49,1.27-1.82-1.976-2.319-2.869
	c-0.85-1.52,2.074-1.516,2.418-2.989c1.221,0.894,3.016,1.387,2.8,3.377C-466.319,143.424-466.873,144.941-469.032,144.188z"/>
<path fill-rule="evenodd" clip-rule="evenodd" fill="#BE5143" d="M-620.598,164.533c0.379-1.494,2.448-1.143,3.134-2.317
	c1.041,0.69,2.082,1.382,3.123,2.073c-1.019,1.062-0.609,3.165-3.096,3.254C-619.74,167.625-619.469,165.797-620.598,164.533z"/>
<path fill-rule="evenodd" clip-rule="evenodd" fill="#DE614B" d="M-562.842,102.334c0.465,0.06,0.93,0.119,1.395,0.18
	c1.542,0.488,3.343-0.624,4.738,0.768c0.115,0.123,0.232,0.244,0.353,0.362c-3.616,0.995-7.233,1.991-10.85,2.986
	c-1.068,0.308-2.269,0.893-2.26-1.071C-567.258,104.483-565.05,103.408-562.842,102.334z"/>
<path fill-rule="evenodd" clip-rule="evenodd" fill="#C05243" d="M-369.979,317.904c-3.104,1.59-2.392-1.589-2.611-2.437
	c-0.425-1.639,2.136-1.38,2.65-2.727c0.585,1.265,2.986,1.063,2.65,2.842C-367.519,316.797-367.273,319.357-369.979,317.904z"/>
<path fill-rule="evenodd" clip-rule="evenodd" fill="#CC5442" d="M-384.012,175.582c1.42-1.086,2.515-2.536,3.358-2.403
	c0.94,0.149,2.854,0.535,2.609,2.599c-0.248,2.092-1.736,1.952-3.241,2.38C-384.53,179.079-381.742,175.807-384.012,175.582z"/>
<path fill-rule="evenodd" clip-rule="evenodd" fill="#339C87" d="M-673.182,94.664c-1.894,1.898-2.966,4.846-6.287,4.917
	c-1.229-1.024,0.544-2.17-0.13-3.218C-677.638,95.122-675.54,94.4-673.182,94.664z"/>
<path fill-rule="evenodd" clip-rule="evenodd" fill="#D55642" d="M-513.669,92.341c-1.237,0.401-2.475,0.804-3.712,1.205
	c-0.718-0.02-1.437-0.038-2.155-0.058c-1.07-0.605-2.112,0.192-3.176,0.067c-0.449,0.082-0.898,0.103-1.354,0.065
	c-0.701-0.182-1.258-0.542-1.543-1.237c1.55-0.92,3.296-0.873,5.004-1.015C-518.252,91.405-515.631,89.521-513.669,92.341z"/>
<path fill-rule="evenodd" clip-rule="evenodd" fill="#365F64" d="M-334.271,238.521c0.279-0.006,0.558-0.009,0.838-0.01
	c0.29,0.647,0.579,1.295,0.867,1.941c-3.972,1.512-7.945,1.401-11.923,0.022c-0.306-0.9,0.223-1.374,0.898-1.777
	C-340.506,237.61-337.36,239.598-334.271,238.521z"/>
<path fill-rule="evenodd" clip-rule="evenodd" fill="#CC5644" d="M-569.466,105.559c0.753,0.356,1.506,0.714,2.259,1.071
	c-2.137,1.325-4.514,1.843-6.979,2.058c-1.033,0.2-2.287,0.855-2.27-1.104C-574.126,106.908-571.796,106.233-569.466,105.559z"/>
<path fill-rule="evenodd" clip-rule="evenodd" fill="#B6B3AF" d="M-491.508,274.498c1.8-2.588,4.223-4.272,7.286-5.029
	C-485.964,272.139-488.243,274.032-491.508,274.498z"/>
<path fill-rule="evenodd" clip-rule="evenodd" fill="#2F3E4F" d="M-339.518,225.523c0.843-0.938,1.945-1.076,3.104-0.957
	c1.183,0.122,2.275,0.482,2.448,1.861c0.046,0.369-0.289,1.024-0.612,1.159c-1.229,0.514-1.509-0.846-2.271-1.27
	c-0.798-0.443-1.778-0.558-2.679-0.815C-339.529,225.502-339.518,225.523-339.518,225.523z"/>
<path fill-rule="evenodd" clip-rule="evenodd" fill="#9E9FA0" d="M-496.55,245.65c-2.423-0.638-4.845-1.275-7.268-1.914
	c0.072-0.781,0.826-0.761,1.282-1.091c2.012,0.618,4.023,1.236,6.035,1.854c0.244,0.267,0.317,0.526,0.222,0.778
	C-496.373,245.526-496.464,245.65-496.55,245.65z"/>
<path fill-rule="evenodd" clip-rule="evenodd" fill="#884645" d="M-513.669,92.341c-2.119-1.701-4.666-0.347-6.936-0.972
	c2.554-1.428,5.331-0.663,8.015-0.82C-511.784,91.849-511.989,92.538-513.669,92.341z"/>
<path fill-rule="evenodd" clip-rule="evenodd" fill="#B0AEAC" d="M-481.249,255.542c-2.325-1.5-4.912-2.773-5.228-6.02
	C-484.188,251.055-481.896,252.585-481.249,255.542z"/>
<path fill-rule="evenodd" clip-rule="evenodd" fill="#D4805E" d="M-525.608,92.384c0.778,0.098,1.558,0.195,2.337,0.294
	c-1.354,3.519-4.307,2.814-7.051,2.674c-0.546-0.2-0.96-0.559-1.243-1.067c0.027-0.307,0.061-0.612,0.103-0.917
	C-529.511,93.039-527.56,92.711-525.608,92.384z"/>
<path fill-rule="evenodd" clip-rule="evenodd" fill="#954844" d="M-566.35,93.679c0.147,0.991,2.313,0.18,1.673,1.873
	c-1.568,0-3.136,0-4.895,0C-568.875,93.631-567.62,93.638-566.35,93.679z"/>
<path fill-rule="evenodd" clip-rule="evenodd" fill="#A6AAA8" d="M-502.535,242.646c-0.427,0.364-0.854,0.728-1.281,1.091
	c-1.36-0.139-2.655-0.024-3.726,0.961c-0.133-0.645-0.266-1.29-0.401-1.934C-506.182,240.938-504.34,242.598-502.535,242.646z"/>
<path fill-rule="evenodd" clip-rule="evenodd" fill="#AD4D44" d="M-576.456,107.584c0.756,0.367,1.512,0.735,2.269,1.104
	c-1.723,0.93-3.502,1.241-5.48,0.527C-578.966,107.773-577.69,107.719-576.456,107.584z"/>
<path fill-rule="evenodd" clip-rule="evenodd" fill="#A6A5A4" d="M-496.55,245.65c0.017-0.383,0.033-0.767,0.05-1.15
	c1.919,0.231,3.663,0.863,5.087,2.227c-0.007,0.221-0.014,0.44-0.02,0.661C-493.369,247.487-495.003,246.698-496.55,245.65z"/>
<path fill-rule="evenodd" clip-rule="evenodd" fill="#BB5143" d="M-568.474,98.545c0.821,0.994,2.019,0.853,3.11,1.028
	c-1.195,0.903-2.627,0.934-4.025,1.086c-1.073,0.333-2.201,0.767-2.065-1.123C-570.461,99.206-569.468,98.875-568.474,98.545z"/>
<path fill-rule="evenodd" clip-rule="evenodd" fill="#28998B" d="M-642.671,108.621c-0.341-1.34-4.504-0.614-1.911-3.54
	c1.31,0.849,2.342,1.929,2.848,3.442C-642.046,108.565-642.357,108.599-642.671,108.621z"/>
<path fill-rule="evenodd" clip-rule="evenodd" fill="#A2A2A1" d="M-497.688,276.366c1.512-0.639,3.022-1.277,4.535-1.916
	c-0.036,2.244-1.843,2.431-3.391,2.918C-496.939,277.052-497.591,277.026-497.688,276.366z"/>
<path fill-rule="evenodd" clip-rule="evenodd" fill="#A9A8A8" d="M-479.98,264.596c0.385-1.639-0.001-3.744,2.484-4.115
	C-477.704,262.227-478.001,263.919-479.98,264.596z"/>
<path fill-rule="evenodd" clip-rule="evenodd" fill="#764246" d="M-571.454,99.536c0.688,0.374,1.377,0.748,2.065,1.123
	c-1.25,0.791-2.843,1.48-3.88,0.421C-573.838,100.497-572.316,99.834-571.454,99.536z"/>
<path fill-rule="evenodd" clip-rule="evenodd" fill="#CBC6BF" d="M-508.667,279.197c0.075-0.195,0.105-0.397,0.09-0.606
	c-0.533-1.059,0.071-1.152,0.897-1.059c1.266,1.437,3.061,0.346,4.502,0.94C-504.795,280.321-506.736,279.72-508.667,279.197z"/>
<path fill-rule="evenodd" clip-rule="evenodd" fill="#DAD2C7" d="M-491.433,247.388c0.112-0.218,0.118-0.438,0.02-0.661
	c1.655,0.526,3.146,1.297,4.135,2.806C-489.113,249.688-490.335,248.658-491.433,247.388z"/>
<path fill-rule="evenodd" clip-rule="evenodd" fill="#B6B4B0" d="M-497.688,276.366c0.382,0.334,0.764,0.668,1.145,1.002
	c-1.765-0.048-3.475,2.784-5.29,0.101C-500.451,277.102-499.069,276.734-497.688,276.366z"/>
<path fill-rule="evenodd" clip-rule="evenodd" fill="#7E9562" d="M-348.985,248.499c1.642-0.457,3.256-0.771,4.501,0.854
	C-346.101,249.681-347.633,249.565-348.985,248.499z"/>
<path fill-rule="evenodd" clip-rule="evenodd" fill="#B0B762" d="M-657.918,130.639c0.552,2.063,1.418,3.536,0.645,5.152
	c-0.197,0.412-0.82,0.521-1.18-0.033C-659.472,134.186-660.127,132.614-657.918,130.639z"/>
<path fill-rule="evenodd" clip-rule="evenodd" fill="#5FA87C" d="M-663.378,114.32c-1.445-0.171-2.905,1.915-4.91-0.765
	c1.948,0,3.4,0,4.854,0C-663.35,113.806-663.33,114.061-663.378,114.32z"/>
<path fill-rule="evenodd" clip-rule="evenodd" fill="#99AB64" d="M-643.438,112.41c0.936,0.617,1.31,1.454,0.718,2.459
	c-0.415,0.705-1.105,0.499-1.694,0.167c-1.289-0.727-0.457-1.655-0.211-2.524C-644.264,112.084-643.867,112.05-643.438,112.41z"/>
<path fill-rule="evenodd" clip-rule="evenodd" fill="#639F75" d="M-643.438,112.41c-0.396,0.033-0.791,0.067-1.188,0.102
	c-1.213-0.07-1.842-0.722-1.918-1.925c0.646-0.815,1.355-0.862,2.124-0.17C-645.323,111.688-643.673,111.7-643.438,112.41z"/>
<path fill-rule="evenodd" clip-rule="evenodd" fill="#36A58C" d="M-662.619,121.743c-0.823-1.169-1.887-0.253-2.837-0.328
	c-0.64-0.498-0.633-0.921,0.146-1.253c0.56-0.622,1.119-1.244,1.679-1.867C-663.294,119.444-662.956,120.594-662.619,121.743z"/>
<path fill-rule="evenodd" clip-rule="evenodd" fill="#ADD4C7" d="M-537.479,259.429c-0.388,2.116,0.796,4.486-1.025,6.372
	C-539.28,263.497-540.772,261.077-537.479,259.429z"/>
<path fill-rule="evenodd" clip-rule="evenodd" fill="#C3D9CC" d="M-534.447,244.053c-0.024,2.34-0.602,4.521-1.875,6.5
	c-0.32,0.514-0.62,0.527-0.896-0.036C-536.458,248.292-536.781,245.603-534.447,244.053z"/>
<path fill-rule="evenodd" clip-rule="evenodd" fill="#C0D8CC" d="M-536.396,273.468c1.207,1.546,1.813,3.314,1.938,5.26
	c-1.841-1.249-3.185-2.802-3.16-5.187C-537.233,273.151-536.825,273.127-536.396,273.468z"/>
<path fill-rule="evenodd" clip-rule="evenodd" fill="#CBDCCF" d="M-536.396,273.468c-0.407,0.024-0.814,0.049-1.223,0.073
	c-0.84-1.733-1.488-3.46,0.14-5.126C-537.118,270.1-536.757,271.783-536.396,273.468z"/>
<path fill-rule="evenodd" clip-rule="evenodd" fill="#CEDCD0" d="M-537.219,250.517c0.298,0.022,0.597,0.034,0.896,0.036
	c-0.158,2.202,0.079,4.549-2.187,5.981C-538.079,254.528-537.649,252.522-537.219,250.517z"/>
<path fill-rule="evenodd" clip-rule="evenodd" fill="#A9A7A3" d="M-509.502,267.487c-2.67-2.938-2.673-7.858-0.006-10.942
	C-509.506,260.192-509.504,263.84-509.502,267.487z"/>
<path fill-rule="evenodd" clip-rule="evenodd" fill="#97B8B0" d="M-507.68,277.532c-0.299,0.353-0.598,0.705-0.897,1.059
	c-1.323-2.232-2.498-4.483-0.879-7.081C-507.976,273.256-508.532,275.602-507.68,277.532z"/>
<path fill-rule="evenodd" clip-rule="evenodd" fill="#B4C5BC" d="M-510.405,252.769c0.358-2.704-0.227-5.76,2.791-7.471
	C-508.479,247.812-507.664,250.954-510.405,252.769z"/>
<path fill-rule="evenodd" clip-rule="evenodd" fill="#45A485" d="M-673.792,116.374c-3.206-0.113-5.143,4.413-8.861,2.425
	c-0.389-2.017-0.153-3.589,2.464-3.47c0.263-0.592,0.525-1.184,0.788-1.774C-678.283,115.989-673.801,111.731-673.792,116.374z"/>
<path fill-rule="evenodd" clip-rule="evenodd" fill="#59A37C" d="M-674.624,110.801c-1.351,1.057-2.318,2.19-3.912,1.583
	c-0.213-0.081-0.399-0.987-0.22-1.221C-677.775,109.884-676.573,109.261-674.624,110.801z"/>
<path fill-rule="evenodd" clip-rule="evenodd" fill="#63A679" d="M-665.31,120.162c-0.049,0.418-0.098,0.835-0.146,1.253
	c-1.743-0.374-4.295,0.368-3.963-2.87C-668.15,119.342-667.015,120.476-665.31,120.162z"/>
<path fill-rule="evenodd" clip-rule="evenodd" fill="#D4D9CC" d="M-532.544,252.497c3.459-4.212,7.88-4.671,12.53-2.712
	c4.541,1.912,6.976,5.608,6.753,10.615c-0.215,4.824-2.114,8.646-7.257,10.003c-0.338-0.314-0.547-0.696-0.609-1.157
	c0.364-2.83,3.081-4.208,4.079-6.644c0.981-1.546,0.826-3.062-0.13-4.557c-3.087-5.403-5.124-6.231-11.144-4.469
	c-0.942,0.276-1.862,0.599-2.866,0.436C-531.932,253.769-532.39,253.268-532.544,252.497z"/>
<path fill-rule="evenodd" clip-rule="evenodd" fill="#E1D4C6" d="M-532.544,252.497c0.345,0.247,0.689,0.494,1.035,0.741
	c0.092,0.985,0.105,1.971-0.264,2.906c-1.558,3.948-0.879,7.343,2.384,10.18c0.741,0.644,1.218,1.537,1.313,2.57
	c-0.052,0.868-0.673,1.17-1.381,1.385C-536.927,265.909-538.183,258.674-532.544,252.497z"/>
<path fill-rule="evenodd" clip-rule="evenodd" fill="#EEE3D7" d="M-529.457,270.279c0.424-0.331,0.848-0.663,1.271-0.994
	c2.543-2.196,5.081-2.224,7.614,0.017c0.019,0.367,0.037,0.734,0.055,1.102C-523.524,272.327-526.496,271.697-529.457,270.279z"/>
<path fill-rule="evenodd" clip-rule="evenodd" fill="#F5CA51" d="M-360.564,111.408c-5.761,6.771-6.018,10.396-1.272,17.908
	c-9.412,3.092-14.341-3.391-19.039-10.13C-377.612,113.57-366.292,108.831-360.564,111.408z"/>
<path fill-rule="evenodd" clip-rule="evenodd" fill="#396065" d="M-343.154,239.317c-0.445,0.386-0.89,0.772-1.335,1.158
	c-1.55-0.722-3.339-1.103-4.132-2.902c-0.001,0,0.11-0.123,0.11-0.123C-346.012,236.025-344.121,236.345-343.154,239.317z"/>
<path fill-rule="evenodd" clip-rule="evenodd" fill="#F1E6D9" d="M-346.801,245.052c-0.452,0.391-0.804,0.929-1.146,0.923
	c-0.316-0.006-0.85-0.585-0.864-0.93c-0.012-0.293,0.571-0.841,0.906-0.853C-347.574,244.181-347.224,244.698-346.801,245.052z"/>
<g>
	<path fill-rule="evenodd" clip-rule="evenodd" fill="#3E4953" d="M1243.576,809.26c1.471-4.593,2.944-9.186,4.582-14.3
		c-11.221,4.089-11.221,4.089-14.218,20.469c-3.657-1.794-7.11-3.484-10.629-5.21c8.119-13.16,17.376-22.507,33.236-25.448
		c8.351-1.548,14.838-12.235,25.369-5.615c2.226,1.401,6.296,3.147,6.193,4.48c-1.31,17.106,17.893,30.346,9.092,48.79
		c-1.052,2.205-0.705,5.075-1.063,8.114c-3.729-1.619-6.888-2.989-10.653-4.624c5.934-6.439,9.095-13.349,4.192-24.897
		c-4.426,17.779-24.534,21.866-24.892,39.95c-0.059,2.954-3.212,2.456-5.313,1.327c-2.03-1.092-3.874-2.475-2.774-5.308
		c1.778-4.582,3.098-9.413,5.427-13.693c2.581-4.74,0.191-6.535-3.474-8.241c-4.882-2.276-5.088,1.526-7.466,4.344
		c-3.975,4.709-1.68,18.142-10.714,13.83c-8.527-4.073,3.832-10.465,3.97-16.661c0.048-2.159,1.219-4.293,1.877-6.439
		C1241.869,817.397,1240.987,813.767,1243.576,809.26z"/>
	<path fill-rule="evenodd" clip-rule="evenodd" fill="#334150" d="M1243.576,809.26c0.914,3.622,1.828,7.245,2.743,10.867
		c-4.715,0.226-6.724,3.721-9.193,7.063c-10.887,14.727-25.92,18.195-43.071,15.042c-17.684-3.252-32.693-12.818-48.096-21.222
		c-11.541-6.299-22.954-12.314-36.467-12.784c13.701-3.945,25.275,1.715,36.555,8.355c14.019,8.255,28.088,16.632,43.776,21.126
		C1213.832,844.584,1228.356,836.522,1243.576,809.26z"/>
	<path fill-rule="evenodd" clip-rule="evenodd" fill="#E9DFD3" d="M1282.293,805.637c-5.52,5.411-2.825,16.971-13.038,15.54
		c-6.143-0.864-16.301-2.208-15.783-11.032c0.323-5.525,0.988-16.131,11.111-15.185
		C1271.179,795.574,1278.096,798.582,1282.293,805.637z"/>
</g>
<path fill-rule="evenodd" clip-rule="evenodd" fill="#C6C2BB" d="M-343.154,239.317c-1.639-1.045-3.33-1.934-5.356-1.866
	c-0.455-1.178-0.763-2.373,1.176-2.093c4.449,0.645,9.081,0.576,13.063,3.163C-336.972,241.699-340.087,240.245-343.154,239.317z"/>
<path fill-rule="evenodd" clip-rule="evenodd" fill="#404953" d="M-344.359,120.678c0.104,5.456-3.83,9.644-9.109,9.698
	c-4.95,0.051-9.104-4.079-9.188-9.135c-0.09-5.335,3.955-9.609,9.18-9.701C-348.475,111.451-344.458,115.477-344.359,120.678z"/>
<path fill-rule="evenodd" clip-rule="evenodd" fill="#F4C853" d="M-530.439,94.492c2.389-0.605,4.776-1.211,7.166-1.815
	c0.238,0.015,0.47,0.056,0.696,0.125c0.691,0.596,0.669,1.26,0.188,1.968c-2.481,2.499-2.688,5.051-0.535,7.961
	c2.081,2.813,1.177,4.098-2.309,3.919c-5.356-0.275-10.226-2.413-15.295-3.784c-1.375-1.908-3.703-0.076-5.243-1.338
	c-3.497,0.343-6.994,0.685-10.49,1.027c-0.995,0.459-2.039,1.04-2.105-0.837c0.585-0.459,1.171-0.917,1.756-1.376
	c0.59-0.696,0.22-1.34-0.115-1.983c-0.231-0.491-0.422-1.002-0.715-1.464c-0.289-0.466-0.597-0.919-0.885-1.383
	c-0.141-0.294-0.203-0.604-0.187-0.929c3.186-1.248,6.487-0.314,9.729-0.518C-542.704,95.689-536.574,95.2-530.439,94.492z"/>
<path fill-rule="evenodd" clip-rule="evenodd" fill="#EDB793" d="M-558.366,101.718c0.7,0.278,1.401,0.558,2.104,0.837
	c-0.147,0.242-0.297,0.485-0.445,0.728c-1.585-0.229-3.401,0.979-4.739-0.769C-560.481,102.012-559.54,101.416-558.366,101.718z"/>
<path fill-rule="evenodd" clip-rule="evenodd" fill="#F0C487" d="M-545.771,101.527c1.819,0.162,3.905-0.728,5.242,1.336
	C-542.261,102.361-544.217,102.733-545.771,101.527z"/>
<path fill-rule="evenodd" clip-rule="evenodd" fill="#F0CAA9" d="M-522.389,94.77c-0.062-0.656-0.123-1.313-0.187-1.969
	c1.085-0.098,2.303-0.769,3.039,0.688C-520.486,93.915-521.438,94.343-522.389,94.77z"/>
<path fill-rule="evenodd" clip-rule="evenodd" fill="#ECAE8D" d="M-548.523,94.545c-3.329,0.012-6.659,0.023-9.988,0.037
	c-1.012,0.146-2.061,1.459-3.628-1.021c5.641,0.425,10.666-1.086,15.702,0.875C-547.102,95.082-547.798,95.098-548.523,94.545z"/>
<path fill-rule="evenodd" clip-rule="evenodd" fill="#F3C874" d="M-548.523,94.545c0.695-0.036,1.391-0.072,2.086-0.108
	c4.957-0.05,9.915-0.101,14.872-0.151c0.375,0.068,0.75,0.138,1.125,0.207C-536.463,96.171-542.491,96.109-548.523,94.545z"/>
<path fill-rule="evenodd" clip-rule="evenodd" fill="#ECB89D" d="M-558.325,95.512c0.597,0.01,1.194,0.019,1.792,0.028
	c1.146,1.865-0.022,2.597-1.545,3.155c-0.461,0.207-0.919,0.189-1.373-0.023C-560.848,96.987-558.368,96.684-558.325,95.512z"/>
<path fill-rule="evenodd" clip-rule="evenodd" fill="#DE614B" d="M-559.451,98.672c0.343-0.118,0.686-0.236,1.028-0.354
	c1.075-0.349,2.149-0.69,3.114,0.264c0.448,1.238-0.264,1.62-1.301,1.761C-557.558,99.785-558.504,99.229-559.451,98.672z"/>
<path fill-rule="evenodd" clip-rule="evenodd" fill="#E15C45" d="M-520.572,269.302c-2.538-0.005-5.076-0.011-7.614-0.017
	c-7.445-5.645-8.212-9.348-3.322-16.047c8.023-4.272,11.281-3.403,16.197,4.317c0.424,1.993,0.627,3.979-0.153,5.94
	C-517.167,265.432-518.869,267.367-520.572,269.302z"/>
<path fill-rule="evenodd" clip-rule="evenodd" fill="#D8D1C3" d="M-515.465,263.496c0.051-1.98,0.102-3.96,0.153-5.94
	C-514.104,259.568-514.037,261.552-515.465,263.496z"/>
<path fill-rule="evenodd" clip-rule="evenodd" fill="#F0C99D" d="M-555.309,98.581c-1.039-0.087-2.077-0.175-3.115-0.263
	c0.762-0.838,1.904-1.415,1.892-2.778C-555.321,96.23-555.604,97.522-555.309,98.581z"/>
<path fill-rule="evenodd" clip-rule="evenodd" fill="#F1E3D5" d="M-524.881,265.648c-3.244-0.333-5.522-2.172-5.353-5.689
	c0.166-3.425,2.456-5.46,5.967-5.346c3.341,0.109,5.276,2.338,5.299,5.48C-518.943,263.539-521.023,265.557-524.881,265.648z"/>
</svg>
