<?xml version="1.0" encoding="utf-8"?>
<!-- Generator: Adobe Illustrator 16.0.0, SVG Export Plug-In . SVG Version: 6.00 Build 0)  -->
<!DOCTYPE svg PUBLIC "-//W3C//DTD SVG 1.1//EN" "http://www.w3.org/Graphics/SVG/1.1/DTD/svg11.dtd">
<svg version="1.1" id="Layer_1" xmlns="http://www.w3.org/2000/svg" xmlns:xlink="http://www.w3.org/1999/xlink" x="0px" y="0px"
	 width="1920px" height="1080px" viewBox="0 0 1920 1080" enable-background="new 0 0 1920 1080" xml:space="preserve">
<g>
	<path fill-rule="evenodd" clip-rule="evenodd" fill="#FEFEFE" d="M1364.326,499.335c0.015,1.134,0.028,2.267,0.042,3.401
		c0.127,1.004,0.302,2.01-0.126,2.992c-0.183,0.084-0.372,0.113-0.569,0.089c-5.358-0.057-10.716-0.002-16.072-0.03
		c-0.727-0.003-1.478,0.12-2.161-0.26c-0.777-0.716-0.479-1.663-0.513-2.528c-0.04-0.997-0.011-1.996-0.01-2.995
		c0.001,3.595,0.012,7.189-0.004,10.784c-0.008,1.889-0.41,2.283-2.318,2.346c-0.473,0.016-0.944,0-1.417-0.039
		c-0.976-0.082-1.602-0.573-1.636-1.573c-0.15-4.569-0.438-9.163,1.936-13.369c0.738-1.309,1.016-2.739,1.092-4.219
		c0.284-0.783,0.367-1.605,0.455-2.424c0-0.098,0.01-0.196,0.028-0.294c0.028-0.143,0.083-0.278,0.113-0.42
		c-0.032,0.094-0.064,0.188-0.097,0.288c-0.031,0.604-0.183,1.189-0.214,1.79c-0.255,4.207-3.128,7.634-3.498,11.819
		c-0.088,1-0.859,1.451-1.854,1.059c-2.481-0.978-5.06-1.737-7.354-3.153c-0.438-0.629-0.271-1.308-0.128-1.967
		c0.442-2.047,1.045-4.043,2.017-5.91c0.364-0.759,0.916-1.408,1.286-2.165c0.531-0.792,1.135-1.53,1.691-2.306
		c0.321-0.427,0.653-0.844,1.053-1.202c1.106-0.972,1.226-1.943,0.143-3.061c-0.84-0.866-1.125-1.987-1.096-3.194
		c0.052-2.097-0.099-4.197,0.077-6.294c0.265-0.453,0.173-1,0.391-1.464c0.02-0.523,0.04-1.047,0.058-1.57
		c0.015-0.443,0.116-1.002,0.601-0.95c1.191,0.128,1.303-0.753,1.636-1.491c3.788-8.375,15.151-10.865,22.146-4.903
		c1.172,1,2.108,2.107,2.756,3.484c-0.17,1.091-0.934,0.661-1.55,0.608c-0.235-0.069-0.481-0.091-0.72-0.139
		c-0.508-0.19-1.053-0.27-1.547-0.501c-0.646-0.496-1.343-0.907-2.101-1.212c-0.893-0.47-1.847-0.702-2.851-0.753
		c-0.801-0.007-1.6-0.003-2.398-0.002c-0.841-0.061-1.626,0.147-2.379,0.506c-0.435,0.252-0.911,0.388-1.397,0.491
		c-0.128,0.029-0.261,0.045-0.392,0.053c-0.393,0-0.742,0.147-1.079,0.338c-0.378,0.193-0.761,0.374-1.092,0.64
		c-0.365,0.284-0.688,0.62-1.054,0.903c-0.43,0.299-0.764,0.685-1.036,1.128c-0.138,0.22-0.268,0.444-0.378,0.679
		c-0.215,0.421-0.303,0.877-0.371,1.34c-0.13,0.508-0.341,0.956-0.857,1.183c-0.552,0.126-1.13-0.148-1.673,0.111
		c-1.403,0.83-1.077,1.929-0.479,3.069c0.831,0.6,1.087,1.42,1.073,2.421c-0.013,0.965-0.194,1.96,0.24,2.893
		c0.313,0.935,0.89,1.655,1.764,2.121c4.269,2.277,8.745,3.444,13.606,2.51c1.556-0.299,3.027-0.817,4.384-1.655
		c0.572-0.353,1.13-0.784,1.87-0.724c0.631,0.298,1.184,0.654,1.05,1.492c0.033,0.501-0.634,0.437-0.696,0.861
		c-0.226,0.91-1.017,1.158-1.745,1.434c-4.132,1.566-8.362,1.955-12.7,1.026c-0.664-0.142-1.322-0.314-1.995-0.362
		c4.939,1.642,9.827,1.557,14.651-0.495c0.819-0.348,1.575-0.849,2.464-1.032c2.751,0.604,5.496,1.003,8.191-0.246
		c0.802,0.858,0.494,1.959,0.628,2.957c0.227,1.684,0.497,3.371,0.272,5.08c-1.521,1.58-3.58,1.337-5.488,1.619
		c-0.771,0.114-1.695-0.293-2.234,0.634C1364.675,498.867,1364.427,499.059,1364.326,499.335z"/>
	<path fill-rule="evenodd" clip-rule="evenodd" fill="#FEFEFE" d="M1364.946,513.854c0.155,0.016,0.384-0.03,0.455,0.056
		c0.6,0.717,0.332,3.357-0.39,4.07c-2.066,0.227-4.14,0.591-6.213,0.36c-1.262-0.14-1.827,0.246-2.093,1.456
		c-0.713,3.244-1.879,6.326-3.514,9.221c-0.153,0.224-0.31,0.45-0.359,0.729c-0.035,0.135-0.099,0.255-0.187,0.363
		c-0.21,0.2-0.456,0.332-0.739,0.394c-0.218,0.036-0.43,0.018-0.639-0.048c-0.687-0.492-1.364-0.518-2.031,0.042
		c-0.221,0.058-0.438,0.052-0.656-0.012c-0.908-0.492-1.591-1.301-2.514-1.774c-0.695-0.537-1.626-0.843-1.825-1.865
		c0.205-0.84,0.032-1.271-0.979-1.092c-0.498,0.088-0.998,0.162-1.492,0.283c-0.593-0.029-1.103-0.207-1.395-0.775
		c-0.129-0.302-0.18-0.618-0.168-0.944c-0.003-0.385-0.007-0.771-0.009-1.156c-0.119-0.941,0.136-1.556,1.247-1.409
		c0.502,0.067,1.171,0.334,1.334-0.345c0.154-0.641-0.49-0.959-0.989-1.252c-0.261-0.169-0.532-0.324-0.755-0.547
		c-0.621-0.737-0.557-1.691-0.806-2.548c-0.018-0.173-0.025-0.346-0.028-0.52c0.061-0.649-0.249-1.255-0.22-1.902
		c0.077-0.922,0.717-1.208,1.501-1.32c0.626-0.088,1.257-0.068,1.887-0.068c6.296-0.002,12.592-0.007,18.889,0.006
		C1363.189,513.259,1364.17,513.121,1364.946,513.854z"/>
	<path fill-rule="evenodd" clip-rule="evenodd" fill="#6E6E6E" d="M1330.898,545.711c-0.563-1.453-1.674-2.545-2.519-3.813
		c-1.419-2.394-1.414-2.387,0.901-4.075c0.671-0.488,1.304-1.029,1.953-1.546c0.849-1.328,1.979-2.398,3.14-3.441
		c0.742-0.724,0.99-1.743,1.543-2.581c2.427,3.021,5.155,5.759,7.945,8.438c0.078,0.245-0.016,0.436-0.188,0.601
		c-0.294,0.223-0.637,0.359-0.955,0.539c-1.441,1.078-3.123,1.667-4.756,2.357c-0.525,0.211-0.492,0.584-0.286,1.006
		c0.384,0.834,0.533,1.738,0.805,2.605c0.115,0.637,0.13,1.273,0.001,1.912c-0.059,0.232-0.153,0.451-0.273,0.658
		c-0.158,0.27-0.358,0.504-0.609,0.691c-0.459,0.221-0.859,0.588-1.413,0.586c-0.833-0.346-1.713-0.025-2.563-0.172
		c-0.882-0.354-1.236-1.182-1.688-1.908C1331.562,546.967,1331.192,546.359,1330.898,545.711z"/>
	<path fill-rule="evenodd" clip-rule="evenodd" fill="#E1E1E3" d="M1335.564,476.53c0.016,1.933,0.126,3.871,0.018,5.797
		c-0.085,1.518,0.286,2.796,1.348,3.836c0.989,0.971,1.22,1.819-0.098,2.683c-0.248,0.163-0.406,0.463-0.606,0.7
		c-2.551,0.469-5.125,0.225-7.689,0.241c-0.527,0.003-1.051-0.078-1.493-0.416c-0.635-0.76-0.47-1.649-0.434-2.532
		c0.049-1.195,0.01-2.392,0.017-3.588c-0.001-0.193,0.004-0.388,0.013-0.583c-0.015-0.414,0.182-0.743,0.423-1.055
		c0.104-0.731-0.17-1.519,0.326-2.192c0.138,0.06,0.104,0.231,0.206,0.314c-0.064-0.191-0.016-0.411-0.145-0.587
		c0.089-0.319,0.179-0.637,0.269-0.956c-0.031-0.751,0.456-1.044,1.077-1.218c1.716-1.272,3.646-0.931,5.555-0.737
		C1334.823,476.054,1335.249,476.063,1335.564,476.53z"/>
	<path fill-rule="evenodd" clip-rule="evenodd" fill="#CBCBCC" d="M1340.637,516.683c0.002,0.108,0.004,0.216,0.006,0.324
		c-0.113,0.107-0.243,0.185-0.393,0.235c-0.159,0.017-0.313-0.001-0.466-0.051c-0.148-0.076-0.266-0.184-0.357-0.322
		c-0.214-0.45-0.42-0.903-0.512-1.398c-0.5-2.104-0.676-4.241-0.697-6.397c-0.019-1.854-0.084-1.906-1.984-1.938
		c-0.84-0.015-1.682,0.019-2.514-0.142c-0.738-0.239-1.498-0.27-2.268-0.265c-0.663,0.004-1.35,0.027-1.769-0.649
		c-0.087-0.853-0.756-1.228-1.371-1.647c-0.081-0.252,0.035-0.431,0.216-0.586c0.831-0.143,0.852-1.304,1.733-1.384
		c2.331,0.906,4.688,1.75,6.981,2.744c1.247,0.541,1.679,0.123,1.809-1.055c0.247-2.252,0.84-4.386,2.035-6.345
		c0.945-1.55,0.994-3.387,1.479-5.085c0.767,0.104,0.397,0.587,0.324,0.972c0.099,1.884-0.359,3.609-1.248,5.285
		c-1.362,2.567-1.656,5.388-1.641,8.25c0.006,1.157,0.096,2.321-0.011,3.467c-0.14,1.514,0.413,2.006,1.937,1.933
		c2.882-0.138,2.505,0.27,2.52-2.551c0.019-3.627-0.004-7.255,0.017-10.882c0.003-0.471-0.189-1.26,0.569-1.21
		c0.605,0.04,0.342,0.777,0.348,1.198c0.031,2.05,0.012,4.1,0.01,6.151c0.543,0.295,1.131,0.147,1.695,0.149
		c5.131,0.013,10.262,0.003,15.392,0.014c0.515,0,1.049-0.126,1.542,0.14l0.004-0.008c-0.216,1.087-1.117,0.77-1.76,0.773
		c-4.697,0.022-9.395,0.072-14.092,0.024c-0.676-0.007-1.373-0.082-1.91,0.466c-0.617,1.404-0.28,2.866-0.248,4.301
		c0.019,0.791,0.691,0.799,1.268,0.827c1.662,0.081,3.328-0.072,4.99,0.091c0.366,0.013,0.731,0.013,1.098-0.003
		c3.775-0.089,7.55-0.234,11.32,0.096c0.086,0.55,0.172,1.101,0.258,1.651c-7.684,0-15.367,0.006-23.051-0.007
		c-0.892-0.001-1.761-0.076-1.547,1.248C1340.7,515.578,1340.295,516.198,1340.637,516.683z"/>
	<path fill-rule="evenodd" clip-rule="evenodd" fill="#E1E1E3" d="M1352.637,529.309c1.618-3.457,3.198-6.927,3.814-10.741
		c0.118-0.729,0.737-1.012,1.276-0.86c1.734,0.485,3.424,0.081,5.128-0.065c0.752-0.065,1.447,0.16,2.156,0.337
		c-0.214,1.466-0.429,2.933-0.644,4.399c0.125,0.208,0.147,0.406-0.066,0.575c-0.072,0.062-0.15,0.114-0.234,0.157
		c-0.091,0.017-0.203-0.182-0.209-0.077c-0.017,0.299-0.068,0.617,0.095,0.903c-0.068,0.638-0.137,1.276-0.205,1.915
		c0.099,0.295,0.216,0.593-0.11,0.833c-0.201,0.769-0.402,1.537-0.603,2.306c-2.065-0.972-4.222-0.411-6.345-0.358
		c-0.714,0.018-1.17,0.593-1.707,0.982C1354.161,529.807,1353.351,529.928,1352.637,529.309z"/>
	<path fill-rule="evenodd" clip-rule="evenodd" fill="#FEFEFE" d="M1371.931,488.064c2.532-1.774,4.219-4.191,5.354-7.028
		c0.469-0.866,1.168-0.492,1.827-0.346c0.409,0.176,0.852,0.238,1.28,0.348c0.619,0.24,1.321,0.255,1.873,0.682
		c0.118,0.1,0.212,0.219,0.286,0.355c0.16,0.358,0.183,0.737,0.168,1.123c-0.008,0.223-0.047,0.442-0.101,0.658
		c-0.115,0.34-0.188,0.69-0.219,1.048c-0.077,0.495-0.272,0.958-0.393,1.442c-0.082,0.272-0.163,0.545-0.237,0.82
		c-0.096,0.353-0.236,0.686-0.41,1.006c-0.54,1.384-1.46,2.55-2.178,3.834c-0.494,0.75-1.121,1.378-1.819,1.933
		c-0.758,0.601-1.507,0.703-2.195-0.123c-1.003-1.394-1.927-2.841-2.831-4.302C1372.056,489.061,1371.798,488.624,1371.931,488.064z
		"/>
	<path fill-rule="evenodd" clip-rule="evenodd" fill="#FDFDFD" d="M1343.784,538.744c-1.621-0.411-2.283-1.998-3.491-2.933
		c-1.519-1.175-2.642-2.856-3.964-4.292c-0.351-0.381-0.485-0.772-0.412-1.263c0.648-1.282,1.104-2.625,1.312-4.05
		c0.282-0.41,0.664-0.233,1.027-0.177c0.224,0.038,0.438,0.107,0.646,0.195c1.25,0.76,2.807,1.024,3.732,2.306
		c0.779,0.984,1.735,1.727,2.941,2.125c0.138,0.058,0.262,0.138,0.373,0.237c1.423,1.242,2.148,2.757,1.83,4.681
		c-0.061,0.221-0.171,0.415-0.311,0.593C1346.358,537.193,1345.455,538.518,1343.784,538.744z"/>
	<path fill-rule="evenodd" clip-rule="evenodd" fill="#FEFEFE" d="M1364.688,512.204c-0.137,0.442-0.438,0.428-0.852,0.423
		c-3.519-0.038-7.037-0.032-10.557-0.04c-0.881-1.9-0.433-3.878-0.303-5.829c0.029-0.45,0.462-0.638,0.941-0.638
		c3.241,0,6.481,0.009,9.722-0.002c1.42-0.004,0.542,1.211,0.943,1.745C1364.619,509.31,1364.654,510.757,1364.688,512.204z"/>
	<path fill-rule="evenodd" clip-rule="evenodd" fill="#E1E1E2" d="M1362.475,532.471c-0.341,1.671-0.682,3.342-1.021,5.013
		c-0.952,0.801-2.215,0.291-3.241,0.778c-2.402,0.172-4.806,0.313-7.203-0.071c-1.483-0.959-1.547-2.582-1.899-4.071
		c0.028-0.691,0.284-1.258,0.892-1.633c0.166-0.082,0.342-0.138,0.523-0.172c1.1-0.495,2.262-0.31,3.404-0.302
		c0.686,0.005,1.358-0.028,2.011-0.26c1.819-0.113,3.64-0.058,5.461-0.042C1361.88,531.792,1362.427,531.78,1362.475,532.471z"/>
	<path fill-rule="evenodd" clip-rule="evenodd" fill="#6D6D6E" d="M1377.935,478.865c-0.253-1.026-1.124-1.675-1.572-2.583
		c-0.145-0.732-0.337-1.476,0.484-1.97c0.151-0.045,0.289-0.022,0.412,0.079c0.111,0.014,0.223,0.028,0.334,0.042
		c0.902,0.072,0.623-1.1,1.31-1.255c0.103-0.083,0.206-0.165,0.302-0.255c0.107-0.659,0.521-1.26,0.347-1.966
		c0.146-1.473,0.992-1.045,1.819-0.672c0.779,0.664,0.197,1.647,0.572,2.395c0.657,0.157,1.196-0.964,1.901-0.177
		c0.024,0.212,0.05,0.424,0.074,0.637c0.58,0.415,0.888-1.004,1.521-0.226c0.194,0.186,0.388,0.371,0.582,0.556
		c-0.117,0.41-0.396,0.789-0.243,1.251c-0.126,0.335-0.182,0.723-0.389,0.995c-1.415,1.857-1.529,4.069-1.765,6.251
		c-0.064-0.043-0.128-0.086-0.193-0.128c-0.283-0.391-0.302-0.844-0.306-1.299c-0.004-0.464,0.042-0.962-0.65-0.969
		c-0.326-0.063-0.636-0.158-0.835-0.452c-0.474-0.532-0.846,0.203-1.286,0.112C1379.521,479.279,1378.664,479.493,1377.935,478.865z
		"/>
	<path fill-rule="evenodd" clip-rule="evenodd" fill="#6D6D6E" d="M1338.082,526.413c-0.284-0.069-0.569-0.138-0.854-0.207
		c-0.625-0.556-1.477-0.374-2.181-0.67c-0.492,0.158-0.971,0.058-1.45-0.065c-1.286-0.629-1.995-1.596-1.801-3.09
		c0.177-0.587,0.23-1.187,0.175-1.799c0.04-0.484,0.143-0.94,0.554-1.262c2.435-0.684,4.907-0.323,7.369-0.266
		c0.518-0.016,0.957,0.232,1.414,0.419c0.204,0.125,0.407,0.249,0.611,0.374c-0.587,1.112-1.951,1.78-1.871,3.274
		c-0.501,0.362-1.192,0.115-1.662,0.524c0.436,0.339,0.698-0.16,1.048-0.194c0.691-0.156,0.874,0.449,1.218,0.814
		c-0.009,0.276-0.018,0.553-0.025,0.829c-0.058,0.321-0.203,0.57-0.536,0.669c-0.226,0.05-0.444,0.027-0.654-0.068
		c-0.234-0.093-0.339-0.404-0.627-0.384c-0.045,0.003-0.025,0.188,0.045,0.287C1338.839,526.104,1338.383,526.184,1338.082,526.413z
		"/>
	<path fill-rule="evenodd" clip-rule="evenodd" fill="#FAFAFB" d="M1363.412,487.108c-0.366-0.462-0.852-0.839-1.018-1.443
		c-0.053-0.271,0.014-0.521,0.14-0.756c2.325-4.335,1.479-8.451-0.858-12.464c-0.079-0.136-0.151-0.275-0.216-0.419
		c-0.039-0.791-0.978-1.472-0.294-2.353c0.548,0.23,1.101,0.591,1.612-0.066c2.301,3.358,2.858,7.164,2.846,11.115
		c0.224,0.964,0.093,1.877-0.4,2.737C1364.626,484.678,1364.452,486.107,1363.412,487.108z"/>
	<path fill-rule="evenodd" clip-rule="evenodd" fill="#CBCCCC" d="M1363.391,488.541c-1.921,1.935-4.479,2.346-6.972,2.891
		c-3.37,0.737-6.665,0.154-9.938-0.655c-0.354-0.087-0.693-0.244-1.021-0.403c-0.324-0.158-0.735-0.321-0.568-0.795
		c0.167-0.477,0.594-0.359,0.936-0.252c1.809,0.569,3.67,0.856,5.551,0.997c3.999,0.301,7.811-0.354,11.338-2.354
		C1362.815,488.307,1363.376,488.103,1363.391,488.541z"/>
	<path fill-rule="evenodd" clip-rule="evenodd" fill="#CBCDCF" d="M1371.931,488.064c1.148,1.859,2.297,3.717,3.445,5.576
		c0.164,0.329,0.496,0.591,0.412,1.021c-0.857,1.2-2.346,1.563-3.373,2.538c-0.365-0.157-0.441-0.4-0.219-0.733
		c-0.251-2.721-0.68-5.427-0.614-8.172C1371.698,488.218,1371.815,488.141,1371.931,488.064z"/>
	<path fill-rule="evenodd" clip-rule="evenodd" fill="#B6B7BE" d="M1317.747,511.693c2.195-2.482,3.75-5.289,4.34-8.582
		c0.122-1.316-0.289-2.65,0.125-3.958c0.163-0.366,0.396-0.607,0.84-0.468c0.271,0.274,0.374,0.615,0.395,0.988
		c-0.004,0.868-0.01,1.736,0.008,2.604c0.223,2.544-0.768,4.774-2.036,6.834c-1.614,2.622-3.511,5.066-5.178,7.661
		c-0.607-0.012-0.813-0.449-0.982-0.926c-0.089-0.443,0.143-0.757,0.425-1.051c0.136-0.262,0.271-0.525,0.406-0.788
		C1316.337,513.019,1316.626,512.058,1317.747,511.693z"/>
	<path fill-rule="evenodd" clip-rule="evenodd" fill="#B3B4BB" d="M1322.946,498.704c-0.197,0.105-0.395,0.21-0.591,0.314
		c-0.09,0.163-0.178,0.17-0.266-0.001c-0.633-3.242-1.874-6.381-1.655-9.768c0.315-0.625,0.244-1.26,0.05-1.897
		c0.117-2.837,1.454-4.73,3.771-5.34c0.33,0.118,0.495,0.348,0.474,0.703c-0.036,0.15-0.104,0.287-0.197,0.41
		c-1.842,1.178-2.706,2.872-2.662,5.047c-0.014,0.561-0.003,1.121-0.004,1.681c-0.007,1.147-0.099,2.307,0.488,3.369
		c0.099,1.283,0.371,2.53,0.72,3.767C1323.234,497.56,1323.523,498.173,1322.946,498.704z"/>
	<path fill-rule="evenodd" clip-rule="evenodd" fill="#D5D6D7" d="M1372.196,496.466c0.104,0.222,0.207,0.443,0.311,0.666
		c0.363,0.019,0.706,0.063,0.628,0.57c-1.854,1.074-3.946,1.115-5.987,1.384c-0.067-0.013-0.136-0.025-0.203-0.038
		c-0.691-0.023-1.387-0.113-2.066,0.105c-0.21,0.015-0.426,0.052-0.564-0.169c-0.141-1.087,0.179-1.675,1.432-1.558
		C1367.964,497.634,1370.088,497.071,1372.196,496.466z"/>
	<path fill-rule="evenodd" clip-rule="evenodd" fill="#D7D7D7" d="M1378.845,491.763c0.734-1.262,1.47-2.525,2.204-3.788
		c0.816-0.065,0.407-0.562,0.33-0.94c-0.002-0.256,0.056-0.486,0.284-0.641c0.173-0.51,0.653-0.952,0.346-1.568
		c-0.007-0.355-0.038-0.717,0.286-0.974c0.289-0.188,0.259-0.396,0.04-0.616c-0.012-0.416-0.024-0.832-0.036-1.248
		c0.085-0.097,0.193-0.155,0.319-0.18c0.316-0.017,0.627-0.003,0.887,0.218l0.086,0.02l0.034-0.081
		c-0.03,0.322-0.061,0.645-0.091,0.967c-0.276,0.531,0.025,1.146-0.242,1.679c-0.022,0.172-0.045,0.345-0.068,0.517
		c-0.331,0.4,0.171,0.816-0.021,1.221c-0.549,1.346-0.311,2.994-1.563,4.068c-0.469,0.678-0.938,1.355-1.406,2.033
		C1379.531,492.706,1379.116,492.378,1378.845,491.763z"/>
	<path fill-rule="evenodd" clip-rule="evenodd" fill="#CECECE" d="M1364.584,507.863c-0.162-1.32-0.879-1.696-2.203-1.633
		c-2.566,0.123-5.145,0.083-7.715,0.015c-1.124-0.029-1.473,0.378-1.423,1.461c0.076,1.624,0.031,3.254,0.037,4.881
		c-0.314,0-0.63,0.001-0.945,0.001c-0.918-1.149-0.5-2.507-0.559-3.779c-0.087-1.863-0.113-1.875-1.96-1.98
		c-1.478-0.084-3.038,0.423-4.415-0.527c2.237-0.757,4.535-0.249,6.803-0.296c3.656-0.076,7.315-0.039,10.974-0.049
		c0.325-0.001,0.624-0.064,0.845-0.329c0.587-0.908-0.004-1.956,0.346-2.893C1364.677,504.436,1364.623,506.15,1364.584,507.863z"/>
	<path fill-rule="evenodd" clip-rule="evenodd" fill="#D3D4D4" d="M1378.845,491.763c0.463,0.229,0.926,0.458,1.389,0.688
		c-0.867,1.516-1.891,2.875-3.584,3.56c-0.555-0.32-0.894-0.786-0.962-1.433c-0.104-0.313-0.208-0.625-0.312-0.938
		c0.599,0.622,1.182,0.55,1.746-0.046C1377.698,492.985,1378.271,492.374,1378.845,491.763z"/>
	<path fill-rule="evenodd" clip-rule="evenodd" fill="#AAABAD" d="M1375.688,494.578c0.552,0.322,0.959,0.742,0.962,1.432
		c-1.041,0.836-2.107,1.619-3.515,1.691c-0.21-0.19-0.419-0.38-0.628-0.57c-0.095-1.074,0.857-1.133,1.472-1.515
		C1374.545,495.265,1375.118,494.924,1375.688,494.578z"/>
	<path fill-rule="evenodd" clip-rule="evenodd" fill="#B0B1B5" d="M1330.897,527.2c-1.273,0.087-2.547,0.174-3.82,0.261
		c-0.396,0.122-0.795,0.268-1.15-0.096c-0.568-0.187-1.138-0.373-1.707-0.56c0.221-0.694,0.856-0.788,1.421-0.988
		c1.698,0.099,3.398,0.057,5.101,0.015c0.518,0.168,0.977,0.408,1.172,0.966C1331.788,527.468,1331.298,527.221,1330.897,527.2z"/>
	<path fill-rule="evenodd" clip-rule="evenodd" fill="#DBE2E4" d="M1355.173,529.311c0.025-1.396,1.237-1.056,1.963-1.212
		c1.492-0.321,3.049,0.231,4.587-0.403c0.682-0.281,0.888,0.823,1.313,1.295c-0.025,0.307-0.051,0.614-0.076,0.921
		c-0.111,0.091-0.235,0.112-0.372,0.066c-0.355-0.215-0.771-0.283-1.149-0.445c-0.136-0.057-0.263-0.128-0.384-0.209
		c-1.59-0.255-3.175-0.48-4.708,0.264C1355.907,529.694,1355.496,529.687,1355.173,529.311z"/>
	<path fill-rule="evenodd" clip-rule="evenodd" fill="#6D6C72" d="M1379.214,473.339c-0.031,0.354-0.635,0.144-0.574,0.579
		c0.044,0.311,0.631,0.594,0.141,0.913c-0.483,0.314-0.85-0.083-1.188-0.399c-0.122-0.809-0.234-1.621-0.371-2.427
		c-0.07-0.416-0.237-0.877,0.268-1.096c0.61-0.263,0.772,0.346,1.076,0.661C1379.188,472.012,1379.717,472.486,1379.214,473.339z"/>
	<path fill-rule="evenodd" clip-rule="evenodd" fill="#F3F3F2" d="M1377.935,478.865c0.93-0.296,1.873,0.101,2.805-0.059
		c0.298-0.168,0.59-0.256,0.847,0.071c0.345,0.094,0.69,0.188,1.034,0.283c0.271,0.323,0.295,0.66,0.061,1.013
		c-1.235,0.829-2.473-0.131-3.709,0.005c-0.465-0.096-0.868-0.283-1.1-0.729C1377.893,479.255,1377.914,479.06,1377.935,478.865z"/>
	<path fill-rule="evenodd" clip-rule="evenodd" fill="#B2B3BA" d="M1321.737,526.152c-0.628-0.769-1.837-0.864-2.223-1.915
		c-0.188-0.198-0.185-0.414-0.063-0.643c1.844-0.207,2.924,1.127,4.196,2.078c0.143,0.359,0.038,0.609-0.333,0.736
		C1322.733,526.667,1322.272,526.18,1321.737,526.152z"/>
	<path fill-rule="evenodd" clip-rule="evenodd" fill="#7F2533" d="M1362.475,532.471c-0.236-0.419-0.692-0.194-1.019-0.348
		c-0.084-0.13-0.132-0.272-0.141-0.426c-0.095-0.826-0.771-0.573-1.223-0.599c-1.1-0.064-2.205,0.01-3.307-0.038
		c-0.61-0.026-1.29,0.067-1.685-0.603c0.05-0.188,0.153-0.331,0.314-0.437c2.448-0.231,4.9-0.633,7.308,0.251
		c0.016,0.521,0.032,1.042,0.049,1.564c0.159,0.227,0.161,0.436-0.072,0.616C1362.624,532.458,1362.55,532.463,1362.475,532.471z"/>
	<path fill-rule="evenodd" clip-rule="evenodd" fill="#6D6C71" d="M1383.844,472.501c-0.749,0.122-1.357,0.718-2.165,0.641
		c-0.004-0.868-0.139-1.794,0.978-2.153C1383.75,470.945,1384.114,471.474,1383.844,472.501z"/>
	<path fill-rule="evenodd" clip-rule="evenodd" fill="#B2B2BA" d="M1333.682,525.185c0.497-0.047,0.935,0.141,1.366,0.351
		c-0.251,0.199-0.502,0.398-0.754,0.597c-0.555,0.57-1.162,1.017-2.026,0.856c-0.345-0.179-0.545-0.52-0.84-0.755
		c-0.05-0.146-0.049-0.293,0.003-0.438c0.094-0.118,0.207-0.215,0.336-0.292C1332.37,525.194,1333.01,525.094,1333.682,525.185z"/>
	<path fill-rule="evenodd" clip-rule="evenodd" fill="#CDCDD0" d="M1377.872,479.45c0.32,0.104,0.642,0.207,0.963,0.311
		c0.123,0.098,0.26,0.166,0.402,0.233c0.394,0.185,1.16-0.058,1.139,0.545c-0.025,0.705-0.805,0.397-1.253,0.542
		c-0.614,0.033-1.212-0.553-1.838-0.046C1377.48,480.507,1377.676,479.979,1377.872,479.45z"/>
	<path fill-rule="evenodd" clip-rule="evenodd" fill="#6E6D73" d="M1360.901,539.709c-0.034,0.207-0.068,0.414-0.103,0.621
		c-1.167-0.846-1.233-1.176-0.502-2.411c-0.717,0.441-1.426,0.574-2.083-0.144c1.079-0.098,2.159-0.195,3.239-0.293
		C1361.269,538.226,1361.085,538.968,1360.901,539.709z"/>
	<path fill-rule="evenodd" clip-rule="evenodd" fill="#A14453" d="M1362.724,530.272c-2.518,0.012-5.034,0.024-7.551,0.036
		c-0.026-0.09-0.053-0.18-0.079-0.27c0.092-0.173,0.23-0.29,0.417-0.35c1.951-0.25,3.906-0.304,5.865-0.1
		c0.455,0.072,0.941-0.008,1.354,0.274c0.079,0.005,0.155,0.022,0.229,0.049C1362.881,530.032,1362.802,530.152,1362.724,530.272z"
		/>
	<path fill-rule="evenodd" clip-rule="evenodd" fill="#C1C2C8" d="M1324.574,482.649c-0.106-0.213-0.212-0.426-0.318-0.638
		c0.86-0.661,1.882-0.187,2.806-0.399c0.004,0.341,0.008,0.682,0.012,1.022C1326.243,483.212,1325.411,483.243,1324.574,482.649z"/>
	<path fill-rule="evenodd" clip-rule="evenodd" fill="#6D6D79" d="M1376.942,474.436c-0.503,0.519-0.291,1.261-0.58,1.847
		c-0.459-0.58-1.102-1.126-0.352-1.927C1376.337,474.204,1376.658,474.104,1376.942,474.436z"/>
	<path fill-rule="evenodd" clip-rule="evenodd" fill="#B0B1B6" d="M1322.09,499.017c0.089,0,0.177,0.001,0.265,0.001
		c-0.139,1.361,0.327,2.762-0.268,4.093c-0.024-0.21-0.049-0.419-0.074-0.629c-0.222-1.044-0.189-2.09-0.018-3.136
		C1322.027,499.236,1322.059,499.126,1322.09,499.017z"/>
	<path fill-rule="evenodd" clip-rule="evenodd" fill="#C3C4C9" d="M1323.315,526.408c0.101-0.186,0.201-0.371,0.302-0.557
		c0.757-0.528,1.366-0.313,1.884,0.372c-0.427,0.194-0.854,0.388-1.281,0.582C1323.817,526.903,1323.611,526.553,1323.315,526.408z"
		/>
	<path fill-rule="evenodd" clip-rule="evenodd" fill="#636465" d="M1379.358,473.433c0.039-0.624,0.077-1.247,0.116-1.871
		c0.024-0.203,0.05-0.405,0.075-0.607C1379.84,471.809,1380.084,472.658,1379.358,473.433z"/>
	<path fill-rule="evenodd" clip-rule="evenodd" fill="#C7C8CE" d="M1320.484,487.352c0.435,0.644,0.462,1.278-0.05,1.897
		C1320.29,488.612,1320.364,487.981,1320.484,487.352z"/>
	<path fill-rule="evenodd" clip-rule="evenodd" fill="#76747F" d="M1385.778,474.719c-0.313-0.494-0.35-0.934,0.243-1.251
		C1386.236,473.942,1386.063,474.341,1385.778,474.719z"/>
	<path fill-rule="evenodd" clip-rule="evenodd" fill="#D4D5D5" d="M1383.294,485.45c-0.109,0.232-0.219,0.463-0.328,0.695
		c0.313-0.281-0.869-0.942,0.258-1.017C1383.247,485.236,1383.271,485.343,1383.294,485.45z"/>
	<path fill-rule="evenodd" clip-rule="evenodd" fill="#ECEBF1" d="M1327.449,479.147c0.327,0.376,0.356,0.782,0.055,1.415
		c-0.052-0.508-0.084-0.825-0.116-1.142C1327.351,479.316,1327.371,479.225,1327.449,479.147z"/>
	<path fill-rule="evenodd" clip-rule="evenodd" fill="#D4D5D5" d="M1383.292,484.612c0.011-0.57-0.209-1.173,0.242-1.679
		C1383.563,483.508,1383.589,484.083,1383.292,484.612z"/>
	<path fill-rule="evenodd" clip-rule="evenodd" fill="#EDEEF4" d="M1363.953,523.938c-0.3-0.29-0.276-0.661-0.238-1.025
		c0.015-0.141,0.089-0.307,0.251-0.096c0.06,0.078,0.068,0.195,0.102,0.295C1364.028,523.386,1363.991,523.662,1363.953,523.938z"/>
	<path fill-rule="evenodd" clip-rule="evenodd" fill="#6E6E6E" d="M1358.214,537.776c0.729,0,1.457,0,2.426,0
		c-0.841,1.032-0.163,1.765,0.159,2.554c-0.652,2.953-0.652,2.951,2.261,3.57c0.403,0.086,0.806,0.18,1.208,0.271
		c0.832,0.742,2.048,1.049,2.515,2.209c-0.131,0.322-0.135,0.883-0.594,0.789c-1.016-0.209-1.618,0.625-2.458,0.824
		c-1.649,0.164-3.304,0.027-4.954,0.092c-0.532,0.02-1.161-0.229-1.535,0.398c0.235,0.734,0.873,0.457,1.322,0.473
		c1.516,0.053,3.031-0.012,4.548-0.076c1.031-0.045,2.242-0.301,2.91,0.936c-0.963,0.85-2.184,0.631-3.308,0.764
		c-1.23,0.145-2.494-0.162-3.713,0.236c-1.313,0.264-2.684-0.148-3.977,0.348c-0.643,0.262-1.26,0.35-1.771-0.264
		c-0.33-1.785-1.532-1.963-3.103-1.924c-1.58,0.037-3.229,0.426-4.766-0.346c-0.097-0.186-0.075-0.355,0.061-0.514
		c1.89-0.701,3.852-0.168,5.769-0.334c0.653,0,1.373,0.086,1.253-0.947c0.111-1.432-0.263-2.771-0.755-4.09
		c-0.114-0.531-0.304-1.041-0.466-1.559c-0.213-0.576-0.32-1.182-0.515-1.764c-0.107-0.523-0.396-1.049,0.009-1.569
		C1353.231,537.828,1355.722,537.802,1358.214,537.776z"/>
	<path fill-rule="evenodd" clip-rule="evenodd" fill="#6D6E6E" d="M1365.899,549.811c-1.075-0.41-2.146-0.502-3.321-0.379
		c-1.717,0.18-3.465,0.047-5.199,0.08c-0.947,0.018-0.964-0.596-0.944-1.266c0.789-0.598,1.698-0.271,2.549-0.299
		c1.651-0.055,3.306-0.029,4.959-0.012c0.726,0.01,0.002-0.225,0.065-0.32c0.55-0.623,1.091-1.207,2.065-0.768
		c0.341,0.154,0.467-0.313,0.709-0.467c0.155,0.4,0.311,0.803,0.466,1.203c0.347,0.295,0.474,0.693,0.54,1.123
		c-0.011,0.959-0.428,1.496-1.456,1.393C1366.166,550.037,1366.021,549.941,1365.899,549.811z"/>
	<path fill-rule="evenodd" clip-rule="evenodd" fill="#424143" d="M1341.547,474.632c0.252-0.386,0.504-0.771,0.756-1.156
		c0.689-1.884,2.462-2.557,3.954-3.548c0.348-0.236,0.744-0.36,1.129-0.513c2.563-1.015,5.233-0.913,7.908-0.779
		c1.037,0.372,2.157,0.354,3.211,0.656c0.152,0.071,0.301,0.149,0.447,0.23c1.294,0.443,2.617,0.855,2.719,2.564
		c0.492,1.734,0.7,3.513,0.609,5.299c-0.134,2.626-1.754,4.313-3.873,5.583c-4.306,2.583-8.908,2.496-13.595,1.401
		c-1.071-0.25-2.109-0.653-3.142-1.047c-0.587-0.224-1.207-0.446-1.307-1.21c-0.076-0.845,0.061-1.7-0.103-2.541
		c-0.234-0.691-0.03-1.238,0.545-1.663c1.138-0.776,0.792-1.84,0.556-2.883C1341.391,474.879,1341.452,474.748,1341.547,474.632z"/>
	<path fill-rule="evenodd" clip-rule="evenodd" fill="#292627" d="M1340.637,481.999c1.333,1.437,3.255,1.653,4.954,2.017
		c4.212,0.901,8.401,0.908,12.365-1.341c3.039-1.724,4.355-4.243,3.656-7.719c-0.209-1.043-0.114-2.092-0.109-3.14
		c0.122-0.093,0.221-0.068,0.298,0.06c2.813,3.197,2.583,7.086,2.372,10.92c-0.063,1.137-1.027,2.005-1.778,2.87
		c-6.229,4.59-12.682,3.624-19.216,0.785c-1.339-0.582-2.545-1.272-2.896-2.846c-0.168-0.502-0.092-1.015-0.063-1.526
		C1340.329,481.903,1340.469,481.876,1340.637,481.999z"/>
	<path fill-rule="evenodd" clip-rule="evenodd" fill="#E1E1E2" d="M1330.262,502.461c-0.517,0.551-0.146,1.988-1.6,1.603
		c-1.256,0.026-1.4-0.816-1.4-1.783c-0.002-3.34-0.019-6.68,0.01-10.021c0.004-0.452,0.198-0.948-0.313-1.278
		c-0.058-0.299,0.017-0.542,0.278-0.717c2.7-0.451,5.397-0.831,8.054,0.23c-0.531,0.736-1.062,1.473-1.592,2.21
		c-0.428,0.588-1.097,0.751-1.782,0.908c0.164,0.412,1.052,0.335,0.541,0.997C1331.596,497.192,1330.404,499.68,1330.262,502.461z"
		/>
	<path fill-rule="evenodd" clip-rule="evenodd" fill="#CACCCD" d="M1350.962,501.869c-2.469-0.001-3.008-0.688-2.563-3.173
		c0.076-0.424,0.275-0.775,0.624-0.796c1.248-0.078,2.508-0.135,3.753-0.053c0.732,0.048,0.515,0.814,0.577,1.283
		C1353.71,501.779,1353.618,501.87,1350.962,501.869z"/>
	<path fill-rule="evenodd" clip-rule="evenodd" fill="#CCCDCE" d="M1359.601,500.688c0.001-0.521,0.043-1.048-0.008-1.565
		c-0.101-0.999,0.256-1.392,1.313-1.378c1.005,0.014,1.259,0.432,1.211,1.33c-0.049,0.937-0.094,1.888,0.013,2.816
		c0.141,1.232-0.376,1.685-1.544,1.708c-1.369,0.027-0.896-0.977-0.977-1.659C1359.56,501.527,1359.599,501.105,1359.601,500.688z"
		/>
	<path fill-rule="evenodd" clip-rule="evenodd" fill="#F4F4F4" d="M1341.561,475.094c0.902,1.118,0.789,2.143-0.282,3.08
		c-0.812,0.355-1.634,0.366-2.467,0.088c-0.497-1.464-0.819-2.889,0.861-3.868C1340.259,474.746,1341.113,474.371,1341.561,475.094z
		"/>
	<path fill-rule="evenodd" clip-rule="evenodd" fill="#DEDEE0" d="M1355.325,469.075c-2.726-0.101-5.436-0.074-8.041,0.893
		c-0.465-0.634,0.291-1.012,0.324-1.542c0.422-0.221,0.844-0.443,1.266-0.665c0.846-0.146,1.681-0.354,2.535-0.454
		c0.769,0.002,1.538-0.007,2.307,0.005c0.87,0.166,1.754,0.281,2.586,0.605C1356.742,468.949,1356.525,469.427,1355.325,469.075z"/>
	<path fill-rule="evenodd" clip-rule="evenodd" fill="#B6B6B8" d="M1335.291,490.497c-2.722,0.004-5.443,0.008-8.164,0.012
		c-0.419-0.434-0.424-0.862,0.014-1.287c2.546-0.003,5.092-0.016,7.638-0.003c0.496,0.002,1.056-0.177,1.447,0.326
		C1335.914,489.862,1335.603,490.18,1335.291,490.497z"/>
	<path fill-rule="evenodd" clip-rule="evenodd" fill="#5FA59A" d="M1338.11,493.973c0.173,0.215,0.401,0.29,0.669,0.266
		c1.096,0.671,1.179,1.634,0.68,2.678c-0.55,1.154-1.429,1.752-2.765,1.31c-0.434-0.151-0.705-0.441-0.772-0.904
		c-0.028-0.681,0.29-1.063,0.979-1.127c0.345-0.033,0.804,0.068,0.893-0.402c0.104-0.552-0.39-0.645-0.771-0.786
		c-0.193-0.071-0.385-0.144-0.562-0.257c-0.241-0.226-0.418-0.473-0.27-0.825l0.015,0.012
		C1336.845,493.759,1337.48,493.711,1338.11,493.973z"/>
	<path fill-rule="evenodd" clip-rule="evenodd" fill="#ECF7F6" d="M1336.553,498.073c1.061,0.231,1.945-0.033,2.527-0.985
		c0.618-1.01,0.375-1.96-0.301-2.849c1.155,0.291,1.653,1.157,1.21,2.517c-0.284,0.871-0.869,1.741-1.883,1.867
		c-1.146,0.143-2.275-0.074-3.111-1.019c-0.726-0.819-0.636-1.795-0.479-2.763c0.016-0.096,0.353-0.141,0.541-0.209
		c0.589,0.596,0.19,1.425,0.489,2.083C1335.782,497.233,1336.004,497.78,1336.553,498.073z"/>
	<path fill-rule="evenodd" clip-rule="evenodd" fill="#CDCED0" d="M1357.694,499.029c0.112,0.824-0.137,1.235-1.065,1.281
		c-1.113,0.055-1.296-0.63-1.394-1.434c-0.114-0.949,0.504-1.075,1.266-1.12C1357.474,497.7,1357.841,498.109,1357.694,499.029z"/>
	<path fill-rule="evenodd" clip-rule="evenodd" fill="#CECECE" d="M1364.019,505.637c-5.715,0.003-11.431,0.01-17.146,0.004
		c-0.508,0-1.063,0.146-1.483-0.308c5.658,0.008,11.316,0.012,16.975,0.031C1362.922,505.366,1363.526,505.191,1364.019,505.637z"/>
	<path fill-rule="evenodd" clip-rule="evenodd" fill="#CCCDCD" d="M1356.222,503.481c-1.065,0.244-0.978-0.458-1.026-1.099
		c-0.066-0.873,0.288-1.204,1.167-1.195c0.843,0.008,1.357,0.121,1.373,1.168C1357.754,503.614,1356.938,503.458,1356.222,503.481z"
		/>
	<path fill-rule="evenodd" clip-rule="evenodd" fill="#DEDEDF" d="M1346.397,470.328c-1.504,0.868-2.84,1.956-4.095,3.148
		c-0.414-0.52-0.05-0.9,0.233-1.294c0.228-0.143,0.354-0.34,0.326-0.618c0.289-0.548,0.455-1.22,1.254-1.261
		c0.434-0.269,0.813-0.626,1.318-0.774C1345.952,469.559,1346.284,469.812,1346.397,470.328z"/>
	<path fill-rule="evenodd" clip-rule="evenodd" fill="#DBDBDD" d="M1355.325,469.075c0.883,0.279,0.691-0.691,1.107-0.955
		c0.203-0.215,0.416-0.213,0.635-0.026c0.728,0.276,1.646,0.259,1.903,1.251c-0.021,0.196-0.215,0.208-0.327,0.308
		C1357.484,469.761,1356.413,469.371,1355.325,469.075z"/>
	<path fill-rule="evenodd" clip-rule="evenodd" fill="#E7E0E4" d="M1332.458,494.612c-0.111-1.063-0.939,0.829-1.083-0.265
		c-0.04-0.302-0.249-0.621,0.019-0.861c0.319-0.286,0.598-0.992,1.074-0.642c0.566,0.416,0.823-0.181,1.231-0.138
		C1333.395,493.413,1332.981,494.048,1332.458,494.612z"/>
	<path fill-rule="evenodd" clip-rule="evenodd" fill="#70A6A1" d="M1336.553,498.073c-1.908-0.534-1.753-1.965-1.497-3.44
		c0.381-0.232,0.604-0.719,1.136-0.707c0.12,0.223,0.239,0.446,0.358,0.669c-0.193,0.833-0.932,1.599-0.315,2.533
		C1336.341,497.443,1336.446,497.758,1336.553,498.073z"/>
	<path fill-rule="evenodd" clip-rule="evenodd" fill="#DDDCDE" d="M1346.397,470.328c-0.33-0.219-0.661-0.439-0.991-0.658
		c-0.347,0.143-0.401-0.021-0.332-0.315c0.289-0.427,0.722-0.589,1.208-0.65c0.389,0.014,0.69-0.255,1.055-0.318
		c0.092,0.004,0.182,0.018,0.271,0.04c0.856,0.717-0.591,0.95-0.324,1.542C1346.988,470.088,1346.692,470.208,1346.397,470.328z"/>
	<path fill-rule="evenodd" clip-rule="evenodd" fill="#828282" d="M1338.812,478.263c0.821-0.03,1.645-0.059,2.467-0.088
		c-0.215,0.497-1.222,0.422-0.929,1.286c0.237,0.84,0.232,1.681,0.005,2.522c-0.024,0.54-0.049,1.081-0.072,1.622
		c-0.59-1.02-0.268-2.132-0.237-3.186C1340.076,479.363,1339.794,478.656,1338.812,478.263z"/>
	<path fill-rule="evenodd" clip-rule="evenodd" fill="#E6E6E8" d="M1361.801,471.875c-0.101-0.011-0.2-0.031-0.298-0.06
		c-0.315-1.379-1.88-1.237-2.595-2.13c0.538-0.514,1.088,0.201,1.629-0.014c0.21,0,0.42,0.001,0.629,0.001
		C1360.994,470.517,1361.983,471.027,1361.801,471.875z"/>
	<path fill-rule="evenodd" clip-rule="evenodd" fill="#ADADAF" d="M1357.067,468.094c-0.211,0.009-0.423,0.017-0.635,0.026
		c-0.848-0.211-1.694-0.423-2.541-0.634c0.06-0.142,0.164-0.236,0.307-0.291C1355.22,467.286,1356.276,467.267,1357.067,468.094z"/>
	<path fill-rule="evenodd" clip-rule="evenodd" fill="#D4D4D4" d="M1342.89,493.691c-0.041-0.347,0.021-0.728-0.325-0.972
		c0.104-0.63,0.209-1.261,0.313-1.891c0.284-0.083,0.43-0.021,0.319,0.307C1343.078,491.985,1343.435,492.893,1342.89,493.691z"/>
	<path fill-rule="evenodd" clip-rule="evenodd" fill="#959496" d="M1351.388,467.447c-0.814,0.29-1.651,0.404-2.514,0.314
		c0.789-0.404,1.622-0.621,2.515-0.57c0.11,0.057,0.147,0.114,0.11,0.171S1351.426,467.447,1351.388,467.447z"/>
	<path fill-rule="evenodd" clip-rule="evenodd" fill="#8D8D8F" d="M1351.388,467.447c0-0.085,0-0.171,0.001-0.256
		c0.937,0.001,1.873,0.002,2.81,0.004c-0.103,0.097-0.205,0.193-0.307,0.29C1353.057,467.472,1352.223,467.459,1351.388,467.447z"/>
	<path fill-rule="evenodd" clip-rule="evenodd" fill="#E9E9E9" d="M1343.196,491.135c-0.106-0.102-0.213-0.205-0.319-0.307
		c-0.012-0.395-0.031-0.792,0.4-1.077C1343.622,490.285,1343.562,490.72,1343.196,491.135z"/>
	<path fill-rule="evenodd" clip-rule="evenodd" fill="#79797A" d="M1341.561,475.094c-0.573-0.383-1.36-0.191-1.888-0.699
		c0.655-0.165,1.284-0.122,1.874,0.237C1341.552,474.786,1341.556,474.94,1341.561,475.094z"/>
	<path fill-rule="evenodd" clip-rule="evenodd" fill="#CBCBCD" d="M1360.537,469.671c-0.538,0.556-1.088-0.244-1.629,0.014
		c-0.091,0.01-0.179-0.001-0.265-0.033c0.109-0.103,0.218-0.205,0.327-0.308C1359.521,469.316,1360.053,469.384,1360.537,469.671z"
		/>
	<path fill-rule="evenodd" clip-rule="evenodd" fill="#70A6A1" d="M1338.11,493.973c-0.635-0.012-1.27-0.023-1.904-0.035
		C1336.85,493.462,1337.486,493.405,1338.11,493.973z"/>
	<path fill-rule="evenodd" clip-rule="evenodd" fill="#BBBBBB" d="M1345.074,469.354c0.11,0.105,0.221,0.21,0.331,0.315
		c-0.334,0.406-0.787,0.568-1.289,0.633C1344.303,469.853,1344.647,469.562,1345.074,469.354z"/>
	<path fill-rule="evenodd" clip-rule="evenodd" fill="#F5F4F4" d="M1348.854,489.106c0.318-0.271,0.622-0.228,0.965-0.05
		C1349.5,489.32,1349.195,489.281,1348.854,489.106z"/>
	<path fill-rule="evenodd" clip-rule="evenodd" fill="#D7D7D7" d="M1342.862,471.563c0.128,0.051,0.257,0.102,0.386,0.153
		c-0.216,0.188-0.239,0.67-0.712,0.465C1342.645,471.976,1342.753,471.77,1342.862,471.563z"/>
	<path fill-rule="evenodd" clip-rule="evenodd" fill="#ACABAD" d="M1347.337,468.386c-0.283,0.333-0.582,0.611-1.055,0.318
		C1346.563,468.365,1346.883,468.15,1347.337,468.386z"/>
	<path fill-rule="evenodd" clip-rule="evenodd" fill="#A6272D" d="M1340.032,525.558c0.198-0.154,0.396-0.309,0.595-0.464
		c0.309,0.508,0.863,0.473,1.342,0.607c0.913,0.179,1.913,0.178,2.421,1.186c0.647,0.511,1.296,1.022,1.944,1.533
		c0.095,0.118,0.117,0.25,0.08,0.396c-0.214,0.474-0.443,0.932-1.054,0.981c-0.529-0.047-0.977-0.227-1.2-0.741
		c-0.078-0.047-0.108-0.125-0.084-0.22c-0.142,0.146,0.126,0.151,0.091,0.271c-0.019,0.241-0.176,0.334-0.38,0.382
		c-0.517-0.099-0.966-0.3-1.244-0.776c-1.147-0.961-2.625-1.322-3.858-2.126C1338.594,525.537,1339.693,526.045,1340.032,525.558z"
		/>
	<path fill-rule="evenodd" clip-rule="evenodd" fill="#A6292F" d="M1343.811,529.325c0.102-0.109,0.203-0.218,0.306-0.327
		l0.016-0.013c0.423,0.214,0.846,0.428,1.269,0.642c0.857,0.228,0.695-0.55,0.928-0.94c0.002-0.089,0.004-0.178,0.006-0.267
		c0.848,0.469,1.662,0.98,2.218,1.808c0.285,0.322,0.782,0.347,1.025,0.729c0.086,0.113,0.156,0.237,0.213,0.368
		c0.086,0.473,0.466,0.878,0.33,1.404c-0.405,0.313-0.549,0.774-0.698,1.232c-0.063,0.148-0.175,0.207-0.333,0.178
		c-1.32-0.892-2.256-2.17-3.323-3.314C1344.989,530.487,1344.052,530.359,1343.811,529.325z"/>
	<path fill-rule="evenodd" clip-rule="evenodd" fill="#6D6D6D" d="M1340.025,523.002c-0.284-1.495,0.339-2.532,1.895-3.156
		c0.233,0.103,0.505,0.16,0.694,0.316c0.476,0.395,1.048,0.82,0.743,1.544c-0.339,0.806-1.056,0.75-1.731,0.516
		c-0.784-0.272-1.301-0.295-1.002,0.78C1340.424,523.192,1340.225,523.165,1340.025,523.002z"/>
	<path fill-rule="evenodd" clip-rule="evenodd" fill="#F4FDF6" d="M1344.39,526.887c-0.791-0.429-1.817-0.376-2.422-1.186
		c0.558-0.828,1.606-0.52,2.178-0.483C1345.43,525.3,1345.101,526.188,1344.39,526.887z"/>
	<path fill-rule="evenodd" clip-rule="evenodd" fill="#ECFEFE" d="M1349.07,530.305c0.81-1.388,1.59-1.08,2.355,0.041
		c0.114,0.12,0.174,0.262,0.182,0.427c-0.024,0.36-0.225,0.587-0.546,0.725c-0.396,0.136-0.791,0.144-1.184-0.016
		c-0.138-0.084-0.256-0.19-0.355-0.318l-0.003,0.024C1349.297,530.931,1349.068,530.677,1349.07,530.305z"/>
	<path fill-rule="evenodd" clip-rule="evenodd" fill="#E3DFDC" d="M1355.173,529.311c0.421,0,0.842,0,1.263,0
		c1.683-0.501,3.366-0.497,5.049-0.002l-0.001,0.002c0.105,0.224,0.041,0.375-0.195,0.451c-2.394,0.148-4.807-0.223-7.19,0.293
		c-0.513,0.111-1.046-0.023-1.459-0.42c-0.039-0.077-0.088-0.152-0.112-0.233c-0.005-0.018,0.071-0.062,0.111-0.093
		C1353.482,529.31,1354.327,529.311,1355.173,529.311z"/>
	<path fill-rule="evenodd" clip-rule="evenodd" fill="#EBEAE7" d="M1352.639,529.635c2.946-0.003,5.893-0.007,8.839-0.01
		c0.074,0.061,0.098,0.12,0.073,0.18s-0.05,0.09-0.074,0.09c-2.082,0.035-4.163,0.069-6.245,0.104
		c-0.883,0.503-1.754,0.643-2.596-0.088C1352.64,529.819,1352.641,529.727,1352.639,529.635z"/>
	<path fill-rule="evenodd" clip-rule="evenodd" fill="#657270" d="M1340.025,523.002c0.199,0,0.398,0.001,0.599,0.001
		c0.009,0.42,0.019,0.841,0.028,1.261c-0.421-0.209-0.841-0.419-1.261-0.629c-0.631,0.421-1.261,0.421-1.891-0.003
		C1338.087,522.398,1339.194,523.254,1340.025,523.002z"/>
	<path fill-rule="evenodd" clip-rule="evenodd" fill="#C9C9C9" d="M1341.309,519.472c-0.438-0.003-0.876-0.005-1.313-0.008
		c-0.332-0.324-0.381-0.73-0.337-1.164c0.063-0.517,0.338-0.925,0.683-1.294c0.101,0,0.201,0,0.303,0.001
		C1340.865,517.828,1341.087,518.65,1341.309,519.472z"/>
	<path fill-rule="evenodd" clip-rule="evenodd" fill="#633938" d="M1351.507,530.562c-0.034-0.069-0.061-0.141-0.081-0.215
		c0.192-0.038,0.386-0.076,0.579-0.113c1.04-0.229,2.084-0.163,3.129-0.042c0,0,0.039,0.116,0.039,0.116
		c-0.006,0.083-0.012,0.165-0.018,0.248C1353.94,531.39,1352.724,531.391,1351.507,530.562z"/>
	<path fill-rule="evenodd" clip-rule="evenodd" fill="#D8ACAC" d="M1355.134,530.191c-1.043,0.014-2.086,0.028-3.129,0.042
		c0.21-0.107,0.421-0.215,0.631-0.322c0.865,0.029,1.73,0.059,2.596,0.088C1355.203,530.065,1355.171,530.129,1355.134,530.191z"/>
	<path fill-rule="evenodd" clip-rule="evenodd" fill="#861126" d="M1349.07,530.305c0.149,0.294,0.3,0.589,0.449,0.884
		c-0.46-0.183-0.769-0.517-0.968-0.961C1348.725,530.254,1348.897,530.279,1349.07,530.305z"/>
	<path fill-rule="evenodd" clip-rule="evenodd" fill="#CFCED0" d="M1340.637,516.683c-0.475-0.46-0.241-1.049-0.288-1.587
		C1340.779,515.563,1340.608,516.141,1340.637,516.683z"/>
	<path fill-rule="evenodd" clip-rule="evenodd" fill="#504F58" d="M1327.028,482.949c-0.09,0.014-0.18,0.023-0.271,0.03
		c-0.721,0.183-1.445,0.121-2.17,0.034l-0.036-0.136c0.017-0.075,0.024-0.151,0.022-0.228c0.833-0.005,1.666-0.01,2.499-0.015
		C1327.058,482.739,1327.043,482.844,1327.028,482.949z"/>
	<path fill-rule="evenodd" clip-rule="evenodd" fill="#FEFEFE" d="M1333.72,506.57c1.261,0.013,2.522,0.071,3.781,0.024
		c0.952-0.035,1.328,0.314,1.273,1.278c-0.149,2.628,0.257,5.221,0.584,7.817c-0.125,0.152-0.275,0.275-0.449,0.369
		c-2.02,0.32-4.057,0.045-6.083,0.174c-0.632,0.123-1.138-0.214-1.669-0.457l0.019-0.01c-0.517-0.487-0.791-1.104-0.916-1.787
		c-0.359-1.955-0.825-3.896-0.857-5.897c-0.018-1.113,0.38-1.815,1.673-1.654C1331.95,506.537,1332.85,506.298,1333.72,506.57z"/>
	<path fill-rule="evenodd" clip-rule="evenodd" fill="#FEFEFE" d="M1345.401,506.303c1.923-0.012,3.846-0.001,5.769-0.045
		c0.863-0.02,1.216,0.31,1.193,1.186c-0.043,1.714-0.022,3.43-0.028,5.145c-1.891,0.002-3.783-0.032-5.673,0.022
		c-0.949,0.027-1.321-0.295-1.287-1.266C1345.435,509.667,1345.397,507.984,1345.401,506.303z"/>
	<path fill-rule="evenodd" clip-rule="evenodd" fill="#E0E0E2" d="M1333.72,506.57c-0.52,0.008-1.04,0.024-1.561,0.024
		c-2.359-0.001-2.601,0.284-2.171,2.764c0.372,2.14,0.79,4.271,1.188,6.407c-1.94-0.052-2.846-1.435-3.701-2.881
		c0.041-0.362-0.03-0.685-0.325-0.929c-0.005-2.099-0.01-4.199-0.016-6.298c0.93-0.753,1.86-0.699,2.793-0.008
		c0.165,0.851,0.852,0.56,1.374,0.629C1332.106,506.386,1332.968,506.024,1333.72,506.57z"/>
	<path fill-rule="evenodd" clip-rule="evenodd" fill="#E4E3E8" d="M1327.124,504.062c0.005-4.313,0.01-8.625,0.014-12.937
		c0.368-0.165,0.715-0.46,1.289-0.11c-0.872,0.266-0.705,0.933-0.706,1.527c-0.005,3.258,0.034,6.517-0.026,9.774
		c-0.016,0.852,0.249,1.384,0.968,1.748c-0.112,0.099-0.225,0.197-0.337,0.296C1327.786,504.818,1327.41,504.624,1327.124,504.062z"
		/>
	<path fill-rule="evenodd" clip-rule="evenodd" fill="#CCCBCE" d="M1331.157,515.775c0.539-0.008,1.077-0.016,1.615-0.024
		c1.957,0.395,3.947-0.048,5.908,0.241c0.141,0.145,0.157,0.302,0.049,0.473c-0.73,0.599-1.665,0.208-2.455,0.505
		c-0.536,0.055-1.078,0.033-1.593,0.03c1.565,0.033,3.096-0.181,4.635-0.185c0.149,0.024,0.28,0.089,0.393,0.19
		c0.105,0,0.212,0,0.316,0c0.31,0.487-0.031,0.712-0.376,0.937c-2.518,0.458-5.042,0.343-7.568,0.082
		C1331.773,517.275,1331.465,516.525,1331.157,515.775z"/>
	<path fill-rule="evenodd" clip-rule="evenodd" fill="#BBBABD" d="M1327.124,504.062c0.359,0.265,0.765,0.345,1.201,0.298
		c0.893-0.016,1.805-0.056,1.602,1.289c-0.931,0.002-1.861,0.005-2.793,0.008C1327.131,505.125,1327.128,504.594,1327.124,504.062z"
		/>
	<path fill-rule="evenodd" clip-rule="evenodd" fill="#CFCED0" d="M1333.715,516.69c0.842,0,1.683,0,2.524,0
		c0.802-0.423,1.724,0.116,2.524-0.315l0,0c0.166-0.182,0.078-0.49,0.316-0.636c0.093-0.016,0.187-0.032,0.279-0.049
		c0.228,0.409,0.395,0.834,0.35,1.315c-0.104,0-0.209,0-0.313,0c-1.742,0.327-3.5,0.09-5.249,0.143
		C1333.862,517.157,1333.65,517.039,1333.715,516.69z"/>
	<path fill-rule="evenodd" clip-rule="evenodd" fill="#CFCED0" d="M1339.721,517.633c0.102-0.209,0.203-0.418,0.305-0.627
		c0.105,0,0.211,0,0.315,0c0.041,0.472-0.115,0.893-0.338,1.297C1339.534,518.238,1339.472,518.001,1339.721,517.633z"/>
	<path fill-rule="evenodd" clip-rule="evenodd" fill="#CBCBCB" d="M1379.123,481.082c0.208-0.349,0.581-0.369,1.281-0.423
		c-0.765-0.321-1.379-0.313-1.569-0.897c1.264,0.108,2.527,0.215,3.791,0.323c0.344-0.25,0.581-0.159,0.728,0.226
		c-0.323,0.526-0.138,1.28-0.751,1.678l-0.151-0.004c0,0-0.151,0.003-0.152,0.004l0.011-0.008c-0.406-0.26-0.547-1.211-1.34-0.494
		c-0.115,0.104-0.402,0.01-0.576-0.129C1379.954,481.338,1379.483,481.464,1379.123,481.082z"/>
	<path fill-rule="evenodd" clip-rule="evenodd" fill="#CDCDD0" d="M1380.394,481.357c0.161-0.248,1.081,0.53,0.666-0.494
		c0.399-0.152,0.831-0.427,1.025,0.248c0.083,0.287,0.15,0.579,0.225,0.869C1381.671,481.772,1381.032,481.565,1380.394,481.357z"/>
	<path fill-rule="evenodd" clip-rule="evenodd" fill="#D4D5D5" d="M1381.379,487.035c0.532,0.492,0.786,1.068,0.007,1.471
		c-0.491,0.253-0.242-0.33-0.337-0.53C1381.159,487.662,1381.269,487.349,1381.379,487.035z"/>
	<path fill-rule="evenodd" clip-rule="evenodd" fill="#D4D5D5" d="M1382.335,483.236c0.494-0.22,0.668,0.002,0.574,0.466
		c-0.083,0.415-0.318,0.469-0.614,0.15C1382.309,483.646,1382.321,483.441,1382.335,483.236z"/>
	<path fill-rule="evenodd" clip-rule="evenodd" fill="#D4D5D5" d="M1382.009,484.826c0.588,0.678,0.07,1.112-0.346,1.568
		C1381.778,485.872,1381.894,485.349,1382.009,484.826z"/>
	<path fill-rule="evenodd" clip-rule="evenodd" fill="#F7F4F5" d="M1349.18,533.945c-0.534,0.522-1.067,1.045-1.601,1.567
		c0.061-1.82-0.994-3.21-1.813-4.69C1347.099,531.651,1348.147,532.789,1349.18,533.945z"/>
	<path fill-rule="evenodd" clip-rule="evenodd" fill="#F7F4F5" d="M1343.811,529.325c0.651,0.5,1.304,1,1.955,1.5
		c-1.169,0.141-2.843-0.956-3.223-2.112C1342.966,528.917,1343.388,529.121,1343.811,529.325z"/>
	<path fill-rule="evenodd" clip-rule="evenodd" fill="#F6FEF8" d="M1341.536,530.003c0.617,0.477,1.156,0.9,1.499,1.609
		C1341.661,531.632,1341.413,531.373,1341.536,530.003z"/>
	<path fill-rule="evenodd" clip-rule="evenodd" fill="#98363E" d="M1340.032,525.558c-0.079,0.827-1.1,0.423-1.348,1.029
		c-0.201-0.058-0.401-0.116-0.602-0.173c0.051-0.442,0.473-0.583,0.71-0.873c0.191-0.178,0.392-0.212,0.604-0.037
		C1339.608,525.521,1339.82,525.539,1340.032,525.558z"/>
	<path fill-rule="evenodd" clip-rule="evenodd" fill="#952230" d="M1351.507,530.562c1.216-0.002,2.433-0.004,3.648-0.006
		c1.974,0.007,3.947,0.011,5.92,0.026c0.407,0.003,0.874-0.049,0.979,0.521c0.084,0.454-0.165,0.673-0.584,0.746
		c-1.984,0.32-3.983,0.061-5.971,0.145c-0.62-0.042-1.241,0.089-1.565,0.002c0.229-0.025,0.76,0.011,1.291,0.003
		c0.247,0.006,0.504-0.025,0.686,0.202c-1.8,0.419-3.682,0.023-5.471,0.547c-0.386-0.473-0.016-0.783,0.239-1.119
		c0.145-0.152,0.282-0.315,0.501-0.369C1351.289,531.027,1351.397,530.794,1351.507,530.562z"/>
	<path fill-rule="evenodd" clip-rule="evenodd" fill="#612323" d="M1355.911,532.2c-0.246-0.042-0.492-0.085-0.738-0.127
		c-0.109-0.054-0.145-0.106-0.105-0.155c0.037-0.047,0.074-0.071,0.113-0.071c2.098,0,4.193,0,6.291,0
		c0.003,0.093-0.002,0.184-0.016,0.275C1359.608,532.148,1357.76,532.174,1355.911,532.2z"/>
	<path fill-rule="evenodd" clip-rule="evenodd" fill="#983638" d="M1351.02,531.745c-0.192,0.334-0.386,0.668-0.579,1.002
		c-0.107-0.006-0.214-0.012-0.321-0.019c-0.588-0.373-0.702-0.926-0.597-1.564c0.082,0.025,0.165,0.043,0.25,0.056
		C1350.167,531.445,1350.675,531.402,1351.02,531.745z"/>
	<path fill-rule="evenodd" clip-rule="evenodd" fill="#AFB0B4" d="M1382.603,481.989c0.143-0.57-0.335-1.393,0.66-1.613
		c0.086-0.137,0.174-0.131,0.262-0.002c-0.007,0.551-0.014,1.102-0.02,1.652C1383.199,482.133,1382.885,482.443,1382.603,481.989z"
		/>
	<path fill-rule="evenodd" clip-rule="evenodd" fill="#DADCDE" d="M1383.524,480.374l-0.131,0.013l-0.131-0.011
		c-0.212-0.098-0.425-0.195-0.637-0.292c-0.002-0.308-0.004-0.616-0.006-0.924C1383.7,478.985,1383.632,479.665,1383.524,480.374z"
		/>
	<path fill-rule="evenodd" clip-rule="evenodd" fill="#626361" d="M1381.586,478.877c-0.282-0.023-0.565-0.047-0.847-0.071
		c0.241-0.335,0.621-0.29,0.962-0.333c0.145-0.019,0.447-0.233,0.386,0.154C1382.069,478.735,1381.761,478.795,1381.586,478.877z"/>
	<path fill-rule="evenodd" clip-rule="evenodd" fill="#F9F9F9" d="M1339.721,517.633c0.094,0.223,0.188,0.446,0.282,0.669
		c-0.002,0.387-0.005,0.774-0.008,1.161c-2.492-0.001-4.983-0.002-7.475-0.002c-0.146-0.479-0.293-0.958-0.439-1.437
		c0.412-0.575,1.027-0.394,1.574-0.397C1335.677,517.615,1337.698,517.629,1339.721,517.633z"/>
	<path fill-rule="evenodd" clip-rule="evenodd" fill="#687263" d="M1339.396,525.503c-0.201,0.012-0.403,0.024-0.604,0.037
		c-0.361-0.086-0.818,0.151-1.086-0.305C1338.953,524.714,1339.025,524.726,1339.396,525.503z"/>
	<path fill-rule="evenodd" clip-rule="evenodd" fill="#796772" d="M1337.501,523.632c0.63,0.001,1.261,0.002,1.891,0.003
		C1338.76,524.6,1338.13,524.596,1337.501,523.632z"/>
	<path fill-rule="evenodd" clip-rule="evenodd" fill="#69696F" d="M1332.194,522.35c-0.05-0.565-0.121-1.133,0.226-1.644
		C1332.406,521.263,1332.62,521.85,1332.194,522.35z"/>
	<path fill-rule="evenodd" clip-rule="evenodd" fill="#C2C3C7" d="M1316.041,516.687c0,0.424-0.001,0.848-0.001,1.272
		c0.099,0.521-0.108,0.735-0.634,0.627c-0.411-0.948-0.358-1.899-0.016-2.852C1315.607,516.052,1315.824,516.369,1316.041,516.687z"
		/>
	<path fill-rule="evenodd" clip-rule="evenodd" fill="#B0B1B6" d="M1323.016,499.561c0.294,1.025,0.31,2.051,0.003,3.078
		C1323.018,501.614,1323.017,500.587,1323.016,499.561z"/>
	<path fill-rule="evenodd" clip-rule="evenodd" fill="#E4E4EA" d="M1367.171,498.958c-0.733,0.006-1.467,0.011-2.201,0.017
		C1365.7,498.552,1366.435,498.584,1367.171,498.958z"/>
	<path fill-rule="evenodd" clip-rule="evenodd" fill="#CBCBCC" d="M1352.709,511.853c0-1.605,0-3.209,0-4.814
		c0.049-0.002,0.098-0.004,0.146-0.005c0,1.597,0,3.194,0,4.792C1352.807,511.834,1352.758,511.843,1352.709,511.853z"/>
	<path fill-rule="evenodd" clip-rule="evenodd" fill="#B4B4BC" d="M1315.406,518.586c0.211-0.209,0.423-0.418,0.634-0.627
		c0.423,0.942,0.846,1.884,1.27,2.826c0.123,0.54-0.119,0.719-0.627,0.636c-0.203-0.218-0.405-0.436-0.608-0.653
		C1315.911,520.022,1315.318,519.408,1315.406,518.586z"/>
	<path fill-rule="evenodd" clip-rule="evenodd" fill="#ADAEB4" d="M1316.683,521.42c0.209-0.212,0.418-0.424,0.627-0.636
		c0.686,0.977,1.697,1.694,2.223,2.798c-0.006,0.218-0.012,0.437-0.018,0.655C1318.076,523.795,1317.487,522.499,1316.683,521.42z"
		/>
	<path fill-rule="evenodd" clip-rule="evenodd" fill="#C4C5C9" d="M1330.886,526.196c0.183-0.028,0.364-0.058,0.546-0.086
		c0.233,0.219,0.466,0.439,0.699,0.658l-0.114,0.068l-0.132-0.006C1331.552,526.619,1331.219,526.408,1330.886,526.196z"/>
	<path fill-rule="evenodd" clip-rule="evenodd" fill="#E6DDE6" d="M1361.484,529.309c-1.683,0.001-3.365,0.002-5.049,0.002
		c0.069-0.421,0.322-0.622,0.745-0.622c1.185,0.001,2.371,0.001,3.557,0C1361.158,528.689,1361.413,528.888,1361.484,529.309z"/>
	<path fill-rule="evenodd" clip-rule="evenodd" fill="#EFD7DC" d="M1361.477,529.895c0.003-0.09,0.004-0.18,0.001-0.27
		c0.003-0.105,0.005-0.209,0.006-0.314c0.469,0.064,1.088-0.212,1.248,0.551C1362.313,529.873,1361.895,529.884,1361.477,529.895z"
		/>
	<path fill-rule="evenodd" clip-rule="evenodd" fill="#706D69" d="M1364.008,547.615c0.761,0.084,1.558-0.193,2.289,0.355
		c-3.274,0.447-6.575,0.191-9.862,0.275c0.169-0.834,0.84-0.619,1.369-0.623C1359.871,547.604,1361.939,547.615,1364.008,547.615z"
		/>
	<path fill-rule="evenodd" clip-rule="evenodd" fill="#C8C8CA" d="M1344.694,474.058c0.294-0.523,0.901-0.59,1.332-0.913
		c0.855,0.017,1.65,0.585,2.556,0.245c0.284-0.107,0.651-0.044,0.714,0.368c0.058,0.381-0.246,0.524-0.537,0.651
		c-0.407,0.178-0.955,0.112-1.149,0.66c-0.734,0.69-1.579,1.204-2.516,1.571c-0.459,0.181-0.942,0.292-1.325-0.107
		c-0.459-0.479-0.503-1.011-0.006-1.52C1344.444,475.056,1344.497,474.486,1344.694,474.058z"/>
	<path fill-rule="evenodd" clip-rule="evenodd" fill="#CCCCCE" d="M1347.609,475.068c0.002-0.926,1.194-0.557,1.458-1.496
		c-1.188,0.583-2.297,0.909-3.041-0.428c0.84-0.489,1.25-1.772,2.563-1.391c0.269,0.493,0.803,0.452,1.238,0.61
		c0.338,0.174,0.543,0.462,0.688,0.801C1349.957,474.425,1348.735,474.675,1347.609,475.068z"/>
	<path fill-rule="evenodd" clip-rule="evenodd" fill="#C7C7C9" d="M1349.812,472.512c-0.908,0.554-1.482,0.57-1.223-0.758
		c0.936-0.093,2.245-0.935,2.134,1.066C1350.334,472.967,1350.066,472.758,1349.812,472.512z"/>
	<path fill-rule="evenodd" clip-rule="evenodd" fill="#D0D0D2" d="M1344.694,474.058c0.367,0.537-0.538,1.016,0.133,1.546
		c-0.65,0.04-0.729-0.46-1.064-0.591C1343.938,474.563,1344.26,474.255,1344.694,474.058z"/>
	<path fill-rule="evenodd" clip-rule="evenodd" fill="#383838" d="M1340.354,481.982c-0.002-0.841-0.003-1.682-0.005-2.522
		c0.593,0.79,0.196,1.692,0.287,2.539C1340.542,481.989,1340.448,481.983,1340.354,481.982z"/>
	<path fill-rule="evenodd" clip-rule="evenodd" fill="#C5C5C7" d="M1349.812,472.512c0.304,0.103,0.607,0.206,0.911,0.309
		c-0.069,0.115-0.139,0.229-0.208,0.345C1350.109,473.131,1349.841,472.951,1349.812,472.512z"/>
	<path fill-rule="evenodd" clip-rule="evenodd" fill="#DDDCDE" d="M1353.622,468.259c-0.446,0.218-0.835,0.197-1.33,0.012
		C1352.778,468.015,1353.167,468.04,1353.622,468.259z"/>
	<path fill-rule="evenodd" clip-rule="evenodd" fill="#DDDCDE" d="M1351.242,468.577c-0.511,0.181-0.843,0.212-1.228-0.017
		C1350.432,468.025,1350.744,468.446,1351.242,468.577z"/>
	<path fill-rule="evenodd" clip-rule="evenodd" fill="#4DAB9F" d="M1336.234,497.128c-1.015-0.984-0.909-1.833,0.316-2.533
		c1.868,0.078,2.188,0.44,1.659,1.7c-0.241,0.573-0.354,0.766-0.946,0.359C1336.81,496.342,1336.353,496.479,1336.234,497.128z"/>
	<path fill-rule="evenodd" clip-rule="evenodd" fill="#B42934" d="M1344.116,528.998c-0.324-0.236-0.996-0.279-0.566-0.942
		c0.088-0.134,0.379-0.285,0.486-0.234c0.666,0.312-0.034,0.777,0.096,1.164C1344.132,528.985,1344.116,528.998,1344.116,528.998z"
		/>
	<path fill-rule="evenodd" clip-rule="evenodd" fill="#AC2B30" d="M1346.328,528.687c0.156,1.134,0.01,1.282-0.928,0.94
		C1346.002,529.602,1345.647,528.634,1346.328,528.687z"/>
	<path fill-rule="evenodd" clip-rule="evenodd" fill="#B22A31" d="M1341.925,526.572c-0.354,0.042-0.499,0.104-0.582,0.058
		c-0.146-0.082-0.255-0.23-0.379-0.351c0.089-0.027,0.193-0.098,0.264-0.073C1341.399,526.268,1341.555,526.373,1341.925,526.572z"
		/>
	<path fill-rule="evenodd" clip-rule="evenodd" fill="#747474" d="M1342.635,521.4c0,0-0.171,0.125-0.36,0.164
		c-0.184,0.039-0.275-0.131-0.217-0.285c0.05-0.131,0.167-0.263,0.289-0.332C1342.493,520.865,1342.626,520.927,1342.635,521.4z"/>
	<path fill-rule="evenodd" clip-rule="evenodd" fill="#F1E7E5" d="M1351.02,531.745c-0.557,0.162-0.901-0.183-1.247-0.524
		c0.469,0.013,0.938,0.026,1.407,0.039C1351.127,531.421,1351.073,531.583,1351.02,531.745z"/>
	<path fill-rule="evenodd" clip-rule="evenodd" fill="#EFEFF4" d="M1327.149,511.955c0.154-0.106,0.309-0.212,0.463-0.318
		c0.191,0.442,0.168,0.861-0.138,1.248C1327.259,512.612,1326.947,512.374,1327.149,511.955z"/>
	<path fill-rule="evenodd" clip-rule="evenodd" fill="#C8C8C9" d="M1339.08,515.739c-0.012,0.259-0.076,0.491-0.316,0.636
		c-0.995-0.641-2.103-0.176-3.148-0.316c-0.944-0.126-1.948,0.293-2.843-0.308C1334.875,515.747,1336.978,515.743,1339.08,515.739z"
		/>
	<path fill-rule="evenodd" clip-rule="evenodd" fill="#C9C9CB" d="M1333.715,516.69c1.859,0.722,3.794,0.089,5.681,0.314
		c-1.792,0.684-3.646,0.178-5.469,0.279c-0.332,0.019-0.535-0.266-0.616-0.591c-0.011-0.039,0.008-0.109,0.038-0.129
		C1333.522,516.441,1333.62,516.567,1333.715,516.69z"/>
	<path fill-rule="evenodd" clip-rule="evenodd" fill="#C9C9CB" d="M1338.764,516.375c-0.778,0.613-1.686,0.188-2.524,0.315
		C1337.017,516.077,1337.925,516.502,1338.764,516.375z"/>
	<path fill-rule="evenodd" clip-rule="evenodd" fill="#751822" d="M1355.181,531.847c-0.004,0.076-0.006,0.151-0.008,0.226
		c-0.602,0-1.203,0-1.805,0c-0.003-0.075-0.006-0.15-0.01-0.226C1353.966,531.847,1354.573,531.847,1355.181,531.847z"/>
</g>
</svg>
